ISO-10303-21;
HEADER;
FILE_DESCRIPTION (( 'STEP AP214' ),
    '1' );
FILE_NAME ('User Library-BGA12C50P3X4_156X206X62.STEP',
    '2024-12-14T03:16:51',
    ( '' ),
    ( '' ),
    'SwSTEP 2.0',
    'SolidWorks 2022',
    '' );
FILE_SCHEMA (( 'AUTOMOTIVE_DESIGN' ));
ENDSEC;

DATA;
#1 = VECTOR ( 'NONE', #754, 1000.000000000000000 ) ;
#2 = PRESENTATION_LAYER_ASSIGNMENT (  '', '', ( #93 ) ) ;
#3 =( GEOMETRIC_REPRESENTATION_CONTEXT ( 3 ) GLOBAL_UNCERTAINTY_ASSIGNED_CONTEXT ( ( #489 ) ) GLOBAL_UNIT_ASSIGNED_CONTEXT ( ( #361, #240, #380 ) ) REPRESENTATION_CONTEXT ( 'NONE', 'WORKASPACE' ) );
#4 = CARTESIAN_POINT ( 'NONE',  ( -0.5000000000000000000, 0.2500000000000000000, 0.1499999999999999944 ) ) ;
#5 = AXIS2_PLACEMENT_3D ( 'NONE', #359, #809, #430 ) ;
#6 = CARTESIAN_POINT ( 'NONE',  ( 0.1499999999999999944, 0.0000000000000000000, 0.0000000000000000000 ) ) ;
#7 = EDGE_CURVE ( 'NONE', #155, #254, #415, .T. ) ;
#8 = CONTEXT_DEPENDENT_SHAPE_REPRESENTATION ( #518, #706 ) ;
#9 = CARTESIAN_POINT ( 'NONE',  ( 0.3575000000000000955, 1.800000000000000266, 0.6250000000000000000 ) ) ;
#10 = APPLICATION_CONTEXT ( 'automotive_design' ) ;
#11 = DIRECTION ( 'NONE',  ( 1.000000000000000000, 0.0000000000000000000, 0.0000000000000000000 ) ) ;
#12 = SURFACE_STYLE_FILL_AREA ( #346 ) ;
#13 =( BOUNDED_SURFACE ( )  B_SPLINE_SURFACE ( 3, 3, ( 
 ( #26, #635, #368, #566 ),
 ( #756, #431, #694, #167 ),
 ( #306, #625, #232, #22 ),
 ( #499, #559, #443, #357 ) ),
 .UNSPECIFIED., .F., .F., .F. ) 
 B_SPLINE_SURFACE_WITH_KNOTS ( ( 4, 4 ),
 ( 4, 4 ),
 ( 0.0000000000000000000, 1.000000000000000000 ),
 ( 0.0000000000000000000, 1.000000000000000000 ),
 .UNSPECIFIED. ) 
 GEOMETRIC_REPRESENTATION_ITEM ( )  RATIONAL_B_SPLINE_SURFACE ( (
 ( 1.000000000000000000, 0.3333333333333334259, 0.3333333333333334259, 1.000000000000000000),
 ( 0.3333333333333333703, 0.1111111111111111605, 0.1111111111111111605, 0.3333333333333333703),
 ( 0.3333333333333333703, 0.1111111111111111605, 0.1111111111111111605, 0.3333333333333333703),
 ( 1.000000000000000000, 0.3333333333333334259, 0.3333333333333334259, 1.000000000000000000) ) ) 
 REPRESENTATION_ITEM ( '' )  SURFACE ( )  );
#14 = MECHANICAL_DESIGN_GEOMETRIC_PRESENTATION_REPRESENTATION (  '', ( #687 ), #278 ) ;
#15 = SURFACE_STYLE_FILL_AREA ( #600 ) ;
#16 =( GEOMETRIC_REPRESENTATION_CONTEXT ( 3 ) GLOBAL_UNCERTAINTY_ASSIGNED_CONTEXT ( ( #259 ) ) GLOBAL_UNIT_ASSIGNED_CONTEXT ( ( #269, #408, #528 ) ) REPRESENTATION_CONTEXT ( 'NONE', 'WORKASPACE' ) );
#17 = ADVANCED_FACE ( 'NONE', ( #788 ), #786, .F. ) ;
#18 = FACE_OUTER_BOUND ( 'NONE', #391, .T. ) ;
#19 =( GEOMETRIC_REPRESENTATION_CONTEXT ( 3 ) GLOBAL_UNCERTAINTY_ASSIGNED_CONTEXT ( ( #688 ) ) GLOBAL_UNIT_ASSIGNED_CONTEXT ( ( #804, #679, #564 ) ) REPRESENTATION_CONTEXT ( 'NONE', 'WORKASPACE' ) );
#20 = FILL_AREA_STYLE_COLOUR ( '', #472 ) ;
#21 = FILL_AREA_STYLE_COLOUR ( '', #612 ) ;
#22 = CARTESIAN_POINT ( 'NONE',  ( -0.1499999999999999389, 0.2999999999999998779, -7.347880794884116531E-17 ) ) ;
#23 = APPLICATION_CONTEXT ( 'automotive_design' ) ;
#24 = CARTESIAN_POINT ( 'NONE',  ( 1.560000000000000275, 0.0000000000000000000, 0.1499999999999999944 ) ) ;
#25 = APPLICATION_PROTOCOL_DEFINITION ( 'draft international standard', 'automotive_design', 1998, #466 ) ;
#26 = CARTESIAN_POINT ( 'NONE',  ( 0.1499999999999999944, 0.0000000000000000000, 0.0000000000000000000 ) ) ;
#27 = SURFACE_SIDE_STYLE ('',( #643 ) ) ;
#28 = PRESENTATION_LAYER_ASSIGNMENT (  '', '', ( #370 ) ) ;
#29 =( NAMED_UNIT ( * ) SI_UNIT ( $, .STERADIAN. ) SOLID_ANGLE_UNIT ( ) );
#30 = FILL_AREA_STYLE_COLOUR ( '', #759 ) ;
#31 =( LENGTH_UNIT ( ) NAMED_UNIT ( * ) SI_UNIT ( .MILLI., .METRE. ) );
#32 = CARTESIAN_POINT ( 'NONE',  ( 0.0000000000000000000, -0.7500000000000000000, 0.1499999999999999944 ) ) ;
#33 = SURFACE_STYLE_FILL_AREA ( #631 ) ;
#34 = SURFACE_STYLE_USAGE ( .BOTH. , #506 ) ;
#35 =( LENGTH_UNIT ( ) NAMED_UNIT ( * ) SI_UNIT ( .MILLI., .METRE. ) );
#36 = PRODUCT_DEFINITION_CONTEXT ( 'detailed design', #37, 'design' ) ;
#37 = APPLICATION_CONTEXT ( 'automotive_design' ) ;
#38 = STYLED_ITEM ( 'NONE', ( #308 ), #385 ) ;
#39 = PRODUCT_DEFINITION_SHAPE ( 'NONE', 'NONE',  #844 ) ;
#40 = STYLED_ITEM ( 'NONE', ( #117 ), #86 ) ;
#41 = CARTESIAN_POINT ( 'NONE',  ( 0.2600000000000000089, 1.800000000000000266, 0.5250000000000000222 ) ) ;
#42 = PRODUCT_DEFINITION_FORMATION_WITH_SPECIFIED_SOURCE ( 'ANY', '', #95, .NOT_KNOWN. ) ;
#43 = ITEM_DEFINED_TRANSFORMATION ( 'NONE', 'NONE', #81,  #386 ) ;
#44 = CARTESIAN_POINT ( 'NONE',  ( 0.0000000000000000000, 2.060000000000000053, 0.6250000000000000000 ) ) ;
#45 = FACE_OUTER_BOUND ( 'NONE', #658, .T. ) ;
#46 = ITEM_DEFINED_TRANSFORMATION ( 'NONE', 'NONE', #403,  #386 ) ;
#47 = ORIENTED_EDGE ( 'NONE', *, *, #190, .T. ) ;
#48 = CARTESIAN_POINT ( 'NONE',  ( 0.0000000000000000000, 0.0000000000000000000, 0.0000000000000000000 ) ) ;
#49 =( LENGTH_UNIT ( ) NAMED_UNIT ( * ) SI_UNIT ( .MILLI., .METRE. ) );
#50 = CONTEXT_DEPENDENT_SHAPE_REPRESENTATION ( #807, #358 ) ;
#51 = ORIENTED_EDGE ( 'NONE', *, *, #585, .F. ) ;
#52 = APPLICATION_CONTEXT ( 'automotive_design' ) ;
#53 = CARTESIAN_POINT ( 'NONE',  ( 0.2068680194159331631, 1.702210347530692669, 0.5259999999999999121 ) ) ;
#54 = CIRCLE ( 'NONE', #182, 0.09750000000000004496 ) ;
#55 = MECHANICAL_DESIGN_GEOMETRIC_PRESENTATION_REPRESENTATION (  '', ( #474 ), #325 ) ;
#56 =( NAMED_UNIT ( * ) SI_UNIT ( $, .STERADIAN. ) SOLID_ANGLE_UNIT ( ) );
#57 = COLOUR_RGB ( '',0.8000000000000000444, 0.8000000000000000444, 0.8000000000000000444 ) ;
#58 = PRODUCT_RELATED_PRODUCT_CATEGORY ( 'part', '', ( #547 ) ) ;
#59 = VERTEX_POINT ( 'NONE', #350 ) ;
#60 = DIRECTION ( 'NONE',  ( 1.000000000000000000, 0.0000000000000000000, 0.0000000000000000000 ) ) ;
#61 = AXIS2_PLACEMENT_3D ( 'NONE', #150, #88, #356 ) ;
#62 = DIRECTION ( 'NONE',  ( 1.000000000000000000, 0.0000000000000000000, 0.0000000000000000000 ) ) ;
#63 = ITEM_DEFINED_TRANSFORMATION ( 'NONE', 'NONE', #114,  #386 ) ;
#64 = ORIENTED_EDGE ( 'NONE', *, *, #683, .T. ) ;
#65 = SURFACE_STYLE_FILL_AREA ( #142 ) ;
#66 = VERTEX_POINT ( 'NONE', #678 ) ;
#67 = DIRECTION ( 'NONE',  ( 0.0000000000000000000, 0.0000000000000000000, 1.000000000000000000 ) ) ;
#68 = CARTESIAN_POINT ( 'NONE',  ( 0.1499999999999999944, -0.2999999999999998779, 3.673940397442058266E-17 ) ) ;
#69 = PRODUCT ( '6032940992', '6032940992', '', ( #305 ) ) ;
#70 = DIRECTION ( 'NONE',  ( 1.000000000000000000, 0.0000000000000000000, -0.0000000000000000000 ) ) ;
#71 = APPLICATION_CONTEXT ( 'automotive_design' ) ;
#72 = CARTESIAN_POINT ( 'NONE',  ( 0.0000000000000000000, 0.0000000000000000000, 0.0000000000000000000 ) ) ;
#73 = ITEM_DEFINED_TRANSFORMATION ( 'NONE', 'NONE', #457,  #386 ) ;
#74 =( BOUNDED_SURFACE ( )  B_SPLINE_SURFACE ( 3, 3, ( 
 ( #606, #739, #6, #145 ),
 ( #138, #420, #338, #68 ),
 ( #213, #742, #214, #672 ),
 ( #153, #276, #483, #75 ) ),
 .UNSPECIFIED., .F., .F., .F. ) 
 B_SPLINE_SURFACE_WITH_KNOTS ( ( 4, 4 ),
 ( 4, 4 ),
 ( 0.0000000000000000000, 1.000000000000000000 ),
 ( 0.0000000000000000000, 1.000000000000000000 ),
 .UNSPECIFIED. ) 
 GEOMETRIC_REPRESENTATION_ITEM ( )  RATIONAL_B_SPLINE_SURFACE ( (
 ( 1.000000000000000000, 0.3333333333333334259, 0.3333333333333334259, 1.000000000000000000),
 ( 0.3333333333333333703, 0.1111111111111111605, 0.1111111111111111605, 0.3333333333333333703),
 ( 0.3333333333333333703, 0.1111111111111111605, 0.1111111111111111605, 0.3333333333333333703),
 ( 1.000000000000000000, 0.3333333333333334259, 0.3333333333333334259, 1.000000000000000000) ) ) 
 REPRESENTATION_ITEM ( '' )  SURFACE ( )  );
#75 = CARTESIAN_POINT ( 'NONE',  ( -0.1499999999999999944, -1.836970198721029441E-17, 2.249639673992786070E-33 ) ) ;
#76 = DIRECTION ( 'NONE',  ( -0.0000000000000000000, 0.0000000000000000000, -1.000000000000000000 ) ) ;
#77 = FILL_AREA_STYLE_COLOUR ( '', #282 ) ;
#78 = PRODUCT_DEFINITION_SHAPE ( 'NONE', 'NONE',  #834 ) ;
#79 =( GEOMETRIC_REPRESENTATION_CONTEXT ( 3 ) GLOBAL_UNCERTAINTY_ASSIGNED_CONTEXT ( ( #503 ) ) GLOBAL_UNIT_ASSIGNED_CONTEXT ( ( #447, #294, #579 ) ) REPRESENTATION_CONTEXT ( 'NONE', 'WORKASPACE' ) );
#80 = PRODUCT_DEFINITION_CONTEXT ( 'detailed design', #500, 'design' ) ;
#81 = AXIS2_PLACEMENT_3D ( 'NONE', #628, #440, #502 ) ;
#82 =( REPRESENTATION_RELATIONSHIP ('NONE','NONE', #595, #264 ) REPRESENTATION_RELATIONSHIP_WITH_TRANSFORMATION ( #260 )SHAPE_REPRESENTATION_RELATIONSHIP( ) );
#83 = DIRECTION ( 'NONE',  ( 1.000000000000000000, 0.0000000000000000000, 0.0000000000000000000 ) ) ;
#84 = CARTESIAN_POINT ( 'NONE',  ( 0.5000000000000000000, -0.2500000000000000000, 0.1499999999999999944 ) ) ;
#85 = DIRECTION ( 'NONE',  ( 0.0000000000000000000, 0.0000000000000000000, 1.000000000000000000 ) ) ;
#86 = MANIFOLD_SURFACE_SHAPE_REPRESENTATION ( '', ( #541, #442 ), #79 ) ;
#87 =( LENGTH_UNIT ( ) NAMED_UNIT ( * ) SI_UNIT ( .MILLI., .METRE. ) );
#88 = DIRECTION ( 'NONE',  ( 0.0000000000000000000, 0.0000000000000000000, 1.000000000000000000 ) ) ;
#89 = SURFACE_SIDE_STYLE ('',( #682 ) ) ;
#90 = PRODUCT_DEFINITION_CONTEXT ( 'detailed design', #52, 'design' ) ;
#91 = DIRECTION ( 'NONE',  ( -0.0000000000000000000, 0.0000000000000000000, -1.000000000000000000 ) ) ;
#92 = DIRECTION ( 'NONE',  ( 0.0000000000000000000, 0.0000000000000000000, 1.000000000000000000 ) ) ;
#93 = STYLED_ITEM ( 'NONE', ( #726 ), #318 ) ;
#94 = COLOUR_RGB ( '',0.2000000000000000111, 0.2000000000000000111, 0.2000000000000000111 ) ;
#95 = PRODUCT ( 'Open_CASCADE_STEP_translator_6.8_1.2.1', 'Open_CASCADE_STEP_translator_6.8_1.2.1', '', ( #253 ) ) ;
#96 = AXIS2_PLACEMENT_3D ( 'NONE', #647, #731, #520 ) ;
#97 = DIRECTION ( 'NONE',  ( 0.0000000000000000000, -1.224646799147353207E-16, -1.000000000000000000 ) ) ;
#98 = AXIS2_PLACEMENT_3D ( 'NONE', #527, #780, #60 ) ;
#99 = PRODUCT_DEFINITION ( 'UNKNOWN', '', #426, #90 ) ;
#100 = AXIS2_PLACEMENT_3D ( 'NONE', #544, #207, #730 ) ;
#101 = CARTESIAN_POINT ( 'NONE',  ( 0.0000000000000000000, 0.0000000000000000000, 0.1499999999999999944 ) ) ;
#102 = LINE ( 'NONE', #752, #744 ) ;
#103 = UNCERTAINTY_MEASURE_WITH_UNIT (LENGTH_MEASURE( 1.000000000000000082E-05 ), #230, 'distance_accuracy_value', 'NONE');
#104 = PLANE ( 'NONE',  #367 ) ;
#105 = LINE ( 'NONE', #159, #238 ) ;
#106 = PRODUCT ( 'Open_CASCADE_STEP_translator_6.8_1.1', 'Open_CASCADE_STEP_translator_6.8_1.1', '', ( #400 ) ) ;
#107 = ORIENTED_EDGE ( 'NONE', *, *, #134, .T. ) ;
#108 = CARTESIAN_POINT ( 'NONE',  ( 0.0000000000000000000, 2.060000000000000053, 0.1499999999999999944 ) ) ;
#109 =( NAMED_UNIT ( * ) PLANE_ANGLE_UNIT ( ) SI_UNIT ( $, .RADIAN. ) );
#110 = CONTEXT_DEPENDENT_SHAPE_REPRESENTATION ( #581, #365 ) ;
#111 =( NAMED_UNIT ( * ) PLANE_ANGLE_UNIT ( ) SI_UNIT ( $, .RADIAN. ) );
#112 = CARTESIAN_POINT ( 'NONE',  ( 0.1625000000000000056, 1.800000000000000266, 0.5260000000000000231 ) ) ;
#113 = FACE_OUTER_BOUND ( 'NONE', #751, .T. ) ;
#114 = AXIS2_PLACEMENT_3D ( 'NONE', #32, #435, #761 ) ;
#115 = CONTEXT_DEPENDENT_SHAPE_REPRESENTATION ( #434, #218 ) ;
#116 = ORIENTED_EDGE ( 'NONE', *, *, #267, .T. ) ;
#117 = PRESENTATION_STYLE_ASSIGNMENT (( #392 ) ) ;
#118 = DIRECTION ( 'NONE',  ( 1.000000000000000000, 0.0000000000000000000, 0.0000000000000000000 ) ) ;
#119 = PRODUCT_DEFINITION_SHAPE ( 'NONE', 'NONE',  #404 ) ;
#120 = VERTEX_POINT ( 'NONE', #9 ) ;
#121 = CARTESIAN_POINT ( 'NONE',  ( 0.1625000000000000333, 1.800000000000000266, 0.6250000000000000000 ) ) ;
#122 = UNCERTAINTY_MEASURE_WITH_UNIT (LENGTH_MEASURE( 1.000000000000000082E-05 ), #775, 'distance_accuracy_value', 'NONE');
#123 = EDGE_CURVE ( 'NONE', #120, #648, #675, .T. ) ;
#124 = DIRECTION ( 'NONE',  ( 0.0000000000000000000, 0.0000000000000000000, 1.000000000000000000 ) ) ;
#125 = APPLICATION_PROTOCOL_DEFINITION ( 'draft international standard', 'automotive_design', 1998, #37 ) ;
#126 = EDGE_LOOP ( 'NONE', ( #589, #454 ) ) ;
#127 = VECTOR ( 'NONE', #223, 1000.000000000000000 ) ;
#128 = AXIS2_PLACEMENT_3D ( 'NONE', #769, #124, #381 ) ;
#129 = COLOUR_RGB ( '',0.2000000000000000111, 0.2000000000000000111, 0.2000000000000000111 ) ;
#130 = ORIENTED_EDGE ( 'NONE', *, *, #137, .F. ) ;
#131 = CARTESIAN_POINT ( 'NONE',  ( 0.0000000000000000000, 0.0000000000000000000, 0.0000000000000000000 ) ) ;
#132 = ORIENTED_EDGE ( 'NONE', *, *, #445, .F. ) ;
#133 =( REPRESENTATION_RELATIONSHIP ('NONE','NONE', #595, #427 ) REPRESENTATION_RELATIONSHIP_WITH_TRANSFORMATION ( #390 )SHAPE_REPRESENTATION_RELATIONSHIP( ) );
#134 = EDGE_CURVE ( 'NONE', #648, #120, #54, .T. ) ;
#135 = CARTESIAN_POINT ( 'NONE',  ( 0.0000000000000000000, 2.060000000000000053, 0.1499999999999999944 ) ) ;
#136 = SURFACE_STYLE_FILL_AREA ( #732 ) ;
#137 = EDGE_CURVE ( 'NONE', #717, #707, #206, .T. ) ;
#138 = CARTESIAN_POINT ( 'NONE',  ( 0.1499999999999999944, 0.2999999999999998779, 0.0000000000000000000 ) ) ;
#139 = COLOUR_RGB ( '',0.2000000000000000111, 0.2000000000000000111, 0.2000000000000000111 ) ;
#140 = ORIENTED_EDGE ( 'NONE', *, *, #372, .T. ) ;
#141 = FACE_OUTER_BOUND ( 'NONE', #698, .T. ) ;
#142 = FILL_AREA_STYLE ('',( #329 ) ) ;
#143 = ADVANCED_FACE ( 'NONE', ( #275 ), #355, .T. ) ;
#144 = DIRECTION ( 'NONE',  ( 0.0000000000000000000, 0.0000000000000000000, 1.000000000000000000 ) ) ;
#145 = CARTESIAN_POINT ( 'NONE',  ( 0.1499999999999999944, 0.0000000000000000000, 0.0000000000000000000 ) ) ;
#146 = PRODUCT ( 'ball', 'ball', '', ( #577 ) ) ;
#147 = EDGE_CURVE ( 'NONE', #584, #155, #813, .T. ) ;
#148 = DIRECTION ( 'NONE',  ( 1.000000000000000000, 0.0000000000000000000, 0.0000000000000000000 ) ) ;
#149 = DIRECTION ( 'NONE',  ( -0.0000000000000000000, 0.0000000000000000000, -1.000000000000000000 ) ) ;
#150 = CARTESIAN_POINT ( 'NONE',  ( 0.0000000000000000000, 0.0000000000000000000, 0.0000000000000000000 ) ) ;
#151 = VECTOR ( 'NONE', #437, 1000.000000000000000 ) ;
#152 = PRESENTATION_LAYER_ASSIGNMENT (  '', '', ( #550 ) ) ;
#153 = CARTESIAN_POINT ( 'NONE',  ( -0.1499999999999999944, 1.836970198721029441E-17, 0.0000000000000000000 ) ) ;
#154 = PRODUCT_DEFINITION_CONTEXT ( 'detailed design', #602, 'design' ) ;
#155 = VERTEX_POINT ( 'NONE', #301 ) ;
#156 = CARTESIAN_POINT ( 'NONE',  ( 0.5000000000000000000, -0.7500000000000000000, 0.1499999999999999944 ) ) ;
#157 =( NAMED_UNIT ( * ) PLANE_ANGLE_UNIT ( ) SI_UNIT ( $, .RADIAN. ) );
#158 = CARTESIAN_POINT ( 'NONE',  ( 0.3099048519428140303, 1.887771836805942183, 0.5260000000000000231 ) ) ;
#159 = CARTESIAN_POINT ( 'NONE',  ( 1.560000000000000275, 2.060000000000000053, 0.1499999999999999944 ) ) ;
#160 = DIRECTION ( 'NONE',  ( 0.0000000000000000000, 0.0000000000000000000, 1.000000000000000000 ) ) ;
#161 = ORIENTED_EDGE ( 'NONE', *, *, #190, .F. ) ;
#162 = DIRECTION ( 'NONE',  ( 1.000000000000000000, 0.0000000000000000000, 0.0000000000000000000 ) ) ;
#163 = PRODUCT_RELATED_PRODUCT_CATEGORY ( 'part', '', ( #69 ) ) ;
#164 = CARTESIAN_POINT ( 'NONE',  ( 0.1625000000000000333, 1.800000000000000266, 0.5250000000000000222 ) ) ;
#165 = AXIS2_PLACEMENT_3D ( 'NONE', #670, #794, #211 ) ;
#166 = COLOUR_RGB ( '',0.2000000000000000111, 0.2000000000000000111, 0.2000000000000000111 ) ;
#167 = CARTESIAN_POINT ( 'NONE',  ( 0.1499999999999999944, 0.2999999999999998779, -7.347880794884116531E-17 ) ) ;
#168 =( GEOMETRIC_REPRESENTATION_CONTEXT ( 3 ) GLOBAL_UNCERTAINTY_ASSIGNED_CONTEXT ( ( #324 ) ) GLOBAL_UNIT_ASSIGNED_CONTEXT ( ( #323, #768, #650 ) ) REPRESENTATION_CONTEXT ( 'NONE', 'WORKASPACE' ) );
#169 = SHAPE_REPRESENTATION ( 'User Library-BGA12C50P3X4_156X206X62', ( #61, #5 ), #774 ) ;
#170 = MECHANICAL_DESIGN_GEOMETRIC_PRESENTATION_REPRESENTATION (  '', ( #550 ), #783 ) ;
#171 = CARTESIAN_POINT ( 'NONE',  ( 0.3575000000000000955, 1.827133015136872540, 0.5260000000000000231 ) ) ;
#172 =( GEOMETRIC_REPRESENTATION_CONTEXT ( 3 ) GLOBAL_UNCERTAINTY_ASSIGNED_CONTEXT ( ( #805 ) ) GLOBAL_UNIT_ASSIGNED_CONTEXT ( ( #782, #665, #480 ) ) REPRESENTATION_CONTEXT ( 'NONE', 'WORKASPACE' ) );
#173 = ADVANCED_FACE ( 'NONE', ( #818 ), #288, .F. ) ;
#174 = CARTESIAN_POINT ( 'NONE',  ( 0.0000000000000000000, 0.0000000000000000000, 0.1499999999999999944 ) ) ;
#175 = CARTESIAN_POINT ( 'NONE',  ( -0.5000000000000000000, -0.7500000000000000000, 0.1499999999999999944 ) ) ;
#176 = SURFACE_STYLE_FILL_AREA ( #753 ) ;
#177 = PRODUCT_DEFINITION_SHAPE ( 'NONE', 'NONE',  #835 ) ;
#178 =( REPRESENTATION_RELATIONSHIP ('NONE','NONE', #595, #309 ) REPRESENTATION_RELATIONSHIP_WITH_TRANSFORMATION ( #464 )SHAPE_REPRESENTATION_RELATIONSHIP( ) );
#179 = FILL_AREA_STYLE ('',( #626 ) ) ;
#180 = CARTESIAN_POINT ( 'NONE',  ( 0.0000000000000000000, 0.0000000000000000000, 0.6250000000000000000 ) ) ;
#181 = EDGE_LOOP ( 'NONE', ( #330, #656, #47, #594 ) ) ;
#182 = AXIS2_PLACEMENT_3D ( 'NONE', #542, #344, #608 ) ;
#183 =( GEOMETRIC_REPRESENTATION_CONTEXT ( 3 ) GLOBAL_UNCERTAINTY_ASSIGNED_CONTEXT ( ( #122 ) ) GLOBAL_UNIT_ASSIGNED_CONTEXT ( ( #775, #263, #192 ) ) REPRESENTATION_CONTEXT ( 'NONE', 'WORKASPACE' ) );
#184 = FILL_AREA_STYLE_COLOUR ( '', #166 ) ;
#185 = APPLICATION_PROTOCOL_DEFINITION ( 'draft international standard', 'automotive_design', 1998, #500 ) ;
#186 = SURFACE_SIDE_STYLE ('',( #399 ) ) ;
#187 = ITEM_DEFINED_TRANSFORMATION ( 'NONE', 'NONE', #272,  #386 ) ;
#188 = ORIENTED_EDGE ( 'NONE', *, *, #287, .T. ) ;
#189 = DIRECTION ( 'NONE',  ( 0.0000000000000000000, 0.0000000000000000000, 1.000000000000000000 ) ) ;
#190 = EDGE_CURVE ( 'NONE', #781, #254, #429, .T. ) ;
#191 = UNCERTAINTY_MEASURE_WITH_UNIT (LENGTH_MEASURE( 1.000000000000000082E-05 ), #492, 'distance_accuracy_value', 'NONE');
#192 =( NAMED_UNIT ( * ) SI_UNIT ( $, .STERADIAN. ) SOLID_ANGLE_UNIT ( ) );
#193 = EDGE_LOOP ( 'NONE', ( #772, #107 ) ) ;
#194 = CARTESIAN_POINT ( 'NONE',  ( 0.1627896524693300540, 1.746868019415974027, 0.5260000000000000231 ) ) ;
#195 = PRESENTATION_LAYER_ASSIGNMENT (  '', '', ( #38 ) ) ;
#196 = COLOUR_RGB ( '',0.7921568627450980005, 0.8196078431372548767, 0.9333333333333333481 ) ;
#197 = ORIENTED_EDGE ( 'NONE', *, *, #283, .T. ) ;
#198 = MANIFOLD_SOLID_BREP ( 'Imported1', #702 ) ;
#199 = PRODUCT_RELATED_PRODUCT_CATEGORY ( 'part', '', ( #348 ) ) ;
#200 = CARTESIAN_POINT ( 'NONE',  ( 0.0000000000000000000, 2.060000000000000053, 0.1499999999999999944 ) ) ;
#201 = FILL_AREA_STYLE ('',( #203 ) ) ;
#202 = APPLICATION_CONTEXT ( 'automotive_design' ) ;
#203 = FILL_AREA_STYLE_COLOUR ( '', #563 ) ;
#204 = UNCERTAINTY_MEASURE_WITH_UNIT (LENGTH_MEASURE( 1.000000000000000082E-05 ), #599, 'distance_accuracy_value', 'NONE');
#205 = STYLED_ITEM ( 'NONE', ( #556 ), #17 ) ;
#206 = LINE ( 'NONE', #200, #304 ) ;
#207 = DIRECTION ( 'NONE',  ( 0.0000000000000000000, 0.0000000000000000000, 1.000000000000000000 ) ) ;
#208 = PRODUCT_DEFINITION_FORMATION_WITH_SPECIFIED_SOURCE ( 'ANY', '', #547, .NOT_KNOWN. ) ;
#209 = PRODUCT_DEFINITION ( 'UNKNOWN', '', #208, #369 ) ;
#210 = CONTEXT_DEPENDENT_SHAPE_REPRESENTATION ( #549, #247 ) ;
#211 = DIRECTION ( 'NONE',  ( 1.000000000000000000, 0.0000000000000000000, -0.0000000000000000000 ) ) ;
#212 =( NAMED_UNIT ( * ) PLANE_ANGLE_UNIT ( ) SI_UNIT ( $, .RADIAN. ) );
#213 = CARTESIAN_POINT ( 'NONE',  ( -0.1499999999999999389, 0.2999999999999998779, 0.0000000000000000000 ) ) ;
#214 = CARTESIAN_POINT ( 'NONE',  ( -0.1499999999999999944, -0.2999999999999999334, 0.5999999999999998668 ) ) ;
#215 = MECHANICAL_DESIGN_GEOMETRIC_PRESENTATION_REPRESENTATION (  '', ( #362 ), #664 ) ;
#216 =( NAMED_UNIT ( * ) SI_UNIT ( $, .STERADIAN. ) SOLID_ANGLE_UNIT ( ) );
#217 = APPLICATION_PROTOCOL_DEFINITION ( 'draft international standard', 'automotive_design', 1998, #10 ) ;
#218 = PRODUCT_DEFINITION_SHAPE ( 'NONE', 'NONE',  #842 ) ;
#219 = STYLED_ITEM ( 'NONE', ( #832 ), #523 ) ;
#220 = APPLICATION_PROTOCOL_DEFINITION ( 'draft international standard', 'automotive_design', 1998, #602 ) ;
#221 = CARTESIAN_POINT ( 'NONE',  ( 0.1622103475306699849, 1.853131980584026728, 0.5260000000000000231 ) ) ;
#222 = PRESENTATION_STYLE_ASSIGNMENT (( #715 ) ) ;
#223 = DIRECTION ( 'NONE',  ( 1.000000000000000000, 0.0000000000000000000, -0.0000000000000000000 ) ) ;
#224 = EDGE_CURVE ( 'NONE', #237, #722, #575, .T. ) ;
#225 = DIRECTION ( 'NONE',  ( 1.000000000000000000, 0.0000000000000000000, 0.0000000000000000000 ) ) ;
#226 = SURFACE_STYLE_USAGE ( .BOTH. , #573 ) ;
#227 = FACE_OUTER_BOUND ( 'NONE', #460, .T. ) ;
#228 = PRODUCT_DEFINITION_SHAPE ( 'NONE', 'NONE',  #838 ) ;
#229 = CARTESIAN_POINT ( 'NONE',  ( 0.1625000000000000333, 1.800000000000000266, 0.5250000000000000222 ) ) ;
#230 =( LENGTH_UNIT ( ) NAMED_UNIT ( * ) SI_UNIT ( .MILLI., .METRE. ) );
#231 =( REPRESENTATION_RELATIONSHIP ('NONE','NONE', #595, #427 ) REPRESENTATION_RELATIONSHIP_WITH_TRANSFORMATION ( #645 )SHAPE_REPRESENTATION_RELATIONSHIP( ) );
#232 = CARTESIAN_POINT ( 'NONE',  ( -0.1499999999999999944, 0.2999999999999997113, -0.5999999999999999778 ) ) ;
#233 =( NAMED_UNIT ( * ) SI_UNIT ( $, .STERADIAN. ) SOLID_ANGLE_UNIT ( ) );
#234 = CARTESIAN_POINT ( 'NONE',  ( 0.2600000000000000089, 1.800000000000000266, 0.5250000000000000222 ) ) ;
#235 = B_SPLINE_CURVE_WITH_KNOTS ( 'NONE', 3,
 ( #112, #221, #749, #689, #158, #806, #171, #433 ),
 .UNSPECIFIED., .F., .F.,
 ( 4, 2, 2, 4 ),
 ( 0.5000000000000000000, 0.7499999999999998890, 0.8750000000000000000, 1.000000000000000000 ),
 .UNSPECIFIED. ) ;
#236 = CARTESIAN_POINT ( 'NONE',  ( 0.0000000000000000000, 0.2500000000000000000, 0.1499999999999999944 ) ) ;
#237 = VERTEX_POINT ( 'NONE', #618 ) ;
#238 = VECTOR ( 'NONE', #363, 1000.000000000000000 ) ;
#239 = AXIS2_PLACEMENT_3D ( 'NONE', #636, #244, #91 ) ;
#240 =( NAMED_UNIT ( * ) PLANE_ANGLE_UNIT ( ) SI_UNIT ( $, .RADIAN. ) );
#241 = AXIS2_PLACEMENT_3D ( 'NONE', #352, #605, #11 ) ;
#242 = FILL_AREA_STYLE_COLOUR ( '', #611 ) ;
#243 = ITEM_DEFINED_TRANSFORMATION ( 'NONE', 'NONE', #486,  #386 ) ;
#244 = DIRECTION ( 'NONE',  ( 1.000000000000000000, 0.0000000000000000000, -0.0000000000000000000 ) ) ;
#245 = LINE ( 'NONE', #180, #817 ) ;
#246 = ITEM_DEFINED_TRANSFORMATION ( 'NONE', 'NONE', #760,  #386 ) ;
#247 = PRODUCT_DEFINITION_SHAPE ( 'NONE', 'NONE',  #845 ) ;
#248 = ORIENTED_EDGE ( 'NONE', *, *, #224, .T. ) ;
#249 =( LENGTH_UNIT ( ) NAMED_UNIT ( * ) SI_UNIT ( .MILLI., .METRE. ) );
#250 = CARTESIAN_POINT ( 'NONE',  ( 0.3575000000000000400, 1.800000000000000266, 0.5260000000000000231 ) ) ;
#251 = FILL_AREA_STYLE ('',( #184 ) ) ;
#252 =( REPRESENTATION_RELATIONSHIP ('NONE','NONE', #595, #427 ) REPRESENTATION_RELATIONSHIP_WITH_TRANSFORMATION ( #43 )SHAPE_REPRESENTATION_RELATIONSHIP( ) );
#253 = PRODUCT_CONTEXT ( 'NONE', #567, 'mechanical' ) ;
#254 = VERTEX_POINT ( 'NONE', #24 ) ;
#255 =( NAMED_UNIT ( * ) PLANE_ANGLE_UNIT ( ) SI_UNIT ( $, .RADIAN. ) );
#256 = MECHANICAL_DESIGN_GEOMETRIC_PRESENTATION_REPRESENTATION (  '', ( #205 ), #620 ) ;
#257 = CARTESIAN_POINT ( 'NONE',  ( 0.3131319805840668824, 1.702789652469308024, 0.5260000000000000231 ) ) ;
#258 = MECHANICAL_DESIGN_GEOMETRIC_PRESENTATION_REPRESENTATION (  '', ( #677 ), #736 ) ;
#259 = UNCERTAINTY_MEASURE_WITH_UNIT (LENGTH_MEASURE( 1.000000000000000082E-05 ), #269, 'distance_accuracy_value', 'NONE');
#260 = ITEM_DEFINED_TRANSFORMATION ( 'NONE', 'NONE', #565,  #442 ) ;
#261 = ORIENTED_EDGE ( 'NONE', *, *, #123, .F. ) ;
#262 = DIRECTION ( 'NONE',  ( -0.0000000000000000000, -1.000000000000000000, -0.0000000000000000000 ) ) ;
#263 =( NAMED_UNIT ( * ) PLANE_ANGLE_UNIT ( ) SI_UNIT ( $, .RADIAN. ) );
#264 = SHAPE_REPRESENTATION ( 'Open_CASCADE_STEP_translator_6.8_1.1', ( #442 ), #79 ) ;
#265 = SHAPE_DEFINITION_REPRESENTATION ( #119, #595 ) ;
#266 = ORIENTED_EDGE ( 'NONE', *, *, #596, .F. ) ;
#267 = EDGE_CURVE ( 'NONE', #584, #59, #105, .T. ) ;
#268 = VERTEX_POINT ( 'NONE', #229 ) ;
#269 =( LENGTH_UNIT ( ) NAMED_UNIT ( * ) SI_UNIT ( .MILLI., .METRE. ) );
#270 = STYLED_ITEM ( 'NONE', ( #822 ), #491 ) ;
#271 =( NAMED_UNIT ( * ) PLANE_ANGLE_UNIT ( ) SI_UNIT ( $, .RADIAN. ) );
#272 = AXIS2_PLACEMENT_3D ( 'NONE', #84, #378, #425 ) ;
#273 = SURFACE_SIDE_STYLE ('',( #15 ) ) ;
#274 =( NAMED_UNIT ( * ) SI_UNIT ( $, .STERADIAN. ) SOLID_ANGLE_UNIT ( ) );
#275 = FACE_OUTER_BOUND ( 'NONE', #126, .T. ) ;
#276 = CARTESIAN_POINT ( 'NONE',  ( -0.1499999999999999944, 1.836970198721029749E-17, 3.673940397442058882E-17 ) ) ;
#277 =( NAMED_UNIT ( * ) PLANE_ANGLE_UNIT ( ) SI_UNIT ( $, .RADIAN. ) );
#278 =( GEOMETRIC_REPRESENTATION_CONTEXT ( 3 ) GLOBAL_UNCERTAINTY_ASSIGNED_CONTEXT ( ( #462 ) ) GLOBAL_UNIT_ASSIGNED_CONTEXT ( ( #87, #109, #803 ) ) REPRESENTATION_CONTEXT ( 'NONE', 'WORKASPACE' ) );
#279 = VECTOR ( 'NONE', #373, 1000.000000000000000 ) ;
#280 = DIRECTION ( 'NONE',  ( 0.0000000000000000000, -0.0000000000000000000, 1.000000000000000000 ) ) ;
#281 = CARTESIAN_POINT ( 'NONE',  ( 0.0000000000000000000, 0.7500000000000000000, 0.1499999999999999944 ) ) ;
#282 = COLOUR_RGB ( '',0.7921568627450980005, 0.8196078431372548767, 0.9333333333333333481 ) ;
#283 = EDGE_CURVE ( 'NONE', #268, #648, #298, .T. ) ;
#284 = SURFACE_SIDE_STYLE ('',( #12 ) ) ;
#285 = PRESENTATION_STYLE_ASSIGNMENT (( #673 ) ) ;
#286 =( NAMED_UNIT ( * ) PLANE_ANGLE_UNIT ( ) SI_UNIT ( $, .RADIAN. ) );
#287 = EDGE_CURVE ( 'NONE', #781, #66, #377, .T. ) ;
#288 = PLANE ( 'NONE',  #402 ) ;
#289 = DIRECTION ( 'NONE',  ( 0.0000000000000000000, 0.0000000000000000000, 1.000000000000000000 ) ) ;
#290 = PRODUCT_DEFINITION ( 'UNKNOWN', '', #42, #616 ) ;
#291 = DIRECTION ( 'NONE',  ( 1.000000000000000000, 0.0000000000000000000, 0.0000000000000000000 ) ) ;
#292 = AXIS2_PLACEMENT_3D ( 'NONE', #411, #332, #317 ) ;
#293 = COLOUR_RGB ( '',0.7921568627450980005, 0.8196078431372548767, 0.9333333333333333481 ) ;
#294 =( NAMED_UNIT ( * ) PLANE_ANGLE_UNIT ( ) SI_UNIT ( $, .RADIAN. ) );
#295 =( NAMED_UNIT ( * ) PLANE_ANGLE_UNIT ( ) SI_UNIT ( $, .RADIAN. ) );
#296 = EDGE_CURVE ( 'NONE', #268, #779, #335, .T. ) ;
#297 = PRODUCT_DEFINITION_SHAPE ( 'NONE', 'NONE',  #652 ) ;
#298 = LINE ( 'NONE', #164, #637 ) ;
#299 = CARTESIAN_POINT ( 'NONE',  ( -0.5000000000000000000, -0.2500000000000000000, 0.1499999999999999944 ) ) ;
#300 = PRODUCT_DEFINITION ( 'UNKNOWN', '', #724, #80 ) ;
#301 = CARTESIAN_POINT ( 'NONE',  ( 1.560000000000000275, 0.0000000000000000000, 0.6250000000000000000 ) ) ;
#302 = SURFACE_SIDE_STYLE ('',( #33 ) ) ;
#303 = DIRECTION ( 'NONE',  ( 1.000000000000000000, 0.0000000000000000000, -0.0000000000000000000 ) ) ;
#304 = VECTOR ( 'NONE', #280, 1000.000000000000000 ) ;
#305 = PRODUCT_CONTEXT ( 'NONE', #466, 'mechanical' ) ;
#306 = CARTESIAN_POINT ( 'NONE',  ( -0.1499999999999999389, -0.2999999999999998779, 3.673940397442058266E-17 ) ) ;
#307 = STYLED_ITEM ( 'NONE', ( #784 ), #740 ) ;
#308 = PRESENTATION_STYLE_ASSIGNMENT (( #448 ) ) ;
#309 = SHAPE_REPRESENTATION ( 'Body', ( #641, #98 ), #476 ) ;
#310 = DIRECTION ( 'NONE',  ( 0.0000000000000000000, 0.0000000000000000000, 1.000000000000000000 ) ) ;
#311 =( REPRESENTATION_RELATIONSHIP ('NONE','NONE', #595, #427 ) REPRESENTATION_RELATIONSHIP_WITH_TRANSFORMATION ( #243 )SHAPE_REPRESENTATION_RELATIONSHIP( ) );
#312 = SURFACE_STYLE_USAGE ( .BOTH. , #383 ) ;
#313 = CARTESIAN_POINT ( 'NONE',  ( 0.0000000000000000000, 2.060000000000000053, 0.6250000000000000000 ) ) ;
#314 = PRODUCT_DEFINITION_SHAPE ( 'NONE', 'NONE',  #848 ) ;
#315 = ORIENTED_EDGE ( 'NONE', *, *, #416, .F. ) ;
#316 = FILL_AREA_STYLE_COLOUR ( '', #196 ) ;
#317 = DIRECTION ( 'NONE',  ( 1.000000000000000000, 0.0000000000000000000, 0.0000000000000000000 ) ) ;
#318 = ADVANCED_FACE ( 'NONE', ( #463, #45 ), #644, .T. ) ;
#319 = FACE_OUTER_BOUND ( 'NONE', #406, .T. ) ;
#320 = EDGE_LOOP ( 'NONE', ( #591, #339 ) ) ;
#321 = PRESENTATION_STYLE_ASSIGNMENT (( #312 ) ) ;
#322 = ADVANCED_BREP_SHAPE_REPRESENTATION ( '', ( #198, #386 ), #172 ) ;
#323 =( LENGTH_UNIT ( ) NAMED_UNIT ( * ) SI_UNIT ( .MILLI., .METRE. ) );
#324 = UNCERTAINTY_MEASURE_WITH_UNIT (LENGTH_MEASURE( 1.000000000000000082E-05 ), #323, 'distance_accuracy_value', 'NONE');
#325 =( GEOMETRIC_REPRESENTATION_CONTEXT ( 3 ) GLOBAL_UNCERTAINTY_ASSIGNED_CONTEXT ( ( #191 ) ) GLOBAL_UNIT_ASSIGNED_CONTEXT ( ( #492, #286, #274 ) ) REPRESENTATION_CONTEXT ( 'NONE', 'WORKASPACE' ) );
#326 = AXIS2_PLACEMENT_3D ( 'NONE', #236, #289, #750 ) ;
#327 = APPLICATION_PROTOCOL_DEFINITION ( 'draft international standard', 'automotive_design', 1998, #567 ) ;
#328 = ORIENTED_EDGE ( 'NONE', *, *, #147, .F. ) ;
#329 = FILL_AREA_STYLE_COLOUR ( '', #139 ) ;
#330 = ORIENTED_EDGE ( 'NONE', *, *, #372, .F. ) ;
#331 =( NAMED_UNIT ( * ) SI_UNIT ( $, .STERADIAN. ) SOLID_ANGLE_UNIT ( ) );
#332 = DIRECTION ( 'NONE',  ( 0.0000000000000000000, 0.0000000000000000000, 1.000000000000000000 ) ) ;
#333 = VECTOR ( 'NONE', #76, 1000.000000000000000 ) ;
#334 = PRESENTATION_STYLE_ASSIGNMENT (( #554 ) ) ;
#335 = CIRCLE ( 'NONE', #413, 0.09750000000000004496 ) ;
#336 = AXIS2_PLACEMENT_3D ( 'NONE', #379, #686, #162 ) ;
#337 = CARTESIAN_POINT ( 'NONE',  ( -0.7800000000000001377, -1.030000000000000027, 0.0000000000000000000 ) ) ;
#338 = CARTESIAN_POINT ( 'NONE',  ( 0.1499999999999999944, -0.2999999999999999334, 0.5999999999999998668 ) ) ;
#339 = ORIENTED_EDGE ( 'NONE', *, *, #445, .T. ) ;
#340 = DIRECTION ( 'NONE',  ( 0.0000000000000000000, 0.0000000000000000000, 1.000000000000000000 ) ) ;
#341 = PRODUCT_DEFINITION_SHAPE ( 'NONE', 'NONE',  #209 ) ;
#342 = ADVANCED_FACE ( 'NONE', ( #319 ), #719, .F. ) ;
#343 = CONTEXT_DEPENDENT_SHAPE_REPRESENTATION ( #452, #796 ) ;
#344 = DIRECTION ( 'NONE',  ( -0.0000000000000000000, -0.0000000000000000000, -1.000000000000000000 ) ) ;
#345 = DIRECTION ( 'NONE',  ( 1.000000000000000000, 0.0000000000000000000, 0.0000000000000000000 ) ) ;
#346 = FILL_AREA_STYLE ('',( #21 ) ) ;
#347 = STYLED_ITEM ( 'NONE', ( #700 ), #198 ) ;
#348 = PRODUCT ( 'Body', 'Body', '', ( #710 ) ) ;
#349 = PRESENTATION_LAYER_ASSIGNMENT (  '', '', ( #677 ) ) ;
#350 = CARTESIAN_POINT ( 'NONE',  ( 1.560000000000000275, 2.060000000000000053, 0.1499999999999999944 ) ) ;
#351 = MECHANICAL_DESIGN_GEOMETRIC_PRESENTATION_REPRESENTATION (  '', ( #40 ), #532 ) ;
#352 = CARTESIAN_POINT ( 'NONE',  ( -0.7800000000000001377, -1.030000000000000027, 0.0000000000000000000 ) ) ;
#353 = LINE ( 'NONE', #718, #484 ) ;
#354 = CARTESIAN_POINT ( 'NONE',  ( 0.3575000000000000400, 1.800000000000000266, 0.5260000000000000231 ) ) ;
#355 = PLANE ( 'NONE',  #165 ) ;
#356 = DIRECTION ( 'NONE',  ( 1.000000000000000000, 0.0000000000000000000, 0.0000000000000000000 ) ) ;
#357 = CARTESIAN_POINT ( 'NONE',  ( -0.1499999999999999944, 1.836970198721029441E-17, -4.499279347985572139E-33 ) ) ;
#358 = PRODUCT_DEFINITION_SHAPE ( 'NONE', 'NONE',  #837 ) ;
#359 = CARTESIAN_POINT ( 'NONE',  ( 0.0000000000000000000, 0.0000000000000000000, 0.0000000000000000000 ) ) ;
#360 = FILL_AREA_STYLE_COLOUR ( '', #57 ) ;
#361 =( LENGTH_UNIT ( ) NAMED_UNIT ( * ) SI_UNIT ( .MILLI., .METRE. ) );
#362 = STYLED_ITEM ( 'NONE', ( #285 ), #143 ) ;
#363 = DIRECTION ( 'NONE',  ( -0.0000000000000000000, 0.0000000000000000000, -1.000000000000000000 ) ) ;
#364 = DIRECTION ( 'NONE',  ( 0.0000000000000000000, 0.0000000000000000000, 1.000000000000000000 ) ) ;
#365 = PRODUCT_DEFINITION_SHAPE ( 'NONE', 'NONE',  #840 ) ;
#366 = ORIENTED_EDGE ( 'NONE', *, *, #416, .T. ) ;
#367 = AXIS2_PLACEMENT_3D ( 'NONE', #135, #478, #468 ) ;
#368 = CARTESIAN_POINT ( 'NONE',  ( 0.1499999999999999944, 0.0000000000000000000, 0.0000000000000000000 ) ) ;
#369 = PRODUCT_DEFINITION_CONTEXT ( 'detailed design', #826, 'design' ) ;
#370 = STYLED_ITEM ( 'NONE', ( #419 ), #322 ) ;
#371 = CARTESIAN_POINT ( 'NONE',  ( 0.3575000000000000400, 1.800000000000000266, 0.5260000000000000231 ) ) ;
#372 = EDGE_CURVE ( 'NONE', #66, #155, #245, .T. ) ;
#373 = DIRECTION ( 'NONE',  ( 0.0000000000000000000, -0.0000000000000000000, 1.000000000000000000 ) ) ;
#374 =( NAMED_UNIT ( * ) PLANE_ANGLE_UNIT ( ) SI_UNIT ( $, .RADIAN. ) );
#375 = DIRECTION ( 'NONE',  ( -0.0000000000000000000, 1.000000000000000000, 0.0000000000000000000 ) ) ;
#376 = FILL_AREA_STYLE_COLOUR ( '', #800 ) ;
#377 = LINE ( 'NONE', #101, #279 ) ;
#378 = DIRECTION ( 'NONE',  ( 0.0000000000000000000, 0.0000000000000000000, 1.000000000000000000 ) ) ;
#379 = CARTESIAN_POINT ( 'NONE',  ( 0.2600000000000000089, 1.800000000000000266, 0.5250000000000000222 ) ) ;
#380 =( NAMED_UNIT ( * ) SI_UNIT ( $, .STERADIAN. ) SOLID_ANGLE_UNIT ( ) );
#381 = DIRECTION ( 'NONE',  ( 1.000000000000000000, 0.0000000000000000000, -0.0000000000000000000 ) ) ;
#382 = CONTEXT_DEPENDENT_SHAPE_REPRESENTATION ( #252, #640 ) ;
#383 = SURFACE_SIDE_STYLE ('',( #649 ) ) ;
#384 = VECTOR ( 'NONE', #684, 1000.000000000000000 ) ;
#385 = ADVANCED_FACE ( 'NONE', ( #113 ), #389, .T. ) ;
#386 = AXIS2_PLACEMENT_3D ( 'NONE', #48, #467, #522 ) ;
#387 = CARTESIAN_POINT ( 'NONE',  ( 0.1625000000000000056, 1.800000000000000266, 0.5260000000000000231 ) ) ;
#388 = MECHANICAL_DESIGN_GEOMETRIC_PRESENTATION_REPRESENTATION (  '', ( #370 ), #642 ) ;
#389 = PLANE ( 'NONE',  #239 ) ;
#390 = ITEM_DEFINED_TRANSFORMATION ( 'NONE', 'NONE', #100,  #386 ) ;
#391 = EDGE_LOOP ( 'NONE', ( #646, #51, #396, #586 ) ) ;
#392 = SURFACE_STYLE_USAGE ( .BOTH. , #89 ) ;
#393 = PLANE ( 'NONE',  #96 ) ;
#394 = PRODUCT_DEFINITION_SHAPE ( 'NONE', 'NONE',  #300 ) ;
#395 = PRODUCT_DEFINITION_SHAPE ( 'NONE', 'NONE',  #290 ) ;
#396 = ORIENTED_EDGE ( 'NONE', *, *, #505, .T. ) ;
#397 = SHAPE_REPRESENTATION_RELATIONSHIP ( 'NONE' , 'NONE' ,  #655, #597 ) ;
#398 = FACE_OUTER_BOUND ( 'NONE', #497, .T. ) ;
#399 = SURFACE_STYLE_FILL_AREA ( #251 ) ;
#400 = PRODUCT_CONTEXT ( 'NONE', #23, 'mechanical' ) ;
#401 = VERTEX_POINT ( 'NONE', #387 ) ;
#402 = AXIS2_PLACEMENT_3D ( 'NONE', #808, #558, #303 ) ;
#403 = AXIS2_PLACEMENT_3D ( 'NONE', #615, #144, #345 ) ;
#404 = PRODUCT_DEFINITION ( 'UNKNOWN', '', #693, #154 ) ;
#405 = APPLICATION_PROTOCOL_DEFINITION ( 'draft international standard', 'automotive_design', 1998, #52 ) ;
#406 = EDGE_LOOP ( 'NONE', ( #776, #197, #261, #513 ) ) ;
#407 = FILL_AREA_STYLE ('',( #316 ) ) ;
#408 =( NAMED_UNIT ( * ) PLANE_ANGLE_UNIT ( ) SI_UNIT ( $, .RADIAN. ) );
#409 = ORIENTED_EDGE ( 'NONE', *, *, #7, .T. ) ;
#410 =( LENGTH_UNIT ( ) NAMED_UNIT ( * ) SI_UNIT ( .MILLI., .METRE. ) );
#411 = CARTESIAN_POINT ( 'NONE',  ( 0.2600000000000000089, 1.800000000000000266, 0.5250000000000000222 ) ) ;
#412 = CARTESIAN_POINT ( 'NONE',  ( 1.560000000000000275, 0.0000000000000000000, 0.1499999999999999944 ) ) ;
#413 = AXIS2_PLACEMENT_3D ( 'NONE', #234, #501, #118 ) ;
#414 = VECTOR ( 'NONE', #590, 1000.000000000000000 ) ;
#415 = LINE ( 'NONE', #412, #333 ) ;
#416 = EDGE_CURVE ( 'NONE', #254, #59, #102, .T. ) ;
#417 = PRESENTATION_STYLE_ASSIGNMENT (( #741 ) ) ;
#418 = EDGE_CURVE ( 'NONE', #59, #717, #509, .T. ) ;
#419 = PRESENTATION_STYLE_ASSIGNMENT (( #671 ) ) ;
#420 = CARTESIAN_POINT ( 'NONE',  ( 0.1499999999999999944, 0.2999999999999999889, 0.5999999999999998668 ) ) ;
#421 = FILL_AREA_STYLE_COLOUR ( '', #560 ) ;
#422 =( LENGTH_UNIT ( ) NAMED_UNIT ( * ) SI_UNIT ( .MILLI., .METRE. ) );
#423 = STYLED_ITEM ( 'NONE', ( #222 ), #342 ) ;
#424 = SURFACE_STYLE_USAGE ( .BOTH. , #481 ) ;
#425 = DIRECTION ( 'NONE',  ( 1.000000000000000000, 0.0000000000000000000, 0.0000000000000000000 ) ) ;
#426 = PRODUCT_DEFINITION_FORMATION_WITH_SPECIFIED_SOURCE ( 'ANY', '', #146, .NOT_KNOWN. ) ;
#427 = SHAPE_REPRESENTATION ( 'ball', ( #386 ), #172 ) ;
#428 = PRESENTATION_STYLE_ASSIGNMENT (( #226 ) ) ;
#429 = LINE ( 'NONE', #174, #127 ) ;
#430 = DIRECTION ( 'NONE',  ( 1.000000000000000000, 0.0000000000000000000, 0.0000000000000000000 ) ) ;
#431 = CARTESIAN_POINT ( 'NONE',  ( 0.1499999999999999944, -0.2999999999999999889, -0.5999999999999998668 ) ) ;
#432 = UNCERTAINTY_MEASURE_WITH_UNIT (LENGTH_MEASURE( 1.000000000000000082E-05 ), #35, 'distance_accuracy_value', 'NONE');
#433 = CARTESIAN_POINT ( 'NONE',  ( 0.3575000000000000400, 1.800000000000000266, 0.5260000000000000231 ) ) ;
#434 =( REPRESENTATION_RELATIONSHIP ('NONE','NONE', #595, #427 ) REPRESENTATION_RELATIONSHIP_WITH_TRANSFORMATION ( #551 )SHAPE_REPRESENTATION_RELATIONSHIP( ) );
#435 = DIRECTION ( 'NONE',  ( 0.0000000000000000000, 0.0000000000000000000, 1.000000000000000000 ) ) ;
#436 = FILL_AREA_STYLE ('',( #360 ) ) ;
#437 = DIRECTION ( 'NONE',  ( -1.000000000000000000, -0.0000000000000000000, 0.0000000000000000000 ) ) ;
#438 = DIRECTION ( 'NONE',  ( 0.0000000000000000000, 0.0000000000000000000, 1.000000000000000000 ) ) ;
#439 = AXIS2_PLACEMENT_3D ( 'NONE', #354, #536, #737 ) ;
#440 = DIRECTION ( 'NONE',  ( 0.0000000000000000000, 0.0000000000000000000, 1.000000000000000000 ) ) ;
#441 =( GEOMETRIC_REPRESENTATION_CONTEXT ( 3 ) GLOBAL_UNCERTAINTY_ASSIGNED_CONTEXT ( ( #764 ) ) GLOBAL_UNIT_ASSIGNED_CONTEXT ( ( #659, #111, #712 ) ) REPRESENTATION_CONTEXT ( 'NONE', 'WORKASPACE' ) );
#442 = AXIS2_PLACEMENT_3D ( 'NONE', #763, #85, #617 ) ;
#443 = CARTESIAN_POINT ( 'NONE',  ( -0.1499999999999999944, 1.836970198721028825E-17, -3.673940397442059498E-17 ) ) ;
#444 = AXIS2_PLACEMENT_3D ( 'NONE', #798, #364, #446 ) ;
#445 = EDGE_CURVE ( 'NONE', #237, #722, #723, .T. ) ;
#446 = DIRECTION ( 'NONE',  ( 1.000000000000000000, 0.0000000000000000000, 0.0000000000000000000 ) ) ;
#447 =( LENGTH_UNIT ( ) NAMED_UNIT ( * ) SI_UNIT ( .MILLI., .METRE. ) );
#448 = SURFACE_STYLE_USAGE ( .BOTH. , #27 ) ;
#449 = SURFACE_STYLE_FILL_AREA ( #627 ) ;
#450 = ITEM_DEFINED_TRANSFORMATION ( 'NONE', 'NONE', #5,  #624 ) ;
#451 =( LENGTH_UNIT ( ) NAMED_UNIT ( * ) SI_UNIT ( .MILLI., .METRE. ) );
#452 =( REPRESENTATION_RELATIONSHIP ('NONE','NONE', #595, #427 ) REPRESENTATION_RELATIONSHIP_WITH_TRANSFORMATION ( #785 )SHAPE_REPRESENTATION_RELATIONSHIP( ) );
#453 = APPLICATION_PROTOCOL_DEFINITION ( 'draft international standard', 'automotive_design', 1998, #23 ) ;
#454 = ORIENTED_EDGE ( 'NONE', *, *, #296, .T. ) ;
#455 = PRESENTATION_LAYER_ASSIGNMENT (  '', '', ( #307 ) ) ;
#456 = PRODUCT_DEFINITION_SHAPE ( 'NONE', 'NONE',  #843 ) ;
#457 = AXIS2_PLACEMENT_3D ( 'NONE', #175, #755, #225 ) ;
#458 = SURFACE_SIDE_STYLE ('',( #653 ) ) ;
#459 = APPLICATION_PROTOCOL_DEFINITION ( 'draft international standard', 'automotive_design', 1998, #202 ) ;
#460 = EDGE_LOOP ( 'NONE', ( #711, #116, #508, #821 ) ) ;
#461 = CARTESIAN_POINT ( 'NONE',  ( 1.560000000000000275, 2.060000000000000053, 0.6250000000000000000 ) ) ;
#462 = UNCERTAINTY_MEASURE_WITH_UNIT (LENGTH_MEASURE( 1.000000000000000082E-05 ), #87, 'distance_accuracy_value', 'NONE');
#463 = FACE_BOUND ( 'NONE', #193, .T. ) ;
#464 = ITEM_DEFINED_TRANSFORMATION ( 'NONE', 'NONE', #241,  #641 ) ;
#465 = VERTEX_POINT ( 'NONE', #371 ) ;
#466 = APPLICATION_CONTEXT ( 'automotive_design' ) ;
#467 = DIRECTION ( 'NONE',  ( 0.0000000000000000000, 0.0000000000000000000, 1.000000000000000000 ) ) ;
#468 = DIRECTION ( 'NONE',  ( 0.0000000000000000000, -0.0000000000000000000, 1.000000000000000000 ) ) ;
#469 = FILL_AREA_STYLE_COLOUR ( '', #94 ) ;
#470 = CONTEXT_DEPENDENT_SHAPE_REPRESENTATION ( #555, #228 ) ;
#471 = ORIENTED_EDGE ( 'NONE', *, *, #713, .T. ) ;
#472 = COLOUR_RGB ( '',0.2000000000000000111, 0.2000000000000000111, 0.2000000000000000111 ) ;
#473 = AXIS2_PLACEMENT_3D ( 'NONE', #41, #310, #580 ) ;
#474 = STYLED_ITEM ( 'NONE', ( #334 ), #823 ) ;
#475 = CARTESIAN_POINT ( 'NONE',  ( -0.1499999999999999944, 1.836970198721029441E-17, 0.0000000000000000000 ) ) ;
#476 =( GEOMETRIC_REPRESENTATION_CONTEXT ( 3 ) GLOBAL_UNCERTAINTY_ASSIGNED_CONTEXT ( ( #569 ) ) GLOBAL_UNIT_ASSIGNED_CONTEXT ( ( #787, #212, #733 ) ) REPRESENTATION_CONTEXT ( 'NONE', 'WORKASPACE' ) );
#477 = DIRECTION ( 'NONE',  ( 0.0000000000000000000, 0.0000000000000000000, 1.000000000000000000 ) ) ;
#478 = DIRECTION ( 'NONE',  ( -0.0000000000000000000, 1.000000000000000000, 0.0000000000000000000 ) ) ;
#479 = SURFACE_SIDE_STYLE ('',( #669 ) ) ;
#480 =( NAMED_UNIT ( * ) SI_UNIT ( $, .STERADIAN. ) SOLID_ANGLE_UNIT ( ) );
#481 = SURFACE_SIDE_STYLE ('',( #136 ) ) ;
#482 =( REPRESENTATION_RELATIONSHIP ('NONE','NONE', #595, #427 ) REPRESENTATION_RELATIONSHIP_WITH_TRANSFORMATION ( #187 )SHAPE_REPRESENTATION_RELATIONSHIP( ) );
#483 = CARTESIAN_POINT ( 'NONE',  ( -0.1499999999999999944, -1.836970198721029441E-17, 3.673940397442058882E-17 ) ) ;
#484 = VECTOR ( 'NONE', #262, 1000.000000000000000 ) ;
#485 = FILL_AREA_STYLE ('',( #20 ) ) ;
#486 = AXIS2_PLACEMENT_3D ( 'NONE', #4, #553, #535 ) ;
#487 =( NAMED_UNIT ( * ) SI_UNIT ( $, .STERADIAN. ) SOLID_ANGLE_UNIT ( ) );
#488 =( NAMED_UNIT ( * ) PLANE_ANGLE_UNIT ( ) SI_UNIT ( $, .RADIAN. ) );
#489 = UNCERTAINTY_MEASURE_WITH_UNIT (LENGTH_MEASURE( 1.000000000000000082E-05 ), #361, 'distance_accuracy_value', 'NONE');
#490 = PRODUCT_DEFINITION_SHAPE ( 'NONE', 'NONE',  #99 ) ;
#491 = MANIFOLD_SOLID_BREP ( 'Imported1', #674 ) ;
#492 =( LENGTH_UNIT ( ) NAMED_UNIT ( * ) SI_UNIT ( .MILLI., .METRE. ) );
#493 = PRESENTATION_LAYER_ASSIGNMENT (  '', '', ( #423 ) ) ;
#494 = PRODUCT_DEFINITION_SHAPE ( 'NONE', 'NONE',  #836 ) ;
#495 = FILL_AREA_STYLE_COLOUR ( '', #831 ) ;
#496 = PRODUCT_CONTEXT ( 'NONE', #10, 'mechanical' ) ;
#497 = EDGE_LOOP ( 'NONE', ( #572, #660 ) ) ;
#498 = SURFACE_SIDE_STYLE ('',( #449 ) ) ;
#499 = CARTESIAN_POINT ( 'NONE',  ( -0.1499999999999999944, -1.836970198721029441E-17, 2.249639673992786070E-33 ) ) ;
#500 = APPLICATION_CONTEXT ( 'automotive_design' ) ;
#501 = DIRECTION ( 'NONE',  ( 0.0000000000000000000, 0.0000000000000000000, 1.000000000000000000 ) ) ;
#502 = DIRECTION ( 'NONE',  ( 1.000000000000000000, 0.0000000000000000000, 0.0000000000000000000 ) ) ;
#503 = UNCERTAINTY_MEASURE_WITH_UNIT (LENGTH_MEASURE( 1.000000000000000082E-05 ), #447, 'distance_accuracy_value', 'NONE');
#504 = SURFACE_STYLE_USAGE ( .BOTH. , #574 ) ;
#505 = EDGE_CURVE ( 'NONE', #779, #120, #801, .T. ) ;
#506 = SURFACE_SIDE_STYLE ('',( #685 ) ) ;
#507 = CONTEXT_DEPENDENT_SHAPE_REPRESENTATION ( #311, #562 ) ;
#508 = ORIENTED_EDGE ( 'NONE', *, *, #418, .T. ) ;
#509 = LINE ( 'NONE', #108, #151 ) ;
#510 = EDGE_CURVE ( 'NONE', #401, #465, #235, .T. ) ;
#511 = FILL_AREA_STYLE ('',( #469 ) ) ;
#512 = SHAPE_DEFINITION_REPRESENTATION ( #490, #427 ) ;
#513 = ORIENTED_EDGE ( 'NONE', *, *, #505, .F. ) ;
#514 = CARTESIAN_POINT ( 'NONE',  ( 0.1625000000000000056, 1.800000000000000266, 0.5260000000000000231 ) ) ;
#515 = CONTEXT_DEPENDENT_SHAPE_REPRESENTATION ( #231, #456 ) ;
#516 = ORIENTED_EDGE ( 'NONE', *, *, #418, .F. ) ;
#517 = MECHANICAL_DESIGN_GEOMETRIC_PRESENTATION_REPRESENTATION (  '', ( #423 ), #183 ) ;
#518 =( REPRESENTATION_RELATIONSHIP ('NONE','NONE', #595, #427 ) REPRESENTATION_RELATIONSHIP_WITH_TRANSFORMATION ( #63 )SHAPE_REPRESENTATION_RELATIONSHIP( ) );
#519 = MECHANICAL_DESIGN_GEOMETRIC_PRESENTATION_REPRESENTATION (  '', ( #270 ), #790 ) ;
#520 = DIRECTION ( 'NONE',  ( 0.0000000000000000000, -0.0000000000000000000, 1.000000000000000000 ) ) ;
#521 = CONTEXT_DEPENDENT_SHAPE_REPRESENTATION ( #178, #177 ) ;
#522 = DIRECTION ( 'NONE',  ( 1.000000000000000000, 0.0000000000000000000, 0.0000000000000000000 ) ) ;
#523 = ADVANCED_FACE ( 'NONE', ( #227 ), #104, .T. ) ;
#524 = SURFACE_SIDE_STYLE ('',( #65 ) ) ;
#525 = UNCERTAINTY_MEASURE_WITH_UNIT (LENGTH_MEASURE( 1.000000000000000082E-05 ), #422, 'distance_accuracy_value', 'NONE');
#526 = ORIENTED_EDGE ( 'NONE', *, *, #147, .T. ) ;
#527 = CARTESIAN_POINT ( 'NONE',  ( 0.0000000000000000000, 0.0000000000000000000, 0.0000000000000000000 ) ) ;
#528 =( NAMED_UNIT ( * ) SI_UNIT ( $, .STERADIAN. ) SOLID_ANGLE_UNIT ( ) );
#529 = ORIENTED_EDGE ( 'NONE', *, *, #267, .F. ) ;
#530 = PRESENTATION_LAYER_ASSIGNMENT (  '', '', ( #362 ) ) ;
#531 = DIRECTION ( 'NONE',  ( -1.000000000000000000, -0.0000000000000000000, 0.0000000000000000000 ) ) ;
#532 =( GEOMETRIC_REPRESENTATION_CONTEXT ( 3 ) GLOBAL_UNCERTAINTY_ASSIGNED_CONTEXT ( ( #699 ) ) GLOBAL_UNIT_ASSIGNED_CONTEXT ( ( #451, #592, #708 ) ) REPRESENTATION_CONTEXT ( 'NONE', 'WORKASPACE' ) );
#533 = PRODUCT_DEFINITION_FORMATION_WITH_SPECIFIED_SOURCE ( 'ANY', '', #106, .NOT_KNOWN. ) ;
#534 =( REPRESENTATION_RELATIONSHIP ('NONE','NONE', #309, #655 ) REPRESENTATION_RELATIONSHIP_WITH_TRANSFORMATION ( #598 )SHAPE_REPRESENTATION_RELATIONSHIP( ) );
#535 = DIRECTION ( 'NONE',  ( 1.000000000000000000, 0.0000000000000000000, 0.0000000000000000000 ) ) ;
#536 = DIRECTION ( 'NONE',  ( 0.0000000000000000000, 0.0000000000000000000, -1.000000000000000000 ) ) ;
#537 = CONTEXT_DEPENDENT_SHAPE_REPRESENTATION ( #534, #314 ) ;
#538 =( NAMED_UNIT ( * ) PLANE_ANGLE_UNIT ( ) SI_UNIT ( $, .RADIAN. ) );
#539 =( NAMED_UNIT ( * ) SI_UNIT ( $, .STERADIAN. ) SOLID_ANGLE_UNIT ( ) );
#540 = UNCERTAINTY_MEASURE_WITH_UNIT (LENGTH_MEASURE( 1.000000000000000082E-05 ), #797, 'distance_accuracy_value', 'NONE');
#541 = SHELL_BASED_SURFACE_MODEL ( 'NONE', ( #543 ) );
#542 = CARTESIAN_POINT ( 'NONE',  ( 0.2600000000000000089, 1.800000000000000266, 0.6250000000000000000 ) ) ;
#543 = OPEN_SHELL ( 'NONE', ( #757 ) ) ;
#544 = CARTESIAN_POINT ( 'NONE',  ( -0.5000000000000000000, 0.7500000000000000000, 0.1499999999999999944 ) ) ;
#545 = CARTESIAN_POINT ( 'NONE',  ( 0.0000000000000000000, 0.0000000000000000000, 0.1499999999999999944 ) ) ;
#546 = MECHANICAL_DESIGN_GEOMETRIC_PRESENTATION_REPRESENTATION (  '', ( #93 ), #721 ) ;
#547 = PRODUCT ( 'User Library-BGA12C50P3X4_156X206X62', 'User Library-BGA12C50P3X4_156X206X62', '', ( #496 ) ) ;
#548 = CIRCLE ( 'NONE', #292, 0.09750000000000004496 ) ;
#549 =( REPRESENTATION_RELATIONSHIP ('NONE','NONE', #595, #427 ) REPRESENTATION_RELATIONSHIP_WITH_TRANSFORMATION ( #73 )SHAPE_REPRESENTATION_RELATIONSHIP( ) );
#550 = STYLED_ITEM ( 'NONE', ( #321 ), #597 ) ;
#551 = ITEM_DEFINED_TRANSFORMATION ( 'NONE', 'NONE', #588,  #386 ) ;
#552 =( NAMED_UNIT ( * ) SI_UNIT ( $, .STERADIAN. ) SOLID_ANGLE_UNIT ( ) );
#553 = DIRECTION ( 'NONE',  ( 0.0000000000000000000, 0.0000000000000000000, 1.000000000000000000 ) ) ;
#554 = SURFACE_STYLE_USAGE ( .BOTH. , #284 ) ;
#555 =( REPRESENTATION_RELATIONSHIP ('NONE','NONE', #595, #427 ) REPRESENTATION_RELATIONSHIP_WITH_TRANSFORMATION ( #46 )SHAPE_REPRESENTATION_RELATIONSHIP( ) );
#556 = PRESENTATION_STYLE_ASSIGNMENT (( #424 ) ) ;
#557 = SURFACE_STYLE_FILL_AREA ( #201 ) ;
#558 = DIRECTION ( 'NONE',  ( 0.0000000000000000000, 0.0000000000000000000, 1.000000000000000000 ) ) ;
#559 = CARTESIAN_POINT ( 'NONE',  ( -0.1499999999999999944, -1.836970198721029749E-17, -3.673940397442058882E-17 ) ) ;
#560 = COLOUR_RGB ( '',0.2000000000000000111, 0.2000000000000000111, 0.2000000000000000111 ) ;
#561 =( GEOMETRIC_REPRESENTATION_CONTEXT ( 3 ) GLOBAL_UNCERTAINTY_ASSIGNED_CONTEXT ( ( #607 ) ) GLOBAL_UNIT_ASSIGNED_CONTEXT ( ( #31, #295, #216 ) ) REPRESENTATION_CONTEXT ( 'NONE', 'WORKASPACE' ) );
#562 = PRODUCT_DEFINITION_SHAPE ( 'NONE', 'NONE',  #839 ) ;
#563 = COLOUR_RGB ( '',0.8000000000000000444, 0.8000000000000000444, 0.8000000000000000444 ) ;
#564 =( NAMED_UNIT ( * ) SI_UNIT ( $, .STERADIAN. ) SOLID_ANGLE_UNIT ( ) );
#565 = AXIS2_PLACEMENT_3D ( 'NONE', #337, #340, #661 ) ;
#566 = CARTESIAN_POINT ( 'NONE',  ( 0.1499999999999999944, 0.0000000000000000000, 0.0000000000000000000 ) ) ;
#567 = APPLICATION_CONTEXT ( 'automotive_design' ) ;
#568 = CARTESIAN_POINT ( 'NONE',  ( 0.3575000000000000955, 1.800000000000000266, 0.5250000000000000222 ) ) ;
#569 = UNCERTAINTY_MEASURE_WITH_UNIT (LENGTH_MEASURE( 1.000000000000000082E-05 ), #787, 'distance_accuracy_value', 'NONE');
#570 = PRODUCT_DEFINITION_SHAPE ( 'NONE', 'NONE',  #833 ) ;
#571 = FILL_AREA_STYLE ('',( #495 ) ) ;
#572 = ORIENTED_EDGE ( 'NONE', *, *, #728, .T. ) ;
#573 = SURFACE_SIDE_STYLE ('',( #811 ) ) ;
#574 = SURFACE_SIDE_STYLE ('',( #176 ) ) ;
#575 = CIRCLE ( 'NONE', #819, 0.1499999999999999944 ) ;
#576 = CARTESIAN_POINT ( 'NONE',  ( 1.560000000000000275, 0.0000000000000000000, 0.6250000000000000000 ) ) ;
#577 = PRODUCT_CONTEXT ( 'NONE', #71, 'mechanical' ) ;
#578 = MECHANICAL_DESIGN_GEOMETRIC_PRESENTATION_REPRESENTATION (  '', ( #38 ), #3 ) ;
#579 =( NAMED_UNIT ( * ) SI_UNIT ( $, .STERADIAN. ) SOLID_ANGLE_UNIT ( ) );
#580 = DIRECTION ( 'NONE',  ( 1.000000000000000000, 0.0000000000000000000, 0.0000000000000000000 ) ) ;
#581 =( REPRESENTATION_RELATIONSHIP ('NONE','NONE', #595, #427 ) REPRESENTATION_RELATIONSHIP_WITH_TRANSFORMATION ( #824 )SHAPE_REPRESENTATION_RELATIONSHIP( ) );
#582 = SHAPE_REPRESENTATION_RELATIONSHIP ( 'NONE' , 'NONE' ,  #264, #86 ) ;
#583 =( NAMED_UNIT ( * ) PLANE_ANGLE_UNIT ( ) SI_UNIT ( $, .RADIAN. ) );
#584 = VERTEX_POINT ( 'NONE', #461 ) ;
#585 = EDGE_CURVE ( 'NONE', #779, #268, #548, .T. ) ;
#586 = ORIENTED_EDGE ( 'NONE', *, *, #134, .F. ) ;
#587 = PRESENTATION_LAYER_ASSIGNMENT (  '', '', ( #219 ) ) ;
#588 = AXIS2_PLACEMENT_3D ( 'NONE', #299, #160, #692 ) ;
#589 = ORIENTED_EDGE ( 'NONE', *, *, #585, .T. ) ;
#590 = DIRECTION ( 'NONE',  ( 0.0000000000000000000, -1.000000000000000000, -0.0000000000000000000 ) ) ;
#591 = ORIENTED_EDGE ( 'NONE', *, *, #224, .F. ) ;
#592 =( NAMED_UNIT ( * ) PLANE_ANGLE_UNIT ( ) SI_UNIT ( $, .RADIAN. ) );
#593 = CARTESIAN_POINT ( 'NONE',  ( 0.0000000000000000000, 2.060000000000000053, 0.1499999999999999944 ) ) ;
#594 = ORIENTED_EDGE ( 'NONE', *, *, #7, .F. ) ;
#595 = SHAPE_REPRESENTATION ( '6032940992', ( #624, #565, #241, #100, #760, #403, #486, #326, #81, #588, #444, #272, #457, #114, #793 ), #19 ) ;
#596 = EDGE_CURVE ( 'NONE', #707, #66, #353, .T. ) ;
#597 = ADVANCED_BREP_SHAPE_REPRESENTATION ( '', ( #491, #386 ), #441 ) ;
#598 = ITEM_DEFINED_TRANSFORMATION ( 'NONE', 'NONE', #98,  #386 ) ;
#599 =( LENGTH_UNIT ( ) NAMED_UNIT ( * ) SI_UNIT ( .MILLI., .METRE. ) );
#600 = FILL_AREA_STYLE ('',( #77 ) ) ;
#601 = CARTESIAN_POINT ( 'NONE',  ( 0.3575000000000000955, 1.800000000000000266, 0.5250000000000000222 ) ) ;
#602 = APPLICATION_CONTEXT ( 'automotive_design' ) ;
#603 = CONTEXT_DEPENDENT_SHAPE_REPRESENTATION ( #482, #39 ) ;
#604 = CARTESIAN_POINT ( 'NONE',  ( 0.2600000000000000089, 1.800000000000000266, 0.6250000000000000000 ) ) ;
#605 = DIRECTION ( 'NONE',  ( 0.0000000000000000000, 0.0000000000000000000, 1.000000000000000000 ) ) ;
#606 = CARTESIAN_POINT ( 'NONE',  ( 0.1499999999999999944, 0.0000000000000000000, 0.0000000000000000000 ) ) ;
#607 = UNCERTAINTY_MEASURE_WITH_UNIT (LENGTH_MEASURE( 1.000000000000000082E-05 ), #31, 'distance_accuracy_value', 'NONE');
#608 = DIRECTION ( 'NONE',  ( 1.000000000000000000, 0.0000000000000000000, 0.0000000000000000000 ) ) ;
#609 = PRODUCT_RELATED_PRODUCT_CATEGORY ( 'part', '', ( #106 ) ) ;
#610 = B_SPLINE_CURVE_WITH_KNOTS ( 'NONE', 3,
 ( #250, #709, #257, #53, #194, #514 ),
 .UNSPECIFIED., .F., .F.,
 ( 4, 2, 4 ),
 ( 0.0000000000000000000, 0.2500000000000000000, 0.5000000000000000000 ),
 .UNSPECIFIED. ) ;
#611 = COLOUR_RGB ( '',0.8000000000000000444, 0.8000000000000000444, 0.8000000000000000444 ) ;
#612 = COLOUR_RGB ( '',0.2000000000000000111, 0.2000000000000000111, 0.2000000000000000111 ) ;
#613 = STYLED_ITEM ( 'NONE', ( #428 ), #827 ) ;
#614 = DIRECTION ( 'NONE',  ( -0.0000000000000000000, -0.0000000000000000000, -1.000000000000000000 ) ) ;
#615 = CARTESIAN_POINT ( 'NONE',  ( 0.5000000000000000000, 0.7500000000000000000, 0.1499999999999999944 ) ) ;
#616 = PRODUCT_DEFINITION_CONTEXT ( 'detailed design', #202, 'design' ) ;
#617 = DIRECTION ( 'NONE',  ( 1.000000000000000000, 0.0000000000000000000, 0.0000000000000000000 ) ) ;
#618 = CARTESIAN_POINT ( 'NONE',  ( 0.1499999999999999944, 0.0000000000000000000, 0.0000000000000000000 ) ) ;
#619 = SHAPE_DEFINITION_REPRESENTATION ( #341, #169 ) ;
#620 =( GEOMETRIC_REPRESENTATION_CONTEXT ( 3 ) GLOBAL_UNCERTAINTY_ASSIGNED_CONTEXT ( ( #540 ) ) GLOBAL_UNIT_ASSIGNED_CONTEXT ( ( #797, #271, #663 ) ) REPRESENTATION_CONTEXT ( 'NONE', 'WORKASPACE' ) );
#621 = DIRECTION ( 'NONE',  ( 1.000000000000000000, 0.0000000000000000000, 0.0000000000000000000 ) ) ;
#622 = DIRECTION ( 'NONE',  ( 1.000000000000000000, 0.0000000000000000000, 0.0000000000000000000 ) ) ;
#623 = PRESENTATION_LAYER_ASSIGNMENT (  '', '', ( #613 ) ) ;
#624 = AXIS2_PLACEMENT_3D ( 'NONE', #72, #477, #148 ) ;
#625 = CARTESIAN_POINT ( 'NONE',  ( -0.1499999999999999944, -0.2999999999999999889, -0.5999999999999998668 ) ) ;
#626 = FILL_AREA_STYLE_COLOUR ( '', #129 ) ;
#627 = FILL_AREA_STYLE ('',( #242 ) ) ;
#628 = CARTESIAN_POINT ( 'NONE',  ( 0.5000000000000000000, 0.2500000000000000000, 0.1499999999999999944 ) ) ;
#629 = FILL_AREA_STYLE ('',( #748 ) ) ;
#630 = UNCERTAINTY_MEASURE_WITH_UNIT (LENGTH_MEASURE( 1.000000000000000082E-05 ), #410, 'distance_accuracy_value', 'NONE');
#631 = FILL_AREA_STYLE ('',( #376 ) ) ;
#632 = SURFACE_STYLE_USAGE ( .BOTH. , #498 ) ;
#633 =( NAMED_UNIT ( * ) SI_UNIT ( $, .STERADIAN. ) SOLID_ANGLE_UNIT ( ) );
#634 = PRODUCT_RELATED_PRODUCT_CATEGORY ( 'part', '', ( #146 ) ) ;
#635 = CARTESIAN_POINT ( 'NONE',  ( 0.1499999999999999944, 0.0000000000000000000, 0.0000000000000000000 ) ) ;
#636 = CARTESIAN_POINT ( 'NONE',  ( 1.560000000000000275, 0.0000000000000000000, 0.1499999999999999944 ) ) ;
#637 = VECTOR ( 'NONE', #438, 1000.000000000000000 ) ;
#638 = AXIS2_PLACEMENT_3D ( 'NONE', #695, #97, #621 ) ;
#639 = SHAPE_DEFINITION_REPRESENTATION ( #395, #655 ) ;
#640 = PRODUCT_DEFINITION_SHAPE ( 'NONE', 'NONE',  #841 ) ;
#641 = AXIS2_PLACEMENT_3D ( 'NONE', #777, #189, #62 ) ;
#642 =( GEOMETRIC_REPRESENTATION_CONTEXT ( 3 ) GLOBAL_UNCERTAINTY_ASSIGNED_CONTEXT ( ( #630 ) ) GLOBAL_UNIT_ASSIGNED_CONTEXT ( ( #410, #277, #487 ) ) REPRESENTATION_CONTEXT ( 'NONE', 'WORKASPACE' ) );
#643 = SURFACE_STYLE_FILL_AREA ( #179 ) ;
#644 = PLANE ( 'NONE',  #128 ) ;
#645 = ITEM_DEFINED_TRANSFORMATION ( 'NONE', 'NONE', #444,  #386 ) ;
#646 = ORIENTED_EDGE ( 'NONE', *, *, #283, .F. ) ;
#647 = CARTESIAN_POINT ( 'NONE',  ( 0.0000000000000000000, 0.0000000000000000000, 0.1499999999999999944 ) ) ;
#648 = VERTEX_POINT ( 'NONE', #121 ) ;
#649 = SURFACE_STYLE_FILL_AREA ( #407 ) ;
#650 =( NAMED_UNIT ( * ) SI_UNIT ( $, .STERADIAN. ) SOLID_ANGLE_UNIT ( ) );
#651 = UNCERTAINTY_MEASURE_WITH_UNIT (LENGTH_MEASURE( 1.000000000000000082E-05 ), #758, 'distance_accuracy_value', 'NONE');
#652 = PRODUCT_DEFINITION ( 'UNKNOWN', '', #533, #36 ) ;
#653 = SURFACE_STYLE_FILL_AREA ( #511 ) ;
#654 = PRESENTATION_LAYER_ASSIGNMENT (  '', '', ( #205 ) ) ;
#655 = SHAPE_REPRESENTATION ( 'Open_CASCADE_STEP_translator_6.8_1.2.1', ( #386 ), #441 ) ;
#656 = ORIENTED_EDGE ( 'NONE', *, *, #287, .F. ) ;
#657 = CARTESIAN_POINT ( 'NONE',  ( 0.0000000000000000000, 0.0000000000000000000, 0.1499999999999999944 ) ) ;
#658 = EDGE_LOOP ( 'NONE', ( #328, #64, #729, #140 ) ) ;
#659 =( LENGTH_UNIT ( ) NAMED_UNIT ( * ) SI_UNIT ( .MILLI., .METRE. ) );
#660 = ORIENTED_EDGE ( 'NONE', *, *, #510, .T. ) ;
#661 = DIRECTION ( 'NONE',  ( 1.000000000000000000, 0.0000000000000000000, 0.0000000000000000000 ) ) ;
#662 = PRODUCT_RELATED_PRODUCT_CATEGORY ( 'part', '', ( #95 ) ) ;
#663 =( NAMED_UNIT ( * ) SI_UNIT ( $, .STERADIAN. ) SOLID_ANGLE_UNIT ( ) );
#664 =( GEOMETRIC_REPRESENTATION_CONTEXT ( 3 ) GLOBAL_UNCERTAINTY_ASSIGNED_CONTEXT ( ( #204 ) ) GLOBAL_UNIT_ASSIGNED_CONTEXT ( ( #599, #538, #552 ) ) REPRESENTATION_CONTEXT ( 'NONE', 'WORKASPACE' ) );
#665 =( NAMED_UNIT ( * ) PLANE_ANGLE_UNIT ( ) SI_UNIT ( $, .RADIAN. ) );
#666 = MECHANICAL_DESIGN_GEOMETRIC_PRESENTATION_REPRESENTATION (  '', ( #219 ), #168 ) ;
#667 = PLANE ( 'NONE',  #439 ) ;
#668 = AXIS2_PLACEMENT_3D ( 'NONE', #131, #92, #814 ) ;
#669 = SURFACE_STYLE_FILL_AREA ( #485 ) ;
#670 = CARTESIAN_POINT ( 'NONE',  ( 0.2600000000000000089, 1.800000000000000266, 0.5250000000000000222 ) ) ;
#671 = SURFACE_STYLE_USAGE ( .BOTH. , #273 ) ;
#672 = CARTESIAN_POINT ( 'NONE',  ( -0.1499999999999999389, -0.2999999999999998779, 3.673940397442058266E-17 ) ) ;
#673 = SURFACE_STYLE_USAGE ( .BOTH. , #479 ) ;
#674 = CLOSED_SHELL ( 'NONE', ( #342, #173, #523, #385, #740, #17, #318, #823, #143 ) ) ;
#675 = CIRCLE ( 'NONE', #734, 0.09750000000000004496 ) ;
#676 = CYLINDRICAL_SURFACE ( 'NONE', #336, 0.09750000000000004496 ) ;
#677 = STYLED_ITEM ( 'NONE', ( #417 ), #810 ) ;
#678 = CARTESIAN_POINT ( 'NONE',  ( 0.0000000000000000000, 0.0000000000000000000, 0.6250000000000000000 ) ) ;
#679 =( NAMED_UNIT ( * ) PLANE_ANGLE_UNIT ( ) SI_UNIT ( $, .RADIAN. ) );
#680 = CARTESIAN_POINT ( 'NONE',  ( 0.0000000000000000000, 0.0000000000000000000, 0.0000000000000000000 ) ) ;
#681 = ORIENTED_EDGE ( 'NONE', *, *, #713, .F. ) ;
#682 = SURFACE_STYLE_FILL_AREA ( #629 ) ;
#683 = EDGE_CURVE ( 'NONE', #584, #707, #830, .T. ) ;
#684 = DIRECTION ( 'NONE',  ( 0.0000000000000000000, 0.0000000000000000000, 1.000000000000000000 ) ) ;
#685 = SURFACE_STYLE_FILL_AREA ( #571 ) ;
#686 = DIRECTION ( 'NONE',  ( 0.0000000000000000000, 0.0000000000000000000, 1.000000000000000000 ) ) ;
#687 = STYLED_ITEM ( 'NONE', ( #745 ), #173 ) ;
#688 = UNCERTAINTY_MEASURE_WITH_UNIT (LENGTH_MEASURE( 1.000000000000000082E-05 ), #804, 'distance_accuracy_value', 'NONE');
#689 = CARTESIAN_POINT ( 'NONE',  ( 0.2865659902920014712, 1.897644826234675008, 0.5259999999999998010 ) ) ;
#690 = MECHANICAL_DESIGN_GEOMETRIC_PRESENTATION_REPRESENTATION (  '', ( #307 ), #16 ) ;
#691 = PRESENTATION_LAYER_ASSIGNMENT (  '', '', ( #474 ) ) ;
#692 = DIRECTION ( 'NONE',  ( 1.000000000000000000, 0.0000000000000000000, 0.0000000000000000000 ) ) ;
#693 = PRODUCT_DEFINITION_FORMATION_WITH_SPECIFIED_SOURCE ( 'ANY', '', #69, .NOT_KNOWN. ) ;
#694 = CARTESIAN_POINT ( 'NONE',  ( 0.1499999999999999944, 0.2999999999999997113, -0.5999999999999999778 ) ) ;
#695 = CARTESIAN_POINT ( 'NONE',  ( 0.0000000000000000000, 0.0000000000000000000, 0.0000000000000000000 ) ) ;
#696 = DIRECTION ( 'NONE',  ( 0.0000000000000000000, 0.0000000000000000000, 1.000000000000000000 ) ) ;
#697 = DIRECTION ( 'NONE',  ( 0.0000000000000000000, 0.0000000000000000000, 1.000000000000000000 ) ) ;
#698 = EDGE_LOOP ( 'NONE', ( #132, #248 ) ) ;
#699 = UNCERTAINTY_MEASURE_WITH_UNIT (LENGTH_MEASURE( 1.000000000000000082E-05 ), #451, 'distance_accuracy_value', 'NONE');
#700 = PRESENTATION_STYLE_ASSIGNMENT (( #632 ) ) ;
#701 = CONTEXT_DEPENDENT_SHAPE_REPRESENTATION ( #747, #570 ) ;
#702 = CLOSED_SHELL ( 'NONE', ( #827, #810 ) ) ;
#703 = PRESENTATION_LAYER_ASSIGNMENT (  '', '', ( #687 ) ) ;
#704 = MECHANICAL_DESIGN_GEOMETRIC_PRESENTATION_REPRESENTATION (  '', ( #347 ), #561 ) ;
#705 = DIRECTION ( 'NONE',  ( 1.000000000000000000, 0.0000000000000000000, 0.0000000000000000000 ) ) ;
#706 = PRODUCT_DEFINITION_SHAPE ( 'NONE', 'NONE',  #846 ) ;
#707 = VERTEX_POINT ( 'NONE', #313 ) ;
#708 =( NAMED_UNIT ( * ) SI_UNIT ( $, .STERADIAN. ) SOLID_ANGLE_UNIT ( ) );
#709 = CARTESIAN_POINT ( 'NONE',  ( 0.3575000000000000400, 1.746575149765791757, 0.5260000000000000231 ) ) ;
#710 = PRODUCT_CONTEXT ( 'NONE', #727, 'mechanical' ) ;
#711 = ORIENTED_EDGE ( 'NONE', *, *, #683, .F. ) ;
#712 =( NAMED_UNIT ( * ) SI_UNIT ( $, .STERADIAN. ) SOLID_ANGLE_UNIT ( ) );
#713 = EDGE_CURVE ( 'NONE', #717, #781, #825, .T. ) ;
#714 = SURFACE_STYLE_USAGE ( .BOTH. , #302 ) ;
#715 = SURFACE_STYLE_USAGE ( .BOTH. , #186 ) ;
#716 = APPLICATION_PROTOCOL_DEFINITION ( 'draft international standard', 'automotive_design', 1998, #727 ) ;
#717 = VERTEX_POINT ( 'NONE', #593 ) ;
#718 = CARTESIAN_POINT ( 'NONE',  ( 0.0000000000000000000, 0.0000000000000000000, 0.6250000000000000000 ) ) ;
#719 = CYLINDRICAL_SURFACE ( 'NONE', #473, 0.09750000000000004496 ) ;
#720 = AXIS2_PLACEMENT_3D ( 'NONE', #789, #70, #149 ) ;
#721 =( GEOMETRIC_REPRESENTATION_CONTEXT ( 3 ) GLOBAL_UNCERTAINTY_ASSIGNED_CONTEXT ( ( #792 ) ) GLOBAL_UNIT_ASSIGNED_CONTEXT ( ( #49, #583, #56 ) ) REPRESENTATION_CONTEXT ( 'NONE', 'WORKASPACE' ) );
#722 = VERTEX_POINT ( 'NONE', #475 ) ;
#723 = CIRCLE ( 'NONE', #638, 0.1499999999999999944 ) ;
#724 = PRODUCT_DEFINITION_FORMATION_WITH_SPECIFIED_SOURCE ( 'ANY', '', #348, .NOT_KNOWN. ) ;
#725 = FACE_OUTER_BOUND ( 'NONE', #181, .T. ) ;
#726 = PRESENTATION_STYLE_ASSIGNMENT (( #765 ) ) ;
#727 = APPLICATION_CONTEXT ( 'automotive_design' ) ;
#728 = EDGE_CURVE ( 'NONE', #465, #401, #610, .T. ) ;
#729 = ORIENTED_EDGE ( 'NONE', *, *, #596, .T. ) ;
#730 = DIRECTION ( 'NONE',  ( 1.000000000000000000, 0.0000000000000000000, 0.0000000000000000000 ) ) ;
#731 = DIRECTION ( 'NONE',  ( -0.0000000000000000000, 1.000000000000000000, 0.0000000000000000000 ) ) ;
#732 = FILL_AREA_STYLE ('',( #421 ) ) ;
#733 =( NAMED_UNIT ( * ) SI_UNIT ( $, .STERADIAN. ) SOLID_ANGLE_UNIT ( ) );
#734 = AXIS2_PLACEMENT_3D ( 'NONE', #604, #614, #83 ) ;
#735 = SHAPE_REPRESENTATION_RELATIONSHIP ( 'NONE' , 'NONE' ,  #427, #322 ) ;
#736 =( GEOMETRIC_REPRESENTATION_CONTEXT ( 3 ) GLOBAL_UNCERTAINTY_ASSIGNED_CONTEXT ( ( #525 ) ) GLOBAL_UNIT_ASSIGNED_CONTEXT ( ( #422, #488, #539 ) ) REPRESENTATION_CONTEXT ( 'NONE', 'WORKASPACE' ) );
#737 = DIRECTION ( 'NONE',  ( -1.000000000000000000, 0.0000000000000000000, -0.0000000000000000000 ) ) ;
#738 = DIRECTION ( 'NONE',  ( 1.000000000000000000, 0.0000000000000000000, 0.0000000000000000000 ) ) ;
#739 = CARTESIAN_POINT ( 'NONE',  ( 0.1499999999999999944, 0.0000000000000000000, 0.0000000000000000000 ) ) ;
#740 = ADVANCED_FACE ( 'NONE', ( #725 ), #393, .F. ) ;
#741 = SURFACE_STYLE_USAGE ( .BOTH. , #795 ) ;
#742 = CARTESIAN_POINT ( 'NONE',  ( -0.1499999999999999944, 0.2999999999999999889, 0.5999999999999998668 ) ) ;
#743 = PRESENTATION_LAYER_ASSIGNMENT (  '', '', ( #270 ) ) ;
#744 = VECTOR ( 'NONE', #375, 1000.000000000000000 ) ;
#745 = PRESENTATION_STYLE_ASSIGNMENT (( #34 ) ) ;
#746 = APPLICATION_PROTOCOL_DEFINITION ( 'draft international standard', 'automotive_design', 1998, #826 ) ;
#747 =( REPRESENTATION_RELATIONSHIP ('NONE','NONE', #169, #595 ) REPRESENTATION_RELATIONSHIP_WITH_TRANSFORMATION ( #450 )SHAPE_REPRESENTATION_RELATIONSHIP( ) );
#748 = FILL_AREA_STYLE_COLOUR ( '', #293 ) ;
#749 = CARTESIAN_POINT ( 'NONE',  ( 0.2068680194159971397, 1.897210347530650099, 0.5259999999999999121 ) ) ;
#750 = DIRECTION ( 'NONE',  ( 1.000000000000000000, 0.0000000000000000000, 0.0000000000000000000 ) ) ;
#751 = EDGE_LOOP ( 'NONE', ( #529, #526, #409, #366 ) ) ;
#752 = CARTESIAN_POINT ( 'NONE',  ( 1.560000000000000275, 0.0000000000000000000, 0.1499999999999999944 ) ) ;
#753 = FILL_AREA_STYLE ('',( #30 ) ) ;
#754 = DIRECTION ( 'NONE',  ( -0.0000000000000000000, -1.000000000000000000, -0.0000000000000000000 ) ) ;
#755 = DIRECTION ( 'NONE',  ( 0.0000000000000000000, 0.0000000000000000000, 1.000000000000000000 ) ) ;
#756 = CARTESIAN_POINT ( 'NONE',  ( 0.1499999999999999944, -0.2999999999999998779, 3.673940397442058266E-17 ) ) ;
#757 = ADVANCED_FACE ( 'NONE', ( #398 ), #667, .T. ) ;
#758 =( LENGTH_UNIT ( ) NAMED_UNIT ( * ) SI_UNIT ( .MILLI., .METRE. ) );
#759 = COLOUR_RGB ( '',0.2000000000000000111, 0.2000000000000000111, 0.2000000000000000111 ) ;
#760 = AXIS2_PLACEMENT_3D ( 'NONE', #281, #67, #738 ) ;
#761 = DIRECTION ( 'NONE',  ( 1.000000000000000000, 0.0000000000000000000, 0.0000000000000000000 ) ) ;
#762 = SHAPE_DEFINITION_REPRESENTATION ( #394, #309 ) ;
#763 = CARTESIAN_POINT ( 'NONE',  ( 0.0000000000000000000, 0.0000000000000000000, 0.0000000000000000000 ) ) ;
#764 = UNCERTAINTY_MEASURE_WITH_UNIT (LENGTH_MEASURE( 1.000000000000000082E-05 ), #659, 'distance_accuracy_value', 'NONE');
#765 = SURFACE_STYLE_USAGE ( .BOTH. , #458 ) ;
#766 = CONTEXT_DEPENDENT_SHAPE_REPRESENTATION ( #133, #494 ) ;
#767 = EDGE_LOOP ( 'NONE', ( #315, #161, #681, #516 ) ) ;
#768 =( NAMED_UNIT ( * ) PLANE_ANGLE_UNIT ( ) SI_UNIT ( $, .RADIAN. ) );
#769 = CARTESIAN_POINT ( 'NONE',  ( 0.0000000000000000000, 0.0000000000000000000, 0.6250000000000000000 ) ) ;
#770 = VECTOR ( 'NONE', #531, 1000.000000000000000 ) ;
#771 = APPLICATION_PROTOCOL_DEFINITION ( 'draft international standard', 'automotive_design', 1998, #71 ) ;
#772 = ORIENTED_EDGE ( 'NONE', *, *, #123, .T. ) ;
#773 = PRESENTATION_LAYER_ASSIGNMENT (  '', '', ( #40 ) ) ;
#774 =( GEOMETRIC_REPRESENTATION_CONTEXT ( 3 ) GLOBAL_UNCERTAINTY_ASSIGNED_CONTEXT ( ( #103 ) ) GLOBAL_UNIT_ASSIGNED_CONTEXT ( ( #230, #374, #633 ) ) REPRESENTATION_CONTEXT ( 'NONE', 'WORKASPACE' ) );
#775 =( LENGTH_UNIT ( ) NAMED_UNIT ( * ) SI_UNIT ( .MILLI., .METRE. ) );
#776 = ORIENTED_EDGE ( 'NONE', *, *, #296, .F. ) ;
#777 = CARTESIAN_POINT ( 'NONE',  ( 0.0000000000000000000, 0.0000000000000000000, 0.0000000000000000000 ) ) ;
#778 = SURFACE_STYLE_USAGE ( .BOTH. , #524 ) ;
#779 = VERTEX_POINT ( 'NONE', #601 ) ;
#780 = DIRECTION ( 'NONE',  ( 0.0000000000000000000, 0.0000000000000000000, 1.000000000000000000 ) ) ;
#781 = VERTEX_POINT ( 'NONE', #545 ) ;
#782 =( LENGTH_UNIT ( ) NAMED_UNIT ( * ) SI_UNIT ( .MILLI., .METRE. ) );
#783 =( GEOMETRIC_REPRESENTATION_CONTEXT ( 3 ) GLOBAL_UNCERTAINTY_ASSIGNED_CONTEXT ( ( #816 ) ) GLOBAL_UNIT_ASSIGNED_CONTEXT ( ( #249, #255, #331 ) ) REPRESENTATION_CONTEXT ( 'NONE', 'WORKASPACE' ) );
#784 = PRESENTATION_STYLE_ASSIGNMENT (( #778 ) ) ;
#785 = ITEM_DEFINED_TRANSFORMATION ( 'NONE', 'NONE', #793,  #386 ) ;
#786 = PLANE ( 'NONE',  #720 ) ;
#787 =( LENGTH_UNIT ( ) NAMED_UNIT ( * ) SI_UNIT ( .MILLI., .METRE. ) );
#788 = FACE_OUTER_BOUND ( 'NONE', #829, .T. ) ;
#789 = CARTESIAN_POINT ( 'NONE',  ( 0.0000000000000000000, 0.0000000000000000000, 0.1499999999999999944 ) ) ;
#790 =( GEOMETRIC_REPRESENTATION_CONTEXT ( 3 ) GLOBAL_UNCERTAINTY_ASSIGNED_CONTEXT ( ( #651 ) ) GLOBAL_UNIT_ASSIGNED_CONTEXT ( ( #758, #812, #233 ) ) REPRESENTATION_CONTEXT ( 'NONE', 'WORKASPACE' ) );
#791 =( GEOMETRIC_REPRESENTATION_CONTEXT ( 3 ) GLOBAL_UNCERTAINTY_ASSIGNED_CONTEXT ( ( #432 ) ) GLOBAL_UNIT_ASSIGNED_CONTEXT ( ( #35, #157, #29 ) ) REPRESENTATION_CONTEXT ( 'NONE', 'WORKASPACE' ) );
#792 = UNCERTAINTY_MEASURE_WITH_UNIT (LENGTH_MEASURE( 1.000000000000000082E-05 ), #49, 'distance_accuracy_value', 'NONE');
#793 = AXIS2_PLACEMENT_3D ( 'NONE', #156, #697, #291 ) ;
#794 = DIRECTION ( 'NONE',  ( 0.0000000000000000000, 0.0000000000000000000, 1.000000000000000000 ) ) ;
#795 = SURFACE_SIDE_STYLE ('',( #557 ) ) ;
#796 = PRODUCT_DEFINITION_SHAPE ( 'NONE', 'NONE',  #847 ) ;
#797 =( LENGTH_UNIT ( ) NAMED_UNIT ( * ) SI_UNIT ( .MILLI., .METRE. ) );
#798 = CARTESIAN_POINT ( 'NONE',  ( 0.0000000000000000000, -0.2500000000000000000, 0.1499999999999999944 ) ) ;
#799 = FACE_OUTER_BOUND ( 'NONE', #320, .T. ) ;
#800 = COLOUR_RGB ( '',0.2000000000000000111, 0.2000000000000000111, 0.2000000000000000111 ) ;
#801 = LINE ( 'NONE', #568, #384 ) ;
#802 = MECHANICAL_DESIGN_GEOMETRIC_PRESENTATION_REPRESENTATION (  '', ( #613 ), #791 ) ;
#803 =( NAMED_UNIT ( * ) SI_UNIT ( $, .STERADIAN. ) SOLID_ANGLE_UNIT ( ) );
#804 =( LENGTH_UNIT ( ) NAMED_UNIT ( * ) SI_UNIT ( .MILLI., .METRE. ) );
#805 = UNCERTAINTY_MEASURE_WITH_UNIT (LENGTH_MEASURE( 1.000000000000000082E-05 ), #782, 'distance_accuracy_value', 'NONE');
#806 = CARTESIAN_POINT ( 'NONE',  ( 0.3479809703885627936, 1.850113985525434712, 0.5259999999999999121 ) ) ;
#807 =( REPRESENTATION_RELATIONSHIP ('NONE','NONE', #595, #427 ) REPRESENTATION_RELATIONSHIP_WITH_TRANSFORMATION ( #246 )SHAPE_REPRESENTATION_RELATIONSHIP( ) );
#808 = CARTESIAN_POINT ( 'NONE',  ( 0.0000000000000000000, 0.0000000000000000000, 0.1499999999999999944 ) ) ;
#809 = DIRECTION ( 'NONE',  ( 0.0000000000000000000, 0.0000000000000000000, 1.000000000000000000 ) ) ;
#810 = ADVANCED_FACE ( 'NONE', ( #141 ), #74, .T. ) ;
#811 = SURFACE_STYLE_FILL_AREA ( #436 ) ;
#812 =( NAMED_UNIT ( * ) PLANE_ANGLE_UNIT ( ) SI_UNIT ( $, .RADIAN. ) );
#813 = LINE ( 'NONE', #576, #1 ) ;
#814 = DIRECTION ( 'NONE',  ( 1.000000000000000000, 0.0000000000000000000, 0.0000000000000000000 ) ) ;
#815 = PRESENTATION_LAYER_ASSIGNMENT (  '', '', ( #347 ) ) ;
#816 = UNCERTAINTY_MEASURE_WITH_UNIT (LENGTH_MEASURE( 1.000000000000000082E-05 ), #249, 'distance_accuracy_value', 'NONE');
#817 = VECTOR ( 'NONE', #705, 1000.000000000000000 ) ;
#818 = FACE_OUTER_BOUND ( 'NONE', #767, .T. ) ;
#819 = AXIS2_PLACEMENT_3D ( 'NONE', #680, #696, #622 ) ;
#820 = SHAPE_DEFINITION_REPRESENTATION ( #297, #264 ) ;
#821 = ORIENTED_EDGE ( 'NONE', *, *, #137, .T. ) ;
#822 = PRESENTATION_STYLE_ASSIGNMENT (( #504 ) ) ;
#823 = ADVANCED_FACE ( 'NONE', ( #18 ), #676, .F. ) ;
#824 = ITEM_DEFINED_TRANSFORMATION ( 'NONE', 'NONE', #326,  #386 ) ;
#825 = LINE ( 'NONE', #657, #414 ) ;
#826 = APPLICATION_CONTEXT ( 'automotive_design' ) ;
#827 = ADVANCED_FACE ( 'NONE', ( #799 ), #13, .T. ) ;
#828 = CONTEXT_DEPENDENT_SHAPE_REPRESENTATION ( #82, #78 ) ;
#829 = EDGE_LOOP ( 'NONE', ( #130, #471, #188, #266 ) ) ;
#830 = LINE ( 'NONE', #44, #770 ) ;
#831 = COLOUR_RGB ( '',0.2000000000000000111, 0.2000000000000000111, 0.2000000000000000111 ) ;
#832 = PRESENTATION_STYLE_ASSIGNMENT (( #714 ) ) ;
#833 = NEXT_ASSEMBLY_USAGE_OCCURRENCE ( 'NAUO1', ' ', ' ', #209, #404, $ ) ;
#834 = NEXT_ASSEMBLY_USAGE_OCCURRENCE ( 'NAUO2', ' ', ' ', #404, #652, $ ) ;
#835 = NEXT_ASSEMBLY_USAGE_OCCURRENCE ( 'NAUO3', ' ', ' ', #404, #300, $ ) ;
#836 = NEXT_ASSEMBLY_USAGE_OCCURRENCE ( 'NAUO4', ' ', ' ', #404, #99, $ ) ;
#837 = NEXT_ASSEMBLY_USAGE_OCCURRENCE ( 'NAUO5', ' ', ' ', #404, #99, $ ) ;
#838 = NEXT_ASSEMBLY_USAGE_OCCURRENCE ( 'NAUO6', ' ', ' ', #404, #99, $ ) ;
#839 = NEXT_ASSEMBLY_USAGE_OCCURRENCE ( 'NAUO7', ' ', ' ', #404, #99, $ ) ;
#840 = NEXT_ASSEMBLY_USAGE_OCCURRENCE ( 'NAUO8', ' ', ' ', #404, #99, $ ) ;
#841 = NEXT_ASSEMBLY_USAGE_OCCURRENCE ( 'NAUO9', ' ', ' ', #404, #99, $ ) ;
#842 = NEXT_ASSEMBLY_USAGE_OCCURRENCE ( 'NAUO10', ' ', ' ', #404, #99, $ ) ;
#843 = NEXT_ASSEMBLY_USAGE_OCCURRENCE ( 'NAUO11', ' ', ' ', #404, #99, $ ) ;
#844 = NEXT_ASSEMBLY_USAGE_OCCURRENCE ( 'NAUO12', ' ', ' ', #404, #99, $ ) ;
#845 = NEXT_ASSEMBLY_USAGE_OCCURRENCE ( 'NAUO13', ' ', ' ', #404, #99, $ ) ;
#846 = NEXT_ASSEMBLY_USAGE_OCCURRENCE ( 'NAUO14', ' ', ' ', #404, #99, $ ) ;
#847 = NEXT_ASSEMBLY_USAGE_OCCURRENCE ( 'NAUO15', ' ', ' ', #404, #99, $ ) ;
#848 = NEXT_ASSEMBLY_USAGE_OCCURRENCE ( 'NAUO16', ' ', ' ', #300, #290, $ ) ;
ENDSEC;
END-ISO-10303-21;
