ISO-10303-21;
HEADER;
FILE_DESCRIPTION (( 'STEP AP214' ),
    '1' );
FILE_NAME ('90788115-A04C-4202-95F9-BF4FE7D970CC.STEP',
    '2023-06-27T10:44:58',
    ( '' ),
    ( '' ),
    'SwSTEP 2.0',
    'SolidWorks 2022',
    '' );
FILE_SCHEMA (( 'AUTOMOTIVE_DESIGN' ));
ENDSEC;

DATA;
#1 = ORIENTED_EDGE ( 'NONE', *, *, #413, .T. ) ;
#2 = DIRECTION ( 'NONE',  ( -0.0000000000000000000, -0.0000000000000000000, 1.000000000000000000 ) ) ;
#3 = VECTOR ( 'NONE', #772, 1000.000000000000000 ) ;
#4 = DIRECTION ( 'NONE',  ( 0.0000000000000000000, 0.0000000000000000000, -1.000000000000000000 ) ) ;
#5 = CARTESIAN_POINT ( 'NONE',  ( 2.799999999999999822, 3.673940397442060115E-17, 47.20456852923798863 ) ) ;
#6 = AXIS2_PLACEMENT_3D ( 'NONE', #784, #689, #695 ) ;
#7 = CARTESIAN_POINT ( 'NONE',  ( 2.500000000000000000, 0.0000000000000000000, 47.20456852923798863 ) ) ;
#8 = UNCERTAINTY_MEASURE_WITH_UNIT (LENGTH_MEASURE( 1.000000000000000082E-05 ), #175, 'distance_accuracy_value', 'NONE');
#9 = CARTESIAN_POINT ( 'NONE',  ( 2.200000000000000178, 0.0000000000000000000, 47.20456852923798863 ) ) ;
#10 = EDGE_CURVE ( 'NONE', #505, #941, #1025, .T. ) ;
#11 = DIRECTION ( 'NONE',  ( -1.000000000000000000, 0.0000000000000000000, -0.0000000000000000000 ) ) ;
#12 = DIRECTION ( 'NONE',  ( -0.0000000000000000000, -0.0000000000000000000, 1.000000000000000000 ) ) ;
#13 = CARTESIAN_POINT ( 'NONE',  ( -1.249999999999998890, 0.0000000000000000000, 39.70456852923798863 ) ) ;
#14 = SURFACE_SIDE_STYLE ('',( #905 ) ) ;
#15 = DIRECTION ( 'NONE',  ( 0.0000000000000000000, 0.0000000000000000000, -1.000000000000000000 ) ) ;
#16 = CARTESIAN_POINT ( 'NONE',  ( 3.699489742783177437, 0.5000000000000000000, 39.70456852923798863 ) ) ;
#17 = EDGE_LOOP ( 'NONE', ( #779, #732, #384, #1013 ) ) ;
#18 = CARTESIAN_POINT ( 'NONE',  ( 3.699489742783177437, -0.5000000000000008882, 45.70456852923798863 ) ) ;
#19 = ADVANCED_FACE ( 'NONE', ( #428 ), #510, .T. ) ;
#20 = DIRECTION ( 'NONE',  ( 1.000000000000000000, 0.0000000000000000000, 0.0000000000000000000 ) ) ;
#21 = VECTOR ( 'NONE', #480, 1000.000000000000000 ) ;
#22 = DIRECTION ( 'NONE',  ( 1.000000000000000000, 0.0000000000000000000, 0.0000000000000000000 ) ) ;
#23 = CARTESIAN_POINT ( 'NONE',  ( 1.250000000000000000, 0.0000000000000000000, 45.70456852923798863 ) ) ;
#24 = ORIENTED_EDGE ( 'NONE', *, *, #94, .T. ) ;
#25 = AXIS2_PLACEMENT_3D ( 'NONE', #1020, #793, #513 ) ;
#26 = EDGE_CURVE ( 'NONE', #558, #482, #889, .T. ) ;
#27 = CIRCLE ( 'NONE', #532, 2.250000000000000000 ) ;
#28 = ADVANCED_FACE ( 'NONE', ( #380, #220, #403 ), #317, .F. ) ;
#29 = AXIS2_PLACEMENT_3D ( 'NONE', #7, #387, #888 ) ;
#30 = ORIENTED_EDGE ( 'NONE', *, *, #967, .T. ) ;
#31 = DIRECTION ( 'NONE',  ( 1.000000000000000000, 0.0000000000000000000, 0.0000000000000000000 ) ) ;
#32 = EDGE_CURVE ( 'NONE', #578, #358, #452, .T. ) ;
#33 = DIRECTION ( 'NONE',  ( 0.0000000000000000000, 0.0000000000000000000, 1.000000000000000000 ) ) ;
#34 = ORIENTED_EDGE ( 'NONE', *, *, #10, .F. ) ;
#35 = AXIS2_PLACEMENT_3D ( 'NONE', #204, #879, #465 ) ;
#36 = ORIENTED_EDGE ( 'NONE', *, *, #964, .T. ) ;
#37 = EDGE_CURVE ( 'NONE', #568, #739, #210, .T. ) ;
#38 = ORIENTED_EDGE ( 'NONE', *, *, #419, .F. ) ;
#39 =( GEOMETRIC_REPRESENTATION_CONTEXT ( 3 ) GLOBAL_UNCERTAINTY_ASSIGNED_CONTEXT ( ( #55 ) ) GLOBAL_UNIT_ASSIGNED_CONTEXT ( ( #252, #682, #350 ) ) REPRESENTATION_CONTEXT ( 'NONE', 'WORKASPACE' ) );
#40 =( NAMED_UNIT ( * ) SI_UNIT ( $, .STERADIAN. ) SOLID_ANGLE_UNIT ( ) );
#41 = EDGE_LOOP ( 'NONE', ( #589, #995, #660, #100, #971, #418, #612, #478, #354, #34, #235, #916 ) ) ;
#42 = DIRECTION ( 'NONE',  ( 0.0000000000000000000, 0.0000000000000000000, -1.000000000000000000 ) ) ;
#43 = COLOUR_RGB ( '',0.2509803921568627416, 0.2509803921568627416, 0.2509803921568627416 ) ;
#44 = PRESENTATION_LAYER_ASSIGNMENT (  '', '', ( #211 ) ) ;
#45 = UNCERTAINTY_MEASURE_WITH_UNIT (LENGTH_MEASURE( 1.000000000000000082E-05 ), #407, 'distance_accuracy_value', 'NONE');
#46 = ORIENTED_EDGE ( 'NONE', *, *, #972, .T. ) ;
#47 = EDGE_CURVE ( 'NONE', #678, #292, #467, .T. ) ;
#48 = FACE_OUTER_BOUND ( 'NONE', #449, .T. ) ;
#49 = CIRCLE ( 'NONE', #591, 0.2999999999999999889 ) ;
#50 = SURFACE_SIDE_STYLE ('',( #1010 ) ) ;
#51 = DIRECTION ( 'NONE',  ( -0.0000000000000000000, -0.0000000000000000000, 1.000000000000000000 ) ) ;
#52 = DIRECTION ( 'NONE',  ( -0.0000000000000000000, -0.0000000000000000000, 1.000000000000000000 ) ) ;
#53 =( BOUNDED_CURVE ( )  B_SPLINE_CURVE ( 3, ( #700, #946, #202, #329 ),
 .UNSPECIFIED., .F., .F. ) 
 B_SPLINE_CURVE_WITH_KNOTS ( ( 4, 4 ),
 ( 1.369438406004565678, 1.570796326794896558 ),
 .UNSPECIFIED. ) 
 CURVE ( )  GEOMETRIC_REPRESENTATION_ITEM ( )  RATIONAL_B_SPLINE_CURVE ( ( 1.000000000000000000, 0.9966241020034161124, 0.9966241020034161124, 1.000000000000000000 ) ) 
 REPRESENTATION_ITEM ( '' )  );
#54 = FILL_AREA_STYLE ('',( #291 ) ) ;
#55 = UNCERTAINTY_MEASURE_WITH_UNIT (LENGTH_MEASURE( 1.000000000000000082E-05 ), #252, 'distance_accuracy_value', 'NONE');
#56 = CARTESIAN_POINT ( 'NONE',  ( 1.250000000000000000, 0.0000000000000000000, 45.70456852923798863 ) ) ;
#57 = FILL_AREA_STYLE_COLOUR ( '', #248 ) ;
#58 = CARTESIAN_POINT ( 'NONE',  ( -1.249999999999999778, -1.836970198721033385E-16, 39.20456852923798863 ) ) ;
#59 = ORIENTED_EDGE ( 'NONE', *, *, #560, .T. ) ;
#60 = CARTESIAN_POINT ( 'NONE',  ( -1.249999999999999556, -0.1680823655966252606, 39.87265089483462077 ) ) ;
#61 = EDGE_CURVE ( 'NONE', #846, #568, #335, .T. ) ;
#62 = AXIS2_PLACEMENT_3D ( 'NONE', #791, #543, #4 ) ;
#63 = ORIENTED_EDGE ( 'NONE', *, *, #94, .F. ) ;
#64 = CARTESIAN_POINT ( 'NONE',  ( -1.199489742783178103, 0.4999999999999997780, 40.20456852923798863 ) ) ;
#65 = EDGE_LOOP ( 'NONE', ( #261, #758, #843, #600, #333, #189 ) ) ;
#66 = CARTESIAN_POINT ( 'NONE',  ( -1.249999999999998890, 0.0000000000000000000, 39.70456852923798863 ) ) ;
#67 = DIRECTION ( 'NONE',  ( 1.224646799147353207E-16, 1.000000000000000000, 0.0000000000000000000 ) ) ;
#68 = PRESENTATION_STYLE_ASSIGNMENT (( #381 ) ) ;
#69 = DIRECTION ( 'NONE',  ( -1.000000000000000000, 1.224646799147354193E-16, 0.0000000000000000000 ) ) ;
#70 = VERTEX_POINT ( 'NONE', #130 ) ;
#71 = AXIS2_PLACEMENT_3D ( 'NONE', #840, #334, #923 ) ;
#72 = AXIS2_PLACEMENT_3D ( 'NONE', #131, #382, #865 ) ;
#73 = CARTESIAN_POINT ( 'NONE',  ( 2.500000000000000000, 0.0000000000000000000, 47.20456852923798863 ) ) ;
#74 = FILL_AREA_STYLE ('',( #463 ) ) ;
#75 =( NAMED_UNIT ( * ) SI_UNIT ( $, .STERADIAN. ) SOLID_ANGLE_UNIT ( ) );
#76 = VECTOR ( 'NONE', #621, 1000.000000000000000 ) ;
#77 = CARTESIAN_POINT ( 'NONE',  ( -1.250000000000000000, 0.0000000000000000000, 45.70456852923798863 ) ) ;
#78 = CARTESIAN_POINT ( 'NONE',  ( 1.250000000000000000, 0.0000000000000000000, 44.70456852923798863 ) ) ;
#79 = EDGE_CURVE ( 'NONE', #97, #691, #708, .T. ) ;
#80 =( LENGTH_UNIT ( ) NAMED_UNIT ( * ) SI_UNIT ( .MILLI., .METRE. ) );
#81 = CYLINDRICAL_SURFACE ( 'NONE', #412, 2.499999999999999556 ) ;
#82 = STYLED_ITEM ( 'NONE', ( #1018 ), #263 ) ;
#83 = DIRECTION ( 'NONE',  ( 0.0000000000000000000, 0.0000000000000000000, 1.000000000000000000 ) ) ;
#84 = DIRECTION ( 'NONE',  ( -0.0000000000000000000, -0.0000000000000000000, -1.000000000000000000 ) ) ;
#85 = PRESENTATION_STYLE_ASSIGNMENT (( #555 ) ) ;
#86 = CIRCLE ( 'NONE', #293, 0.7071067811865450192 ) ;
#87 = CARTESIAN_POINT ( 'NONE',  ( 3.499999999999999556, 2.755455298081544778E-16, 38.00456852923798579 ) ) ;
#88 = AXIS2_PLACEMENT_3D ( 'NONE', #545, #230, #725 ) ;
#89 = ORIENTED_EDGE ( 'NONE', *, *, #514, .T. ) ;
#90 = DIRECTION ( 'NONE',  ( -1.000000000000000000, 0.0000000000000000000, 0.0000000000000000000 ) ) ;
#91 = PRESENTATION_STYLE_ASSIGNMENT (( #228 ) ) ;
#92 = AXIS2_PLACEMENT_3D ( 'NONE', #913, #169, #504 ) ;
#93 = ORIENTED_EDGE ( 'NONE', *, *, #394, .T. ) ;
#94 = EDGE_CURVE ( 'NONE', #605, #1017, #225, .T. ) ;
#95 = STYLED_ITEM ( 'NONE', ( #85 ), #498 ) ;
#96 = EDGE_LOOP ( 'NONE', ( #372, #294, #697, #867 ) ) ;
#97 = VERTEX_POINT ( 'NONE', #87 ) ;
#98 = EDGE_CURVE ( 'NONE', #745, #97, #264, .T. ) ;
#99 =( LENGTH_UNIT ( ) NAMED_UNIT ( * ) SI_UNIT ( .MILLI., .METRE. ) );
#100 = ORIENTED_EDGE ( 'NONE', *, *, #810, .F. ) ;
#101 = PRESENTATION_STYLE_ASSIGNMENT (( #661 ) ) ;
#102 = MECHANICAL_DESIGN_GEOMETRIC_PRESENTATION_REPRESENTATION (  '', ( #601 ), #802 ) ;
#103 = EDGE_CURVE ( 'NONE', #739, #358, #1016, .T. ) ;
#104 = VERTEX_POINT ( 'NONE', #646 ) ;
#105 = VERTEX_POINT ( 'NONE', #455 ) ;
#106 = CARTESIAN_POINT ( 'NONE',  ( 3.750000000000000000, 0.0000000000000000000, 45.70456852923798863 ) ) ;
#107 = SURFACE_STYLE_FILL_AREA ( #572 ) ;
#108 = ORIENTED_EDGE ( 'NONE', *, *, #183, .F. ) ;
#109 = AXIS2_PLACEMENT_3D ( 'NONE', #207, #851, #932 ) ;
#110 = MECHANICAL_DESIGN_GEOMETRIC_PRESENTATION_REPRESENTATION (  '', ( #429 ), #341 ) ;
#111 = EDGE_CURVE ( 'NONE', #670, #846, #501, .T. ) ;
#112 = DIRECTION ( 'NONE',  ( 1.000000000000000000, 0.0000000000000000000, 0.0000000000000000000 ) ) ;
#113 = CARTESIAN_POINT ( 'NONE',  ( 3.750000000000000000, 0.1680823655966252328, 39.87265089483462077 ) ) ;
#114 = PRODUCT_RELATED_PRODUCT_CATEGORY ( 'part', '', ( #1002 ) ) ;
#115 = DIRECTION ( 'NONE',  ( -0.0000000000000000000, -0.0000000000000000000, 1.000000000000000000 ) ) ;
#116 = CARTESIAN_POINT ( 'NONE',  ( 1.250000000000000000, 0.0000000000000000000, 45.70456852923798863 ) ) ;
#117 = EDGE_LOOP ( 'NONE', ( #1028, #152, #492, #108, #541 ) ) ;
#118 = FILL_AREA_STYLE ('',( #596 ) ) ;
#119 = LINE ( 'NONE', #1004, #435 ) ;
#120 = EDGE_CURVE ( 'NONE', #292, #755, #170, .T. ) ;
#121 = FACE_OUTER_BOUND ( 'NONE', #424, .T. ) ;
#122 = TOROIDAL_SURFACE ( 'NONE', #71, 3.000000000000000000, 0.7071067811865482389 ) ;
#123 = VERTEX_POINT ( 'NONE', #304 ) ;
#124 = CYLINDRICAL_SURFACE ( 'NONE', #827, 2.499999999999999556 ) ;
#125 = VECTOR ( 'NONE', #483, 1000.000000000000000 ) ;
#126 = ORIENTED_EDGE ( 'NONE', *, *, #26, .T. ) ;
#127 = CARTESIAN_POINT ( 'NONE',  ( -1.042893218813451872, 2.807984341206564857E-16, 44.20456852923798863 ) ) ;
#128 = ORIENTED_EDGE ( 'NONE', *, *, #729, .F. ) ;
#129 = CARTESIAN_POINT ( 'NONE',  ( 1.250000000000000000, 0.0000000000000000000, 45.70456852923798863 ) ) ;
#130 = CARTESIAN_POINT ( 'NONE',  ( 3.749999999999999112, 0.0000000000000000000, 39.70456852923798863 ) ) ;
#131 = CARTESIAN_POINT ( 'NONE',  ( 1.250000000000000000, 0.0000000000000000000, 44.70456852923798863 ) ) ;
#132 = EDGE_LOOP ( 'NONE', ( #414, #323, #535, #823 ) ) ;
#133 = FILL_AREA_STYLE ('',( #392 ) ) ;
#134 = SURFACE_SIDE_STYLE ('',( #723 ) ) ;
#135 = DIRECTION ( 'NONE',  ( 1.000000000000000000, 0.0000000000000000000, 0.0000000000000000000 ) ) ;
#136 = AXIS2_PLACEMENT_3D ( 'NONE', #866, #688, #182 ) ;
#137 = DIRECTION ( 'NONE',  ( -0.0000000000000000000, -0.0000000000000000000, 1.000000000000000000 ) ) ;
#138 = CARTESIAN_POINT ( 'NONE',  ( -1.199489742783177437, -0.5000000000000008882, 45.70456852923798863 ) ) ;
#139 = SURFACE_STYLE_USAGE ( .BOTH. , #900 ) ;
#140 = DIRECTION ( 'NONE',  ( -0.0000000000000000000, -0.0000000000000000000, 1.000000000000000000 ) ) ;
#141 =( BOUNDED_CURVE ( )  B_SPLINE_CURVE ( 3, ( #214, #803, #554, #890 ),
 .UNSPECIFIED., .F., .F. ) 
 B_SPLINE_CURVE_WITH_KNOTS ( ( 4, 4 ),
 ( 4.712388980384689674, 4.913746901175020554 ),
 .UNSPECIFIED. ) 
 CURVE ( )  GEOMETRIC_REPRESENTATION_ITEM ( )  RATIONAL_B_SPLINE_CURVE ( ( 1.000000000000000000, 0.9966241020034161124, 0.9966241020034161124, 1.000000000000000000 ) ) 
 REPRESENTATION_ITEM ( '' )  );
#142 = DIRECTION ( 'NONE',  ( -0.0000000000000000000, -0.0000000000000000000, 1.000000000000000000 ) ) ;
#143 = MECHANICAL_DESIGN_GEOMETRIC_PRESENTATION_REPRESENTATION (  '', ( #771 ), #809 ) ;
#144 = CARTESIAN_POINT ( 'NONE',  ( 3.499999999999999556, 2.755455298081544285E-16, 38.00456852923798579 ) ) ;
#145 = CARTESIAN_POINT ( 'NONE',  ( 1.250000000000000000, 0.0000000000000000000, 38.00456852923798579 ) ) ;
#146 = ORIENTED_EDGE ( 'NONE', *, *, #299, .F. ) ;
#147 = CARTESIAN_POINT ( 'NONE',  ( 1.250000000000000000, 0.0000000000000000000, 38.00456852923798579 ) ) ;
#148 = EDGE_CURVE ( 'NONE', #377, #558, #960, .T. ) ;
#149 = FILL_AREA_STYLE_COLOUR ( '', #684 ) ;
#150 = CIRCLE ( 'NONE', #25, 2.499999999999999556 ) ;
#151 = CARTESIAN_POINT ( 'NONE',  ( 3.749999999999999112, 0.0000000000000000000, 39.70456852923798863 ) ) ;
#152 = ORIENTED_EDGE ( 'NONE', *, *, #746, .F. ) ;
#153 = DIRECTION ( 'NONE',  ( -1.000000000000000000, 0.0000000000000000000, 0.0000000000000000000 ) ) ;
#154 = CARTESIAN_POINT ( 'NONE',  ( 3.699489742783177437, -0.5000000000000008882, 39.70456852923798863 ) ) ;
#155 = MECHANICAL_DESIGN_GEOMETRIC_PRESENTATION_REPRESENTATION (  '', ( #211 ), #391 ) ;
#156 = ORIENTED_EDGE ( 'NONE', *, *, #952, .F. ) ;
#157 = CYLINDRICAL_SURFACE ( 'NONE', #519, 2.499999999999999556 ) ;
#158 = UNCERTAINTY_MEASURE_WITH_UNIT (LENGTH_MEASURE( 1.000000000000000082E-05 ), #364, 'distance_accuracy_value', 'NONE');
#159 = STYLED_ITEM ( 'NONE', ( #448 ), #314 ) ;
#160 = EDGE_LOOP ( 'NONE', ( #348, #267 ) ) ;
#161 = PRESENTATION_STYLE_ASSIGNMENT (( #497 ) ) ;
#162 = SURFACE_STYLE_USAGE ( .BOTH. , #911 ) ;
#163 = EDGE_LOOP ( 'NONE', ( #958, #172, #921, #167, #46, #829 ) ) ;
#164 = AXIS2_PLACEMENT_3D ( 'NONE', #969, #12, #735 ) ;
#165 = CARTESIAN_POINT ( 'NONE',  ( -1.199489742783177437, -0.5000000000000008882, 39.70456852923798863 ) ) ;
#166 = ORIENTED_EDGE ( 'NONE', *, *, #299, .T. ) ;
#167 = ORIENTED_EDGE ( 'NONE', *, *, #362, .T. ) ;
#168 = EDGE_CURVE ( 'NONE', #605, #527, #752, .T. ) ;
#169 = DIRECTION ( 'NONE',  ( -0.0000000000000000000, -0.0000000000000000000, 1.000000000000000000 ) ) ;
#170 = CIRCLE ( 'NONE', #936, 2.499999999999999556 ) ;
#171 =( LENGTH_UNIT ( ) NAMED_UNIT ( * ) SI_UNIT ( .MILLI., .METRE. ) );
#172 = ORIENTED_EDGE ( 'NONE', *, *, #810, .T. ) ;
#173 = COLOUR_RGB ( '',1.000000000000000000, 1.000000000000000000, 1.000000000000000000 ) ;
#174 = ORIENTED_EDGE ( 'NONE', *, *, #47, .T. ) ;
#175 =( LENGTH_UNIT ( ) NAMED_UNIT ( * ) SI_UNIT ( .MILLI., .METRE. ) );
#176 =( BOUNDED_CURVE ( )  B_SPLINE_CURVE ( 3, ( #66, #60, #862, #948 ),
 .UNSPECIFIED., .F., .F. ) 
 B_SPLINE_CURVE_WITH_KNOTS ( ( 4, 4 ),
 ( 4.712388980384689674, 4.913746901175020554 ),
 .UNSPECIFIED. ) 
 CURVE ( )  GEOMETRIC_REPRESENTATION_ITEM ( )  RATIONAL_B_SPLINE_CURVE ( ( 1.000000000000000000, 0.9966241020034161124, 0.9966241020034161124, 1.000000000000000000 ) ) 
 REPRESENTATION_ITEM ( '' )  );
#177 = PRESENTATION_STYLE_ASSIGNMENT (( #919 ) ) ;
#178 = EDGE_CURVE ( 'NONE', #503, #70, #585, .T. ) ;
#179 = VERTEX_POINT ( 'NONE', #579 ) ;
#180 = CARTESIAN_POINT ( 'NONE',  ( 1.250000000000000000, 0.0000000000000000000, 37.70456852923798863 ) ) ;
#181 = CARTESIAN_POINT ( 'NONE',  ( 0.0000000000000000000, 0.0000000000000000000, 45.70456852923798863 ) ) ;
#182 = DIRECTION ( 'NONE',  ( -1.000000000000000000, 0.0000000000000000000, 0.0000000000000000000 ) ) ;
#183 = EDGE_CURVE ( 'NONE', #755, #974, #433, .T. ) ;
#184 = PRESENTATION_STYLE_ASSIGNMENT (( #191 ) ) ;
#185 = LINE ( 'NONE', #443, #311 ) ;
#186 =( LENGTH_UNIT ( ) NAMED_UNIT ( * ) SI_UNIT ( .MILLI., .METRE. ) );
#187 = CARTESIAN_POINT ( 'NONE',  ( 3.749999999999999112, 0.0000000000000000000, 39.70456852923798863 ) ) ;
#188 = AXIS2_PLACEMENT_3D ( 'NONE', #556, #137, #635 ) ;
#189 = ORIENTED_EDGE ( 'NONE', *, *, #32, .F. ) ;
#190 = ADVANCED_FACE ( 'NONE', ( #420 ), #756, .T. ) ;
#191 = SURFACE_STYLE_USAGE ( .BOTH. , #50 ) ;
#192 =( NAMED_UNIT ( * ) PLANE_ANGLE_UNIT ( ) SI_UNIT ( $, .RADIAN. ) );
#193 = SURFACE_SIDE_STYLE ('',( #1019 ) ) ;
#194 = CARTESIAN_POINT ( 'NONE',  ( 3.499999999999999556, 2.755455298081544778E-16, 37.70456852923798863 ) ) ;
#195 =( GEOMETRIC_REPRESENTATION_CONTEXT ( 3 ) GLOBAL_UNCERTAINTY_ASSIGNED_CONTEXT ( ( #272 ) ) GLOBAL_UNIT_ASSIGNED_CONTEXT ( ( #789, #369, #385 ) ) REPRESENTATION_CONTEXT ( 'NONE', 'WORKASPACE' ) );
#196 = MECHANICAL_DESIGN_GEOMETRIC_PRESENTATION_REPRESENTATION (  '', ( #82 ), #249 ) ;
#197 = ORIENTED_EDGE ( 'NONE', *, *, #98, .T. ) ;
#198 = SURFACE_STYLE_USAGE ( .BOTH. , #1007 ) ;
#199 = ORIENTED_EDGE ( 'NONE', *, *, #286, .F. ) ;
#200 = ADVANCED_FACE ( 'NONE', ( #574 ), #157, .T. ) ;
#201 = SURFACE_STYLE_USAGE ( .BOTH. , #365 ) ;
#202 = CARTESIAN_POINT ( 'NONE',  ( 3.750000000000000000, 0.1680823655966258712, 39.37265089483462077 ) ) ;
#203 = ORIENTED_EDGE ( 'NONE', *, *, #120, .T. ) ;
#204 = CARTESIAN_POINT ( 'NONE',  ( 1.249999999999999778, 0.0000000000000000000, 44.20456852923798863 ) ) ;
#205 = ORIENTED_EDGE ( 'NONE', *, *, #774, .F. ) ;
#206 = DIRECTION ( 'NONE',  ( -0.0000000000000000000, -0.0000000000000000000, 1.000000000000000000 ) ) ;
#207 = CARTESIAN_POINT ( 'NONE',  ( 0.0000000000000000000, 0.0000000000000000000, 47.20456852923798863 ) ) ;
#208 = ADVANCED_FACE ( 'NONE', ( #656, #241 ), #977, .F. ) ;
#209 = ORIENTED_EDGE ( 'NONE', *, *, #111, .F. ) ;
#210 = CIRCLE ( 'NONE', #515, 2.499999999999998668 ) ;
#211 = STYLED_ITEM ( 'NONE', ( #161 ), #190 ) ;
#212 = DIRECTION ( 'NONE',  ( -0.0000000000000000000, -0.0000000000000000000, 1.000000000000000000 ) ) ;
#213 = DIRECTION ( 'NONE',  ( -0.0000000000000000000, -0.0000000000000000000, -1.000000000000000000 ) ) ;
#214 = CARTESIAN_POINT ( 'NONE',  ( 3.749999999999999556, -1.836970198721033385E-16, 39.20456852923798863 ) ) ;
#215 = CYLINDRICAL_SURFACE ( 'NONE', #609, 0.2999999999999999889 ) ;
#216 = DIRECTION ( 'NONE',  ( 1.000000000000000000, 0.0000000000000000000, 0.0000000000000000000 ) ) ;
#217 = DIRECTION ( 'NONE',  ( 1.000000000000000000, 0.0000000000000000000, 0.0000000000000000000 ) ) ;
#218 = DIRECTION ( 'NONE',  ( -0.0000000000000000000, -0.0000000000000000000, 1.000000000000000000 ) ) ;
#219 = CIRCLE ( 'NONE', #882, 0.2999999999999999889 ) ;
#220 = FACE_OUTER_BOUND ( 'NONE', #703, .T. ) ;
#221 = DIRECTION ( 'NONE',  ( -1.000000000000000000, 0.0000000000000000000, 0.0000000000000000000 ) ) ;
#222 = CARTESIAN_POINT ( 'NONE',  ( -1.199489742783177437, 0.4999999999999992784, 43.70456852923798863 ) ) ;
#223 = PRODUCT_DEFINITION_CONTEXT ( 'detailed design', #915, 'design' ) ;
#224 = FACE_OUTER_BOUND ( 'NONE', #96, .T. ) ;
#225 = CIRCLE ( 'NONE', #836, 0.2999999999999999889 ) ;
#226 = CARTESIAN_POINT ( 'NONE',  ( -1.750000000000000222, 3.673940397442059868E-16, 44.20456852923798863 ) ) ;
#227 = ADVANCED_FACE ( 'NONE', ( #950 ), #855, .T. ) ;
#228 = SURFACE_STYLE_USAGE ( .BOTH. , #134 ) ;
#229 = VERTEX_POINT ( 'NONE', #615 ) ;
#230 = DIRECTION ( 'NONE',  ( -0.0000000000000000000, -0.0000000000000000000, 1.000000000000000000 ) ) ;
#231 = STYLED_ITEM ( 'NONE', ( #963 ), #400 ) ;
#232 = CARTESIAN_POINT ( 'NONE',  ( -1.199489742783177437, 0.5000000000000000000, 45.70456852923798863 ) ) ;
#233 = MECHANICAL_DESIGN_GEOMETRIC_PRESENTATION_REPRESENTATION (  '', ( #95 ), #899 ) ;
#234 = FACE_OUTER_BOUND ( 'NONE', #769, .T. ) ;
#235 = ORIENTED_EDGE ( 'NONE', *, *, #760, .T. ) ;
#236 = EDGE_CURVE ( 'NONE', #351, #846, #720, .T. ) ;
#237 = CARTESIAN_POINT ( 'NONE',  ( 3.699489742783177437, -0.5000000000000009992, 45.70456852923798863 ) ) ;
#238 = CIRCLE ( 'NONE', #863, 0.7071067811865480168 ) ;
#239 = AXIS2_PLACEMENT_3D ( 'NONE', #512, #52, #287 ) ;
#240 = ORIENTED_EDGE ( 'NONE', *, *, #32, .T. ) ;
#241 = FACE_OUTER_BOUND ( 'NONE', #117, .T. ) ;
#242 = FILL_AREA_STYLE ('',( #966 ) ) ;
#243 = STYLED_ITEM ( 'NONE', ( #456 ), #208 ) ;
#244 = ORIENTED_EDGE ( 'NONE', *, *, #964, .F. ) ;
#245 =( LENGTH_UNIT ( ) NAMED_UNIT ( * ) SI_UNIT ( .MILLI., .METRE. ) );
#246 = SURFACE_STYLE_FILL_AREA ( #586 ) ;
#247 = AXIS2_PLACEMENT_3D ( 'NONE', #145, #213, #221 ) ;
#248 = COLOUR_RGB ( '',0.0000000000000000000, 0.0000000000000000000, 1.000000000000000000 ) ;
#249 =( GEOMETRIC_REPRESENTATION_CONTEXT ( 3 ) GLOBAL_UNCERTAINTY_ASSIGNED_CONTEXT ( ( #158 ) ) GLOBAL_UNIT_ASSIGNED_CONTEXT ( ( #364, #192, #869 ) ) REPRESENTATION_CONTEXT ( 'NONE', 'WORKASPACE' ) );
#250 = VERTEX_POINT ( 'NONE', #698 ) ;
#251 = FILL_AREA_STYLE ('',( #569 ) ) ;
#252 =( LENGTH_UNIT ( ) NAMED_UNIT ( * ) SI_UNIT ( .MILLI., .METRE. ) );
#253 = ORIENTED_EDGE ( 'NONE', *, *, #454, .T. ) ;
#254 = VECTOR ( 'NONE', #624, 1000.000000000000000 ) ;
#255 = EDGE_CURVE ( 'NONE', #179, #568, #119, .T. ) ;
#256 = EDGE_LOOP ( 'NONE', ( #89, #909, #683, #1003 ) ) ;
#257 = COLOUR_RGB ( '',0.2509803921568627416, 0.2509803921568627416, 0.2509803921568627416 ) ;
#258 = DIRECTION ( 'NONE',  ( -0.0000000000000000000, -0.0000000000000000000, 1.000000000000000000 ) ) ;
#259 = ORIENTED_EDGE ( 'NONE', *, *, #828, .F. ) ;
#260 =( NAMED_UNIT ( * ) PLANE_ANGLE_UNIT ( ) SI_UNIT ( $, .RADIAN. ) );
#261 = ORIENTED_EDGE ( 'NONE', *, *, #389, .F. ) ;
#262 = SURFACE_SIDE_STYLE ('',( #671 ) ) ;
#263 = ADVANCED_FACE ( 'NONE', ( #437 ), #523, .T. ) ;
#264 = CIRCLE ( 'NONE', #423, 2.250000000000000000 ) ;
#265 = CARTESIAN_POINT ( 'NONE',  ( 1.249999999999999778, 0.0000000000000000000, 44.20456852923798863 ) ) ;
#266 = APPLICATION_CONTEXT ( 'automotive_design' ) ;
#267 = ORIENTED_EDGE ( 'NONE', *, *, #370, .F. ) ;
#268 = MECHANICAL_DESIGN_GEOMETRIC_PRESENTATION_REPRESENTATION (  '', ( #628 ), #790 ) ;
#269 =( NAMED_UNIT ( * ) PLANE_ANGLE_UNIT ( ) SI_UNIT ( $, .RADIAN. ) );
#270 = DIRECTION ( 'NONE',  ( 0.0000000000000000000, -0.0000000000000000000, 1.000000000000000000 ) ) ;
#271 = AXIS2_PLACEMENT_3D ( 'NONE', #390, #728, #973 ) ;
#272 = UNCERTAINTY_MEASURE_WITH_UNIT (LENGTH_MEASURE( 1.000000000000000082E-05 ), #789, 'distance_accuracy_value', 'NONE');
#273 = DIRECTION ( 'NONE',  ( -0.0000000000000000000, -0.0000000000000000000, 1.000000000000000000 ) ) ;
#274 =( BOUNDED_CURVE ( )  B_SPLINE_CURVE ( 3, ( #64, #283, #610, #931 ),
 .UNSPECIFIED., .F., .F. ) 
 B_SPLINE_CURVE_WITH_KNOTS ( ( 4, 4 ),
 ( 1.369438406004565900, 1.570796326794896558 ),
 .UNSPECIFIED. ) 
 CURVE ( )  GEOMETRIC_REPRESENTATION_ITEM ( )  RATIONAL_B_SPLINE_CURVE ( ( 1.000000000000000000, 0.9966241020034161124, 0.9966241020034161124, 1.000000000000000000 ) ) 
 REPRESENTATION_ITEM ( '' )  );
#275 =( NAMED_UNIT ( * ) SI_UNIT ( $, .STERADIAN. ) SOLID_ANGLE_UNIT ( ) );
#276 = CIRCLE ( 'NONE', #881, 2.499999999999998668 ) ;
#277 = TOROIDAL_SURFACE ( 'NONE', #417, 3.000000000000000000, 0.7071067811865482389 ) ;
#278 = CARTESIAN_POINT ( 'NONE',  ( 1.250000000000000000, 0.0000000000000000000, 37.70456852923798863 ) ) ;
#279 = ORIENTED_EDGE ( 'NONE', *, *, #935, .T. ) ;
#280 = DIRECTION ( 'NONE',  ( -0.0000000000000000000, -0.0000000000000000000, -1.000000000000000000 ) ) ;
#281 = DIRECTION ( 'NONE',  ( 1.000000000000000000, 0.0000000000000000000, 0.0000000000000000000 ) ) ;
#282 = DIRECTION ( 'NONE',  ( -0.0000000000000000000, -0.0000000000000000000, -1.000000000000000000 ) ) ;
#283 = CARTESIAN_POINT ( 'NONE',  ( -1.233106215902503466, 0.3353135878113331358, 40.03988211704932354 ) ) ;
#284 = DIRECTION ( 'NONE',  ( 1.224646799147353207E-16, 1.000000000000000000, 0.0000000000000000000 ) ) ;
#285 = ORIENTED_EDGE ( 'NONE', *, *, #370, .T. ) ;
#286 = EDGE_CURVE ( 'NONE', #1017, #788, #185, .T. ) ;
#287 = DIRECTION ( 'NONE',  ( 1.000000000000000000, 0.0000000000000000000, 0.0000000000000000000 ) ) ;
#288 = CARTESIAN_POINT ( 'NONE',  ( 1.250000000000000000, 0.0000000000000000000, 43.70456852923798863 ) ) ;
#289 = COLOUR_RGB ( '',0.0000000000000000000, 0.0000000000000000000, 1.000000000000000000 ) ;
#290 = EDGE_LOOP ( 'NONE', ( #986, #240, #405, #1006, #949, #209 ) ) ;
#291 = FILL_AREA_STYLE_COLOUR ( '', #970 ) ;
#292 = VERTEX_POINT ( 'NONE', #359 ) ;
#293 = AXIS2_PLACEMENT_3D ( 'NONE', #747, #339, #42 ) ;
#294 = ORIENTED_EDGE ( 'NONE', *, *, #746, .T. ) ;
#295 = DIRECTION ( 'NONE',  ( -0.0000000000000000000, -0.0000000000000000000, 1.000000000000000000 ) ) ;
#296 = SURFACE_STYLE_USAGE ( .BOTH. , #476 ) ;
#297 = SURFACE_STYLE_FILL_AREA ( #1033 ) ;
#298 = PRESENTATION_STYLE_ASSIGNMENT (( #201 ) ) ;
#299 = EDGE_CURVE ( 'NONE', #105, #832, #576, .T. ) ;
#300 = CARTESIAN_POINT ( 'NONE',  ( -0.2999999999999999889, 0.0000000000000000000, 47.20456852923798863 ) ) ;
#301 = EDGE_LOOP ( 'NONE', ( #753, #36, #903, #665 ) ) ;
#302 = CYLINDRICAL_SURFACE ( 'NONE', #632, 0.2999999999999999334 ) ;
#303 = COLOUR_RGB ( '',0.2509803921568627416, 0.2509803921568627416, 0.2509803921568627416 ) ;
#304 = CARTESIAN_POINT ( 'NONE',  ( -1.199489742783176993, -0.5000000000000008882, 43.70456852923798863 ) ) ;
#305 = DIRECTION ( 'NONE',  ( 0.0000000000000000000, 0.0000000000000000000, 1.000000000000000000 ) ) ;
#306 = CARTESIAN_POINT ( 'NONE',  ( 1.249999999999999778, 0.0000000000000000000, 44.20456852923798863 ) ) ;
#307 =( GEOMETRIC_REPRESENTATION_CONTEXT ( 3 ) GLOBAL_UNCERTAINTY_ASSIGNED_CONTEXT ( ( #637 ) ) GLOBAL_UNIT_ASSIGNED_CONTEXT ( ( #754, #260, #750 ) ) REPRESENTATION_CONTEXT ( 'NONE', 'WORKASPACE' ) );
#308 = ADVANCED_FACE ( 'NONE', ( #692 ), #1011, .F. ) ;
#309 = DIRECTION ( 'NONE',  ( -0.0000000000000000000, -0.0000000000000000000, 1.000000000000000000 ) ) ;
#310 = AXIS2_PLACEMENT_3D ( 'NONE', #511, #206, #431 ) ;
#311 = VECTOR ( 'NONE', #282, 1000.000000000000000 ) ;
#312 = SURFACE_STYLE_FILL_AREA ( #133 ) ;
#313 = LINE ( 'NONE', #404, #566 ) ;
#314 = MANIFOLD_SOLID_BREP ( 'Cut-Extrude1', #999 ) ;
#315 = CARTESIAN_POINT ( 'NONE',  ( 1.250000000000000000, 0.0000000000000000000, 45.70456852923798863 ) ) ;
#316 = AXIS2_PLACEMENT_3D ( 'NONE', #860, #324, #90 ) ;
#317 = PLANE ( 'NONE',  #539 ) ;
#318 = CARTESIAN_POINT ( 'NONE',  ( -0.9999999999999997780, 0.0000000000000000000, 38.00456852923798579 ) ) ;
#319 = UNCERTAINTY_MEASURE_WITH_UNIT (LENGTH_MEASURE( 1.000000000000000082E-05 ), #395, 'distance_accuracy_value', 'NONE');
#320 = LINE ( 'NONE', #9, #876 ) ;
#321 = DIRECTION ( 'NONE',  ( 1.000000000000000000, 0.0000000000000000000, 0.0000000000000000000 ) ) ;
#322 = DIRECTION ( 'NONE',  ( -0.0000000000000000000, -0.0000000000000000000, 1.000000000000000000 ) ) ;
#323 = ORIENTED_EDGE ( 'NONE', *, *, #286, .T. ) ;
#324 = DIRECTION ( 'NONE',  ( -0.0000000000000000000, -0.0000000000000000000, 1.000000000000000000 ) ) ;
#325 = FACE_OUTER_BOUND ( 'NONE', #529, .T. ) ;
#326 = PRODUCT_DEFINITION_FORMATION_WITH_SPECIFIED_SOURCE ( 'ANY', '', #1002, .NOT_KNOWN. ) ;
#327 = MECHANICAL_DESIGN_GEOMETRIC_PRESENTATION_REPRESENTATION (  '', ( #159 ), #195 ) ;
#328 = ORIENTED_EDGE ( 'NONE', *, *, #168, .T. ) ;
#329 = CARTESIAN_POINT ( 'NONE',  ( 3.749999999999999556, -1.836970198721033385E-16, 39.20456852923798863 ) ) ;
#330 = DIRECTION ( 'NONE',  ( 1.000000000000000000, 0.0000000000000000000, 0.0000000000000000000 ) ) ;
#331 = MECHANICAL_DESIGN_GEOMETRIC_PRESENTATION_REPRESENTATION (  '', ( #992 ), #39 ) ;
#332 = MECHANICAL_DESIGN_GEOMETRIC_PRESENTATION_REPRESENTATION (  '', ( #360 ), #743 ) ;
#333 = ORIENTED_EDGE ( 'NONE', *, *, #103, .T. ) ;
#334 = DIRECTION ( 'NONE',  ( -0.0000000000000000000, -0.0000000000000000000, 1.000000000000000000 ) ) ;
#335 = CIRCLE ( 'NONE', #188, 2.499999999999998668 ) ;
#336 = PRESENTATION_LAYER_ASSIGNMENT (  '', '', ( #749 ) ) ;
#337 = ORIENTED_EDGE ( 'NONE', *, *, #795, .F. ) ;
#338 = UNCERTAINTY_MEASURE_WITH_UNIT (LENGTH_MEASURE( 1.000000000000000082E-05 ), #592, 'distance_accuracy_value', 'NONE');
#339 = DIRECTION ( 'NONE',  ( 0.0000000000000000000, -1.000000000000000000, 0.0000000000000000000 ) ) ;
#340 = EDGE_CURVE ( 'NONE', #974, #410, #961, .T. ) ;
#341 =( GEOMETRIC_REPRESENTATION_CONTEXT ( 3 ) GLOBAL_UNCERTAINTY_ASSIGNED_CONTEXT ( ( #685 ) ) GLOBAL_UNIT_ASSIGNED_CONTEXT ( ( #623, #553, #636 ) ) REPRESENTATION_CONTEXT ( 'NONE', 'WORKASPACE' ) );
#342 = CIRCLE ( 'NONE', #943, 2.250000000000000000 ) ;
#343 = ORIENTED_EDGE ( 'NONE', *, *, #413, .F. ) ;
#344 = FILL_AREA_STYLE_COLOUR ( '', #303 ) ;
#345 = ADVANCED_FACE ( 'NONE', ( #613 ), #302, .T. ) ;
#346 = COLOUR_RGB ( '',0.0000000000000000000, 0.0000000000000000000, 1.000000000000000000 ) ;
#347 = SURFACE_STYLE_USAGE ( .BOTH. , #908 ) ;
#348 = ORIENTED_EDGE ( 'NONE', *, *, #634, .F. ) ;
#349 = DIRECTION ( 'NONE',  ( -0.0000000000000000000, -0.0000000000000000000, 1.000000000000000000 ) ) ;
#350 =( NAMED_UNIT ( * ) SI_UNIT ( $, .STERADIAN. ) SOLID_ANGLE_UNIT ( ) );
#351 = VERTEX_POINT ( 'NONE', #942 ) ;
#352 =( LENGTH_UNIT ( ) NAMED_UNIT ( * ) SI_UNIT ( .MILLI., .METRE. ) );
#353 = CARTESIAN_POINT ( 'NONE',  ( -1.233106215902502578, -0.3353135878113340240, 39.53988211704932354 ) ) ;
#354 = ORIENTED_EDGE ( 'NONE', *, *, #696, .F. ) ;
#355 = CARTESIAN_POINT ( 'NONE',  ( 1.249999999999999778, 0.0000000000000000000, 44.20456852923798863 ) ) ;
#356 = VECTOR ( 'NONE', #309, 1000.000000000000000 ) ;
#357 = SURFACE_STYLE_FILL_AREA ( #54 ) ;
#358 = VERTEX_POINT ( 'NONE', #627 ) ;
#359 = CARTESIAN_POINT ( 'NONE',  ( -1.199489742783178325, 0.5000000000000001110, 37.70456852923798863 ) ) ;
#360 = STYLED_ITEM ( 'NONE', ( #525 ), #918 ) ;
#361 = CARTESIAN_POINT ( 'NONE',  ( -1.750000000000000222, 3.673940397442059868E-16, 44.20456852923798863 ) ) ;
#362 = EDGE_CURVE ( 'NONE', #783, #929, #176, .T. ) ;
#363 =( NAMED_UNIT ( * ) SI_UNIT ( $, .STERADIAN. ) SOLID_ANGLE_UNIT ( ) );
#364 =( LENGTH_UNIT ( ) NAMED_UNIT ( * ) SI_UNIT ( .MILLI., .METRE. ) );
#365 = SURFACE_SIDE_STYLE ('',( #1026 ) ) ;
#366 = DIRECTION ( 'NONE',  ( -1.000000000000000000, 0.0000000000000000000, 0.0000000000000000000 ) ) ;
#367 = AXIS2_PLACEMENT_3D ( 'NONE', #886, #212, #321 ) ;
#368 = ORIENTED_EDGE ( 'NONE', *, *, #935, .F. ) ;
#369 =( NAMED_UNIT ( * ) PLANE_ANGLE_UNIT ( ) SI_UNIT ( $, .RADIAN. ) );
#370 = EDGE_CURVE ( 'NONE', #691, #1021, #342, .T. ) ;
#371 = ADVANCED_FACE ( 'NONE', ( #378 ), #124, .T. ) ;
#372 = ORIENTED_EDGE ( 'NONE', *, *, #454, .F. ) ;
#373 = SURFACE_SIDE_STYLE ('',( #488 ) ) ;
#374 = DIRECTION ( 'NONE',  ( -0.0000000000000000000, -0.0000000000000000000, 1.000000000000000000 ) ) ;
#375 = CARTESIAN_POINT ( 'NONE',  ( 3.750000000000000000, 0.0000000000000000000, 45.70456852923798863 ) ) ;
#376 = PRESENTATION_LAYER_ASSIGNMENT (  '', '', ( #771 ) ) ;
#377 = VERTEX_POINT ( 'NONE', #620 ) ;
#378 = FACE_OUTER_BOUND ( 'NONE', #937, .T. ) ;
#379 = ADVANCED_FACE ( 'NONE', ( #955 ), #215, .T. ) ;
#380 = FACE_BOUND ( 'NONE', #872, .T. ) ;
#381 = SURFACE_STYLE_USAGE ( .BOTH. , #622 ) ;
#382 = DIRECTION ( 'NONE',  ( -0.0000000000000000000, -0.0000000000000000000, 1.000000000000000000 ) ) ;
#383 = CARTESIAN_POINT ( 'NONE',  ( 2.799999999999999822, 3.673940397442061963E-17, 47.20456852923798863 ) ) ;
#384 = ORIENTED_EDGE ( 'NONE', *, *, #26, .F. ) ;
#385 =( NAMED_UNIT ( * ) SI_UNIT ( $, .STERADIAN. ) SOLID_ANGLE_UNIT ( ) );
#386 = DIRECTION ( 'NONE',  ( 1.000000000000000000, 0.0000000000000000000, 0.0000000000000000000 ) ) ;
#387 = DIRECTION ( 'NONE',  ( 0.0000000000000000000, 0.0000000000000000000, 1.000000000000000000 ) ) ;
#388 = LINE ( 'NONE', #5, #444 ) ;
#389 = EDGE_CURVE ( 'NONE', #670, #578, #1023, .T. ) ;
#390 = CARTESIAN_POINT ( 'NONE',  ( 0.0000000000000000000, 0.0000000000000000000, 47.20456852923798863 ) ) ;
#391 =( GEOMETRIC_REPRESENTATION_CONTEXT ( 3 ) GLOBAL_UNCERTAINTY_ASSIGNED_CONTEXT ( ( #8 ) ) GLOBAL_UNIT_ASSIGNED_CONTEXT ( ( #175, #833, #508 ) ) REPRESENTATION_CONTEXT ( 'NONE', 'WORKASPACE' ) );
#392 = FILL_AREA_STYLE_COLOUR ( '', #852 ) ;
#393 = DIRECTION ( 'NONE',  ( -1.000000000000000000, 0.0000000000000000000, 0.0000000000000000000 ) ) ;
#394 = EDGE_CURVE ( 'NONE', #351, #837, #734, .T. ) ;
#395 =( LENGTH_UNIT ( ) NAMED_UNIT ( * ) SI_UNIT ( .MILLI., .METRE. ) );
#396 = DIRECTION ( 'NONE',  ( 1.000000000000000000, 0.0000000000000000000, 0.0000000000000000000 ) ) ;
#397 = DIRECTION ( 'NONE',  ( 0.0000000000000000000, 0.0000000000000000000, -1.000000000000000000 ) ) ;
#398 = FILL_AREA_STYLE ('',( #149 ) ) ;
#399 = STYLED_ITEM ( 'NONE', ( #493 ), #551 ) ;
#400 = ADVANCED_FACE ( 'NONE', ( #411 ), #738, .T. ) ;
#401 = TOROIDAL_SURFACE ( 'NONE', #778, 3.000000000000000000, 0.7071067811865482389 ) ;
#402 = ADVANCED_BREP_SHAPE_REPRESENTATION ( '90788115-A04C-4202-95F9-BF4FE7D970CC', ( #314, #490 ), #307 ) ;
#403 = FACE_BOUND ( 'NONE', #980, .T. ) ;
#404 = CARTESIAN_POINT ( 'NONE',  ( -1.199489742783177437, -0.5000000000000009992, 45.70456852923798863 ) ) ;
#405 = ORIENTED_EDGE ( 'NONE', *, *, #640, .T. ) ;
#406 =( NAMED_UNIT ( * ) SI_UNIT ( $, .STERADIAN. ) SOLID_ANGLE_UNIT ( ) );
#407 =( LENGTH_UNIT ( ) NAMED_UNIT ( * ) SI_UNIT ( .MILLI., .METRE. ) );
#408 = AXIS2_PLACEMENT_3D ( 'NONE', #854, #115, #281 ) ;
#409 = ADVANCED_FACE ( 'NONE', ( #224 ), #81, .T. ) ;
#410 = VERTEX_POINT ( 'NONE', #657 ) ;
#411 = FACE_OUTER_BOUND ( 'NONE', #614, .T. ) ;
#412 = AXIS2_PLACEMENT_3D ( 'NONE', #23, #140, #330 ) ;
#413 = EDGE_CURVE ( 'NONE', #442, #974, #651, .T. ) ;
#414 = ORIENTED_EDGE ( 'NONE', *, *, #583, .F. ) ;
#415 = CARTESIAN_POINT ( 'NONE',  ( 1.250000000000000000, 0.0000000000000000000, 37.70456852923798863 ) ) ;
#416 = VECTOR ( 'NONE', #611, 1000.000000000000000 ) ;
#417 = AXIS2_PLACEMENT_3D ( 'NONE', #699, #813, #217 ) ;
#418 = ORIENTED_EDGE ( 'NONE', *, *, #255, .F. ) ;
#419 = EDGE_CURVE ( 'NONE', #527, #788, #49, .T. ) ;
#420 = FACE_OUTER_BOUND ( 'NONE', #301, .T. ) ;
#421 = COLOUR_RGB ( '',0.0000000000000000000, 0.0000000000000000000, 1.000000000000000000 ) ;
#422 = CARTESIAN_POINT ( 'NONE',  ( -0.2999999999999999889, 0.0000000000000000000, 45.70456852923798863 ) ) ;
#423 = AXIS2_PLACEMENT_3D ( 'NONE', #719, #15, #730 ) ;
#424 = EDGE_LOOP ( 'NONE', ( #197, #925 ) ) ;
#425 = ORIENTED_EDGE ( 'NONE', *, *, #715, .F. ) ;
#426 = FILL_AREA_STYLE ('',( #917 ) ) ;
#427 = AXIS2_PLACEMENT_3D ( 'NONE', #1035, #787, #706 ) ;
#428 = FACE_OUTER_BOUND ( 'NONE', #608, .T. ) ;
#429 = STYLED_ITEM ( 'NONE', ( #91 ), #989 ) ;
#430 = ORIENTED_EDGE ( 'NONE', *, *, #236, .F. ) ;
#431 = DIRECTION ( 'NONE',  ( 1.000000000000000000, 0.0000000000000000000, 0.0000000000000000000 ) ) ;
#432 = CARTESIAN_POINT ( 'NONE',  ( 3.749999999999999112, 0.0000000000000000000, 43.70456852923798863 ) ) ;
#433 = CIRCLE ( 'NONE', #804, 2.499999999999999556 ) ;
#434 = CARTESIAN_POINT ( 'NONE',  ( -1.250000000000000000, 0.1680823655966252606, 39.37265089483462077 ) ) ;
#435 = VECTOR ( 'NONE', #1001, 1000.000000000000000 ) ;
#436 = CARTESIAN_POINT ( 'NONE',  ( 3.699489742783177437, 0.5000000000000000000, 45.70456852923798863 ) ) ;
#437 = FACE_OUTER_BOUND ( 'NONE', #41, .T. ) ;
#438 = ADVANCED_FACE ( 'NONE', ( #325 ), #722, .T. ) ;
#439 = DIRECTION ( 'NONE',  ( -0.0000000000000000000, -0.0000000000000000000, 1.000000000000000000 ) ) ;
#440 = ORIENTED_EDGE ( 'NONE', *, *, #594, .T. ) ;
#441 = UNCERTAINTY_MEASURE_WITH_UNIT (LENGTH_MEASURE( 1.000000000000000082E-05 ), #186, 'distance_accuracy_value', 'NONE');
#442 = VERTEX_POINT ( 'NONE', #154 ) ;
#443 = CARTESIAN_POINT ( 'NONE',  ( 0.2999999999999999889, 3.673940397442058882E-17, 47.20456852923798863 ) ) ;
#444 = VECTOR ( 'NONE', #650, 1000.000000000000000 ) ;
#445 =( NAMED_UNIT ( * ) PLANE_ANGLE_UNIT ( ) SI_UNIT ( $, .RADIAN. ) );
#446 = VECTOR ( 'NONE', #397, 1000.000000000000000 ) ;
#447 = ORIENTED_EDGE ( 'NONE', *, *, #514, .F. ) ;
#448 = PRESENTATION_STYLE_ASSIGNMENT (( #198 ) ) ;
#449 = EDGE_LOOP ( 'NONE', ( #199, #63, #328, #912 ) ) ;
#450 =( NAMED_UNIT ( * ) PLANE_ANGLE_UNIT ( ) SI_UNIT ( $, .RADIAN. ) );
#451 = CARTESIAN_POINT ( 'NONE',  ( 3.699489742783177437, 0.4999999999999993339, 43.70456852923798863 ) ) ;
#452 = CIRCLE ( 'NONE', #998, 0.7071067811865480168 ) ;
#453 = ORIENTED_EDGE ( 'NONE', *, *, #1024, .T. ) ;
#454 = EDGE_CURVE ( 'NONE', #410, #503, #470, .T. ) ;
#455 = CARTESIAN_POINT ( 'NONE',  ( 2.799999999999999822, 3.673940397442061963E-17, 45.70456852923798863 ) ) ;
#456 = PRESENTATION_STYLE_ASSIGNMENT (( #766 ) ) ;
#457 = FILL_AREA_STYLE_COLOUR ( '', #257 ) ;
#458 = DIRECTION ( 'NONE',  ( 1.000000000000000000, 0.0000000000000000000, 0.0000000000000000000 ) ) ;
#459 = AXIS2_PLACEMENT_3D ( 'NONE', #315, #811, #896 ) ;
#460 = ORIENTED_EDGE ( 'NONE', *, *, #61, .F. ) ;
#461 =( LENGTH_UNIT ( ) NAMED_UNIT ( * ) SI_UNIT ( .MILLI., .METRE. ) );
#462 = DIRECTION ( 'NONE',  ( -0.0000000000000000000, -0.0000000000000000000, 1.000000000000000000 ) ) ;
#463 = FILL_AREA_STYLE_COLOUR ( '', #581 ) ;
#464 = AXIS2_PLACEMENT_3D ( 'NONE', #116, #439, #775 ) ;
#465 = DIRECTION ( 'NONE',  ( 1.000000000000000000, 0.0000000000000000000, 0.0000000000000000000 ) ) ;
#466 = CIRCLE ( 'NONE', #29, 0.2999999999999999334 ) ;
#467 = LINE ( 'NONE', #232, #76 ) ;
#468 = DIRECTION ( 'NONE',  ( -0.0000000000000000000, -0.0000000000000000000, 1.000000000000000000 ) ) ;
#469 = CARTESIAN_POINT ( 'NONE',  ( -1.249999999999999556, 3.061616997868382648E-16, 45.70456852923798863 ) ) ;
#470 = LINE ( 'NONE', #484, #356 ) ;
#471 = MECHANICAL_DESIGN_GEOMETRIC_PRESENTATION_REPRESENTATION (  '', ( #763 ), #956 ) ;
#472 = VECTOR ( 'NONE', #997, 1000.000000000000000 ) ;
#473 = CARTESIAN_POINT ( 'NONE',  ( 2.500000000000000000, 0.0000000000000000000, 47.20456852923798863 ) ) ;
#474 = DIRECTION ( 'NONE',  ( -1.000000000000000000, 0.0000000000000000000, 0.0000000000000000000 ) ) ;
#475 = PRESENTATION_LAYER_ASSIGNMENT (  '', '', ( #95 ) ) ;
#476 = SURFACE_SIDE_STYLE ('',( #312 ) ) ;
#477 = CARTESIAN_POINT ( 'NONE',  ( 0.2999999999999999889, 3.673940397442058882E-17, 47.20456852923798863 ) ) ;
#478 = ORIENTED_EDGE ( 'NONE', *, *, #178, .F. ) ;
#479 = LINE ( 'NONE', #469, #125 ) ;
#480 = DIRECTION ( 'NONE',  ( 0.0000000000000000000, 0.0000000000000000000, -1.000000000000000000 ) ) ;
#481 = FILL_AREA_STYLE ('',( #714 ) ) ;
#482 = VERTEX_POINT ( 'NONE', #805 ) ;
#483 = DIRECTION ( 'NONE',  ( -0.0000000000000000000, -0.0000000000000000000, 1.000000000000000000 ) ) ;
#484 = CARTESIAN_POINT ( 'NONE',  ( 3.750000000000000000, 0.0000000000000000000, 45.70456852923798863 ) ) ;
#485 = EDGE_CURVE ( 'NONE', #654, #832, #320, .T. ) ;
#486 = AXIS2_PLACEMENT_3D ( 'NONE', #180, #270, #593 ) ;
#487 = ORIENTED_EDGE ( 'NONE', *, *, #178, .T. ) ;
#488 = SURFACE_STYLE_FILL_AREA ( #251 ) ;
#489 = CARTESIAN_POINT ( 'NONE',  ( 3.699489742783177881, 0.5000000000000003331, 37.70456852923798863 ) ) ;
#490 = AXIS2_PLACEMENT_3D ( 'NONE', #567, #33, #902 ) ;
#491 = COLOUR_RGB ( '',0.0000000000000000000, 0.0000000000000000000, 1.000000000000000000 ) ;
#492 = ORIENTED_EDGE ( 'NONE', *, *, #340, .F. ) ;
#493 = PRESENTATION_STYLE_ASSIGNMENT (( #162 ) ) ;
#494 =( GEOMETRIC_REPRESENTATION_CONTEXT ( 3 ) GLOBAL_UNCERTAINTY_ASSIGNED_CONTEXT ( ( #848 ) ) GLOBAL_UNIT_ASSIGNED_CONTEXT ( ( #80, #643, #406 ) ) REPRESENTATION_CONTEXT ( 'NONE', 'WORKASPACE' ) );
#495 =( NAMED_UNIT ( * ) SI_UNIT ( $, .STERADIAN. ) SOLID_ANGLE_UNIT ( ) );
#496 = ORIENTED_EDGE ( 'NONE', *, *, #828, .T. ) ;
#497 = SURFACE_STYLE_USAGE ( .BOTH. , #262 ) ;
#498 = ADVANCED_FACE ( 'NONE', ( #817 ), #122, .F. ) ;
#499 = FACE_OUTER_BOUND ( 'NONE', #17, .T. ) ;
#500 = EDGE_LOOP ( 'NONE', ( #626, #864, #447, #244 ) ) ;
#501 = CIRCLE ( 'NONE', #62, 0.7071067811865450192 ) ;
#502 = APPLICATION_PROTOCOL_DEFINITION ( 'draft international standard', 'automotive_design', 1998, #915 ) ;
#503 = VERTEX_POINT ( 'NONE', #979 ) ;
#504 = DIRECTION ( 'NONE',  ( 1.000000000000000000, 0.0000000000000000000, 0.0000000000000000000 ) ) ;
#505 = VERTEX_POINT ( 'NONE', #489 ) ;
#506 = MECHANICAL_DESIGN_GEOMETRIC_PRESENTATION_REPRESENTATION (  '', ( #231 ), #652 ) ;
#507 = ORIENTED_EDGE ( 'NONE', *, *, #533, .T. ) ;
#508 =( NAMED_UNIT ( * ) SI_UNIT ( $, .STERADIAN. ) SOLID_ANGLE_UNIT ( ) );
#509 = CIRCLE ( 'NONE', #72, 2.499999999999999556 ) ;
#510 = CYLINDRICAL_SURFACE ( 'NONE', #408, 2.499999999999999556 ) ;
#511 = CARTESIAN_POINT ( 'NONE',  ( 1.250000000000000000, 0.0000000000000000000, 43.70456852923798863 ) ) ;
#512 = CARTESIAN_POINT ( 'NONE',  ( 1.250000000000000000, 0.0000000000000000000, 45.70456852923798863 ) ) ;
#513 = DIRECTION ( 'NONE',  ( 1.000000000000000000, 0.0000000000000000000, 0.0000000000000000000 ) ) ;
#514 = EDGE_CURVE ( 'NONE', #377, #670, #86, .T. ) ;
#515 = AXIS2_PLACEMENT_3D ( 'NONE', #641, #462, #880 ) ;
#516 = ORIENTED_EDGE ( 'NONE', *, *, #183, .T. ) ;
#517 = DIRECTION ( 'NONE',  ( 1.000000000000000000, 0.0000000000000000000, 0.0000000000000000000 ) ) ;
#518 = DIRECTION ( 'NONE',  ( -1.000000000000000000, 0.0000000000000000000, 0.0000000000000000000 ) ) ;
#519 = AXIS2_PLACEMENT_3D ( 'NONE', #981, #762, #666 ) ;
#520 = CARTESIAN_POINT ( 'NONE',  ( 2.200000000000000178, 0.0000000000000000000, 47.20456852923798863 ) ) ;
#521 = VECTOR ( 'NONE', #468, 1000.000000000000000 ) ;
#522 = ORIENTED_EDGE ( 'NONE', *, *, #887, .F. ) ;
#523 = CYLINDRICAL_SURFACE ( 'NONE', #792, 2.499999999999999556 ) ;
#524 = ADVANCED_FACE ( 'NONE', ( #826 ), #914, .F. ) ;
#525 = PRESENTATION_STYLE_ASSIGNMENT (( #951 ) ) ;
#526 = AXIS2_PLACEMENT_3D ( 'NONE', #780, #273, #597 ) ;
#527 = VERTEX_POINT ( 'NONE', #422 ) ;
#528 = CARTESIAN_POINT ( 'NONE',  ( 1.250000000000000000, 0.0000000000000000000, 37.70456852923798863 ) ) ;
#529 = EDGE_LOOP ( 'NONE', ( #24, #536 ) ) ;
#530 = PRESENTATION_LAYER_ASSIGNMENT (  '', '', ( #724 ) ) ;
#531 = CYLINDRICAL_SURFACE ( 'NONE', #239, 2.499999999999999556 ) ;
#532 = AXIS2_PLACEMENT_3D ( 'NONE', #147, #563, #153 ) ;
#533 = EDGE_CURVE ( 'NONE', #229, #250, #663, .T. ) ;
#534 =( NAMED_UNIT ( * ) SI_UNIT ( $, .STERADIAN. ) SOLID_ANGLE_UNIT ( ) );
#535 = ORIENTED_EDGE ( 'NONE', *, *, #887, .T. ) ;
#536 = ORIENTED_EDGE ( 'NONE', *, *, #583, .T. ) ;
#537 = SURFACE_SIDE_STYLE ('',( #945 ) ) ;
#538 = LINE ( 'NONE', #375, #254 ) ;
#539 = AXIS2_PLACEMENT_3D ( 'NONE', #77, #806, #11 ) ;
#540 = PRODUCT_DEFINITION ( 'UNKNOWN', '', #326, #223 ) ;
#541 = ORIENTED_EDGE ( 'NONE', *, *, #120, .F. ) ;
#542 = DIRECTION ( 'NONE',  ( 0.0000000000000000000, 0.0000000000000000000, -1.000000000000000000 ) ) ;
#543 = DIRECTION ( 'NONE',  ( 0.0000000000000000000, -1.000000000000000000, 0.0000000000000000000 ) ) ;
#544 = CARTESIAN_POINT ( 'NONE',  ( 3.699489742783177881, -0.5000000000000003331, 37.70456852923798863 ) ) ;
#545 = CARTESIAN_POINT ( 'NONE',  ( 1.250000000000000000, 0.0000000000000000000, 37.70456852923798863 ) ) ;
#546 = AXIS2_PLACEMENT_3D ( 'NONE', #1029, #2, #606 ) ;
#547 = DIRECTION ( 'NONE',  ( -0.0000000000000000000, -0.0000000000000000000, -1.000000000000000000 ) ) ;
#548 = CARTESIAN_POINT ( 'NONE',  ( 0.2999999999999999889, 3.673940397442058882E-17, 45.70456852923798863 ) ) ;
#549 =( GEOMETRIC_REPRESENTATION_CONTEXT ( 3 ) GLOBAL_UNCERTAINTY_ASSIGNED_CONTEXT ( ( #726 ) ) GLOBAL_UNIT_ASSIGNED_CONTEXT ( ( #617, #445, #939 ) ) REPRESENTATION_CONTEXT ( 'NONE', 'WORKASPACE' ) );
#550 =( NAMED_UNIT ( * ) PLANE_ANGLE_UNIT ( ) SI_UNIT ( $, .RADIAN. ) );
#551 = ADVANCED_FACE ( 'NONE', ( #499 ), #835, .T. ) ;
#552 = CARTESIAN_POINT ( 'NONE',  ( 0.0000000000000000000, 0.0000000000000000000, 47.20456852923798863 ) ) ;
#553 =( NAMED_UNIT ( * ) PLANE_ANGLE_UNIT ( ) SI_UNIT ( $, .RADIAN. ) );
#554 = CARTESIAN_POINT ( 'NONE',  ( 3.733106215902503244, -0.3353135878113329693, 39.53988211704932354 ) ) ;
#555 = SURFACE_STYLE_USAGE ( .BOTH. , #718 ) ;
#556 = CARTESIAN_POINT ( 'NONE',  ( 1.250000000000000000, 0.0000000000000000000, 43.70456852923798863 ) ) ;
#557 = CYLINDRICAL_SURFACE ( 'NONE', #247, 2.250000000000000000 ) ;
#558 = VERTEX_POINT ( 'NONE', #953 ) ;
#559 = CARTESIAN_POINT ( 'NONE',  ( 1.250000000000000000, 0.0000000000000000000, 37.70456852923798863 ) ) ;
#560 = EDGE_CURVE ( 'NONE', #482, #558, #150, .T. ) ;
#561 = CARTESIAN_POINT ( 'NONE',  ( 0.0000000000000000000, 0.0000000000000000000, 45.70456852923798863 ) ) ;
#562 = VERTEX_POINT ( 'NONE', #383 ) ;
#563 = DIRECTION ( 'NONE',  ( 0.0000000000000000000, 0.0000000000000000000, -1.000000000000000000 ) ) ;
#564 =( GEOMETRIC_REPRESENTATION_CONTEXT ( 3 ) GLOBAL_UNCERTAINTY_ASSIGNED_CONTEXT ( ( #928 ) ) GLOBAL_UNIT_ASSIGNED_CONTEXT ( ( #99, #993, #534 ) ) REPRESENTATION_CONTEXT ( 'NONE', 'WORKASPACE' ) );
#565 = PRESENTATION_LAYER_ASSIGNMENT (  '', '', ( #727 ) ) ;
#566 = VECTOR ( 'NONE', #322, 1000.000000000000000 ) ;
#567 = CARTESIAN_POINT ( 'NONE',  ( 0.0000000000000000000, 0.0000000000000000000, 0.0000000000000000000 ) ) ;
#568 = VERTEX_POINT ( 'NONE', #451 ) ;
#569 = FILL_AREA_STYLE_COLOUR ( '', #822 ) ;
#570 = SURFACE_STYLE_FILL_AREA ( #242 ) ;
#571 =( GEOMETRIC_REPRESENTATION_CONTEXT ( 3 ) GLOBAL_UNCERTAINTY_ASSIGNED_CONTEXT ( ( #717 ) ) GLOBAL_UNIT_ASSIGNED_CONTEXT ( ( #245, #830, #839 ) ) REPRESENTATION_CONTEXT ( 'NONE', 'WORKASPACE' ) );
#572 = FILL_AREA_STYLE ('',( #577 ) ) ;
#573 = ORIENTED_EDGE ( 'NONE', *, *, #362, .F. ) ;
#574 = FACE_OUTER_BOUND ( 'NONE', #163, .T. ) ;
#575 = SURFACE_SIDE_STYLE ('',( #580 ) ) ;
#576 = CIRCLE ( 'NONE', #526, 0.2999999999999999334 ) ;
#577 = FILL_AREA_STYLE_COLOUR ( '', #173 ) ;
#578 = VERTEX_POINT ( 'NONE', #127 ) ;
#579 = CARTESIAN_POINT ( 'NONE',  ( 3.699489742783176993, 0.4999999999999997780, 40.20456852923798863 ) ) ;
#580 = SURFACE_STYLE_FILL_AREA ( #845 ) ;
#581 = COLOUR_RGB ( '',0.0000000000000000000, 0.0000000000000000000, 1.000000000000000000 ) ;
#582 = CIRCLE ( 'NONE', #994, 2.499999999999999556 ) ;
#583 = EDGE_CURVE ( 'NONE', #1017, #605, #595, .T. ) ;
#584 = ORIENTED_EDGE ( 'NONE', *, *, #590, .T. ) ;
#585 = LINE ( 'NONE', #106, #472 ) ;
#586 = FILL_AREA_STYLE ('',( #741 ) ) ;
#587 = ORIENTED_EDGE ( 'NONE', *, *, #79, .T. ) ;
#588 = PRESENTATION_LAYER_ASSIGNMENT (  '', '', ( #763 ) ) ;
#589 = ORIENTED_EDGE ( 'NONE', *, *, #594, .F. ) ;
#590 = EDGE_CURVE ( 'NONE', #70, #846, #538, .T. ) ;
#591 = AXIS2_PLACEMENT_3D ( 'NONE', #561, #639, #474 ) ;
#592 =( LENGTH_UNIT ( ) NAMED_UNIT ( * ) SI_UNIT ( .MILLI., .METRE. ) );
#593 = DIRECTION ( 'NONE',  ( 1.000000000000000000, 0.0000000000000000000, 0.0000000000000000000 ) ) ;
#594 = EDGE_CURVE ( 'NONE', #250, #678, #885, .T. ) ;
#595 = CIRCLE ( 'NONE', #109, 0.2999999999999999889 ) ;
#596 = FILL_AREA_STYLE_COLOUR ( '', #43 ) ;
#597 = DIRECTION ( 'NONE',  ( -1.000000000000000000, 0.0000000000000000000, 0.0000000000000000000 ) ) ;
#598 = CARTESIAN_POINT ( 'NONE',  ( 3.699489742783176993, 0.4999999999999997780, 40.20456852923798863 ) ) ;
#599 = AXIS2_PLACEMENT_3D ( 'NONE', #78, #142, #396 ) ;
#600 = ORIENTED_EDGE ( 'NONE', *, *, #37, .T. ) ;
#601 = STYLED_ITEM ( 'NONE', ( #184 ), #19 ) ;
#602 = ORIENTED_EDGE ( 'NONE', *, *, #340, .T. ) ;
#603 = FILL_AREA_STYLE ('',( #57 ) ) ;
#604 = CARTESIAN_POINT ( 'NONE',  ( 3.733106215902503244, 0.3353135878113328583, 40.03988211704932354 ) ) ;
#605 = VERTEX_POINT ( 'NONE', #300 ) ;
#606 = DIRECTION ( 'NONE',  ( 1.000000000000000000, 0.0000000000000000000, 0.0000000000000000000 ) ) ;
#607 = ADVANCED_FACE ( 'NONE', ( #48 ), #871, .T. ) ;
#608 = EDGE_LOOP ( 'NONE', ( #776, #991, #785, #460 ) ) ;
#609 = AXIS2_PLACEMENT_3D ( 'NONE', #702, #547, #1022 ) ;
#610 = CARTESIAN_POINT ( 'NONE',  ( -1.250000000000000000, 0.1680823655966256769, 39.87265089483461367 ) ) ;
#611 = DIRECTION ( 'NONE',  ( -0.0000000000000000000, -0.0000000000000000000, 1.000000000000000000 ) ) ;
#612 = ORIENTED_EDGE ( 'NONE', *, *, #647, .F. ) ;
#613 = FACE_OUTER_BOUND ( 'NONE', #701, .T. ) ;
#614 = EDGE_LOOP ( 'NONE', ( #337, #996, #814, #516, #343, #259, #487, #707, #761, #156, #861, #573 ) ) ;
#615 = CARTESIAN_POINT ( 'NONE',  ( -1.199489742783177437, -0.5000000000000008882, 39.70456852923798863 ) ) ;
#616 = PRESENTATION_LAYER_ASSIGNMENT (  '', '', ( #399 ) ) ;
#617 =( LENGTH_UNIT ( ) NAMED_UNIT ( * ) SI_UNIT ( .MILLI., .METRE. ) );
#618 = DIRECTION ( 'NONE',  ( 0.0000000000000000000, 0.0000000000000000000, -1.000000000000000000 ) ) ;
#619 = ORIENTED_EDGE ( 'NONE', *, *, #709, .T. ) ;
#620 = CARTESIAN_POINT ( 'NONE',  ( 3.750000000000000000, 0.0000000000000000000, 44.70456852923798863 ) ) ;
#621 = DIRECTION ( 'NONE',  ( 0.0000000000000000000, 0.0000000000000000000, -1.000000000000000000 ) ) ;
#622 = SURFACE_SIDE_STYLE ('',( #297 ) ) ;
#623 =( LENGTH_UNIT ( ) NAMED_UNIT ( * ) SI_UNIT ( .MILLI., .METRE. ) );
#624 = DIRECTION ( 'NONE',  ( -0.0000000000000000000, -0.0000000000000000000, 1.000000000000000000 ) ) ;
#625 = COLOUR_RGB ( '',0.0000000000000000000, 0.0000000000000000000, 1.000000000000000000 ) ;
#626 = ORIENTED_EDGE ( 'NONE', *, *, #667, .T. ) ;
#627 = CARTESIAN_POINT ( 'NONE',  ( -1.249999999999999334, 3.061616997868382155E-16, 43.70456852923798863 ) ) ;
#628 = STYLED_ITEM ( 'NONE', ( #920 ), #402 ) ;
#629 = DIRECTION ( 'NONE',  ( -0.0000000000000000000, -0.0000000000000000000, -1.000000000000000000 ) ) ;
#630 = CARTESIAN_POINT ( 'NONE',  ( -0.9999999999999997780, 0.0000000000000000000, 37.70456852923798863 ) ) ;
#631 = LINE ( 'NONE', #318, #659 ) ;
#632 = AXIS2_PLACEMENT_3D ( 'NONE', #933, #280, #857 ) ;
#633 = SURFACE_STYLE_USAGE ( .BOTH. , #14 ) ;
#634 = EDGE_CURVE ( 'NONE', #1021, #691, #742, .T. ) ;
#635 = DIRECTION ( 'NONE',  ( 1.000000000000000000, 0.0000000000000000000, 0.0000000000000000000 ) ) ;
#636 =( NAMED_UNIT ( * ) SI_UNIT ( $, .STERADIAN. ) SOLID_ANGLE_UNIT ( ) );
#637 = UNCERTAINTY_MEASURE_WITH_UNIT (LENGTH_MEASURE( 1.000000000000000082E-05 ), #754, 'distance_accuracy_value', 'NONE');
#638 = CIRCLE ( 'NONE', #164, 2.499999999999998668 ) ;
#639 = DIRECTION ( 'NONE',  ( -0.0000000000000000000, -0.0000000000000000000, 1.000000000000000000 ) ) ;
#640 = EDGE_CURVE ( 'NONE', #358, #123, #276, .T. ) ;
#641 = CARTESIAN_POINT ( 'NONE',  ( 1.250000000000000000, 0.0000000000000000000, 43.70456852923798863 ) ) ;
#642 = CYLINDRICAL_SURFACE ( 'NONE', #901, 0.2999999999999999334 ) ;
#643 =( NAMED_UNIT ( * ) PLANE_ANGLE_UNIT ( ) SI_UNIT ( $, .RADIAN. ) );
#644 = DIRECTION ( 'NONE',  ( 0.0000000000000000000, 0.0000000000000000000, -1.000000000000000000 ) ) ;
#645 = PRESENTATION_LAYER_ASSIGNMENT (  '', '', ( #601 ) ) ;
#646 = CARTESIAN_POINT ( 'NONE',  ( -1.249999999999999556, 3.061616997868382648E-16, 44.70456852923798863 ) ) ;
#647 = EDGE_CURVE ( 'NONE', #70, #179, #770, .T. ) ;
#648 = CARTESIAN_POINT ( 'NONE',  ( 2.500000000000000000, 0.0000000000000000000, 47.20456852923798863 ) ) ;
#649 = ORIENTED_EDGE ( 'NONE', *, *, #729, .T. ) ;
#650 = DIRECTION ( 'NONE',  ( -0.0000000000000000000, -0.0000000000000000000, -1.000000000000000000 ) ) ;
#651 = LINE ( 'NONE', #18, #21 ) ;
#652 =( GEOMETRIC_REPRESENTATION_CONTEXT ( 3 ) GLOBAL_UNCERTAINTY_ASSIGNED_CONTEXT ( ( #45 ) ) GLOBAL_UNIT_ASSIGNED_CONTEXT ( ( #407, #550, #75 ) ) REPRESENTATION_CONTEXT ( 'NONE', 'WORKASPACE' ) );
#653 =( NAMED_UNIT ( * ) PLANE_ANGLE_UNIT ( ) SI_UNIT ( $, .RADIAN. ) );
#654 = VERTEX_POINT ( 'NONE', #520 ) ;
#655 = ADVANCED_FACE ( 'NONE', ( #121 ), #856, .T. ) ;
#656 = FACE_BOUND ( 'NONE', #160, .T. ) ;
#657 = CARTESIAN_POINT ( 'NONE',  ( 3.750000000000000000, 0.0000000000000000000, 37.70456852923798863 ) ) ;
#658 = MECHANICAL_DESIGN_GEOMETRIC_PRESENTATION_REPRESENTATION (  '', ( #399 ), #564 ) ;
#659 = VECTOR ( 'NONE', #84, 1000.000000000000000 ) ;
#660 = ORIENTED_EDGE ( 'NONE', *, *, #874, .F. ) ;
#661 = SURFACE_STYLE_USAGE ( .BOTH. , #824 ) ;
#662 = CARTESIAN_POINT ( 'NONE',  ( -1.249999999999999556, -0.1680823655966260932, 39.37265089483462788 ) ) ;
#663 =( BOUNDED_CURVE ( )  B_SPLINE_CURVE ( 3, ( #165, #353, #662, #982 ),
 .UNSPECIFIED., .F., .F. ) 
 B_SPLINE_CURVE_WITH_KNOTS ( ( 4, 4 ),
 ( 1.369438406004565456, 1.570796326794896558 ),
 .UNSPECIFIED. ) 
 CURVE ( )  GEOMETRIC_REPRESENTATION_ITEM ( )  RATIONAL_B_SPLINE_CURVE ( ( 1.000000000000000000, 0.9966241020034161124, 0.9966241020034161124, 1.000000000000000000 ) ) 
 REPRESENTATION_ITEM ( '' )  );
#664 =( GEOMETRIC_REPRESENTATION_CONTEXT ( 3 ) GLOBAL_UNCERTAINTY_ASSIGNED_CONTEXT ( ( #944 ) ) GLOBAL_UNIT_ASSIGNED_CONTEXT ( ( #352, #680, #705 ) ) REPRESENTATION_CONTEXT ( 'NONE', 'WORKASPACE' ) );
#665 = ORIENTED_EDGE ( 'NONE', *, *, #560, .F. ) ;
#666 = DIRECTION ( 'NONE',  ( 1.000000000000000000, 0.0000000000000000000, 0.0000000000000000000 ) ) ;
#667 = EDGE_CURVE ( 'NONE', #104, #578, #238, .T. ) ;
#668 = PRESENTATION_LAYER_ASSIGNMENT (  '', '', ( #82 ) ) ;
#669 = APPLICATION_PROTOCOL_DEFINITION ( 'draft international standard', 'automotive_design', 1998, #266 ) ;
#670 = VERTEX_POINT ( 'NONE', #1012 ) ;
#671 = SURFACE_STYLE_FILL_AREA ( #426 ) ;
#672 = MECHANICAL_DESIGN_GEOMETRIC_PRESENTATION_REPRESENTATION (  '', ( #724 ), #494 ) ;
#673 =( LENGTH_UNIT ( ) NAMED_UNIT ( * ) SI_UNIT ( .MILLI., .METRE. ) );
#674 = EDGE_LOOP ( 'NONE', ( #205, #587, #285, #128 ) ) ;
#675 = DIRECTION ( 'NONE',  ( -0.0000000000000000000, -0.0000000000000000000, -1.000000000000000000 ) ) ;
#676 =( BOUNDED_CURVE ( )  B_SPLINE_CURVE ( 3, ( #897, #807, #818, #151 ),
 .UNSPECIFIED., .F., .F. ) 
 B_SPLINE_CURVE_WITH_KNOTS ( ( 4, 4 ),
 ( 1.369438406004565678, 1.570796326794896558 ),
 .UNSPECIFIED. ) 
 CURVE ( )  GEOMETRIC_REPRESENTATION_ITEM ( )  RATIONAL_B_SPLINE_CURVE ( ( 1.000000000000000000, 0.9966241020034161124, 0.9966241020034161124, 1.000000000000000000 ) ) 
 REPRESENTATION_ITEM ( '' )  );
#677 = FILL_AREA_STYLE_COLOUR ( '', #346 ) ;
#678 = VERTEX_POINT ( 'NONE', #711 ) ;
#679 = ORIENTED_EDGE ( 'NONE', *, *, #485, .F. ) ;
#680 =( NAMED_UNIT ( * ) PLANE_ANGLE_UNIT ( ) SI_UNIT ( $, .RADIAN. ) );
#681 = EDGE_CURVE ( 'NONE', #104, #482, #1027, .T. ) ;
#682 =( NAMED_UNIT ( * ) PLANE_ANGLE_UNIT ( ) SI_UNIT ( $, .RADIAN. ) );
#683 = ORIENTED_EDGE ( 'NONE', *, *, #667, .F. ) ;
#684 = COLOUR_RGB ( '',0.0000000000000000000, 0.0000000000000000000, 1.000000000000000000 ) ;
#685 = UNCERTAINTY_MEASURE_WITH_UNIT (LENGTH_MEASURE( 1.000000000000000082E-05 ), #623, 'distance_accuracy_value', 'NONE');
#686 = CARTESIAN_POINT ( 'NONE',  ( 1.250000000000000000, 0.0000000000000000000, 45.70456852923798863 ) ) ;
#687 = DIRECTION ( 'NONE',  ( -0.0000000000000000000, -0.0000000000000000000, 1.000000000000000000 ) ) ;
#688 = DIRECTION ( 'NONE',  ( -0.0000000000000000000, -0.0000000000000000000, -1.000000000000000000 ) ) ;
#689 = DIRECTION ( 'NONE',  ( -0.0000000000000000000, -0.0000000000000000000, -1.000000000000000000 ) ) ;
#690 = PRESENTATION_LAYER_ASSIGNMENT (  '', '', ( #360 ) ) ;
#691 = VERTEX_POINT ( 'NONE', #194 ) ;
#692 = FACE_OUTER_BOUND ( 'NONE', #674, .T. ) ;
#693 = FILL_AREA_STYLE ('',( #850 ) ) ;
#694 = CARTESIAN_POINT ( 'NONE',  ( -1.233106215902503466, 0.3353135878113329693, 39.53988211704932354 ) ) ;
#695 = DIRECTION ( 'NONE',  ( -1.000000000000000000, 0.0000000000000000000, 0.0000000000000000000 ) ) ;
#696 = EDGE_CURVE ( 'NONE', #941, #503, #53, .T. ) ;
#697 = ORIENTED_EDGE ( 'NONE', *, *, #10, .T. ) ;
#698 = CARTESIAN_POINT ( 'NONE',  ( -1.249999999999999778, -1.836970198721033385E-16, 39.20456852923798863 ) ) ;
#699 = CARTESIAN_POINT ( 'NONE',  ( 1.249999999999999778, 0.0000000000000000000, 44.20456852923798863 ) ) ;
#700 = CARTESIAN_POINT ( 'NONE',  ( 3.699489742783177437, 0.5000000000000000000, 39.70456852923798863 ) ) ;
#701 = EDGE_LOOP ( 'NONE', ( #425, #1000, #819, #619 ) ) ;
#702 = CARTESIAN_POINT ( 'NONE',  ( 0.0000000000000000000, 0.0000000000000000000, 47.20456852923798863 ) ) ;
#703 = EDGE_LOOP ( 'NONE', ( #126, #59 ) ) ;
#704 = VECTOR ( 'NONE', #644, 1000.000000000000000 ) ;
#705 =( NAMED_UNIT ( * ) SI_UNIT ( $, .STERADIAN. ) SOLID_ANGLE_UNIT ( ) );
#706 = DIRECTION ( 'NONE',  ( -1.000000000000000000, 0.0000000000000000000, -0.0000000000000000000 ) ) ;
#707 = ORIENTED_EDGE ( 'NONE', *, *, #984, .F. ) ;
#708 = LINE ( 'NONE', #144, #748 ) ;
#709 = EDGE_CURVE ( 'NONE', #832, #105, #1008, .T. ) ;
#710 = DIRECTION ( 'NONE',  ( 1.000000000000000000, 0.0000000000000000000, 0.0000000000000000000 ) ) ;
#711 = CARTESIAN_POINT ( 'NONE',  ( -1.199489742783176327, 0.5000000000000000000, 39.70456852923798863 ) ) ;
#712 = ORIENTED_EDGE ( 'NONE', *, *, #634, .T. ) ;
#713 = DIRECTION ( 'NONE',  ( 0.0000000000000000000, 0.0000000000000000000, 1.000000000000000000 ) ) ;
#714 = FILL_AREA_STYLE_COLOUR ( '', #421 ) ;
#715 = EDGE_CURVE ( 'NONE', #562, #105, #388, .T. ) ;
#716 = FACE_OUTER_BOUND ( 'NONE', #256, .T. ) ;
#717 = UNCERTAINTY_MEASURE_WITH_UNIT (LENGTH_MEASURE( 1.000000000000000082E-05 ), #245, 'distance_accuracy_value', 'NONE');
#718 = SURFACE_SIDE_STYLE ('',( #570 ) ) ;
#719 = CARTESIAN_POINT ( 'NONE',  ( 1.250000000000000000, 0.0000000000000000000, 38.00456852923798579 ) ) ;
#720 = CIRCLE ( 'NONE', #310, 2.499999999999998668 ) ;
#721 = ADVANCED_FACE ( 'NONE', ( #716 ), #401, .F. ) ;
#722 = PLANE ( 'NONE',  #271 ) ;
#723 = SURFACE_STYLE_FILL_AREA ( #481 ) ;
#724 = STYLED_ITEM ( 'NONE', ( #799 ), #721 ) ;
#725 = DIRECTION ( 'NONE',  ( 1.000000000000000000, 0.0000000000000000000, 0.0000000000000000000 ) ) ;
#726 = UNCERTAINTY_MEASURE_WITH_UNIT (LENGTH_MEASURE( 1.000000000000000082E-05 ), #617, 'distance_accuracy_value', 'NONE');
#727 = STYLED_ITEM ( 'NONE', ( #298 ), #834 ) ;
#728 = DIRECTION ( 'NONE',  ( 0.0000000000000000000, 0.0000000000000000000, 1.000000000000000000 ) ) ;
#729 = EDGE_CURVE ( 'NONE', #745, #1021, #631, .T. ) ;
#730 = DIRECTION ( 'NONE',  ( -1.000000000000000000, 0.0000000000000000000, 0.0000000000000000000 ) ) ;
#731 = PLANE ( 'NONE',  #985 ) ;
#732 = ORIENTED_EDGE ( 'NONE', *, *, #681, .T. ) ;
#733 = CARTESIAN_POINT ( 'NONE',  ( -1.199489742783178325, -0.5000000000000001110, 37.70456852923798863 ) ) ;
#734 = LINE ( 'NONE', #237, #704 ) ;
#735 = DIRECTION ( 'NONE',  ( 1.000000000000000000, 0.0000000000000000000, 0.0000000000000000000 ) ) ;
#736 = ORIENTED_EDGE ( 'NONE', *, *, #984, .T. ) ;
#737 = FACE_OUTER_BOUND ( 'NONE', #947, .T. ) ;
#738 = CYLINDRICAL_SURFACE ( 'NONE', #459, 2.499999999999999556 ) ;
#739 = VERTEX_POINT ( 'NONE', #222 ) ;
#740 = DIRECTION ( 'NONE',  ( -0.0000000000000000000, -0.0000000000000000000, 1.000000000000000000 ) ) ;
#741 = FILL_AREA_STYLE_COLOUR ( '', #815 ) ;
#742 = CIRCLE ( 'NONE', #759, 2.250000000000000000 ) ;
#743 =( GEOMETRIC_REPRESENTATION_CONTEXT ( 3 ) GLOBAL_UNCERTAINTY_ASSIGNED_CONTEXT ( ( #441 ) ) GLOBAL_UNIT_ASSIGNED_CONTEXT ( ( #186, #450, #275 ) ) REPRESENTATION_CONTEXT ( 'NONE', 'WORKASPACE' ) );
#744 = CIRCLE ( 'NONE', #599, 2.499999999999999556 ) ;
#745 = VERTEX_POINT ( 'NONE', #962 ) ;
#746 = EDGE_CURVE ( 'NONE', #410, #505, #927, .T. ) ;
#747 = CARTESIAN_POINT ( 'NONE',  ( 4.250000000000000000, 0.0000000000000000000, 44.20456852923798863 ) ) ;
#748 = VECTOR ( 'NONE', #629, 1000.000000000000000 ) ;
#749 = STYLED_ITEM ( 'NONE', ( #101 ), #200 ) ;
#750 =( NAMED_UNIT ( * ) SI_UNIT ( $, .STERADIAN. ) SOLID_ANGLE_UNIT ( ) );
#751 = ORIENTED_EDGE ( 'NONE', *, *, #715, .T. ) ;
#752 = LINE ( 'NONE', #922, #983 ) ;
#753 = ORIENTED_EDGE ( 'NONE', *, *, #681, .F. ) ;
#754 =( LENGTH_UNIT ( ) NAMED_UNIT ( * ) SI_UNIT ( .MILLI., .METRE. ) );
#755 = VERTEX_POINT ( 'NONE', #733 ) ;
#756 = CYLINDRICAL_SURFACE ( 'NONE', #92, 2.499999999999999556 ) ;
#757 =( NAMED_UNIT ( * ) PLANE_ANGLE_UNIT ( ) SI_UNIT ( $, .RADIAN. ) );
#758 = ORIENTED_EDGE ( 'NONE', *, *, #111, .T. ) ;
#759 = AXIS2_PLACEMENT_3D ( 'NONE', #278, #618, #366 ) ;
#760 = EDGE_CURVE ( 'NONE', #505, #292, #582, .T. ) ;
#761 = ORIENTED_EDGE ( 'NONE', *, *, #394, .F. ) ;
#762 = DIRECTION ( 'NONE',  ( -0.0000000000000000000, -0.0000000000000000000, 1.000000000000000000 ) ) ;
#763 = STYLED_ITEM ( 'NONE', ( #957 ), #28 ) ;
#764 = VECTOR ( 'NONE', #349, 1000.000000000000000 ) ;
#765 = ORIENTED_EDGE ( 'NONE', *, *, #79, .F. ) ;
#766 = SURFACE_STYLE_USAGE ( .BOTH. , #373 ) ;
#767 = FACE_OUTER_BOUND ( 'NONE', #65, .T. ) ;
#768 = PRESENTATION_LAYER_ASSIGNMENT (  '', '', ( #628 ) ) ;
#769 = EDGE_LOOP ( 'NONE', ( #368, #751, #166, #679 ) ) ;
#770 =( BOUNDED_CURVE ( )  B_SPLINE_CURVE ( 3, ( #187, #113, #604, #598 ),
 .UNSPECIFIED., .F., .F. ) 
 B_SPLINE_CURVE_WITH_KNOTS ( ( 4, 4 ),
 ( 4.712388980384689674, 4.913746901175020554 ),
 .UNSPECIFIED. ) 
 CURVE ( )  GEOMETRIC_REPRESENTATION_ITEM ( )  RATIONAL_B_SPLINE_CURVE ( ( 1.000000000000000000, 0.9966241020034161124, 0.9966241020034161124, 1.000000000000000000 ) ) 
 REPRESENTATION_ITEM ( '' )  );
#771 = STYLED_ITEM ( 'NONE', ( #68 ), #308 ) ;
#772 = DIRECTION ( 'NONE',  ( -0.0000000000000000000, -0.0000000000000000000, 1.000000000000000000 ) ) ;
#773 = SURFACE_STYLE_USAGE ( .BOTH. , #537 ) ;
#774 = EDGE_CURVE ( 'NONE', #97, #745, #27, .T. ) ;
#775 = DIRECTION ( 'NONE',  ( 1.000000000000000000, 0.0000000000000000000, 0.0000000000000000000 ) ) ;
#776 = ORIENTED_EDGE ( 'NONE', *, *, #590, .F. ) ;
#777 =( NAMED_UNIT ( * ) SI_UNIT ( $, .STERADIAN. ) SOLID_ANGLE_UNIT ( ) );
#778 = AXIS2_PLACEMENT_3D ( 'NONE', #306, #878, #135 ) ;
#779 = ORIENTED_EDGE ( 'NONE', *, *, #907, .T. ) ;
#780 = CARTESIAN_POINT ( 'NONE',  ( 2.500000000000000000, 0.0000000000000000000, 45.70456852923798863 ) ) ;
#781 = CARTESIAN_POINT ( 'NONE',  ( -1.199489742783178103, -0.5000000000000000000, 40.20456852923798863 ) ) ;
#782 = CARTESIAN_POINT ( 'NONE',  ( -1.199489742783176327, 0.5000000000000000000, 39.70456852923798863 ) ) ;
#783 = VERTEX_POINT ( 'NONE', #13 ) ;
#784 = CARTESIAN_POINT ( 'NONE',  ( 1.250000000000000000, 0.0000000000000000000, 38.00456852923798579 ) ) ;
#785 = ORIENTED_EDGE ( 'NONE', *, *, #255, .T. ) ;
#786 = FILL_AREA_STYLE ('',( #457 ) ) ;
#787 = DIRECTION ( 'NONE',  ( 0.0000000000000000000, 0.0000000000000000000, -1.000000000000000000 ) ) ;
#788 = VERTEX_POINT ( 'NONE', #548 ) ;
#789 =( LENGTH_UNIT ( ) NAMED_UNIT ( * ) SI_UNIT ( .MILLI., .METRE. ) );
#790 =( GEOMETRIC_REPRESENTATION_CONTEXT ( 3 ) GLOBAL_UNCERTAINTY_ASSIGNED_CONTEXT ( ( #1009 ) ) GLOBAL_UNIT_ASSIGNED_CONTEXT ( ( #673, #653, #495 ) ) REPRESENTATION_CONTEXT ( 'NONE', 'WORKASPACE' ) );
#791 = CARTESIAN_POINT ( 'NONE',  ( 4.250000000000000000, 0.0000000000000000000, 44.20456852923798863 ) ) ;
#792 = AXIS2_PLACEMENT_3D ( 'NONE', #686, #51, #517 ) ;
#793 = DIRECTION ( 'NONE',  ( -0.0000000000000000000, -0.0000000000000000000, 1.000000000000000000 ) ) ;
#794 = ORIENTED_EDGE ( 'NONE', *, *, #709, .F. ) ;
#795 = EDGE_CURVE ( 'NONE', #250, #783, #479, .T. ) ;
#796 = DIRECTION ( 'NONE',  ( -0.0000000000000000000, -0.0000000000000000000, 1.000000000000000000 ) ) ;
#797 = COLOUR_RGB ( '',0.0000000000000000000, 0.0000000000000000000, 1.000000000000000000 ) ;
#798 = FACE_OUTER_BOUND ( 'NONE', #924, .T. ) ;
#799 = PRESENTATION_STYLE_ASSIGNMENT (( #139 ) ) ;
#800 = CARTESIAN_POINT ( 'NONE',  ( 3.750000000000000000, 0.0000000000000000000, 45.70456852923798863 ) ) ;
#801 = DIRECTION ( 'NONE',  ( 1.000000000000000000, 0.0000000000000000000, -0.0000000000000000000 ) ) ;
#802 =( GEOMETRIC_REPRESENTATION_CONTEXT ( 3 ) GLOBAL_UNCERTAINTY_ASSIGNED_CONTEXT ( ( #338 ) ) GLOBAL_UNIT_ASSIGNED_CONTEXT ( ( #592, #269, #363 ) ) REPRESENTATION_CONTEXT ( 'NONE', 'WORKASPACE' ) );
#803 = CARTESIAN_POINT ( 'NONE',  ( 3.750000000000000000, -0.1680823655966252606, 39.37265089483462788 ) ) ;
#804 = AXIS2_PLACEMENT_3D ( 'NONE', #415, #740, #31 ) ;
#805 = CARTESIAN_POINT ( 'NONE',  ( -1.250000000000000000, 3.061616997868383141E-16, 45.70456852923798863 ) ) ;
#806 = DIRECTION ( 'NONE',  ( 0.0000000000000000000, 0.0000000000000000000, -1.000000000000000000 ) ) ;
#807 = CARTESIAN_POINT ( 'NONE',  ( 3.733106215902502356, -0.3353135878113336354, 40.03988211704932354 ) ) ;
#808 = CARTESIAN_POINT ( 'NONE',  ( 2.200000000000000178, 0.0000000000000000000, 45.70456852923798863 ) ) ;
#809 =( GEOMETRIC_REPRESENTATION_CONTEXT ( 3 ) GLOBAL_UNCERTAINTY_ASSIGNED_CONTEXT ( ( #987 ) ) GLOBAL_UNIT_ASSIGNED_CONTEXT ( ( #461, #1014, #777 ) ) REPRESENTATION_CONTEXT ( 'NONE', 'WORKASPACE' ) );
#810 = EDGE_CURVE ( 'NONE', #739, #895, #816, .T. ) ;
#811 = DIRECTION ( 'NONE',  ( -0.0000000000000000000, -0.0000000000000000000, 1.000000000000000000 ) ) ;
#812 = DIRECTION ( 'NONE',  ( 1.000000000000000000, 0.0000000000000000000, 0.0000000000000000000 ) ) ;
#813 = DIRECTION ( 'NONE',  ( -0.0000000000000000000, -0.0000000000000000000, 1.000000000000000000 ) ) ;
#814 = ORIENTED_EDGE ( 'NONE', *, *, #1024, .F. ) ;
#815 = COLOUR_RGB ( '',0.0000000000000000000, 0.0000000000000000000, 1.000000000000000000 ) ;
#816 = LINE ( 'NONE', #820, #446 ) ;
#817 = FACE_OUTER_BOUND ( 'NONE', #500, .T. ) ;
#818 = CARTESIAN_POINT ( 'NONE',  ( 3.750000000000000000, -0.1680823655966258712, 39.87265089483462077 ) ) ;
#819 = ORIENTED_EDGE ( 'NONE', *, *, #485, .T. ) ;
#820 = CARTESIAN_POINT ( 'NONE',  ( -1.199489742783177881, 0.4999999999999991673, 45.70456852923798863 ) ) ;
#821 = DIRECTION ( 'NONE',  ( -0.0000000000000000000, -0.0000000000000000000, -1.000000000000000000 ) ) ;
#822 = COLOUR_RGB ( '',0.0000000000000000000, 0.0000000000000000000, 1.000000000000000000 ) ;
#823 = ORIENTED_EDGE ( 'NONE', *, *, #168, .F. ) ;
#824 = SURFACE_SIDE_STYLE ('',( #844 ) ) ;
#825 = UNCERTAINTY_MEASURE_WITH_UNIT (LENGTH_MEASURE( 1.000000000000000082E-05 ), #171, 'distance_accuracy_value', 'NONE');
#826 = FACE_OUTER_BOUND ( 'NONE', #290, .T. ) ;
#827 = AXIS2_PLACEMENT_3D ( 'NONE', #129, #295, #959 ) ;
#828 = EDGE_CURVE ( 'NONE', #503, #442, #141, .T. ) ;
#829 = ORIENTED_EDGE ( 'NONE', *, *, #640, .F. ) ;
#830 =( NAMED_UNIT ( * ) PLANE_ANGLE_UNIT ( ) SI_UNIT ( $, .RADIAN. ) );
#831 = CIRCLE ( 'NONE', #965, 0.2999999999999999334 ) ;
#832 = VERTEX_POINT ( 'NONE', #808 ) ;
#833 =( NAMED_UNIT ( * ) PLANE_ANGLE_UNIT ( ) SI_UNIT ( $, .RADIAN. ) );
#834 = ADVANCED_FACE ( 'NONE', ( #737 ), #531, .T. ) ;
#835 = CYLINDRICAL_SURFACE ( 'NONE', #464, 2.499999999999999556 ) ;
#836 = AXIS2_PLACEMENT_3D ( 'NONE', #552, #713, #812 ) ;
#837 = VERTEX_POINT ( 'NONE', #926 ) ;
#838 = EDGE_LOOP ( 'NONE', ( #440, #174, #203, #453, #507 ) ) ;
#839 =( NAMED_UNIT ( * ) SI_UNIT ( $, .STERADIAN. ) SOLID_ANGLE_UNIT ( ) );
#840 = CARTESIAN_POINT ( 'NONE',  ( 1.249999999999999778, 0.0000000000000000000, 44.20456852923798863 ) ) ;
#841 = PRESENTATION_LAYER_ASSIGNMENT (  '', '', ( #231 ) ) ;
#842 = SHAPE_DEFINITION_REPRESENTATION ( #849, #402 ) ;
#843 = ORIENTED_EDGE ( 'NONE', *, *, #61, .T. ) ;
#844 = SURFACE_STYLE_FILL_AREA ( #904 ) ;
#845 = FILL_AREA_STYLE ('',( #677 ) ) ;
#846 = VERTEX_POINT ( 'NONE', #432 ) ;
#847 = CIRCLE ( 'NONE', #976, 2.292893218813451650 ) ;
#848 = UNCERTAINTY_MEASURE_WITH_UNIT (LENGTH_MEASURE( 1.000000000000000082E-05 ), #80, 'distance_accuracy_value', 'NONE');
#849 = PRODUCT_DEFINITION_SHAPE ( 'NONE', 'NONE',  #540 ) ;
#850 = FILL_AREA_STYLE_COLOUR ( '', #797 ) ;
#851 = DIRECTION ( 'NONE',  ( 0.0000000000000000000, 0.0000000000000000000, 1.000000000000000000 ) ) ;
#852 = COLOUR_RGB ( '',0.0000000000000000000, 0.0000000000000000000, 1.000000000000000000 ) ;
#853 = MECHANICAL_DESIGN_GEOMETRIC_PRESENTATION_REPRESENTATION (  '', ( #243 ), #664 ) ;
#854 = CARTESIAN_POINT ( 'NONE',  ( 1.250000000000000000, 0.0000000000000000000, 45.70456852923798863 ) ) ;
#855 = CYLINDRICAL_SURFACE ( 'NONE', #910, 2.499999999999999556 ) ;
#856 = PLANE ( 'NONE',  #427 ) ;
#857 = DIRECTION ( 'NONE',  ( -1.000000000000000000, 0.0000000000000000000, 0.0000000000000000000 ) ) ;
#858 = DIRECTION ( 'NONE',  ( -0.0000000000000000000, -0.0000000000000000000, 1.000000000000000000 ) ) ;
#859 = EDGE_CURVE ( 'NONE', #578, #670, #847, .T. ) ;
#860 = CARTESIAN_POINT ( 'NONE',  ( 2.500000000000000000, 0.0000000000000000000, 45.70456852923798863 ) ) ;
#861 = ORIENTED_EDGE ( 'NONE', *, *, #972, .F. ) ;
#862 = CARTESIAN_POINT ( 'NONE',  ( -1.233106215902503022, -0.3353135878113329693, 40.03988211704932354 ) ) ;
#863 = AXIS2_PLACEMENT_3D ( 'NONE', #361, #284, #69 ) ;
#864 = ORIENTED_EDGE ( 'NONE', *, *, #859, .T. ) ;
#865 = DIRECTION ( 'NONE',  ( 1.000000000000000000, 0.0000000000000000000, 0.0000000000000000000 ) ) ;
#866 = CARTESIAN_POINT ( 'NONE',  ( 0.0000000000000000000, 0.0000000000000000000, 47.20456852923798863 ) ) ;
#867 = ORIENTED_EDGE ( 'NONE', *, *, #696, .T. ) ;
#868 = DIRECTION ( 'NONE',  ( -0.0000000000000000000, -0.0000000000000000000, 1.000000000000000000 ) ) ;
#869 =( NAMED_UNIT ( * ) SI_UNIT ( $, .STERADIAN. ) SOLID_ANGLE_UNIT ( ) );
#870 = CARTESIAN_POINT ( 'NONE',  ( -1.199489742783178103, 0.4999999999999997780, 40.20456852923798863 ) ) ;
#871 = CYLINDRICAL_SURFACE ( 'NONE', #136, 0.2999999999999999889 ) ;
#872 = EDGE_LOOP ( 'NONE', ( #38, #522 ) ) ;
#873 = DIRECTION ( 'NONE',  ( -1.000000000000000000, 0.0000000000000000000, 0.0000000000000000000 ) ) ;
#874 = EDGE_CURVE ( 'NONE', #895, #783, #274, .T. ) ;
#875 = CARTESIAN_POINT ( 'NONE',  ( 1.250000000000000000, 0.0000000000000000000, 37.70456852923798863 ) ) ;
#876 = VECTOR ( 'NONE', #821, 1000.000000000000000 ) ;
#877 = DIRECTION ( 'NONE',  ( -0.0000000000000000000, -0.0000000000000000000, -1.000000000000000000 ) ) ;
#878 = DIRECTION ( 'NONE',  ( -0.0000000000000000000, -0.0000000000000000000, 1.000000000000000000 ) ) ;
#879 = DIRECTION ( 'NONE',  ( -0.0000000000000000000, -0.0000000000000000000, 1.000000000000000000 ) ) ;
#880 = DIRECTION ( 'NONE',  ( 1.000000000000000000, 0.0000000000000000000, 0.0000000000000000000 ) ) ;
#881 = AXIS2_PLACEMENT_3D ( 'NONE', #288, #1005, #458 ) ;
#882 = AXIS2_PLACEMENT_3D ( 'NONE', #181, #374, #518 ) ;
#883 = LINE ( 'NONE', #138, #521 ) ;
#884 = SURFACE_STYLE_FILL_AREA ( #74 ) ;
#885 =( BOUNDED_CURVE ( )  B_SPLINE_CURVE ( 3, ( #58, #434, #694, #782 ),
 .UNSPECIFIED., .F., .F. ) 
 B_SPLINE_CURVE_WITH_KNOTS ( ( 4, 4 ),
 ( 4.712388980384689674, 4.913746901175020554 ),
 .UNSPECIFIED. ) 
 CURVE ( )  GEOMETRIC_REPRESENTATION_ITEM ( )  RATIONAL_B_SPLINE_CURVE ( ( 1.000000000000000000, 0.9966241020034161124, 0.9966241020034161124, 1.000000000000000000 ) ) 
 REPRESENTATION_ITEM ( '' )  );
#886 = CARTESIAN_POINT ( 'NONE',  ( 1.250000000000000000, 0.0000000000000000000, 43.70456852923798863 ) ) ;
#887 = EDGE_CURVE ( 'NONE', #788, #527, #219, .T. ) ;
#888 = DIRECTION ( 'NONE',  ( 1.000000000000000000, 0.0000000000000000000, 0.0000000000000000000 ) ) ;
#889 = CIRCLE ( 'NONE', #934, 2.499999999999999556 ) ;
#890 = CARTESIAN_POINT ( 'NONE',  ( 3.699489742783177437, -0.5000000000000008882, 39.70456852923798863 ) ) ;
#891 = PRESENTATION_LAYER_ASSIGNMENT (  '', '', ( #243 ) ) ;
#892 =( NAMED_UNIT ( * ) PLANE_ANGLE_UNIT ( ) SI_UNIT ( $, .RADIAN. ) );
#893 = FACE_OUTER_BOUND ( 'NONE', #898, .T. ) ;
#894 = PRESENTATION_LAYER_ASSIGNMENT (  '', '', ( #159 ) ) ;
#895 = VERTEX_POINT ( 'NONE', #870 ) ;
#896 = DIRECTION ( 'NONE',  ( 1.000000000000000000, 0.0000000000000000000, 0.0000000000000000000 ) ) ;
#897 = CARTESIAN_POINT ( 'NONE',  ( 3.699489742783177881, -0.5000000000000000000, 40.20456852923798863 ) ) ;
#898 = EDGE_LOOP ( 'NONE', ( #765, #954, #649, #712 ) ) ;
#899 =( GEOMETRIC_REPRESENTATION_CONTEXT ( 3 ) GLOBAL_UNCERTAINTY_ASSIGNED_CONTEXT ( ( #825 ) ) GLOBAL_UNIT_ASSIGNED_CONTEXT ( ( #171, #757, #40 ) ) REPRESENTATION_CONTEXT ( 'NONE', 'WORKASPACE' ) );
#900 = SURFACE_SIDE_STYLE ('',( #884 ) ) ;
#901 = AXIS2_PLACEMENT_3D ( 'NONE', #473, #877, #393 ) ;
#902 = DIRECTION ( 'NONE',  ( 1.000000000000000000, 0.0000000000000000000, 0.0000000000000000000 ) ) ;
#903 = ORIENTED_EDGE ( 'NONE', *, *, #148, .T. ) ;
#904 = FILL_AREA_STYLE ('',( #344 ) ) ;
#905 = SURFACE_STYLE_FILL_AREA ( #398 ) ;
#906 = MECHANICAL_DESIGN_GEOMETRIC_PRESENTATION_REPRESENTATION (  '', ( #749 ), #571 ) ;
#907 = EDGE_CURVE ( 'NONE', #377, #104, #509, .T. ) ;
#908 = SURFACE_SIDE_STYLE ('',( #107 ) ) ;
#909 = ORIENTED_EDGE ( 'NONE', *, *, #389, .T. ) ;
#910 = AXIS2_PLACEMENT_3D ( 'NONE', #938, #858, #112 ) ;
#911 = SURFACE_SIDE_STYLE ('',( #246 ) ) ;
#912 = ORIENTED_EDGE ( 'NONE', *, *, #419, .T. ) ;
#913 = CARTESIAN_POINT ( 'NONE',  ( 1.250000000000000000, 0.0000000000000000000, 45.70456852923798863 ) ) ;
#914 = TOROIDAL_SURFACE ( 'NONE', #975, 3.000000000000000000, 0.7071067811865482389 ) ;
#915 = APPLICATION_CONTEXT ( 'automotive_design' ) ;
#916 = ORIENTED_EDGE ( 'NONE', *, *, #47, .F. ) ;
#917 = FILL_AREA_STYLE_COLOUR ( '', #625 ) ;
#918 = ADVANCED_FACE ( 'NONE', ( #767 ), #277, .F. ) ;
#919 = SURFACE_STYLE_USAGE ( .BOTH. , #575 ) ;
#920 = PRESENTATION_STYLE_ASSIGNMENT (( #347 ) ) ;
#921 = ORIENTED_EDGE ( 'NONE', *, *, #874, .T. ) ;
#922 = CARTESIAN_POINT ( 'NONE',  ( -0.2999999999999999889, 0.0000000000000000000, 47.20456852923798863 ) ) ;
#923 = DIRECTION ( 'NONE',  ( 1.000000000000000000, 0.0000000000000000000, 0.0000000000000000000 ) ) ;
#924 = EDGE_LOOP ( 'NONE', ( #30, #279 ) ) ;
#925 = ORIENTED_EDGE ( 'NONE', *, *, #774, .T. ) ;
#926 = CARTESIAN_POINT ( 'NONE',  ( 3.699489742783177881, -0.5000000000000000000, 40.20456852923798863 ) ) ;
#927 = CIRCLE ( 'NONE', #88, 2.499999999999999556 ) ;
#928 = UNCERTAINTY_MEASURE_WITH_UNIT (LENGTH_MEASURE( 1.000000000000000082E-05 ), #99, 'distance_accuracy_value', 'NONE');
#929 = VERTEX_POINT ( 'NONE', #781 ) ;
#930 = FILL_AREA_STYLE_COLOUR ( '', #289 ) ;
#931 = CARTESIAN_POINT ( 'NONE',  ( -1.249999999999998890, 0.0000000000000000000, 39.70456852923798863 ) ) ;
#932 = DIRECTION ( 'NONE',  ( 1.000000000000000000, 0.0000000000000000000, 0.0000000000000000000 ) ) ;
#933 = CARTESIAN_POINT ( 'NONE',  ( 2.500000000000000000, 0.0000000000000000000, 47.20456852923798863 ) ) ;
#934 = AXIS2_PLACEMENT_3D ( 'NONE', #56, #868, #216 ) ;
#935 = EDGE_CURVE ( 'NONE', #562, #654, #831, .T. ) ;
#936 = AXIS2_PLACEMENT_3D ( 'NONE', #875, #796, #386 ) ;
#937 = EDGE_LOOP ( 'NONE', ( #602, #253, #496, #1 ) ) ;
#938 = CARTESIAN_POINT ( 'NONE',  ( 1.250000000000000000, 0.0000000000000000000, 45.70456852923798863 ) ) ;
#939 =( NAMED_UNIT ( * ) SI_UNIT ( $, .STERADIAN. ) SOLID_ANGLE_UNIT ( ) );
#940 = CARTESIAN_POINT ( 'NONE',  ( -1.249999999999999556, 3.061616997868382648E-16, 45.70456852923798863 ) ) ;
#941 = VERTEX_POINT ( 'NONE', #16 ) ;
#942 = CARTESIAN_POINT ( 'NONE',  ( 3.699489742783177437, -0.5000000000000009992, 43.70456852923798863 ) ) ;
#943 = AXIS2_PLACEMENT_3D ( 'NONE', #528, #542, #873 ) ;
#944 = UNCERTAINTY_MEASURE_WITH_UNIT (LENGTH_MEASURE( 1.000000000000000082E-05 ), #352, 'distance_accuracy_value', 'NONE');
#945 = SURFACE_STYLE_FILL_AREA ( #603 ) ;
#946 = CARTESIAN_POINT ( 'NONE',  ( 3.733106215902503244, 0.3353135878113335244, 39.53988211704932354 ) ) ;
#947 = EDGE_LOOP ( 'NONE', ( #736, #584, #430, #93 ) ) ;
#948 = CARTESIAN_POINT ( 'NONE',  ( -1.199489742783178103, -0.5000000000000000000, 40.20456852923798863 ) ) ;
#949 = ORIENTED_EDGE ( 'NONE', *, *, #236, .T. ) ;
#950 = FACE_OUTER_BOUND ( 'NONE', #838, .T. ) ;
#951 = SURFACE_STYLE_USAGE ( .BOTH. , #193 ) ;
#952 = EDGE_CURVE ( 'NONE', #123, #351, #638, .T. ) ;
#953 = CARTESIAN_POINT ( 'NONE',  ( 3.750000000000000000, 0.0000000000000000000, 45.70456852923798863 ) ) ;
#954 = ORIENTED_EDGE ( 'NONE', *, *, #98, .F. ) ;
#955 = FACE_OUTER_BOUND ( 'NONE', #132, .T. ) ;
#956 =( GEOMETRIC_REPRESENTATION_CONTEXT ( 3 ) GLOBAL_UNCERTAINTY_ASSIGNED_CONTEXT ( ( #319 ) ) GLOBAL_UNIT_ASSIGNED_CONTEXT ( ( #395, #892, #968 ) ) REPRESENTATION_CONTEXT ( 'NONE', 'WORKASPACE' ) );
#957 = PRESENTATION_STYLE_ASSIGNMENT (( #296 ) ) ;
#958 = ORIENTED_EDGE ( 'NONE', *, *, #103, .F. ) ;
#959 = DIRECTION ( 'NONE',  ( 1.000000000000000000, 0.0000000000000000000, 0.0000000000000000000 ) ) ;
#960 = LINE ( 'NONE', #800, #764 ) ;
#961 = CIRCLE ( 'NONE', #546, 2.499999999999999556 ) ;
#962 = CARTESIAN_POINT ( 'NONE',  ( -0.9999999999999997780, 0.0000000000000000000, 38.00456852923798579 ) ) ;
#963 = PRESENTATION_STYLE_ASSIGNMENT (( #633 ) ) ;
#964 = EDGE_CURVE ( 'NONE', #104, #377, #744, .T. ) ;
#965 = AXIS2_PLACEMENT_3D ( 'NONE', #648, #83, #20 ) ;
#966 = FILL_AREA_STYLE_COLOUR ( '', #491 ) ;
#967 = EDGE_CURVE ( 'NONE', #654, #562, #466, .T. ) ;
#968 =( NAMED_UNIT ( * ) SI_UNIT ( $, .STERADIAN. ) SOLID_ANGLE_UNIT ( ) );
#969 = CARTESIAN_POINT ( 'NONE',  ( 1.250000000000000000, 0.0000000000000000000, 43.70456852923798863 ) ) ;
#970 = COLOUR_RGB ( '',1.000000000000000000, 1.000000000000000000, 1.000000000000000000 ) ;
#971 = ORIENTED_EDGE ( 'NONE', *, *, #37, .F. ) ;
#972 = EDGE_CURVE ( 'NONE', #929, #123, #313, .T. ) ;
#973 = DIRECTION ( 'NONE',  ( 1.000000000000000000, 0.0000000000000000000, -0.0000000000000000000 ) ) ;
#974 = VERTEX_POINT ( 'NONE', #544 ) ;
#975 = AXIS2_PLACEMENT_3D ( 'NONE', #265, #258, #988 ) ;
#977 = PLANE ( 'NONE',  #486 ) ;
#976 = AXIS2_PLACEMENT_3D ( 'NONE', #355, #687, #710 ) ;
#978 = ADVANCED_FACE ( 'NONE', ( #234 ), #642, .T. ) ;
#979 = CARTESIAN_POINT ( 'NONE',  ( 3.749999999999999556, -1.836970198721033385E-16, 39.20456852923798863 ) ) ;
#980 = EDGE_LOOP ( 'NONE', ( #794, #146 ) ) ;
#981 = CARTESIAN_POINT ( 'NONE',  ( 1.250000000000000000, 0.0000000000000000000, 45.70456852923798863 ) ) ;
#982 = CARTESIAN_POINT ( 'NONE',  ( -1.249999999999999778, -1.836970198721033385E-16, 39.20456852923798863 ) ) ;
#983 = VECTOR ( 'NONE', #675, 1000.000000000000000 ) ;
#984 = EDGE_CURVE ( 'NONE', #837, #70, #676, .T. ) ;
#985 = AXIS2_PLACEMENT_3D ( 'NONE', #73, #305, #801 ) ;
#986 = ORIENTED_EDGE ( 'NONE', *, *, #859, .F. ) ;
#987 = UNCERTAINTY_MEASURE_WITH_UNIT (LENGTH_MEASURE( 1.000000000000000082E-05 ), #461, 'distance_accuracy_value', 'NONE');
#988 = DIRECTION ( 'NONE',  ( 1.000000000000000000, 0.0000000000000000000, 0.0000000000000000000 ) ) ;
#989 = ADVANCED_FACE ( 'NONE', ( #893 ), #557, .F. ) ;
#990 = PRODUCT_CONTEXT ( 'NONE', #266, 'mechanical' ) ;
#991 = ORIENTED_EDGE ( 'NONE', *, *, #647, .T. ) ;
#992 = STYLED_ITEM ( 'NONE', ( #177 ), #524 ) ;
#993 =( NAMED_UNIT ( * ) PLANE_ANGLE_UNIT ( ) SI_UNIT ( $, .RADIAN. ) );
#994 = AXIS2_PLACEMENT_3D ( 'NONE', #559, #218, #22 ) ;
#995 = ORIENTED_EDGE ( 'NONE', *, *, #795, .T. ) ;
#996 = ORIENTED_EDGE ( 'NONE', *, *, #533, .F. ) ;
#997 = DIRECTION ( 'NONE',  ( -0.0000000000000000000, -0.0000000000000000000, 1.000000000000000000 ) ) ;
#998 = AXIS2_PLACEMENT_3D ( 'NONE', #226, #67, #1032 ) ;
#999 = CLOSED_SHELL ( 'NONE', ( #721, #498, #308, #978, #379, #371, #524, #551, #834, #263, #400, #200, #19, #227, #28, #190, #918, #409, #208, #607, #438, #345, #1015, #989, #655 ) ) ;
#1000 = ORIENTED_EDGE ( 'NONE', *, *, #967, .F. ) ;
#1001 = DIRECTION ( 'NONE',  ( -0.0000000000000000000, -0.0000000000000000000, 1.000000000000000000 ) ) ;
#1002 = PRODUCT ( '90788115-A04C-4202-95F9-BF4FE7D970CC', '90788115-A04C-4202-95F9-BF4FE7D970CC', '', ( #990 ) ) ;
#1003 = ORIENTED_EDGE ( 'NONE', *, *, #907, .F. ) ;
#1004 = CARTESIAN_POINT ( 'NONE',  ( 3.699489742783177881, 0.4999999999999991673, 45.70456852923798863 ) ) ;
#1005 = DIRECTION ( 'NONE',  ( -0.0000000000000000000, -0.0000000000000000000, 1.000000000000000000 ) ) ;
#1006 = ORIENTED_EDGE ( 'NONE', *, *, #952, .T. ) ;
#1007 = SURFACE_SIDE_STYLE ('',( #357 ) ) ;
#1008 = CIRCLE ( 'NONE', #316, 0.2999999999999999334 ) ;
#1009 = UNCERTAINTY_MEASURE_WITH_UNIT (LENGTH_MEASURE( 1.000000000000000082E-05 ), #673, 'distance_accuracy_value', 'NONE');
#1010 = SURFACE_STYLE_FILL_AREA ( #118 ) ;
#1011 = CYLINDRICAL_SURFACE ( 'NONE', #6, 2.250000000000000000 ) ;
#1012 = CARTESIAN_POINT ( 'NONE',  ( 3.542893218813451650, 0.0000000000000000000, 44.20456852923798863 ) ) ;
#1013 = ORIENTED_EDGE ( 'NONE', *, *, #148, .F. ) ;
#1014 =( NAMED_UNIT ( * ) PLANE_ANGLE_UNIT ( ) SI_UNIT ( $, .RADIAN. ) );
#1015 = ADVANCED_FACE ( 'NONE', ( #798 ), #731, .T. ) ;
#1016 = CIRCLE ( 'NONE', #367, 2.499999999999998668 ) ;
#1017 = VERTEX_POINT ( 'NONE', #477 ) ;
#1018 = PRESENTATION_STYLE_ASSIGNMENT (( #773 ) ) ;
#1019 = SURFACE_STYLE_FILL_AREA ( #693 ) ;
#1020 = CARTESIAN_POINT ( 'NONE',  ( 1.250000000000000000, 0.0000000000000000000, 45.70456852923798863 ) ) ;
#1021 = VERTEX_POINT ( 'NONE', #630 ) ;
#1022 = DIRECTION ( 'NONE',  ( -1.000000000000000000, 0.0000000000000000000, 0.0000000000000000000 ) ) ;
#1023 = CIRCLE ( 'NONE', #35, 2.292893218813451650 ) ;
#1024 = EDGE_CURVE ( 'NONE', #755, #229, #883, .T. ) ;
#1025 = LINE ( 'NONE', #436, #3 ) ;
#1026 = SURFACE_STYLE_FILL_AREA ( #786 ) ;
#1027 = LINE ( 'NONE', #940, #416 ) ;
#1028 = ORIENTED_EDGE ( 'NONE', *, *, #760, .F. ) ;
#1029 = CARTESIAN_POINT ( 'NONE',  ( 1.250000000000000000, 0.0000000000000000000, 37.70456852923798863 ) ) ;
#1030 = PRESENTATION_LAYER_ASSIGNMENT (  '', '', ( #992 ) ) ;
#1031 = MECHANICAL_DESIGN_GEOMETRIC_PRESENTATION_REPRESENTATION (  '', ( #727 ), #549 ) ;
#1032 = DIRECTION ( 'NONE',  ( -1.000000000000000000, 1.224646799147354193E-16, 0.0000000000000000000 ) ) ;
#1033 = FILL_AREA_STYLE ('',( #930 ) ) ;
#1034 = PRESENTATION_LAYER_ASSIGNMENT (  '', '', ( #429 ) ) ;
#1035 = CARTESIAN_POINT ( 'NONE',  ( 1.250000000000000000, 0.0000000000000000000, 38.00456852923798579 ) ) ;
ENDSEC;
END-ISO-10303-21;
