ISO-10303-21;
HEADER;
FILE_DESCRIPTION(('STEP AP214'),'1');
FILE_NAME('x5080wv-02-n0sn.stp','2023-08-17T08:41:25',('TraceParts'),('TraceParts S.A.'),'Spatial InterOp 3D',' ',' ');
FILE_SCHEMA(('AUTOMOTIVE_DESIGN { 1 0 10303 214 1 1 1 1 }'));
ENDSEC;
DATA;
#1=PRODUCT_DEFINITION_CONTEXT('',#9,'design');
#2=APPLICATION_PROTOCOL_DEFINITION('INTERNATIONAL STANDARD','automotive_design',1994,#9);
#3=PRODUCT_CATEGORY_RELATIONSHIP('NONE','NONE',#10,#11);
#4=SHAPE_DEFINITION_REPRESENTATION(#12,#13);
#5= (GEOMETRIC_REPRESENTATION_CONTEXT(3)GLOBAL_UNCERTAINTY_ASSIGNED_CONTEXT((#16))GLOBAL_UNIT_ASSIGNED_CONTEXT((#18,#19,#20))REPRESENTATION_CONTEXT('NONE','WORKSPACE'));
#9=APPLICATION_CONTEXT(' ');
#10=PRODUCT_CATEGORY('part','NONE');
#11=PRODUCT_RELATED_PRODUCT_CATEGORY('detail',' ',(#22));
#12=PRODUCT_DEFINITION_SHAPE('NONE','NONE',#23);
#13=ADVANCED_BREP_SHAPE_REPRESENTATION('x5080wv-02-n0sn',(#24,#25),#5);
#16=UNCERTAINTY_MEASURE_WITH_UNIT(LENGTH_MEASURE(1.0E-06),#18,'','');
#18= (CONVERSION_BASED_UNIT('MILLIMETRE',#28)LENGTH_UNIT()NAMED_UNIT(#31));
#19= (NAMED_UNIT(#33)PLANE_ANGLE_UNIT()SI_UNIT($,.RADIAN.));
#20= (NAMED_UNIT(#33)SOLID_ANGLE_UNIT()SI_UNIT($,.STERADIAN.));
#22=PRODUCT('x5080wv-02-n0sn','x5080wv-02-n0sn','PART-x5080wv-02-n0sn-DESC',(#39));
#23=PRODUCT_DEFINITION('','NONE',#40,#1);
#24=MANIFOLD_SOLID_BREP('x5080wv-02-n0sn',#41);
#25=AXIS2_PLACEMENT_3D('',#42,#43,#44);
#28=LENGTH_MEASURE_WITH_UNIT(LENGTH_MEASURE(1.0),#45);
#31=DIMENSIONAL_EXPONENTS(1.0,0.0,0.0,0.0,0.0,0.0,0.0);
#33=DIMENSIONAL_EXPONENTS(0.0,0.0,0.0,0.0,0.0,0.0,0.0);
#39=PRODUCT_CONTEXT('',#9,'mechanical');
#40=PRODUCT_DEFINITION_FORMATION_WITH_SPECIFIED_SOURCE(' ','NONE',#22,.NOT_KNOWN.);
#41=CLOSED_SHELL('',(#46,#47,#48,#49,#50,#51,#52,#53,#54,#55,#56,#57,#58,#59,#60,#61,#62,#63,#64,#65,#66,#67,#68,#69,#70,#71,#72,#73,#74,#75,#76,#77,#78,#79,#80,#81,#82,#83,#84,#85,#86,#87,#88,#89,#90,#91,#92,#93,#94,#95,#96,#97,#98,#99,#100,#101,#102,#103,#104,#105,#106,#107,#108,#109,#110,#111,#112,#113,#114,#115,#116));
#42=CARTESIAN_POINT('',(0.0,0.0,0.0));
#43=DIRECTION('',(0.0,0.0,1.0));
#44=DIRECTION('',(1.0,0.0,0.0));
#45= (NAMED_UNIT(#31)LENGTH_UNIT()SI_UNIT(.MILLI.,.METRE.));
#46=ADVANCED_FACE('',(#118),#119,.T.);
#47=ADVANCED_FACE('',(#120),#121,.F.);
#48=ADVANCED_FACE('',(#122),#123,.F.);
#49=ADVANCED_FACE('',(#124),#125,.F.);
#50=ADVANCED_FACE('',(#126),#127,.F.);
#51=ADVANCED_FACE('',(#128),#129,.F.);
#52=ADVANCED_FACE('',(#130),#131,.T.);
#53=ADVANCED_FACE('',(#132),#133,.F.);
#54=ADVANCED_FACE('',(#134),#135,.F.);
#55=ADVANCED_FACE('',(#136),#137,.F.);
#56=ADVANCED_FACE('',(#138),#139,.F.);
#57=ADVANCED_FACE('',(#140,#141,#142),#143,.F.);
#58=ADVANCED_FACE('',(#144),#145,.F.);
#59=ADVANCED_FACE('',(#146),#147,.F.);
#60=ADVANCED_FACE('',(#148),#149,.T.);
#61=ADVANCED_FACE('',(#150),#151,.T.);
#62=ADVANCED_FACE('',(#152),#153,.T.);
#63=ADVANCED_FACE('',(#154),#155,.T.);
#64=ADVANCED_FACE('',(#156),#157,.T.);
#65=ADVANCED_FACE('',(#158),#159,.T.);
#66=ADVANCED_FACE('',(#160),#161,.T.);
#67=ADVANCED_FACE('',(#162),#163,.T.);
#68=ADVANCED_FACE('',(#164),#165,.T.);
#69=ADVANCED_FACE('',(#166),#167,.T.);
#70=ADVANCED_FACE('',(#168),#169,.T.);
#71=ADVANCED_FACE('',(#170),#171,.T.);
#72=ADVANCED_FACE('',(#172),#173,.T.);
#73=ADVANCED_FACE('',(#174,#175,#176),#177,.F.);
#74=ADVANCED_FACE('',(#178),#179,.T.);
#75=ADVANCED_FACE('',(#180),#181,.T.);
#76=ADVANCED_FACE('',(#182),#183,.T.);
#77=ADVANCED_FACE('',(#184),#185,.F.);
#78=ADVANCED_FACE('',(#186),#187,.F.);
#79=ADVANCED_FACE('',(#188,#189,#190),#191,.F.);
#80=ADVANCED_FACE('',(#192),#193,.F.);
#81=ADVANCED_FACE('',(#194),#195,.F.);
#82=ADVANCED_FACE('',(#196),#197,.F.);
#83=ADVANCED_FACE('',(#198),#199,.F.);
#84=ADVANCED_FACE('',(#200),#201,.T.);
#85=ADVANCED_FACE('',(#202),#203,.T.);
#86=ADVANCED_FACE('',(#204),#205,.T.);
#87=ADVANCED_FACE('',(#206),#207,.T.);
#88=ADVANCED_FACE('',(#208),#209,.T.);
#89=ADVANCED_FACE('',(#210),#211,.F.);
#90=ADVANCED_FACE('',(#212),#213,.T.);
#91=ADVANCED_FACE('',(#214),#215,.F.);
#92=ADVANCED_FACE('',(#216),#217,.T.);
#93=ADVANCED_FACE('',(#218),#219,.F.);
#94=ADVANCED_FACE('',(#220),#221,.F.);
#95=ADVANCED_FACE('',(#222),#223,.F.);
#96=ADVANCED_FACE('',(#224),#225,.F.);
#97=ADVANCED_FACE('',(#226),#227,.F.);
#98=ADVANCED_FACE('',(#228),#229,.T.);
#99=ADVANCED_FACE('',(#230),#231,.F.);
#100=ADVANCED_FACE('',(#232),#233,.F.);
#101=ADVANCED_FACE('',(#234),#235,.T.);
#102=ADVANCED_FACE('',(#236),#237,.T.);
#103=ADVANCED_FACE('',(#238),#239,.T.);
#104=ADVANCED_FACE('',(#240),#241,.T.);
#105=ADVANCED_FACE('',(#242),#243,.T.);
#106=ADVANCED_FACE('',(#244),#245,.T.);
#107=ADVANCED_FACE('',(#246),#247,.T.);
#108=ADVANCED_FACE('',(#248),#249,.T.);
#109=ADVANCED_FACE('',(#250),#251,.T.);
#110=ADVANCED_FACE('',(#252),#253,.T.);
#111=ADVANCED_FACE('',(#254),#255,.T.);
#112=ADVANCED_FACE('',(#256),#257,.T.);
#113=ADVANCED_FACE('',(#258),#259,.T.);
#114=ADVANCED_FACE('',(#260),#261,.T.);
#115=ADVANCED_FACE('',(#262),#263,.T.);
#116=ADVANCED_FACE('',(#264),#265,.T.);
#118=FACE_OUTER_BOUND('',#266,.T.);
#119=PLANE('',#267);
#120=FACE_OUTER_BOUND('',#268,.T.);
#121=PLANE('',#269);
#122=FACE_OUTER_BOUND('',#270,.T.);
#123=CYLINDRICAL_SURFACE('',#271,1.0);
#124=FACE_OUTER_BOUND('',#272,.T.);
#125=PLANE('',#273);
#126=FACE_OUTER_BOUND('',#274,.T.);
#127=PLANE('',#275);
#128=FACE_OUTER_BOUND('',#276,.T.);
#129=PLANE('',#277);
#130=FACE_OUTER_BOUND('',#278,.T.);
#131=CYLINDRICAL_SURFACE('',#279,1.0);
#132=FACE_OUTER_BOUND('',#280,.T.);
#133=PLANE('',#281);
#134=FACE_OUTER_BOUND('',#282,.T.);
#135=PLANE('',#283);
#136=FACE_OUTER_BOUND('',#284,.T.);
#137=CYLINDRICAL_SURFACE('',#285,0.5);
#138=FACE_OUTER_BOUND('',#286,.T.);
#139=PLANE('',#287);
#140=FACE_OUTER_BOUND('',#288,.T.);
#141=FACE_BOUND('',#289,.T.);
#142=FACE_BOUND('',#290,.T.);
#143=PLANE('',#291);
#144=FACE_OUTER_BOUND('',#292,.T.);
#145=PLANE('',#293);
#146=FACE_OUTER_BOUND('',#294,.T.);
#147=PLANE('',#295);
#148=FACE_OUTER_BOUND('',#296,.T.);
#149=PLANE('',#297);
#150=FACE_OUTER_BOUND('',#298,.T.);
#151=PLANE('',#299);
#152=FACE_OUTER_BOUND('',#300,.T.);
#153=PLANE('',#301);
#154=FACE_OUTER_BOUND('',#302,.T.);
#155=PLANE('',#303);
#156=FACE_OUTER_BOUND('',#304,.T.);
#157=PLANE('',#305);
#158=FACE_OUTER_BOUND('',#306,.T.);
#159=PLANE('',#307);
#160=FACE_OUTER_BOUND('',#308,.T.);
#161=PLANE('',#309);
#162=FACE_OUTER_BOUND('',#310,.T.);
#163=PLANE('',#311);
#164=FACE_OUTER_BOUND('',#312,.T.);
#165=PLANE('',#313);
#166=FACE_OUTER_BOUND('',#314,.T.);
#167=PLANE('',#315);
#168=FACE_OUTER_BOUND('',#316,.T.);
#169=PLANE('',#317);
#170=FACE_OUTER_BOUND('',#318,.T.);
#171=PLANE('',#319);
#172=FACE_OUTER_BOUND('',#320,.T.);
#173=PLANE('',#321);
#174=FACE_OUTER_BOUND('',#322,.T.);
#175=FACE_BOUND('',#323,.T.);
#176=FACE_BOUND('',#324,.T.);
#177=PLANE('',#325);
#178=FACE_OUTER_BOUND('',#326,.T.);
#179=PLANE('',#327);
#180=FACE_OUTER_BOUND('',#328,.T.);
#181=PLANE('',#329);
#182=FACE_OUTER_BOUND('',#330,.T.);
#183=PLANE('',#331);
#184=FACE_OUTER_BOUND('',#332,.T.);
#185=PLANE('',#333);
#186=FACE_OUTER_BOUND('',#334,.T.);
#187=PLANE('',#335);
#188=FACE_OUTER_BOUND('',#336,.T.);
#189=FACE_BOUND('',#337,.T.);
#190=FACE_BOUND('',#338,.T.);
#191=PLANE('',#339);
#192=FACE_OUTER_BOUND('',#340,.T.);
#193=PLANE('',#341);
#194=FACE_OUTER_BOUND('',#342,.T.);
#195=PLANE('',#343);
#196=FACE_OUTER_BOUND('',#344,.T.);
#197=PLANE('',#345);
#198=FACE_OUTER_BOUND('',#346,.T.);
#199=PLANE('',#347);
#200=FACE_OUTER_BOUND('',#348,.T.);
#201=PLANE('',#349);
#202=FACE_OUTER_BOUND('',#350,.T.);
#203=CYLINDRICAL_SURFACE('',#351,1.5);
#204=FACE_OUTER_BOUND('',#352,.T.);
#205=PLANE('',#353);
#206=FACE_OUTER_BOUND('',#354,.T.);
#207=PLANE('',#355);
#208=FACE_OUTER_BOUND('',#356,.T.);
#209=PLANE('',#357);
#210=FACE_OUTER_BOUND('',#358,.T.);
#211=PLANE('',#359);
#212=FACE_OUTER_BOUND('',#360,.T.);
#213=PLANE('',#361);
#214=FACE_OUTER_BOUND('',#362,.T.);
#215=PLANE('',#363);
#216=FACE_OUTER_BOUND('',#364,.T.);
#217=PLANE('',#365);
#218=FACE_OUTER_BOUND('',#366,.T.);
#219=PLANE('',#367);
#220=FACE_OUTER_BOUND('',#368,.T.);
#221=PLANE('',#369);
#222=FACE_OUTER_BOUND('',#370,.T.);
#223=PLANE('',#371);
#224=FACE_OUTER_BOUND('',#372,.T.);
#225=PLANE('',#373);
#226=FACE_OUTER_BOUND('',#374,.T.);
#227=PLANE('',#375);
#228=FACE_OUTER_BOUND('',#376,.T.);
#229=PLANE('',#377);
#230=FACE_OUTER_BOUND('',#378,.T.);
#231=PLANE('',#379);
#232=FACE_OUTER_BOUND('',#380,.T.);
#233=PLANE('',#381);
#234=FACE_OUTER_BOUND('',#382,.T.);
#235=PLANE('',#383);
#236=FACE_OUTER_BOUND('',#384,.T.);
#237=PLANE('',#385);
#238=FACE_OUTER_BOUND('',#386,.T.);
#239=PLANE('',#387);
#240=FACE_OUTER_BOUND('',#388,.T.);
#241=PLANE('',#389);
#242=FACE_OUTER_BOUND('',#390,.T.);
#243=PLANE('',#391);
#244=FACE_OUTER_BOUND('',#392,.T.);
#245=PLANE('',#393);
#246=FACE_OUTER_BOUND('',#394,.T.);
#247=PLANE('',#395);
#248=FACE_OUTER_BOUND('',#396,.T.);
#249=PLANE('',#397);
#250=FACE_OUTER_BOUND('',#398,.T.);
#251=PLANE('',#399);
#252=FACE_OUTER_BOUND('',#400,.T.);
#253=PLANE('',#401);
#254=FACE_OUTER_BOUND('',#402,.T.);
#255=PLANE('',#403);
#256=FACE_OUTER_BOUND('',#404,.T.);
#257=PLANE('',#405);
#258=FACE_OUTER_BOUND('',#406,.T.);
#259=PLANE('',#407);
#260=FACE_OUTER_BOUND('',#408,.T.);
#261=PLANE('',#409);
#262=FACE_OUTER_BOUND('',#410,.T.);
#263=PLANE('',#411);
#264=FACE_OUTER_BOUND('',#412,.T.);
#265=PLANE('',#413);
#266=EDGE_LOOP('',(#414,#415,#416,#417));
#267=AXIS2_PLACEMENT_3D('',#418,#419,#420);
#268=EDGE_LOOP('',(#421,#422,#423,#424));
#269=AXIS2_PLACEMENT_3D('',#425,#426,#427);
#270=EDGE_LOOP('',(#428,#429,#430,#431));
#271=AXIS2_PLACEMENT_3D('',#432,#433,#434);
#272=EDGE_LOOP('',(#435,#436,#437,#438));
#273=AXIS2_PLACEMENT_3D('',#439,#440,#441);
#274=EDGE_LOOP('',(#442,#443,#444,#445));
#275=AXIS2_PLACEMENT_3D('',#446,#447,#448);
#276=EDGE_LOOP('',(#449,#450,#451,#452));
#277=AXIS2_PLACEMENT_3D('',#453,#454,#455);
#278=EDGE_LOOP('',(#456,#457,#458,#459));
#279=AXIS2_PLACEMENT_3D('',#460,#461,#462);
#280=EDGE_LOOP('',(#463,#464,#465,#466));
#281=AXIS2_PLACEMENT_3D('',#467,#468,#469);
#282=EDGE_LOOP('',(#470,#471,#472,#473));
#283=AXIS2_PLACEMENT_3D('',#474,#475,#476);
#284=EDGE_LOOP('',(#477,#478,#479,#480));
#285=AXIS2_PLACEMENT_3D('',#481,#482,#483);
#286=EDGE_LOOP('',(#484,#485,#486,#487));
#287=AXIS2_PLACEMENT_3D('',#488,#489,#490);
#288=EDGE_LOOP('',(#491,#492,#493,#494,#495,#496,#497,#498));
#289=EDGE_LOOP('',(#499,#500,#501,#502));
#290=EDGE_LOOP('',(#503,#504,#505,#506));
#291=AXIS2_PLACEMENT_3D('',#507,#508,#509);
#292=EDGE_LOOP('',(#510,#511,#512,#513));
#293=AXIS2_PLACEMENT_3D('',#514,#515,#516);
#294=EDGE_LOOP('',(#517,#518,#519,#520));
#295=AXIS2_PLACEMENT_3D('',#521,#522,#523);
#296=EDGE_LOOP('',(#524,#525,#526,#527));
#297=AXIS2_PLACEMENT_3D('',#528,#529,#530);
#298=EDGE_LOOP('',(#531,#532,#533,#534));
#299=AXIS2_PLACEMENT_3D('',#535,#536,#537);
#300=EDGE_LOOP('',(#538,#539,#540,#541));
#301=AXIS2_PLACEMENT_3D('',#542,#543,#544);
#302=EDGE_LOOP('',(#545,#546,#547,#548));
#303=AXIS2_PLACEMENT_3D('',#549,#550,#551);
#304=EDGE_LOOP('',(#552,#553,#554,#555));
#305=AXIS2_PLACEMENT_3D('',#556,#557,#558);
#306=EDGE_LOOP('',(#559,#560,#561,#562));
#307=AXIS2_PLACEMENT_3D('',#563,#564,#565);
#308=EDGE_LOOP('',(#566,#567,#568,#569));
#309=AXIS2_PLACEMENT_3D('',#570,#571,#572);
#310=EDGE_LOOP('',(#573,#574,#575,#576));
#311=AXIS2_PLACEMENT_3D('',#577,#578,#579);
#312=EDGE_LOOP('',(#580,#581,#582,#583));
#313=AXIS2_PLACEMENT_3D('',#584,#585,#586);
#314=EDGE_LOOP('',(#587,#588,#589,#590));
#315=AXIS2_PLACEMENT_3D('',#591,#592,#593);
#316=EDGE_LOOP('',(#594,#595,#596,#597));
#317=AXIS2_PLACEMENT_3D('',#598,#599,#600);
#318=EDGE_LOOP('',(#601,#602,#603,#604));
#319=AXIS2_PLACEMENT_3D('',#605,#606,#607);
#320=EDGE_LOOP('',(#608,#609,#610,#611));
#321=AXIS2_PLACEMENT_3D('',#612,#613,#614);
#322=EDGE_LOOP('',(#615,#616,#617,#618));
#323=EDGE_LOOP('',(#619,#620,#621,#622));
#324=EDGE_LOOP('',(#623,#624,#625,#626));
#325=AXIS2_PLACEMENT_3D('',#627,#628,#629);
#326=EDGE_LOOP('',(#630,#631,#632,#633));
#327=AXIS2_PLACEMENT_3D('',#634,#635,#636);
#328=EDGE_LOOP('',(#637,#638,#639,#640));
#329=AXIS2_PLACEMENT_3D('',#641,#642,#643);
#330=EDGE_LOOP('',(#644,#645,#646,#647));
#331=AXIS2_PLACEMENT_3D('',#648,#649,#650);
#332=EDGE_LOOP('',(#651,#652,#653,#654));
#333=AXIS2_PLACEMENT_3D('',#655,#656,#657);
#334=EDGE_LOOP('',(#658,#659,#660,#661));
#335=AXIS2_PLACEMENT_3D('',#662,#663,#664);
#336=EDGE_LOOP('',(#665,#666,#667,#668,#669,#670,#671,#672));
#337=EDGE_LOOP('',(#673,#674,#675,#676));
#338=EDGE_LOOP('',(#677,#678,#679,#680));
#339=AXIS2_PLACEMENT_3D('',#681,#682,#683);
#340=EDGE_LOOP('',(#684,#685,#686,#687));
#341=AXIS2_PLACEMENT_3D('',#688,#689,#690);
#342=EDGE_LOOP('',(#691,#692,#693,#694));
#343=AXIS2_PLACEMENT_3D('',#695,#696,#697);
#344=EDGE_LOOP('',(#698,#699,#700,#701));
#345=AXIS2_PLACEMENT_3D('',#702,#703,#704);
#346=EDGE_LOOP('',(#705,#706,#707,#708));
#347=AXIS2_PLACEMENT_3D('',#709,#710,#711);
#348=EDGE_LOOP('',(#712,#713,#714,#715));
#349=AXIS2_PLACEMENT_3D('',#716,#717,#718);
#350=EDGE_LOOP('',(#719,#720,#721,#722));
#351=AXIS2_PLACEMENT_3D('',#723,#724,#725);
#352=EDGE_LOOP('',(#726,#727,#728,#729,#730,#731,#732,#733,#734,#735,#736,#737,#738,#739,#740,#741,#742,#743,#744));
#353=AXIS2_PLACEMENT_3D('',#745,#746,#747);
#354=EDGE_LOOP('',(#748,#749,#750,#751));
#355=AXIS2_PLACEMENT_3D('',#752,#753,#754);
#356=EDGE_LOOP('',(#755,#756,#757,#758));
#357=AXIS2_PLACEMENT_3D('',#759,#760,#761);
#358=EDGE_LOOP('',(#762,#763,#764,#765));
#359=AXIS2_PLACEMENT_3D('',#766,#767,#768);
#360=EDGE_LOOP('',(#769,#770,#771,#772));
#361=AXIS2_PLACEMENT_3D('',#773,#774,#775);
#362=EDGE_LOOP('',(#776,#777,#778,#779));
#363=AXIS2_PLACEMENT_3D('',#780,#781,#782);
#364=EDGE_LOOP('',(#783,#784,#785,#786,#787,#788,#789,#790,#791,#792,#793,#794,#795,#796,#797,#798,#799,#800,#801));
#365=AXIS2_PLACEMENT_3D('',#802,#803,#804);
#366=EDGE_LOOP('',(#805,#806,#807,#808));
#367=AXIS2_PLACEMENT_3D('',#809,#810,#811);
#368=EDGE_LOOP('',(#812,#813,#814,#815));
#369=AXIS2_PLACEMENT_3D('',#816,#817,#818);
#370=EDGE_LOOP('',(#819,#820,#821,#822));
#371=AXIS2_PLACEMENT_3D('',#823,#824,#825);
#372=EDGE_LOOP('',(#826,#827,#828,#829));
#373=AXIS2_PLACEMENT_3D('',#830,#831,#832);
#374=EDGE_LOOP('',(#833,#834,#835,#836));
#375=AXIS2_PLACEMENT_3D('',#837,#838,#839);
#376=EDGE_LOOP('',(#840,#841,#842,#843));
#377=AXIS2_PLACEMENT_3D('',#844,#845,#846);
#378=EDGE_LOOP('',(#847,#848,#849,#850));
#379=AXIS2_PLACEMENT_3D('',#851,#852,#853);
#380=EDGE_LOOP('',(#854,#855,#856,#857));
#381=AXIS2_PLACEMENT_3D('',#858,#859,#860);
#382=EDGE_LOOP('',(#861,#862,#863,#864));
#383=AXIS2_PLACEMENT_3D('',#865,#866,#867);
#384=EDGE_LOOP('',(#868,#869,#870,#871));
#385=AXIS2_PLACEMENT_3D('',#872,#873,#874);
#386=EDGE_LOOP('',(#875,#876,#877,#878));
#387=AXIS2_PLACEMENT_3D('',#879,#880,#881);
#388=EDGE_LOOP('',(#882,#883,#884,#885));
#389=AXIS2_PLACEMENT_3D('',#886,#887,#888);
#390=EDGE_LOOP('',(#889,#890,#891,#892));
#391=AXIS2_PLACEMENT_3D('',#893,#894,#895);
#392=EDGE_LOOP('',(#896,#897,#898,#899));
#393=AXIS2_PLACEMENT_3D('',#900,#901,#902);
#394=EDGE_LOOP('',(#903,#904,#905,#906));
#395=AXIS2_PLACEMENT_3D('',#907,#908,#909);
#396=EDGE_LOOP('',(#910,#911,#912,#913));
#397=AXIS2_PLACEMENT_3D('',#914,#915,#916);
#398=EDGE_LOOP('',(#917,#918,#919,#920));
#399=AXIS2_PLACEMENT_3D('',#921,#922,#923);
#400=EDGE_LOOP('',(#924,#925,#926,#927));
#401=AXIS2_PLACEMENT_3D('',#928,#929,#930);
#402=EDGE_LOOP('',(#931,#932,#933,#934));
#403=AXIS2_PLACEMENT_3D('',#935,#936,#937);
#404=EDGE_LOOP('',(#938,#939,#940,#941));
#405=AXIS2_PLACEMENT_3D('',#942,#943,#944);
#406=EDGE_LOOP('',(#945,#946,#947,#948));
#407=AXIS2_PLACEMENT_3D('',#949,#950,#951);
#408=EDGE_LOOP('',(#952,#953,#954,#955));
#409=AXIS2_PLACEMENT_3D('',#956,#957,#958);
#410=EDGE_LOOP('',(#959,#960,#961,#962));
#411=AXIS2_PLACEMENT_3D('',#963,#964,#965);
#412=EDGE_LOOP('',(#966,#967,#968,#969));
#413=AXIS2_PLACEMENT_3D('',#970,#971,#972);
#414=ORIENTED_EDGE('',*,*,#973,.F.);
#415=ORIENTED_EDGE('',*,*,#974,.F.);
#416=ORIENTED_EDGE('',*,*,#975,.T.);
#417=ORIENTED_EDGE('',*,*,#976,.F.);
#418=CARTESIAN_POINT('',(2.54,0.0,-5.0));
#419=DIRECTION('',(0.0,0.0,-1.0));
#420=DIRECTION('',(0.0,-1.0,0.0));
#421=ORIENTED_EDGE('',*,*,#977,.T.);
#422=ORIENTED_EDGE('',*,*,#976,.T.);
#423=ORIENTED_EDGE('',*,*,#978,.F.);
#424=ORIENTED_EDGE('',*,*,#979,.F.);
#425=CARTESIAN_POINT('',(2.54,8.5,-3.5));
#426=DIRECTION('',(0.0,-0.447213595499998,0.894427190999896));
#427=DIRECTION('',(-1.0,0.0,0.0));
#428=ORIENTED_EDGE('',*,*,#980,.F.);
#429=ORIENTED_EDGE('',*,*,#979,.T.);
#430=ORIENTED_EDGE('',*,*,#981,.F.);
#431=ORIENTED_EDGE('',*,*,#982,.T.);
#432=CARTESIAN_POINT('',(9.162288,8.558042744427,-4.589012616537));
#433=DIRECTION('',(1.0,0.0,0.0));
#434=DIRECTION('',(0.0,-0.447213595499998,0.894427190999896));
#435=ORIENTED_EDGE('',*,*,#983,.T.);
#436=ORIENTED_EDGE('',*,*,#982,.F.);
#437=ORIENTED_EDGE('',*,*,#984,.F.);
#438=ORIENTED_EDGE('',*,*,#985,.F.);
#439=CARTESIAN_POINT('',(2.54,12.363663603,-4.941741911595));
#440=DIRECTION('',(0.0,0.349606779160112,0.936896525751533));
#441=DIRECTION('',(1.0,-0.0,0.0));
#442=ORIENTED_EDGE('',*,*,#986,.T.);
#443=ORIENTED_EDGE('',*,*,#985,.T.);
#444=ORIENTED_EDGE('',*,*,#987,.F.);
#445=ORIENTED_EDGE('',*,*,#988,.F.);
#446=CARTESIAN_POINT('',(2.54,12.7,-4.0));
#447=DIRECTION('',(0.0,-0.941741911595213,0.336336396997105));
#448=DIRECTION('',(-1.0,0.0,0.0));
#449=ORIENTED_EDGE('',*,*,#989,.T.);
#450=ORIENTED_EDGE('',*,*,#988,.T.);
#451=ORIENTED_EDGE('',*,*,#990,.F.);
#452=ORIENTED_EDGE('',*,*,#991,.F.);
#453=CARTESIAN_POINT('',(2.54,8.5,-2.5));
#454=DIRECTION('',(0.0,-0.336336396998207,-0.941741911594819));
#455=DIRECTION('',(0.0,-0.941741911594819,0.336336396998207));
#456=ORIENTED_EDGE('',*,*,#992,.F.);
#457=ORIENTED_EDGE('',*,*,#991,.T.);
#458=ORIENTED_EDGE('',*,*,#993,.F.);
#459=ORIENTED_EDGE('',*,*,#994,.T.);
#460=CARTESIAN_POINT('',(9.162288,8.565533924598,-3.585267026451));
#461=DIRECTION('',(1.0,0.0,0.0));
#462=DIRECTION('',(0.0,-0.447213595499998,0.894427190999896));
#463=ORIENTED_EDGE('',*,*,#995,.T.);
#464=ORIENTED_EDGE('',*,*,#994,.F.);
#465=ORIENTED_EDGE('',*,*,#996,.F.);
#466=ORIENTED_EDGE('',*,*,#997,.F.);
#467=CARTESIAN_POINT('',(2.54,5.5,-4.0));
#468=DIRECTION('',(0.0,0.447213595499998,-0.894427190999896));
#469=DIRECTION('',(-1.0,0.0,0.0));
#470=ORIENTED_EDGE('',*,*,#998,.T.);
#471=ORIENTED_EDGE('',*,*,#997,.T.);
#472=ORIENTED_EDGE('',*,*,#999,.F.);
#473=ORIENTED_EDGE('',*,*,#1000,.F.);
#474=CARTESIAN_POINT('',(2.54,2.8,-4.0));
#475=DIRECTION('',(0.0,0.0,-1.0));
#476=DIRECTION('',(0.0,-1.0,0.0));
#477=ORIENTED_EDGE('',*,*,#1001,.T.);
#478=ORIENTED_EDGE('',*,*,#1000,.T.);
#479=ORIENTED_EDGE('',*,*,#1002,.F.);
#480=ORIENTED_EDGE('',*,*,#1003,.F.);
#481=CARTESIAN_POINT('',(2.54,2.8,-3.5));
#482=DIRECTION('',(-1.0,0.0,-0.0));
#483=DIRECTION('',(0.0,0.0,-1.0));
#484=ORIENTED_EDGE('',*,*,#1004,.T.);
#485=ORIENTED_EDGE('',*,*,#1003,.T.);
#486=ORIENTED_EDGE('',*,*,#1005,.F.);
#487=ORIENTED_EDGE('',*,*,#1006,.T.);
#488=CARTESIAN_POINT('',(2.54,3.2,-2.0));
#489=DIRECTION('',(0.0,-0.857492925712544,0.514495755427527));
#490=DIRECTION('',(-1.0,0.0,0.0));
#491=ORIENTED_EDGE('',*,*,#1007,.F.);
#492=ORIENTED_EDGE('',*,*,#1008,.T.);
#493=ORIENTED_EDGE('',*,*,#1009,.T.);
#494=ORIENTED_EDGE('',*,*,#1006,.F.);
#495=ORIENTED_EDGE('',*,*,#1010,.F.);
#496=ORIENTED_EDGE('',*,*,#1011,.T.);
#497=ORIENTED_EDGE('',*,*,#1012,.T.);
#498=ORIENTED_EDGE('',*,*,#1013,.T.);
#499=ORIENTED_EDGE('',*,*,#1014,.T.);
#500=ORIENTED_EDGE('',*,*,#1015,.F.);
#501=ORIENTED_EDGE('',*,*,#1016,.F.);
#502=ORIENTED_EDGE('',*,*,#1017,.T.);
#503=ORIENTED_EDGE('',*,*,#1018,.T.);
#504=ORIENTED_EDGE('',*,*,#1019,.F.);
#505=ORIENTED_EDGE('',*,*,#1020,.F.);
#506=ORIENTED_EDGE('',*,*,#1021,.T.);
#507=CARTESIAN_POINT('',(2.54,3.2,5.0));
#508=DIRECTION('',(0.0,-1.0,0.0));
#509=DIRECTION('',(0.0,0.0,-1.0));
#510=ORIENTED_EDGE('',*,*,#1022,.F.);
#511=ORIENTED_EDGE('',*,*,#1021,.F.);
#512=ORIENTED_EDGE('',*,*,#1023,.F.);
#513=ORIENTED_EDGE('',*,*,#1024,.T.);
#514=CARTESIAN_POINT('',(-5.645,0.0,0.0));
#515=DIRECTION('',(1.0,0.0,0.0));
#516=DIRECTION('',(0.0,1.0,0.0));
#517=ORIENTED_EDGE('',*,*,#1025,.F.);
#518=ORIENTED_EDGE('',*,*,#1026,.T.);
#519=ORIENTED_EDGE('',*,*,#1027,.F.);
#520=ORIENTED_EDGE('',*,*,#1028,.T.);
#521=CARTESIAN_POINT('',(-5.645,0.0,0.0));
#522=DIRECTION('',(1.0,0.0,0.0));
#523=DIRECTION('',(0.0,1.0,0.0));
#524=ORIENTED_EDGE('',*,*,#1029,.F.);
#525=ORIENTED_EDGE('',*,*,#1030,.T.);
#526=ORIENTED_EDGE('',*,*,#1031,.T.);
#527=ORIENTED_EDGE('',*,*,#1024,.F.);
#528=CARTESIAN_POINT('',(-5.495,13.3,-0.65));
#529=DIRECTION('',(-0.957826285221168,0.28734788556629,0.0));
#530=DIRECTION('',(0.0,0.0,1.0));
#531=ORIENTED_EDGE('',*,*,#1031,.F.);
#532=ORIENTED_EDGE('',*,*,#1032,.F.);
#533=ORIENTED_EDGE('',*,*,#1033,.T.);
#534=ORIENTED_EDGE('',*,*,#1034,.T.);
#535=CARTESIAN_POINT('',(-5.08,13.3,-1.065));
#536=DIRECTION('',(0.0,0.28734788556629,-0.957826285221168));
#537=DIRECTION('',(-1.0,0.0,0.0));
#538=ORIENTED_EDGE('',*,*,#1035,.F.);
#539=ORIENTED_EDGE('',*,*,#1018,.F.);
#540=ORIENTED_EDGE('',*,*,#1022,.T.);
#541=ORIENTED_EDGE('',*,*,#1034,.F.);
#542=CARTESIAN_POINT('',(-5.645,3.2,-1.215));
#543=DIRECTION('',(0.0,0.0,-1.0));
#544=DIRECTION('',(0.0,-1.0,0.0));
#545=ORIENTED_EDGE('',*,*,#1036,.T.);
#546=ORIENTED_EDGE('',*,*,#1019,.T.);
#547=ORIENTED_EDGE('',*,*,#1035,.T.);
#548=ORIENTED_EDGE('',*,*,#1037,.T.);
#549=CARTESIAN_POINT('',(-4.515,0.0,0.0));
#550=DIRECTION('',(1.0,0.0,0.0));
#551=DIRECTION('',(0.0,1.0,0.0));
#552=ORIENTED_EDGE('',*,*,#1038,.T.);
#553=ORIENTED_EDGE('',*,*,#1039,.F.);
#554=ORIENTED_EDGE('',*,*,#1040,.T.);
#555=ORIENTED_EDGE('',*,*,#1041,.T.);
#556=CARTESIAN_POINT('',(-4.515,0.0,0.0));
#557=DIRECTION('',(1.0,0.0,0.0));
#558=DIRECTION('',(0.0,1.0,0.0));
#559=ORIENTED_EDGE('',*,*,#1042,.F.);
#560=ORIENTED_EDGE('',*,*,#1037,.F.);
#561=ORIENTED_EDGE('',*,*,#1033,.F.);
#562=ORIENTED_EDGE('',*,*,#1043,.T.);
#563=CARTESIAN_POINT('',(-4.665,13.3,-0.65));
#564=DIRECTION('',(0.957826285221168,0.28734788556629,0.0));
#565=DIRECTION('',(0.0,0.0,-1.0));
#566=ORIENTED_EDGE('',*,*,#1032,.T.);
#567=ORIENTED_EDGE('',*,*,#1030,.F.);
#568=ORIENTED_EDGE('',*,*,#1044,.F.);
#569=ORIENTED_EDGE('',*,*,#1043,.F.);
#570=CARTESIAN_POINT('',(-5.645,13.8,-1.215));
#571=DIRECTION('',(-0.0,1.0,0.0));
#572=DIRECTION('',(1.0,0.0,0.0));
#573=ORIENTED_EDGE('',*,*,#1042,.T.);
#574=ORIENTED_EDGE('',*,*,#1044,.T.);
#575=ORIENTED_EDGE('',*,*,#1029,.T.);
#576=ORIENTED_EDGE('',*,*,#1045,.F.);
#577=CARTESIAN_POINT('',(-5.08,13.3,-0.235));
#578=DIRECTION('',(0.0,0.28734788556629,0.957826285221168));
#579=DIRECTION('',(1.0,-0.0,0.0));
#580=ORIENTED_EDGE('',*,*,#1023,.T.);
#581=ORIENTED_EDGE('',*,*,#1020,.T.);
#582=ORIENTED_EDGE('',*,*,#1036,.F.);
#583=ORIENTED_EDGE('',*,*,#1045,.T.);
#584=CARTESIAN_POINT('',(-5.645,13.8,-0.085));
#585=DIRECTION('',(0.0,0.0,1.0));
#586=DIRECTION('',(1.0,0.0,0.0));
#587=ORIENTED_EDGE('',*,*,#1046,.F.);
#588=ORIENTED_EDGE('',*,*,#1041,.F.);
#589=ORIENTED_EDGE('',*,*,#1047,.F.);
#590=ORIENTED_EDGE('',*,*,#1048,.T.);
#591=CARTESIAN_POINT('',(-4.665,-3.2,-0.65));
#592=DIRECTION('',(0.957826285221168,-0.28734788556629,0.0));
#593=DIRECTION('',(0.0,0.0,-1.0));
#594=ORIENTED_EDGE('',*,*,#1048,.F.);
#595=ORIENTED_EDGE('',*,*,#1049,.T.);
#596=ORIENTED_EDGE('',*,*,#1050,.F.);
#597=ORIENTED_EDGE('',*,*,#1051,.F.);
#598=CARTESIAN_POINT('',(-5.645,-3.7,-0.085));
#599=DIRECTION('',(0.0,-1.0,0.0));
#600=DIRECTION('',(0.0,0.0,-1.0));
#601=ORIENTED_EDGE('',*,*,#1046,.T.);
#602=ORIENTED_EDGE('',*,*,#1051,.T.);
#603=ORIENTED_EDGE('',*,*,#1052,.T.);
#604=ORIENTED_EDGE('',*,*,#1053,.F.);
#605=CARTESIAN_POINT('',(-5.08,-3.2,-1.065));
#606=DIRECTION('',(0.0,-0.28734788556629,-0.957826285221168));
#607=DIRECTION('',(0.0,-0.957826285221168,0.28734788556629));
#608=ORIENTED_EDGE('',*,*,#1027,.T.);
#609=ORIENTED_EDGE('',*,*,#1054,.T.);
#610=ORIENTED_EDGE('',*,*,#1038,.F.);
#611=ORIENTED_EDGE('',*,*,#1053,.T.);
#612=CARTESIAN_POINT('',(-5.645,-3.7,-1.215));
#613=DIRECTION('',(0.0,0.0,-1.0));
#614=DIRECTION('',(0.0,-1.0,0.0));
#615=ORIENTED_EDGE('',*,*,#1055,.T.);
#616=ORIENTED_EDGE('',*,*,#1056,.F.);
#617=ORIENTED_EDGE('',*,*,#1057,.F.);
#618=ORIENTED_EDGE('',*,*,#1058,.F.);
#619=ORIENTED_EDGE('',*,*,#1059,.T.);
#620=ORIENTED_EDGE('',*,*,#1039,.T.);
#621=ORIENTED_EDGE('',*,*,#1054,.F.);
#622=ORIENTED_EDGE('',*,*,#1026,.F.);
#623=ORIENTED_EDGE('',*,*,#1060,.T.);
#624=ORIENTED_EDGE('',*,*,#1061,.T.);
#625=ORIENTED_EDGE('',*,*,#1062,.F.);
#626=ORIENTED_EDGE('',*,*,#1063,.F.);
#627=CARTESIAN_POINT('',(2.54,0.5,-2.15));
#628=DIRECTION('',(-0.0,1.0,0.0));
#629=DIRECTION('',(1.0,0.0,0.0));
#630=ORIENTED_EDGE('',*,*,#1040,.F.);
#631=ORIENTED_EDGE('',*,*,#1059,.F.);
#632=ORIENTED_EDGE('',*,*,#1025,.T.);
#633=ORIENTED_EDGE('',*,*,#1064,.F.);
#634=CARTESIAN_POINT('',(-5.645,0.5,-0.085));
#635=DIRECTION('',(0.0,0.0,1.0));
#636=DIRECTION('',(1.0,0.0,0.0));
#637=ORIENTED_EDGE('',*,*,#1047,.T.);
#638=ORIENTED_EDGE('',*,*,#1064,.T.);
#639=ORIENTED_EDGE('',*,*,#1065,.T.);
#640=ORIENTED_EDGE('',*,*,#1049,.F.);
#641=CARTESIAN_POINT('',(-5.08,-3.2,-0.235));
#642=DIRECTION('',(0.0,-0.28734788556629,0.957826285221168));
#643=DIRECTION('',(-1.0,0.0,0.0));
#644=ORIENTED_EDGE('',*,*,#1065,.F.);
#645=ORIENTED_EDGE('',*,*,#1028,.F.);
#646=ORIENTED_EDGE('',*,*,#1052,.F.);
#647=ORIENTED_EDGE('',*,*,#1050,.T.);
#648=CARTESIAN_POINT('',(-5.495,-3.2,-0.65));
#649=DIRECTION('',(-0.957826285221168,-0.28734788556629,0.0));
#650=DIRECTION('',(-0.28734788556629,0.957826285221168,0.0));
#651=ORIENTED_EDGE('',*,*,#1066,.T.);
#652=ORIENTED_EDGE('',*,*,#1058,.T.);
#653=ORIENTED_EDGE('',*,*,#1067,.F.);
#654=ORIENTED_EDGE('',*,*,#1068,.T.);
#655=CARTESIAN_POINT('',(2.54,0.0,-2.65));
#656=DIRECTION('',(0.0,0.707106781186548,-0.707106781186548));
#657=DIRECTION('',(-1.0,0.0,0.0));
#658=ORIENTED_EDGE('',*,*,#1069,.F.);
#659=ORIENTED_EDGE('',*,*,#1068,.F.);
#660=ORIENTED_EDGE('',*,*,#1070,.F.);
#661=ORIENTED_EDGE('',*,*,#1071,.F.);
#662=CARTESIAN_POINT('',(0.0,0.0,0.0));
#663=DIRECTION('',(-0.0,1.0,0.0));
#664=DIRECTION('',(1.0,0.0,0.0));
#665=ORIENTED_EDGE('',*,*,#1072,.F.);
#666=ORIENTED_EDGE('',*,*,#1073,.T.);
#667=ORIENTED_EDGE('',*,*,#1074,.F.);
#668=ORIENTED_EDGE('',*,*,#1075,.F.);
#669=ORIENTED_EDGE('',*,*,#1076,.F.);
#670=ORIENTED_EDGE('',*,*,#1077,.T.);
#671=ORIENTED_EDGE('',*,*,#1078,.T.);
#672=ORIENTED_EDGE('',*,*,#1079,.F.);
#673=ORIENTED_EDGE('',*,*,#1080,.F.);
#674=ORIENTED_EDGE('',*,*,#1081,.F.);
#675=ORIENTED_EDGE('',*,*,#1082,.F.);
#676=ORIENTED_EDGE('',*,*,#1083,.F.);
#677=ORIENTED_EDGE('',*,*,#1084,.F.);
#678=ORIENTED_EDGE('',*,*,#1085,.F.);
#679=ORIENTED_EDGE('',*,*,#1086,.F.);
#680=ORIENTED_EDGE('',*,*,#1087,.F.);
#681=CARTESIAN_POINT('',(0.0,0.0,0.0));
#682=DIRECTION('',(-0.0,1.0,0.0));
#683=DIRECTION('',(1.0,0.0,0.0));
#684=ORIENTED_EDGE('',*,*,#1088,.T.);
#685=ORIENTED_EDGE('',*,*,#1089,.F.);
#686=ORIENTED_EDGE('',*,*,#1090,.F.);
#687=ORIENTED_EDGE('',*,*,#1083,.T.);
#688=CARTESIAN_POINT('',(-6.62,0.0,2.35));
#689=DIRECTION('',(0.0,0.0,-1.0));
#690=DIRECTION('',(0.0,-1.0,0.0));
#691=ORIENTED_EDGE('',*,*,#1090,.T.);
#692=ORIENTED_EDGE('',*,*,#1091,.F.);
#693=ORIENTED_EDGE('',*,*,#1092,.F.);
#694=ORIENTED_EDGE('',*,*,#1080,.T.);
#695=CARTESIAN_POINT('',(-6.62,0.0,4.0));
#696=DIRECTION('',(-1.0,0.0,0.0));
#697=DIRECTION('',(0.0,0.0,1.0));
#698=ORIENTED_EDGE('',*,*,#1092,.T.);
#699=ORIENTED_EDGE('',*,*,#1093,.F.);
#700=ORIENTED_EDGE('',*,*,#1094,.F.);
#701=ORIENTED_EDGE('',*,*,#1081,.T.);
#702=CARTESIAN_POINT('',(-3.54,0.0,4.0));
#703=DIRECTION('',(0.0,0.0,1.0));
#704=DIRECTION('',(1.0,0.0,0.0));
#705=ORIENTED_EDGE('',*,*,#1094,.T.);
#706=ORIENTED_EDGE('',*,*,#1095,.F.);
#707=ORIENTED_EDGE('',*,*,#1088,.F.);
#708=ORIENTED_EDGE('',*,*,#1082,.T.);
#709=CARTESIAN_POINT('',(-3.54,0.0,2.35));
#710=DIRECTION('',(1.0,0.0,0.0));
#711=DIRECTION('',(0.0,1.0,0.0));
#712=ORIENTED_EDGE('',*,*,#1095,.T.);
#713=ORIENTED_EDGE('',*,*,#1093,.T.);
#714=ORIENTED_EDGE('',*,*,#1091,.T.);
#715=ORIENTED_EDGE('',*,*,#1089,.T.);
#716=CARTESIAN_POINT('',(-5.08,2.4,0.0));
#717=DIRECTION('',(0.0,-1.0,0.0));
#718=DIRECTION('',(0.0,0.0,-1.0));
#719=ORIENTED_EDGE('',*,*,#1096,.F.);
#720=ORIENTED_EDGE('',*,*,#1071,.T.);
#721=ORIENTED_EDGE('',*,*,#1097,.T.);
#722=ORIENTED_EDGE('',*,*,#974,.T.);
#723=CARTESIAN_POINT('',(2.54,1.5,-3.5));
#724=DIRECTION('',(-1.0,0.0,-0.0));
#725=DIRECTION('',(0.0,0.0,-1.0));
#726=ORIENTED_EDGE('',*,*,#990,.T.);
#727=ORIENTED_EDGE('',*,*,#987,.T.);
#728=ORIENTED_EDGE('',*,*,#984,.T.);
#729=ORIENTED_EDGE('',*,*,#981,.T.);
#730=ORIENTED_EDGE('',*,*,#978,.T.);
#731=ORIENTED_EDGE('',*,*,#975,.F.);
#732=ORIENTED_EDGE('',*,*,#1097,.F.);
#733=ORIENTED_EDGE('',*,*,#1070,.T.);
#734=ORIENTED_EDGE('',*,*,#1067,.T.);
#735=ORIENTED_EDGE('',*,*,#1057,.T.);
#736=ORIENTED_EDGE('',*,*,#1098,.T.);
#737=ORIENTED_EDGE('',*,*,#1074,.T.);
#738=ORIENTED_EDGE('',*,*,#1099,.T.);
#739=ORIENTED_EDGE('',*,*,#1010,.T.);
#740=ORIENTED_EDGE('',*,*,#1005,.T.);
#741=ORIENTED_EDGE('',*,*,#1002,.T.);
#742=ORIENTED_EDGE('',*,*,#999,.T.);
#743=ORIENTED_EDGE('',*,*,#996,.T.);
#744=ORIENTED_EDGE('',*,*,#993,.T.);
#745=CARTESIAN_POINT('',(-7.62,0.0,-5.0));
#746=DIRECTION('',(-1.0,0.0,0.0));
#747=DIRECTION('',(0.0,0.0,1.0));
#748=ORIENTED_EDGE('',*,*,#1077,.F.);
#749=ORIENTED_EDGE('',*,*,#1100,.T.);
#750=ORIENTED_EDGE('',*,*,#1008,.F.);
#751=ORIENTED_EDGE('',*,*,#1101,.F.);
#752=CARTESIAN_POINT('',(-2.54,0.0,5.0));
#753=DIRECTION('',(0.0,0.0,1.0));
#754=DIRECTION('',(1.0,0.0,0.0));
#755=ORIENTED_EDGE('',*,*,#1011,.F.);
#756=ORIENTED_EDGE('',*,*,#1099,.F.);
#757=ORIENTED_EDGE('',*,*,#1073,.F.);
#758=ORIENTED_EDGE('',*,*,#1102,.T.);
#759=CARTESIAN_POINT('',(-2.54,0.0,5.0));
#760=DIRECTION('',(0.0,0.0,1.0));
#761=DIRECTION('',(1.0,0.0,0.0));
#762=ORIENTED_EDGE('',*,*,#1101,.T.);
#763=ORIENTED_EDGE('',*,*,#1007,.T.);
#764=ORIENTED_EDGE('',*,*,#1103,.F.);
#765=ORIENTED_EDGE('',*,*,#1078,.F.);
#766=CARTESIAN_POINT('',(0.565,0.0,5.0));
#767=DIRECTION('',(1.0,0.0,0.0));
#768=DIRECTION('',(0.0,1.0,0.0));
#769=ORIENTED_EDGE('',*,*,#1103,.T.);
#770=ORIENTED_EDGE('',*,*,#1013,.F.);
#771=ORIENTED_EDGE('',*,*,#1104,.T.);
#772=ORIENTED_EDGE('',*,*,#1079,.T.);
#773=CARTESIAN_POINT('',(0.0,0.0,4.7));
#774=DIRECTION('',(0.0,0.0,1.0));
#775=DIRECTION('',(1.0,0.0,0.0));
#776=ORIENTED_EDGE('',*,*,#1104,.F.);
#777=ORIENTED_EDGE('',*,*,#1012,.F.);
#778=ORIENTED_EDGE('',*,*,#1102,.F.);
#779=ORIENTED_EDGE('',*,*,#1072,.T.);
#780=CARTESIAN_POINT('',(-4.515,3.2,5.0));
#781=DIRECTION('',(-1.0,0.0,0.0));
#782=DIRECTION('',(0.0,0.0,1.0));
#783=ORIENTED_EDGE('',*,*,#995,.F.);
#784=ORIENTED_EDGE('',*,*,#998,.F.);
#785=ORIENTED_EDGE('',*,*,#1001,.F.);
#786=ORIENTED_EDGE('',*,*,#1004,.F.);
#787=ORIENTED_EDGE('',*,*,#1009,.F.);
#788=ORIENTED_EDGE('',*,*,#1100,.F.);
#789=ORIENTED_EDGE('',*,*,#1076,.T.);
#790=ORIENTED_EDGE('',*,*,#1105,.F.);
#791=ORIENTED_EDGE('',*,*,#1055,.F.);
#792=ORIENTED_EDGE('',*,*,#1066,.F.);
#793=ORIENTED_EDGE('',*,*,#1069,.T.);
#794=ORIENTED_EDGE('',*,*,#1096,.T.);
#795=ORIENTED_EDGE('',*,*,#973,.T.);
#796=ORIENTED_EDGE('',*,*,#977,.F.);
#797=ORIENTED_EDGE('',*,*,#980,.T.);
#798=ORIENTED_EDGE('',*,*,#983,.F.);
#799=ORIENTED_EDGE('',*,*,#986,.F.);
#800=ORIENTED_EDGE('',*,*,#989,.F.);
#801=ORIENTED_EDGE('',*,*,#992,.T.);
#802=CARTESIAN_POINT('',(2.54,0.0,5.0));
#803=DIRECTION('',(1.0,0.0,0.0));
#804=DIRECTION('',(0.0,1.0,0.0));
#805=ORIENTED_EDGE('',*,*,#1105,.T.);
#806=ORIENTED_EDGE('',*,*,#1075,.T.);
#807=ORIENTED_EDGE('',*,*,#1098,.F.);
#808=ORIENTED_EDGE('',*,*,#1056,.T.);
#809=CARTESIAN_POINT('',(2.54,0.5,0.85));
#810=DIRECTION('',(0.0,0.707106781186548,0.707106781186548));
#811=DIRECTION('',(1.0,0.0,-0.0));
#812=ORIENTED_EDGE('',*,*,#1106,.T.);
#813=ORIENTED_EDGE('',*,*,#1107,.F.);
#814=ORIENTED_EDGE('',*,*,#1108,.F.);
#815=ORIENTED_EDGE('',*,*,#1087,.T.);
#816=CARTESIAN_POINT('',(-1.54,0.0,2.35));
#817=DIRECTION('',(0.0,0.0,-1.0));
#818=DIRECTION('',(0.0,-1.0,0.0));
#819=ORIENTED_EDGE('',*,*,#1108,.T.);
#820=ORIENTED_EDGE('',*,*,#1109,.F.);
#821=ORIENTED_EDGE('',*,*,#1110,.F.);
#822=ORIENTED_EDGE('',*,*,#1084,.T.);
#823=CARTESIAN_POINT('',(-1.54,0.0,4.0));
#824=DIRECTION('',(-1.0,0.0,0.0));
#825=DIRECTION('',(0.0,0.0,1.0));
#826=ORIENTED_EDGE('',*,*,#1110,.T.);
#827=ORIENTED_EDGE('',*,*,#1111,.F.);
#828=ORIENTED_EDGE('',*,*,#1112,.F.);
#829=ORIENTED_EDGE('',*,*,#1085,.T.);
#830=CARTESIAN_POINT('',(1.54,0.0,4.0));
#831=DIRECTION('',(0.0,0.0,1.0));
#832=DIRECTION('',(1.0,0.0,0.0));
#833=ORIENTED_EDGE('',*,*,#1112,.T.);
#834=ORIENTED_EDGE('',*,*,#1113,.F.);
#835=ORIENTED_EDGE('',*,*,#1106,.F.);
#836=ORIENTED_EDGE('',*,*,#1086,.T.);
#837=CARTESIAN_POINT('',(1.54,0.0,2.35));
#838=DIRECTION('',(1.0,0.0,0.0));
#839=DIRECTION('',(0.0,1.0,0.0));
#840=ORIENTED_EDGE('',*,*,#1113,.T.);
#841=ORIENTED_EDGE('',*,*,#1111,.T.);
#842=ORIENTED_EDGE('',*,*,#1109,.T.);
#843=ORIENTED_EDGE('',*,*,#1107,.T.);
#844=CARTESIAN_POINT('',(0.0,2.4,0.0));
#845=DIRECTION('',(0.0,-1.0,0.0));
#846=DIRECTION('',(0.0,0.0,-1.0));
#847=ORIENTED_EDGE('',*,*,#1114,.F.);
#848=ORIENTED_EDGE('',*,*,#1017,.F.);
#849=ORIENTED_EDGE('',*,*,#1115,.F.);
#850=ORIENTED_EDGE('',*,*,#1116,.T.);
#851=CARTESIAN_POINT('',(-0.565,0.0,0.0));
#852=DIRECTION('',(1.0,0.0,0.0));
#853=DIRECTION('',(0.0,1.0,0.0));
#854=ORIENTED_EDGE('',*,*,#1117,.F.);
#855=ORIENTED_EDGE('',*,*,#1063,.T.);
#856=ORIENTED_EDGE('',*,*,#1118,.F.);
#857=ORIENTED_EDGE('',*,*,#1119,.T.);
#858=CARTESIAN_POINT('',(-0.565,0.0,0.0));
#859=DIRECTION('',(1.0,0.0,0.0));
#860=DIRECTION('',(0.0,1.0,0.0));
#861=ORIENTED_EDGE('',*,*,#1120,.F.);
#862=ORIENTED_EDGE('',*,*,#1121,.T.);
#863=ORIENTED_EDGE('',*,*,#1122,.T.);
#864=ORIENTED_EDGE('',*,*,#1116,.F.);
#865=CARTESIAN_POINT('',(-0.415,13.3,-0.65));
#866=DIRECTION('',(-0.957826285221168,0.28734788556629,0.0));
#867=DIRECTION('',(0.0,0.0,1.0));
#868=ORIENTED_EDGE('',*,*,#1122,.F.);
#869=ORIENTED_EDGE('',*,*,#1123,.F.);
#870=ORIENTED_EDGE('',*,*,#1124,.T.);
#871=ORIENTED_EDGE('',*,*,#1125,.T.);
#872=CARTESIAN_POINT('',(0.0,13.3,-1.065));
#873=DIRECTION('',(0.0,0.28734788556629,-0.957826285221168));
#874=DIRECTION('',(-1.0,0.0,0.0));
#875=ORIENTED_EDGE('',*,*,#1126,.F.);
#876=ORIENTED_EDGE('',*,*,#1014,.F.);
#877=ORIENTED_EDGE('',*,*,#1114,.T.);
#878=ORIENTED_EDGE('',*,*,#1125,.F.);
#879=CARTESIAN_POINT('',(-0.565,3.2,-1.215));
#880=DIRECTION('',(0.0,0.0,-1.0));
#881=DIRECTION('',(0.0,-1.0,0.0));
#882=ORIENTED_EDGE('',*,*,#1127,.T.);
#883=ORIENTED_EDGE('',*,*,#1015,.T.);
#884=ORIENTED_EDGE('',*,*,#1126,.T.);
#885=ORIENTED_EDGE('',*,*,#1128,.T.);
#886=CARTESIAN_POINT('',(0.565,0.0,0.0));
#887=DIRECTION('',(1.0,0.0,0.0));
#888=DIRECTION('',(0.0,1.0,0.0));
#889=ORIENTED_EDGE('',*,*,#1129,.T.);
#890=ORIENTED_EDGE('',*,*,#1061,.F.);
#891=ORIENTED_EDGE('',*,*,#1130,.T.);
#892=ORIENTED_EDGE('',*,*,#1131,.T.);
#893=CARTESIAN_POINT('',(0.565,0.0,0.0));
#894=DIRECTION('',(1.0,0.0,0.0));
#895=DIRECTION('',(0.0,1.0,0.0));
#896=ORIENTED_EDGE('',*,*,#1132,.F.);
#897=ORIENTED_EDGE('',*,*,#1128,.F.);
#898=ORIENTED_EDGE('',*,*,#1124,.F.);
#899=ORIENTED_EDGE('',*,*,#1133,.T.);
#900=CARTESIAN_POINT('',(0.415,13.3,-0.65));
#901=DIRECTION('',(0.957826285221168,0.28734788556629,0.0));
#902=DIRECTION('',(0.0,0.0,-1.0));
#903=ORIENTED_EDGE('',*,*,#1123,.T.);
#904=ORIENTED_EDGE('',*,*,#1121,.F.);
#905=ORIENTED_EDGE('',*,*,#1134,.F.);
#906=ORIENTED_EDGE('',*,*,#1133,.F.);
#907=CARTESIAN_POINT('',(-0.565,13.8,-1.215));
#908=DIRECTION('',(-0.0,1.0,0.0));
#909=DIRECTION('',(1.0,0.0,0.0));
#910=ORIENTED_EDGE('',*,*,#1132,.T.);
#911=ORIENTED_EDGE('',*,*,#1134,.T.);
#912=ORIENTED_EDGE('',*,*,#1120,.T.);
#913=ORIENTED_EDGE('',*,*,#1135,.F.);
#914=CARTESIAN_POINT('',(0.0,13.3,-0.235));
#915=DIRECTION('',(0.0,0.28734788556629,0.957826285221168));
#916=DIRECTION('',(1.0,-0.0,0.0));
#917=ORIENTED_EDGE('',*,*,#1115,.T.);
#918=ORIENTED_EDGE('',*,*,#1016,.T.);
#919=ORIENTED_EDGE('',*,*,#1127,.F.);
#920=ORIENTED_EDGE('',*,*,#1135,.T.);
#921=CARTESIAN_POINT('',(-0.565,13.8,-0.085));
#922=DIRECTION('',(0.0,0.0,1.0));
#923=DIRECTION('',(1.0,0.0,0.0));
#924=ORIENTED_EDGE('',*,*,#1136,.F.);
#925=ORIENTED_EDGE('',*,*,#1131,.F.);
#926=ORIENTED_EDGE('',*,*,#1137,.F.);
#927=ORIENTED_EDGE('',*,*,#1138,.T.);
#928=CARTESIAN_POINT('',(0.415,-3.2,-0.65));
#929=DIRECTION('',(0.957826285221168,-0.28734788556629,0.0));
#930=DIRECTION('',(0.0,0.0,-1.0));
#931=ORIENTED_EDGE('',*,*,#1138,.F.);
#932=ORIENTED_EDGE('',*,*,#1139,.T.);
#933=ORIENTED_EDGE('',*,*,#1140,.F.);
#934=ORIENTED_EDGE('',*,*,#1141,.F.);
#935=CARTESIAN_POINT('',(-0.565,-3.7,-0.085));
#936=DIRECTION('',(0.0,-1.0,0.0));
#937=DIRECTION('',(0.0,0.0,-1.0));
#938=ORIENTED_EDGE('',*,*,#1136,.T.);
#939=ORIENTED_EDGE('',*,*,#1141,.T.);
#940=ORIENTED_EDGE('',*,*,#1142,.T.);
#941=ORIENTED_EDGE('',*,*,#1143,.F.);
#942=CARTESIAN_POINT('',(0.0,-3.2,-1.065));
#943=DIRECTION('',(0.0,-0.28734788556629,-0.957826285221168));
#944=DIRECTION('',(0.0,-0.957826285221168,0.28734788556629));
#945=ORIENTED_EDGE('',*,*,#1118,.T.);
#946=ORIENTED_EDGE('',*,*,#1062,.T.);
#947=ORIENTED_EDGE('',*,*,#1129,.F.);
#948=ORIENTED_EDGE('',*,*,#1143,.T.);
#949=CARTESIAN_POINT('',(-0.565,-3.7,-1.215));
#950=DIRECTION('',(0.0,0.0,-1.0));
#951=DIRECTION('',(0.0,-1.0,0.0));
#952=ORIENTED_EDGE('',*,*,#1144,.F.);
#953=ORIENTED_EDGE('',*,*,#1119,.F.);
#954=ORIENTED_EDGE('',*,*,#1142,.F.);
#955=ORIENTED_EDGE('',*,*,#1140,.T.);
#956=CARTESIAN_POINT('',(-0.415,-3.2,-0.65));
#957=DIRECTION('',(-0.957826285221168,-0.28734788556629,0.0));
#958=DIRECTION('',(-0.28734788556629,0.957826285221168,0.0));
#959=ORIENTED_EDGE('',*,*,#1137,.T.);
#960=ORIENTED_EDGE('',*,*,#1145,.T.);
#961=ORIENTED_EDGE('',*,*,#1144,.T.);
#962=ORIENTED_EDGE('',*,*,#1139,.F.);
#963=CARTESIAN_POINT('',(0.0,-3.2,-0.235));
#964=DIRECTION('',(0.0,-0.28734788556629,0.957826285221168));
#965=DIRECTION('',(-1.0,0.0,0.0));
#966=ORIENTED_EDGE('',*,*,#1130,.F.);
#967=ORIENTED_EDGE('',*,*,#1060,.F.);
#968=ORIENTED_EDGE('',*,*,#1117,.T.);
#969=ORIENTED_EDGE('',*,*,#1145,.F.);
#970=CARTESIAN_POINT('',(-0.565,0.5,-0.085));
#971=DIRECTION('',(0.0,0.0,1.0));
#972=DIRECTION('',(1.0,0.0,0.0));
#973=EDGE_CURVE('',#1146,#1147,#1148,.T.);
#974=EDGE_CURVE('',#1149,#1146,#1150,.T.);
#975=EDGE_CURVE('',#1149,#1151,#1152,.T.);
#976=EDGE_CURVE('',#1147,#1151,#1153,.T.);
#977=EDGE_CURVE('',#1154,#1147,#1155,.T.);
#978=EDGE_CURVE('',#1156,#1151,#1157,.T.);
#979=EDGE_CURVE('',#1154,#1156,#1158,.T.);
#980=EDGE_CURVE('',#1154,#1159,#1160,.T.);
#981=EDGE_CURVE('',#1161,#1156,#1162,.T.);
#982=EDGE_CURVE('',#1161,#1159,#1163,.T.);
#983=EDGE_CURVE('',#1164,#1159,#1165,.T.);
#984=EDGE_CURVE('',#1166,#1161,#1167,.T.);
#985=EDGE_CURVE('',#1164,#1166,#1168,.T.);
#986=EDGE_CURVE('',#1169,#1164,#1170,.T.);
#987=EDGE_CURVE('',#1171,#1166,#1172,.T.);
#988=EDGE_CURVE('',#1169,#1171,#1173,.T.);
#989=EDGE_CURVE('',#1174,#1169,#1175,.T.);
#990=EDGE_CURVE('',#1176,#1171,#1177,.T.);
#991=EDGE_CURVE('',#1174,#1176,#1178,.T.);
#992=EDGE_CURVE('',#1174,#1179,#1180,.T.);
#993=EDGE_CURVE('',#1181,#1176,#1182,.T.);
#994=EDGE_CURVE('',#1181,#1179,#1183,.T.);
#995=EDGE_CURVE('',#1184,#1179,#1185,.T.);
#996=EDGE_CURVE('',#1186,#1181,#1187,.T.);
#997=EDGE_CURVE('',#1184,#1186,#1188,.T.);
#998=EDGE_CURVE('',#1189,#1184,#1190,.T.);
#999=EDGE_CURVE('',#1191,#1186,#1192,.T.);
#1000=EDGE_CURVE('',#1189,#1191,#1193,.T.);
#1001=EDGE_CURVE('',#1194,#1189,#1195,.T.);
#1002=EDGE_CURVE('',#1196,#1191,#1197,.T.);
#1003=EDGE_CURVE('',#1194,#1196,#1198,.T.);
#1004=EDGE_CURVE('',#1199,#1194,#1200,.T.);
#1005=EDGE_CURVE('',#1201,#1196,#1202,.T.);
#1006=EDGE_CURVE('',#1201,#1199,#1203,.T.);
#1007=EDGE_CURVE('',#1204,#1205,#1206,.T.);
#1008=EDGE_CURVE('',#1204,#1207,#1208,.T.);
#1009=EDGE_CURVE('',#1207,#1199,#1209,.T.);
#1010=EDGE_CURVE('',#1210,#1201,#1211,.T.);
#1011=EDGE_CURVE('',#1210,#1212,#1213,.T.);
#1012=EDGE_CURVE('',#1212,#1214,#1215,.T.);
#1013=EDGE_CURVE('',#1214,#1205,#1216,.T.);
#1014=EDGE_CURVE('',#1217,#1218,#1219,.T.);
#1015=EDGE_CURVE('',#1220,#1218,#1221,.T.);
#1016=EDGE_CURVE('',#1222,#1220,#1223,.T.);
#1017=EDGE_CURVE('',#1222,#1217,#1224,.T.);
#1018=EDGE_CURVE('',#1225,#1226,#1227,.T.);
#1019=EDGE_CURVE('',#1228,#1226,#1229,.T.);
#1020=EDGE_CURVE('',#1230,#1228,#1231,.T.);
#1021=EDGE_CURVE('',#1230,#1225,#1232,.T.);
#1022=EDGE_CURVE('',#1225,#1233,#1234,.T.);
#1023=EDGE_CURVE('',#1235,#1230,#1236,.T.);
#1024=EDGE_CURVE('',#1235,#1233,#1237,.T.);
#1025=EDGE_CURVE('',#1238,#1239,#1240,.T.);
#1026=EDGE_CURVE('',#1238,#1241,#1242,.T.);
#1027=EDGE_CURVE('',#1243,#1241,#1244,.T.);
#1028=EDGE_CURVE('',#1243,#1239,#1245,.T.);
#1029=EDGE_CURVE('',#1246,#1235,#1247,.T.);
#1030=EDGE_CURVE('',#1246,#1248,#1249,.T.);
#1031=EDGE_CURVE('',#1248,#1233,#1250,.T.);
#1032=EDGE_CURVE('',#1251,#1248,#1252,.T.);
#1033=EDGE_CURVE('',#1251,#1253,#1254,.T.);
#1034=EDGE_CURVE('',#1253,#1233,#1255,.T.);
#1035=EDGE_CURVE('',#1226,#1253,#1256,.T.);
#1036=EDGE_CURVE('',#1257,#1228,#1258,.T.);
#1037=EDGE_CURVE('',#1253,#1257,#1259,.T.);
#1038=EDGE_CURVE('',#1260,#1261,#1262,.T.);
#1039=EDGE_CURVE('',#1263,#1261,#1264,.T.);
#1040=EDGE_CURVE('',#1263,#1265,#1266,.T.);
#1041=EDGE_CURVE('',#1265,#1260,#1267,.T.);
#1042=EDGE_CURVE('',#1257,#1268,#1269,.T.);
#1043=EDGE_CURVE('',#1251,#1268,#1270,.T.);
#1044=EDGE_CURVE('',#1268,#1246,#1271,.T.);
#1045=EDGE_CURVE('',#1257,#1235,#1272,.T.);
#1046=EDGE_CURVE('',#1260,#1273,#1274,.T.);
#1047=EDGE_CURVE('',#1275,#1265,#1276,.T.);
#1048=EDGE_CURVE('',#1275,#1273,#1277,.T.);
#1049=EDGE_CURVE('',#1275,#1278,#1279,.T.);
#1050=EDGE_CURVE('',#1280,#1278,#1281,.T.);
#1051=EDGE_CURVE('',#1273,#1280,#1282,.T.);
#1052=EDGE_CURVE('',#1280,#1243,#1283,.T.);
#1053=EDGE_CURVE('',#1260,#1243,#1284,.T.);
#1054=EDGE_CURVE('',#1241,#1261,#1285,.T.);
#1055=EDGE_CURVE('',#1286,#1287,#1288,.T.);
#1056=EDGE_CURVE('',#1289,#1287,#1290,.T.);
#1057=EDGE_CURVE('',#1291,#1289,#1292,.T.);
#1058=EDGE_CURVE('',#1286,#1291,#1293,.T.);
#1059=EDGE_CURVE('',#1238,#1263,#1294,.T.);
#1060=EDGE_CURVE('',#1295,#1296,#1297,.T.);
#1061=EDGE_CURVE('',#1296,#1298,#1299,.T.);
#1062=EDGE_CURVE('',#1300,#1298,#1301,.T.);
#1063=EDGE_CURVE('',#1295,#1300,#1302,.T.);
#1064=EDGE_CURVE('',#1265,#1239,#1303,.T.);
#1065=EDGE_CURVE('',#1239,#1278,#1304,.T.);
#1066=EDGE_CURVE('',#1305,#1286,#1306,.T.);
#1067=EDGE_CURVE('',#1307,#1291,#1308,.T.);
#1068=EDGE_CURVE('',#1307,#1305,#1309,.T.);
#1069=EDGE_CURVE('',#1305,#1310,#1311,.T.);
#1070=EDGE_CURVE('',#1312,#1307,#1313,.T.);
#1071=EDGE_CURVE('',#1310,#1312,#1314,.T.);
#1072=EDGE_CURVE('',#1315,#1316,#1317,.T.);
#1073=EDGE_CURVE('',#1315,#1318,#1319,.T.);
#1074=EDGE_CURVE('',#1320,#1318,#1321,.T.);
#1075=EDGE_CURVE('',#1322,#1320,#1323,.T.);
#1076=EDGE_CURVE('',#1324,#1322,#1325,.T.);
#1077=EDGE_CURVE('',#1324,#1326,#1327,.T.);
#1078=EDGE_CURVE('',#1326,#1328,#1329,.T.);
#1079=EDGE_CURVE('',#1316,#1328,#1330,.T.);
#1080=EDGE_CURVE('',#1331,#1332,#1333,.T.);
#1081=EDGE_CURVE('',#1334,#1331,#1335,.T.);
#1082=EDGE_CURVE('',#1336,#1334,#1337,.T.);
#1083=EDGE_CURVE('',#1332,#1336,#1338,.T.);
#1084=EDGE_CURVE('',#1339,#1340,#1341,.T.);
#1085=EDGE_CURVE('',#1342,#1339,#1343,.T.);
#1086=EDGE_CURVE('',#1344,#1342,#1345,.T.);
#1087=EDGE_CURVE('',#1340,#1344,#1346,.T.);
#1088=EDGE_CURVE('',#1336,#1347,#1348,.T.);
#1089=EDGE_CURVE('',#1349,#1347,#1350,.T.);
#1090=EDGE_CURVE('',#1332,#1349,#1351,.T.);
#1091=EDGE_CURVE('',#1352,#1349,#1353,.T.);
#1092=EDGE_CURVE('',#1331,#1352,#1354,.T.);
#1093=EDGE_CURVE('',#1355,#1352,#1356,.T.);
#1094=EDGE_CURVE('',#1334,#1355,#1357,.T.);
#1095=EDGE_CURVE('',#1347,#1355,#1358,.T.);
#1096=EDGE_CURVE('',#1310,#1146,#1359,.T.);
#1097=EDGE_CURVE('',#1312,#1149,#1360,.T.);
#1098=EDGE_CURVE('',#1289,#1320,#1361,.T.);
#1099=EDGE_CURVE('',#1318,#1210,#1362,.T.);
#1100=EDGE_CURVE('',#1324,#1207,#1363,.T.);
#1101=EDGE_CURVE('',#1326,#1204,#1364,.T.);
#1102=EDGE_CURVE('',#1315,#1212,#1365,.T.);
#1103=EDGE_CURVE('',#1328,#1205,#1366,.T.);
#1104=EDGE_CURVE('',#1214,#1316,#1367,.T.);
#1105=EDGE_CURVE('',#1287,#1322,#1368,.T.);
#1106=EDGE_CURVE('',#1344,#1369,#1370,.T.);
#1107=EDGE_CURVE('',#1371,#1369,#1372,.T.);
#1108=EDGE_CURVE('',#1340,#1371,#1373,.T.);
#1109=EDGE_CURVE('',#1374,#1371,#1375,.T.);
#1110=EDGE_CURVE('',#1339,#1374,#1376,.T.);
#1111=EDGE_CURVE('',#1377,#1374,#1378,.T.);
#1112=EDGE_CURVE('',#1342,#1377,#1379,.T.);
#1113=EDGE_CURVE('',#1369,#1377,#1380,.T.);
#1114=EDGE_CURVE('',#1217,#1381,#1382,.T.);
#1115=EDGE_CURVE('',#1383,#1222,#1384,.T.);
#1116=EDGE_CURVE('',#1383,#1381,#1385,.T.);
#1117=EDGE_CURVE('',#1295,#1386,#1387,.T.);
#1118=EDGE_CURVE('',#1388,#1300,#1389,.T.);
#1119=EDGE_CURVE('',#1388,#1386,#1390,.T.);
#1120=EDGE_CURVE('',#1391,#1383,#1392,.T.);
#1121=EDGE_CURVE('',#1391,#1393,#1394,.T.);
#1122=EDGE_CURVE('',#1393,#1381,#1395,.T.);
#1123=EDGE_CURVE('',#1396,#1393,#1397,.T.);
#1124=EDGE_CURVE('',#1396,#1398,#1399,.T.);
#1125=EDGE_CURVE('',#1398,#1381,#1400,.T.);
#1126=EDGE_CURVE('',#1218,#1398,#1401,.T.);
#1127=EDGE_CURVE('',#1402,#1220,#1403,.T.);
#1128=EDGE_CURVE('',#1398,#1402,#1404,.T.);
#1129=EDGE_CURVE('',#1405,#1298,#1406,.T.);
#1130=EDGE_CURVE('',#1296,#1407,#1408,.T.);
#1131=EDGE_CURVE('',#1407,#1405,#1409,.T.);
#1132=EDGE_CURVE('',#1402,#1410,#1411,.T.);
#1133=EDGE_CURVE('',#1396,#1410,#1412,.T.);
#1134=EDGE_CURVE('',#1410,#1391,#1413,.T.);
#1135=EDGE_CURVE('',#1402,#1383,#1414,.T.);
#1136=EDGE_CURVE('',#1405,#1415,#1416,.T.);
#1137=EDGE_CURVE('',#1417,#1407,#1418,.T.);
#1138=EDGE_CURVE('',#1417,#1415,#1419,.T.);
#1139=EDGE_CURVE('',#1417,#1420,#1421,.T.);
#1140=EDGE_CURVE('',#1422,#1420,#1423,.T.);
#1141=EDGE_CURVE('',#1415,#1422,#1424,.T.);
#1142=EDGE_CURVE('',#1422,#1388,#1425,.T.);
#1143=EDGE_CURVE('',#1405,#1388,#1426,.T.);
#1144=EDGE_CURVE('',#1386,#1420,#1427,.T.);
#1145=EDGE_CURVE('',#1407,#1386,#1428,.T.);
#1146=VERTEX_POINT('',#1429);
#1147=VERTEX_POINT('',#1430);
#1148=LINE('',#1431,#1432);
#1149=VERTEX_POINT('',#1433);
#1150=LINE('',#1434,#1435);
#1151=VERTEX_POINT('',#1436);
#1152=LINE('',#1437,#1438);
#1153=LINE('',#1439,#1440);
#1154=VERTEX_POINT('',#1441);
#1155=LINE('',#1442,#1443);
#1156=VERTEX_POINT('',#1444);
#1157=LINE('',#1445,#1446);
#1158=LINE('',#1447,#1448);
#1159=VERTEX_POINT('',#1449);
#1160=CIRCLE('',#1450,1.0);
#1161=VERTEX_POINT('',#1451);
#1162=CIRCLE('',#1452,1.0);
#1163=LINE('',#1453,#1454);
#1164=VERTEX_POINT('',#1455);
#1165=LINE('',#1456,#1457);
#1166=VERTEX_POINT('',#1458);
#1167=LINE('',#1459,#1460);
#1168=LINE('',#1461,#1462);
#1169=VERTEX_POINT('',#1463);
#1170=LINE('',#1464,#1465);
#1171=VERTEX_POINT('',#1466);
#1172=LINE('',#1467,#1468);
#1173=LINE('',#1469,#1470);
#1174=VERTEX_POINT('',#1471);
#1175=LINE('',#1472,#1473);
#1176=VERTEX_POINT('',#1474);
#1177=LINE('',#1475,#1476);
#1178=LINE('',#1477,#1478);
#1179=VERTEX_POINT('',#1479);
#1180=CIRCLE('',#1480,1.0);
#1181=VERTEX_POINT('',#1481);
#1182=CIRCLE('',#1482,1.0);
#1183=LINE('',#1483,#1484);
#1184=VERTEX_POINT('',#1485);
#1185=LINE('',#1486,#1487);
#1186=VERTEX_POINT('',#1488);
#1187=LINE('',#1489,#1490);
#1188=LINE('',#1491,#1492);
#1189=VERTEX_POINT('',#1493);
#1190=LINE('',#1494,#1495);
#1191=VERTEX_POINT('',#1496);
#1192=LINE('',#1497,#1498);
#1193=LINE('',#1499,#1500);
#1194=VERTEX_POINT('',#1501);
#1195=CIRCLE('',#1502,0.5);
#1196=VERTEX_POINT('',#1503);
#1197=CIRCLE('',#1504,0.5);
#1198=LINE('',#1505,#1506);
#1199=VERTEX_POINT('',#1507);
#1200=LINE('',#1508,#1509);
#1201=VERTEX_POINT('',#1510);
#1202=LINE('',#1511,#1512);
#1203=LINE('',#1513,#1514);
#1204=VERTEX_POINT('',#1515);
#1205=VERTEX_POINT('',#1516);
#1206=LINE('',#1517,#1518);
#1207=VERTEX_POINT('',#1519);
#1208=LINE('',#1520,#1521);
#1209=LINE('',#1522,#1523);
#1210=VERTEX_POINT('',#1524);
#1211=LINE('',#1525,#1526);
#1212=VERTEX_POINT('',#1527);
#1213=LINE('',#1528,#1529);
#1214=VERTEX_POINT('',#1530);
#1215=LINE('',#1531,#1532);
#1216=LINE('',#1533,#1534);
#1217=VERTEX_POINT('',#1535);
#1218=VERTEX_POINT('',#1536);
#1219=LINE('',#1537,#1538);
#1220=VERTEX_POINT('',#1539);
#1221=LINE('',#1540,#1541);
#1222=VERTEX_POINT('',#1542);
#1223=LINE('',#1543,#1544);
#1224=LINE('',#1545,#1546);
#1225=VERTEX_POINT('',#1547);
#1226=VERTEX_POINT('',#1548);
#1227=LINE('',#1549,#1550);
#1228=VERTEX_POINT('',#1551);
#1229=LINE('',#1552,#1553);
#1230=VERTEX_POINT('',#1554);
#1231=LINE('',#1555,#1556);
#1232=LINE('',#1557,#1558);
#1233=VERTEX_POINT('',#1559);
#1234=LINE('',#1560,#1561);
#1235=VERTEX_POINT('',#1562);
#1236=LINE('',#1563,#1564);
#1237=LINE('',#1565,#1566);
#1238=VERTEX_POINT('',#1567);
#1239=VERTEX_POINT('',#1568);
#1240=LINE('',#1569,#1570);
#1241=VERTEX_POINT('',#1571);
#1242=LINE('',#1572,#1573);
#1243=VERTEX_POINT('',#1574);
#1244=LINE('',#1575,#1576);
#1245=LINE('',#1577,#1578);
#1246=VERTEX_POINT('',#1579);
#1247=LINE('',#1580,#1581);
#1248=VERTEX_POINT('',#1582);
#1249=LINE('',#1583,#1584);
#1250=LINE('',#1585,#1586);
#1251=VERTEX_POINT('',#1587);
#1252=LINE('',#1588,#1589);
#1253=VERTEX_POINT('',#1590);
#1254=LINE('',#1591,#1592);
#1255=LINE('',#1593,#1594);
#1256=LINE('',#1595,#1596);
#1257=VERTEX_POINT('',#1597);
#1258=LINE('',#1598,#1599);
#1259=LINE('',#1600,#1601);
#1260=VERTEX_POINT('',#1602);
#1261=VERTEX_POINT('',#1603);
#1262=LINE('',#1604,#1605);
#1263=VERTEX_POINT('',#1606);
#1264=LINE('',#1607,#1608);
#1265=VERTEX_POINT('',#1609);
#1266=LINE('',#1610,#1611);
#1267=LINE('',#1612,#1613);
#1268=VERTEX_POINT('',#1614);
#1269=LINE('',#1615,#1616);
#1270=LINE('',#1617,#1618);
#1271=LINE('',#1619,#1620);
#1272=LINE('',#1621,#1622);
#1273=VERTEX_POINT('',#1623);
#1274=LINE('',#1624,#1625);
#1275=VERTEX_POINT('',#1626);
#1276=LINE('',#1627,#1628);
#1277=LINE('',#1629,#1630);
#1278=VERTEX_POINT('',#1631);
#1279=LINE('',#1632,#1633);
#1280=VERTEX_POINT('',#1634);
#1281=LINE('',#1635,#1636);
#1282=LINE('',#1637,#1638);
#1283=LINE('',#1639,#1640);
#1284=LINE('',#1641,#1642);
#1285=LINE('',#1643,#1644);
#1286=VERTEX_POINT('',#1645);
#1287=VERTEX_POINT('',#1646);
#1288=LINE('',#1647,#1648);
#1289=VERTEX_POINT('',#1649);
#1290=LINE('',#1650,#1651);
#1291=VERTEX_POINT('',#1652);
#1292=LINE('',#1653,#1654);
#1293=LINE('',#1655,#1656);
#1294=LINE('',#1657,#1658);
#1295=VERTEX_POINT('',#1659);
#1296=VERTEX_POINT('',#1660);
#1297=LINE('',#1661,#1662);
#1298=VERTEX_POINT('',#1663);
#1299=LINE('',#1664,#1665);
#1300=VERTEX_POINT('',#1666);
#1301=LINE('',#1667,#1668);
#1302=LINE('',#1669,#1670);
#1303=LINE('',#1671,#1672);
#1304=LINE('',#1673,#1674);
#1305=VERTEX_POINT('',#1675);
#1306=LINE('',#1676,#1677);
#1307=VERTEX_POINT('',#1678);
#1308=LINE('',#1679,#1680);
#1309=LINE('',#1681,#1682);
#1310=VERTEX_POINT('',#1683);
#1311=LINE('',#1684,#1685);
#1312=VERTEX_POINT('',#1686);
#1313=LINE('',#1687,#1688);
#1314=LINE('',#1689,#1690);
#1315=VERTEX_POINT('',#1691);
#1316=VERTEX_POINT('',#1692);
#1317=LINE('',#1693,#1694);
#1318=VERTEX_POINT('',#1695);
#1319=LINE('',#1696,#1697);
#1320=VERTEX_POINT('',#1698);
#1321=LINE('',#1699,#1700);
#1322=VERTEX_POINT('',#1701);
#1323=LINE('',#1702,#1703);
#1324=VERTEX_POINT('',#1704);
#1325=LINE('',#1705,#1706);
#1326=VERTEX_POINT('',#1707);
#1327=LINE('',#1708,#1709);
#1328=VERTEX_POINT('',#1710);
#1329=LINE('',#1711,#1712);
#1330=LINE('',#1713,#1714);
#1331=VERTEX_POINT('',#1715);
#1332=VERTEX_POINT('',#1716);
#1333=LINE('',#1717,#1718);
#1334=VERTEX_POINT('',#1719);
#1335=LINE('',#1720,#1721);
#1336=VERTEX_POINT('',#1722);
#1337=LINE('',#1723,#1724);
#1338=LINE('',#1725,#1726);
#1339=VERTEX_POINT('',#1727);
#1340=VERTEX_POINT('',#1728);
#1341=LINE('',#1729,#1730);
#1342=VERTEX_POINT('',#1731);
#1343=LINE('',#1732,#1733);
#1344=VERTEX_POINT('',#1734);
#1345=LINE('',#1735,#1736);
#1346=LINE('',#1737,#1738);
#1347=VERTEX_POINT('',#1739);
#1348=LINE('',#1740,#1741);
#1349=VERTEX_POINT('',#1742);
#1350=LINE('',#1743,#1744);
#1351=LINE('',#1745,#1746);
#1352=VERTEX_POINT('',#1747);
#1353=LINE('',#1748,#1749);
#1354=LINE('',#1750,#1751);
#1355=VERTEX_POINT('',#1752);
#1356=LINE('',#1753,#1754);
#1357=LINE('',#1755,#1756);
#1358=LINE('',#1757,#1758);
#1359=CIRCLE('',#1759,1.5);
#1360=CIRCLE('',#1760,1.5);
#1361=LINE('',#1761,#1762);
#1362=LINE('',#1763,#1764);
#1363=LINE('',#1765,#1766);
#1364=LINE('',#1767,#1768);
#1365=LINE('',#1769,#1770);
#1366=LINE('',#1771,#1772);
#1367=LINE('',#1773,#1774);
#1368=LINE('',#1775,#1776);
#1369=VERTEX_POINT('',#1777);
#1370=LINE('',#1778,#1779);
#1371=VERTEX_POINT('',#1780);
#1372=LINE('',#1781,#1782);
#1373=LINE('',#1783,#1784);
#1374=VERTEX_POINT('',#1785);
#1375=LINE('',#1786,#1787);
#1376=LINE('',#1788,#1789);
#1377=VERTEX_POINT('',#1790);
#1378=LINE('',#1791,#1792);
#1379=LINE('',#1793,#1794);
#1380=LINE('',#1795,#1796);
#1381=VERTEX_POINT('',#1797);
#1382=LINE('',#1798,#1799);
#1383=VERTEX_POINT('',#1800);
#1384=LINE('',#1801,#1802);
#1385=LINE('',#1803,#1804);
#1386=VERTEX_POINT('',#1805);
#1387=LINE('',#1806,#1807);
#1388=VERTEX_POINT('',#1808);
#1389=LINE('',#1809,#1810);
#1390=LINE('',#1811,#1812);
#1391=VERTEX_POINT('',#1813);
#1392=LINE('',#1814,#1815);
#1393=VERTEX_POINT('',#1816);
#1394=LINE('',#1817,#1818);
#1395=LINE('',#1819,#1820);
#1396=VERTEX_POINT('',#1821);
#1397=LINE('',#1822,#1823);
#1398=VERTEX_POINT('',#1824);
#1399=LINE('',#1825,#1826);
#1400=LINE('',#1827,#1828);
#1401=LINE('',#1829,#1830);
#1402=VERTEX_POINT('',#1831);
#1403=LINE('',#1832,#1833);
#1404=LINE('',#1834,#1835);
#1405=VERTEX_POINT('',#1836);
#1406=LINE('',#1837,#1838);
#1407=VERTEX_POINT('',#1839);
#1408=LINE('',#1840,#1841);
#1409=LINE('',#1842,#1843);
#1410=VERTEX_POINT('',#1844);
#1411=LINE('',#1845,#1846);
#1412=LINE('',#1847,#1848);
#1413=LINE('',#1849,#1850);
#1414=LINE('',#1851,#1852);
#1415=VERTEX_POINT('',#1853);
#1416=LINE('',#1854,#1855);
#1417=VERTEX_POINT('',#1856);
#1418=LINE('',#1857,#1858);
#1419=LINE('',#1859,#1860);
#1420=VERTEX_POINT('',#1861);
#1421=LINE('',#1862,#1863);
#1422=VERTEX_POINT('',#1864);
#1423=LINE('',#1865,#1866);
#1424=LINE('',#1867,#1868);
#1425=LINE('',#1869,#1870);
#1426=LINE('',#1871,#1872);
#1427=LINE('',#1873,#1874);
#1428=LINE('',#1875,#1876);
#1429=CARTESIAN_POINT('',(2.54,1.5,-5.0));
#1430=CARTESIAN_POINT('',(2.54,5.5,-5.0));
#1431=CARTESIAN_POINT('',(2.54,1.5,-5.0));
#1432=VECTOR('',#1877,4.0);
#1433=CARTESIAN_POINT('',(-7.62,1.5,-5.0));
#1434=CARTESIAN_POINT('',(-7.62,1.5,-5.0));
#1435=VECTOR('',#1878,10.16);
#1436=CARTESIAN_POINT('',(-7.62,5.5,-5.0));
#1437=CARTESIAN_POINT('',(-7.62,1.5,-5.0));
#1438=VECTOR('',#1879,4.0);
#1439=CARTESIAN_POINT('',(2.54,5.5,-5.0));
#1440=VECTOR('',#1880,10.16);
#1441=CARTESIAN_POINT('',(2.54,8.110829148927,-3.694585425537));
#1442=CARTESIAN_POINT('',(2.54,8.110829148927,-3.694585425537));
#1443=VECTOR('',#1881,2.918995727319);
#1444=CARTESIAN_POINT('',(-7.62,8.110829148927,-3.694585425537));
#1445=CARTESIAN_POINT('',(-7.62,8.110829148927,-3.694585425537));
#1446=VECTOR('',#1882,2.918995727319);
#1447=CARTESIAN_POINT('',(2.54,8.110829148927,-3.694585425537));
#1448=VECTOR('',#1883,10.16);
#1449=CARTESIAN_POINT('',(2.54,8.907649523587,-3.652116090785));
#1450=AXIS2_PLACEMENT_3D('',#1884,#1885,#1886);
#1451=CARTESIAN_POINT('',(-7.62,8.907649523587,-3.652116090785));
#1452=AXIS2_PLACEMENT_3D('',#1887,#1888,#1889);
#1453=CARTESIAN_POINT('',(-7.62,8.907649523587,-3.652116090785));
#1454=VECTOR('',#1890,10.16);
#1455=CARTESIAN_POINT('',(2.54,12.363663603,-4.941741911595));
#1456=CARTESIAN_POINT('',(2.54,12.363663603,-4.941741911595));
#1457=VECTOR('',#1891,3.688789513488);
#1458=CARTESIAN_POINT('',(-7.62,12.363663603,-4.941741911595));
#1459=CARTESIAN_POINT('',(-7.62,12.363663603,-4.941741911595));
#1460=VECTOR('',#1892,3.688789513488);
#1461=CARTESIAN_POINT('',(2.54,12.363663603,-4.941741911595));
#1462=VECTOR('',#1893,10.16);
#1463=CARTESIAN_POINT('',(2.54,12.7,-4.0));
#1464=CARTESIAN_POINT('',(2.54,12.7,-4.0));
#1465=VECTOR('',#1894,1.0);
#1466=CARTESIAN_POINT('',(-7.62,12.7,-4.0));
#1467=CARTESIAN_POINT('',(-7.62,12.7,-4.0));
#1468=VECTOR('',#1895,1.0);
#1469=CARTESIAN_POINT('',(2.54,12.7,-4.0));
#1470=VECTOR('',#1896,10.16);
#1471=CARTESIAN_POINT('',(2.54,8.901870321596,-2.643525114856));
#1472=CARTESIAN_POINT('',(2.54,8.901870321596,-2.643525114856));
#1473=VECTOR('',#1897,4.033089779313);
#1474=CARTESIAN_POINT('',(-7.62,8.901870321596,-2.643525114856));
#1475=CARTESIAN_POINT('',(-7.62,8.901870321596,-2.643525114856));
#1476=VECTOR('',#1898,4.033089779313);
#1477=CARTESIAN_POINT('',(2.54,8.901870321596,-2.643525114856));
#1478=VECTOR('',#1899,10.16);
#1479=CARTESIAN_POINT('',(2.54,8.118320329098,-2.690839835451));
#1480=AXIS2_PLACEMENT_3D('',#1900,#1901,#1902);
#1481=CARTESIAN_POINT('',(-7.62,8.118320329098,-2.690839835451));
#1482=AXIS2_PLACEMENT_3D('',#1903,#1904,#1905);
#1483=CARTESIAN_POINT('',(-7.62,8.118320329098,-2.690839835451));
#1484=VECTOR('',#1906,10.16);
#1485=CARTESIAN_POINT('',(2.54,5.5,-4.0));
#1486=CARTESIAN_POINT('',(2.54,5.5,-4.0));
#1487=VECTOR('',#1907,2.927371121367);
#1488=CARTESIAN_POINT('',(-7.62,5.5,-4.0));
#1489=CARTESIAN_POINT('',(-7.62,5.5,-4.0));
#1490=VECTOR('',#1908,2.927371121367);
#1491=CARTESIAN_POINT('',(2.54,5.5,-4.0));
#1492=VECTOR('',#1909,10.16);
#1493=CARTESIAN_POINT('',(2.54,2.8,-4.0));
#1494=CARTESIAN_POINT('',(2.54,2.8,-4.0));
#1495=VECTOR('',#1910,2.7);
#1496=CARTESIAN_POINT('',(-7.62,2.8,-4.0));
#1497=CARTESIAN_POINT('',(-7.62,2.8,-4.0));
#1498=VECTOR('',#1911,2.7);
#1499=CARTESIAN_POINT('',(2.54,2.8,-4.0));
#1500=VECTOR('',#1912,10.16);
#1501=CARTESIAN_POINT('',(2.54,2.3,-3.5));
#1502=AXIS2_PLACEMENT_3D('',#1913,#1914,#1915);
#1503=CARTESIAN_POINT('',(-7.62,2.3,-3.5));
#1504=AXIS2_PLACEMENT_3D('',#1916,#1917,#1918);
#1505=CARTESIAN_POINT('',(2.54,2.3,-3.5));
#1506=VECTOR('',#1919,10.16);
#1507=CARTESIAN_POINT('',(2.54,3.2,-2.0));
#1508=CARTESIAN_POINT('',(2.54,3.2,-2.0));
#1509=VECTOR('',#1920,1.749285568454);
#1510=CARTESIAN_POINT('',(-7.62,3.2,-2.0));
#1511=CARTESIAN_POINT('',(-7.62,3.2,-2.0));
#1512=VECTOR('',#1921,1.749285568454);
#1513=CARTESIAN_POINT('',(-7.62,3.2,-2.0));
#1514=VECTOR('',#1922,10.16);
#1515=CARTESIAN_POINT('',(0.565,3.2,5.0));
#1516=CARTESIAN_POINT('',(0.565,3.2,4.7));
#1517=CARTESIAN_POINT('',(0.565,3.2,5.0));
#1518=VECTOR('',#1923,0.3);
#1519=CARTESIAN_POINT('',(2.54,3.2,5.0));
#1520=CARTESIAN_POINT('',(0.565,3.2,5.0));
#1521=VECTOR('',#1924,1.975);
#1522=CARTESIAN_POINT('',(2.54,3.2,5.0));
#1523=VECTOR('',#1925,7.0);
#1524=CARTESIAN_POINT('',(-7.62,3.2,5.0));
#1525=CARTESIAN_POINT('',(-7.62,3.2,5.0));
#1526=VECTOR('',#1926,7.0);
#1527=CARTESIAN_POINT('',(-4.515,3.2,5.0));
#1528=CARTESIAN_POINT('',(-7.62,3.2,5.0));
#1529=VECTOR('',#1927,3.105);
#1530=CARTESIAN_POINT('',(-4.515,3.2,4.7));
#1531=CARTESIAN_POINT('',(-4.515,3.2,5.0));
#1532=VECTOR('',#1928,0.3);
#1533=CARTESIAN_POINT('',(-4.515,3.2,4.7));
#1534=VECTOR('',#1929,5.08);
#1535=CARTESIAN_POINT('',(-0.565,3.2,-1.215));
#1536=CARTESIAN_POINT('',(0.565,3.2,-1.215));
#1537=CARTESIAN_POINT('',(-0.565,3.2,-1.215));
#1538=VECTOR('',#1930,1.13);
#1539=CARTESIAN_POINT('',(0.565,3.2,-0.085));
#1540=CARTESIAN_POINT('',(0.565,3.2,-0.085));
#1541=VECTOR('',#1931,1.13);
#1542=CARTESIAN_POINT('',(-0.565,3.2,-0.085));
#1543=CARTESIAN_POINT('',(-0.565,3.2,-0.085));
#1544=VECTOR('',#1932,1.13);
#1545=CARTESIAN_POINT('',(-0.565,3.2,-0.085));
#1546=VECTOR('',#1933,1.13);
#1547=CARTESIAN_POINT('',(-5.645,3.2,-1.215));
#1548=CARTESIAN_POINT('',(-4.515,3.2,-1.215));
#1549=CARTESIAN_POINT('',(-5.645,3.2,-1.215));
#1550=VECTOR('',#1934,1.13);
#1551=CARTESIAN_POINT('',(-4.515,3.2,-0.085));
#1552=CARTESIAN_POINT('',(-4.515,3.2,-0.085));
#1553=VECTOR('',#1935,1.13);
#1554=CARTESIAN_POINT('',(-5.645,3.2,-0.085));
#1555=CARTESIAN_POINT('',(-5.645,3.2,-0.085));
#1556=VECTOR('',#1936,1.13);
#1557=CARTESIAN_POINT('',(-5.645,3.2,-0.085));
#1558=VECTOR('',#1937,1.13);
#1559=CARTESIAN_POINT('',(-5.645,12.8,-1.215));
#1560=CARTESIAN_POINT('',(-5.645,3.2,-1.215));
#1561=VECTOR('',#1938,9.6);
#1562=CARTESIAN_POINT('',(-5.645,12.8,-0.085));
#1563=CARTESIAN_POINT('',(-5.645,12.8,-0.085));
#1564=VECTOR('',#1939,9.6);
#1565=CARTESIAN_POINT('',(-5.645,12.8,-0.085));
#1566=VECTOR('',#1940,1.13);
#1567=CARTESIAN_POINT('',(-5.645,0.5,-0.085));
#1568=CARTESIAN_POINT('',(-5.645,-2.7,-0.085));
#1569=CARTESIAN_POINT('',(-5.645,0.5,-0.085));
#1570=VECTOR('',#1941,3.2);
#1571=CARTESIAN_POINT('',(-5.645,0.5,-1.215));
#1572=CARTESIAN_POINT('',(-5.645,0.5,-0.085));
#1573=VECTOR('',#1942,1.13);
#1574=CARTESIAN_POINT('',(-5.645,-2.7,-1.215));
#1575=CARTESIAN_POINT('',(-5.645,-2.7,-1.215));
#1576=VECTOR('',#1943,3.2);
#1577=CARTESIAN_POINT('',(-5.645,-2.7,-1.215));
#1578=VECTOR('',#1944,1.13);
#1579=CARTESIAN_POINT('',(-5.345,13.8,-0.385));
#1580=CARTESIAN_POINT('',(-5.345,13.8,-0.385));
#1581=VECTOR('',#1945,1.08627804912);
#1582=CARTESIAN_POINT('',(-5.345,13.8,-0.915));
#1583=CARTESIAN_POINT('',(-5.345,13.8,-0.385));
#1584=VECTOR('',#1946,0.53);
#1585=CARTESIAN_POINT('',(-5.345,13.8,-0.915));
#1586=VECTOR('',#1947,1.08627804912);
#1587=CARTESIAN_POINT('',(-4.815,13.8,-0.915));
#1588=CARTESIAN_POINT('',(-4.815,13.8,-0.915));
#1589=VECTOR('',#1948,0.53);
#1590=CARTESIAN_POINT('',(-4.515,12.8,-1.215));
#1591=CARTESIAN_POINT('',(-4.815,13.8,-0.915));
#1592=VECTOR('',#1949,1.08627804912);
#1593=CARTESIAN_POINT('',(-4.515,12.8,-1.215));
#1594=VECTOR('',#1950,1.13);
#1595=CARTESIAN_POINT('',(-4.515,3.2,-1.215));
#1596=VECTOR('',#1951,9.6);
#1597=CARTESIAN_POINT('',(-4.515,12.8,-0.085));
#1598=CARTESIAN_POINT('',(-4.515,12.8,-0.085));
#1599=VECTOR('',#1952,9.6);
#1600=CARTESIAN_POINT('',(-4.515,12.8,-1.215));
#1601=VECTOR('',#1953,1.13);
#1602=CARTESIAN_POINT('',(-4.515,-2.7,-1.215));
#1603=CARTESIAN_POINT('',(-4.515,0.5,-1.215));
#1604=CARTESIAN_POINT('',(-4.515,-2.7,-1.215));
#1605=VECTOR('',#1954,3.2);
#1606=CARTESIAN_POINT('',(-4.515,0.5,-0.085));
#1607=CARTESIAN_POINT('',(-4.515,0.5,-0.085));
#1608=VECTOR('',#1955,1.13);
#1609=CARTESIAN_POINT('',(-4.515,-2.7,-0.085));
#1610=CARTESIAN_POINT('',(-4.515,0.5,-0.085));
#1611=VECTOR('',#1956,3.2);
#1612=CARTESIAN_POINT('',(-4.515,-2.7,-0.085));
#1613=VECTOR('',#1957,1.13);
#1614=CARTESIAN_POINT('',(-4.815,13.8,-0.385));
#1615=CARTESIAN_POINT('',(-4.515,12.8,-0.085));
#1616=VECTOR('',#1958,1.08627804912);
#1617=CARTESIAN_POINT('',(-4.815,13.8,-0.915));
#1618=VECTOR('',#1959,0.53);
#1619=CARTESIAN_POINT('',(-4.815,13.8,-0.385));
#1620=VECTOR('',#1960,0.53);
#1621=CARTESIAN_POINT('',(-4.515,12.8,-0.085));
#1622=VECTOR('',#1961,1.13);
#1623=CARTESIAN_POINT('',(-4.815,-3.7,-0.915));
#1624=CARTESIAN_POINT('',(-4.515,-2.7,-1.215));
#1625=VECTOR('',#1962,1.08627804912);
#1626=CARTESIAN_POINT('',(-4.815,-3.7,-0.385));
#1627=CARTESIAN_POINT('',(-4.815,-3.7,-0.385));
#1628=VECTOR('',#1963,1.08627804912);
#1629=CARTESIAN_POINT('',(-4.815,-3.7,-0.385));
#1630=VECTOR('',#1964,0.53);
#1631=CARTESIAN_POINT('',(-5.345,-3.7,-0.385));
#1632=CARTESIAN_POINT('',(-4.815,-3.7,-0.385));
#1633=VECTOR('',#1965,0.53);
#1634=CARTESIAN_POINT('',(-5.345,-3.7,-0.915));
#1635=CARTESIAN_POINT('',(-5.345,-3.7,-0.915));
#1636=VECTOR('',#1966,0.53);
#1637=CARTESIAN_POINT('',(-4.815,-3.7,-0.915));
#1638=VECTOR('',#1967,0.53);
#1639=CARTESIAN_POINT('',(-5.345,-3.7,-0.915));
#1640=VECTOR('',#1968,1.08627804912);
#1641=CARTESIAN_POINT('',(-4.515,-2.7,-1.215));
#1642=VECTOR('',#1969,1.13);
#1643=CARTESIAN_POINT('',(-5.645,0.5,-1.215));
#1644=VECTOR('',#1970,1.13);
#1645=CARTESIAN_POINT('',(2.54,0.5,-2.15));
#1646=CARTESIAN_POINT('',(2.54,0.5,0.85));
#1647=CARTESIAN_POINT('',(2.54,0.5,-2.15));
#1648=VECTOR('',#1971,3.0);
#1649=CARTESIAN_POINT('',(-7.62,0.5,0.85));
#1650=CARTESIAN_POINT('',(-7.62,0.5,0.85));
#1651=VECTOR('',#1972,10.16);
#1652=CARTESIAN_POINT('',(-7.62,0.5,-2.15));
#1653=CARTESIAN_POINT('',(-7.62,0.5,-2.15));
#1654=VECTOR('',#1973,3.0);
#1655=CARTESIAN_POINT('',(2.54,0.5,-2.15));
#1656=VECTOR('',#1974,10.16);
#1657=CARTESIAN_POINT('',(-5.645,0.5,-0.085));
#1658=VECTOR('',#1975,1.13);
#1659=CARTESIAN_POINT('',(-0.565,0.5,-0.085));
#1660=CARTESIAN_POINT('',(0.565,0.5,-0.085));
#1661=CARTESIAN_POINT('',(-0.565,0.5,-0.085));
#1662=VECTOR('',#1976,1.13);
#1663=CARTESIAN_POINT('',(0.565,0.5,-1.215));
#1664=CARTESIAN_POINT('',(0.565,0.5,-0.085));
#1665=VECTOR('',#1977,1.13);
#1666=CARTESIAN_POINT('',(-0.565,0.5,-1.215));
#1667=CARTESIAN_POINT('',(-0.565,0.5,-1.215));
#1668=VECTOR('',#1978,1.13);
#1669=CARTESIAN_POINT('',(-0.565,0.5,-0.085));
#1670=VECTOR('',#1979,1.13);
#1671=CARTESIAN_POINT('',(-4.515,-2.7,-0.085));
#1672=VECTOR('',#1980,1.13);
#1673=CARTESIAN_POINT('',(-5.645,-2.7,-0.085));
#1674=VECTOR('',#1981,1.08627804912);
#1675=CARTESIAN_POINT('',(2.54,0.0,-2.65));
#1676=CARTESIAN_POINT('',(2.54,0.0,-2.65));
#1677=VECTOR('',#1982,0.7071067811865);
#1678=CARTESIAN_POINT('',(-7.62,0.0,-2.65));
#1679=CARTESIAN_POINT('',(-7.62,0.0,-2.65));
#1680=VECTOR('',#1983,0.7071067811865);
#1681=CARTESIAN_POINT('',(-7.62,0.0,-2.65));
#1682=VECTOR('',#1984,10.16);
#1683=CARTESIAN_POINT('',(2.54,0.0,-3.5));
#1684=CARTESIAN_POINT('',(2.54,0.0,-2.65));
#1685=VECTOR('',#1985,0.85);
#1686=CARTESIAN_POINT('',(-7.62,0.0,-3.5));
#1687=CARTESIAN_POINT('',(-7.62,0.0,-3.5));
#1688=VECTOR('',#1986,0.85);
#1689=CARTESIAN_POINT('',(2.54,0.0,-3.5));
#1690=VECTOR('',#1987,10.16);
#1691=CARTESIAN_POINT('',(-4.515,0.0,5.0));
#1692=CARTESIAN_POINT('',(-4.515,0.0,4.7));
#1693=CARTESIAN_POINT('',(-4.515,0.0,5.0));
#1694=VECTOR('',#1988,0.3);
#1695=CARTESIAN_POINT('',(-7.62,0.0,5.0));
#1696=CARTESIAN_POINT('',(-4.515,0.0,5.0));
#1697=VECTOR('',#1989,3.105);
#1698=CARTESIAN_POINT('',(-7.62,0.0,1.35));
#1699=CARTESIAN_POINT('',(-7.62,0.0,1.35));
#1700=VECTOR('',#1990,3.65);
#1701=CARTESIAN_POINT('',(2.54,0.0,1.35));
#1702=CARTESIAN_POINT('',(2.54,0.0,1.35));
#1703=VECTOR('',#1991,10.16);
#1704=CARTESIAN_POINT('',(2.54,0.0,5.0));
#1705=CARTESIAN_POINT('',(2.54,0.0,5.0));
#1706=VECTOR('',#1992,3.65);
#1707=CARTESIAN_POINT('',(0.565,0.0,5.0));
#1708=CARTESIAN_POINT('',(2.54,0.0,5.0));
#1709=VECTOR('',#1993,1.975);
#1710=CARTESIAN_POINT('',(0.565,0.0,4.7));
#1711=CARTESIAN_POINT('',(0.565,0.0,5.0));
#1712=VECTOR('',#1994,0.3);
#1713=CARTESIAN_POINT('',(-4.515,0.0,4.7));
#1714=VECTOR('',#1995,5.08);
#1715=CARTESIAN_POINT('',(-6.62,0.0,4.0));
#1716=CARTESIAN_POINT('',(-6.62,0.0,2.35));
#1717=CARTESIAN_POINT('',(-6.62,0.0,4.0));
#1718=VECTOR('',#1996,1.65);
#1719=CARTESIAN_POINT('',(-3.54,0.0,4.0));
#1720=CARTESIAN_POINT('',(-3.54,0.0,4.0));
#1721=VECTOR('',#1997,3.08);
#1722=CARTESIAN_POINT('',(-3.54,0.0,2.35));
#1723=CARTESIAN_POINT('',(-3.54,0.0,2.35));
#1724=VECTOR('',#1998,1.65);
#1725=CARTESIAN_POINT('',(-6.62,0.0,2.35));
#1726=VECTOR('',#1999,3.08);
#1727=CARTESIAN_POINT('',(-1.54,0.0,4.0));
#1728=CARTESIAN_POINT('',(-1.54,0.0,2.35));
#1729=CARTESIAN_POINT('',(-1.54,0.0,4.0));
#1730=VECTOR('',#2000,1.65);
#1731=CARTESIAN_POINT('',(1.54,0.0,4.0));
#1732=CARTESIAN_POINT('',(1.54,0.0,4.0));
#1733=VECTOR('',#2001,3.08);
#1734=CARTESIAN_POINT('',(1.54,0.0,2.35));
#1735=CARTESIAN_POINT('',(1.54,0.0,2.35));
#1736=VECTOR('',#2002,1.65);
#1737=CARTESIAN_POINT('',(-1.54,0.0,2.35));
#1738=VECTOR('',#2003,3.08);
#1739=CARTESIAN_POINT('',(-3.54,2.4,2.35));
#1740=CARTESIAN_POINT('',(-3.54,0.0,2.35));
#1741=VECTOR('',#2004,2.4);
#1742=CARTESIAN_POINT('',(-6.62,2.4,2.35));
#1743=CARTESIAN_POINT('',(-6.62,2.4,2.35));
#1744=VECTOR('',#2005,3.08);
#1745=CARTESIAN_POINT('',(-6.62,0.0,2.35));
#1746=VECTOR('',#2006,2.4);
#1747=CARTESIAN_POINT('',(-6.62,2.4,4.0));
#1748=CARTESIAN_POINT('',(-6.62,2.4,4.0));
#1749=VECTOR('',#2007,1.65);
#1750=CARTESIAN_POINT('',(-6.62,0.0,4.0));
#1751=VECTOR('',#2008,2.4);
#1752=CARTESIAN_POINT('',(-3.54,2.4,4.0));
#1753=CARTESIAN_POINT('',(-3.54,2.4,4.0));
#1754=VECTOR('',#2009,3.08);
#1755=CARTESIAN_POINT('',(-3.54,0.0,4.0));
#1756=VECTOR('',#2010,2.4);
#1757=CARTESIAN_POINT('',(-3.54,2.4,2.35));
#1758=VECTOR('',#2011,1.65);
#1759=AXIS2_PLACEMENT_3D('',#2012,#2013,#2014);
#1760=AXIS2_PLACEMENT_3D('',#2015,#2016,#2017);
#1761=CARTESIAN_POINT('',(-7.62,0.5,0.85));
#1762=VECTOR('',#2018,0.7071067811865);
#1763=CARTESIAN_POINT('',(-7.62,0.0,5.0));
#1764=VECTOR('',#2019,3.2);
#1765=CARTESIAN_POINT('',(2.54,0.0,5.0));
#1766=VECTOR('',#2020,3.2);
#1767=CARTESIAN_POINT('',(0.565,0.0,5.0));
#1768=VECTOR('',#2021,3.2);
#1769=CARTESIAN_POINT('',(-4.515,0.0,5.0));
#1770=VECTOR('',#2022,3.2);
#1771=CARTESIAN_POINT('',(0.565,0.0,4.7));
#1772=VECTOR('',#2023,3.2);
#1773=CARTESIAN_POINT('',(-4.515,3.2,4.7));
#1774=VECTOR('',#2024,3.2);
#1775=CARTESIAN_POINT('',(2.54,0.5,0.85));
#1776=VECTOR('',#2025,0.7071067811865);
#1777=CARTESIAN_POINT('',(1.54,2.4,2.35));
#1778=CARTESIAN_POINT('',(1.54,0.0,2.35));
#1779=VECTOR('',#2026,2.4);
#1780=CARTESIAN_POINT('',(-1.54,2.4,2.35));
#1781=CARTESIAN_POINT('',(-1.54,2.4,2.35));
#1782=VECTOR('',#2027,3.08);
#1783=CARTESIAN_POINT('',(-1.54,0.0,2.35));
#1784=VECTOR('',#2028,2.4);
#1785=CARTESIAN_POINT('',(-1.54,2.4,4.0));
#1786=CARTESIAN_POINT('',(-1.54,2.4,4.0));
#1787=VECTOR('',#2029,1.65);
#1788=CARTESIAN_POINT('',(-1.54,0.0,4.0));
#1789=VECTOR('',#2030,2.4);
#1790=CARTESIAN_POINT('',(1.54,2.4,4.0));
#1791=CARTESIAN_POINT('',(1.54,2.4,4.0));
#1792=VECTOR('',#2031,3.08);
#1793=CARTESIAN_POINT('',(1.54,0.0,4.0));
#1794=VECTOR('',#2032,2.4);
#1795=CARTESIAN_POINT('',(1.54,2.4,2.35));
#1796=VECTOR('',#2033,1.65);
#1797=CARTESIAN_POINT('',(-0.565,12.8,-1.215));
#1798=CARTESIAN_POINT('',(-0.565,3.2,-1.215));
#1799=VECTOR('',#2034,9.6);
#1800=CARTESIAN_POINT('',(-0.565,12.8,-0.085));
#1801=CARTESIAN_POINT('',(-0.565,12.8,-0.085));
#1802=VECTOR('',#2035,9.6);
#1803=CARTESIAN_POINT('',(-0.565,12.8,-0.085));
#1804=VECTOR('',#2036,1.13);
#1805=CARTESIAN_POINT('',(-0.565,-2.7,-0.085));
#1806=CARTESIAN_POINT('',(-0.565,0.5,-0.085));
#1807=VECTOR('',#2037,3.2);
#1808=CARTESIAN_POINT('',(-0.565,-2.7,-1.215));
#1809=CARTESIAN_POINT('',(-0.565,-2.7,-1.215));
#1810=VECTOR('',#2038,3.2);
#1811=CARTESIAN_POINT('',(-0.565,-2.7,-1.215));
#1812=VECTOR('',#2039,1.13);
#1813=CARTESIAN_POINT('',(-0.265,13.8,-0.385));
#1814=CARTESIAN_POINT('',(-0.265,13.8,-0.385));
#1815=VECTOR('',#2040,1.08627804912);
#1816=CARTESIAN_POINT('',(-0.265,13.8,-0.915));
#1817=CARTESIAN_POINT('',(-0.265,13.8,-0.385));
#1818=VECTOR('',#2041,0.53);
#1819=CARTESIAN_POINT('',(-0.265,13.8,-0.915));
#1820=VECTOR('',#2042,1.08627804912);
#1821=CARTESIAN_POINT('',(0.265,13.8,-0.915));
#1822=CARTESIAN_POINT('',(0.265,13.8,-0.915));
#1823=VECTOR('',#2043,0.53);
#1824=CARTESIAN_POINT('',(0.565,12.8,-1.215));
#1825=CARTESIAN_POINT('',(0.265,13.8,-0.915));
#1826=VECTOR('',#2044,1.08627804912);
#1827=CARTESIAN_POINT('',(0.565,12.8,-1.215));
#1828=VECTOR('',#2045,1.13);
#1829=CARTESIAN_POINT('',(0.565,3.2,-1.215));
#1830=VECTOR('',#2046,9.6);
#1831=CARTESIAN_POINT('',(0.565,12.8,-0.085));
#1832=CARTESIAN_POINT('',(0.565,12.8,-0.085));
#1833=VECTOR('',#2047,9.6);
#1834=CARTESIAN_POINT('',(0.565,12.8,-1.215));
#1835=VECTOR('',#2048,1.13);
#1836=CARTESIAN_POINT('',(0.565,-2.7,-1.215));
#1837=CARTESIAN_POINT('',(0.565,-2.7,-1.215));
#1838=VECTOR('',#2049,3.2);
#1839=CARTESIAN_POINT('',(0.565,-2.7,-0.085));
#1840=CARTESIAN_POINT('',(0.565,0.5,-0.085));
#1841=VECTOR('',#2050,3.2);
#1842=CARTESIAN_POINT('',(0.565,-2.7,-0.085));
#1843=VECTOR('',#2051,1.13);
#1844=CARTESIAN_POINT('',(0.265,13.8,-0.385));
#1845=CARTESIAN_POINT('',(0.565,12.8,-0.085));
#1846=VECTOR('',#2052,1.08627804912);
#1847=CARTESIAN_POINT('',(0.265,13.8,-0.915));
#1848=VECTOR('',#2053,0.53);
#1849=CARTESIAN_POINT('',(0.265,13.8,-0.385));
#1850=VECTOR('',#2054,0.53);
#1851=CARTESIAN_POINT('',(0.565,12.8,-0.085));
#1852=VECTOR('',#2055,1.13);
#1853=CARTESIAN_POINT('',(0.265,-3.7,-0.915));
#1854=CARTESIAN_POINT('',(0.565,-2.7,-1.215));
#1855=VECTOR('',#2056,1.08627804912);
#1856=CARTESIAN_POINT('',(0.265,-3.7,-0.385));
#1857=CARTESIAN_POINT('',(0.265,-3.7,-0.385));
#1858=VECTOR('',#2057,1.08627804912);
#1859=CARTESIAN_POINT('',(0.265,-3.7,-0.385));
#1860=VECTOR('',#2058,0.53);
#1861=CARTESIAN_POINT('',(-0.265,-3.7,-0.385));
#1862=CARTESIAN_POINT('',(0.265,-3.7,-0.385));
#1863=VECTOR('',#2059,0.53);
#1864=CARTESIAN_POINT('',(-0.265,-3.7,-0.915));
#1865=CARTESIAN_POINT('',(-0.265,-3.7,-0.915));
#1866=VECTOR('',#2060,0.53);
#1867=CARTESIAN_POINT('',(0.265,-3.7,-0.915));
#1868=VECTOR('',#2061,0.53);
#1869=CARTESIAN_POINT('',(-0.265,-3.7,-0.915));
#1870=VECTOR('',#2062,1.08627804912);
#1871=CARTESIAN_POINT('',(0.565,-2.7,-1.215));
#1872=VECTOR('',#2063,1.13);
#1873=CARTESIAN_POINT('',(-0.565,-2.7,-0.085));
#1874=VECTOR('',#2064,1.08627804912);
#1875=CARTESIAN_POINT('',(0.565,-2.7,-0.085));
#1876=VECTOR('',#2065,1.13);
#1877=DIRECTION('',(0.0,1.0,0.0));
#1878=DIRECTION('',(1.0,0.0,0.0));
#1879=DIRECTION('',(0.0,1.0,0.0));
#1880=DIRECTION('',(-1.0,0.0,0.0));
#1881=DIRECTION('',(0.0,-0.894427190999896,-0.447213595499998));
#1882=DIRECTION('',(0.0,-0.894427190999896,-0.447213595499998));
#1883=DIRECTION('',(-1.0,0.0,0.0));
#1884=CARTESIAN_POINT('',(2.54,8.558042744427,-4.589012616537));
#1885=DIRECTION('',(-1.0,0.0,0.0));
#1886=DIRECTION('',(0.0,-0.447213595499998,0.894427190999896));
#1887=CARTESIAN_POINT('',(-7.62,8.558042744427,-4.589012616537));
#1888=DIRECTION('',(1.0,0.0,-0.0));
#1889=DIRECTION('',(0.0,0.349606779160112,0.936896525751533));
#1890=DIRECTION('',(1.0,0.0,0.0));
#1891=DIRECTION('',(0.0,-0.936896525751533,0.349606779160112));
#1892=DIRECTION('',(0.0,-0.936896525751533,0.349606779160112));
#1893=DIRECTION('',(-1.0,0.0,0.0));
#1894=DIRECTION('',(0.0,-0.336336396997105,-0.941741911595213));
#1895=DIRECTION('',(0.0,-0.336336396997105,-0.941741911595213));
#1896=DIRECTION('',(-1.0,0.0,0.0));
#1897=DIRECTION('',(0.0,0.941741911594819,-0.336336396998207));
#1898=DIRECTION('',(0.0,0.941741911594819,-0.336336396998207));
#1899=DIRECTION('',(-1.0,0.0,0.0));
#1900=CARTESIAN_POINT('',(2.54,8.565533924598,-3.585267026451));
#1901=DIRECTION('',(1.0,0.0,-0.0));
#1902=DIRECTION('',(0.0,0.336336396998207,0.941741911594819));
#1903=CARTESIAN_POINT('',(-7.62,8.565533924598,-3.585267026451));
#1904=DIRECTION('',(-1.0,0.0,0.0));
#1905=DIRECTION('',(0.0,-0.447213595499998,0.894427190999896));
#1906=DIRECTION('',(1.0,0.0,0.0));
#1907=DIRECTION('',(0.0,0.894427190999896,0.447213595499998));
#1908=DIRECTION('',(0.0,0.894427190999896,0.447213595499998));
#1909=DIRECTION('',(-1.0,0.0,0.0));
#1910=DIRECTION('',(0.0,1.0,0.0));
#1911=DIRECTION('',(0.0,1.0,0.0));
#1912=DIRECTION('',(-1.0,0.0,0.0));
#1913=CARTESIAN_POINT('',(2.54,2.8,-3.5));
#1914=DIRECTION('',(1.0,0.0,0.0));
#1915=DIRECTION('',(0.0,-1.0,0.0));
#1916=CARTESIAN_POINT('',(-7.62,2.8,-3.5));
#1917=DIRECTION('',(1.0,0.0,0.0));
#1918=DIRECTION('',(0.0,-1.0,0.0));
#1919=DIRECTION('',(-1.0,0.0,0.0));
#1920=DIRECTION('',(0.0,-0.514495755427527,-0.857492925712544));
#1921=DIRECTION('',(0.0,-0.514495755427527,-0.857492925712544));
#1922=DIRECTION('',(1.0,0.0,0.0));
#1923=DIRECTION('',(0.0,0.0,-1.0));
#1924=DIRECTION('',(1.0,0.0,0.0));
#1925=DIRECTION('',(0.0,0.0,-1.0));
#1926=DIRECTION('',(0.0,0.0,-1.0));
#1927=DIRECTION('',(1.0,0.0,0.0));
#1928=DIRECTION('',(0.0,0.0,-1.0));
#1929=DIRECTION('',(1.0,0.0,0.0));
#1930=DIRECTION('',(1.0,0.0,0.0));
#1931=DIRECTION('',(0.0,0.0,-1.0));
#1932=DIRECTION('',(1.0,0.0,0.0));
#1933=DIRECTION('',(0.0,0.0,-1.0));
#1934=DIRECTION('',(1.0,0.0,0.0));
#1935=DIRECTION('',(0.0,0.0,-1.0));
#1936=DIRECTION('',(1.0,0.0,0.0));
#1937=DIRECTION('',(0.0,0.0,-1.0));
#1938=DIRECTION('',(0.0,1.0,0.0));
#1939=DIRECTION('',(0.0,-1.0,0.0));
#1940=DIRECTION('',(0.0,0.0,-1.0));
#1941=DIRECTION('',(0.0,-1.0,0.0));
#1942=DIRECTION('',(0.0,0.0,-1.0));
#1943=DIRECTION('',(0.0,1.0,0.0));
#1944=DIRECTION('',(0.0,0.0,1.0));
#1945=DIRECTION('',(-0.276172385369506,-0.920574617898318,0.276172385369506));
#1946=DIRECTION('',(0.0,0.0,-1.0));
#1947=DIRECTION('',(-0.276172385369506,-0.920574617898318,-0.276172385369506));
#1948=DIRECTION('',(-1.0,0.0,0.0));
#1949=DIRECTION('',(0.276172385369506,-0.920574617898318,-0.276172385369506));
#1950=DIRECTION('',(-1.0,0.0,0.0));
#1951=DIRECTION('',(0.0,1.0,0.0));
#1952=DIRECTION('',(0.0,-1.0,0.0));
#1953=DIRECTION('',(0.0,0.0,1.0));
#1954=DIRECTION('',(0.0,1.0,0.0));
#1955=DIRECTION('',(0.0,0.0,-1.0));
#1956=DIRECTION('',(0.0,-1.0,0.0));
#1957=DIRECTION('',(0.0,0.0,-1.0));
#1958=DIRECTION('',(-0.276172385369506,0.920574617898318,-0.276172385369506));
#1959=DIRECTION('',(0.0,0.0,1.0));
#1960=DIRECTION('',(-1.0,0.0,0.0));
#1961=DIRECTION('',(-1.0,0.0,0.0));
#1962=DIRECTION('',(-0.276172385369506,-0.920574617898318,0.276172385369506));
#1963=DIRECTION('',(0.276172385369506,0.920574617898318,0.276172385369506));
#1964=DIRECTION('',(0.0,0.0,-1.0));
#1965=DIRECTION('',(-1.0,0.0,0.0));
#1966=DIRECTION('',(0.0,0.0,1.0));
#1967=DIRECTION('',(-1.0,0.0,0.0));
#1968=DIRECTION('',(-0.276172385369506,0.920574617898318,-0.276172385369506));
#1969=DIRECTION('',(-1.0,0.0,0.0));
#1970=DIRECTION('',(1.0,0.0,0.0));
#1971=DIRECTION('',(0.0,0.0,1.0));
#1972=DIRECTION('',(1.0,0.0,0.0));
#1973=DIRECTION('',(0.0,0.0,1.0));
#1974=DIRECTION('',(-1.0,0.0,0.0));
#1975=DIRECTION('',(1.0,0.0,0.0));
#1976=DIRECTION('',(1.0,0.0,0.0));
#1977=DIRECTION('',(0.0,0.0,-1.0));
#1978=DIRECTION('',(1.0,0.0,0.0));
#1979=DIRECTION('',(0.0,0.0,-1.0));
#1980=DIRECTION('',(-1.0,0.0,0.0));
#1981=DIRECTION('',(0.276172385369506,-0.920574617898318,-0.276172385369506));
#1982=DIRECTION('',(0.0,0.707106781186548,0.707106781186548));
#1983=DIRECTION('',(0.0,0.707106781186548,0.707106781186548));
#1984=DIRECTION('',(1.0,0.0,0.0));
#1985=DIRECTION('',(0.0,0.0,-1.0));
#1986=DIRECTION('',(0.0,0.0,1.0));
#1987=DIRECTION('',(-1.0,0.0,0.0));
#1988=DIRECTION('',(0.0,0.0,-1.0));
#1989=DIRECTION('',(-1.0,0.0,0.0));
#1990=DIRECTION('',(0.0,0.0,1.0));
#1991=DIRECTION('',(-1.0,0.0,0.0));
#1992=DIRECTION('',(0.0,0.0,-1.0));
#1993=DIRECTION('',(-1.0,0.0,0.0));
#1994=DIRECTION('',(0.0,0.0,-1.0));
#1995=DIRECTION('',(1.0,0.0,0.0));
#1996=DIRECTION('',(0.0,0.0,-1.0));
#1997=DIRECTION('',(-1.0,0.0,0.0));
#1998=DIRECTION('',(0.0,0.0,1.0));
#1999=DIRECTION('',(1.0,0.0,0.0));
#2000=DIRECTION('',(0.0,0.0,-1.0));
#2001=DIRECTION('',(-1.0,0.0,0.0));
#2002=DIRECTION('',(0.0,0.0,1.0));
#2003=DIRECTION('',(1.0,0.0,0.0));
#2004=DIRECTION('',(0.0,1.0,0.0));
#2005=DIRECTION('',(1.0,0.0,0.0));
#2006=DIRECTION('',(0.0,1.0,0.0));
#2007=DIRECTION('',(0.0,0.0,-1.0));
#2008=DIRECTION('',(0.0,1.0,0.0));
#2009=DIRECTION('',(-1.0,0.0,0.0));
#2010=DIRECTION('',(0.0,1.0,0.0));
#2011=DIRECTION('',(0.0,0.0,1.0));
#2012=CARTESIAN_POINT('',(2.54,1.5,-3.5));
#2013=DIRECTION('',(1.0,0.0,0.0));
#2014=DIRECTION('',(0.0,-1.0,0.0));
#2015=CARTESIAN_POINT('',(-7.62,1.5,-3.5));
#2016=DIRECTION('',(1.0,0.0,0.0));
#2017=DIRECTION('',(0.0,-1.0,0.0));
#2018=DIRECTION('',(0.0,-0.707106781186548,0.707106781186548));
#2019=DIRECTION('',(0.0,1.0,0.0));
#2020=DIRECTION('',(0.0,1.0,0.0));
#2021=DIRECTION('',(0.0,1.0,0.0));
#2022=DIRECTION('',(0.0,1.0,0.0));
#2023=DIRECTION('',(0.0,1.0,0.0));
#2024=DIRECTION('',(0.0,-1.0,0.0));
#2025=DIRECTION('',(0.0,-0.707106781186548,0.707106781186548));
#2026=DIRECTION('',(0.0,1.0,0.0));
#2027=DIRECTION('',(1.0,0.0,0.0));
#2028=DIRECTION('',(0.0,1.0,0.0));
#2029=DIRECTION('',(0.0,0.0,-1.0));
#2030=DIRECTION('',(0.0,1.0,0.0));
#2031=DIRECTION('',(-1.0,0.0,0.0));
#2032=DIRECTION('',(0.0,1.0,0.0));
#2033=DIRECTION('',(0.0,0.0,1.0));
#2034=DIRECTION('',(0.0,1.0,0.0));
#2035=DIRECTION('',(0.0,-1.0,0.0));
#2036=DIRECTION('',(0.0,0.0,-1.0));
#2037=DIRECTION('',(0.0,-1.0,0.0));
#2038=DIRECTION('',(0.0,1.0,0.0));
#2039=DIRECTION('',(0.0,0.0,1.0));
#2040=DIRECTION('',(-0.276172385369506,-0.920574617898318,0.276172385369506));
#2041=DIRECTION('',(0.0,0.0,-1.0));
#2042=DIRECTION('',(-0.276172385369506,-0.920574617898318,-0.276172385369506));
#2043=DIRECTION('',(-1.0,0.0,0.0));
#2044=DIRECTION('',(0.276172385369506,-0.920574617898318,-0.276172385369506));
#2045=DIRECTION('',(-1.0,0.0,0.0));
#2046=DIRECTION('',(0.0,1.0,0.0));
#2047=DIRECTION('',(0.0,-1.0,0.0));
#2048=DIRECTION('',(0.0,0.0,1.0));
#2049=DIRECTION('',(0.0,1.0,0.0));
#2050=DIRECTION('',(0.0,-1.0,0.0));
#2051=DIRECTION('',(0.0,0.0,-1.0));
#2052=DIRECTION('',(-0.276172385369506,0.920574617898318,-0.276172385369506));
#2053=DIRECTION('',(0.0,0.0,1.0));
#2054=DIRECTION('',(-1.0,0.0,0.0));
#2055=DIRECTION('',(-1.0,0.0,0.0));
#2056=DIRECTION('',(-0.276172385369506,-0.920574617898318,0.276172385369506));
#2057=DIRECTION('',(0.276172385369506,0.920574617898318,0.276172385369506));
#2058=DIRECTION('',(0.0,0.0,-1.0));
#2059=DIRECTION('',(-1.0,0.0,0.0));
#2060=DIRECTION('',(0.0,0.0,1.0));
#2061=DIRECTION('',(-1.0,0.0,0.0));
#2062=DIRECTION('',(-0.276172385369506,0.920574617898318,-0.276172385369506));
#2063=DIRECTION('',(-1.0,0.0,0.0));
#2064=DIRECTION('',(0.276172385369506,-0.920574617898318,-0.276172385369506));
#2065=DIRECTION('',(-1.0,0.0,0.0));
ENDSEC;
END-ISO-10303-21;
