ISO-10303-21;
HEADER;
FILE_DESCRIPTION (( 'STEP AP203' ),
    '1' );
FILE_NAME ('充电座接插件.STEP',
    '2019-07-23T04:04:54',
    ( 'adu' ),
    ( '' ),
    'SwSTEP 2.0',
    'SolidWorks 2018',
    '' );
FILE_SCHEMA (( 'CONFIG_CONTROL_DESIGN' ));
ENDSEC;

DATA;
#1 = FACE_OUTER_BOUND ( 'NONE', #337, .T. ) ;
#2 = CC_DESIGN_PERSON_AND_ORGANIZATION_ASSIGNMENT ( #225, #279, ( #145 ) ) ;
#3 = ORIENTED_EDGE ( 'NONE', *, *, #502, .F. ) ;
#4 = MANIFOLD_SOLID_BREP ( '圆角1', #204 ) ;
#5 = ORIENTED_EDGE ( 'NONE', *, *, #319, .T. ) ;
#6 = EDGE_CURVE ( 'NONE', #414, #252, #153, .T. ) ;
#7 = CARTESIAN_POINT ( 'NONE',  ( 4.499999999999999112, 5.050000000000001599, 2.799999999999999822 ) ) ;
#8 = FACE_OUTER_BOUND ( 'NONE', #158, .T. ) ;
#9 = VECTOR ( 'NONE', #377, 1000.000000000000000 ) ;
#10 = CARTESIAN_POINT ( 'NONE',  ( -4.499999999999999112, -5.749999999999999112, 13.90000000000000036 ) ) ;
#11 = ORIENTED_EDGE ( 'NONE', *, *, #192, .T. ) ;
#12 = AXIS2_PLACEMENT_3D ( 'NONE', #391, #308, #196 ) ;
#13 = CARTESIAN_POINT ( 'NONE',  ( -0.09999999999999993616, 0.0000000000000000000, 1.800000000000000711 ) ) ;
#14 = EDGE_CURVE ( 'NONE', #149, #269, #95, .T. ) ;
#15 = CARTESIAN_POINT ( 'NONE',  ( 0.0000000000000000000, 0.0000000000000000000, 0.0000000000000000000 ) ) ;
#16 = LOCAL_TIME ( 12, 4, 54.00000000000000000, #357 ) ;
#17 = FACE_OUTER_BOUND ( 'NONE', #411, .T. ) ;
#18 = ORIENTED_EDGE ( 'NONE', *, *, #205, .F. ) ;
#19 = ORIENTED_EDGE ( 'NONE', *, *, #319, .F. ) ;
#20 = ADVANCED_FACE ( 'NONE', ( #164 ), #48, .T. ) ;
#21 = CARTESIAN_POINT ( 'NONE',  ( -4.499999999999999112, -5.749999999999999112, 0.0000000000000000000 ) ) ;
#22 = CARTESIAN_POINT ( 'NONE',  ( 0.0000000000000000000, 0.0000000000000000000, 2.800000000000000266 ) ) ;
#23 = APPROVAL ( #476, '未指定' ) ;
#24 = SHAPE_DEFINITION_REPRESENTATION ( #282, #88 ) ;
#25 = ORIENTED_EDGE ( 'NONE', *, *, #111, .T. ) ;
#26 = ORIENTED_EDGE ( 'NONE', *, *, #408, .T. ) ;
#27 = EDGE_CURVE ( 'NONE', #343, #495, #285, .T. ) ;
#28 = DIRECTION ( 'NONE',  ( 1.606225440719265874E-16, 1.000000000000000000, -0.0000000000000000000 ) ) ;
#29 = CARTESIAN_POINT ( 'NONE',  ( 4.499999999999999112, -5.749999999999999112, 13.90000000000000036 ) ) ;
#30 = DIRECTION ( 'NONE',  ( 0.0000000000000000000, 0.0000000000000000000, -1.000000000000000000 ) ) ;
#31 = CALENDAR_DATE ( 2019, 23, 7 ) ;
#32 = VECTOR ( 'NONE', #342, 1000.000000000000000 ) ;
#33 = ORIENTED_EDGE ( 'NONE', *, *, #260, .T. ) ;
#34 = DIRECTION ( 'NONE',  ( -1.000000000000000000, 0.0000000000000000000, 0.0000000000000000000 ) ) ;
#35 = CC_DESIGN_PERSON_AND_ORGANIZATION_ASSIGNMENT ( #460, #161, ( #360 ) ) ;
#36 = CARTESIAN_POINT ( 'NONE',  ( 0.0000000000000000000, 0.0000000000000000000, 1.800000000000000711 ) ) ;
#37 = DIRECTION ( 'NONE',  ( 0.0000000000000000000, -0.0000000000000000000, 1.000000000000000000 ) ) ;
#38 = EDGE_CURVE ( 'NONE', #206, #343, #129, .T. ) ;
#39 = CARTESIAN_POINT ( 'NONE',  ( 0.0000000000000000000, 0.0000000000000000000, 1.000000000000000888 ) ) ;
#40 = LINE ( 'NONE', #439, #367 ) ;
#41 = ORIENTED_EDGE ( 'NONE', *, *, #223, .T. ) ;
#42 = CC_DESIGN_APPROVAL ( #440, ( #274 ) ) ;
#43 = CARTESIAN_POINT ( 'NONE',  ( -4.499999999999999112, -5.749999999999999112, 13.90000000000000036 ) ) ;
#44 = AXIS2_PLACEMENT_3D ( 'NONE', #499, #503, #496 ) ;
#45 = LINE ( 'NONE', #345, #323 ) ;
#46 = CARTESIAN_POINT ( 'NONE',  ( 0.0000000000000000000, 0.0000000000000000000, 0.0000000000000000000 ) ) ;
#47 = ORIENTED_EDGE ( 'NONE', *, *, #65, .F. ) ;
#48 = PLANE ( 'NONE',  #514 ) ;
#49 = UNCERTAINTY_MEASURE_WITH_UNIT (LENGTH_MEASURE( 1.000000000000000082E-05 ), #315, 'distance_accuracy_value', 'NONE');
#50 = DIRECTION ( 'NONE',  ( 1.000000000000000000, 0.0000000000000000000, -0.0000000000000000000 ) ) ;
#51 = DIRECTION ( 'NONE',  ( -0.0000000000000000000, -0.0000000000000000000, -1.000000000000000000 ) ) ;
#52 = VERTEX_POINT ( 'NONE', #484 ) ;
#53 = ORIENTED_EDGE ( 'NONE', *, *, #54, .T. ) ;
#54 = EDGE_CURVE ( 'NONE', #179, #414, #100, .T. ) ;
#55 = DIRECTION ( 'NONE',  ( -1.000000000000000000, 0.0000000000000000000, 0.0000000000000000000 ) ) ;
#56 = TOROIDAL_SURFACE ( 'NONE', #159, 0.09999999999999993616, 0.8000000000000000444 ) ;
#57 = VECTOR ( 'NONE', #135, 1000.000000000000000 ) ;
#58 = EDGE_CURVE ( 'NONE', #234, #495, #122, .T. ) ;
#59 = ORIENTED_EDGE ( 'NONE', *, *, #212, .F. ) ;
#60 = CARTESIAN_POINT ( 'NONE',  ( 4.499999999999999112, 5.050000000000001599, 2.799999999999999822 ) ) ;
#61 = DIRECTION ( 'NONE',  ( -0.0000000000000000000, 0.0000000000000000000, -1.000000000000000000 ) ) ;
#62 = ADVANCED_FACE ( 'NONE', ( #226 ), #365, .F. ) ;
#63 = COORDINATED_UNIVERSAL_TIME_OFFSET ( 8, 0, .AHEAD. ) ;
#64 = EDGE_LOOP ( 'NONE', ( #33, #324, #172, #264, #305, #330 ) ) ;
#65 = EDGE_CURVE ( 'NONE', #293, #201, #350, .T. ) ;
#66 = DIRECTION ( 'NONE',  ( 1.508455196501571922E-16, -1.000000000000000000, 0.0000000000000000000 ) ) ;
#67 = CARTESIAN_POINT ( 'NONE',  ( 3.000000000000000444, 3.673940397442060361E-16, 0.0000000000000000000 ) ) ;
#68 = DATE_AND_TIME ( #277, #16 ) ;
#69 = CARTESIAN_POINT ( 'NONE',  ( -4.499999999999999112, -5.749999999999999112, 0.0000000000000000000 ) ) ;
#70 = LINE ( 'NONE', #110, #480 ) ;
#71 = ORIENTED_EDGE ( 'NONE', *, *, #134, .F. ) ;
#72 = AXIS2_PLACEMENT_3D ( 'NONE', #303, #425, #148 ) ;
#73 = DIRECTION ( 'NONE',  ( 0.0000000000000000000, 0.0000000000000000000, -1.000000000000000000 ) ) ;
#74 = DIRECTION ( 'NONE',  ( 0.0000000000000000000, 0.0000000000000000000, -1.000000000000000000 ) ) ;
#75 = CARTESIAN_POINT ( 'NONE',  ( 0.9000000000000000222, 0.0000000000000000000, 1.800000000000000711 ) ) ;
#76 = VECTOR ( 'NONE', #217, 1000.000000000000000 ) ;
#77 = ORIENTED_EDGE ( 'NONE', *, *, #271, .F. ) ;
#78 = ORIENTED_EDGE ( 'NONE', *, *, #212, .T. ) ;
#79 = PRODUCT_DEFINITION_FORMATION_WITH_SPECIFIED_SOURCE ( '任何', '', #145, .NOT_KNOWN. ) ;
#80 = DIRECTION ( 'NONE',  ( 1.000000000000000000, 0.0000000000000000000, 0.0000000000000000000 ) ) ;
#81 = EDGE_CURVE ( 'NONE', #149, #329, #398, .T. ) ;
#82 = PERSON_AND_ORGANIZATION ( #222, #453 ) ;
#83 = LINE ( 'NONE', #21, #76 ) ;
#84 = VERTEX_POINT ( 'NONE', #207 ) ;
#85 = PERSON_AND_ORGANIZATION_ROLE ( 'creator' ) ;
#86 = EDGE_CURVE ( 'NONE', #130, #293, #291, .T. ) ;
#87 = DIRECTION ( 'NONE',  ( -0.0000000000000000000, -0.0000000000000000000, -1.000000000000000000 ) ) ;
#88 = ADVANCED_BREP_SHAPE_REPRESENTATION ( '充电座接插件', ( #4, #116 ), #451 ) ;
#89 = VECTOR ( 'NONE', #301, 1000.000000000000000 ) ;
#90 = ORIENTED_EDGE ( 'NONE', *, *, #328, .F. ) ;
#91 = ORIENTED_EDGE ( 'NONE', *, *, #205, .T. ) ;
#92 = EDGE_CURVE ( 'NONE', #495, #234, #249, .T. ) ;
#93 = DIRECTION ( 'NONE',  ( 1.000000000000000000, -0.0000000000000000000, -0.0000000000000000000 ) ) ;
#94 = DIRECTION ( 'NONE',  ( 0.0000000000000000000, 0.0000000000000000000, -1.000000000000000000 ) ) ;
#95 = LINE ( 'NONE', #326, #216 ) ;
#96 = EDGE_LOOP ( 'NONE', ( #195, #424 ) ) ;
#97 = CARTESIAN_POINT ( 'NONE',  ( 0.0000000000000000000, 0.0000000000000000000, 1.800000000000000711 ) ) ;
#98 = DIRECTION ( 'NONE',  ( 0.0000000000000000000, 0.0000000000000000000, -1.000000000000000000 ) ) ;
#99 = CARTESIAN_POINT ( 'NONE',  ( 0.09999999999999993616, 6.123233995736764803E-17, 1.000000000000000888 ) ) ;
#100 = LINE ( 'NONE', #43, #494 ) ;
#101 = VERTEX_POINT ( 'NONE', #331 ) ;
#102 = CARTESIAN_POINT ( 'NONE',  ( -4.500000000000000000, -5.510910596163088569E-16, 0.0000000000000000000 ) ) ;
#103 = DIRECTION ( 'NONE',  ( 0.0000000000000000000, 0.0000000000000000000, -1.000000000000000000 ) ) ;
#104 = DIRECTION ( 'NONE',  ( -1.000000000000000000, 1.508455196501571922E-16, 0.0000000000000000000 ) ) ;
#105 = DATE_AND_TIME ( #31, #137 ) ;
#106 = LINE ( 'NONE', #102, #210 ) ;
#107 = EDGE_CURVE ( 'NONE', #219, #201, #506, .T. ) ;
#108 = ORIENTED_EDGE ( 'NONE', *, *, #302, .T. ) ;
#109 = CARTESIAN_POINT ( 'NONE',  ( -4.499999999999997335, 5.050000000000001599, 2.799999999999999822 ) ) ;
#110 = CARTESIAN_POINT ( 'NONE',  ( -4.500000000000000000, -5.510910596163088569E-16, 13.90000000000000036 ) ) ;
#111 = EDGE_CURVE ( 'NONE', #252, #101, #454, .T. ) ;
#112 = CARTESIAN_POINT ( 'NONE',  ( -0.09999999999999993616, 0.0000000000000000000, 1.000000000000000888 ) ) ;
#113 = CARTESIAN_POINT ( 'NONE',  ( 0.0000000000000000000, 0.0000000000000000000, 12.70000000000000284 ) ) ;
#114 = FACE_OUTER_BOUND ( 'NONE', #368, .T. ) ;
#115 = VERTEX_POINT ( 'NONE', #99 ) ;
#116 = AXIS2_PLACEMENT_3D ( 'NONE', #46, #165, #396 ) ;
#117 = DIRECTION ( 'NONE',  ( -1.000000000000000000, 0.0000000000000000000, 0.0000000000000000000 ) ) ;
#118 = DIRECTION ( 'NONE',  ( -1.000000000000000000, 0.0000000000000000000, 0.0000000000000000000 ) ) ;
#119 = EDGE_CURVE ( 'NONE', #404, #149, #375, .T. ) ;
#120 = APPLICATION_PROTOCOL_DEFINITION ( 'international standard', 'config_control_design', 1994, #434 ) ;
#121 = FACE_OUTER_BOUND ( 'NONE', #313, .T. ) ;
#122 = CIRCLE ( 'NONE', #188, 3.000000000000000444 ) ;
#123 = ORIENTED_EDGE ( 'NONE', *, *, #180, .T. ) ;
#124 = CC_DESIGN_APPROVAL ( #23, ( #79 ) ) ;
#125 = PERSON_AND_ORGANIZATION_ROLE ( 'design_supplier' ) ;
#126 = APPROVAL_ROLE ( '' ) ;
#127 = APPROVAL_STATUS ( 'not_yet_approved' ) ;
#128 = APPROVAL_PERSON_ORGANIZATION ( #209, #440, #198 ) ;
#129 = CIRCLE ( 'NONE', #173, 3.000000000000000444 ) ;
#130 = VERTEX_POINT ( 'NONE', #490 ) ;
#131 = CARTESIAN_POINT ( 'NONE',  ( -3.000000000000000444, 0.0000000000000000000, 12.70000000000000284 ) ) ;
#132 = CIRCLE ( 'NONE', #168, 0.8000000000000000444 ) ;
#133 = ORIENTED_EDGE ( 'NONE', *, *, #119, .T. ) ;
#134 = EDGE_CURVE ( 'NONE', #130, #219, #443, .T. ) ;
#135 = DIRECTION ( 'NONE',  ( 0.0000000000000000000, 0.0000000000000000000, -1.000000000000000000 ) ) ;
#136 = DIRECTION ( 'NONE',  ( 1.000000000000000000, 1.508455196501571922E-16, -0.0000000000000000000 ) ) ;
#137 = LOCAL_TIME ( 12, 4, 54.00000000000000000, #466 ) ;
#138 = FACE_OUTER_BOUND ( 'NONE', #473, .T. ) ;
#139 = ORIENTED_EDGE ( 'NONE', *, *, #266, .F. ) ;
#140 = DIRECTION ( 'NONE',  ( -0.0000000000000000000, -0.0000000000000000000, -1.000000000000000000 ) ) ;
#141 = DIRECTION ( 'NONE',  ( 1.508455196501571922E-16, -1.000000000000000000, 0.0000000000000000000 ) ) ;
#142 = CC_DESIGN_PERSON_AND_ORGANIZATION_ASSIGNMENT ( #493, #125, ( #79 ) ) ;
#143 = ADVANCED_FACE ( 'NONE', ( #138 ), #392, .T. ) ;
#144 = CARTESIAN_POINT ( 'NONE',  ( 0.0000000000000000000, 0.0000000000000000000, 1.800000000000000711 ) ) ;
#145 = PRODUCT ( '充电座接插件', '充电座接插件', '', ( #401 ) ) ;
#146 = CALENDAR_DATE ( 2019, 23, 7 ) ;
#147 = EDGE_CURVE ( 'NONE', #149, #404, #233, .T. ) ;
#148 = DIRECTION ( 'NONE',  ( 1.000000000000000000, 0.0000000000000000000, -0.0000000000000000000 ) ) ;
#149 = VERTEX_POINT ( 'NONE', #289 ) ;
#150 = CARTESIAN_POINT ( 'NONE',  ( 0.0000000000000000000, 0.0000000000000000000, 1.000000000000000888 ) ) ;
#151 = AXIS2_PLACEMENT_3D ( 'NONE', #228, #353, #117 ) ;
#152 = FACE_OUTER_BOUND ( 'NONE', #430, .T. ) ;
#153 = LINE ( 'NONE', #485, #193 ) ;
#154 = ORIENTED_EDGE ( 'NONE', *, *, #266, .T. ) ;
#155 = PLANE ( 'NONE',  #151 ) ;
#156 = CARTESIAN_POINT ( 'NONE',  ( -3.000000000000000444, 0.0000000000000000000, 12.70000000000000284 ) ) ;
#157 = LOCAL_TIME ( 12, 4, 54.00000000000000000, #384 ) ;
#158 = EDGE_LOOP ( 'NONE', ( #133, #257, #381, #489 ) ) ;
#159 = AXIS2_PLACEMENT_3D ( 'NONE', #36, #74, #34 ) ;
#160 =( NAMED_UNIT ( * ) PLANE_ANGLE_UNIT ( ) SI_UNIT ( $, .RADIAN. ) );
#161 = PERSON_AND_ORGANIZATION_ROLE ( 'classification_officer' ) ;
#162 = EDGE_CURVE ( 'NONE', #179, #415, #278, .T. ) ;
#163 = LINE ( 'NONE', #270, #428 ) ;
#164 = FACE_OUTER_BOUND ( 'NONE', #171, .T. ) ;
#165 = DIRECTION ( 'NONE',  ( 0.0000000000000000000, 0.0000000000000000000, 1.000000000000000000 ) ) ;
#166 = EDGE_LOOP ( 'NONE', ( #500, #437 ) ) ;
#167 = DIRECTION ( 'NONE',  ( -1.000000000000000000, 0.0000000000000000000, 0.0000000000000000000 ) ) ;
#168 = AXIS2_PLACEMENT_3D ( 'NONE', #276, #243, #483 ) ;
#169 = DATE_AND_TIME ( #146, #170 ) ;
#170 = LOCAL_TIME ( 12, 4, 54.00000000000000000, #63 ) ;
#171 = EDGE_LOOP ( 'NONE', ( #432, #41, #53, #482 ) ) ;
#172 = ORIENTED_EDGE ( 'NONE', *, *, #237, .T. ) ;
#173 = AXIS2_PLACEMENT_3D ( 'NONE', #321, #402, #167 ) ;
#174 = CARTESIAN_POINT ( 'NONE',  ( 0.0000000000000000000, 0.0000000000000000000, 1.800000000000000711 ) ) ;
#175 = AXIS2_PLACEMENT_3D ( 'NONE', #306, #395, #431 ) ;
#176 = CALENDAR_DATE ( 2019, 23, 7 ) ;
#177 = LINE ( 'NONE', #347, #268 ) ;
#178 = CARTESIAN_POINT ( 'NONE',  ( 0.0000000000000000000, 0.0000000000000000000, 0.0000000000000000000 ) ) ;
#179 = VERTEX_POINT ( 'NONE', #299 ) ;
#180 = EDGE_CURVE ( 'NONE', #191, #101, #190, .T. ) ;
#181 = ADVANCED_FACE ( 'NONE', ( #17 ), #410, .F. ) ;
#182 = FACE_OUTER_BOUND ( 'NONE', #364, .T. ) ;
#183 = ORIENTED_EDGE ( 'NONE', *, *, #92, .T. ) ;
#184 = DIRECTION ( 'NONE',  ( -1.606225440719265874E-16, -1.000000000000000000, -0.0000000000000000000 ) ) ;
#185 = CARTESIAN_POINT ( 'NONE',  ( -4.500000000000000000, -5.510910596163088569E-16, 2.800000000000000266 ) ) ;
#186 = AXIS2_PLACEMENT_3D ( 'NONE', #474, #478, #399 ) ;
#187 = PLANE ( 'NONE',  #336 ) ;
#188 = AXIS2_PLACEMENT_3D ( 'NONE', #178, #452, #370 ) ;
#189 = PLANE ( 'NONE',  #497 ) ;
#190 = CIRCLE ( 'NONE', #366, 4.500000000000000000 ) ;
#191 = VERTEX_POINT ( 'NONE', #185 ) ;
#192 = EDGE_CURVE ( 'NONE', #293, #415, #106, .T. ) ;
#193 = VECTOR ( 'NONE', #447, 1000.000000000000000 ) ;
#194 = APPROVAL ( #127, '未指定' ) ;
#195 = ORIENTED_EDGE ( 'NONE', *, *, #92, .F. ) ;
#196 = DIRECTION ( 'NONE',  ( -1.000000000000000000, 0.0000000000000000000, 0.0000000000000000000 ) ) ;
#197 = ORIENTED_EDGE ( 'NONE', *, *, #86, .F. ) ;
#198 = APPROVAL_ROLE ( '' ) ;
#199 = LOCAL_TIME ( 12, 4, 54.00000000000000000, #448 ) ;
#200 = CIRCLE ( 'NONE', #12, 3.000000000000000444 ) ;
#201 = VERTEX_POINT ( 'NONE', #463 ) ;
#202 = AXIS2_PLACEMENT_3D ( 'NONE', #470, #273, #312 ) ;
#203 = SECURITY_CLASSIFICATION_LEVEL ( 'unclassified' ) ;
#204 = CLOSED_SHELL ( 'NONE', ( #340, #458, #297, #143, #62, #371, #230, #20, #218, #406, #258, #181, #378, #388, #416, #208 ) ) ;
#205 = EDGE_CURVE ( 'NONE', #329, #115, #413, .T. ) ;
#206 = VERTEX_POINT ( 'NONE', #224 ) ;
#207 = CARTESIAN_POINT ( 'NONE',  ( 0.9000000000000000222, 0.0000000000000000000, 12.70000000000000284 ) ) ;
#208 = ADVANCED_FACE ( 'NONE', ( #182 ), #423, .T. ) ;
#209 = PERSON_AND_ORGANIZATION ( #222, #453 ) ;
#210 = VECTOR ( 'NONE', #141, 1000.000000000000000 ) ;
#211 = DIRECTION ( 'NONE',  ( -0.0000000000000000000, -0.0000000000000000000, 1.000000000000000000 ) ) ;
#212 = EDGE_CURVE ( 'NONE', #191, #130, #429, .T. ) ;
#213 = CARTESIAN_POINT ( 'NONE',  ( 4.500000000000000000, -5.510910596163087583E-16, 13.90000000000000036 ) ) ;
#214 = DIRECTION ( 'NONE',  ( -1.508455196501571922E-16, 1.000000000000000000, 0.0000000000000000000 ) ) ;
#215 = APPROVAL_PERSON_ORGANIZATION ( #322, #194, #126 ) ;
#216 = VECTOR ( 'NONE', #486, 1000.000000000000000 ) ;
#217 = DIRECTION ( 'NONE',  ( 1.000000000000000000, 0.0000000000000000000, 0.0000000000000000000 ) ) ;
#218 = ADVANCED_FACE ( 'NONE', ( #296, #114 ), #457, .F. ) ;
#219 = VERTEX_POINT ( 'NONE', #221 ) ;
#220 = DIRECTION ( 'NONE',  ( -1.000000000000000000, 0.0000000000000000000, 0.0000000000000000000 ) ) ;
#221 = CARTESIAN_POINT ( 'NONE',  ( 4.499999999999999112, 5.050000000000001599, 2.799999999999999822 ) ) ;
#222 = PERSON ( '未指定', '未指定', '未指定', ('未指定'), ('未指定'), ('未指定') ) ;
#223 = EDGE_CURVE ( 'NONE', #462, #179, #45, .T. ) ;
#224 = CARTESIAN_POINT ( 'NONE',  ( 3.000000000000000444, 3.673940397442060361E-16, 12.70000000000000284 ) ) ;
#225 = PERSON_AND_ORGANIZATION ( #222, #453 ) ;
#226 = FACE_OUTER_BOUND ( 'NONE', #369, .T. ) ;
#227 = ORIENTED_EDGE ( 'NONE', *, *, #14, .F. ) ;
#228 = CARTESIAN_POINT ( 'NONE',  ( 0.0000000000000000000, 0.0000000000000000000, 2.799999999999999822 ) ) ;
#229 = AXIS2_PLACEMENT_3D ( 'NONE', #247, #516, #239 ) ;
#230 = ADVANCED_FACE ( 'NONE', ( #256 ), #187, .F. ) ;
#231 = DATE_AND_TIME ( #240, #157 ) ;
#232 = AXIS2_PLACEMENT_3D ( 'NONE', #335, #136, #214 ) ;
#233 = CIRCLE ( 'NONE', #417, 0.9000000000000000222 ) ;
#234 = VERTEX_POINT ( 'NONE', #67 ) ;
#235 = ORIENTED_EDGE ( 'NONE', *, *, #65, .T. ) ;
#236 = CARTESIAN_POINT ( 'NONE',  ( 0.0000000000000000000, 0.0000000000000000000, 12.70000000000000284 ) ) ;
#237 = EDGE_CURVE ( 'NONE', #219, #101, #177, .T. ) ;
#238 = DIRECTION ( 'NONE',  ( -0.0000000000000000000, -0.0000000000000000000, -1.000000000000000000 ) ) ;
#239 = DIRECTION ( 'NONE',  ( 1.000000000000000000, 0.0000000000000000000, 0.0000000000000000000 ) ) ;
#240 = CALENDAR_DATE ( 2019, 23, 7 ) ;
#241 = CC_DESIGN_PERSON_AND_ORGANIZATION_ASSIGNMENT ( #82, #85, ( #79 ) ) ;
#242 = ORIENTED_EDGE ( 'NONE', *, *, #341, .F. ) ;
#243 = DIRECTION ( 'NONE',  ( -1.224646799147353207E-16, 1.000000000000000000, 0.0000000000000000000 ) ) ;
#244 = ORIENTED_EDGE ( 'NONE', *, *, #162, .F. ) ;
#245 = EDGE_CURVE ( 'NONE', #404, #84, #316, .T. ) ;
#246 = CARTESIAN_POINT ( 'NONE',  ( -3.000000000000000444, 0.0000000000000000000, 0.0000000000000000000 ) ) ;
#247 = CARTESIAN_POINT ( 'NONE',  ( 0.0000000000000000000, 0.0000000000000000000, 13.90000000000000036 ) ) ;
#248 = CYLINDRICAL_SURFACE ( 'NONE', #202, 0.9000000000000000222 ) ;
#249 = CIRCLE ( 'NONE', #446, 3.000000000000000444 ) ;
#250 = ORIENTED_EDGE ( 'NONE', *, *, #54, .F. ) ;
#251 = CIRCLE ( 'NONE', #229, 4.500000000000000000 ) ;
#252 = VERTEX_POINT ( 'NONE', #259 ) ;
#253 = CC_DESIGN_DATE_AND_TIME_ASSIGNMENT ( #442, #361, ( #274 ) ) ;
#254 = DIRECTION ( 'NONE',  ( 1.000000000000000000, 0.0000000000000000000, 0.0000000000000000000 ) ) ;
#255 = APPROVAL_DATE_TIME ( #105, #440 ) ;
#256 = FACE_OUTER_BOUND ( 'NONE', #64, .T. ) ;
#257 = ORIENTED_EDGE ( 'NONE', *, *, #14, .T. ) ;
#258 = ADVANCED_FACE ( 'NONE', ( #1 ), #421, .T. ) ;
#259 = CARTESIAN_POINT ( 'NONE',  ( 4.500000000000000000, -5.510910596163087583E-16, 13.90000000000000036 ) ) ;
#260 = EDGE_CURVE ( 'NONE', #52, #201, #304, .T. ) ;
#261 = CARTESIAN_POINT ( 'NONE',  ( 4.499999999999999112, -5.749999999999999112, 13.90000000000000036 ) ) ;
#262 = CARTESIAN_POINT ( 'NONE',  ( -0.9000000000000000222, 1.102182119232617788E-16, 12.70000000000000284 ) ) ;
#263 = ORIENTED_EDGE ( 'NONE', *, *, #147, .F. ) ;
#264 = ORIENTED_EDGE ( 'NONE', *, *, #111, .F. ) ;
#265 = DIRECTION ( 'NONE',  ( 0.0000000000000000000, 0.0000000000000000000, -1.000000000000000000 ) ) ;
#266 = EDGE_CURVE ( 'NONE', #415, #52, #83, .T. ) ;
#267 = FACE_OUTER_BOUND ( 'NONE', #311, .T. ) ;
#268 = VECTOR ( 'NONE', #184, 1000.000000000000000 ) ;
#269 = VERTEX_POINT ( 'NONE', #262 ) ;
#270 = CARTESIAN_POINT ( 'NONE',  ( 3.000000000000000444, 3.673940397442060361E-16, 12.70000000000000284 ) ) ;
#271 = EDGE_CURVE ( 'NONE', #115, #329, #385, .T. ) ;
#272 = CARTESIAN_POINT ( 'NONE',  ( 0.0000000000000000000, 0.0000000000000000000, 1.000000000000000888 ) ) ;
#273 = DIRECTION ( 'NONE',  ( -0.0000000000000000000, -0.0000000000000000000, 1.000000000000000000 ) ) ;
#274 = PRODUCT_DEFINITION ( '未知', '', #79, #307 ) ;
#275 = ORIENTED_EDGE ( 'NONE', *, *, #134, .T. ) ;
#276 = CARTESIAN_POINT ( 'NONE',  ( 0.09999999999999993616, 1.224646799147352344E-17, 1.800000000000000711 ) ) ;
#277 = CALENDAR_DATE ( 2019, 23, 7 ) ;
#278 = LINE ( 'NONE', #10, #32 ) ;
#279 = PERSON_AND_ORGANIZATION_ROLE ( 'design_owner' ) ;
#280 = ORIENTED_EDGE ( 'NONE', *, *, #237, .F. ) ;
#281 = DIRECTION ( 'NONE',  ( -0.0000000000000000000, -0.0000000000000000000, 1.000000000000000000 ) ) ;
#282 = PRODUCT_DEFINITION_SHAPE ( 'NONE', 'NONE',  #274 ) ;
#283 = AXIS2_PLACEMENT_3D ( 'NONE', #150, #265, #220 ) ;
#284 = DIRECTION ( 'NONE',  ( 0.0000000000000000000, 0.0000000000000000000, 1.000000000000000000 ) ) ;
#285 = LINE ( 'NONE', #131, #363 ) ;
#286 = EDGE_CURVE ( 'NONE', #343, #206, #200, .T. ) ;
#287 = ORIENTED_EDGE ( 'NONE', *, *, #192, .F. ) ;
#288 = DIRECTION ( 'NONE',  ( -0.0000000000000000000, -0.0000000000000000000, 1.000000000000000000 ) ) ;
#289 = CARTESIAN_POINT ( 'NONE',  ( -0.9000000000000000222, 1.102182119232617788E-16, 1.800000000000000711 ) ) ;
#290 = APPROVAL_DATE_TIME ( #231, #23 ) ;
#291 = LINE ( 'NONE', #455, #9 ) ;
#292 = DIRECTION ( 'NONE',  ( -1.000000000000000000, 0.0000000000000000000, 0.0000000000000000000 ) ) ;
#293 = VERTEX_POINT ( 'NONE', #352 ) ;
#294 = CARTESIAN_POINT ( 'NONE',  ( 4.499999999999999112, 5.050000000000001599, 0.0000000000000000000 ) ) ;
#295 = DIRECTION ( 'NONE',  ( -1.000000000000000000, 0.0000000000000000000, 0.0000000000000000000 ) ) ;
#296 = FACE_BOUND ( 'NONE', #96, .T. ) ;
#297 = ADVANCED_FACE ( 'NONE', ( #487 ), #498, .F. ) ;
#298 = ORIENTED_EDGE ( 'NONE', *, *, #328, .T. ) ;
#299 = CARTESIAN_POINT ( 'NONE',  ( -4.499999999999999112, -5.749999999999999112, 13.90000000000000036 ) ) ;
#300 = CC_DESIGN_DATE_AND_TIME_ASSIGNMENT ( #68, #438, ( #360 ) ) ;
#301 = DIRECTION ( 'NONE',  ( 1.508455196501571922E-16, 1.000000000000000000, 0.0000000000000000000 ) ) ;
#302 = EDGE_CURVE ( 'NONE', #84, #269, #379, .T. ) ;
#303 = CARTESIAN_POINT ( 'NONE',  ( 0.0000000000000000000, 0.0000000000000000000, 0.0000000000000000000 ) ) ;
#304 = LINE ( 'NONE', #504, #89 ) ;
#305 = ORIENTED_EDGE ( 'NONE', *, *, #6, .F. ) ;
#306 = CARTESIAN_POINT ( 'NONE',  ( 0.0000000000000000000, 0.0000000000000000000, 12.70000000000000284 ) ) ;
#307 = DESIGN_CONTEXT ( 'detailed design', #434, 'design' ) ;
#308 = DIRECTION ( 'NONE',  ( 0.0000000000000000000, 0.0000000000000000000, -1.000000000000000000 ) ) ;
#309 = DIRECTION ( 'NONE',  ( -0.0000000000000000000, -0.0000000000000000000, -1.000000000000000000 ) ) ;
#310 = ORIENTED_EDGE ( 'NONE', *, *, #119, .F. ) ;
#311 = EDGE_LOOP ( 'NONE', ( #59, #123, #280, #71 ) ) ;
#312 = DIRECTION ( 'NONE',  ( 1.000000000000000000, 0.0000000000000000000, 0.0000000000000000000 ) ) ;
#313 = EDGE_LOOP ( 'NONE', ( #227, #456, #507, #108 ) ) ;
#314 = AXIS2_PLACEMENT_3D ( 'NONE', #272, #30, #118 ) ;
#315 =( LENGTH_UNIT ( ) NAMED_UNIT ( * ) SI_UNIT ( .MILLI., .METRE. ) );
#316 = LINE ( 'NONE', #380, #515 ) ;
#317 = ORIENTED_EDGE ( 'NONE', *, *, #286, .F. ) ;
#318 = APPLICATION_PROTOCOL_DEFINITION ( 'international standard', 'config_control_design', 1994, #359 ) ;
#319 = EDGE_CURVE ( 'NONE', #462, #191, #70, .T. ) ;
#320 = APPROVAL_ROLE ( '' ) ;
#321 = CARTESIAN_POINT ( 'NONE',  ( 0.0000000000000000000, 0.0000000000000000000, 12.70000000000000284 ) ) ;
#322 = PERSON_AND_ORGANIZATION ( #222, #453 ) ;
#323 = VECTOR ( 'NONE', #66, 1000.000000000000000 ) ;
#324 = ORIENTED_EDGE ( 'NONE', *, *, #107, .F. ) ;
#325 = ORIENTED_EDGE ( 'NONE', *, *, #491, .F. ) ;
#326 = CARTESIAN_POINT ( 'NONE',  ( -0.9000000000000000222, 1.102182119232617788E-16, 1.000000000000000888 ) ) ;
#327 = CC_DESIGN_APPROVAL ( #194, ( #360 ) ) ;
#328 = EDGE_CURVE ( 'NONE', #206, #234, #163, .T. ) ;
#329 = VERTEX_POINT ( 'NONE', #112 ) ;
#330 = ORIENTED_EDGE ( 'NONE', *, *, #491, .T. ) ;
#331 = CARTESIAN_POINT ( 'NONE',  ( 4.500000000000000000, -5.510910596163087583E-16, 2.800000000000000266 ) ) ;
#332 = AXIS2_PLACEMENT_3D ( 'NONE', #355, #309, #465 ) ;
#333 = DIRECTION ( 'NONE',  ( 1.000000000000000000, -0.0000000000000000000, -0.0000000000000000000 ) ) ;
#334 = VECTOR ( 'NONE', #140, 1000.000000000000000 ) ;
#335 = CARTESIAN_POINT ( 'NONE',  ( -4.500000000000000000, -5.510910596163088569E-16, 13.90000000000000036 ) ) ;
#336 = AXIS2_PLACEMENT_3D ( 'NONE', #261, #104, #418 ) ;
#337 = EDGE_LOOP ( 'NONE', ( #47, #197, #275, #400 ) ) ;
#338 = ORIENTED_EDGE ( 'NONE', *, *, #27, .T. ) ;
#339 = DIRECTION ( 'NONE',  ( 0.0000000000000000000, 1.000000000000000000, 0.0000000000000000000 ) ) ;
#340 = ADVANCED_FACE ( 'NONE', ( #152 ), #56, .T. ) ;
#341 = EDGE_CURVE ( 'NONE', #269, #84, #362, .T. ) ;
#342 = DIRECTION ( 'NONE',  ( -0.0000000000000000000, -0.0000000000000000000, -1.000000000000000000 ) ) ;
#343 = VERTEX_POINT ( 'NONE', #156 ) ;
#344 = EDGE_LOOP ( 'NONE', ( #91, #449 ) ) ;
#345 = CARTESIAN_POINT ( 'NONE',  ( -4.500000000000000000, -5.510910596163088569E-16, 13.90000000000000036 ) ) ;
#346 = AXIS2_PLACEMENT_3D ( 'NONE', #113, #73, #508 ) ;
#347 = CARTESIAN_POINT ( 'NONE',  ( 4.499999999999999112, 5.050000000000001599, 2.799999999999999822 ) ) ;
#348 = AXIS2_PLACEMENT_3D ( 'NONE', #13, #412, #98 ) ;
#349 = FACE_BOUND ( 'NONE', #475, .T. ) ;
#350 = LINE ( 'NONE', #294, #511 ) ;
#351 = ORIENTED_EDGE ( 'NONE', *, *, #81, .T. ) ;
#352 = CARTESIAN_POINT ( 'NONE',  ( -4.499999999999997335, 5.050000000000001599, 0.0000000000000000000 ) ) ;
#353 = DIRECTION ( 'NONE',  ( 0.0000000000000000000, 0.0000000000000000000, -1.000000000000000000 ) ) ;
#354 = CC_DESIGN_PERSON_AND_ORGANIZATION_ASSIGNMENT ( #409, #441, ( #274 ) ) ;
#355 = CARTESIAN_POINT ( 'NONE',  ( 0.0000000000000000000, 0.0000000000000000000, 12.70000000000000284 ) ) ;
#356 = APPROVAL_DATE_TIME ( #169, #194 ) ;
#357 = COORDINATED_UNIVERSAL_TIME_OFFSET ( 8, 0, .AHEAD. ) ;
#358 = ORIENTED_EDGE ( 'NONE', *, *, #81, .F. ) ;
#359 = APPLICATION_CONTEXT ( 'configuration controlled 3d designs of mechanical parts and assemblies' ) ;
#360 = SECURITY_CLASSIFICATION ( '', '', #203 ) ;
#361 = DATE_TIME_ROLE ( 'creation_date' ) ;
#362 = CIRCLE ( 'NONE', #175, 0.9000000000000000222 ) ;
#363 = VECTOR ( 'NONE', #51, 1000.000000000000000 ) ;
#364 = EDGE_LOOP ( 'NONE', ( #376, #263, #351, #77 ) ) ;
#365 = PLANE ( 'NONE',  #232 ) ;
#366 = AXIS2_PLACEMENT_3D ( 'NONE', #22, #61, #383 ) ;
#367 = VECTOR ( 'NONE', #87, 1000.000000000000000 ) ;
#368 = EDGE_LOOP ( 'NONE', ( #287, #235, #461, #139 ) ) ;
#369 = EDGE_LOOP ( 'NONE', ( #11, #244, #405, #5, #78, #512 ) ) ;
#370 = DIRECTION ( 'NONE',  ( -1.000000000000000000, 0.0000000000000000000, 0.0000000000000000000 ) ) ;
#371 = ADVANCED_FACE ( 'NONE', ( #420 ), #390, .F. ) ;
#372 = PRODUCT_RELATED_PRODUCT_CATEGORY ( 'detail', '', ( #145 ) ) ;
#373 = CARTESIAN_POINT ( 'NONE',  ( 4.499999999999999112, 5.050000000000001599, 2.799999999999999822 ) ) ;
#374 = AXIS2_PLACEMENT_3D ( 'NONE', #97, #288, #492 ) ;
#375 = CIRCLE ( 'NONE', #374, 0.9000000000000000222 ) ;
#376 = ORIENTED_EDGE ( 'NONE', *, *, #408, .F. ) ;
#377 = DIRECTION ( 'NONE',  ( 0.0000000000000000000, 0.0000000000000000000, -1.000000000000000000 ) ) ;
#378 = ADVANCED_FACE ( 'NONE', ( #349, #479 ), #189, .T. ) ;
#379 = CIRCLE ( 'NONE', #346, 0.9000000000000000222 ) ;
#380 = CARTESIAN_POINT ( 'NONE',  ( 0.9000000000000000222, 0.0000000000000000000, 1.000000000000000888 ) ) ;
#381 = ORIENTED_EDGE ( 'NONE', *, *, #341, .T. ) ;
#382 = ORIENTED_EDGE ( 'NONE', *, *, #27, .F. ) ;
#383 = DIRECTION ( 'NONE',  ( -1.000000000000000000, 0.0000000000000000000, 0.0000000000000000000 ) ) ;
#384 = COORDINATED_UNIVERSAL_TIME_OFFSET ( 8, 0, .AHEAD. ) ;
#385 = CIRCLE ( 'NONE', #314, 0.09999999999999993616 ) ;
#386 = EDGE_LOOP ( 'NONE', ( #488, #298, #436, #382 ) ) ;
#387 = CC_DESIGN_SECURITY_CLASSIFICATION ( #360, ( #79 ) ) ;
#388 = ADVANCED_FACE ( 'NONE', ( #121 ), #248, .T. ) ;
#389 = DIRECTION ( 'NONE',  ( -0.0000000000000000000, -0.0000000000000000000, -1.000000000000000000 ) ) ;
#390 = PLANE ( 'NONE',  #471 ) ;
#391 = CARTESIAN_POINT ( 'NONE',  ( 0.0000000000000000000, 0.0000000000000000000, 12.70000000000000284 ) ) ;
#392 = CYLINDRICAL_SURFACE ( 'NONE', #426, 4.500000000000000000 ) ;
#393 = EDGE_LOOP ( 'NONE', ( #154, #325, #250, #469 ) ) ;
#394 = AXIS2_PLACEMENT_3D ( 'NONE', #60, #339, #459 ) ;
#395 = DIRECTION ( 'NONE',  ( 0.0000000000000000000, 0.0000000000000000000, -1.000000000000000000 ) ) ;
#396 = DIRECTION ( 'NONE',  ( 1.000000000000000000, 0.0000000000000000000, 0.0000000000000000000 ) ) ;
#397 = PERSON_AND_ORGANIZATION ( #222, #453 ) ;
#398 = CIRCLE ( 'NONE', #348, 0.7999999999999999334 ) ;
#399 = DIRECTION ( 'NONE',  ( -1.000000000000000000, 0.0000000000000000000, -0.0000000000000000000 ) ) ;
#400 = ORIENTED_EDGE ( 'NONE', *, *, #107, .T. ) ;
#401 = MECHANICAL_CONTEXT ( 'NONE', #359, 'mechanical' ) ;
#402 = DIRECTION ( 'NONE',  ( 0.0000000000000000000, 0.0000000000000000000, -1.000000000000000000 ) ) ;
#403 = VECTOR ( 'NONE', #28, 1000.000000000000000 ) ;
#404 = VERTEX_POINT ( 'NONE', #75 ) ;
#405 = ORIENTED_EDGE ( 'NONE', *, *, #223, .F. ) ;
#406 = ADVANCED_FACE ( 'NONE', ( #267 ), #155, .F. ) ;
#407 = CARTESIAN_POINT ( 'NONE',  ( 0.0000000000000000000, 0.0000000000000000000, 13.90000000000000036 ) ) ;
#408 = EDGE_CURVE ( 'NONE', #404, #115, #132, .T. ) ;
#409 = PERSON_AND_ORGANIZATION ( #222, #453 ) ;
#410 = CYLINDRICAL_SURFACE ( 'NONE', #44, 3.000000000000000444 ) ;
#411 = EDGE_LOOP ( 'NONE', ( #90, #317, #338, #183 ) ) ;
#412 = DIRECTION ( 'NONE',  ( -0.0000000000000000000, -1.000000000000000000, -0.0000000000000000000 ) ) ;
#413 = CIRCLE ( 'NONE', #283, 0.09999999999999993616 ) ;
#414 = VERTEX_POINT ( 'NONE', #29 ) ;
#415 = VERTEX_POINT ( 'NONE', #69 ) ;
#416 = ADVANCED_FACE ( 'NONE', ( #472 ), #477, .T. ) ;
#417 = AXIS2_PLACEMENT_3D ( 'NONE', #174, #211, #55 ) ;
#418 = DIRECTION ( 'NONE',  ( -1.508455196501571922E-16, -1.000000000000000000, 0.0000000000000000000 ) ) ;
#419 = DIRECTION ( 'NONE',  ( -1.000000000000000000, 0.0000000000000000000, 0.0000000000000000000 ) ) ;
#420 = FACE_OUTER_BOUND ( 'NONE', #393, .T. ) ;
#421 = PLANE ( 'NONE',  #394 ) ;
#422 = AXIS2_PLACEMENT_3D ( 'NONE', #39, #281, #80 ) ;
#423 = TOROIDAL_SURFACE ( 'NONE', #481, 0.09999999999999993616, 0.8000000000000000444 ) ;
#424 = ORIENTED_EDGE ( 'NONE', *, *, #58, .F. ) ;
#425 = DIRECTION ( 'NONE',  ( 0.0000000000000000000, 0.0000000000000000000, 1.000000000000000000 ) ) ;
#426 = AXIS2_PLACEMENT_3D ( 'NONE', #407, #450, #292 ) ;
#427 = DIRECTION ( 'NONE',  ( -1.000000000000000000, 0.0000000000000000000, -0.0000000000000000000 ) ) ;
#428 = VECTOR ( 'NONE', #389, 1000.000000000000000 ) ;
#429 = LINE ( 'NONE', #109, #403 ) ;
#430 = EDGE_LOOP ( 'NONE', ( #310, #26, #18, #358 ) ) ;
#431 = DIRECTION ( 'NONE',  ( -1.000000000000000000, 0.0000000000000000000, 0.0000000000000000000 ) ) ;
#432 = ORIENTED_EDGE ( 'NONE', *, *, #502, .T. ) ;
#433 =( NAMED_UNIT ( * ) SI_UNIT ( $, .STERADIAN. ) SOLID_ANGLE_UNIT ( ) );
#434 = APPLICATION_CONTEXT ( 'configuration controlled 3d designs of mechanical parts and assemblies' ) ;
#435 = CYLINDRICAL_SURFACE ( 'NONE', #422, 0.9000000000000000222 ) ;
#436 = ORIENTED_EDGE ( 'NONE', *, *, #58, .T. ) ;
#437 = ORIENTED_EDGE ( 'NONE', *, *, #38, .T. ) ;
#438 = DATE_TIME_ROLE ( 'classification_date' ) ;
#439 = CARTESIAN_POINT ( 'NONE',  ( 4.499999999999999112, -5.749999999999999112, 13.90000000000000036 ) ) ;
#440 = APPROVAL ( #517, '未指定' ) ;
#441 = PERSON_AND_ORGANIZATION_ROLE ( 'creator' ) ;
#442 = DATE_AND_TIME ( #176, #199 ) ;
#443 = LINE ( 'NONE', #7, #468 ) ;
#444 = ORIENTED_EDGE ( 'NONE', *, *, #180, .F. ) ;
#445 = CARTESIAN_POINT ( 'NONE',  ( 0.0000000000000000000, 0.0000000000000000000, 13.90000000000000036 ) ) ;
#446 = AXIS2_PLACEMENT_3D ( 'NONE', #15, #94, #295 ) ;
#447 = DIRECTION ( 'NONE',  ( 1.508455196501571922E-16, 1.000000000000000000, 0.0000000000000000000 ) ) ;
#448 = COORDINATED_UNIVERSAL_TIME_OFFSET ( 8, 0, .AHEAD. ) ;
#449 = ORIENTED_EDGE ( 'NONE', *, *, #271, .T. ) ;
#450 = DIRECTION ( 'NONE',  ( -0.0000000000000000000, -0.0000000000000000000, -1.000000000000000000 ) ) ;
#451 =( GEOMETRIC_REPRESENTATION_CONTEXT ( 3 ) GLOBAL_UNCERTAINTY_ASSIGNED_CONTEXT ( ( #49 ) ) GLOBAL_UNIT_ASSIGNED_CONTEXT ( ( #315, #160, #433 ) ) REPRESENTATION_CONTEXT ( 'NONE', 'WORKASPACE' ) );
#452 = DIRECTION ( 'NONE',  ( 0.0000000000000000000, 0.0000000000000000000, -1.000000000000000000 ) ) ;
#453 = ORGANIZATION ( '未指定', '未指定', '' ) ;
#454 = LINE ( 'NONE', #213, #334 ) ;
#455 = CARTESIAN_POINT ( 'NONE',  ( -4.499999999999997335, 5.050000000000001599, 2.799999999999999822 ) ) ;
#456 = ORIENTED_EDGE ( 'NONE', *, *, #147, .T. ) ;
#457 = PLANE ( 'NONE',  #72 ) ;
#458 = ADVANCED_FACE ( 'NONE', ( #8 ), #435, .T. ) ;
#459 = DIRECTION ( 'NONE',  ( 0.0000000000000000000, -0.0000000000000000000, 1.000000000000000000 ) ) ;
#460 = PERSON_AND_ORGANIZATION ( #222, #453 ) ;
#461 = ORIENTED_EDGE ( 'NONE', *, *, #260, .F. ) ;
#462 = VERTEX_POINT ( 'NONE', #513 ) ;
#463 = CARTESIAN_POINT ( 'NONE',  ( 4.499999999999999112, 5.050000000000001599, 0.0000000000000000000 ) ) ;
#464 = DIRECTION ( 'NONE',  ( -0.0000000000000000000, -0.0000000000000000000, 1.000000000000000000 ) ) ;
#465 = DIRECTION ( 'NONE',  ( -1.000000000000000000, 0.0000000000000000000, 0.0000000000000000000 ) ) ;
#466 = COORDINATED_UNIVERSAL_TIME_OFFSET ( 8, 0, .AHEAD. ) ;
#467 = DIRECTION ( 'NONE',  ( 0.0000000000000000000, 0.0000000000000000000, -1.000000000000000000 ) ) ;
#468 = VECTOR ( 'NONE', #93, 1000.000000000000000 ) ;
#469 = ORIENTED_EDGE ( 'NONE', *, *, #162, .T. ) ;
#470 = CARTESIAN_POINT ( 'NONE',  ( 0.0000000000000000000, 0.0000000000000000000, 1.000000000000000888 ) ) ;
#471 = AXIS2_PLACEMENT_3D ( 'NONE', #510, #509, #37 ) ;
#472 = FACE_OUTER_BOUND ( 'NONE', #344, .T. ) ;
#473 = EDGE_LOOP ( 'NONE', ( #444, #19, #3, #25 ) ) ;
#474 = CARTESIAN_POINT ( 'NONE',  ( 0.0000000000000000000, 0.0000000000000000000, 1.000000000000000888 ) ) ;
#475 = EDGE_LOOP ( 'NONE', ( #501, #242 ) ) ;
#476 = APPROVAL_STATUS ( 'not_yet_approved' ) ;
#477 = PLANE ( 'NONE',  #186 ) ;
#478 = DIRECTION ( 'NONE',  ( 0.0000000000000000000, 0.0000000000000000000, -1.000000000000000000 ) ) ;
#479 = FACE_OUTER_BOUND ( 'NONE', #166, .T. ) ;
#480 = VECTOR ( 'NONE', #238, 1000.000000000000000 ) ;
#481 = AXIS2_PLACEMENT_3D ( 'NONE', #144, #103, #419 ) ;
#482 = ORIENTED_EDGE ( 'NONE', *, *, #6, .T. ) ;
#483 = DIRECTION ( 'NONE',  ( -1.000000000000000000, -1.224646799147353207E-16, 0.0000000000000000000 ) ) ;
#484 = CARTESIAN_POINT ( 'NONE',  ( 4.499999999999999112, -5.749999999999999112, 0.0000000000000000000 ) ) ;
#485 = CARTESIAN_POINT ( 'NONE',  ( 4.499999999999999112, -5.749999999999999112, 13.90000000000000036 ) ) ;
#486 = DIRECTION ( 'NONE',  ( -0.0000000000000000000, -0.0000000000000000000, 1.000000000000000000 ) ) ;
#487 = FACE_OUTER_BOUND ( 'NONE', #386, .T. ) ;
#488 = ORIENTED_EDGE ( 'NONE', *, *, #38, .F. ) ;
#489 = ORIENTED_EDGE ( 'NONE', *, *, #245, .F. ) ;
#490 = CARTESIAN_POINT ( 'NONE',  ( -4.499999999999997335, 5.050000000000001599, 2.799999999999999822 ) ) ;
#491 = EDGE_CURVE ( 'NONE', #414, #52, #40, .T. ) ;
#492 = DIRECTION ( 'NONE',  ( -1.000000000000000000, 0.0000000000000000000, 0.0000000000000000000 ) ) ;
#493 = PERSON_AND_ORGANIZATION ( #222, #453 ) ;
#494 = VECTOR ( 'NONE', #254, 1000.000000000000000 ) ;
#495 = VERTEX_POINT ( 'NONE', #246 ) ;
#496 = DIRECTION ( 'NONE',  ( -1.000000000000000000, 0.0000000000000000000, 0.0000000000000000000 ) ) ;
#497 = AXIS2_PLACEMENT_3D ( 'NONE', #236, #467, #427 ) ;
#498 = CYLINDRICAL_SURFACE ( 'NONE', #332, 3.000000000000000444 ) ;
#499 = CARTESIAN_POINT ( 'NONE',  ( 0.0000000000000000000, 0.0000000000000000000, 12.70000000000000284 ) ) ;
#500 = ORIENTED_EDGE ( 'NONE', *, *, #286, .T. ) ;
#501 = ORIENTED_EDGE ( 'NONE', *, *, #302, .F. ) ;
#502 = EDGE_CURVE ( 'NONE', #252, #462, #251, .T. ) ;
#503 = DIRECTION ( 'NONE',  ( -0.0000000000000000000, -0.0000000000000000000, -1.000000000000000000 ) ) ;
#504 = CARTESIAN_POINT ( 'NONE',  ( 4.499999999999999112, -5.749999999999999112, 0.0000000000000000000 ) ) ;
#505 = APPROVAL_PERSON_ORGANIZATION ( #397, #23, #320 ) ;
#506 = LINE ( 'NONE', #373, #57 ) ;
#507 = ORIENTED_EDGE ( 'NONE', *, *, #245, .T. ) ;
#508 = DIRECTION ( 'NONE',  ( -1.000000000000000000, 0.0000000000000000000, 0.0000000000000000000 ) ) ;
#509 = DIRECTION ( 'NONE',  ( 0.0000000000000000000, 1.000000000000000000, 0.0000000000000000000 ) ) ;
#510 = CARTESIAN_POINT ( 'NONE',  ( -4.499999999999999112, -5.749999999999999112, 13.90000000000000036 ) ) ;
#511 = VECTOR ( 'NONE', #333, 1000.000000000000000 ) ;
#512 = ORIENTED_EDGE ( 'NONE', *, *, #86, .T. ) ;
#513 = CARTESIAN_POINT ( 'NONE',  ( -4.500000000000000000, -5.510910596163088569E-16, 13.90000000000000036 ) ) ;
#514 = AXIS2_PLACEMENT_3D ( 'NONE', #445, #284, #50 ) ;
#515 = VECTOR ( 'NONE', #464, 1000.000000000000000 ) ;
#516 = DIRECTION ( 'NONE',  ( 0.0000000000000000000, 0.0000000000000000000, 1.000000000000000000 ) ) ;
#517 = APPROVAL_STATUS ( 'not_yet_approved' ) ;
ENDSEC;
END-ISO-10303-21;
