ISO-10303-21;
HEADER;
FILE_DESCRIPTION((''),'2;1');
FILE_NAME('USER_LIBRARY-CAP_SMD_SVP_6_3X_2_ASM','2022-02-19T14:27:00',('fyq'),(
''),'CREO PARAMETRIC BY PTC INC, 2020033','CREO PARAMETRIC BY PTC INC, 2020033',
'');
FILE_SCHEMA(('CONFIG_CONTROL_DESIGN'));
ENDSEC;
DATA;
#2=DIRECTION('',(0.E0,-1.E0,0.E0));
#3=VECTOR('',#2,7.E-1);
#4=CARTESIAN_POINT('',(-1.05E0,3.5E-1,0.E0));
#5=LINE('',#4,#3);
#6=DIRECTION('',(1.E0,0.E0,0.E0));
#7=VECTOR('',#6,2.6E0);
#8=CARTESIAN_POINT('',(-3.65E0,3.5E-1,0.E0));
#9=LINE('',#8,#7);
#10=DIRECTION('',(0.E0,1.E0,0.E0));
#11=VECTOR('',#10,7.E-1);
#12=CARTESIAN_POINT('',(-3.65E0,-3.5E-1,0.E0));
#13=LINE('',#12,#11);
#14=DIRECTION('',(-1.E0,0.E0,0.E0));
#15=VECTOR('',#14,2.6E0);
#16=CARTESIAN_POINT('',(-1.05E0,-3.5E-1,0.E0));
#17=LINE('',#16,#15);
#18=DIRECTION('',(0.E0,0.E0,1.E0));
#19=VECTOR('',#18,2.E-1);
#20=CARTESIAN_POINT('',(-1.05E0,3.5E-1,0.E0));
#21=LINE('',#20,#19);
#22=DIRECTION('',(1.E0,0.E0,0.E0));
#23=VECTOR('',#22,2.6E0);
#24=CARTESIAN_POINT('',(-3.65E0,-3.5E-1,2.E-1));
#25=LINE('',#24,#23);
#26=DIRECTION('',(0.E0,-1.E0,0.E0));
#27=VECTOR('',#26,7.E-1);
#28=CARTESIAN_POINT('',(-3.65E0,3.5E-1,2.E-1));
#29=LINE('',#28,#27);
#30=DIRECTION('',(-1.E0,0.E0,0.E0));
#31=VECTOR('',#30,2.6E0);
#32=CARTESIAN_POINT('',(-1.05E0,3.5E-1,2.E-1));
#33=LINE('',#32,#31);
#34=DIRECTION('',(0.E0,1.E0,0.E0));
#35=VECTOR('',#34,7.E-1);
#36=CARTESIAN_POINT('',(-1.05E0,-3.5E-1,2.E-1));
#37=LINE('',#36,#35);
#38=DIRECTION('',(0.E0,0.E0,1.E0));
#39=VECTOR('',#38,2.E-1);
#40=CARTESIAN_POINT('',(-1.05E0,-3.5E-1,0.E0));
#41=LINE('',#40,#39);
#42=DIRECTION('',(0.E0,0.E0,1.E0));
#43=VECTOR('',#42,2.E-1);
#44=CARTESIAN_POINT('',(-3.65E0,-3.5E-1,0.E0));
#45=LINE('',#44,#43);
#46=DIRECTION('',(0.E0,0.E0,-1.E0));
#47=VECTOR('',#46,2.E-1);
#48=CARTESIAN_POINT('',(-3.65E0,3.5E-1,2.E-1));
#49=LINE('',#48,#47);
#50=CARTESIAN_POINT('',(-3.65E0,-3.5E-1,2.E-1));
#51=CARTESIAN_POINT('',(-1.05E0,-3.5E-1,2.E-1));
#52=VERTEX_POINT('',#50);
#53=VERTEX_POINT('',#51);
#54=CARTESIAN_POINT('',(-3.65E0,-3.5E-1,0.E0));
#55=VERTEX_POINT('',#54);
#56=CARTESIAN_POINT('',(-1.05E0,-3.5E-1,0.E0));
#57=VERTEX_POINT('',#56);
#58=CARTESIAN_POINT('',(-1.05E0,3.5E-1,0.E0));
#59=VERTEX_POINT('',#58);
#60=CARTESIAN_POINT('',(-3.65E0,3.5E-1,2.E-1));
#61=VERTEX_POINT('',#60);
#62=CARTESIAN_POINT('',(-1.05E0,3.5E-1,2.E-1));
#63=VERTEX_POINT('',#62);
#64=CARTESIAN_POINT('',(-3.65E0,3.5E-1,0.E0));
#65=VERTEX_POINT('',#64);
#66=CARTESIAN_POINT('',(-2.35E0,0.E0,0.E0));
#67=DIRECTION('',(0.E0,0.E0,1.E0));
#68=DIRECTION('',(1.E0,0.E0,0.E0));
#69=AXIS2_PLACEMENT_3D('',#66,#67,#68);
#70=PLANE('',#69);
#72=ORIENTED_EDGE('',*,*,#71,.F.);
#74=ORIENTED_EDGE('',*,*,#73,.F.);
#76=ORIENTED_EDGE('',*,*,#75,.F.);
#78=ORIENTED_EDGE('',*,*,#77,.F.);
#79=EDGE_LOOP('',(#72,#74,#76,#78));
#80=FACE_OUTER_BOUND('',#79,.F.);
#81=ADVANCED_FACE('',(#80),#70,.F.);
#82=CARTESIAN_POINT('',(-1.05E0,-3.5E-1,0.E0));
#83=DIRECTION('',(1.E0,0.E0,0.E0));
#84=DIRECTION('',(0.E0,0.E0,-1.E0));
#85=AXIS2_PLACEMENT_3D('',#82,#83,#84);
#86=PLANE('',#85);
#88=ORIENTED_EDGE('',*,*,#87,.T.);
#90=ORIENTED_EDGE('',*,*,#89,.F.);
#91=ORIENTED_EDGE('',*,*,#71,.T.);
#93=ORIENTED_EDGE('',*,*,#92,.T.);
#94=EDGE_LOOP('',(#88,#90,#91,#93));
#95=FACE_OUTER_BOUND('',#94,.F.);
#96=ADVANCED_FACE('',(#95),#86,.T.);
#97=CARTESIAN_POINT('',(-2.35E0,0.E0,2.E-1));
#98=DIRECTION('',(0.E0,0.E0,1.E0));
#99=DIRECTION('',(1.E0,0.E0,0.E0));
#100=AXIS2_PLACEMENT_3D('',#97,#98,#99);
#101=PLANE('',#100);
#103=ORIENTED_EDGE('',*,*,#102,.F.);
#105=ORIENTED_EDGE('',*,*,#104,.F.);
#107=ORIENTED_EDGE('',*,*,#106,.F.);
#108=ORIENTED_EDGE('',*,*,#87,.F.);
#109=EDGE_LOOP('',(#103,#105,#107,#108));
#110=FACE_OUTER_BOUND('',#109,.F.);
#111=ADVANCED_FACE('',(#110),#101,.T.);
#112=CARTESIAN_POINT('',(-3.65E0,-3.5E-1,0.E0));
#113=DIRECTION('',(0.E0,-1.E0,0.E0));
#114=DIRECTION('',(0.E0,0.E0,-1.E0));
#115=AXIS2_PLACEMENT_3D('',#112,#113,#114);
#116=PLANE('',#115);
#117=ORIENTED_EDGE('',*,*,#102,.T.);
#118=ORIENTED_EDGE('',*,*,#92,.F.);
#119=ORIENTED_EDGE('',*,*,#77,.T.);
#121=ORIENTED_EDGE('',*,*,#120,.T.);
#122=EDGE_LOOP('',(#117,#118,#119,#121));
#123=FACE_OUTER_BOUND('',#122,.F.);
#124=ADVANCED_FACE('',(#123),#116,.T.);
#125=CARTESIAN_POINT('',(-3.65E0,3.5E-1,0.E0));
#126=DIRECTION('',(-1.E0,0.E0,0.E0));
#127=DIRECTION('',(0.E0,-1.E0,0.E0));
#128=AXIS2_PLACEMENT_3D('',#125,#126,#127);
#129=PLANE('',#128);
#130=ORIENTED_EDGE('',*,*,#104,.T.);
#131=ORIENTED_EDGE('',*,*,#120,.F.);
#132=ORIENTED_EDGE('',*,*,#75,.T.);
#134=ORIENTED_EDGE('',*,*,#133,.F.);
#135=EDGE_LOOP('',(#130,#131,#132,#134));
#136=FACE_OUTER_BOUND('',#135,.F.);
#137=ADVANCED_FACE('',(#136),#129,.T.);
#138=CARTESIAN_POINT('',(-1.05E0,3.5E-1,0.E0));
#139=DIRECTION('',(0.E0,1.E0,0.E0));
#140=DIRECTION('',(-1.E0,0.E0,0.E0));
#141=AXIS2_PLACEMENT_3D('',#138,#139,#140);
#142=PLANE('',#141);
#143=ORIENTED_EDGE('',*,*,#106,.T.);
#144=ORIENTED_EDGE('',*,*,#133,.T.);
#145=ORIENTED_EDGE('',*,*,#73,.T.);
#146=ORIENTED_EDGE('',*,*,#89,.T.);
#147=EDGE_LOOP('',(#143,#144,#145,#146));
#148=FACE_OUTER_BOUND('',#147,.F.);
#149=ADVANCED_FACE('',(#148),#142,.T.);
#153=DIMENSIONAL_EXPONENTS(0.E0,0.E0,0.E0,0.E0,0.E0,0.E0,0.E0);
#155=PLANE_ANGLE_MEASURE_WITH_UNIT(PLANE_ANGLE_MEASURE(1.745329251994E-2),#154);
#156=(CONVERSION_BASED_UNIT('DEGREE',#155)NAMED_UNIT(*)PLANE_ANGLE_UNIT());
#158=UNCERTAINTY_MEASURE_WITH_UNIT(LENGTH_MEASURE(2.699892E-4),#152,'closure',
'Maximum model space distance between geometric entities at asserted connectivities');
#159=(GEOMETRIC_REPRESENTATION_CONTEXT(3)GLOBAL_UNCERTAINTY_ASSIGNED_CONTEXT((
#158))GLOBAL_UNIT_ASSIGNED_CONTEXT((#152,#156,#157))REPRESENTATION_CONTEXT
('ID1','3'));
#160=CARTESIAN_POINT('',(0.E0,0.E0,0.E0));
#161=DIRECTION('',(0.E0,0.E0,1.E0));
#162=DIRECTION('',(1.E0,0.E0,0.E0));
#165=APPLICATION_CONTEXT(
'CONFIGURATION CONTROLLED 3D DESIGNS OF MECHANICAL PARTS AND ASSEMBLIES');
#166=APPLICATION_PROTOCOL_DEFINITION('international standard',
'config_control_design',1994,#165);
#167=DESIGN_CONTEXT('',#165,'design');
#168=MECHANICAL_CONTEXT('',#165,'mechanical');
#169=PRODUCT('IMPORTED1-14096_1','IMPORTED1-14096_1','NOT SPECIFIED',(#168));
#170=PRODUCT_DEFINITION_FORMATION_WITH_SPECIFIED_SOURCE('1','LAST_VERSION',#169,
.MADE.);
#179=CARTESIAN_POINT('',(0.E0,0.E0,0.E0));
#180=DIRECTION('',(0.E0,0.E0,1.E0));
#181=DIRECTION('',(1.E0,0.E0,0.E0));
#182=AXIS2_PLACEMENT_3D('',#179,#180,#181);
#183=ITEM_DEFINED_TRANSFORMATION('','',#163,#182);
#184=CARTESIAN_POINT('',(0.E0,0.E0,0.E0));
#185=DIRECTION('',(0.E0,0.E0,1.E0));
#186=DIRECTION('',(1.E0,0.E0,0.E0));
#188=(REPRESENTATION_RELATIONSHIP('','',#164,#176)REPRESENTATION_RELATIONSHIP_WITH_TRANSFORMATION(#183)SHAPE_REPRESENTATION_RELATIONSHIP());
#189=CONTEXT_DEPENDENT_SHAPE_REPRESENTATION(#188,#178);
#191=DIRECTION('',(0.E0,-1.E0,0.E0));
#192=VECTOR('',#191,7.E-1);
#193=CARTESIAN_POINT('',(3.65E0,3.5E-1,2.E-1));
#194=LINE('',#193,#192);
#195=DIRECTION('',(-1.E0,0.E0,0.E0));
#196=VECTOR('',#195,2.6E0);
#197=CARTESIAN_POINT('',(3.65E0,-3.5E-1,2.E-1));
#198=LINE('',#197,#196);
#199=DIRECTION('',(0.E0,0.E0,1.E0));
#200=VECTOR('',#199,2.E-1);
#201=CARTESIAN_POINT('',(3.65E0,-3.5E-1,0.E0));
#202=LINE('',#201,#200);
#203=DIRECTION('',(0.E0,-1.E0,0.E0));
#204=VECTOR('',#203,7.E-1);
#205=CARTESIAN_POINT('',(3.65E0,3.5E-1,0.E0));
#206=LINE('',#205,#204);
#207=DIRECTION('',(1.E0,0.E0,0.E0));
#208=VECTOR('',#207,2.6E0);
#209=CARTESIAN_POINT('',(1.05E0,3.5E-1,0.E0));
#210=LINE('',#209,#208);
#211=DIRECTION('',(0.E0,1.E0,0.E0));
#212=VECTOR('',#211,7.E-1);
#213=CARTESIAN_POINT('',(1.05E0,-3.5E-1,0.E0));
#214=LINE('',#213,#212);
#215=DIRECTION('',(-1.E0,0.E0,0.E0));
#216=VECTOR('',#215,2.6E0);
#217=CARTESIAN_POINT('',(3.65E0,-3.5E-1,0.E0));
#218=LINE('',#217,#216);
#219=DIRECTION('',(1.E0,0.E0,0.E0));
#220=VECTOR('',#219,2.6E0);
#221=CARTESIAN_POINT('',(1.05E0,3.5E-1,2.E-1));
#222=LINE('',#221,#220);
#223=DIRECTION('',(0.E0,0.E0,1.E0));
#224=VECTOR('',#223,2.E-1);
#225=CARTESIAN_POINT('',(1.05E0,3.5E-1,0.E0));
#226=LINE('',#225,#224);
#227=DIRECTION('',(0.E0,0.E0,-1.E0));
#228=VECTOR('',#227,2.E-1);
#229=CARTESIAN_POINT('',(3.65E0,3.5E-1,2.E-1));
#230=LINE('',#229,#228);
#231=DIRECTION('',(0.E0,1.E0,0.E0));
#232=VECTOR('',#231,7.E-1);
#233=CARTESIAN_POINT('',(1.05E0,-3.5E-1,2.E-1));
#234=LINE('',#233,#232);
#235=DIRECTION('',(0.E0,0.E0,1.E0));
#236=VECTOR('',#235,2.E-1);
#237=CARTESIAN_POINT('',(1.05E0,-3.5E-1,0.E0));
#238=LINE('',#237,#236);
#239=CARTESIAN_POINT('',(3.65E0,-3.5E-1,2.E-1));
#240=CARTESIAN_POINT('',(1.05E0,-3.5E-1,2.E-1));
#241=VERTEX_POINT('',#239);
#242=VERTEX_POINT('',#240);
#243=CARTESIAN_POINT('',(3.65E0,-3.5E-1,0.E0));
#244=VERTEX_POINT('',#243);
#245=CARTESIAN_POINT('',(1.05E0,3.5E-1,0.E0));
#246=CARTESIAN_POINT('',(1.05E0,3.5E-1,2.E-1));
#247=VERTEX_POINT('',#245);
#248=VERTEX_POINT('',#246);
#249=CARTESIAN_POINT('',(1.05E0,-3.5E-1,0.E0));
#250=VERTEX_POINT('',#249);
#251=CARTESIAN_POINT('',(3.65E0,3.5E-1,2.E-1));
#252=VERTEX_POINT('',#251);
#253=CARTESIAN_POINT('',(3.65E0,3.5E-1,0.E0));
#254=VERTEX_POINT('',#253);
#255=CARTESIAN_POINT('',(3.65E0,-3.5E-1,0.E0));
#256=DIRECTION('',(1.E0,0.E0,0.E0));
#257=DIRECTION('',(0.E0,1.E0,0.E0));
#258=AXIS2_PLACEMENT_3D('',#255,#256,#257);
#259=PLANE('',#258);
#261=ORIENTED_EDGE('',*,*,#260,.F.);
#263=ORIENTED_EDGE('',*,*,#262,.T.);
#265=ORIENTED_EDGE('',*,*,#264,.T.);
#267=ORIENTED_EDGE('',*,*,#266,.T.);
#268=EDGE_LOOP('',(#261,#263,#265,#267));
#269=FACE_OUTER_BOUND('',#268,.F.);
#270=ADVANCED_FACE('',(#269),#259,.T.);
#271=CARTESIAN_POINT('',(2.35E0,0.E0,2.E-1));
#272=DIRECTION('',(0.E0,0.E0,1.E0));
#273=DIRECTION('',(1.E0,0.E0,0.E0));
#274=AXIS2_PLACEMENT_3D('',#271,#272,#273);
#275=PLANE('',#274);
#277=ORIENTED_EDGE('',*,*,#276,.T.);
#279=ORIENTED_EDGE('',*,*,#278,.T.);
#281=ORIENTED_EDGE('',*,*,#280,.T.);
#282=ORIENTED_EDGE('',*,*,#260,.T.);
#283=EDGE_LOOP('',(#277,#279,#281,#282));
#284=FACE_OUTER_BOUND('',#283,.F.);
#285=ADVANCED_FACE('',(#284),#275,.T.);
#286=CARTESIAN_POINT('',(1.05E0,-3.5E-1,0.E0));
#287=DIRECTION('',(0.E0,-1.E0,0.E0));
#288=DIRECTION('',(1.E0,0.E0,0.E0));
#289=AXIS2_PLACEMENT_3D('',#286,#287,#288);
#290=PLANE('',#289);
#291=ORIENTED_EDGE('',*,*,#276,.F.);
#292=ORIENTED_EDGE('',*,*,#266,.F.);
#294=ORIENTED_EDGE('',*,*,#293,.T.);
#296=ORIENTED_EDGE('',*,*,#295,.T.);
#297=EDGE_LOOP('',(#291,#292,#294,#296));
#298=FACE_OUTER_BOUND('',#297,.F.);
#299=ADVANCED_FACE('',(#298),#290,.T.);
#300=CARTESIAN_POINT('',(2.35E0,0.E0,0.E0));
#301=DIRECTION('',(0.E0,0.E0,1.E0));
#302=DIRECTION('',(1.E0,0.E0,0.E0));
#303=AXIS2_PLACEMENT_3D('',#300,#301,#302);
#304=PLANE('',#303);
#305=ORIENTED_EDGE('',*,*,#264,.F.);
#307=ORIENTED_EDGE('',*,*,#306,.F.);
#309=ORIENTED_EDGE('',*,*,#308,.F.);
#310=ORIENTED_EDGE('',*,*,#293,.F.);
#311=EDGE_LOOP('',(#305,#307,#309,#310));
#312=FACE_OUTER_BOUND('',#311,.F.);
#313=ADVANCED_FACE('',(#312),#304,.F.);
#314=CARTESIAN_POINT('',(3.65E0,3.5E-1,0.E0));
#315=DIRECTION('',(0.E0,1.E0,0.E0));
#316=DIRECTION('',(-1.E0,0.E0,0.E0));
#317=AXIS2_PLACEMENT_3D('',#314,#315,#316);
#318=PLANE('',#317);
#319=ORIENTED_EDGE('',*,*,#280,.F.);
#321=ORIENTED_EDGE('',*,*,#320,.F.);
#322=ORIENTED_EDGE('',*,*,#306,.T.);
#323=ORIENTED_EDGE('',*,*,#262,.F.);
#324=EDGE_LOOP('',(#319,#321,#322,#323));
#325=FACE_OUTER_BOUND('',#324,.F.);
#326=ADVANCED_FACE('',(#325),#318,.T.);
#327=CARTESIAN_POINT('',(1.05E0,3.5E-1,0.E0));
#328=DIRECTION('',(-1.E0,0.E0,0.E0));
#329=DIRECTION('',(0.E0,-1.E0,0.E0));
#330=AXIS2_PLACEMENT_3D('',#327,#328,#329);
#331=PLANE('',#330);
#332=ORIENTED_EDGE('',*,*,#278,.F.);
#333=ORIENTED_EDGE('',*,*,#295,.F.);
#334=ORIENTED_EDGE('',*,*,#308,.T.);
#335=ORIENTED_EDGE('',*,*,#320,.T.);
#336=EDGE_LOOP('',(#332,#333,#334,#335));
#337=FACE_OUTER_BOUND('',#336,.F.);
#338=ADVANCED_FACE('',(#337),#331,.T.);
#342=DIMENSIONAL_EXPONENTS(0.E0,0.E0,0.E0,0.E0,0.E0,0.E0,0.E0);
#344=PLANE_ANGLE_MEASURE_WITH_UNIT(PLANE_ANGLE_MEASURE(1.745329251994E-2),#343);
#345=(CONVERSION_BASED_UNIT('DEGREE',#344)NAMED_UNIT(*)PLANE_ANGLE_UNIT());
#347=UNCERTAINTY_MEASURE_WITH_UNIT(LENGTH_MEASURE(2.699892E-4),#341,'closure',
'Maximum model space distance between geometric entities at asserted connectivities');
#348=(GEOMETRIC_REPRESENTATION_CONTEXT(3)GLOBAL_UNCERTAINTY_ASSIGNED_CONTEXT((
#347))GLOBAL_UNIT_ASSIGNED_CONTEXT((#341,#345,#346))REPRESENTATION_CONTEXT
('ID2','3'));
#349=CARTESIAN_POINT('',(0.E0,0.E0,0.E0));
#350=DIRECTION('',(0.E0,0.E0,1.E0));
#351=DIRECTION('',(1.E0,0.E0,0.E0));
#354=MECHANICAL_CONTEXT('',#165,'mechanical');
#355=PRODUCT('IMPORTED2-14098_1','IMPORTED2-14098_1','NOT SPECIFIED',(#354));
#356=PRODUCT_DEFINITION_FORMATION_WITH_SPECIFIED_SOURCE('1','LAST_VERSION',#355,
.MADE.);
#362=CARTESIAN_POINT('',(0.E0,0.E0,0.E0));
#363=DIRECTION('',(0.E0,0.E0,1.E0));
#364=DIRECTION('',(1.E0,0.E0,0.E0));
#365=AXIS2_PLACEMENT_3D('',#362,#363,#364);
#366=ITEM_DEFINED_TRANSFORMATION('','',#352,#365);
#367=CARTESIAN_POINT('',(0.E0,0.E0,0.E0));
#368=DIRECTION('',(0.E0,0.E0,1.E0));
#369=DIRECTION('',(1.E0,0.E0,0.E0));
#371=(REPRESENTATION_RELATIONSHIP('','',#353,#176)REPRESENTATION_RELATIONSHIP_WITH_TRANSFORMATION(#366)SHAPE_REPRESENTATION_RELATIONSHIP());
#372=CONTEXT_DEPENDENT_SHAPE_REPRESENTATION(#371,#361);
#374=DIMENSIONAL_EXPONENTS(0.E0,0.E0,0.E0,0.E0,0.E0,0.E0,0.E0);
#376=PLANE_ANGLE_MEASURE_WITH_UNIT(PLANE_ANGLE_MEASURE(1.745329251994E-2),#375);
#377=(CONVERSION_BASED_UNIT('DEGREE',#376)NAMED_UNIT(*)PLANE_ANGLE_UNIT());
#379=UNCERTAINTY_MEASURE_WITH_UNIT(LENGTH_MEASURE(8.659907627683E-2),#373,
'closure',
'Maximum model space distance between geometric entities at asserted connectivities');
#380=(GEOMETRIC_REPRESENTATION_CONTEXT(3)GLOBAL_UNCERTAINTY_ASSIGNED_CONTEXT((
#379))GLOBAL_UNIT_ASSIGNED_CONTEXT((#373,#377,#378))REPRESENTATION_CONTEXT
('ID3','3'));
#381=CARTESIAN_POINT('',(0.E0,0.E0,0.E0));
#382=DIRECTION('',(0.E0,0.E0,1.E0));
#383=DIRECTION('',(1.E0,0.E0,0.E0));
#385=DESIGN_CONTEXT('',#165,'design');
#386=MECHANICAL_CONTEXT('',#165,'mechanical');
#387=PRODUCT('_X2_041D043E0436043A0438_X0___2_ASM',
'_X2_041D043E0436043A0438_X0___2_ASM','NOT SPECIFIED',(#386));
#388=PRODUCT_DEFINITION_FORMATION_WITH_SPECIFIED_SOURCE('1','LAST_VERSION',#387,
.MADE.);
#395=CARTESIAN_POINT('',(0.E0,0.E0,0.E0));
#396=DIRECTION('',(0.E0,1.E0,0.E0));
#397=DIRECTION('',(-1.E0,0.E0,0.E0));
#398=AXIS2_PLACEMENT_3D('',#395,#396,#397);
#399=ITEM_DEFINED_TRANSFORMATION('','',#187,#398);
#400=(REPRESENTATION_RELATIONSHIP('','',#176,#392)REPRESENTATION_RELATIONSHIP_WITH_TRANSFORMATION(#399)SHAPE_REPRESENTATION_RELATIONSHIP());
#401=CONTEXT_DEPENDENT_SHAPE_REPRESENTATION(#400,#394);
#403=DIRECTION('',(1.E0,0.E0,0.E0));
#404=VECTOR('',#403,2.25E0);
#405=CARTESIAN_POINT('',(-3.3E0,-4.2E-1,2.E-1));
#406=LINE('',#405,#404);
#407=DIRECTION('',(0.E0,0.E0,1.E0));
#408=VECTOR('',#407,2.E-1);
#409=CARTESIAN_POINT('',(-3.3E0,-4.2E-1,0.E0));
#410=LINE('',#409,#408);
#411=DIRECTION('',(0.E0,0.E0,-1.E0));
#412=VECTOR('',#411,2.E-1);
#413=CARTESIAN_POINT('',(-1.05E0,-4.2E-1,2.E-1));
#414=LINE('',#413,#412);
#415=DIRECTION('',(0.E0,1.E0,0.E0));
#416=VECTOR('',#415,8.4E-1);
#417=CARTESIAN_POINT('',(-3.3E0,-4.2E-1,2.E-1));
#418=LINE('',#417,#416);
#419=DIRECTION('',(0.E0,0.E0,-1.E0));
#420=VECTOR('',#419,2.E-1);
#421=CARTESIAN_POINT('',(-3.3E0,4.2E-1,2.E-1));
#422=LINE('',#421,#420);
#423=DIRECTION('',(-1.E0,0.E0,0.E0));
#424=VECTOR('',#423,2.25E0);
#425=CARTESIAN_POINT('',(-1.05E0,4.2E-1,2.E-1));
#426=LINE('',#425,#424);
#427=DIRECTION('',(0.E0,-1.E0,0.E0));
#428=VECTOR('',#427,8.4E-1);
#429=CARTESIAN_POINT('',(1.05E0,4.2E-1,0.E0));
#430=LINE('',#429,#428);
#431=DIRECTION('',(-1.E0,0.E0,0.E0));
#432=VECTOR('',#431,2.25E0);
#433=CARTESIAN_POINT('',(3.3E0,4.2E-1,0.E0));
#434=LINE('',#433,#432);
#435=DIRECTION('',(0.E0,-1.E0,0.E0));
#436=VECTOR('',#435,1.56E0);
#437=CARTESIAN_POINT('',(3.3E0,1.98E0,0.E0));
#438=LINE('',#437,#436);
#439=DIRECTION('',(7.071067811865E-1,-7.071067811865E-1,0.E0));
#440=VECTOR('',#439,1.866761902332E0);
#441=CARTESIAN_POINT('',(1.98E0,3.3E0,0.E0));
#442=LINE('',#441,#440);
#443=DIRECTION('',(1.E0,0.E0,0.E0));
#444=VECTOR('',#443,5.28E0);
#445=CARTESIAN_POINT('',(-3.3E0,3.3E0,0.E0));
#446=LINE('',#445,#444);
#447=DIRECTION('',(0.E0,1.E0,0.E0));
#448=VECTOR('',#447,2.88E0);
#449=CARTESIAN_POINT('',(-3.3E0,4.2E-1,0.E0));
#450=LINE('',#449,#448);
#451=DIRECTION('',(-1.E0,0.E0,0.E0));
#452=VECTOR('',#451,2.25E0);
#453=CARTESIAN_POINT('',(-1.05E0,4.2E-1,0.E0));
#454=LINE('',#453,#452);
#455=DIRECTION('',(0.E0,1.E0,0.E0));
#456=VECTOR('',#455,8.4E-1);
#457=CARTESIAN_POINT('',(-1.05E0,-4.2E-1,0.E0));
#458=LINE('',#457,#456);
#459=DIRECTION('',(1.E0,0.E0,0.E0));
#460=VECTOR('',#459,2.25E0);
#461=CARTESIAN_POINT('',(-3.3E0,-4.2E-1,0.E0));
#462=LINE('',#461,#460);
#463=DIRECTION('',(0.E0,1.E0,0.E0));
#464=VECTOR('',#463,2.88E0);
#465=CARTESIAN_POINT('',(-3.3E0,-3.3E0,0.E0));
#466=LINE('',#465,#464);
#467=DIRECTION('',(-1.E0,0.E0,0.E0));
#468=VECTOR('',#467,5.28E0);
#469=CARTESIAN_POINT('',(1.98E0,-3.3E0,0.E0));
#470=LINE('',#469,#468);
#471=DIRECTION('',(-7.071067811865E-1,-7.071067811865E-1,0.E0));
#472=VECTOR('',#471,1.866761902332E0);
#473=CARTESIAN_POINT('',(3.3E0,-1.98E0,0.E0));
#474=LINE('',#473,#472);
#475=DIRECTION('',(0.E0,-1.E0,0.E0));
#476=VECTOR('',#475,1.56E0);
#477=CARTESIAN_POINT('',(3.3E0,-4.2E-1,0.E0));
#478=LINE('',#477,#476);
#479=DIRECTION('',(1.E0,0.E0,0.E0));
#480=VECTOR('',#479,2.25E0);
#481=CARTESIAN_POINT('',(1.05E0,-4.2E-1,0.E0));
#482=LINE('',#481,#480);
#483=DIRECTION('',(0.E0,0.E0,-1.E0));
#484=VECTOR('',#483,2.E-1);
#485=CARTESIAN_POINT('',(1.05E0,-4.2E-1,2.E-1));
#486=LINE('',#485,#484);
#487=DIRECTION('',(0.E0,-1.E0,0.E0));
#488=VECTOR('',#487,8.4E-1);
#489=CARTESIAN_POINT('',(1.05E0,4.2E-1,2.E-1));
#490=LINE('',#489,#488);
#491=DIRECTION('',(-1.E0,0.E0,0.E0));
#492=VECTOR('',#491,2.25E0);
#493=CARTESIAN_POINT('',(3.3E0,4.2E-1,2.E-1));
#494=LINE('',#493,#492);
#495=DIRECTION('',(0.E0,0.E0,1.E0));
#496=VECTOR('',#495,2.E-1);
#497=CARTESIAN_POINT('',(3.3E0,4.2E-1,0.E0));
#498=LINE('',#497,#496);
#499=DIRECTION('',(0.E0,0.E0,-1.E0));
#500=VECTOR('',#499,2.E-1);
#501=CARTESIAN_POINT('',(1.05E0,4.2E-1,2.E-1));
#502=LINE('',#501,#500);
#503=DIRECTION('',(0.E0,-1.E0,0.E0));
#504=VECTOR('',#503,8.4E-1);
#505=CARTESIAN_POINT('',(3.3E0,4.2E-1,2.E-1));
#506=LINE('',#505,#504);
#507=DIRECTION('',(0.E0,0.E0,-1.E0));
#508=VECTOR('',#507,2.E-1);
#509=CARTESIAN_POINT('',(3.3E0,-4.2E-1,2.E-1));
#510=LINE('',#509,#508);
#511=DIRECTION('',(1.E0,0.E0,0.E0));
#512=VECTOR('',#511,2.25E0);
#513=CARTESIAN_POINT('',(1.05E0,-4.2E-1,2.E-1));
#514=LINE('',#513,#512);
#515=DIRECTION('',(0.E0,-1.E0,0.E0));
#516=VECTOR('',#515,2.113030998353E0);
#517=CARTESIAN_POINT('',(3.3E0,1.056515499176E0,5.E-1));
#518=LINE('',#517,#516);
#519=DIRECTION('',(0.E0,0.E0,1.E0));
#520=VECTOR('',#519,6.E-1);
#521=CARTESIAN_POINT('',(3.3E0,-1.98E0,0.E0));
#522=LINE('',#521,#520);
#523=DIRECTION('',(0.E0,0.E0,1.E0));
#524=VECTOR('',#523,6.E-1);
#525=CARTESIAN_POINT('',(1.98E0,-3.3E0,0.E0));
#526=LINE('',#525,#524);
#527=DIRECTION('',(0.E0,0.E0,1.E0));
#528=VECTOR('',#527,1.E0);
#529=CARTESIAN_POINT('',(-3.3E0,-3.3E0,0.E0));
#530=LINE('',#529,#528);
#531=DIRECTION('',(0.E0,0.E0,1.E0));
#532=VECTOR('',#531,1.E0);
#533=CARTESIAN_POINT('',(-3.3E0,3.3E0,0.E0));
#534=LINE('',#533,#532);
#535=DIRECTION('',(1.E0,0.E0,0.E0));
#536=VECTOR('',#535,2.113030998353E0);
#537=CARTESIAN_POINT('',(-1.056515499176E0,-3.3E0,5.E-1));
#538=LINE('',#537,#536);
#539=CARTESIAN_POINT('',(0.E0,0.E0,5.E-1));
#540=DIRECTION('',(0.E0,0.E0,1.E0));
#541=DIRECTION('',(-9.523809523810E-1,-3.049106779730E-1,0.E0));
#542=AXIS2_PLACEMENT_3D('',#539,#540,#541);
#544=DIRECTION('',(0.E0,-1.E0,0.E0));
#545=VECTOR('',#544,2.113030998353E0);
#546=CARTESIAN_POINT('',(-3.3E0,1.056515499176E0,5.E-1));
#547=LINE('',#546,#545);
#548=CARTESIAN_POINT('',(0.E0,0.E0,5.E-1));
#549=DIRECTION('',(0.E0,0.E0,1.E0));
#550=DIRECTION('',(-3.049106779730E-1,9.523809523810E-1,0.E0));
#551=AXIS2_PLACEMENT_3D('',#548,#549,#550);
#553=DIRECTION('',(-1.E0,0.E0,0.E0));
#554=VECTOR('',#553,2.113030998353E0);
#555=CARTESIAN_POINT('',(1.056515499176E0,3.3E0,5.E-1));
#556=LINE('',#555,#554);
#557=CARTESIAN_POINT('',(0.E0,0.E0,5.E-1));
#558=DIRECTION('',(0.E0,0.E0,1.E0));
#559=DIRECTION('',(9.523809523810E-1,3.049106779730E-1,0.E0));
#560=AXIS2_PLACEMENT_3D('',#557,#558,#559);
#562=CARTESIAN_POINT('',(0.E0,0.E0,5.E-1));
#563=DIRECTION('',(0.E0,0.E0,1.E0));
#564=DIRECTION('',(3.049106779730E-1,-9.523809523810E-1,0.E0));
#565=AXIS2_PLACEMENT_3D('',#562,#563,#564);
#567=DIRECTION('',(0.E0,0.E0,-1.E0));
#568=VECTOR('',#567,5.E-1);
#569=CARTESIAN_POINT('',(-1.056515499176E0,-3.3E0,1.E0));
#570=LINE('',#569,#568);
#571=DIRECTION('',(0.E0,0.E0,1.E0));
#572=VECTOR('',#571,5.E-1);
#573=CARTESIAN_POINT('',(-3.3E0,-1.056515499176E0,5.E-1));
#574=LINE('',#573,#572);
#575=DIRECTION('',(0.E0,-1.E0,0.E0));
#576=VECTOR('',#575,2.243484500824E0);
#577=CARTESIAN_POINT('',(-3.3E0,-1.056515499176E0,1.E0));
#578=LINE('',#577,#576);
#579=CARTESIAN_POINT('',(0.E0,0.E0,1.E0));
#580=DIRECTION('',(0.E0,0.E0,-1.E0));
#581=DIRECTION('',(-3.049106779730E-1,-9.523809523810E-1,0.E0));
#582=AXIS2_PLACEMENT_3D('',#579,#580,#581);
#584=DIRECTION('',(1.E0,0.E0,0.E0));
#585=VECTOR('',#584,2.243484500824E0);
#586=CARTESIAN_POINT('',(-3.3E0,-3.3E0,1.E0));
#587=LINE('',#586,#585);
#588=DIRECTION('',(0.E0,0.E0,1.E0));
#589=VECTOR('',#588,5.E-1);
#590=CARTESIAN_POINT('',(-1.056515499176E0,3.3E0,5.E-1));
#591=LINE('',#590,#589);
#592=DIRECTION('',(0.E0,0.E0,-1.E0));
#593=VECTOR('',#592,5.E-1);
#594=CARTESIAN_POINT('',(-3.3E0,1.056515499176E0,1.E0));
#595=LINE('',#594,#593);
#596=DIRECTION('',(-1.E0,0.E0,0.E0));
#597=VECTOR('',#596,2.243484500824E0);
#598=CARTESIAN_POINT('',(-1.056515499176E0,3.3E0,1.E0));
#599=LINE('',#598,#597);
#600=CARTESIAN_POINT('',(0.E0,0.E0,1.E0));
#601=DIRECTION('',(0.E0,0.E0,-1.E0));
#602=DIRECTION('',(-9.523809523810E-1,3.049106779730E-1,0.E0));
#603=AXIS2_PLACEMENT_3D('',#600,#601,#602);
#605=DIRECTION('',(0.E0,-1.E0,0.E0));
#606=VECTOR('',#605,2.243484500824E0);
#607=CARTESIAN_POINT('',(-3.3E0,3.3E0,1.E0));
#608=LINE('',#607,#606);
#609=DIRECTION('',(0.E0,0.E0,-1.E0));
#610=VECTOR('',#609,1.E-1);
#611=CARTESIAN_POINT('',(1.056515499176E0,3.3E0,6.E-1));
#612=LINE('',#611,#610);
#613=DIRECTION('',(0.E0,0.E0,1.E0));
#614=VECTOR('',#613,1.E-1);
#615=CARTESIAN_POINT('',(3.3E0,1.056515499176E0,5.E-1));
#616=LINE('',#615,#614);
#617=DIRECTION('',(0.E0,1.E0,0.E0));
#618=VECTOR('',#617,9.234845008236E-1);
#619=CARTESIAN_POINT('',(3.3E0,1.056515499176E0,6.E-1));
#620=LINE('',#619,#618);
#621=CARTESIAN_POINT('',(0.E0,0.E0,6.E-1));
#622=DIRECTION('',(0.E0,0.E0,-1.E0));
#623=DIRECTION('',(3.049106779730E-1,9.523809523810E-1,0.E0));
#624=AXIS2_PLACEMENT_3D('',#621,#622,#623);
#626=DIRECTION('',(-1.E0,0.E0,0.E0));
#627=VECTOR('',#626,9.234845008236E-1);
#628=CARTESIAN_POINT('',(1.98E0,3.3E0,6.E-1));
#629=LINE('',#628,#627);
#630=DIRECTION('',(-7.071067811865E-1,7.071067811865E-1,0.E0));
#631=VECTOR('',#630,1.866761902332E0);
#632=CARTESIAN_POINT('',(3.3E0,1.98E0,6.E-1));
#633=LINE('',#632,#631);
#634=DIRECTION('',(0.E0,0.E0,-1.E0));
#635=VECTOR('',#634,6.E-1);
#636=CARTESIAN_POINT('',(3.3E0,1.98E0,6.E-1));
#637=LINE('',#636,#635);
#638=DIRECTION('',(0.E0,0.E0,1.E0));
#639=VECTOR('',#638,6.E-1);
#640=CARTESIAN_POINT('',(1.98E0,3.3E0,0.E0));
#641=LINE('',#640,#639);
#642=DIRECTION('',(0.E0,0.E0,-1.E0));
#643=VECTOR('',#642,1.E-1);
#644=CARTESIAN_POINT('',(3.3E0,-1.056515499176E0,6.E-1));
#645=LINE('',#644,#643);
#646=DIRECTION('',(0.E0,0.E0,1.E0));
#647=VECTOR('',#646,1.E-1);
#648=CARTESIAN_POINT('',(1.056515499176E0,-3.3E0,5.E-1));
#649=LINE('',#648,#647);
#650=DIRECTION('',(1.E0,0.E0,0.E0));
#651=VECTOR('',#650,9.234845008236E-1);
#652=CARTESIAN_POINT('',(1.056515499176E0,-3.3E0,6.E-1));
#653=LINE('',#652,#651);
#654=CARTESIAN_POINT('',(0.E0,0.E0,6.E-1));
#655=DIRECTION('',(0.E0,0.E0,-1.E0));
#656=DIRECTION('',(9.523809523810E-1,-3.049106779730E-1,0.E0));
#657=AXIS2_PLACEMENT_3D('',#654,#655,#656);
#659=DIRECTION('',(0.E0,1.E0,0.E0));
#660=VECTOR('',#659,9.234845008236E-1);
#661=CARTESIAN_POINT('',(3.3E0,-1.98E0,6.E-1));
#662=LINE('',#661,#660);
#663=DIRECTION('',(7.071067811865E-1,7.071067811865E-1,0.E0));
#664=VECTOR('',#663,1.866761902332E0);
#665=CARTESIAN_POINT('',(1.98E0,-3.3E0,6.E-1));
#666=LINE('',#665,#664);
#667=DIRECTION('',(0.E0,0.E0,-1.E0));
#668=VECTOR('',#667,2.E-1);
#669=CARTESIAN_POINT('',(-1.05E0,4.2E-1,2.E-1));
#670=LINE('',#669,#668);
#671=DIRECTION('',(0.E0,1.E0,0.E0));
#672=VECTOR('',#671,8.4E-1);
#673=CARTESIAN_POINT('',(-1.05E0,-4.2E-1,2.E-1));
#674=LINE('',#673,#672);
#675=CARTESIAN_POINT('',(-3.3E0,-1.056515499176E0,1.E0));
#676=CARTESIAN_POINT('',(-3.3E0,-3.3E0,1.E0));
#677=VERTEX_POINT('',#675);
#678=VERTEX_POINT('',#676);
#679=CARTESIAN_POINT('',(-1.056515499176E0,3.3E0,5.E-1));
#680=CARTESIAN_POINT('',(-1.056515499176E0,3.3E0,1.E0));
#681=VERTEX_POINT('',#679);
#682=VERTEX_POINT('',#680);
#683=CARTESIAN_POINT('',(1.05E0,-4.2E-1,2.E-1));
#684=CARTESIAN_POINT('',(3.3E0,-4.2E-1,2.E-1));
#685=VERTEX_POINT('',#683);
#686=VERTEX_POINT('',#684);
#687=CARTESIAN_POINT('',(3.3E0,4.2E-1,2.E-1));
#688=VERTEX_POINT('',#687);
#689=CARTESIAN_POINT('',(1.05E0,4.2E-1,2.E-1));
#690=CARTESIAN_POINT('',(1.05E0,4.2E-1,0.E0));
#691=VERTEX_POINT('',#689);
#692=VERTEX_POINT('',#690);
#693=CARTESIAN_POINT('',(3.3E0,1.056515499176E0,5.E-1));
#694=CARTESIAN_POINT('',(1.056515499176E0,3.3E0,5.E-1));
#695=VERTEX_POINT('',#693);
#696=VERTEX_POINT('',#694);
#697=CARTESIAN_POINT('',(3.3E0,-4.2E-1,0.E0));
#698=VERTEX_POINT('',#697);
#699=CARTESIAN_POINT('',(-3.3E0,1.056515499176E0,1.E0));
#700=VERTEX_POINT('',#699);
#701=CARTESIAN_POINT('',(1.98E0,3.3E0,0.E0));
#702=CARTESIAN_POINT('',(3.3E0,1.98E0,0.E0));
#703=VERTEX_POINT('',#701);
#704=VERTEX_POINT('',#702);
#705=CARTESIAN_POINT('',(3.3E0,-1.98E0,0.E0));
#706=CARTESIAN_POINT('',(1.98E0,-3.3E0,0.E0));
#707=VERTEX_POINT('',#705);
#708=VERTEX_POINT('',#706);
#709=CARTESIAN_POINT('',(1.98E0,3.3E0,6.E-1));
#710=VERTEX_POINT('',#709);
#711=CARTESIAN_POINT('',(3.3E0,1.98E0,6.E-1));
#712=VERTEX_POINT('',#711);
#713=CARTESIAN_POINT('',(-1.05E0,4.2E-1,2.E-1));
#714=CARTESIAN_POINT('',(-1.05E0,4.2E-1,0.E0));
#715=VERTEX_POINT('',#713);
#716=VERTEX_POINT('',#714);
#717=CARTESIAN_POINT('',(3.3E0,-1.056515499176E0,5.E-1));
#718=VERTEX_POINT('',#717);
#719=CARTESIAN_POINT('',(1.05E0,-4.2E-1,0.E0));
#720=VERTEX_POINT('',#719);
#721=CARTESIAN_POINT('',(3.3E0,-1.056515499176E0,6.E-1));
#722=VERTEX_POINT('',#721);
#723=CARTESIAN_POINT('',(-3.3E0,4.2E-1,0.E0));
#724=CARTESIAN_POINT('',(-3.3E0,3.3E0,0.E0));
#725=VERTEX_POINT('',#723);
#726=VERTEX_POINT('',#724);
#727=CARTESIAN_POINT('',(1.98E0,-3.3E0,6.E-1));
#728=VERTEX_POINT('',#727);
#729=CARTESIAN_POINT('',(-3.3E0,-3.3E0,0.E0));
#730=VERTEX_POINT('',#729);
#731=CARTESIAN_POINT('',(-1.056515499176E0,-3.3E0,5.E-1));
#732=CARTESIAN_POINT('',(1.056515499176E0,-3.3E0,5.E-1));
#733=VERTEX_POINT('',#731);
#734=VERTEX_POINT('',#732);
#735=CARTESIAN_POINT('',(-3.3E0,-4.2E-1,0.E0));
#736=CARTESIAN_POINT('',(-1.05E0,-4.2E-1,0.E0));
#737=VERTEX_POINT('',#735);
#738=VERTEX_POINT('',#736);
#739=CARTESIAN_POINT('',(3.3E0,1.056515499176E0,6.E-1));
#740=VERTEX_POINT('',#739);
#741=CARTESIAN_POINT('',(-3.3E0,-4.2E-1,2.E-1));
#742=CARTESIAN_POINT('',(-3.3E0,4.2E-1,2.E-1));
#743=VERTEX_POINT('',#741);
#744=VERTEX_POINT('',#742);
#745=CARTESIAN_POINT('',(-3.3E0,3.3E0,1.E0));
#746=VERTEX_POINT('',#745);
#747=CARTESIAN_POINT('',(3.3E0,4.2E-1,0.E0));
#748=VERTEX_POINT('',#747);
#749=CARTESIAN_POINT('',(-3.3E0,-1.056515499176E0,5.E-1));
#750=VERTEX_POINT('',#749);
#751=CARTESIAN_POINT('',(1.056515499176E0,-3.3E0,6.E-1));
#752=VERTEX_POINT('',#751);
#753=CARTESIAN_POINT('',(3.3E0,-1.98E0,6.E-1));
#754=VERTEX_POINT('',#753);
#755=CARTESIAN_POINT('',(-1.056515499176E0,-3.3E0,1.E0));
#756=VERTEX_POINT('',#755);
#757=CARTESIAN_POINT('',(-1.05E0,-4.2E-1,2.E-1));
#758=VERTEX_POINT('',#757);
#759=CARTESIAN_POINT('',(1.056515499176E0,3.3E0,6.E-1));
#760=VERTEX_POINT('',#759);
#761=CARTESIAN_POINT('',(-3.3E0,1.056515499176E0,5.E-1));
#762=VERTEX_POINT('',#761);
#763=CARTESIAN_POINT('',(-4.2E0,-4.2E-1,0.E0));
#764=DIRECTION('',(0.E0,-1.E0,0.E0));
#765=DIRECTION('',(0.E0,0.E0,-1.E0));
#766=AXIS2_PLACEMENT_3D('',#763,#764,#765);
#767=PLANE('',#766);
#769=ORIENTED_EDGE('',*,*,#768,.F.);
#771=ORIENTED_EDGE('',*,*,#770,.F.);
#773=ORIENTED_EDGE('',*,*,#772,.T.);
#775=ORIENTED_EDGE('',*,*,#774,.F.);
#776=EDGE_LOOP('',(#769,#771,#773,#775));
#777=FACE_OUTER_BOUND('',#776,.F.);
#778=ADVANCED_FACE('',(#777),#767,.F.);
#779=CARTESIAN_POINT('',(-2.625E0,0.E0,2.E-1));
#780=DIRECTION('',(0.E0,0.E0,1.E0));
#781=DIRECTION('',(1.E0,0.E0,0.E0));
#782=AXIS2_PLACEMENT_3D('',#779,#780,#781);
#783=PLANE('',#782);
#785=ORIENTED_EDGE('',*,*,#784,.T.);
#787=ORIENTED_EDGE('',*,*,#786,.F.);
#788=ORIENTED_EDGE('',*,*,#768,.T.);
#790=ORIENTED_EDGE('',*,*,#789,.T.);
#791=EDGE_LOOP('',(#785,#787,#788,#790));
#792=FACE_OUTER_BOUND('',#791,.F.);
#793=ADVANCED_FACE('',(#792),#783,.F.);
#794=CARTESIAN_POINT('',(-1.05E0,4.2E-1,0.E0));
#795=DIRECTION('',(0.E0,1.E0,0.E0));
#796=DIRECTION('',(-1.E0,0.E0,0.E0));
#797=AXIS2_PLACEMENT_3D('',#794,#795,#796);
#798=PLANE('',#797);
#800=ORIENTED_EDGE('',*,*,#799,.T.);
#802=ORIENTED_EDGE('',*,*,#801,.F.);
#803=ORIENTED_EDGE('',*,*,#784,.F.);
#805=ORIENTED_EDGE('',*,*,#804,.T.);
#806=EDGE_LOOP('',(#800,#802,#803,#805));
#807=FACE_OUTER_BOUND('',#806,.F.);
#808=ADVANCED_FACE('',(#807),#798,.F.);
#809=CARTESIAN_POINT('',(-2.343771129385E-1,0.E0,0.E0));
#810=DIRECTION('',(0.E0,0.E0,1.E0));
#811=DIRECTION('',(1.E0,0.E0,0.E0));
#812=AXIS2_PLACEMENT_3D('',#809,#810,#811);
#813=PLANE('',#812);
#815=ORIENTED_EDGE('',*,*,#814,.F.);
#817=ORIENTED_EDGE('',*,*,#816,.F.);
#819=ORIENTED_EDGE('',*,*,#818,.F.);
#821=ORIENTED_EDGE('',*,*,#820,.F.);
#823=ORIENTED_EDGE('',*,*,#822,.F.);
#825=ORIENTED_EDGE('',*,*,#824,.F.);
#826=ORIENTED_EDGE('',*,*,#799,.F.);
#828=ORIENTED_EDGE('',*,*,#827,.F.);
#829=ORIENTED_EDGE('',*,*,#772,.F.);
#831=ORIENTED_EDGE('',*,*,#830,.F.);
#833=ORIENTED_EDGE('',*,*,#832,.F.);
#835=ORIENTED_EDGE('',*,*,#834,.F.);
#837=ORIENTED_EDGE('',*,*,#836,.F.);
#839=ORIENTED_EDGE('',*,*,#838,.F.);
#840=EDGE_LOOP('',(#815,#817,#819,#821,#823,#825,#826,#828,#829,#831,#833,#835,
#837,#839));
#841=FACE_OUTER_BOUND('',#840,.F.);
#842=ADVANCED_FACE('',(#841),#813,.F.);
#843=CARTESIAN_POINT('',(1.05E0,4.2E-1,0.E0));
#844=DIRECTION('',(-1.E0,0.E0,0.E0));
#845=DIRECTION('',(0.E0,-1.E0,0.E0));
#846=AXIS2_PLACEMENT_3D('',#843,#844,#845);
#847=PLANE('',#846);
#849=ORIENTED_EDGE('',*,*,#848,.T.);
#850=ORIENTED_EDGE('',*,*,#814,.T.);
#852=ORIENTED_EDGE('',*,*,#851,.F.);
#854=ORIENTED_EDGE('',*,*,#853,.F.);
#855=EDGE_LOOP('',(#849,#850,#852,#854));
#856=FACE_OUTER_BOUND('',#855,.F.);
#857=ADVANCED_FACE('',(#856),#847,.F.);
#858=CARTESIAN_POINT('',(4.2E0,4.2E-1,0.E0));
#859=DIRECTION('',(0.E0,1.E0,0.E0));
#860=DIRECTION('',(-1.E0,0.E0,0.E0));
#861=AXIS2_PLACEMENT_3D('',#858,#859,#860);
#862=PLANE('',#861);
#864=ORIENTED_EDGE('',*,*,#863,.F.);
#866=ORIENTED_EDGE('',*,*,#865,.F.);
#867=ORIENTED_EDGE('',*,*,#816,.T.);
#868=ORIENTED_EDGE('',*,*,#848,.F.);
#869=EDGE_LOOP('',(#864,#866,#867,#868));
#870=FACE_OUTER_BOUND('',#869,.F.);
#871=ADVANCED_FACE('',(#870),#862,.F.);
#872=CARTESIAN_POINT('',(2.625E0,0.E0,2.E-1));
#873=DIRECTION('',(0.E0,0.E0,1.E0));
#874=DIRECTION('',(1.E0,0.E0,0.E0));
#875=AXIS2_PLACEMENT_3D('',#872,#873,#874);
#876=PLANE('',#875);
#878=ORIENTED_EDGE('',*,*,#877,.T.);
#880=ORIENTED_EDGE('',*,*,#879,.F.);
#881=ORIENTED_EDGE('',*,*,#863,.T.);
#882=ORIENTED_EDGE('',*,*,#853,.T.);
#883=EDGE_LOOP('',(#878,#880,#881,#882));
#884=FACE_OUTER_BOUND('',#883,.F.);
#885=ADVANCED_FACE('',(#884),#876,.F.);
#886=CARTESIAN_POINT('',(1.05E0,-4.2E-1,0.E0));
#887=DIRECTION('',(0.E0,-1.E0,0.E0));
#888=DIRECTION('',(0.E0,0.E0,-1.E0));
#889=AXIS2_PLACEMENT_3D('',#886,#887,#888);
#890=PLANE('',#889);
#891=ORIENTED_EDGE('',*,*,#838,.T.);
#893=ORIENTED_EDGE('',*,*,#892,.F.);
#894=ORIENTED_EDGE('',*,*,#877,.F.);
#895=ORIENTED_EDGE('',*,*,#851,.T.);
#896=EDGE_LOOP('',(#891,#893,#894,#895));
#897=FACE_OUTER_BOUND('',#896,.F.);
#898=ADVANCED_FACE('',(#897),#890,.F.);
#899=CARTESIAN_POINT('',(3.3E0,-1.98E0,0.E0));
#900=DIRECTION('',(1.E0,0.E0,0.E0));
#901=DIRECTION('',(0.E0,1.E0,0.E0));
#902=AXIS2_PLACEMENT_3D('',#899,#900,#901);
#903=PLANE('',#902);
#904=ORIENTED_EDGE('',*,*,#892,.T.);
#905=ORIENTED_EDGE('',*,*,#836,.T.);
#907=ORIENTED_EDGE('',*,*,#906,.T.);
#909=ORIENTED_EDGE('',*,*,#908,.T.);
#911=ORIENTED_EDGE('',*,*,#910,.T.);
#913=ORIENTED_EDGE('',*,*,#912,.F.);
#915=ORIENTED_EDGE('',*,*,#914,.T.);
#917=ORIENTED_EDGE('',*,*,#916,.T.);
#919=ORIENTED_EDGE('',*,*,#918,.T.);
#920=ORIENTED_EDGE('',*,*,#818,.T.);
#921=ORIENTED_EDGE('',*,*,#865,.T.);
#922=ORIENTED_EDGE('',*,*,#879,.T.);
#923=EDGE_LOOP('',(#904,#905,#907,#909,#911,#913,#915,#917,#919,#920,#921,
#922));
#924=FACE_OUTER_BOUND('',#923,.F.);
#925=ADVANCED_FACE('',(#924),#903,.T.);
#926=CARTESIAN_POINT('',(1.98E0,-3.3E0,0.E0));
#927=DIRECTION('',(7.071067811865E-1,-7.071067811865E-1,0.E0));
#928=DIRECTION('',(7.071067811865E-1,7.071067811865E-1,0.E0));
#929=AXIS2_PLACEMENT_3D('',#926,#927,#928);
#930=PLANE('',#929);
#931=ORIENTED_EDGE('',*,*,#834,.T.);
#933=ORIENTED_EDGE('',*,*,#932,.T.);
#935=ORIENTED_EDGE('',*,*,#934,.T.);
#936=ORIENTED_EDGE('',*,*,#906,.F.);
#937=EDGE_LOOP('',(#931,#933,#935,#936));
#938=FACE_OUTER_BOUND('',#937,.F.);
#939=ADVANCED_FACE('',(#938),#930,.T.);
#940=CARTESIAN_POINT('',(-3.3E0,-3.3E0,0.E0));
#941=DIRECTION('',(0.E0,-1.E0,0.E0));
#942=DIRECTION('',(1.E0,0.E0,0.E0));
#943=AXIS2_PLACEMENT_3D('',#940,#941,#942);
#944=PLANE('',#943);
#945=ORIENTED_EDGE('',*,*,#832,.T.);
#947=ORIENTED_EDGE('',*,*,#946,.T.);
#949=ORIENTED_EDGE('',*,*,#948,.T.);
#951=ORIENTED_EDGE('',*,*,#950,.T.);
#953=ORIENTED_EDGE('',*,*,#952,.T.);
#955=ORIENTED_EDGE('',*,*,#954,.T.);
#957=ORIENTED_EDGE('',*,*,#956,.T.);
#958=ORIENTED_EDGE('',*,*,#932,.F.);
#959=EDGE_LOOP('',(#945,#947,#949,#951,#953,#955,#957,#958));
#960=FACE_OUTER_BOUND('',#959,.F.);
#961=ADVANCED_FACE('',(#960),#944,.T.);
#962=CARTESIAN_POINT('',(-3.3E0,3.3E0,0.E0));
#963=DIRECTION('',(-1.E0,0.E0,0.E0));
#964=DIRECTION('',(0.E0,0.E0,1.E0));
#965=AXIS2_PLACEMENT_3D('',#962,#963,#964);
#966=PLANE('',#965);
#968=ORIENTED_EDGE('',*,*,#967,.T.);
#970=ORIENTED_EDGE('',*,*,#969,.T.);
#972=ORIENTED_EDGE('',*,*,#971,.T.);
#974=ORIENTED_EDGE('',*,*,#973,.T.);
#976=ORIENTED_EDGE('',*,*,#975,.T.);
#978=ORIENTED_EDGE('',*,*,#977,.T.);
#979=ORIENTED_EDGE('',*,*,#946,.F.);
#980=ORIENTED_EDGE('',*,*,#830,.T.);
#981=ORIENTED_EDGE('',*,*,#770,.T.);
#982=ORIENTED_EDGE('',*,*,#786,.T.);
#983=ORIENTED_EDGE('',*,*,#801,.T.);
#984=ORIENTED_EDGE('',*,*,#824,.T.);
#985=EDGE_LOOP('',(#968,#970,#972,#974,#976,#978,#979,#980,#981,#982,#983,
#984));
#986=FACE_OUTER_BOUND('',#985,.F.);
#987=ADVANCED_FACE('',(#986),#966,.T.);
#988=CARTESIAN_POINT('',(1.98E0,3.3E0,0.E0));
#989=DIRECTION('',(0.E0,1.E0,0.E0));
#990=DIRECTION('',(0.E0,0.E0,1.E0));
#991=AXIS2_PLACEMENT_3D('',#988,#989,#990);
#992=PLANE('',#991);
#994=ORIENTED_EDGE('',*,*,#993,.T.);
#996=ORIENTED_EDGE('',*,*,#995,.T.);
#998=ORIENTED_EDGE('',*,*,#997,.T.);
#999=ORIENTED_EDGE('',*,*,#967,.F.);
#1000=ORIENTED_EDGE('',*,*,#822,.T.);
#1002=ORIENTED_EDGE('',*,*,#1001,.T.);
#1004=ORIENTED_EDGE('',*,*,#1003,.T.);
#1006=ORIENTED_EDGE('',*,*,#1005,.T.);
#1007=EDGE_LOOP('',(#994,#996,#998,#999,#1000,#1002,#1004,#1006));
#1008=FACE_OUTER_BOUND('',#1007,.F.);
#1009=ADVANCED_FACE('',(#1008),#992,.T.);
#1010=CARTESIAN_POINT('',(0.E0,0.E0,5.E-1));
#1011=DIRECTION('',(0.E0,0.E0,1.E0));
#1012=DIRECTION('',(1.E0,0.E0,0.E0));
#1013=AXIS2_PLACEMENT_3D('',#1010,#1011,#1012);
#1014=PLANE('',#1013);
#1015=ORIENTED_EDGE('',*,*,#952,.F.);
#1017=ORIENTED_EDGE('',*,*,#1016,.F.);
#1018=ORIENTED_EDGE('',*,*,#973,.F.);
#1020=ORIENTED_EDGE('',*,*,#1019,.F.);
#1021=ORIENTED_EDGE('',*,*,#993,.F.);
#1023=ORIENTED_EDGE('',*,*,#1022,.F.);
#1024=ORIENTED_EDGE('',*,*,#912,.T.);
#1026=ORIENTED_EDGE('',*,*,#1025,.F.);
#1027=EDGE_LOOP('',(#1015,#1017,#1018,#1020,#1021,#1023,#1024,#1026));
#1028=FACE_OUTER_BOUND('',#1027,.F.);
#1029=ADVANCED_FACE('',(#1028),#1014,.T.);
#1030=CARTESIAN_POINT('',(0.E0,0.E0,1.E0));
#1031=DIRECTION('',(0.E0,0.E0,-1.E0));
#1032=DIRECTION('',(-1.E0,0.E0,0.E0));
#1033=AXIS2_PLACEMENT_3D('',#1030,#1031,#1032);
#1034=CYLINDRICAL_SURFACE('',#1033,3.465E0);
#1035=ORIENTED_EDGE('',*,*,#1016,.T.);
#1036=ORIENTED_EDGE('',*,*,#950,.F.);
#1038=ORIENTED_EDGE('',*,*,#1037,.T.);
#1039=ORIENTED_EDGE('',*,*,#975,.F.);
#1040=EDGE_LOOP('',(#1035,#1036,#1038,#1039));
#1041=FACE_OUTER_BOUND('',#1040,.F.);
#1042=ADVANCED_FACE('',(#1041),#1034,.F.);
#1043=CARTESIAN_POINT('',(-2.343771129385E-1,0.E0,1.E0));
#1044=DIRECTION('',(0.E0,0.E0,1.E0));
#1045=DIRECTION('',(1.E0,0.E0,0.E0));
#1046=AXIS2_PLACEMENT_3D('',#1043,#1044,#1045);
#1047=PLANE('',#1046);
#1048=ORIENTED_EDGE('',*,*,#977,.F.);
#1049=ORIENTED_EDGE('',*,*,#1037,.F.);
#1050=ORIENTED_EDGE('',*,*,#948,.F.);
#1051=EDGE_LOOP('',(#1048,#1049,#1050));
#1052=FACE_OUTER_BOUND('',#1051,.F.);
#1053=ADVANCED_FACE('',(#1052),#1047,.T.);
#1054=CARTESIAN_POINT('',(0.E0,0.E0,1.E0));
#1055=DIRECTION('',(0.E0,0.E0,-1.E0));
#1056=DIRECTION('',(-1.E0,0.E0,0.E0));
#1057=AXIS2_PLACEMENT_3D('',#1054,#1055,#1056);
#1058=CYLINDRICAL_SURFACE('',#1057,3.465E0);
#1060=ORIENTED_EDGE('',*,*,#1059,.T.);
#1061=ORIENTED_EDGE('',*,*,#995,.F.);
#1062=ORIENTED_EDGE('',*,*,#1019,.T.);
#1063=ORIENTED_EDGE('',*,*,#971,.F.);
#1064=EDGE_LOOP('',(#1060,#1061,#1062,#1063));
#1065=FACE_OUTER_BOUND('',#1064,.F.);
#1066=ADVANCED_FACE('',(#1065),#1058,.F.);
#1067=CARTESIAN_POINT('',(-2.343771129385E-1,0.E0,1.E0));
#1068=DIRECTION('',(0.E0,0.E0,1.E0));
#1069=DIRECTION('',(1.E0,0.E0,0.E0));
#1070=AXIS2_PLACEMENT_3D('',#1067,#1068,#1069);
#1071=PLANE('',#1070);
#1072=ORIENTED_EDGE('',*,*,#997,.F.);
#1073=ORIENTED_EDGE('',*,*,#1059,.F.);
#1074=ORIENTED_EDGE('',*,*,#969,.F.);
#1075=EDGE_LOOP('',(#1072,#1073,#1074));
#1076=FACE_OUTER_BOUND('',#1075,.F.);
#1077=ADVANCED_FACE('',(#1076),#1071,.T.);
#1078=CARTESIAN_POINT('',(0.E0,0.E0,1.E0));
#1079=DIRECTION('',(0.E0,0.E0,-1.E0));
#1080=DIRECTION('',(-1.E0,0.E0,0.E0));
#1081=AXIS2_PLACEMENT_3D('',#1078,#1079,#1080);
#1082=CYLINDRICAL_SURFACE('',#1081,3.465E0);
#1083=ORIENTED_EDGE('',*,*,#1005,.F.);
#1085=ORIENTED_EDGE('',*,*,#1084,.T.);
#1086=ORIENTED_EDGE('',*,*,#914,.F.);
#1087=ORIENTED_EDGE('',*,*,#1022,.T.);
#1088=EDGE_LOOP('',(#1083,#1085,#1086,#1087));
#1089=FACE_OUTER_BOUND('',#1088,.F.);
#1090=ADVANCED_FACE('',(#1089),#1082,.F.);
#1091=CARTESIAN_POINT('',(3.15E0,0.E0,6.E-1));
#1092=DIRECTION('',(0.E0,0.E0,-1.E0));
#1093=DIRECTION('',(-1.E0,0.E0,0.E0));
#1094=AXIS2_PLACEMENT_3D('',#1091,#1092,#1093);
#1095=PLANE('',#1094);
#1096=ORIENTED_EDGE('',*,*,#916,.F.);
#1097=ORIENTED_EDGE('',*,*,#1084,.F.);
#1098=ORIENTED_EDGE('',*,*,#1003,.F.);
#1100=ORIENTED_EDGE('',*,*,#1099,.F.);
#1101=EDGE_LOOP('',(#1096,#1097,#1098,#1100));
#1102=FACE_OUTER_BOUND('',#1101,.F.);
#1103=ADVANCED_FACE('',(#1102),#1095,.F.);
#1104=CARTESIAN_POINT('',(3.3E0,1.98E0,0.E0));
#1105=DIRECTION('',(7.071067811865E-1,7.071067811865E-1,0.E0));
#1106=DIRECTION('',(-7.071067811865E-1,7.071067811865E-1,0.E0));
#1107=AXIS2_PLACEMENT_3D('',#1104,#1105,#1106);
#1108=PLANE('',#1107);
#1109=ORIENTED_EDGE('',*,*,#820,.T.);
#1110=ORIENTED_EDGE('',*,*,#918,.F.);
#1111=ORIENTED_EDGE('',*,*,#1099,.T.);
#1112=ORIENTED_EDGE('',*,*,#1001,.F.);
#1113=EDGE_LOOP('',(#1109,#1110,#1111,#1112));
#1114=FACE_OUTER_BOUND('',#1113,.F.);
#1115=ADVANCED_FACE('',(#1114),#1108,.T.);
#1116=CARTESIAN_POINT('',(0.E0,0.E0,1.E0));
#1117=DIRECTION('',(0.E0,0.E0,-1.E0));
#1118=DIRECTION('',(-1.E0,0.E0,0.E0));
#1119=AXIS2_PLACEMENT_3D('',#1116,#1117,#1118);
#1120=CYLINDRICAL_SURFACE('',#1119,3.465E0);
#1121=ORIENTED_EDGE('',*,*,#910,.F.);
#1123=ORIENTED_EDGE('',*,*,#1122,.T.);
#1124=ORIENTED_EDGE('',*,*,#954,.F.);
#1125=ORIENTED_EDGE('',*,*,#1025,.T.);
#1126=EDGE_LOOP('',(#1121,#1123,#1124,#1125));
#1127=FACE_OUTER_BOUND('',#1126,.F.);
#1128=ADVANCED_FACE('',(#1127),#1120,.F.);
#1129=CARTESIAN_POINT('',(3.15E0,0.E0,6.E-1));
#1130=DIRECTION('',(0.E0,0.E0,-1.E0));
#1131=DIRECTION('',(-1.E0,0.E0,0.E0));
#1132=AXIS2_PLACEMENT_3D('',#1129,#1130,#1131);
#1133=PLANE('',#1132);
#1134=ORIENTED_EDGE('',*,*,#956,.F.);
#1135=ORIENTED_EDGE('',*,*,#1122,.F.);
#1136=ORIENTED_EDGE('',*,*,#908,.F.);
#1137=ORIENTED_EDGE('',*,*,#934,.F.);
#1138=EDGE_LOOP('',(#1134,#1135,#1136,#1137));
#1139=FACE_OUTER_BOUND('',#1138,.F.);
#1140=ADVANCED_FACE('',(#1139),#1133,.F.);
#1141=CARTESIAN_POINT('',(-1.05E0,-4.2E-1,0.E0));
#1142=DIRECTION('',(1.E0,0.E0,0.E0));
#1143=DIRECTION('',(0.E0,1.E0,0.E0));
#1144=AXIS2_PLACEMENT_3D('',#1141,#1142,#1143);
#1145=PLANE('',#1144);
#1146=ORIENTED_EDGE('',*,*,#774,.T.);
#1147=ORIENTED_EDGE('',*,*,#827,.T.);
#1148=ORIENTED_EDGE('',*,*,#804,.F.);
#1149=ORIENTED_EDGE('',*,*,#789,.F.);
#1150=EDGE_LOOP('',(#1146,#1147,#1148,#1149));
#1151=FACE_OUTER_BOUND('',#1150,.F.);
#1152=ADVANCED_FACE('',(#1151),#1145,.F.);
#1156=DIMENSIONAL_EXPONENTS(0.E0,0.E0,0.E0,0.E0,0.E0,0.E0,0.E0);
#1158=PLANE_ANGLE_MEASURE_WITH_UNIT(PLANE_ANGLE_MEASURE(1.745329251994E-2),
#1157);
#1159=(CONVERSION_BASED_UNIT('DEGREE',#1158)NAMED_UNIT(*)PLANE_ANGLE_UNIT());
#1161=UNCERTAINTY_MEASURE_WITH_UNIT(LENGTH_MEASURE(9.386849873147E-4),#1155,
'closure',
'Maximum model space distance between geometric entities at asserted connectivities');
#1162=(GEOMETRIC_REPRESENTATION_CONTEXT(3)GLOBAL_UNCERTAINTY_ASSIGNED_CONTEXT((
#1161))GLOBAL_UNIT_ASSIGNED_CONTEXT((#1155,#1159,#1160))REPRESENTATION_CONTEXT(
'ID4','3'));
#1163=CARTESIAN_POINT('',(0.E0,0.E0,0.E0));
#1164=DIRECTION('',(0.E0,0.E0,1.E0));
#1165=DIRECTION('',(1.E0,0.E0,0.E0));
#1168=MECHANICAL_CONTEXT('',#165,'mechanical');
#1169=PRODUCT('_X2_041F043E0434043B043E04360_2',
'_X2_041F043E0434043B043E04360_2','NOT SPECIFIED',(#1168));
#1170=PRODUCT_DEFINITION_FORMATION_WITH_SPECIFIED_SOURCE('1','LAST_VERSION',
#1169,.MADE.);
#1176=CARTESIAN_POINT('',(0.E0,0.E0,0.E0));
#1177=DIRECTION('',(0.E0,1.E0,0.E0));
#1178=DIRECTION('',(-1.E0,0.E0,0.E0));
#1179=AXIS2_PLACEMENT_3D('',#1176,#1177,#1178);
#1180=ITEM_DEFINED_TRANSFORMATION('','',#1166,#1179);
#1181=(REPRESENTATION_RELATIONSHIP('','',#1167,#392)REPRESENTATION_RELATIONSHIP_WITH_TRANSFORMATION(#1180)SHAPE_REPRESENTATION_RELATIONSHIP());
#1182=CONTEXT_DEPENDENT_SHAPE_REPRESENTATION(#1181,#1175);
#1184=CARTESIAN_POINT('',(0.E0,0.E0,1.18E1));
#1185=DIRECTION('',(0.E0,0.E0,-1.E0));
#1186=DIRECTION('',(1.E0,0.E0,0.E0));
#1187=AXIS2_PLACEMENT_3D('',#1184,#1185,#1186);
#1189=CARTESIAN_POINT('',(2.95E0,2.367567947248E-13,1.18E1));
#1190=DIRECTION('',(8.025611425433E-14,-1.E0,0.E0));
#1191=DIRECTION('',(1.E0,8.025611425433E-14,0.E0));
#1192=AXIS2_PLACEMENT_3D('',#1189,#1190,#1191);
#1194=CARTESIAN_POINT('',(0.E0,0.E0,1.2E1));
#1195=DIRECTION('',(0.E0,0.E0,-1.E0));
#1196=DIRECTION('',(0.E0,-1.E0,0.E0));
#1197=AXIS2_PLACEMENT_3D('',#1194,#1195,#1196);
#1199=CARTESIAN_POINT('',(0.E0,0.E0,1.2E1));
#1200=DIRECTION('',(0.E0,0.E0,-1.E0));
#1201=DIRECTION('',(-1.E0,0.E0,0.E0));
#1202=AXIS2_PLACEMENT_3D('',#1199,#1200,#1201);
#1204=DIRECTION('',(0.E0,0.E0,1.E0));
#1205=VECTOR('',#1204,1.E-1);
#1206=CARTESIAN_POINT('',(0.E0,2.95E0,1.19E1));
#1207=LINE('',#1206,#1205);
#1208=CARTESIAN_POINT('',(0.E0,0.E0,1.19E1));
#1209=DIRECTION('',(0.E0,0.E0,1.E0));
#1210=DIRECTION('',(0.E0,1.E0,0.E0));
#1211=AXIS2_PLACEMENT_3D('',#1208,#1209,#1210);
#1213=DIRECTION('',(0.E0,0.E0,-1.E0));
#1214=VECTOR('',#1213,1.E-1);
#1215=CARTESIAN_POINT('',(0.E0,-2.95E0,1.2E1));
#1216=LINE('',#1215,#1214);
#1217=CARTESIAN_POINT('',(-2.95E0,-2.374211938161E-13,1.18E1));
#1218=DIRECTION('',(-8.048162830621E-14,1.E0,0.E0));
#1219=DIRECTION('',(-1.E0,-8.048162830621E-14,0.E0));
#1220=AXIS2_PLACEMENT_3D('',#1217,#1218,#1219);
#1222=CARTESIAN_POINT('',(0.E0,0.E0,1.18E1));
#1223=DIRECTION('',(0.E0,0.E0,-1.E0));
#1224=DIRECTION('',(-1.E0,0.E0,0.E0));
#1225=AXIS2_PLACEMENT_3D('',#1222,#1223,#1224);
#1227=DIRECTION('',(0.E0,0.E0,-1.E0));
#1228=VECTOR('',#1227,1.040486159507E1);
#1229=CARTESIAN_POINT('',(-3.15E0,0.E0,1.18E1));
#1230=LINE('',#1229,#1228);
#1231=DIRECTION('',(0.E0,0.E0,1.E0));
#1232=VECTOR('',#1231,1.040486159507E1);
#1233=CARTESIAN_POINT('',(3.15E0,0.E0,1.395138404929E0));
#1234=LINE('',#1233,#1232);
#1235=CARTESIAN_POINT('',(-2.835E0,0.E0,1.395138404929E0));
#1236=DIRECTION('',(0.E0,1.E0,0.E0));
#1237=DIRECTION('',(-8.594693320285E-1,0.E0,-5.111873113669E-1));
#1238=AXIS2_PLACEMENT_3D('',#1235,#1236,#1237);
#1240=CARTESIAN_POINT('',(0.E0,0.E0,1.395138404929E0));
#1241=DIRECTION('',(0.E0,0.E0,-1.E0));
#1242=DIRECTION('',(-1.E0,0.E0,0.E0));
#1243=AXIS2_PLACEMENT_3D('',#1240,#1241,#1242);
#1245=CARTESIAN_POINT('',(0.E0,0.E0,1.395138404929E0));
#1246=DIRECTION('',(0.E0,0.E0,-1.E0));
#1247=DIRECTION('',(1.E0,0.E0,0.E0));
#1248=AXIS2_PLACEMENT_3D('',#1245,#1246,#1247);
#1250=CARTESIAN_POINT('',(2.835E0,0.E0,1.395138404929E0));
#1251=DIRECTION('',(0.E0,-1.E0,0.E0));
#1252=DIRECTION('',(8.594693320284E-1,0.E0,-5.111873113670E-1));
#1253=AXIS2_PLACEMENT_3D('',#1250,#1251,#1252);
#1255=CARTESIAN_POINT('',(3.268172543342E0,0.E0,1.1375E0));
#1256=DIRECTION('',(0.E0,1.E0,0.E0));
#1257=DIRECTION('',(-8.594693320285E-1,0.E0,-5.111873113669E-1));
#1258=AXIS2_PLACEMENT_3D('',#1255,#1256,#1257);
#1260=CARTESIAN_POINT('',(0.E0,0.E0,1.040885598152E0));
#1261=DIRECTION('',(0.E0,0.E0,1.E0));
#1262=DIRECTION('',(-1.E0,0.E0,0.E0));
#1263=AXIS2_PLACEMENT_3D('',#1260,#1261,#1262);
#1265=CARTESIAN_POINT('',(0.E0,0.E0,1.234114401848E0));
#1266=DIRECTION('',(0.E0,0.E0,-1.E0));
#1267=DIRECTION('',(1.E0,0.E0,0.E0));
#1268=AXIS2_PLACEMENT_3D('',#1265,#1266,#1267);
#1270=CARTESIAN_POINT('',(3.268172543342E0,0.E0,1.1375E0));
#1271=DIRECTION('',(0.E0,1.E0,0.E0));
#1272=DIRECTION('',(-1.E0,0.E0,0.E0));
#1273=AXIS2_PLACEMENT_3D('',#1270,#1271,#1272);
#1275=CARTESIAN_POINT('',(0.E0,0.E0,1.234114401848E0));
#1276=DIRECTION('',(0.E0,0.E0,-1.E0));
#1277=DIRECTION('',(-1.E0,0.E0,0.E0));
#1278=AXIS2_PLACEMENT_3D('',#1275,#1276,#1277);
#1280=CARTESIAN_POINT('',(-3.268172543342E0,0.E0,1.1375E0));
#1281=DIRECTION('',(0.E0,-1.E0,0.E0));
#1282=DIRECTION('',(1.E0,0.E0,0.E0));
#1283=AXIS2_PLACEMENT_3D('',#1280,#1281,#1282);
#1285=CARTESIAN_POINT('',(-3.268172543342E0,0.E0,1.1375E0));
#1286=DIRECTION('',(0.E0,-1.E0,0.E0));
#1287=DIRECTION('',(8.594693320285E-1,0.E0,-5.111873113669E-1));
#1288=AXIS2_PLACEMENT_3D('',#1285,#1286,#1287);
#1290=CARTESIAN_POINT('',(0.E0,0.E0,1.040885598152E0));
#1291=DIRECTION('',(0.E0,0.E0,1.E0));
#1292=DIRECTION('',(1.E0,0.E0,0.E0));
#1293=AXIS2_PLACEMENT_3D('',#1290,#1291,#1292);
#1295=CARTESIAN_POINT('',(2.835E0,0.E0,8.798615950711E-1));
#1296=DIRECTION('',(0.E0,1.E0,0.E0));
#1297=DIRECTION('',(8.594693320285E-1,0.E0,5.111873113669E-1));
#1298=AXIS2_PLACEMENT_3D('',#1295,#1296,#1297);
#1300=CARTESIAN_POINT('',(0.E0,0.E0,8.798615950711E-1));
#1301=DIRECTION('',(0.E0,0.E0,1.E0));
#1302=DIRECTION('',(1.E0,0.E0,0.E0));
#1303=AXIS2_PLACEMENT_3D('',#1300,#1301,#1302);
#1305=CARTESIAN_POINT('',(0.E0,0.E0,8.798615950711E-1));
#1306=DIRECTION('',(0.E0,0.E0,1.E0));
#1307=DIRECTION('',(-1.E0,0.E0,0.E0));
#1308=AXIS2_PLACEMENT_3D('',#1305,#1306,#1307);
#1310=CARTESIAN_POINT('',(-2.835E0,0.E0,8.798615950711E-1));
#1311=DIRECTION('',(0.E0,-1.E0,0.E0));
#1312=DIRECTION('',(-8.594693320285E-1,0.E0,5.111873113669E-1));
#1313=AXIS2_PLACEMENT_3D('',#1310,#1311,#1312);
#1315=DIRECTION('',(0.E0,0.E0,-1.E0));
#1316=VECTOR('',#1315,2.798615950711E-1);
#1317=CARTESIAN_POINT('',(-3.15E0,0.E0,8.798615950711E-1));
#1318=LINE('',#1317,#1316);
#1319=DIRECTION('',(0.E0,0.E0,-1.E0));
#1320=VECTOR('',#1319,2.798615950711E-1);
#1321=CARTESIAN_POINT('',(3.15E0,0.E0,8.798615950711E-1));
#1322=LINE('',#1321,#1320);
#1323=CARTESIAN_POINT('',(2.95E0,0.E0,6.E-1));
#1324=DIRECTION('',(0.E0,1.E0,0.E0));
#1325=DIRECTION('',(1.E0,0.E0,0.E0));
#1326=AXIS2_PLACEMENT_3D('',#1323,#1324,#1325);
#1328=CARTESIAN_POINT('',(0.E0,0.E0,6.E-1));
#1329=DIRECTION('',(0.E0,0.E0,-1.E0));
#1330=DIRECTION('',(-1.E0,0.E0,0.E0));
#1331=AXIS2_PLACEMENT_3D('',#1328,#1329,#1330);
#1333=CARTESIAN_POINT('',(-2.95E0,0.E0,6.E-1));
#1334=DIRECTION('',(0.E0,-1.E0,0.E0));
#1335=DIRECTION('',(-1.E0,0.E0,0.E0));
#1336=AXIS2_PLACEMENT_3D('',#1333,#1334,#1335);
#1338=CARTESIAN_POINT('',(0.E0,0.E0,6.E-1));
#1339=DIRECTION('',(0.E0,0.E0,-1.E0));
#1340=DIRECTION('',(1.E0,0.E0,0.E0));
#1341=AXIS2_PLACEMENT_3D('',#1338,#1339,#1340);
#1343=CARTESIAN_POINT('',(0.E0,0.E0,4.E-1));
#1344=DIRECTION('',(0.E0,0.E0,-1.E0));
#1345=DIRECTION('',(1.E0,0.E0,0.E0));
#1346=AXIS2_PLACEMENT_3D('',#1343,#1344,#1345);
#1348=CARTESIAN_POINT('',(0.E0,0.E0,4.E-1));
#1349=DIRECTION('',(0.E0,0.E0,-1.E0));
#1350=DIRECTION('',(-1.E0,0.E0,0.E0));
#1351=AXIS2_PLACEMENT_3D('',#1348,#1349,#1350);
#1353=CARTESIAN_POINT('',(0.E0,0.E0,1.2E1));
#1354=DIRECTION('',(0.E0,0.E0,-1.E0));
#1355=DIRECTION('',(0.E0,1.E0,0.E0));
#1356=AXIS2_PLACEMENT_3D('',#1353,#1354,#1355);
#1358=CARTESIAN_POINT('',(0.E0,0.E0,1.2E1));
#1359=DIRECTION('',(0.E0,0.E0,-1.E0));
#1360=DIRECTION('',(1.E0,0.E0,0.E0));
#1361=AXIS2_PLACEMENT_3D('',#1358,#1359,#1360);
#1363=DIRECTION('',(0.E0,1.E0,0.E0));
#1364=VECTOR('',#1363,5.9E0);
#1365=CARTESIAN_POINT('',(0.E0,-2.95E0,1.2E1));
#1366=LINE('',#1365,#1364);
#1367=DIRECTION('',(0.E0,-1.E0,0.E0));
#1368=VECTOR('',#1367,5.9E0);
#1369=CARTESIAN_POINT('',(0.E0,2.95E0,1.19E1));
#1370=LINE('',#1369,#1368);
#1371=DIRECTION('',(0.E0,1.E0,0.E0));
#1372=VECTOR('',#1371,5.799137866959E0);
#1373=CARTESIAN_POINT('',(-5.E-2,-2.899568933480E0,1.19E1));
#1374=LINE('',#1373,#1372);
#1375=CARTESIAN_POINT('',(0.E0,0.E0,1.2E1));
#1376=DIRECTION('',(0.E0,0.E0,1.E0));
#1377=DIRECTION('',(-1.724137931034E-2,9.998513563723E-1,0.E0));
#1378=AXIS2_PLACEMENT_3D('',#1375,#1376,#1377);
#1380=CARTESIAN_POINT('',(0.E0,0.E0,1.19E1));
#1381=DIRECTION('',(0.E0,0.E0,-1.E0));
#1382=DIRECTION('',(-1.724137931034E-2,-9.998513563723E-1,0.E0));
#1383=AXIS2_PLACEMENT_3D('',#1380,#1381,#1382);
#1385=DIRECTION('',(0.E0,0.E0,1.E0));
#1386=VECTOR('',#1385,1.E-1);
#1387=CARTESIAN_POINT('',(-5.E-2,2.899568933480E0,1.19E1));
#1388=LINE('',#1387,#1386);
#1389=DIRECTION('',(0.E0,1.E0,0.E0));
#1390=VECTOR('',#1389,5.799137866959E0);
#1391=CARTESIAN_POINT('',(-5.E-2,-2.899568933480E0,1.2E1));
#1392=LINE('',#1391,#1390);
#1393=DIRECTION('',(0.E0,0.E0,1.E0));
#1394=VECTOR('',#1393,1.E-1);
#1395=CARTESIAN_POINT('',(-5.E-2,-2.899568933480E0,1.19E1));
#1396=LINE('',#1395,#1394);
#1397=CARTESIAN_POINT('',(-3.105732839589E0,0.E0,1.234114401848E0));
#1398=CARTESIAN_POINT('',(-3.15E0,0.E0,1.395138404929E0));
#1399=VERTEX_POINT('',#1397);
#1400=VERTEX_POINT('',#1398);
#1401=CARTESIAN_POINT('',(3.079172543342E0,0.E0,1.1375E0));
#1402=CARTESIAN_POINT('',(3.105732839589E0,0.E0,1.234114401848E0));
#1403=VERTEX_POINT('',#1401);
#1404=VERTEX_POINT('',#1402);
#1405=CARTESIAN_POINT('',(3.105732839589E0,0.E0,1.040885598152E0));
#1406=VERTEX_POINT('',#1405);
#1407=CARTESIAN_POINT('',(-3.15E0,0.E0,6.E-1));
#1408=CARTESIAN_POINT('',(3.15E0,0.E0,6.E-1));
#1409=VERTEX_POINT('',#1407);
#1410=VERTEX_POINT('',#1408);
#1411=CARTESIAN_POINT('',(2.95E0,0.E0,4.E-1));
#1412=VERTEX_POINT('',#1411);
#1413=CARTESIAN_POINT('',(3.15E0,0.E0,8.798615950711E-1));
#1414=VERTEX_POINT('',#1413);
#1415=CARTESIAN_POINT('',(-3.079172543342E0,0.E0,1.1375E0));
#1416=VERTEX_POINT('',#1415);
#1417=CARTESIAN_POINT('',(-3.105732839589E0,0.E0,1.040885598152E0));
#1418=VERTEX_POINT('',#1417);
#1419=CARTESIAN_POINT('',(-2.95E0,0.E0,4.E-1));
#1420=VERTEX_POINT('',#1419);
#1421=CARTESIAN_POINT('',(-3.15E0,0.E0,8.798615950711E-1));
#1422=VERTEX_POINT('',#1421);
#1423=CARTESIAN_POINT('',(3.15E0,0.E0,1.395138404929E0));
#1424=VERTEX_POINT('',#1423);
#1425=CARTESIAN_POINT('',(0.E0,2.95E0,1.19E1));
#1426=CARTESIAN_POINT('',(0.E0,-2.95E0,1.19E1));
#1427=VERTEX_POINT('',#1425);
#1428=VERTEX_POINT('',#1426);
#1429=CARTESIAN_POINT('',(-5.E-2,-2.899568933480E0,1.2E1));
#1430=CARTESIAN_POINT('',(-5.E-2,2.899568933480E0,1.2E1));
#1431=VERTEX_POINT('',#1429);
#1432=VERTEX_POINT('',#1430);
#1433=CARTESIAN_POINT('',(-5.E-2,-2.899568933480E0,1.19E1));
#1434=CARTESIAN_POINT('',(-5.E-2,2.899568933480E0,1.19E1));
#1435=VERTEX_POINT('',#1433);
#1436=VERTEX_POINT('',#1434);
#1437=CARTESIAN_POINT('',(-2.95E0,0.E0,1.2E1));
#1438=CARTESIAN_POINT('',(0.E0,2.95E0,1.2E1));
#1439=VERTEX_POINT('',#1437);
#1440=VERTEX_POINT('',#1438);
#1441=CARTESIAN_POINT('',(-3.15E0,0.E0,1.18E1));
#1442=CARTESIAN_POINT('',(3.15E0,0.E0,1.18E1));
#1443=VERTEX_POINT('',#1441);
#1444=VERTEX_POINT('',#1442);
#1445=CARTESIAN_POINT('',(2.95E0,0.E0,1.2E1));
#1446=VERTEX_POINT('',#1445);
#1447=CARTESIAN_POINT('',(0.E0,-2.95E0,1.2E1));
#1448=VERTEX_POINT('',#1447);
#1449=CARTESIAN_POINT('',(0.E0,0.E0,4.E-1));
#1450=DIRECTION('',(0.E0,0.E0,1.E0));
#1451=DIRECTION('',(1.E0,0.E0,0.E0));
#1452=AXIS2_PLACEMENT_3D('',#1449,#1450,#1451);
#1453=CYLINDRICAL_SURFACE('',#1452,3.15E0);
#1455=ORIENTED_EDGE('',*,*,#1454,.F.);
#1457=ORIENTED_EDGE('',*,*,#1456,.F.);
#1459=ORIENTED_EDGE('',*,*,#1458,.T.);
#1461=ORIENTED_EDGE('',*,*,#1460,.F.);
#1462=EDGE_LOOP('',(#1455,#1457,#1459,#1461));
#1463=FACE_OUTER_BOUND('',#1462,.F.);
#1464=ADVANCED_FACE('',(#1463),#1453,.T.);
#1465=CARTESIAN_POINT('',(0.E0,0.E0,1.18E1));
#1466=DIRECTION('',(0.E0,0.E0,1.E0));
#1467=DIRECTION('',(9.999879247231E-1,4.914306468441E-3,0.E0));
#1468=AXIS2_PLACEMENT_3D('',#1465,#1466,#1467);
#1469=TOROIDAL_SURFACE('',#1468,2.95E0,2.E-1);
#1471=ORIENTED_EDGE('',*,*,#1470,.F.);
#1473=ORIENTED_EDGE('',*,*,#1472,.F.);
#1475=ORIENTED_EDGE('',*,*,#1474,.F.);
#1476=ORIENTED_EDGE('',*,*,#1454,.T.);
#1478=ORIENTED_EDGE('',*,*,#1477,.T.);
#1479=EDGE_LOOP('',(#1471,#1473,#1475,#1476,#1478));
#1480=FACE_OUTER_BOUND('',#1479,.F.);
#1481=ADVANCED_FACE('',(#1480),#1469,.T.);
#1482=CARTESIAN_POINT('',(0.E0,0.E0,5.9E0));
#1483=DIRECTION('',(0.E0,0.E0,-1.E0));
#1484=DIRECTION('',(-1.E0,0.E0,0.E0));
#1485=AXIS2_PLACEMENT_3D('',#1482,#1483,#1484);
#1486=CYLINDRICAL_SURFACE('',#1485,2.95E0);
#1487=ORIENTED_EDGE('',*,*,#1470,.T.);
#1489=ORIENTED_EDGE('',*,*,#1488,.T.);
#1491=ORIENTED_EDGE('',*,*,#1490,.F.);
#1493=ORIENTED_EDGE('',*,*,#1492,.T.);
#1495=ORIENTED_EDGE('',*,*,#1494,.F.);
#1496=EDGE_LOOP('',(#1487,#1489,#1491,#1493,#1495));
#1497=FACE_OUTER_BOUND('',#1496,.F.);
#1498=ADVANCED_FACE('',(#1497),#1486,.F.);
#1499=CARTESIAN_POINT('',(0.E0,0.E0,1.18E1));
#1500=DIRECTION('',(0.E0,0.E0,1.E0));
#1501=DIRECTION('',(-9.999879247231E-1,-4.914306468441E-3,0.E0));
#1502=AXIS2_PLACEMENT_3D('',#1499,#1500,#1501);
#1503=TOROIDAL_SURFACE('',#1502,2.95E0,2.E-1);
#1504=ORIENTED_EDGE('',*,*,#1488,.F.);
#1505=ORIENTED_EDGE('',*,*,#1477,.F.);
#1507=ORIENTED_EDGE('',*,*,#1506,.T.);
#1508=ORIENTED_EDGE('',*,*,#1474,.T.);
#1510=ORIENTED_EDGE('',*,*,#1509,.F.);
#1511=EDGE_LOOP('',(#1504,#1505,#1507,#1508,#1510));
#1512=FACE_OUTER_BOUND('',#1511,.F.);
#1513=ADVANCED_FACE('',(#1512),#1503,.T.);
#1514=CARTESIAN_POINT('',(0.E0,0.E0,4.E-1));
#1515=DIRECTION('',(0.E0,0.E0,1.E0));
#1516=DIRECTION('',(1.E0,0.E0,0.E0));
#1517=AXIS2_PLACEMENT_3D('',#1514,#1515,#1516);
#1518=CYLINDRICAL_SURFACE('',#1517,3.15E0);
#1519=ORIENTED_EDGE('',*,*,#1506,.F.);
#1520=ORIENTED_EDGE('',*,*,#1460,.T.);
#1522=ORIENTED_EDGE('',*,*,#1521,.T.);
#1523=ORIENTED_EDGE('',*,*,#1456,.T.);
#1524=EDGE_LOOP('',(#1519,#1520,#1522,#1523));
#1525=FACE_OUTER_BOUND('',#1524,.F.);
#1526=ADVANCED_FACE('',(#1525),#1518,.T.);
#1527=CARTESIAN_POINT('',(0.E0,0.E0,1.395138404929E0));
#1528=DIRECTION('',(0.E0,0.E0,-1.E0));
#1529=DIRECTION('',(1.E0,0.E0,0.E0));
#1530=AXIS2_PLACEMENT_3D('',#1527,#1528,#1529);
#1531=TOROIDAL_SURFACE('',#1530,2.835E0,3.15E-1);
#1533=ORIENTED_EDGE('',*,*,#1532,.F.);
#1535=ORIENTED_EDGE('',*,*,#1534,.T.);
#1537=ORIENTED_EDGE('',*,*,#1536,.T.);
#1538=ORIENTED_EDGE('',*,*,#1521,.F.);
#1539=EDGE_LOOP('',(#1533,#1535,#1537,#1538));
#1540=FACE_OUTER_BOUND('',#1539,.F.);
#1541=ADVANCED_FACE('',(#1540),#1531,.T.);
#1542=CARTESIAN_POINT('',(0.E0,0.E0,1.395138404929E0));
#1543=DIRECTION('',(0.E0,0.E0,-1.E0));
#1544=DIRECTION('',(-1.E0,0.E0,0.E0));
#1545=AXIS2_PLACEMENT_3D('',#1542,#1543,#1544);
#1546=TOROIDAL_SURFACE('',#1545,2.835E0,3.15E-1);
#1547=ORIENTED_EDGE('',*,*,#1458,.F.);
#1548=ORIENTED_EDGE('',*,*,#1536,.F.);
#1550=ORIENTED_EDGE('',*,*,#1549,.T.);
#1551=ORIENTED_EDGE('',*,*,#1532,.T.);
#1552=EDGE_LOOP('',(#1547,#1548,#1550,#1551));
#1553=FACE_OUTER_BOUND('',#1552,.F.);
#1554=ADVANCED_FACE('',(#1553),#1546,.T.);
#1555=CARTESIAN_POINT('',(0.E0,0.E0,1.1375E0));
#1556=DIRECTION('',(0.E0,0.E0,-1.E0));
#1557=DIRECTION('',(1.E0,0.E0,0.E0));
#1558=AXIS2_PLACEMENT_3D('',#1555,#1556,#1557);
#1559=TOROIDAL_SURFACE('',#1558,3.268172543342E0,1.89E-1);
#1561=ORIENTED_EDGE('',*,*,#1560,.F.);
#1563=ORIENTED_EDGE('',*,*,#1562,.F.);
#1565=ORIENTED_EDGE('',*,*,#1564,.T.);
#1567=ORIENTED_EDGE('',*,*,#1566,.T.);
#1568=ORIENTED_EDGE('',*,*,#1549,.F.);
#1570=ORIENTED_EDGE('',*,*,#1569,.F.);
#1571=EDGE_LOOP('',(#1561,#1563,#1565,#1567,#1568,#1570));
#1572=FACE_OUTER_BOUND('',#1571,.F.);
#1573=ADVANCED_FACE('',(#1572),#1559,.F.);
#1574=CARTESIAN_POINT('',(0.E0,0.E0,1.1375E0));
#1575=DIRECTION('',(0.E0,0.E0,-1.E0));
#1576=DIRECTION('',(-1.E0,0.E0,0.E0));
#1577=AXIS2_PLACEMENT_3D('',#1574,#1575,#1576);
#1578=TOROIDAL_SURFACE('',#1577,3.268172543342E0,1.89E-1);
#1579=ORIENTED_EDGE('',*,*,#1534,.F.);
#1580=ORIENTED_EDGE('',*,*,#1566,.F.);
#1581=ORIENTED_EDGE('',*,*,#1564,.F.);
#1583=ORIENTED_EDGE('',*,*,#1582,.F.);
#1584=ORIENTED_EDGE('',*,*,#1560,.T.);
#1585=ORIENTED_EDGE('',*,*,#1569,.T.);
#1586=EDGE_LOOP('',(#1579,#1580,#1581,#1583,#1584,#1585));
#1587=FACE_OUTER_BOUND('',#1586,.F.);
#1588=ADVANCED_FACE('',(#1587),#1578,.F.);
#1589=CARTESIAN_POINT('',(0.E0,0.E0,8.798615950711E-1));
#1590=DIRECTION('',(0.E0,0.E0,1.E0));
#1591=DIRECTION('',(-1.E0,0.E0,0.E0));
#1592=AXIS2_PLACEMENT_3D('',#1589,#1590,#1591);
#1593=TOROIDAL_SURFACE('',#1592,2.835E0,3.15E-1);
#1595=ORIENTED_EDGE('',*,*,#1594,.F.);
#1596=ORIENTED_EDGE('',*,*,#1582,.T.);
#1598=ORIENTED_EDGE('',*,*,#1597,.T.);
#1600=ORIENTED_EDGE('',*,*,#1599,.F.);
#1601=EDGE_LOOP('',(#1595,#1596,#1598,#1600));
#1602=FACE_OUTER_BOUND('',#1601,.F.);
#1603=ADVANCED_FACE('',(#1602),#1593,.T.);
#1604=CARTESIAN_POINT('',(0.E0,0.E0,8.798615950711E-1));
#1605=DIRECTION('',(0.E0,0.E0,1.E0));
#1606=DIRECTION('',(1.E0,0.E0,0.E0));
#1607=AXIS2_PLACEMENT_3D('',#1604,#1605,#1606);
#1608=TOROIDAL_SURFACE('',#1607,2.835E0,3.15E-1);
#1610=ORIENTED_EDGE('',*,*,#1609,.F.);
#1611=ORIENTED_EDGE('',*,*,#1597,.F.);
#1612=ORIENTED_EDGE('',*,*,#1562,.T.);
#1613=ORIENTED_EDGE('',*,*,#1594,.T.);
#1614=EDGE_LOOP('',(#1610,#1611,#1612,#1613));
#1615=FACE_OUTER_BOUND('',#1614,.F.);
#1616=ADVANCED_FACE('',(#1615),#1608,.T.);
#1617=CARTESIAN_POINT('',(0.E0,0.E0,4.E-1));
#1618=DIRECTION('',(0.E0,0.E0,1.E0));
#1619=DIRECTION('',(1.E0,0.E0,0.E0));
#1620=AXIS2_PLACEMENT_3D('',#1617,#1618,#1619);
#1621=CYLINDRICAL_SURFACE('',#1620,3.15E0);
#1623=ORIENTED_EDGE('',*,*,#1622,.F.);
#1624=ORIENTED_EDGE('',*,*,#1609,.T.);
#1626=ORIENTED_EDGE('',*,*,#1625,.T.);
#1628=ORIENTED_EDGE('',*,*,#1627,.T.);
#1629=EDGE_LOOP('',(#1623,#1624,#1626,#1628));
#1630=FACE_OUTER_BOUND('',#1629,.F.);
#1631=ADVANCED_FACE('',(#1630),#1621,.T.);
#1632=CARTESIAN_POINT('',(0.E0,0.E0,4.E-1));
#1633=DIRECTION('',(0.E0,0.E0,1.E0));
#1634=DIRECTION('',(1.E0,0.E0,0.E0));
#1635=AXIS2_PLACEMENT_3D('',#1632,#1633,#1634);
#1636=CYLINDRICAL_SURFACE('',#1635,3.15E0);
#1638=ORIENTED_EDGE('',*,*,#1637,.T.);
#1639=ORIENTED_EDGE('',*,*,#1625,.F.);
#1640=ORIENTED_EDGE('',*,*,#1599,.T.);
#1641=ORIENTED_EDGE('',*,*,#1622,.T.);
#1642=EDGE_LOOP('',(#1638,#1639,#1640,#1641));
#1643=FACE_OUTER_BOUND('',#1642,.F.);
#1644=ADVANCED_FACE('',(#1643),#1636,.T.);
#1645=CARTESIAN_POINT('',(0.E0,0.E0,6.E-1));
#1646=DIRECTION('',(0.E0,0.E0,1.E0));
#1647=DIRECTION('',(-1.E0,0.E0,0.E0));
#1648=AXIS2_PLACEMENT_3D('',#1645,#1646,#1647);
#1649=TOROIDAL_SURFACE('',#1648,2.95E0,2.E-1);
#1651=ORIENTED_EDGE('',*,*,#1650,.F.);
#1652=ORIENTED_EDGE('',*,*,#1637,.F.);
#1654=ORIENTED_EDGE('',*,*,#1653,.T.);
#1656=ORIENTED_EDGE('',*,*,#1655,.T.);
#1657=EDGE_LOOP('',(#1651,#1652,#1654,#1656));
#1658=FACE_OUTER_BOUND('',#1657,.F.);
#1659=ADVANCED_FACE('',(#1658),#1649,.T.);
#1660=CARTESIAN_POINT('',(0.E0,0.E0,6.E-1));
#1661=DIRECTION('',(0.E0,0.E0,1.E0));
#1662=DIRECTION('',(1.E0,0.E0,0.E0));
#1663=AXIS2_PLACEMENT_3D('',#1660,#1661,#1662);
#1664=TOROIDAL_SURFACE('',#1663,2.95E0,2.E-1);
#1666=ORIENTED_EDGE('',*,*,#1665,.T.);
#1667=ORIENTED_EDGE('',*,*,#1653,.F.);
#1668=ORIENTED_EDGE('',*,*,#1627,.F.);
#1669=ORIENTED_EDGE('',*,*,#1650,.T.);
#1670=EDGE_LOOP('',(#1666,#1667,#1668,#1669));
#1671=FACE_OUTER_BOUND('',#1670,.F.);
#1672=ADVANCED_FACE('',(#1671),#1664,.T.);
#1673=CARTESIAN_POINT('',(0.E0,0.E0,4.E-1));
#1674=DIRECTION('',(0.E0,0.E0,1.E0));
#1675=DIRECTION('',(1.E0,0.E0,0.E0));
#1676=AXIS2_PLACEMENT_3D('',#1673,#1674,#1675);
#1677=PLANE('',#1676);
#1678=ORIENTED_EDGE('',*,*,#1665,.F.);
#1679=ORIENTED_EDGE('',*,*,#1655,.F.);
#1680=EDGE_LOOP('',(#1678,#1679));
#1681=FACE_OUTER_BOUND('',#1680,.F.);
#1682=ADVANCED_FACE('',(#1681),#1677,.F.);
#1683=CARTESIAN_POINT('',(0.E0,0.E0,1.2E1));
#1684=DIRECTION('',(0.E0,0.E0,1.E0));
#1685=DIRECTION('',(1.E0,0.E0,0.E0));
#1686=AXIS2_PLACEMENT_3D('',#1683,#1684,#1685);
#1687=PLANE('',#1686);
#1688=ORIENTED_EDGE('',*,*,#1509,.T.);
#1689=ORIENTED_EDGE('',*,*,#1472,.T.);
#1691=ORIENTED_EDGE('',*,*,#1690,.T.);
#1692=EDGE_LOOP('',(#1688,#1689,#1691));
#1693=FACE_OUTER_BOUND('',#1692,.F.);
#1694=ADVANCED_FACE('',(#1693),#1687,.T.);
#1695=CARTESIAN_POINT('',(0.E0,2.95E0,5.9E0));
#1696=DIRECTION('',(1.E0,0.E0,0.E0));
#1697=DIRECTION('',(0.E0,0.E0,-1.E0));
#1698=AXIS2_PLACEMENT_3D('',#1695,#1696,#1697);
#1699=PLANE('',#1698);
#1700=ORIENTED_EDGE('',*,*,#1490,.T.);
#1701=ORIENTED_EDGE('',*,*,#1690,.F.);
#1702=ORIENTED_EDGE('',*,*,#1494,.T.);
#1704=ORIENTED_EDGE('',*,*,#1703,.F.);
#1705=EDGE_LOOP('',(#1700,#1701,#1702,#1704));
#1706=FACE_OUTER_BOUND('',#1705,.F.);
#1707=ADVANCED_FACE('',(#1706),#1699,.F.);
#1708=CARTESIAN_POINT('',(-1.015803292910E0,0.E0,1.19E1));
#1709=DIRECTION('',(0.E0,0.E0,1.E0));
#1710=DIRECTION('',(1.E0,0.E0,0.E0));
#1711=AXIS2_PLACEMENT_3D('',#1708,#1709,#1710);
#1712=PLANE('',#1711);
#1713=ORIENTED_EDGE('',*,*,#1492,.F.);
#1714=ORIENTED_EDGE('',*,*,#1703,.T.);
#1715=EDGE_LOOP('',(#1713,#1714));
#1716=FACE_OUTER_BOUND('',#1715,.F.);
#1718=ORIENTED_EDGE('',*,*,#1717,.F.);
#1720=ORIENTED_EDGE('',*,*,#1719,.T.);
#1721=EDGE_LOOP('',(#1718,#1720));
#1722=FACE_BOUND('',#1721,.F.);
#1723=ADVANCED_FACE('',(#1716,#1722),#1712,.T.);
#1724=CARTESIAN_POINT('',(0.E0,0.E0,1.19E1));
#1725=DIRECTION('',(0.E0,0.E0,1.E0));
#1726=DIRECTION('',(1.E0,0.E0,0.E0));
#1727=AXIS2_PLACEMENT_3D('',#1724,#1725,#1726);
#1728=CYLINDRICAL_SURFACE('',#1727,2.9E0);
#1730=ORIENTED_EDGE('',*,*,#1729,.T.);
#1732=ORIENTED_EDGE('',*,*,#1731,.F.);
#1733=ORIENTED_EDGE('',*,*,#1717,.T.);
#1735=ORIENTED_EDGE('',*,*,#1734,.T.);
#1736=EDGE_LOOP('',(#1730,#1732,#1733,#1735));
#1737=FACE_OUTER_BOUND('',#1736,.F.);
#1738=ADVANCED_FACE('',(#1737),#1728,.T.);
#1739=CARTESIAN_POINT('',(0.E0,0.E0,1.2E1));
#1740=DIRECTION('',(0.E0,0.E0,1.E0));
#1741=DIRECTION('',(1.E0,0.E0,0.E0));
#1742=AXIS2_PLACEMENT_3D('',#1739,#1740,#1741);
#1743=PLANE('',#1742);
#1744=ORIENTED_EDGE('',*,*,#1729,.F.);
#1746=ORIENTED_EDGE('',*,*,#1745,.F.);
#1747=EDGE_LOOP('',(#1744,#1746));
#1748=FACE_OUTER_BOUND('',#1747,.F.);
#1749=ADVANCED_FACE('',(#1748),#1743,.T.);
#1750=CARTESIAN_POINT('',(-5.E-2,-2.899568933480E0,1.19E1));
#1751=DIRECTION('',(1.E0,0.E0,0.E0));
#1752=DIRECTION('',(0.E0,1.E0,0.E0));
#1753=AXIS2_PLACEMENT_3D('',#1750,#1751,#1752);
#1754=PLANE('',#1753);
#1755=ORIENTED_EDGE('',*,*,#1719,.F.);
#1756=ORIENTED_EDGE('',*,*,#1731,.T.);
#1757=ORIENTED_EDGE('',*,*,#1745,.T.);
#1758=ORIENTED_EDGE('',*,*,#1734,.F.);
#1759=EDGE_LOOP('',(#1755,#1756,#1757,#1758));
#1760=FACE_OUTER_BOUND('',#1759,.F.);
#1761=ADVANCED_FACE('',(#1760),#1754,.T.);
#1765=DIMENSIONAL_EXPONENTS(0.E0,0.E0,0.E0,0.E0,0.E0,0.E0,0.E0);
#1767=PLANE_ANGLE_MEASURE_WITH_UNIT(PLANE_ANGLE_MEASURE(1.745329251994E-2),
#1766);
#1768=(CONVERSION_BASED_UNIT('DEGREE',#1767)NAMED_UNIT(*)PLANE_ANGLE_UNIT());
#1770=UNCERTAINTY_MEASURE_WITH_UNIT(LENGTH_MEASURE(1.047001574857E-3),#1764,
'closure',
'Maximum model space distance between geometric entities at asserted connectivities');
#1771=(GEOMETRIC_REPRESENTATION_CONTEXT(3)GLOBAL_UNCERTAINTY_ASSIGNED_CONTEXT((
#1770))GLOBAL_UNIT_ASSIGNED_CONTEXT((#1764,#1768,#1769))REPRESENTATION_CONTEXT(
'ID5','3'));
#1772=CARTESIAN_POINT('',(0.E0,0.E0,0.E0));
#1773=DIRECTION('',(0.E0,0.E0,1.E0));
#1774=DIRECTION('',(1.E0,0.E0,0.E0));
#1777=DESIGN_CONTEXT('',#165,'design');
#1778=MECHANICAL_CONTEXT('',#165,'mechanical');
#1779=PRODUCT('_X2_041A043E0440043F04430441__2',
'_X2_041A043E0440043F04430441__2','NOT SPECIFIED',(#1778));
#1780=PRODUCT_DEFINITION_FORMATION_WITH_SPECIFIED_SOURCE('2','LAST_VERSION',
#1779,.MADE.);
#1786=CARTESIAN_POINT('',(0.E0,0.E0,0.E0));
#1787=DIRECTION('',(0.E0,1.E0,0.E0));
#1788=DIRECTION('',(-1.E0,0.E0,0.E0));
#1789=AXIS2_PLACEMENT_3D('',#1786,#1787,#1788);
#1790=ITEM_DEFINED_TRANSFORMATION('','',#1775,#1789);
#1791=(REPRESENTATION_RELATIONSHIP('','',#1776,#392)REPRESENTATION_RELATIONSHIP_WITH_TRANSFORMATION(#1790)SHAPE_REPRESENTATION_RELATIONSHIP());
#1792=CONTEXT_DEPENDENT_SHAPE_REPRESENTATION(#1791,#1785);
#1794=DIMENSIONAL_EXPONENTS(0.E0,0.E0,0.E0,0.E0,0.E0,0.E0,0.E0);
#1796=PLANE_ANGLE_MEASURE_WITH_UNIT(PLANE_ANGLE_MEASURE(1.745329251994E-2),
#1795);
#1797=(CONVERSION_BASED_UNIT('DEGREE',#1796)NAMED_UNIT(*)PLANE_ANGLE_UNIT());
#1799=UNCERTAINTY_MEASURE_WITH_UNIT(LENGTH_MEASURE(8.659907627683E-2),#1793,
'closure',
'Maximum model space distance between geometric entities at asserted connectivities');
#1800=(GEOMETRIC_REPRESENTATION_CONTEXT(3)GLOBAL_UNCERTAINTY_ASSIGNED_CONTEXT((
#1799))GLOBAL_UNIT_ASSIGNED_CONTEXT((#1793,#1797,#1798))REPRESENTATION_CONTEXT(
'ID6','3'));
#1801=CARTESIAN_POINT('',(0.E0,0.E0,0.E0));
#1802=DIRECTION('',(0.E0,0.E0,1.E0));
#1803=DIRECTION('',(1.E0,0.E0,0.E0));
#1805=MECHANICAL_CONTEXT('',#165,'mechanical');
#1806=PRODUCT('USER_LIBRARY-CAP_SMD_SVP_6_3X_2_ASM',
'USER_LIBRARY-CAP_SMD_SVP_6_3X_2_ASM','NOT SPECIFIED',(#1805));
#1807=PRODUCT_DEFINITION_FORMATION_WITH_SPECIFIED_SOURCE('2','LAST_VERSION',
#1806,.MADE.);
#1809=PRODUCT_CATEGORY('part','');
#1810=PRODUCT_RELATED_PRODUCT_CATEGORY('assembly','',(#387,#1806));
#1811=PRODUCT_CATEGORY_RELATIONSHIP('','',#1809,#1810);
#1812=PRODUCT_CATEGORY('part','');
#1813=PRODUCT_RELATED_PRODUCT_CATEGORY('detail','',(#169,#355,#1169,#1779));
#1814=PRODUCT_CATEGORY_RELATIONSHIP('','',#1812,#1813);
#1815=SECURITY_CLASSIFICATION_LEVEL('unclassified');
#1816=SECURITY_CLASSIFICATION('','',#1815);
#1817=CC_DESIGN_SECURITY_CLASSIFICATION(#1816,(#170,#356,#388,#1170,#1780,#1807,
#177,#360,#393,#1174,#1784));
#1818=APPROVAL_STATUS('approved');
#1819=APPROVAL(#1818,'');
#1820=CC_DESIGN_APPROVAL(#1819,(#1816,#170,#356,#388,#1170,#1780,#1807,#171,
#357,#389,#1171,#1781,#1808));
#1821=CALENDAR_DATE(122,19,2);
#1822=COORDINATED_UNIVERSAL_TIME_OFFSET(8,0,.AHEAD.);
#1823=LOCAL_TIME(14,27,0.E0,#1822);
#1824=DATE_AND_TIME(#1821,#1823);
#1825=APPROVAL_DATE_TIME(#1824,#1819);
#1826=DATE_TIME_ROLE('creation_date');
#1827=CC_DESIGN_DATE_AND_TIME_ASSIGNMENT(#1824,#1826,(#171,#357,#389,#1171,
#1781,#1808));
#1828=DATE_TIME_ROLE('classification_date');
#1829=CC_DESIGN_DATE_AND_TIME_ASSIGNMENT(#1824,#1828,(#1816));
#1830=PERSON('UNSPECIFIED','UNSPECIFIED',$,$,$,$);
#1831=ORGANIZATION('UNSPECIFIED','UNSPECIFIED','UNSPECIFIED');
#1832=PERSON_AND_ORGANIZATION(#1830,#1831);
#1833=APPROVAL_ROLE('approver');
#1834=APPROVAL_PERSON_ORGANIZATION(#1832,#1819,#1833);
#1835=PERSON_AND_ORGANIZATION_ROLE('creator');
#1836=CC_DESIGN_PERSON_AND_ORGANIZATION_ASSIGNMENT(#1832,#1835,(#170,#356,#388,
#1170,#1780,#1807,#171,#357,#389,#1171,#1781,#1808));
#1837=PERSON_AND_ORGANIZATION_ROLE('design_supplier');
#1838=CC_DESIGN_PERSON_AND_ORGANIZATION_ASSIGNMENT(#1832,#1837,(#170,#356,#388,
#1170,#1780,#1807));
#1839=PERSON_AND_ORGANIZATION_ROLE('classification_officer');
#1840=CC_DESIGN_PERSON_AND_ORGANIZATION_ASSIGNMENT(#1832,#1839,(#1816));
#1841=PERSON_AND_ORGANIZATION_ROLE('design_owner');
#1842=CC_DESIGN_PERSON_AND_ORGANIZATION_ASSIGNMENT(#1832,#1841,(#387,#1806,#169,
#355,#1169,#1779));
#71=EDGE_CURVE('',#59,#57,#5,.T.);
#73=EDGE_CURVE('',#65,#59,#9,.T.);
#75=EDGE_CURVE('',#55,#65,#13,.T.);
#77=EDGE_CURVE('',#57,#55,#17,.T.);
#87=EDGE_CURVE('',#53,#63,#37,.T.);
#89=EDGE_CURVE('',#59,#63,#21,.T.);
#92=EDGE_CURVE('',#57,#53,#41,.T.);
#102=EDGE_CURVE('',#52,#53,#25,.T.);
#104=EDGE_CURVE('',#61,#52,#29,.T.);
#106=EDGE_CURVE('',#63,#61,#33,.T.);
#120=EDGE_CURVE('',#55,#52,#45,.T.);
#133=EDGE_CURVE('',#61,#65,#49,.T.);
#150=CLOSED_SHELL('',(#81,#96,#111,#124,#137,#149));
#151=MANIFOLD_SOLID_BREP('',#150);
#152=(LENGTH_UNIT()NAMED_UNIT(*)SI_UNIT(.MILLI.,.METRE.));
#154=(NAMED_UNIT(*)PLANE_ANGLE_UNIT()SI_UNIT($,.RADIAN.));
#157=(NAMED_UNIT(*)SI_UNIT($,.STERADIAN.)SOLID_ANGLE_UNIT());
#163=AXIS2_PLACEMENT_3D('',#160,#161,#162);
#164=ADVANCED_BREP_SHAPE_REPRESENTATION('',(#163,#151),#159);
#171=PRODUCT_DEFINITION('design','',#170,#167);
#172=PRODUCT_DEFINITION_SHAPE('','SHAPE FOR IMPORTED1-14096_1.',#171);
#173=SHAPE_DEFINITION_REPRESENTATION(#172,#164);
#174=SHAPE_DEFINITION_REPRESENTATION(#175,#176);
#175=PRODUCT_DEFINITION_SHAPE('',
'SHAPE FOR _X2_041D043E0436043A0438_X0___2_ASM.',#389);
#176=SHAPE_REPRESENTATION('',(#187,#182,#370,#365,#384),#380);
#177=NEXT_ASSEMBLY_USAGE_OCCURRENCE('0','Next assembly relationship',
'IMPORTED1-14096_1',#389,#171,$);
#178=PRODUCT_DEFINITION_SHAPE('Placement #0',
'Placement of IMPORTED1-14096_1 with respect to _X2_041D043E0436043A0438_X0___2_ASM',#177);
#187=AXIS2_PLACEMENT_3D('',#184,#185,#186);
#260=EDGE_CURVE('',#252,#241,#194,.T.);
#262=EDGE_CURVE('',#252,#254,#230,.T.);
#264=EDGE_CURVE('',#254,#244,#206,.T.);
#266=EDGE_CURVE('',#244,#241,#202,.T.);
#276=EDGE_CURVE('',#241,#242,#198,.T.);
#278=EDGE_CURVE('',#242,#248,#234,.T.);
#280=EDGE_CURVE('',#248,#252,#222,.T.);
#293=EDGE_CURVE('',#244,#250,#218,.T.);
#295=EDGE_CURVE('',#250,#242,#238,.T.);
#306=EDGE_CURVE('',#247,#254,#210,.T.);
#308=EDGE_CURVE('',#250,#247,#214,.T.);
#320=EDGE_CURVE('',#247,#248,#226,.T.);
#339=CLOSED_SHELL('',(#270,#285,#299,#313,#326,#338));
#340=MANIFOLD_SOLID_BREP('',#339);
#341=(LENGTH_UNIT()NAMED_UNIT(*)SI_UNIT(.MILLI.,.METRE.));
#343=(NAMED_UNIT(*)PLANE_ANGLE_UNIT()SI_UNIT($,.RADIAN.));
#346=(NAMED_UNIT(*)SI_UNIT($,.STERADIAN.)SOLID_ANGLE_UNIT());
#352=AXIS2_PLACEMENT_3D('',#349,#350,#351);
#353=ADVANCED_BREP_SHAPE_REPRESENTATION('',(#352,#340),#348);
#357=PRODUCT_DEFINITION('design','',#356,#167);
#358=PRODUCT_DEFINITION_SHAPE('','SHAPE FOR IMPORTED2-14098_1.',#357);
#359=SHAPE_DEFINITION_REPRESENTATION(#358,#353);
#360=NEXT_ASSEMBLY_USAGE_OCCURRENCE('1','Next assembly relationship',
'IMPORTED2-14098_1',#389,#357,$);
#361=PRODUCT_DEFINITION_SHAPE('Placement #1',
'Placement of IMPORTED2-14098_1 with respect to _X2_041D043E0436043A0438_X0___2_ASM',#360);
#370=AXIS2_PLACEMENT_3D('',#367,#368,#369);
#373=(LENGTH_UNIT()NAMED_UNIT(*)SI_UNIT(.MILLI.,.METRE.));
#375=(NAMED_UNIT(*)PLANE_ANGLE_UNIT()SI_UNIT($,.RADIAN.));
#378=(NAMED_UNIT(*)SI_UNIT($,.STERADIAN.)SOLID_ANGLE_UNIT());
#384=AXIS2_PLACEMENT_3D('',#381,#382,#383);
#389=PRODUCT_DEFINITION('design','',#388,#385);
#390=SHAPE_DEFINITION_REPRESENTATION(#391,#392);
#391=PRODUCT_DEFINITION_SHAPE('',
'SHAPE FOR USER_LIBRARY-CAP_SMD_SVP_6_3X_2_ASM.',#1808);
#392=SHAPE_REPRESENTATION('',(#398,#1179,#1789,#1804),#1800);
#393=NEXT_ASSEMBLY_USAGE_OCCURRENCE('2','Next assembly relationship',
'_X2_041D043E0436043A0438_X0___2',#1808,#389,$);
#394=PRODUCT_DEFINITION_SHAPE('Placement #2',
'Placement of _X2_041D043E0436043A0438_X0___2_ASM with respect to USER_LIBRARY-CAP_SMD_SVP_6_3X_2_ASM',#393);
#543=CIRCLE('',#542,3.465E0);
#552=CIRCLE('',#551,3.465E0);
#561=CIRCLE('',#560,3.465E0);
#566=CIRCLE('',#565,3.465E0);
#583=CIRCLE('',#582,3.465E0);
#604=CIRCLE('',#603,3.465E0);
#625=CIRCLE('',#624,3.465E0);
#658=CIRCLE('',#657,3.465E0);
#768=EDGE_CURVE('',#743,#758,#406,.T.);
#770=EDGE_CURVE('',#737,#743,#410,.T.);
#772=EDGE_CURVE('',#737,#738,#462,.T.);
#774=EDGE_CURVE('',#758,#738,#414,.T.);
#784=EDGE_CURVE('',#715,#744,#426,.T.);
#786=EDGE_CURVE('',#743,#744,#418,.T.);
#789=EDGE_CURVE('',#758,#715,#674,.T.);
#799=EDGE_CURVE('',#716,#725,#454,.T.);
#801=EDGE_CURVE('',#744,#725,#422,.T.);
#804=EDGE_CURVE('',#715,#716,#670,.T.);
#814=EDGE_CURVE('',#692,#720,#430,.T.);
#816=EDGE_CURVE('',#748,#692,#434,.T.);
#818=EDGE_CURVE('',#704,#748,#438,.T.);
#820=EDGE_CURVE('',#703,#704,#442,.T.);
#822=EDGE_CURVE('',#726,#703,#446,.T.);
#824=EDGE_CURVE('',#725,#726,#450,.T.);
#827=EDGE_CURVE('',#738,#716,#458,.T.);
#830=EDGE_CURVE('',#730,#737,#466,.T.);
#832=EDGE_CURVE('',#708,#730,#470,.T.);
#834=EDGE_CURVE('',#707,#708,#474,.T.);
#836=EDGE_CURVE('',#698,#707,#478,.T.);
#838=EDGE_CURVE('',#720,#698,#482,.T.);
#848=EDGE_CURVE('',#691,#692,#502,.T.);
#851=EDGE_CURVE('',#685,#720,#486,.T.);
#853=EDGE_CURVE('',#691,#685,#490,.T.);
#863=EDGE_CURVE('',#688,#691,#494,.T.);
#865=EDGE_CURVE('',#748,#688,#498,.T.);
#877=EDGE_CURVE('',#685,#686,#514,.T.);
#879=EDGE_CURVE('',#688,#686,#506,.T.);
#892=EDGE_CURVE('',#686,#698,#510,.T.);
#906=EDGE_CURVE('',#707,#754,#522,.T.);
#908=EDGE_CURVE('',#754,#722,#662,.T.);
#910=EDGE_CURVE('',#722,#718,#645,.T.);
#912=EDGE_CURVE('',#695,#718,#518,.T.);
#914=EDGE_CURVE('',#695,#740,#616,.T.);
#916=EDGE_CURVE('',#740,#712,#620,.T.);
#918=EDGE_CURVE('',#712,#704,#637,.T.);
#932=EDGE_CURVE('',#708,#728,#526,.T.);
#934=EDGE_CURVE('',#728,#754,#666,.T.);
#946=EDGE_CURVE('',#730,#678,#530,.T.);
#948=EDGE_CURVE('',#678,#756,#587,.T.);
#950=EDGE_CURVE('',#756,#733,#570,.T.);
#952=EDGE_CURVE('',#733,#734,#538,.T.);
#954=EDGE_CURVE('',#734,#752,#649,.T.);
#956=EDGE_CURVE('',#752,#728,#653,.T.);
#967=EDGE_CURVE('',#726,#746,#534,.T.);
#969=EDGE_CURVE('',#746,#700,#608,.T.);
#971=EDGE_CURVE('',#700,#762,#595,.T.);
#973=EDGE_CURVE('',#762,#750,#547,.T.);
#975=EDGE_CURVE('',#750,#677,#574,.T.);
#977=EDGE_CURVE('',#677,#678,#578,.T.);
#993=EDGE_CURVE('',#696,#681,#556,.T.);
#995=EDGE_CURVE('',#681,#682,#591,.T.);
#997=EDGE_CURVE('',#682,#746,#599,.T.);
#1001=EDGE_CURVE('',#703,#710,#641,.T.);
#1003=EDGE_CURVE('',#710,#760,#629,.T.);
#1005=EDGE_CURVE('',#760,#696,#612,.T.);
#1016=EDGE_CURVE('',#750,#733,#543,.T.);
#1019=EDGE_CURVE('',#681,#762,#552,.T.);
#1022=EDGE_CURVE('',#695,#696,#561,.T.);
#1025=EDGE_CURVE('',#734,#718,#566,.T.);
#1037=EDGE_CURVE('',#756,#677,#583,.T.);
#1059=EDGE_CURVE('',#700,#682,#604,.T.);
#1084=EDGE_CURVE('',#760,#740,#625,.T.);
#1099=EDGE_CURVE('',#712,#710,#633,.T.);
#1122=EDGE_CURVE('',#722,#752,#658,.T.);
#1153=CLOSED_SHELL('',(#778,#793,#808,#842,#857,#871,#885,#898,#925,#939,#961,
#987,#1009,#1029,#1042,#1053,#1066,#1077,#1090,#1103,#1115,#1128,#1140,#1152));
#1154=MANIFOLD_SOLID_BREP('',#1153);
#1155=(LENGTH_UNIT()NAMED_UNIT(*)SI_UNIT(.MILLI.,.METRE.));
#1157=(NAMED_UNIT(*)PLANE_ANGLE_UNIT()SI_UNIT($,.RADIAN.));
#1160=(NAMED_UNIT(*)SI_UNIT($,.STERADIAN.)SOLID_ANGLE_UNIT());
#1166=AXIS2_PLACEMENT_3D('',#1163,#1164,#1165);
#1167=ADVANCED_BREP_SHAPE_REPRESENTATION('',(#1166,#1154),#1162);
#1171=PRODUCT_DEFINITION('design','',#1170,#385);
#1172=PRODUCT_DEFINITION_SHAPE('','SHAPE FOR _X2_041F043E0434043B043E04360_2.',
#1171);
#1173=SHAPE_DEFINITION_REPRESENTATION(#1172,#1167);
#1174=NEXT_ASSEMBLY_USAGE_OCCURRENCE('3','Next assembly relationship',
'_X2_041F043E0434043B043E04360_2',#1808,#1171,$);
#1175=PRODUCT_DEFINITION_SHAPE('Placement #3',
'Placement of _X2_041F043E0434043B043E04360_2 with respect to USER_LIBRARY-CAP_SMD_SVP_6_3X_2_ASM',#1174);
#1188=CIRCLE('',#1187,3.15E0);
#1193=CIRCLE('',#1192,2.E-1);
#1198=CIRCLE('',#1197,2.95E0);
#1203=CIRCLE('',#1202,2.95E0);
#1212=CIRCLE('',#1211,2.95E0);
#1221=CIRCLE('',#1220,2.E-1);
#1226=CIRCLE('',#1225,3.15E0);
#1239=CIRCLE('',#1238,3.15E-1);
#1244=CIRCLE('',#1243,3.15E0);
#1249=CIRCLE('',#1248,3.15E0);
#1254=CIRCLE('',#1253,3.15E-1);
#1259=CIRCLE('',#1258,1.89E-1);
#1264=CIRCLE('',#1263,3.105732839589E0);
#1269=CIRCLE('',#1268,3.105732839589E0);
#1274=CIRCLE('',#1273,1.89E-1);
#1279=CIRCLE('',#1278,3.105732839589E0);
#1284=CIRCLE('',#1283,1.89E-1);
#1289=CIRCLE('',#1288,1.89E-1);
#1294=CIRCLE('',#1293,3.105732839589E0);
#1299=CIRCLE('',#1298,3.15E-1);
#1304=CIRCLE('',#1303,3.15E0);
#1309=CIRCLE('',#1308,3.15E0);
#1314=CIRCLE('',#1313,3.15E-1);
#1327=CIRCLE('',#1326,2.E-1);
#1332=CIRCLE('',#1331,3.15E0);
#1337=CIRCLE('',#1336,2.E-1);
#1342=CIRCLE('',#1341,3.15E0);
#1347=CIRCLE('',#1346,2.95E0);
#1352=CIRCLE('',#1351,2.95E0);
#1357=CIRCLE('',#1356,2.95E0);
#1362=CIRCLE('',#1361,2.95E0);
#1379=CIRCLE('',#1378,2.9E0);
#1384=CIRCLE('',#1383,2.9E0);
#1454=EDGE_CURVE('',#1444,#1443,#1188,.T.);
#1456=EDGE_CURVE('',#1424,#1444,#1234,.T.);
#1458=EDGE_CURVE('',#1424,#1400,#1249,.T.);
#1460=EDGE_CURVE('',#1443,#1400,#1230,.T.);
#1470=EDGE_CURVE('',#1448,#1439,#1198,.T.);
#1472=EDGE_CURVE('',#1446,#1448,#1362,.T.);
#1474=EDGE_CURVE('',#1444,#1446,#1193,.T.);
#1477=EDGE_CURVE('',#1443,#1439,#1221,.T.);
#1488=EDGE_CURVE('',#1439,#1440,#1203,.T.);
#1490=EDGE_CURVE('',#1427,#1440,#1207,.T.);
#1492=EDGE_CURVE('',#1427,#1428,#1212,.T.);
#1494=EDGE_CURVE('',#1448,#1428,#1216,.T.);
#1506=EDGE_CURVE('',#1443,#1444,#1226,.T.);
#1509=EDGE_CURVE('',#1440,#1446,#1357,.T.);
#1521=EDGE_CURVE('',#1400,#1424,#1244,.T.);
#1532=EDGE_CURVE('',#1399,#1400,#1239,.T.);
#1534=EDGE_CURVE('',#1399,#1404,#1279,.T.);
#1536=EDGE_CURVE('',#1404,#1424,#1254,.T.);
#1549=EDGE_CURVE('',#1404,#1399,#1269,.T.);
#1560=EDGE_CURVE('',#1406,#1403,#1259,.T.);
#1562=EDGE_CURVE('',#1418,#1406,#1264,.T.);
#1564=EDGE_CURVE('',#1418,#1416,#1289,.T.);
#1566=EDGE_CURVE('',#1416,#1399,#1284,.T.);
#1569=EDGE_CURVE('',#1403,#1404,#1274,.T.);
#1582=EDGE_CURVE('',#1406,#1418,#1294,.T.);
#1594=EDGE_CURVE('',#1406,#1414,#1299,.T.);
#1597=EDGE_CURVE('',#1418,#1422,#1314,.T.);
#1599=EDGE_CURVE('',#1414,#1422,#1304,.T.);
#1609=EDGE_CURVE('',#1422,#1414,#1309,.T.);
#1622=EDGE_CURVE('',#1422,#1409,#1318,.T.);
#1625=EDGE_CURVE('',#1414,#1410,#1322,.T.);
#1627=EDGE_CURVE('',#1410,#1409,#1342,.T.);
#1637=EDGE_CURVE('',#1409,#1410,#1332,.T.);
#1650=EDGE_CURVE('',#1410,#1412,#1327,.T.);
#1653=EDGE_CURVE('',#1409,#1420,#1337,.T.);
#1655=EDGE_CURVE('',#1420,#1412,#1352,.T.);
#1665=EDGE_CURVE('',#1412,#1420,#1347,.T.);
#1690=EDGE_CURVE('',#1448,#1440,#1366,.T.);
#1703=EDGE_CURVE('',#1427,#1428,#1370,.T.);
#1717=EDGE_CURVE('',#1435,#1436,#1384,.T.);
#1719=EDGE_CURVE('',#1435,#1436,#1374,.T.);
#1729=EDGE_CURVE('',#1432,#1431,#1379,.T.);
#1731=EDGE_CURVE('',#1435,#1431,#1396,.T.);
#1734=EDGE_CURVE('',#1436,#1432,#1388,.T.);
#1745=EDGE_CURVE('',#1431,#1432,#1392,.T.);
#1762=CLOSED_SHELL('',(#1464,#1481,#1498,#1513,#1526,#1541,#1554,#1573,#1588,
#1603,#1616,#1631,#1644,#1659,#1672,#1682,#1694,#1707,#1723,#1738,#1749,#1761));
#1763=MANIFOLD_SOLID_BREP('',#1762);
#1764=(LENGTH_UNIT()NAMED_UNIT(*)SI_UNIT(.MILLI.,.METRE.));
#1766=(NAMED_UNIT(*)PLANE_ANGLE_UNIT()SI_UNIT($,.RADIAN.));
#1769=(NAMED_UNIT(*)SI_UNIT($,.STERADIAN.)SOLID_ANGLE_UNIT());
#1775=AXIS2_PLACEMENT_3D('',#1772,#1773,#1774);
#1776=ADVANCED_BREP_SHAPE_REPRESENTATION('',(#1775,#1763),#1771);
#1781=PRODUCT_DEFINITION('design','',#1780,#1777);
#1782=PRODUCT_DEFINITION_SHAPE('','SHAPE FOR _X2_041A043E0440043F04430441__2.',
#1781);
#1783=SHAPE_DEFINITION_REPRESENTATION(#1782,#1776);
#1784=NEXT_ASSEMBLY_USAGE_OCCURRENCE('4','Next assembly relationship',
'_X2_041A043E0440043F04430441__2',#1808,#1781,$);
#1785=PRODUCT_DEFINITION_SHAPE('Placement #4',
'Placement of _X2_041A043E0440043F04430441__2 with respect to USER_LIBRARY-CAP_SMD_SVP_6_3X_2_ASM',#1784);
#1793=(LENGTH_UNIT()NAMED_UNIT(*)SI_UNIT(.MILLI.,.METRE.));
#1795=(NAMED_UNIT(*)PLANE_ANGLE_UNIT()SI_UNIT($,.RADIAN.));
#1798=(NAMED_UNIT(*)SI_UNIT($,.STERADIAN.)SOLID_ANGLE_UNIT());
#1804=AXIS2_PLACEMENT_3D('',#1801,#1802,#1803);
#1808=PRODUCT_DEFINITION('design','',#1807,#1777);
ENDSEC;
END-ISO-10303-21;
