ISO-10303-21;
HEADER;
FILE_DESCRIPTION (( 'STEP AP214' ),
    '1' );
FILE_NAME ('User Library-Electric capacity 8x12.STEP',
    '2021-01-23T02:35:25',
    ( '' ),
    ( '' ),
    'SwSTEP 2.0',
    'SolidWorks 2020',
    '' );
FILE_SCHEMA (( 'AUTOMOTIVE_DESIGN' ));
ENDSEC;

DATA;
#1 = CIRCLE ( 'NONE', #414, 0.2500000000000000000 ) ;
#2 = FILL_AREA_STYLE_COLOUR ( '', #20 ) ;
#3 = FILL_AREA_STYLE ('',( #408 ) ) ;
#4 = CARTESIAN_POINT ( 'NONE',  ( 4.898587196589412829E-16, 9.546114431223463370, 4.000000000000000000 ) ) ;
#5 = UNCERTAINTY_MEASURE_WITH_UNIT (LENGTH_MEASURE( 1.000000000000000082E-05 ), #569, 'distance_accuracy_value', 'NONE');
#6 = CARTESIAN_POINT ( 'NONE',  ( -9.289909079855192046E-16, 4.516154061397947204E-16, 3.792893218813452538 ) ) ;
#7 = SURFACE_STYLE_FILL_AREA ( #590 ) ;
#8 = DIRECTION ( 'NONE',  ( -0.0000000000000000000, -1.000000000000000000, -0.0000000000000000000 ) ) ;
#9 = CIRCLE ( 'NONE', #48, 0.2500000000000004441 ) ;
#10 = CIRCLE ( 'NONE', #533, 0.2500000000000004441 ) ;
#11 = CARTESIAN_POINT ( 'NONE',  ( -9.797174393178825657E-16, 0.5000000000000004441, 4.000000000000000000 ) ) ;
#12 =( GEOMETRIC_REPRESENTATION_CONTEXT ( 3 ) GLOBAL_UNCERTAINTY_ASSIGNED_CONTEXT ( ( #25 ) ) GLOBAL_UNIT_ASSIGNED_CONTEXT ( ( #379, #322, #367 ) ) REPRESENTATION_CONTEXT ( 'NONE', 'WORKASPACE' ) );
#13 =( BOUNDED_CURVE ( )  B_SPLINE_CURVE ( 3, ( #43, #450, #693, #758 ),
 .UNSPECIFIED., .F., .T. ) 
 B_SPLINE_CURVE_WITH_KNOTS ( ( 4, 4 ),
 ( 0.0000000000000000000, 1.000000000000000000 ),
 .UNSPECIFIED. ) 
 CURVE ( )  GEOMETRIC_REPRESENTATION_ITEM ( )  RATIONAL_B_SPLINE_CURVE ( ( 1.000000000000000000, 0.8934595803154377069, 0.8934595803154377069, 1.000000000000000000 ) ) 
 REPRESENTATION_ITEM ( '' )  );
#14 = DIRECTION ( 'NONE',  ( -0.0000000000000000000, -1.000000000000000000, -0.0000000000000000000 ) ) ;
#15 = SURFACE_STYLE_FILL_AREA ( #3 ) ;
#16 = CARTESIAN_POINT ( 'NONE',  ( 7.142348754983518511, 9.798747815758142465, 3.571174377491758811 ) ) ;
#17 = LINE ( 'NONE', #129, #446 ) ;
#18 = AXIS2_PLACEMENT_3D ( 'NONE', #206, #695, #515 ) ;
#19 = DIRECTION ( 'NONE',  ( 0.0000000000000000000, 1.000000000000000000, 0.0000000000000000000 ) ) ;
#20 = COLOUR_RGB ( '',0.0000000000000000000, 0.7215686274509803821, 0.0000000000000000000 ) ;
#21 = VERTEX_POINT ( 'NONE', #652 ) ;
#22 = DIRECTION ( 'NONE',  ( 0.0000000000000000000, 0.0000000000000000000, -1.000000000000000000 ) ) ;
#23 = DIRECTION ( 'NONE',  ( 0.0000000000000000000, 0.0000000000000000000, 1.000000000000000000 ) ) ;
#24 = CARTESIAN_POINT ( 'NONE',  ( 0.0000000000000000000, 0.2071067811865479336, 4.000000000000000000 ) ) ;
#25 = UNCERTAINTY_MEASURE_WITH_UNIT (LENGTH_MEASURE( 1.000000000000000082E-05 ), #379, 'distance_accuracy_value', 'NONE');
#26 = SURFACE_STYLE_FILL_AREA ( #717 ) ;
#27 = ORIENTED_EDGE ( 'NONE', *, *, #85, .F. ) ;
#28 = DIRECTION ( 'NONE',  ( -0.0000000000000000000, -1.000000000000000000, -0.0000000000000000000 ) ) ;
#29 = EDGE_CURVE ( 'NONE', #588, #474, #238, .T. ) ;
#30 = CARTESIAN_POINT ( 'NONE',  ( 6.110095881941418616E-15, 12.00000000000000000, 1.750000000000000000 ) ) ;
#31 = CARTESIAN_POINT ( 'NONE',  ( 2.821339560341996844, 4.336808689942017736E-16, 3.500000000000000000 ) ) ;
#32 = CARTESIAN_POINT ( 'NONE',  ( 0.0000000000000000000, 12.00000000000000000, 0.0000000000000000000 ) ) ;
#33 = CARTESIAN_POINT ( 'NONE',  ( 7.999999999999998224, 0.2071067811865479336, -3.999999999999999112 ) ) ;
#34 = SURFACE_SIDE_STYLE ('',( #697 ) ) ;
#35 = FILL_AREA_STYLE_COLOUR ( '', #606 ) ;
#36 = CIRCLE ( 'NONE', #675, 4.000000000000000000 ) ;
#37 = CARTESIAN_POINT ( 'NONE',  ( 7.000000000000000000, 12.00000000000000178, -3.499999999999999112 ) ) ;
#38 = PRESENTATION_LAYER_ASSIGNMENT (  '', '', ( #704 ) ) ;
#39 = CARTESIAN_POINT ( 'NONE',  ( 6.110095881941418616E-15, 14.50000000000000000, 1.750000000000000000 ) ) ;
#40 = ADVANCED_FACE ( 'NONE', ( #713 ), #666, .T. ) ;
#41 = VERTEX_POINT ( 'NONE', #762 ) ;
#42 = CARTESIAN_POINT ( 'NONE',  ( 4.286263797015736595E-16, 11.50000000000000000, -3.500000000000000000 ) ) ;
#43 = CARTESIAN_POINT ( 'NONE',  ( 4.408728476930472137E-16, 2.602085213965210642E-16, -3.500000000000000444 ) ) ;
#44 = EDGE_CURVE ( 'NONE', #213, #588, #750, .T. ) ;
#45 = EDGE_LOOP ( 'NONE', ( #27, #438, #52, #536 ) ) ;
#46 =( NAMED_UNIT ( * ) PLANE_ANGLE_UNIT ( ) SI_UNIT ( $, .RADIAN. ) );
#47 = ORIENTED_EDGE ( 'NONE', *, *, #712, .F. ) ;
#48 = AXIS2_PLACEMENT_3D ( 'NONE', #39, #377, #152 ) ;
#49 = SURFACE_SIDE_STYLE ('',( #457 ) ) ;
#50 = ADVANCED_FACE ( 'NONE', ( #115 ), #67, .T. ) ;
#51 = CARTESIAN_POINT ( 'NONE',  ( -6.071532165918824830E-15, 12.00000000000000000, -1.750000000000000000 ) ) ;
#52 = ORIENTED_EDGE ( 'NONE', *, *, #207, .F. ) ;
#53 = SURFACE_STYLE_USAGE ( .BOTH. , #49 ) ;
#54 = EDGE_CURVE ( 'NONE', #474, #428, #17, .T. ) ;
#55 = PRESENTATION_STYLE_ASSIGNMENT (( #282 ) ) ;
#56 = FILL_AREA_STYLE ('',( #699 ) ) ;
#57 = SURFACE_SIDE_STYLE ('',( #331 ) ) ;
#58 = CIRCLE ( 'NONE', #18, 4.000000000000000000 ) ;
#59 = PRESENTATION_STYLE_ASSIGNMENT (( #53 ) ) ;
#60 = MECHANICAL_DESIGN_GEOMETRIC_PRESENTATION_REPRESENTATION (  '', ( #71 ), #309 ) ;
#61 = COLOUR_RGB ( '',0.0000000000000000000, 0.7215686274509803821, 0.0000000000000000000 ) ;
#62 = DIRECTION ( 'NONE',  ( 0.0000000000000000000, 0.0000000000000000000, -1.000000000000000000 ) ) ;
#63 = ORIENTED_EDGE ( 'NONE', *, *, #85, .T. ) ;
#64 = ADVANCED_FACE ( 'NONE', ( #143 ), #493, .T. ) ;
#65 = CARTESIAN_POINT ( 'NONE',  ( 4.898587196589412829E-16, 11.50000000000000000, -4.000000000000000000 ) ) ;
#66 = FILL_AREA_STYLE ('',( #350 ) ) ;
#67 =( BOUNDED_SURFACE ( )  B_SPLINE_SURFACE ( 3, 3, ( 
 ( #140, #489, #721, #475 ),
 ( #235, #356, #361, #485 ),
 ( #656, #76, #295, #670 ),
 ( #370, #84, #548, #679 ) ),
 .UNSPECIFIED., .F., .F., .F. ) 
 B_SPLINE_SURFACE_WITH_KNOTS ( ( 4, 4 ),
 ( 4, 4 ),
 ( 0.0000000000000000000, 1.000000000000000000 ),
 ( 0.0000000000000000000, 1.000000000000000000 ),
 .UNSPECIFIED. ) 
 GEOMETRIC_REPRESENTATION_ITEM ( )  RATIONAL_B_SPLINE_SURFACE ( (
 ( 1.000000000000000000, 0.3333333333333334259, 0.3333333333333334259, 1.000000000000000000),
 ( 0.8047378541243649375, 0.2682459513747884050, 0.2682459513747884050, 0.8047378541243649375),
 ( 0.8047378541243649375, 0.2682459513747884050, 0.2682459513747884050, 0.8047378541243649375),
 ( 1.000000000000000000, 0.3333333333333334259, 0.3333333333333334259, 1.000000000000000000) ) ) 
 REPRESENTATION_ITEM ( '' )  SURFACE ( )  );
#68 = LINE ( 'NONE', #716, #257 ) ;
#69 = CIRCLE ( 'NONE', #402, 0.2500000000000004441 ) ;
#70 = CARTESIAN_POINT ( 'NONE',  ( -9.797174393178825657E-16, 11.79289321881344854, 4.000000000000000000 ) ) ;
#71 = STYLED_ITEM ( 'NONE', ( #270 ), #453 ) ;
#72 = COLOUR_RGB ( '',0.0000000000000000000, 0.7215686274509803821, 0.0000000000000000000 ) ;
#73 = CARTESIAN_POINT ( 'NONE',  ( 0.0000000000000000000, 12.00000000000000000, 3.500000000000000444 ) ) ;
#74 = MECHANICAL_DESIGN_GEOMETRIC_PRESENTATION_REPRESENTATION (  '', ( #313 ), #677 ) ;
#75 = CARTESIAN_POINT ( 'NONE',  ( 4.408728476930472137E-16, 2.602085213965210642E-16, -3.500000000000000444 ) ) ;
#76 = CARTESIAN_POINT ( 'NONE',  ( 7.999999999999998224, 11.79289321881345209, 4.000000000000000000 ) ) ;
#77 = DIRECTION ( 'NONE',  ( 0.0000000000000000000, 0.0000000000000000000, -1.000000000000000000 ) ) ;
#78 = FILL_AREA_STYLE ('',( #729 ) ) ;
#79 = ORIENTED_EDGE ( 'NONE', *, *, #500, .F. ) ;
#80 = COLOUR_RGB ( '',0.0000000000000000000, 0.7215686274509803821, 0.0000000000000000000 ) ;
#81 = LINE ( 'NONE', #491, #383 ) ;
#82 = CARTESIAN_POINT ( 'NONE',  ( 0.0000000000000000000, 2.602085213965210642E-16, 3.500000000000000444 ) ) ;
#83 =( GEOMETRIC_REPRESENTATION_CONTEXT ( 3 ) GLOBAL_UNCERTAINTY_ASSIGNED_CONTEXT ( ( #669 ) ) GLOBAL_UNIT_ASSIGNED_CONTEXT ( ( #227, #705, #531 ) ) REPRESENTATION_CONTEXT ( 'NONE', 'WORKASPACE' ) );
#84 = CARTESIAN_POINT ( 'NONE',  ( 7.999999999999999112, 11.50000000000000000, 4.000000000000000000 ) ) ;
#85 = EDGE_CURVE ( 'NONE', #755, #490, #700, .T. ) ;
#86 = EDGE_LOOP ( 'NONE', ( #702, #276, #182, #92 ) ) ;
#87 = CARTESIAN_POINT ( 'NONE',  ( -6.071532165918824830E-15, 12.00000000000000000, -1.750000000000000000 ) ) ;
#88 = CARTESIAN_POINT ( 'NONE',  ( 7.585786437626903300, 4.516154061397947204E-16, 3.792893218813452538 ) ) ;
#89 = DIRECTION ( 'NONE',  ( -0.0000000000000000000, -1.000000000000000000, -0.0000000000000000000 ) ) ;
#90 = LINE ( 'NONE', #364, #692 ) ;
#91 = FILL_AREA_STYLE_COLOUR ( '', #525 ) ;
#92 = ORIENTED_EDGE ( 'NONE', *, *, #29, .F. ) ;
#93 = FILL_AREA_STYLE ('',( #308 ) ) ;
#94 = CARTESIAN_POINT ( 'NONE',  ( -6.071532165918824830E-15, 14.50000000000000000, -2.000000000000000000 ) ) ;
#95 = FILL_AREA_STYLE ('',( #107 ) ) ;
#96 = ORIENTED_EDGE ( 'NONE', *, *, #455, .F. ) ;
#97 = AXIS2_PLACEMENT_3D ( 'NONE', #537, #19, #62 ) ;
#98 = DIRECTION ( 'NONE',  ( 1.000000000000000000, 0.0000000000000000000, 0.0000000000000000000 ) ) ;
#99 = CARTESIAN_POINT ( 'NONE',  ( 0.0000000000000000000, 0.0000000000000000000, 0.0000000000000000000 ) ) ;
#100 = CYLINDRICAL_SURFACE ( 'NONE', #352, 4.000000000000000000 ) ;
#101 = ORIENTED_EDGE ( 'NONE', *, *, #328, .T. ) ;
#102 = CARTESIAN_POINT ( 'NONE',  ( 4.898587196589412829E-16, 9.546114431223463370, 4.000000000000000000 ) ) ;
#103 = ORIENTED_EDGE ( 'NONE', *, *, #150, .T. ) ;
#104 = ADVANCED_FACE ( 'NONE', ( #232 ), #734, .T. ) ;
#105 = CARTESIAN_POINT ( 'NONE',  ( 4.373427270592324740E-16, 9.798747815758144242, 3.571174377491759699 ) ) ;
#106 =( GEOMETRIC_REPRESENTATION_CONTEXT ( 3 ) GLOBAL_UNCERTAINTY_ASSIGNED_CONTEXT ( ( #601 ) ) GLOBAL_UNIT_ASSIGNED_CONTEXT ( ( #484, #621, #201 ) ) REPRESENTATION_CONTEXT ( 'NONE', 'WORKASPACE' ) );
#107 = FILL_AREA_STYLE_COLOUR ( '', #469 ) ;
#108 = EDGE_LOOP ( 'NONE', ( #672, #707, #121, #572 ) ) ;
#109 =( NAMED_UNIT ( * ) PLANE_ANGLE_UNIT ( ) SI_UNIT ( $, .RADIAN. ) );
#110 = STYLED_ITEM ( 'NONE', ( #754 ), #263 ) ;
#111 = CIRCLE ( 'NONE', #196, 0.2500000000000000000 ) ;
#112 = ORIENTED_EDGE ( 'NONE', *, *, #150, .F. ) ;
#113 = CARTESIAN_POINT ( 'NONE',  ( -7.142348754983518511, 10.29645761222695910, -3.571174377491757923 ) ) ;
#114 = CARTESIAN_POINT ( 'NONE',  ( 7.999999999999999112, 10.54909099676163997, 3.999999999999999556 ) ) ;
#115 = FACE_OUTER_BOUND ( 'NONE', #247, .T. ) ;
#116 = CARTESIAN_POINT ( 'NONE',  ( -7.142348754983518511, 9.798747815758142465, -3.571174377491757923 ) ) ;
#117 = CARTESIAN_POINT ( 'NONE',  ( 0.0000000000000000000, 9.798747815758144242, -3.571174377491759699 ) ) ;
#118 = DIRECTION ( 'NONE',  ( 0.0000000000000000000, 0.0000000000000000000, -1.000000000000000000 ) ) ;
#119 = AXIS2_PLACEMENT_3D ( 'NONE', #185, #602, #730 ) ;
#120 = MECHANICAL_DESIGN_GEOMETRIC_PRESENTATION_REPRESENTATION (  '', ( #110 ), #546 ) ;
#121 = ORIENTED_EDGE ( 'NONE', *, *, #298, .T. ) ;
#122 = FILL_AREA_STYLE_COLOUR ( '', #752 ) ;
#123 = CYLINDRICAL_SURFACE ( 'NONE', #562, 4.000000000000000000 ) ;
#124 = CARTESIAN_POINT ( 'NONE',  ( 0.0000000000000000000, 9.546114431223463370, 0.0000000000000000000 ) ) ;
#125 =( LENGTH_UNIT ( ) NAMED_UNIT ( * ) SI_UNIT ( .MILLI., .METRE. ) );
#126 = ADVANCED_FACE ( 'NONE', ( #187 ), #135, .T. ) ;
#127 = DIRECTION ( 'NONE',  ( -0.0000000000000000000, -1.000000000000000000, -0.0000000000000000000 ) ) ;
#128 = AXIS2_PLACEMENT_3D ( 'NONE', #639, #217, #223 ) ;
#129 = CARTESIAN_POINT ( 'NONE',  ( 0.0000000000000000000, 12.00000000000000000, -4.000000000000000000 ) ) ;
#130 = ORIENTED_EDGE ( 'NONE', *, *, #712, .T. ) ;
#131 = ORIENTED_EDGE ( 'NONE', *, *, #671, .F. ) ;
#132 = CARTESIAN_POINT ( 'NONE',  ( 0.0000000000000000000, 11.50000000000000000, 0.0000000000000000000 ) ) ;
#133 = FACE_OUTER_BOUND ( 'NONE', #258, .T. ) ;
#134 = CARTESIAN_POINT ( 'NONE',  ( 7.585786437626903300, 4.516154061397947204E-16, -3.792893218813451650 ) ) ;
#135 = PLANE ( 'NONE',  #597 ) ;
#136 = VERTEX_POINT ( 'NONE', #193 ) ;
#137 =( GEOMETRIC_REPRESENTATION_CONTEXT ( 3 ) GLOBAL_UNCERTAINTY_ASSIGNED_CONTEXT ( ( #593 ) ) GLOBAL_UNIT_ASSIGNED_CONTEXT ( ( #481, #418, #429 ) ) REPRESENTATION_CONTEXT ( 'NONE', 'WORKASPACE' ) );
#138 = PRESENTATION_STYLE_ASSIGNMENT (( #244 ) ) ;
#139 = STYLED_ITEM ( 'NONE', ( #389 ), #170 ) ;
#140 = CARTESIAN_POINT ( 'NONE',  ( 0.0000000000000000000, 12.00000000000000000, 3.500000000000000000 ) ) ;
#141 = VECTOR ( 'NONE', #252, 1000.000000000000000 ) ;
#142 = MECHANICAL_DESIGN_GEOMETRIC_PRESENTATION_REPRESENTATION (  '', ( #369 ), #12 ) ;
#143 = FACE_OUTER_BOUND ( 'NONE', #505, .T. ) ;
#144 = DIRECTION ( 'NONE',  ( 0.0000000000000000000, -0.0000000000000000000, 1.000000000000000000 ) ) ;
#145 = CARTESIAN_POINT ( 'NONE',  ( 4.898587196589412829E-16, 12.00000000000000000, 4.000000000000000000 ) ) ;
#146 = CARTESIAN_POINT ( 'NONE',  ( 6.110095881941418616E-15, 12.00000000000000000, 1.750000000000000000 ) ) ;
#147 = VERTEX_POINT ( 'NONE', #73 ) ;
#148 = CARTESIAN_POINT ( 'NONE',  ( 6.110095881941418616E-15, 14.50000000000000000, 1.750000000000000000 ) ) ;
#149 = LINE ( 'NONE', #145, #544 ) ;
#150 = EDGE_CURVE ( 'NONE', #749, #477, #336, .T. ) ;
#151 =( BOUNDED_SURFACE ( )  B_SPLINE_SURFACE ( 3, 3, ( 
 ( #183, #401, #291, #478 ),
 ( #284, #594, #526, #530 ),
 ( #708, #228, #471, #70 ),
 ( #65, #169, #406, #650 ) ),
 .UNSPECIFIED., .F., .F., .F. ) 
 B_SPLINE_SURFACE_WITH_KNOTS ( ( 4, 4 ),
 ( 4, 4 ),
 ( 0.0000000000000000000, 1.000000000000000000 ),
 ( 0.0000000000000000000, 1.000000000000000000 ),
 .UNSPECIFIED. ) 
 GEOMETRIC_REPRESENTATION_ITEM ( )  RATIONAL_B_SPLINE_SURFACE ( (
 ( 1.000000000000000000, 0.3333333333333334259, 0.3333333333333334259, 1.000000000000000000),
 ( 0.8047378541243649375, 0.2682459513747884050, 0.2682459513747884050, 0.8047378541243649375),
 ( 0.8047378541243649375, 0.2682459513747884050, 0.2682459513747884050, 0.8047378541243649375),
 ( 1.000000000000000000, 0.3333333333333334259, 0.3333333333333334259, 1.000000000000000000) ) ) 
 REPRESENTATION_ITEM ( '' )  SURFACE ( )  );
#152 = DIRECTION ( 'NONE',  ( 0.0000000000000000000, 0.0000000000000000000, -1.000000000000000000 ) ) ;
#153 = ORIENTED_EDGE ( 'NONE', *, *, #706, .T. ) ;
#154 = CIRCLE ( 'NONE', #598, 0.5000000000000000000 ) ;
#155 = DIRECTION ( 'NONE',  ( 0.0000000000000000000, 0.0000000000000000000, -1.000000000000000000 ) ) ;
#156 = ADVANCED_FACE ( 'NONE', ( #209 ), #212, .T. ) ;
#157 = CARTESIAN_POINT ( 'NONE',  ( 6.140712051920102403E-15, 14.50000000000000000, 2.000000000000000444 ) ) ;
#158 = ORIENTED_EDGE ( 'NONE', *, *, #620, .F. ) ;
#159 = CARTESIAN_POINT ( 'NONE',  ( -7.999999999999999112, 9.546114431223463370, 4.000000000000000888 ) ) ;
#160 = EDGE_CURVE ( 'NONE', #21, #210, #9, .T. ) ;
#161 = ORIENTED_EDGE ( 'NONE', *, *, #292, .T. ) ;
#162 =( NAMED_UNIT ( * ) PLANE_ANGLE_UNIT ( ) SI_UNIT ( $, .RADIAN. ) );
#163 = ORIENTED_EDGE ( 'NONE', *, *, #587, .F. ) ;
#164 = CARTESIAN_POINT ( 'NONE',  ( 0.0000000000000000000, 9.546114431223463370, -4.000000000000000000 ) ) ;
#165 = EDGE_LOOP ( 'NONE', ( #576, #731, #464, #79 ) ) ;
#166 = CARTESIAN_POINT ( 'NONE',  ( -8.000000000000000000, 9.546114431223463370, -3.999999999999998224 ) ) ;
#167 = CARTESIAN_POINT ( 'NONE',  ( 4.898587196589412829E-16, 10.54909099676163997, 4.000000000000000000 ) ) ;
#168 = ORIENTED_EDGE ( 'NONE', *, *, #426, .T. ) ;
#169 = CARTESIAN_POINT ( 'NONE',  ( -7.999999999999999112, 11.50000000000000000, -4.000000000000000888 ) ) ;
#170 = ADVANCED_FACE ( 'NONE', ( #386 ), #100, .T. ) ;
#171 =( LENGTH_UNIT ( ) NAMED_UNIT ( * ) SI_UNIT ( .MILLI., .METRE. ) );
#172 = CARTESIAN_POINT ( 'NONE',  ( 4.286263797015736595E-16, 4.336808689942017736E-16, -3.500000000000000000 ) ) ;
#173 = DIRECTION ( 'NONE',  ( -0.0000000000000000000, -1.000000000000000000, -0.0000000000000000000 ) ) ;
#174 = MECHANICAL_DESIGN_GEOMETRIC_PRESENTATION_REPRESENTATION (  '', ( #312 ), #470 ) ;
#175 = COLOUR_RGB ( '',0.0000000000000000000, 0.7215686274509803821, 0.0000000000000000000 ) ;
#176 = ORIENTED_EDGE ( 'NONE', *, *, #407, .F. ) ;
#177 =( NAMED_UNIT ( * ) SI_UNIT ( $, .STERADIAN. ) SOLID_ANGLE_UNIT ( ) );
#178 = APPLICATION_CONTEXT ( 'automotive_design' ) ;
#179 = ORIENTED_EDGE ( 'NONE', *, *, #207, .T. ) ;
#180 = EDGE_CURVE ( 'NONE', #339, #213, #218, .T. ) ;
#181 = SURFACE_STYLE_USAGE ( .BOTH. , #604 ) ;
#182 = ORIENTED_EDGE ( 'NONE', *, *, #254, .T. ) ;
#183 = CARTESIAN_POINT ( 'NONE',  ( 4.286263797015736595E-16, 12.00000000000000000, -3.500000000000000000 ) ) ;
#184 = PRESENTATION_LAYER_ASSIGNMENT (  '', '', ( #110 ) ) ;
#185 = CARTESIAN_POINT ( 'NONE',  ( -6.071532165918824830E-15, 14.50000000000000000, -1.750000000000000000 ) ) ;
#186 = CARTESIAN_POINT ( 'NONE',  ( 0.0000000000000000000, 0.5000000000000004441, -4.000000000000000000 ) ) ;
#187 = FACE_OUTER_BOUND ( 'NONE', #745, .T. ) ;
#188 = SURFACE_SIDE_STYLE ('',( #439 ) ) ;
#189 = CARTESIAN_POINT ( 'NONE',  ( 4.408728476930471151E-16, 12.00000000000000000, -3.500000000000000444 ) ) ;
#190 = PRESENTATION_STYLE_ASSIGNMENT (( #560 ) ) ;
#191 = ORIENTED_EDGE ( 'NONE', *, *, #224, .F. ) ;
#192 =( NAMED_UNIT ( * ) PLANE_ANGLE_UNIT ( ) SI_UNIT ( $, .RADIAN. ) );
#193 = CARTESIAN_POINT ( 'NONE',  ( 4.898587196589412829E-16, 0.5000000000000004441, 4.000000000000000000 ) ) ;
#194 = EDGE_CURVE ( 'NONE', #411, #449, #1, .T. ) ;
#195 = STYLED_ITEM ( 'NONE', ( #59 ), #561 ) ;
#196 = AXIS2_PLACEMENT_3D ( 'NONE', #87, #681, #502 ) ;
#197 = ORIENTED_EDGE ( 'NONE', *, *, #725, .T. ) ;
#198 = VERTEX_POINT ( 'NONE', #556 ) ;
#199 = SURFACE_SIDE_STYLE ('',( #242 ) ) ;
#200 = DIRECTION ( 'NONE',  ( 1.224646799147352468E-16, 0.0000000000000000000, -1.000000000000000000 ) ) ;
#201 =( NAMED_UNIT ( * ) SI_UNIT ( $, .STERADIAN. ) SOLID_ANGLE_UNIT ( ) );
#202 =( LENGTH_UNIT ( ) NAMED_UNIT ( * ) SI_UNIT ( .MILLI., .METRE. ) );
#203 = ORIENTED_EDGE ( 'NONE', *, *, #194, .F. ) ;
#204 = ORIENTED_EDGE ( 'NONE', *, *, #318, .T. ) ;
#205 = AXIS2_PLACEMENT_3D ( 'NONE', #42, #737, #200 ) ;
#206 = CARTESIAN_POINT ( 'NONE',  ( 0.0000000000000000000, 9.546114431223463370, 0.0000000000000000000 ) ) ;
#207 = EDGE_CURVE ( 'NONE', #400, #456, #13, .T. ) ;
#208 = APPLICATION_PROTOCOL_DEFINITION ( 'draft international standard', 'automotive_design', 1998, #178 ) ;
#209 = FACE_OUTER_BOUND ( 'NONE', #165, .T. ) ;
#210 = VERTEX_POINT ( 'NONE', #157 ) ;
#211 = CARTESIAN_POINT ( 'NONE',  ( -8.000000000000000000, 10.54909099676163997, -3.999999999999998224 ) ) ;
#212 = CYLINDRICAL_SURFACE ( 'NONE', #543, 0.2500000000000004441 ) ;
#213 = VERTEX_POINT ( 'NONE', #454 ) ;
#214 = CARTESIAN_POINT ( 'NONE',  ( -7.142348754983516734, 10.29645761222695910, 3.571174377491761032 ) ) ;
#215 = APPLICATION_PROTOCOL_DEFINITION ( 'draft international standard', 'automotive_design', 1998, #528 ) ;
#216 = PRESENTATION_STYLE_ASSIGNMENT (( #582 ) ) ;
#217 = DIRECTION ( 'NONE',  ( -1.000000000000000000, 0.0000000000000000000, 1.224646799147353207E-16 ) ) ;
#218 = CIRCLE ( 'NONE', #657, 4.000000000000000000 ) ;
#219 = MECHANICAL_DESIGN_GEOMETRIC_PRESENTATION_REPRESENTATION (  '', ( #195 ), #354 ) ;
#220 = AXIS2_PLACEMENT_3D ( 'NONE', #696, #630, #452 ) ;
#221 = CARTESIAN_POINT ( 'NONE',  ( 7.999999999999999112, 10.54909099676163997, -4.000000000000000000 ) ) ;
#222 =( BOUNDED_CURVE ( )  B_SPLINE_CURVE ( 3, ( #373, #310, #545, #189 ),
 .UNSPECIFIED., .F., .T. ) 
 B_SPLINE_CURVE_WITH_KNOTS ( ( 4, 4 ),
 ( 0.0000000000000000000, 1.000000000000000000 ),
 .UNSPECIFIED. ) 
 CURVE ( )  GEOMETRIC_REPRESENTATION_ITEM ( )  RATIONAL_B_SPLINE_CURVE ( ( 1.000000000000000000, 0.3333333333333333703, 0.3333333333333333703, 1.000000000000000000 ) ) 
 REPRESENTATION_ITEM ( '' )  );
#223 = DIRECTION ( 'NONE',  ( 1.224646799147353947E-16, 0.0000000000000000000, 1.000000000000000000 ) ) ;
#224 = EDGE_CURVE ( 'NONE', #198, #339, #688, .T. ) ;
#225 = CARTESIAN_POINT ( 'NONE',  ( 3.189402371812183556, 1.734723475976807094E-16, -1.441427247792555377 ) ) ;
#226 = CARTESIAN_POINT ( 'NONE',  ( -7.585786437626901524, 4.516154061397947204E-16, -3.792893218813452538 ) ) ;
#227 =( LENGTH_UNIT ( ) NAMED_UNIT ( * ) SI_UNIT ( .MILLI., .METRE. ) );
#228 = CARTESIAN_POINT ( 'NONE',  ( -7.999999999999998224, 11.79289321881345209, -4.000000000000000888 ) ) ;
#229 = MECHANICAL_DESIGN_GEOMETRIC_PRESENTATION_REPRESENTATION (  '', ( #139 ), #634 ) ;
#230 = AXIS2_PLACEMENT_3D ( 'NONE', #584, #633, #268 ) ;
#231 = CARTESIAN_POINT ( 'NONE',  ( -7.999999999999998224, 0.2071067811865479336, -4.000000000000000888 ) ) ;
#232 = FACE_OUTER_BOUND ( 'NONE', #631, .T. ) ;
#233 =( LENGTH_UNIT ( ) NAMED_UNIT ( * ) SI_UNIT ( .MILLI., .METRE. ) );
#234 =( NAMED_UNIT ( * ) SI_UNIT ( $, .STERADIAN. ) SOLID_ANGLE_UNIT ( ) );
#235 = CARTESIAN_POINT ( 'NONE',  ( 0.0000000000000000000, 12.00000000000000000, 3.792893218813452538 ) ) ;
#236 = AXIS2_PLACEMENT_3D ( 'NONE', #567, #746, #289 ) ;
#237 = FILL_AREA_STYLE_COLOUR ( '', #61 ) ;
#238 = CIRCLE ( 'NONE', #722, 4.000000000000000000 ) ;
#239 = CARTESIAN_POINT ( 'NONE',  ( 0.0000000000000000000, 4.336808689942017736E-16, 3.500000000000000000 ) ) ;
#240 = AXIS2_PLACEMENT_3D ( 'NONE', #430, #440, #375 ) ;
#241 = ORIENTED_EDGE ( 'NONE', *, *, #349, .F. ) ;
#242 = SURFACE_STYLE_FILL_AREA ( #423 ) ;
#243 =( BOUNDED_SURFACE ( )  B_SPLINE_SURFACE ( 3, 3, ( 
 ( #555, #435, #260, #743 ),
 ( #24, #441, #33, #245 ),
 ( #488, #88, #134, #316 ),
 ( #239, #421, #365, #603 ) ),
 .UNSPECIFIED., .F., .F., .F. ) 
 B_SPLINE_SURFACE_WITH_KNOTS ( ( 4, 4 ),
 ( 4, 4 ),
 ( 0.0000000000000000000, 1.000000000000000000 ),
 ( 0.0000000000000000000, 1.000000000000000000 ),
 .UNSPECIFIED. ) 
 GEOMETRIC_REPRESENTATION_ITEM ( )  RATIONAL_B_SPLINE_SURFACE ( (
 ( 1.000000000000000000, 0.3333333333333334259, 0.3333333333333334259, 1.000000000000000000),
 ( 0.8047378541243649375, 0.2682459513747884050, 0.2682459513747884050, 0.8047378541243649375),
 ( 0.8047378541243649375, 0.2682459513747884050, 0.2682459513747884050, 0.8047378541243649375),
 ( 1.000000000000000000, 0.3333333333333334259, 0.3333333333333334259, 1.000000000000000000) ) ) 
 REPRESENTATION_ITEM ( '' )  SURFACE ( )  );
#244 = SURFACE_STYLE_USAGE ( .BOTH. , #315 ) ;
#245 = CARTESIAN_POINT ( 'NONE',  ( 4.898587196589412829E-16, 0.2071067811865479336, -4.000000000000000000 ) ) ;
#246 = PRESENTATION_STYLE_ASSIGNMENT (( #181 ) ) ;
#247 = EDGE_LOOP ( 'NONE', ( #636, #541, #405, #131 ) ) ;
#248 = CYLINDRICAL_SURFACE ( 'NONE', #736, 0.2500000000000000000 ) ;
#249 = DIRECTION ( 'NONE',  ( 0.0000000000000000000, 0.0000000000000000000, -1.000000000000000000 ) ) ;
#250 = VERTEX_POINT ( 'NONE', #512 ) ;
#251 = DIRECTION ( 'NONE',  ( -0.0000000000000000000, -1.000000000000000000, -0.0000000000000000000 ) ) ;
#252 = DIRECTION ( 'NONE',  ( -0.0000000000000000000, -1.000000000000000000, -0.0000000000000000000 ) ) ;
#253 = DIRECTION ( 'NONE',  ( 0.0000000000000000000, 0.0000000000000000000, -1.000000000000000000 ) ) ;
#254 = EDGE_CURVE ( 'NONE', #339, #474, #625, .T. ) ;
#255 = STYLED_ITEM ( 'NONE', ( #55 ), #40 ) ;
#256 = SURFACE_SIDE_STYLE ('',( #506 ) ) ;
#257 = VECTOR ( 'NONE', #8, 1000.000000000000000 ) ;
#258 = EDGE_LOOP ( 'NONE', ( #241, #204, #337, #203 ) ) ;
#259 = DIRECTION ( 'NONE',  ( 0.0000000000000000000, 1.000000000000000000, 0.0000000000000000000 ) ) ;
#260 = CARTESIAN_POINT ( 'NONE',  ( 7.999999999999999112, 0.5000000000000004441, -3.999999999999999556 ) ) ;
#261 = UNCERTAINTY_MEASURE_WITH_UNIT (LENGTH_MEASURE( 1.000000000000000082E-05 ), #410, 'distance_accuracy_value', 'NONE');
#262 = ORIENTED_EDGE ( 'NONE', *, *, #407, .T. ) ;
#263 = MANIFOLD_SOLID_BREP ( '°ü¸²2', #346 ) ;
#264 = DIRECTION ( 'NONE',  ( 0.0000000000000000000, 0.0000000000000000000, -1.000000000000000000 ) ) ;
#265 = DIRECTION ( 'NONE',  ( 0.0000000000000000000, 0.0000000000000000000, -1.000000000000000000 ) ) ;
#266 = VERTEX_POINT ( 'NONE', #586 ) ;
#267 = CARTESIAN_POINT ( 'NONE',  ( 4.898587196589412829E-16, 11.50000000000000000, 4.000000000000000000 ) ) ;
#268 = DIRECTION ( 'NONE',  ( 0.0000000000000000000, -0.0000000000000000000, 1.000000000000000000 ) ) ;
#269 = PRESENTATION_LAYER_ASSIGNMENT (  '', '', ( #507 ) ) ;
#270 = PRESENTATION_STYLE_ASSIGNMENT (( #581 ) ) ;
#271 = CARTESIAN_POINT ( 'NONE',  ( 0.0000000000000000000, 12.00000000000000000, -4.000000000000000000 ) ) ;
#272 = ORIENTED_EDGE ( 'NONE', *, *, #44, .T. ) ;
#273 = COLOUR_RGB ( '',0.2509803921568627416, 0.2509803921568627416, 0.2509803921568627416 ) ;
#274 = CARTESIAN_POINT ( 'NONE',  ( 4.898587196589412829E-16, 10.54909099676163997, 4.000000000000000000 ) ) ;
#275 = CARTESIAN_POINT ( 'NONE',  ( 0.0000000000000000000, 12.00000000000000000, 0.0000000000000000000 ) ) ;
#276 = ORIENTED_EDGE ( 'NONE', *, *, #180, .F. ) ;
#277 = CARTESIAN_POINT ( 'NONE',  ( -7.999999999999999112, 10.54909099676163997, 4.000000000000000888 ) ) ;
#278 = DIRECTION ( 'NONE',  ( 0.0000000000000000000, 0.0000000000000000000, 1.000000000000000000 ) ) ;
#279 = CARTESIAN_POINT ( 'NONE',  ( 4.644954539927596023E-16, 4.516154061397947204E-16, -3.792893218813452538 ) ) ;
#280 =( NAMED_UNIT ( * ) SI_UNIT ( $, .STERADIAN. ) SOLID_ANGLE_UNIT ( ) );
#281 =( NAMED_UNIT ( * ) PLANE_ANGLE_UNIT ( ) SI_UNIT ( $, .RADIAN. ) );
#282 = SURFACE_STYLE_USAGE ( .BOTH. , #293 ) ;
#283 = PRODUCT_RELATED_PRODUCT_CATEGORY ( 'part', '', ( #334 ) ) ;
#284 = CARTESIAN_POINT ( 'NONE',  ( 4.644954539927596023E-16, 12.00000000000000000, -3.792893218813452538 ) ) ;
#285 = CIRCLE ( 'NONE', #483, 0.2500000000000000000 ) ;
#286 = CARTESIAN_POINT ( 'NONE',  ( 4.373427270592324740E-16, 9.798747815758144242, 3.571174377491759699 ) ) ;
#287 = CARTESIAN_POINT ( 'NONE',  ( -7.999999999999999112, 0.5000000000000004441, -4.000000000000000888 ) ) ;
#288 = FACE_OUTER_BOUND ( 'NONE', #366, .T. ) ;
#289 = DIRECTION ( 'NONE',  ( 0.0000000000000000000, -0.0000000000000000000, 1.000000000000000000 ) ) ;
#290 = ORIENTED_EDGE ( 'NONE', *, *, #318, .F. ) ;
#291 = CARTESIAN_POINT ( 'NONE',  ( -6.999999999999998224, 12.00000000000000000, 3.499999999999997780 ) ) ;
#292 = EDGE_CURVE ( 'NONE', #490, #400, #600, .T. ) ;
#293 = SURFACE_SIDE_STYLE ('',( #345 ) ) ;
#294 = AXIS2_PLACEMENT_3D ( 'NONE', #132, #614, #22 ) ;
#295 = CARTESIAN_POINT ( 'NONE',  ( 7.999999999999998224, 11.79289321881345209, -3.999999999999999112 ) ) ;
#296 = SURFACE_SIDE_STYLE ('',( #7 ) ) ;
#297 = FACE_OUTER_BOUND ( 'NONE', #659, .T. ) ;
#298 = EDGE_CURVE ( 'NONE', #136, #428, #589, .T. ) ;
#299 = UNCERTAINTY_MEASURE_WITH_UNIT (LENGTH_MEASURE( 1.000000000000000082E-05 ), #359, 'distance_accuracy_value', 'NONE');
#300 = DIRECTION ( 'NONE',  ( 0.0000000000000000000, 0.0000000000000000000, -1.000000000000000000 ) ) ;
#301 = SURFACE_STYLE_USAGE ( .BOTH. , #199 ) ;
#302 =( BOUNDED_CURVE ( )  B_SPLINE_CURVE ( 3, ( #676, #37, #434, #726 ),
 .UNSPECIFIED., .F., .T. ) 
 B_SPLINE_CURVE_WITH_KNOTS ( ( 4, 4 ),
 ( 0.0000000000000000000, 1.000000000000000000 ),
 .UNSPECIFIED. ) 
 CURVE ( )  GEOMETRIC_REPRESENTATION_ITEM ( )  RATIONAL_B_SPLINE_CURVE ( ( 1.000000000000000000, 0.3333333333333333703, 0.3333333333333333703, 1.000000000000000000 ) ) 
 REPRESENTATION_ITEM ( '' )  );
#303 = CARTESIAN_POINT ( 'NONE',  ( 2.606144446949705706, 4.336808689942017736E-16, -2.731984375655561070 ) ) ;
#304 =( NAMED_UNIT ( * ) PLANE_ANGLE_UNIT ( ) SI_UNIT ( $, .RADIAN. ) );
#305 = CARTESIAN_POINT ( 'NONE',  ( 6.110095881941418616E-15, 14.50000000000000000, 1.750000000000000000 ) ) ;
#306 = ADVANCED_FACE ( 'NONE', ( #297 ), #539, .F. ) ;
#307 = PRESENTATION_LAYER_ASSIGNMENT (  '', '', ( #720 ) ) ;
#308 = FILL_AREA_STYLE_COLOUR ( '', #273 ) ;
#309 =( GEOMETRIC_REPRESENTATION_CONTEXT ( 3 ) GLOBAL_UNCERTAINTY_ASSIGNED_CONTEXT ( ( #5 ) ) GLOBAL_UNIT_ASSIGNED_CONTEXT ( ( #569, #46, #510 ) ) REPRESENTATION_CONTEXT ( 'NONE', 'WORKASPACE' ) );
#310 = CARTESIAN_POINT ( 'NONE',  ( -7.000000000000000000, 12.00000000000000178, 3.500000000000000000 ) ) ;
#311 = PRESENTATION_LAYER_ASSIGNMENT (  '', '', ( #255 ) ) ;
#312 = STYLED_ITEM ( 'NONE', ( #138 ), #473 ) ;
#313 = STYLED_ITEM ( 'NONE', ( #644 ), #592 ) ;
#314 =( NAMED_UNIT ( * ) SI_UNIT ( $, .STERADIAN. ) SOLID_ANGLE_UNIT ( ) );
#315 = SURFACE_SIDE_STYLE ('',( #605 ) ) ;
#316 = CARTESIAN_POINT ( 'NONE',  ( 4.644954539927596023E-16, 4.516154061397947204E-16, -3.792893218813452538 ) ) ;
#317 = CARTESIAN_POINT ( 'NONE',  ( -6.071532165918824830E-15, 14.50000000000000000, -1.750000000000000000 ) ) ;
#318 = EDGE_CURVE ( 'NONE', #477, #749, #285, .T. ) ;
#319 = UNCERTAINTY_MEASURE_WITH_UNIT (LENGTH_MEASURE( 1.000000000000000082E-05 ), #479, 'distance_accuracy_value', 'NONE');
#320 = FILL_AREA_STYLE ('',( #91 ) ) ;
#321 = EDGE_LOOP ( 'NONE', ( #519, #579, #724, #390 ) ) ;
#322 =( NAMED_UNIT ( * ) PLANE_ANGLE_UNIT ( ) SI_UNIT ( $, .RADIAN. ) );
#323 = LINE ( 'NONE', #496, #141 ) ;
#324 = DIRECTION ( 'NONE',  ( 1.000000000000000000, 0.0000000000000000000, 0.0000000000000000000 ) ) ;
#325 = CARTESIAN_POINT ( 'NONE',  ( 0.0000000000000000000, 10.54909099676163997, 0.0000000000000000000 ) ) ;
#326 = AXIS2_PLACEMENT_3D ( 'NONE', #690, #388, #155 ) ;
#327 = CARTESIAN_POINT ( 'NONE',  ( 0.0000000000000000000, 11.50000000000000000, 3.500000000000000000 ) ) ;
#328 = EDGE_CURVE ( 'NONE', #250, #198, #559, .T. ) ;
#329 = ORIENTED_EDGE ( 'NONE', *, *, #662, .T. ) ;
#330 = CARTESIAN_POINT ( 'NONE',  ( 6.110095881941418616E-15, 14.50000000000000000, 1.499999999999999556 ) ) ;
#331 = SURFACE_STYLE_FILL_AREA ( #757 ) ;
#332 = ORIENTED_EDGE ( 'NONE', *, *, #517, .F. ) ;
#333 = CARTESIAN_POINT ( 'NONE',  ( -9.797174393178825657E-16, 9.546114431223463370, -4.000000000000000000 ) ) ;
#334 = PRODUCT ( 'User Library-Electric capacity 8x12', 'User Library-Electric capacity 8x12', '', ( #753 ) ) ;
#335 = DIRECTION ( 'NONE',  ( 0.0000000000000000000, 1.000000000000000000, 0.0000000000000000000 ) ) ;
#336 = CIRCLE ( 'NONE', #368, 0.2500000000000000000 ) ;
#337 = ORIENTED_EDGE ( 'NONE', *, *, #371, .T. ) ;
#338 = VECTOR ( 'NONE', #340, 1000.000000000000000 ) ;
#339 = VERTEX_POINT ( 'NONE', #682 ) ;
#340 = DIRECTION ( 'NONE',  ( -0.0000000000000000000, -1.000000000000000000, -0.0000000000000000000 ) ) ;
#341 = CARTESIAN_POINT ( 'NONE',  ( 7.142348754983517622, 10.29645761222695910, -3.571174377491760143 ) ) ;
#342 = CARTESIAN_POINT ( 'NONE',  ( -9.797174393178825657E-16, 0.2071067811865479336, 4.000000000000000000 ) ) ;
#343 = FACE_OUTER_BOUND ( 'NONE', #45, .T. ) ;
#344 = CARTESIAN_POINT ( 'NONE',  ( 7.142348754983517622, 9.798747815758142465, -3.571174377491760143 ) ) ;
#345 = SURFACE_STYLE_FILL_AREA ( #66 ) ;
#346 = CLOSED_SHELL ( 'NONE', ( #40, #306, #641, #592, #561, #64, #156, #170, #761, #473, #476, #649, #50, #680, #420, #104, #126, #645 ) ) ;
#347 = DIRECTION ( 'NONE',  ( 0.0000000000000000000, 0.0000000000000000000, -1.000000000000000000 ) ) ;
#348 = DIRECTION ( 'NONE',  ( -0.0000000000000000000, -1.000000000000000000, -0.0000000000000000000 ) ) ;
#349 = EDGE_CURVE ( 'NONE', #477, #411, #81, .T. ) ;
#350 = FILL_AREA_STYLE_COLOUR ( '', #459 ) ;
#351 = SURFACE_SIDE_STYLE ('',( #15 ) ) ;
#352 = AXIS2_PLACEMENT_3D ( 'NONE', #275, #504, #437 ) ;
#353 = CARTESIAN_POINT ( 'NONE',  ( 0.0000000000000000000, 9.546114431223463370, -4.000000000000000000 ) ) ;
#354 =( GEOMETRIC_REPRESENTATION_CONTEXT ( 3 ) GLOBAL_UNCERTAINTY_ASSIGNED_CONTEXT ( ( #540 ) ) GLOBAL_UNIT_ASSIGNED_CONTEXT ( ( #763, #109, #747 ) ) REPRESENTATION_CONTEXT ( 'NONE', 'WORKASPACE' ) );
#355 = PRESENTATION_LAYER_ASSIGNMENT (  '', '', ( #313 ) ) ;
#356 = CARTESIAN_POINT ( 'NONE',  ( 7.585786437626903300, 12.00000000000000000, 3.792893218813452538 ) ) ;
#357 =( NAMED_UNIT ( * ) PLANE_ANGLE_UNIT ( ) SI_UNIT ( $, .RADIAN. ) );
#358 = CARTESIAN_POINT ( 'NONE',  ( 7.142348754983518511, 10.29645761222695910, 3.571174377491758811 ) ) ;
#359 =( LENGTH_UNIT ( ) NAMED_UNIT ( * ) SI_UNIT ( .MILLI., .METRE. ) );
#360 = UNCERTAINTY_MEASURE_WITH_UNIT (LENGTH_MEASURE( 1.000000000000000082E-05 ), #125, 'distance_accuracy_value', 'NONE');
#361 = CARTESIAN_POINT ( 'NONE',  ( 7.585786437626903300, 12.00000000000000000, -3.792893218813451650 ) ) ;
#362 = ORIENTED_EDGE ( 'NONE', *, *, #371, .F. ) ;
#363 = PRESENTATION_STYLE_ASSIGNMENT (( #542 ) ) ;
#364 = CARTESIAN_POINT ( 'NONE',  ( 4.898587196589412829E-16, 12.00000000000000000, 4.000000000000000000 ) ) ;
#365 = CARTESIAN_POINT ( 'NONE',  ( 6.999999999999998224, 4.336808689942017736E-16, -3.499999999999999112 ) ) ;
#366 = EDGE_LOOP ( 'NONE', ( #608, #332 ) ) ;
#367 =( NAMED_UNIT ( * ) SI_UNIT ( $, .STERADIAN. ) SOLID_ANGLE_UNIT ( ) );
#368 = AXIS2_PLACEMENT_3D ( 'NONE', #535, #14, #300 ) ;
#369 = STYLED_ITEM ( 'NONE', ( #363 ), #649 ) ;
#370 = CARTESIAN_POINT ( 'NONE',  ( 0.0000000000000000000, 11.50000000000000000, 4.000000000000000000 ) ) ;
#371 = EDGE_CURVE ( 'NONE', #749, #449, #323, .T. ) ;
#372 = FACE_BOUND ( 'NONE', #514, .T. ) ;
#373 = CARTESIAN_POINT ( 'NONE',  ( 0.0000000000000000000, 12.00000000000000000, 3.500000000000000444 ) ) ;
#374 = CARTESIAN_POINT ( 'NONE',  ( 0.0000000000000000000, 10.04760271399255167, -4.295441026679803542 ) ) ;
#375 = DIRECTION ( 'NONE',  ( 1.224646799147352468E-16, 0.0000000000000000000, -1.000000000000000000 ) ) ;
#376 = DIRECTION ( 'NONE',  ( -0.0000000000000000000, -1.000000000000000000, -0.0000000000000000000 ) ) ;
#377 = DIRECTION ( 'NONE',  ( -0.0000000000000000000, -1.000000000000000000, -0.0000000000000000000 ) ) ;
#378 = ORIENTED_EDGE ( 'NONE', *, *, #349, .T. ) ;
#379 =( LENGTH_UNIT ( ) NAMED_UNIT ( * ) SI_UNIT ( .MILLI., .METRE. ) );
#380 = MECHANICAL_DESIGN_GEOMETRIC_PRESENTATION_REPRESENTATION (  '', ( #720 ), #137 ) ;
#381 = DIRECTION ( 'NONE',  ( -0.0000000000000000000, -1.000000000000000000, -0.0000000000000000000 ) ) ;
#382 = EDGE_CURVE ( 'NONE', #428, #400, #575, .T. ) ;
#383 = VECTOR ( 'NONE', #381, 1000.000000000000000 ) ;
#384 = EDGE_LOOP ( 'NONE', ( #508, #741 ) ) ;
#385 = SHAPE_DEFINITION_REPRESENTATION ( #632, #453 ) ;
#386 = FACE_OUTER_BOUND ( 'NONE', #321, .T. ) ;
#387 = ORIENTED_EDGE ( 'NONE', *, *, #298, .F. ) ;
#388 = DIRECTION ( 'NONE',  ( -0.0000000000000000000, -1.000000000000000000, -0.0000000000000000000 ) ) ;
#389 = PRESENTATION_STYLE_ASSIGNMENT (( #622 ) ) ;
#390 = ORIENTED_EDGE ( 'NONE', *, *, #587, .T. ) ;
#391 = AXIS2_PLACEMENT_3D ( 'NONE', #425, #324, #498 ) ;
#392 =( NAMED_UNIT ( * ) SI_UNIT ( $, .STERADIAN. ) SOLID_ANGLE_UNIT ( ) );
#393 = PRESENTATION_LAYER_ASSIGNMENT (  '', '', ( #674 ) ) ;
#394 = ORIENTED_EDGE ( 'NONE', *, *, #413, .F. ) ;
#395 = EDGE_CURVE ( 'NONE', #147, #250, #222, .T. ) ;
#396 = CARTESIAN_POINT ( 'NONE',  ( -7.142348754983516734, 9.798747815758142465, 3.571174377491761032 ) ) ;
#397 = CARTESIAN_POINT ( 'NONE',  ( -7.585786437626903300, 4.516154061397947204E-16, 3.792893218813450762 ) ) ;
#398 = CARTESIAN_POINT ( 'NONE',  ( -9.797174393178825657E-16, 10.54909099676163997, -4.000000000000000000 ) ) ;
#399 = CARTESIAN_POINT ( 'NONE',  ( 0.0000000000000000000, 10.29645761222695910, -3.571174377491759699 ) ) ;
#400 = VERTEX_POINT ( 'NONE', #687 ) ;
#401 = CARTESIAN_POINT ( 'NONE',  ( -6.999999999999998224, 12.00000000000000000, -3.500000000000000444 ) ) ;
#402 = AXIS2_PLACEMENT_3D ( 'NONE', #30, #607, #612 ) ;
#403 = EDGE_CURVE ( 'NONE', #588, #136, #149, .T. ) ;
#404 = PRESENTATION_LAYER_ASSIGNMENT (  '', '', ( #723 ) ) ;
#405 = ORIENTED_EDGE ( 'NONE', *, *, #413, .T. ) ;
#406 = CARTESIAN_POINT ( 'NONE',  ( -8.000000000000000000, 11.50000000000000000, 3.999999999999998224 ) ) ;
#407 = EDGE_CURVE ( 'NONE', #685, #198, #36, .T. ) ;
#408 = FILL_AREA_STYLE_COLOUR ( '', #175 ) ;
#409 = PRODUCT_DEFINITION_CONTEXT ( 'detailed design', #178, 'design' ) ;
#410 =( LENGTH_UNIT ( ) NAMED_UNIT ( * ) SI_UNIT ( .MILLI., .METRE. ) );
#411 = VERTEX_POINT ( 'NONE', #624 ) ;
#412 =( NAMED_UNIT ( * ) PLANE_ANGLE_UNIT ( ) SI_UNIT ( $, .RADIAN. ) );
#413 = EDGE_CURVE ( 'NONE', #147, #685, #154, .T. ) ;
#414 = AXIS2_PLACEMENT_3D ( 'NONE', #51, #744, #684 ) ;
#415 = SURFACE_SIDE_STYLE ('',( #466 ) ) ;
#416 = AXIS2_PLACEMENT_3D ( 'NONE', #374, #616, #265 ) ;
#417 =( NAMED_UNIT ( * ) PLANE_ANGLE_UNIT ( ) SI_UNIT ( $, .RADIAN. ) );
#418 =( NAMED_UNIT ( * ) PLANE_ANGLE_UNIT ( ) SI_UNIT ( $, .RADIAN. ) );
#419 = CARTESIAN_POINT ( 'NONE',  ( -6.071532165918824830E-15, 12.00000000000000000, -2.000000000000000000 ) ) ;
#420 = ADVANCED_FACE ( 'NONE', ( #133 ), #248, .T. ) ;
#421 = CARTESIAN_POINT ( 'NONE',  ( 6.999999999999998224, 4.336808689942017736E-16, 3.500000000000000000 ) ) ;
#422 = DIRECTION ( 'NONE',  ( 0.0000000000000000000, 1.000000000000000000, 0.0000000000000000000 ) ) ;
#423 = FILL_AREA_STYLE ('',( #35 ) ) ;
#424 = CARTESIAN_POINT ( 'NONE',  ( 0.0000000000000000000, 10.54909099676163997, 0.0000000000000000000 ) ) ;
#425 = CARTESIAN_POINT ( 'NONE',  ( 0.0000000000000000000, 0.5000000000000004441, 3.500000000000000000 ) ) ;
#426 = EDGE_CURVE ( 'NONE', #685, #213, #90, .T. ) ;
#427 = DIRECTION ( 'NONE',  ( -0.0000000000000000000, -1.000000000000000000, -0.0000000000000000000 ) ) ;
#428 = VERTEX_POINT ( 'NONE', #186 ) ;
#429 =( NAMED_UNIT ( * ) SI_UNIT ( $, .STERADIAN. ) SOLID_ANGLE_UNIT ( ) );
#430 = CARTESIAN_POINT ( 'NONE',  ( 4.286263797015736595E-16, 0.5000000000000004441, -3.500000000000000000 ) ) ;
#431 = AXIS2_PLACEMENT_3D ( 'NONE', #424, #259, #661 ) ;
#432 = UNCERTAINTY_MEASURE_WITH_UNIT (LENGTH_MEASURE( 1.000000000000000082E-05 ), #610, 'distance_accuracy_value', 'NONE');
#433 = CARTESIAN_POINT ( 'NONE',  ( 4.351332576827047660, 4.336808689942017736E-16, 1.129540490905245997 ) ) ;
#434 = CARTESIAN_POINT ( 'NONE',  ( 7.000000000000000000, 12.00000000000000178, 3.500000000000000000 ) ) ;
#435 = CARTESIAN_POINT ( 'NONE',  ( 7.999999999999999112, 0.5000000000000004441, 4.000000000000000000 ) ) ;
#436 =( BOUNDED_CURVE ( )  B_SPLINE_CURVE ( 3, ( #547, #663, #668, #552 ),
 .UNSPECIFIED., .F., .T. ) 
 B_SPLINE_CURVE_WITH_KNOTS ( ( 4, 4 ),
 ( 0.0000000000000000000, 1.000000000000000000 ),
 .UNSPECIFIED. ) 
 CURVE ( )  GEOMETRIC_REPRESENTATION_ITEM ( )  RATIONAL_B_SPLINE_CURVE ( ( 1.000000000000000000, 0.6948620761549615388, 0.6948620761549615388, 1.000000000000000000 ) ) 
 REPRESENTATION_ITEM ( '' )  );
#437 = DIRECTION ( 'NONE',  ( 0.0000000000000000000, 0.0000000000000000000, -1.000000000000000000 ) ) ;
#438 = ORIENTED_EDGE ( 'NONE', *, *, #733, .F. ) ;
#439 = SURFACE_STYLE_FILL_AREA ( #93 ) ;
#440 = DIRECTION ( 'NONE',  ( -1.000000000000000000, 0.0000000000000000000, -1.224646799147353207E-16 ) ) ;
#441 = CARTESIAN_POINT ( 'NONE',  ( 7.999999999999998224, 0.2071067811865479336, 4.000000000000000000 ) ) ;
#442 = DIRECTION ( 'NONE',  ( 0.0000000000000000000, 0.0000000000000000000, -1.000000000000000000 ) ) ;
#443 = ORIENTED_EDGE ( 'NONE', *, *, #426, .F. ) ;
#444 = CYLINDRICAL_SURFACE ( 'NONE', #326, 4.000000000000000000 ) ;
#445 = EDGE_CURVE ( 'NONE', #250, #147, #302, .T. ) ;
#446 = VECTOR ( 'NONE', #427, 1000.000000000000000 ) ;
#447 = MECHANICAL_DESIGN_GEOMETRIC_PRESENTATION_REPRESENTATION (  '', ( #255 ), #83 ) ;
#448 = MECHANICAL_DESIGN_GEOMETRIC_PRESENTATION_REPRESENTATION (  '', ( #723 ), #658 ) ;
#449 = VERTEX_POINT ( 'NONE', #419 ) ;
#450 = CARTESIAN_POINT ( 'NONE',  ( -1.416237094272315922, 4.336808689942017736E-16, -3.500000000000000444 ) ) ;
#451 = EDGE_LOOP ( 'NONE', ( #443, #262, #689, #460 ) ) ;
#452 = DIRECTION ( 'NONE',  ( 0.0000000000000000000, 0.0000000000000000000, -1.000000000000000000 ) ) ;
#453 = ADVANCED_BREP_SHAPE_REPRESENTATION ( 'User Library-Electric capacity 8x12', ( #263, #495 ), #711 ) ;
#454 = CARTESIAN_POINT ( 'NONE',  ( 4.898587196589412829E-16, 10.54909099676163997, 4.000000000000000000 ) ) ;
#455 = EDGE_CURVE ( 'NONE', #213, #339, #646, .T. ) ;
#456 = VERTEX_POINT ( 'NONE', #503 ) ;
#457 = SURFACE_STYLE_FILL_AREA ( #56 ) ;
#458 = COLOUR_RGB ( '',1.000000000000000000, 1.000000000000000000, 1.000000000000000000 ) ;
#459 = COLOUR_RGB ( '',0.0000000000000000000, 0.7215686274509803821, 0.0000000000000000000 ) ;
#460 = ORIENTED_EDGE ( 'NONE', *, *, #180, .T. ) ;
#461 = COLOUR_RGB ( '',0.2509803921568627416, 0.2509803921568627416, 0.2509803921568627416 ) ;
#462 = MECHANICAL_DESIGN_GEOMETRIC_PRESENTATION_REPRESENTATION (  '', ( #704 ), #513 ) ;
#463 = CARTESIAN_POINT ( 'NONE',  ( -8.746854541184649479E-16, 9.798747815758144242, -3.571174377491759699 ) ) ;
#464 = ORIENTED_EDGE ( 'NONE', *, *, #706, .F. ) ;
#465 = SURFACE_STYLE_USAGE ( .BOTH. , #296 ) ;
#466 = SURFACE_STYLE_FILL_AREA ( #482 ) ;
#467 = CARTESIAN_POINT ( 'NONE',  ( -6.999999999999998224, 4.336808689942017736E-16, 3.499999999999997780 ) ) ;
#468 = ORIENTED_EDGE ( 'NONE', *, *, #395, .T. ) ;
#469 = COLOUR_RGB ( '',0.0000000000000000000, 0.7215686274509803821, 0.0000000000000000000 ) ;
#470 =( GEOMETRIC_REPRESENTATION_CONTEXT ( 3 ) GLOBAL_UNCERTAINTY_ASSIGNED_CONTEXT ( ( #432 ) ) GLOBAL_UNIT_ASSIGNED_CONTEXT ( ( #610, #192, #280 ) ) REPRESENTATION_CONTEXT ( 'NONE', 'WORKASPACE' ) );
#471 = CARTESIAN_POINT ( 'NONE',  ( -8.000000000000000000, 11.79289321881345209, 3.999999999999998224 ) ) ;
#472 = PRESENTATION_LAYER_ASSIGNMENT (  '', '', ( #369 ) ) ;
#473 = ADVANCED_FACE ( 'NONE', ( #667 ), #577, .F. ) ;
#474 = VERTEX_POINT ( 'NONE', #164 ) ;
#475 = CARTESIAN_POINT ( 'NONE',  ( 4.286263797015736595E-16, 12.00000000000000000, -3.500000000000000000 ) ) ;
#476 = ADVANCED_FACE ( 'NONE', ( #343 ), #756, .F. ) ;
#477 = VERTEX_POINT ( 'NONE', #637 ) ;
#478 = CARTESIAN_POINT ( 'NONE',  ( -8.572527594031473190E-16, 12.00000000000000000, 3.500000000000000000 ) ) ;
#479 =( LENGTH_UNIT ( ) NAMED_UNIT ( * ) SI_UNIT ( .MILLI., .METRE. ) );
#480 = CIRCLE ( 'NONE', #595, 0.2500000000000004441 ) ;
#481 =( LENGTH_UNIT ( ) NAMED_UNIT ( * ) SI_UNIT ( .MILLI., .METRE. ) );
#482 = FILL_AREA_STYLE ('',( #237 ) ) ;
#483 = AXIS2_PLACEMENT_3D ( 'NONE', #709, #127, #599 ) ;
#484 =( LENGTH_UNIT ( ) NAMED_UNIT ( * ) SI_UNIT ( .MILLI., .METRE. ) );
#485 = CARTESIAN_POINT ( 'NONE',  ( 4.644954539927596023E-16, 12.00000000000000000, -3.792893218813452538 ) ) ;
#486 = ORIENTED_EDGE ( 'NONE', *, *, #455, .T. ) ;
#487 = DIRECTION ( 'NONE',  ( 0.0000000000000000000, 0.0000000000000000000, -1.000000000000000000 ) ) ;
#488 = CARTESIAN_POINT ( 'NONE',  ( 0.0000000000000000000, 4.516154061397947204E-16, 3.792893218813452538 ) ) ;
#489 = CARTESIAN_POINT ( 'NONE',  ( 6.999999999999998224, 12.00000000000000000, 3.500000000000000000 ) ) ;
#490 = VERTEX_POINT ( 'NONE', #760 ) ;
#491 = CARTESIAN_POINT ( 'NONE',  ( -6.040915995940141043E-15, 14.50000000000000000, -1.500000000000000000 ) ) ;
#492 = PRODUCT_DEFINITION ( 'UNKNOWN', '', #585, #409 ) ;
#493 = CYLINDRICAL_SURFACE ( 'NONE', #119, 0.2500000000000000000 ) ;
#494 = PLANE ( 'NONE',  #611 ) ;
#495 = AXIS2_PLACEMENT_3D ( 'NONE', #99, #278, #520 ) ;
#496 = CARTESIAN_POINT ( 'NONE',  ( -6.071532165918824830E-15, 14.50000000000000000, -2.000000000000000000 ) ) ;
#497 = PRESENTATION_LAYER_ASSIGNMENT (  '', '', ( #195 ) ) ;
#498 = DIRECTION ( 'NONE',  ( 0.0000000000000000000, 0.0000000000000000000, 1.000000000000000000 ) ) ;
#499 =( NAMED_UNIT ( * ) PLANE_ANGLE_UNIT ( ) SI_UNIT ( $, .RADIAN. ) );
#500 = EDGE_CURVE ( 'NONE', #21, #266, #640, .T. ) ;
#501 = EDGE_LOOP ( 'NONE', ( #329, #557 ) ) ;
#502 = DIRECTION ( 'NONE',  ( 0.0000000000000000000, 0.0000000000000000000, -1.000000000000000000 ) ) ;
#503 = CARTESIAN_POINT ( 'NONE',  ( -3.189402371812183556, 1.734723475976807094E-16, -1.441427247792555377 ) ) ;
#504 = DIRECTION ( 'NONE',  ( -0.0000000000000000000, -1.000000000000000000, -0.0000000000000000000 ) ) ;
#505 = EDGE_LOOP ( 'NONE', ( #103, #378, #627, #362 ) ) ;
#506 = SURFACE_STYLE_FILL_AREA ( #320 ) ;
#507 = STYLED_ITEM ( 'NONE', ( #190 ), #761 ) ;
#508 = ORIENTED_EDGE ( 'NONE', *, *, #445, .F. ) ;
#509 = CARTESIAN_POINT ( 'NONE',  ( 6.110095881941418616E-15, 14.50000000000000000, 1.750000000000000000 ) ) ;
#510 =( NAMED_UNIT ( * ) SI_UNIT ( $, .STERADIAN. ) SOLID_ANGLE_UNIT ( ) );
#511 = PRESENTATION_LAYER_ASSIGNMENT (  '', '', ( #312 ) ) ;
#512 = CARTESIAN_POINT ( 'NONE',  ( 4.408728476930471151E-16, 12.00000000000000000, -3.500000000000000444 ) ) ;
#513 =( GEOMETRIC_REPRESENTATION_CONTEXT ( 3 ) GLOBAL_UNCERTAINTY_ASSIGNED_CONTEXT ( ( #360 ) ) GLOBAL_UNIT_ASSIGNED_CONTEXT ( ( #125, #412, #177 ) ) REPRESENTATION_CONTEXT ( 'NONE', 'WORKASPACE' ) );
#514 = EDGE_LOOP ( 'NONE', ( #153, #197 ) ) ;
#515 = DIRECTION ( 'NONE',  ( 0.0000000000000000000, 0.0000000000000000000, -1.000000000000000000 ) ) ;
#516 = FACE_OUTER_BOUND ( 'NONE', #108, .T. ) ;
#517 = EDGE_CURVE ( 'NONE', #210, #21, #10, .T. ) ;
#518 = FILL_AREA_STYLE_COLOUR ( '', #458 ) ;
#519 = ORIENTED_EDGE ( 'NONE', *, *, #403, .F. ) ;
#520 = DIRECTION ( 'NONE',  ( 1.000000000000000000, 0.0000000000000000000, 0.0000000000000000000 ) ) ;
#521 = CARTESIAN_POINT ( 'NONE',  ( 4.898587196589412829E-16, 0.2071067811865479336, -4.000000000000000000 ) ) ;
#522 = DIRECTION ( 'NONE',  ( 0.0000000000000000000, 0.0000000000000000000, -1.000000000000000000 ) ) ;
#523 = CARTESIAN_POINT ( 'NONE',  ( 1.416237094272316588, 4.336808689942017736E-16, -3.500000000000000444 ) ) ;
#524 = VECTOR ( 'NONE', #701, 1000.000000000000000 ) ;
#525 = COLOUR_RGB ( '',1.000000000000000000, 1.000000000000000000, 1.000000000000000000 ) ;
#526 = CARTESIAN_POINT ( 'NONE',  ( -7.585786437626903300, 12.00000000000000000, 3.792893218813450762 ) ) ;
#527 = CARTESIAN_POINT ( 'NONE',  ( 7.999999999999999112, 9.546114431223463370, -4.000000000000000000 ) ) ;
#528 = APPLICATION_CONTEXT ( 'automotive_design' ) ;
#529 = CARTESIAN_POINT ( 'NONE',  ( -8.000000000000000000, 0.2071067811865479336, 3.999999999999998224 ) ) ;
#530 = CARTESIAN_POINT ( 'NONE',  ( -9.289909079855192046E-16, 12.00000000000000000, 3.792893218813452538 ) ) ;
#531 =( NAMED_UNIT ( * ) SI_UNIT ( $, .STERADIAN. ) SOLID_ANGLE_UNIT ( ) );
#532 = AXIS2_PLACEMENT_3D ( 'NONE', #305, #89, #249 ) ;
#533 = AXIS2_PLACEMENT_3D ( 'NONE', #509, #751, #522 ) ;
#534 = SURFACE_STYLE_USAGE ( .BOTH. , #351 ) ;
#535 = CARTESIAN_POINT ( 'NONE',  ( -6.071532165918824830E-15, 14.50000000000000000, -1.750000000000000000 ) ) ;
#536 = ORIENTED_EDGE ( 'NONE', *, *, #292, .F. ) ;
#537 = CARTESIAN_POINT ( 'NONE',  ( 0.0000000000000000000, 0.5000000000000004441, 0.0000000000000000000 ) ) ;
#538 = FACE_OUTER_BOUND ( 'NONE', #718, .T. ) ;
#539 =( BOUNDED_SURFACE ( )  B_SPLINE_SURFACE ( 3, 3, ( 
 ( #638, #221, #114, #167 ),
 ( #399, #341, #358, #642 ),
 ( #117, #344, #16, #286 ),
 ( #353, #527, #654, #4 ) ),
 .UNSPECIFIED., .F., .F., .F. ) 
 B_SPLINE_SURFACE_WITH_KNOTS ( ( 4, 4 ),
 ( 4, 4 ),
 ( 0.0000000000000000000, 1.000000000000000000 ),
 ( 0.0000000000000000000, 1.000000000000000000 ),
 .UNSPECIFIED. ) 
 GEOMETRIC_REPRESENTATION_ITEM ( )  RATIONAL_B_SPLINE_SURFACE ( (
 ( 1.000000000000000000, 0.3333333333333334259, 0.3333333333333334259, 1.000000000000000000),
 ( 0.6717278305913509939, 0.2239092768637837294, 0.2239092768637837294, 0.6717278305913509939),
 ( 0.6717278305913509939, 0.2239092768637837294, 0.2239092768637837294, 0.6717278305913509939),
 ( 1.000000000000000000, 0.3333333333333334259, 0.3333333333333334259, 1.000000000000000000) ) ) 
 REPRESENTATION_ITEM ( '' )  SURFACE ( )  );
#540 = UNCERTAINTY_MEASURE_WITH_UNIT (LENGTH_MEASURE( 1.000000000000000082E-05 ), #763, 'distance_accuracy_value', 'NONE');
#541 = ORIENTED_EDGE ( 'NONE', *, *, #445, .T. ) ;
#543 = AXIS2_PLACEMENT_3D ( 'NONE', #565, #740, #626 ) ;
#542 = SURFACE_STYLE_USAGE ( .BOTH. , #188 ) ;
#544 = VECTOR ( 'NONE', #732, 1000.000000000000000 ) ;
#545 = CARTESIAN_POINT ( 'NONE',  ( -7.000000000000000000, 12.00000000000000178, -3.500000000000001332 ) ) ;
#546 =( GEOMETRIC_REPRESENTATION_CONTEXT ( 3 ) GLOBAL_UNCERTAINTY_ASSIGNED_CONTEXT ( ( #319 ) ) GLOBAL_UNIT_ASSIGNED_CONTEXT ( ( #479, #281, #392 ) ) REPRESENTATION_CONTEXT ( 'NONE', 'WORKASPACE' ) );
#547 = CARTESIAN_POINT ( 'NONE',  ( -3.189402371812183556, 1.734723475976807094E-16, -1.441427247792555377 ) ) ;
#548 = CARTESIAN_POINT ( 'NONE',  ( 7.999999999999999112, 11.50000000000000000, -3.999999999999999556 ) ) ;
#549 = ORIENTED_EDGE ( 'NONE', *, *, #254, .F. ) ;
#550 = PRESENTATION_STYLE_ASSIGNMENT (( #301 ) ) ;
#551 = DIRECTION ( 'NONE',  ( -0.0000000000000000000, -1.000000000000000000, -0.0000000000000000000 ) ) ;
#552 = CARTESIAN_POINT ( 'NONE',  ( 0.0000000000000000000, 2.602085213965210642E-16, 3.500000000000000444 ) ) ;
#553 = UNCERTAINTY_MEASURE_WITH_UNIT (LENGTH_MEASURE( 1.000000000000000082E-05 ), #171, 'distance_accuracy_value', 'NONE');
#554 = DIRECTION ( 'NONE',  ( 0.0000000000000000000, -0.0000000000000000000, 1.000000000000000000 ) ) ;
#555 = CARTESIAN_POINT ( 'NONE',  ( 0.0000000000000000000, 0.5000000000000004441, 4.000000000000000000 ) ) ;
#556 = CARTESIAN_POINT ( 'NONE',  ( 0.0000000000000000000, 11.50000000000000000, -4.000000000000000000 ) ) ;
#557 = ORIENTED_EDGE ( 'NONE', *, *, #194, .T. ) ;
#558 = FILL_AREA_STYLE_COLOUR ( '', #72 ) ;
#559 = CIRCLE ( 'NONE', #205, 0.5000000000000000000 ) ;
#560 = SURFACE_STYLE_USAGE ( .BOTH. , #683 ) ;
#561 = ADVANCED_FACE ( 'NONE', ( #580 ), #444, .T. ) ;
#562 = AXIS2_PLACEMENT_3D ( 'NONE', #660, #173, #347 ) ;
#563 = ORIENTED_EDGE ( 'NONE', *, *, #500, .T. ) ;
#564 = CARTESIAN_POINT ( 'NONE',  ( 0.0000000000000000000, 11.50000000000000000, 0.0000000000000000000 ) ) ;
#565 = CARTESIAN_POINT ( 'NONE',  ( 6.110095881941418616E-15, 14.50000000000000000, 1.750000000000000000 ) ) ;
#566 = EDGE_LOOP ( 'NONE', ( #468, #101, #176, #394 ) ) ;
#567 = CARTESIAN_POINT ( 'NONE',  ( 0.0000000000000000000, 12.00000000000000000, 0.0000000000000000000 ) ) ;
#568 = CARTESIAN_POINT ( 'NONE',  ( 4.373427270592324740E-16, 10.29645761222695910, 3.571174377491759699 ) ) ;
#569 =( LENGTH_UNIT ( ) NAMED_UNIT ( * ) SI_UNIT ( .MILLI., .METRE. ) );
#570 =( NAMED_UNIT ( * ) SI_UNIT ( $, .STERADIAN. ) SOLID_ANGLE_UNIT ( ) );
#571 = MECHANICAL_DESIGN_GEOMETRIC_PRESENTATION_REPRESENTATION (  '', ( #507 ), #106 ) ;
#572 = ORIENTED_EDGE ( 'NONE', *, *, #54, .F. ) ;
#573 = CARTESIAN_POINT ( 'NONE',  ( 4.898587196589412829E-16, 9.546114431223463370, 4.000000000000000000 ) ) ;
#574 = PRESENTATION_LAYER_ASSIGNMENT (  '', '', ( #139 ) ) ;
#575 = CIRCLE ( 'NONE', #240, 0.5000000000000000000 ) ;
#576 = ORIENTED_EDGE ( 'NONE', *, *, #160, .T. ) ;
#577 =( BOUNDED_SURFACE ( )  B_SPLINE_SURFACE ( 3, 3, ( 
 ( #274, #277, #211, #398 ),
 ( #568, #214, #113, #578 ),
 ( #105, #396, #116, #463 ),
 ( #102, #159, #166, #333 ) ),
 .UNSPECIFIED., .F., .F., .F. ) 
 B_SPLINE_SURFACE_WITH_KNOTS ( ( 4, 4 ),
 ( 4, 4 ),
 ( 0.0000000000000000000, 1.000000000000000000 ),
 ( 0.0000000000000000000, 1.000000000000000000 ),
 .UNSPECIFIED. ) 
 GEOMETRIC_REPRESENTATION_ITEM ( )  RATIONAL_B_SPLINE_SURFACE ( (
 ( 1.000000000000000000, 0.3333333333333334259, 0.3333333333333334259, 1.000000000000000000),
 ( 0.6717278305913509939, 0.2239092768637837294, 0.2239092768637837294, 0.6717278305913509939),
 ( 0.6717278305913509939, 0.2239092768637837294, 0.2239092768637837294, 0.6717278305913509939),
 ( 1.000000000000000000, 0.3333333333333334259, 0.3333333333333334259, 1.000000000000000000) ) ) 
 REPRESENTATION_ITEM ( '' )  SURFACE ( )  );
#578 = CARTESIAN_POINT ( 'NONE',  ( -8.746854541184649479E-16, 10.29645761222695910, -3.571174377491759699 ) ) ;
#579 = ORIENTED_EDGE ( 'NONE', *, *, #29, .T. ) ;
#580 = FACE_OUTER_BOUND ( 'NONE', #759, .T. ) ;
#581 = SURFACE_STYLE_USAGE ( .BOTH. , #57 ) ;
#582 = SURFACE_STYLE_USAGE ( .BOTH. , #415 ) ;
#583 = CARTESIAN_POINT ( 'NONE',  ( -6.999999999999998224, 4.336808689942017736E-16, -3.500000000000000444 ) ) ;
#584 = CARTESIAN_POINT ( 'NONE',  ( 0.0000000000000000000, 0.0000000000000000000, 0.0000000000000000000 ) ) ;
#585 = PRODUCT_DEFINITION_FORMATION_WITH_SPECIFIED_SOURCE ( 'ANY', '', #334, .NOT_KNOWN. ) ;
#586 = CARTESIAN_POINT ( 'NONE',  ( 6.110095881941418616E-15, 12.00000000000000000, 1.499999999999999556 ) ) ;
#587 = EDGE_CURVE ( 'NONE', #428, #136, #648, .T. ) ;
#588 = VERTEX_POINT ( 'NONE', #573 ) ;
#589 = CIRCLE ( 'NONE', #97, 4.000000000000000000 ) ;
#590 = FILL_AREA_STYLE ('',( #122 ) ) ;
#591 = ORIENTED_EDGE ( 'NONE', *, *, #382, .F. ) ;
#592 = ADVANCED_FACE ( 'NONE', ( #516 ), #123, .T. ) ;
#593 = UNCERTAINTY_MEASURE_WITH_UNIT (LENGTH_MEASURE( 1.000000000000000082E-05 ), #481, 'distance_accuracy_value', 'NONE');
#594 = CARTESIAN_POINT ( 'NONE',  ( -7.585786437626901524, 12.00000000000000000, -3.792893218813452538 ) ) ;
#595 = AXIS2_PLACEMENT_3D ( 'NONE', #146, #376, #253 ) ;
#596 = CARTESIAN_POINT ( 'NONE',  ( -6.071532165918824830E-15, 14.50000000000000000, -1.750000000000000000 ) ) ;
#597 = AXIS2_PLACEMENT_3D ( 'NONE', #596, #422, #554 ) ;
#598 = AXIS2_PLACEMENT_3D ( 'NONE', #327, #98, #23 ) ;
#599 = DIRECTION ( 'NONE',  ( 0.0000000000000000000, 0.0000000000000000000, -1.000000000000000000 ) ) ;
#600 =( BOUNDED_CURVE ( )  B_SPLINE_CURVE ( 3, ( #225, #303, #523, #75 ),
 .UNSPECIFIED., .F., .T. ) 
 B_SPLINE_CURVE_WITH_KNOTS ( ( 4, 4 ),
 ( 0.0000000000000000000, 1.000000000000000000 ),
 .UNSPECIFIED. ) 
 CURVE ( )  GEOMETRIC_REPRESENTATION_ITEM ( )  RATIONAL_B_SPLINE_CURVE ( ( 1.000000000000000000, 0.8934595803154377069, 0.8934595803154377069, 1.000000000000000000 ) ) 
 REPRESENTATION_ITEM ( '' )  );
#601 = UNCERTAINTY_MEASURE_WITH_UNIT (LENGTH_MEASURE( 1.000000000000000082E-05 ), #484, 'distance_accuracy_value', 'NONE');
#602 = DIRECTION ( 'NONE',  ( -0.0000000000000000000, -1.000000000000000000, -0.0000000000000000000 ) ) ;
#603 = CARTESIAN_POINT ( 'NONE',  ( 4.286263797015736595E-16, 4.336808689942017736E-16, -3.500000000000000000 ) ) ;
#604 = SURFACE_SIDE_STYLE ('',( #26 ) ) ;
#605 = SURFACE_STYLE_FILL_AREA ( #728 ) ;
#606 = COLOUR_RGB ( '',1.000000000000000000, 1.000000000000000000, 1.000000000000000000 ) ;
#607 = DIRECTION ( 'NONE',  ( -0.0000000000000000000, -1.000000000000000000, -0.0000000000000000000 ) ) ;
#608 = ORIENTED_EDGE ( 'NONE', *, *, #160, .F. ) ;
#609 =( GEOMETRIC_REPRESENTATION_CONTEXT ( 3 ) GLOBAL_UNCERTAINTY_ASSIGNED_CONTEXT ( ( #261 ) ) GLOBAL_UNIT_ASSIGNED_CONTEXT ( ( #410, #417, #314 ) ) REPRESENTATION_CONTEXT ( 'NONE', 'WORKASPACE' ) );
#610 =( LENGTH_UNIT ( ) NAMED_UNIT ( * ) SI_UNIT ( .MILLI., .METRE. ) );
#611 = AXIS2_PLACEMENT_3D ( 'NONE', #148, #727, #144 ) ;
#612 = DIRECTION ( 'NONE',  ( 0.0000000000000000000, 0.0000000000000000000, -1.000000000000000000 ) ) ;
#613 = CARTESIAN_POINT ( 'NONE',  ( 0.0000000000000000000, 2.602085213965210642E-16, 3.500000000000000444 ) ) ;
#614 = DIRECTION ( 'NONE',  ( -0.0000000000000000000, -1.000000000000000000, -0.0000000000000000000 ) ) ;
#615 = UNCERTAINTY_MEASURE_WITH_UNIT (LENGTH_MEASURE( 1.000000000000000082E-05 ), #233, 'distance_accuracy_value', 'NONE');
#616 = DIRECTION ( 'NONE',  ( 1.000000000000000000, 0.0000000000000000000, 0.0000000000000000000 ) ) ;
#617 = ORIENTED_EDGE ( 'NONE', *, *, #733, .T. ) ;
#618 = PLANE ( 'NONE',  #236 ) ;
#619 = DIRECTION ( 'NONE',  ( -0.0000000000000000000, -1.000000000000000000, -0.0000000000000000000 ) ) ;
#620 = EDGE_CURVE ( 'NONE', #210, #41, #68, .T. ) ;
#621 =( NAMED_UNIT ( * ) PLANE_ANGLE_UNIT ( ) SI_UNIT ( $, .RADIAN. ) );
#622 = SURFACE_STYLE_USAGE ( .BOTH. , #34 ) ;
#623 = ORIENTED_EDGE ( 'NONE', *, *, #517, .T. ) ;
#624 = CARTESIAN_POINT ( 'NONE',  ( -6.040915995940141043E-15, 12.00000000000000000, -1.500000000000000000 ) ) ;
#625 = CIRCLE ( 'NONE', #416, 0.5820445842032251349 ) ;
#626 = DIRECTION ( 'NONE',  ( 0.0000000000000000000, 0.0000000000000000000, -1.000000000000000000 ) ) ;
#627 = ORIENTED_EDGE ( 'NONE', *, *, #662, .F. ) ;
#628 = SURFACE_STYLE_USAGE ( .BOTH. , #256 ) ;
#629 = ORIENTED_EDGE ( 'NONE', *, *, #671, .T. ) ;
#630 = DIRECTION ( 'NONE',  ( 0.0000000000000000000, 1.000000000000000000, 0.0000000000000000000 ) ) ;
#631 = EDGE_LOOP ( 'NONE', ( #158, #623, #563, #643 ) ) ;
#632 = PRODUCT_DEFINITION_SHAPE ( 'NONE', 'NONE',  #492 ) ;
#633 = DIRECTION ( 'NONE',  ( 0.0000000000000000000, 1.000000000000000000, 0.0000000000000000000 ) ) ;
#634 =( GEOMETRIC_REPRESENTATION_CONTEXT ( 3 ) GLOBAL_UNCERTAINTY_ASSIGNED_CONTEXT ( ( #651 ) ) GLOBAL_UNIT_ASSIGNED_CONTEXT ( ( #202, #499, #570 ) ) REPRESENTATION_CONTEXT ( 'NONE', 'WORKASPACE' ) );
#635 = CIRCLE ( 'NONE', #294, 4.000000000000000000 ) ;
#636 = ORIENTED_EDGE ( 'NONE', *, *, #328, .F. ) ;
#637 = CARTESIAN_POINT ( 'NONE',  ( -6.040915995940141043E-15, 14.50000000000000000, -1.500000000000000000 ) ) ;
#638 = CARTESIAN_POINT ( 'NONE',  ( 0.0000000000000000000, 10.54909099676163997, -4.000000000000000000 ) ) ;
#639 = CARTESIAN_POINT ( 'NONE',  ( 5.260398104249642006E-16, 10.04760271399255167, 4.295441026679803542 ) ) ;
#640 = LINE ( 'NONE', #330, #338 ) ;
#641 = ADVANCED_FACE ( 'NONE', ( #653 ), #151, .T. ) ;
#642 = CARTESIAN_POINT ( 'NONE',  ( 4.373427270592324740E-16, 10.29645761222695910, 3.571174377491759699 ) ) ;
#643 = ORIENTED_EDGE ( 'NONE', *, *, #725, .F. ) ;
#644 = PRESENTATION_STYLE_ASSIGNMENT (( #534 ) ) ;
#645 = ADVANCED_FACE ( 'NONE', ( #288 ), #494, .T. ) ;
#646 = CIRCLE ( 'NONE', #431, 4.000000000000000000 ) ;
#647 = CARTESIAN_POINT ( 'NONE',  ( -8.000000000000000000, 0.5000000000000004441, 3.999999999999998224 ) ) ;
#648 = CIRCLE ( 'NONE', #220, 4.000000000000000000 ) ;
#649 = ADVANCED_FACE ( 'NONE', ( #686 ), #673, .T. ) ;
#650 = CARTESIAN_POINT ( 'NONE',  ( -9.797174393178825657E-16, 11.50000000000000000, 4.000000000000000000 ) ) ;
#651 = UNCERTAINTY_MEASURE_WITH_UNIT (LENGTH_MEASURE( 1.000000000000000082E-05 ), #202, 'distance_accuracy_value', 'NONE');
#652 = CARTESIAN_POINT ( 'NONE',  ( 6.110095881941418616E-15, 14.50000000000000000, 1.499999999999999556 ) ) ;
#653 = FACE_OUTER_BOUND ( 'NONE', #566, .T. ) ;
#654 = CARTESIAN_POINT ( 'NONE',  ( 7.999999999999999112, 9.546114431223463370, 3.999999999999999556 ) ) ;
#655 = PRESENTATION_LAYER_ASSIGNMENT (  '', '', ( #71 ) ) ;
#656 = CARTESIAN_POINT ( 'NONE',  ( 0.0000000000000000000, 11.79289321881344854, 4.000000000000000000 ) ) ;
#657 = AXIS2_PLACEMENT_3D ( 'NONE', #325, #335, #442 ) ;
#658 =( GEOMETRIC_REPRESENTATION_CONTEXT ( 3 ) GLOBAL_UNCERTAINTY_ASSIGNED_CONTEXT ( ( #553 ) ) GLOBAL_UNIT_ASSIGNED_CONTEXT ( ( #171, #162, #234 ) ) REPRESENTATION_CONTEXT ( 'NONE', 'WORKASPACE' ) );
#659 = EDGE_LOOP ( 'NONE', ( #96, #272, #665, #549 ) ) ;
#660 = CARTESIAN_POINT ( 'NONE',  ( 0.0000000000000000000, 12.00000000000000000, 0.0000000000000000000 ) ) ;
#661 = DIRECTION ( 'NONE',  ( 0.0000000000000000000, 0.0000000000000000000, -1.000000000000000000 ) ) ;
#662 = EDGE_CURVE ( 'NONE', #449, #411, #111, .T. ) ;
#663 = CARTESIAN_POINT ( 'NONE',  ( -4.351332576827047660, 4.336808689942017736E-16, 1.129540490905245553 ) ) ;
#664 = CARTESIAN_POINT ( 'NONE',  ( 3.189402371812183556, 1.734723475976807094E-16, -1.441427247792555377 ) ) ;
#665 = ORIENTED_EDGE ( 'NONE', *, *, #691, .F. ) ;
#666 =( BOUNDED_SURFACE ( )  B_SPLINE_SURFACE ( 3, 3, ( 
 ( #710, #287, #647, #11 ),
 ( #521, #231, #529, #342 ),
 ( #279, #226, #397, #6 ),
 ( #172, #583, #467, #715 ) ),
 .UNSPECIFIED., .F., .F., .T. ) 
 B_SPLINE_SURFACE_WITH_KNOTS ( ( 4, 4 ),
 ( 4, 4 ),
 ( 0.0000000000000000000, 1.000000000000000000 ),
 ( 0.0000000000000000000, 1.000000000000000000 ),
 .UNSPECIFIED. ) 
 GEOMETRIC_REPRESENTATION_ITEM ( )  RATIONAL_B_SPLINE_SURFACE ( (
 ( 1.000000000000000000, 0.3333333333333334259, 0.3333333333333334259, 1.000000000000000000),
 ( 0.8047378541243649375, 0.2682459513747884050, 0.2682459513747884050, 0.8047378541243649375),
 ( 0.8047378541243649375, 0.2682459513747884050, 0.2682459513747884050, 0.8047378541243649375),
 ( 1.000000000000000000, 0.3333333333333334259, 0.3333333333333334259, 1.000000000000000000) ) ) 
 REPRESENTATION_ITEM ( '' )  SURFACE ( )  );
#667 = FACE_OUTER_BOUND ( 'NONE', #86, .T. ) ;
#668 = CARTESIAN_POINT ( 'NONE',  ( -2.821339560341996844, 4.336808689942017736E-16, 3.500000000000000444 ) ) ;
#669 = UNCERTAINTY_MEASURE_WITH_UNIT (LENGTH_MEASURE( 1.000000000000000082E-05 ), #227, 'distance_accuracy_value', 'NONE');
#670 = CARTESIAN_POINT ( 'NONE',  ( 4.898587196589412829E-16, 11.79289321881344854, -4.000000000000000000 ) ) ;
#671 = EDGE_CURVE ( 'NONE', #198, #685, #635, .T. ) ;
#672 = ORIENTED_EDGE ( 'NONE', *, *, #691, .T. ) ;
#674 = STYLED_ITEM ( 'NONE', ( #246 ), #50 ) ;
#673 = CYLINDRICAL_SURFACE ( 'NONE', #738, 4.000000000000000000 ) ;
#675 = AXIS2_PLACEMENT_3D ( 'NONE', #564, #28, #487 ) ;
#676 = CARTESIAN_POINT ( 'NONE',  ( 4.408728476930471151E-16, 12.00000000000000000, -3.500000000000000444 ) ) ;
#677 =( GEOMETRIC_REPRESENTATION_CONTEXT ( 3 ) GLOBAL_UNCERTAINTY_ASSIGNED_CONTEXT ( ( #615 ) ) GLOBAL_UNIT_ASSIGNED_CONTEXT ( ( #233, #357, #714 ) ) REPRESENTATION_CONTEXT ( 'NONE', 'WORKASPACE' ) );
#678 =( NAMED_UNIT ( * ) SI_UNIT ( $, .STERADIAN. ) SOLID_ANGLE_UNIT ( ) );
#679 = CARTESIAN_POINT ( 'NONE',  ( 4.898587196589412829E-16, 11.50000000000000000, -4.000000000000000000 ) ) ;
#680 = ADVANCED_FACE ( 'NONE', ( #735, #372, #742 ), #618, .T. ) ;
#681 = DIRECTION ( 'NONE',  ( -0.0000000000000000000, -1.000000000000000000, -0.0000000000000000000 ) ) ;
#682 = CARTESIAN_POINT ( 'NONE',  ( 0.0000000000000000000, 10.54909099676163997, -4.000000000000000000 ) ) ;
#683 = SURFACE_SIDE_STYLE ('',( #739 ) ) ;
#684 = DIRECTION ( 'NONE',  ( 0.0000000000000000000, 0.0000000000000000000, -1.000000000000000000 ) ) ;
#685 = VERTEX_POINT ( 'NONE', #267 ) ;
#686 = FACE_OUTER_BOUND ( 'NONE', #451, .T. ) ;
#687 = CARTESIAN_POINT ( 'NONE',  ( 4.408728476930472137E-16, 2.602085213965210642E-16, -3.500000000000000444 ) ) ;
#688 = LINE ( 'NONE', #271, #524 ) ;
#689 = ORIENTED_EDGE ( 'NONE', *, *, #224, .T. ) ;
#690 = CARTESIAN_POINT ( 'NONE',  ( 0.0000000000000000000, 12.00000000000000000, 0.0000000000000000000 ) ) ;
#691 = EDGE_CURVE ( 'NONE', #474, #588, #58, .T. ) ;
#692 = VECTOR ( 'NONE', #551, 1000.000000000000000 ) ;
#693 = CARTESIAN_POINT ( 'NONE',  ( -2.606144446949705706, 4.336808689942017736E-16, -2.731984375655561070 ) ) ;
#694 = EDGE_LOOP ( 'NONE', ( #163, #698, #179, #617, #47 ) ) ;
#695 = DIRECTION ( 'NONE',  ( -0.0000000000000000000, -1.000000000000000000, -0.0000000000000000000 ) ) ;
#696 = CARTESIAN_POINT ( 'NONE',  ( 0.0000000000000000000, 0.5000000000000004441, 0.0000000000000000000 ) ) ;
#697 = SURFACE_STYLE_FILL_AREA ( #95 ) ;
#698 = ORIENTED_EDGE ( 'NONE', *, *, #382, .T. ) ;
#699 = FILL_AREA_STYLE_COLOUR ( '', #461 ) ;
#700 =( BOUNDED_CURVE ( )  B_SPLINE_CURVE ( 3, ( #613, #31, #433, #664 ),
 .UNSPECIFIED., .F., .T. ) 
 B_SPLINE_CURVE_WITH_KNOTS ( ( 4, 4 ),
 ( 0.0000000000000000000, 1.000000000000000000 ),
 .UNSPECIFIED. ) 
 CURVE ( )  GEOMETRIC_REPRESENTATION_ITEM ( )  RATIONAL_B_SPLINE_CURVE ( ( 1.000000000000000000, 0.6948620761549613167, 0.6948620761549613167, 1.000000000000000000 ) ) 
 REPRESENTATION_ITEM ( '' )  );
#701 = DIRECTION ( 'NONE',  ( -0.0000000000000000000, -1.000000000000000000, -0.0000000000000000000 ) ) ;
#702 = ORIENTED_EDGE ( 'NONE', *, *, #44, .F. ) ;
#703 = MECHANICAL_DESIGN_GEOMETRIC_PRESENTATION_REPRESENTATION (  '', ( #674 ), #609 ) ;
#704 = STYLED_ITEM ( 'NONE', ( #719 ), #641 ) ;
#705 =( NAMED_UNIT ( * ) PLANE_ANGLE_UNIT ( ) SI_UNIT ( $, .RADIAN. ) );
#706 = EDGE_CURVE ( 'NONE', #266, #41, #480, .T. ) ;
#707 = ORIENTED_EDGE ( 'NONE', *, *, #403, .T. ) ;
#708 = CARTESIAN_POINT ( 'NONE',  ( 4.898587196589412829E-16, 11.79289321881344854, -4.000000000000000000 ) ) ;
#709 = CARTESIAN_POINT ( 'NONE',  ( -6.071532165918824830E-15, 14.50000000000000000, -1.750000000000000000 ) ) ;
#710 = CARTESIAN_POINT ( 'NONE',  ( 4.898587196589412829E-16, 0.5000000000000004441, -4.000000000000000000 ) ) ;
#711 =( GEOMETRIC_REPRESENTATION_CONTEXT ( 3 ) GLOBAL_UNCERTAINTY_ASSIGNED_CONTEXT ( ( #299 ) ) GLOBAL_UNIT_ASSIGNED_CONTEXT ( ( #359, #304, #678 ) ) REPRESENTATION_CONTEXT ( 'NONE', 'WORKASPACE' ) );
#712 = EDGE_CURVE ( 'NONE', #136, #755, #748, .T. ) ;
#713 = FACE_OUTER_BOUND ( 'NONE', #694, .T. ) ;
#714 =( NAMED_UNIT ( * ) SI_UNIT ( $, .STERADIAN. ) SOLID_ANGLE_UNIT ( ) );
#715 = CARTESIAN_POINT ( 'NONE',  ( -8.572527594031473190E-16, 4.336808689942017736E-16, 3.500000000000000000 ) ) ;
#716 = CARTESIAN_POINT ( 'NONE',  ( 6.140712051920102403E-15, 14.50000000000000000, 2.000000000000000444 ) ) ;
#717 = FILL_AREA_STYLE ('',( #2 ) ) ;
#718 = EDGE_LOOP ( 'NONE', ( #591, #387, #130, #63, #161 ) ) ;
#719 = PRESENTATION_STYLE_ASSIGNMENT (( #465 ) ) ;
#720 = STYLED_ITEM ( 'NONE', ( #550 ), #680 ) ;
#721 = CARTESIAN_POINT ( 'NONE',  ( 6.999999999999998224, 12.00000000000000000, -3.499999999999999112 ) ) ;
#722 = AXIS2_PLACEMENT_3D ( 'NONE', #124, #348, #118 ) ;
#723 = STYLED_ITEM ( 'NONE', ( #216 ), #306 ) ;
#724 = ORIENTED_EDGE ( 'NONE', *, *, #54, .T. ) ;
#725 = EDGE_CURVE ( 'NONE', #41, #266, #69, .T. ) ;
#726 = CARTESIAN_POINT ( 'NONE',  ( 0.0000000000000000000, 12.00000000000000000, 3.500000000000000444 ) ) ;
#727 = DIRECTION ( 'NONE',  ( 0.0000000000000000000, 1.000000000000000000, 0.0000000000000000000 ) ) ;
#728 = FILL_AREA_STYLE ('',( #558 ) ) ;
#729 = FILL_AREA_STYLE_COLOUR ( '', #80 ) ;
#730 = DIRECTION ( 'NONE',  ( 0.0000000000000000000, 0.0000000000000000000, -1.000000000000000000 ) ) ;
#731 = ORIENTED_EDGE ( 'NONE', *, *, #620, .T. ) ;
#732 = DIRECTION ( 'NONE',  ( -0.0000000000000000000, -1.000000000000000000, -0.0000000000000000000 ) ) ;
#733 = EDGE_CURVE ( 'NONE', #456, #755, #436, .T. ) ;
#734 = CYLINDRICAL_SURFACE ( 'NONE', #532, 0.2500000000000004441 ) ;
#735 = FACE_BOUND ( 'NONE', #501, .T. ) ;
#736 = AXIS2_PLACEMENT_3D ( 'NONE', #317, #619, #264 ) ;
#737 = DIRECTION ( 'NONE',  ( -1.000000000000000000, 0.0000000000000000000, -1.224646799147353207E-16 ) ) ;
#738 = AXIS2_PLACEMENT_3D ( 'NONE', #32, #251, #77 ) ;
#739 = SURFACE_STYLE_FILL_AREA ( #78 ) ;
#740 = DIRECTION ( 'NONE',  ( -0.0000000000000000000, -1.000000000000000000, -0.0000000000000000000 ) ) ;
#741 = ORIENTED_EDGE ( 'NONE', *, *, #395, .F. ) ;
#742 = FACE_OUTER_BOUND ( 'NONE', #384, .T. ) ;
#743 = CARTESIAN_POINT ( 'NONE',  ( 4.898587196589412829E-16, 0.5000000000000004441, -4.000000000000000000 ) ) ;
#744 = DIRECTION ( 'NONE',  ( -0.0000000000000000000, -1.000000000000000000, -0.0000000000000000000 ) ) ;
#745 = EDGE_LOOP ( 'NONE', ( #112, #290 ) ) ;
#746 = DIRECTION ( 'NONE',  ( 0.0000000000000000000, 1.000000000000000000, 0.0000000000000000000 ) ) ;
#747 =( NAMED_UNIT ( * ) SI_UNIT ( $, .STERADIAN. ) SOLID_ANGLE_UNIT ( ) );
#748 = CIRCLE ( 'NONE', #391, 0.5000000000000000000 ) ;
#749 = VERTEX_POINT ( 'NONE', #94 ) ;
#750 = CIRCLE ( 'NONE', #128, 0.5820445842032251349 ) ;
#751 = DIRECTION ( 'NONE',  ( -0.0000000000000000000, -1.000000000000000000, -0.0000000000000000000 ) ) ;
#752 = COLOUR_RGB ( '',0.0000000000000000000, 0.7215686274509803821, 0.0000000000000000000 ) ;
#753 = PRODUCT_CONTEXT ( 'NONE', #528, 'mechanical' ) ;
#754 = PRESENTATION_STYLE_ASSIGNMENT (( #628 ) ) ;
#755 = VERTEX_POINT ( 'NONE', #82 ) ;
#756 = PLANE ( 'NONE',  #230 ) ;
#757 = FILL_AREA_STYLE ('',( #518 ) ) ;
#758 = CARTESIAN_POINT ( 'NONE',  ( -3.189402371812183556, 1.734723475976807094E-16, -1.441427247792555377 ) ) ;
#759 = EDGE_LOOP ( 'NONE', ( #629, #168, #486, #191 ) ) ;
#760 = CARTESIAN_POINT ( 'NONE',  ( 3.189402371812183556, 1.734723475976807094E-16, -1.441427247792555377 ) ) ;
#761 = ADVANCED_FACE ( 'NONE', ( #538 ), #243, .T. ) ;
#762 = CARTESIAN_POINT ( 'NONE',  ( 6.140712051920102403E-15, 12.00000000000000000, 2.000000000000000444 ) ) ;
#763 =( LENGTH_UNIT ( ) NAMED_UNIT ( * ) SI_UNIT ( .MILLI., .METRE. ) );
ENDSEC;
END-ISO-10303-21;
