ISO-10303-21;
HEADER;
FILE_DESCRIPTION((''),'2;1');
FILE_NAME('PRT0001','2022-04-03T11:09:26',('fyq'),(''),
'CREO PARAMETRIC BY PTC INC, 2020033','CREO PARAMETRIC BY PTC INC, 2020033','');
FILE_SCHEMA(('CONFIG_CONTROL_DESIGN'));
ENDSEC;
DATA;
#1=DIRECTION('',(-7.071067811865E-1,7.071067811865E-1,0.E0));
#2=VECTOR('',#1,1.866761902332E0);
#3=CARTESIAN_POINT('',(3.3E0,1.98E0,0.E0));
#4=LINE('',#3,#2);
#5=DIRECTION('',(7.071067811865E-1,7.071067811865E-1,0.E0));
#6=VECTOR('',#5,1.866761902332E0);
#7=CARTESIAN_POINT('',(1.98E0,-3.3E0,0.E0));
#8=LINE('',#7,#6);
#9=DIRECTION('',(0.E0,-1.E0,0.E0));
#10=VECTOR('',#9,7.E-2);
#11=CARTESIAN_POINT('',(1.05E0,-3.5E-1,0.E0));
#12=LINE('',#11,#10);
#13=DIRECTION('',(0.E0,0.E0,-1.E0));
#14=VECTOR('',#13,2.E-1);
#15=CARTESIAN_POINT('',(1.05E0,4.2E-1,2.E-1));
#16=LINE('',#15,#14);
#17=DIRECTION('',(0.E0,-1.E0,0.E0));
#18=VECTOR('',#17,7.E-2);
#19=CARTESIAN_POINT('',(1.05E0,4.2E-1,0.E0));
#20=LINE('',#19,#18);
#21=DIRECTION('',(0.E0,0.E0,1.E0));
#22=VECTOR('',#21,2.E-1);
#23=CARTESIAN_POINT('',(1.05E0,-3.5E-1,0.E0));
#24=LINE('',#23,#22);
#25=DIRECTION('',(1.E0,0.E0,0.E0));
#26=VECTOR('',#25,2.25E0);
#27=CARTESIAN_POINT('',(1.05E0,-3.5E-1,2.E-1));
#28=LINE('',#27,#26);
#29=DIRECTION('',(-1.E0,0.E0,0.E0));
#30=VECTOR('',#29,2.6E0);
#31=CARTESIAN_POINT('',(3.65E0,-3.5E-1,0.E0));
#32=LINE('',#31,#30);
#33=DIRECTION('',(0.E0,-1.E0,0.E0));
#34=VECTOR('',#33,7.E-2);
#35=CARTESIAN_POINT('',(1.05E0,-3.5E-1,2.E-1));
#36=LINE('',#35,#34);
#37=DIRECTION('',(1.E0,0.E0,0.E0));
#38=VECTOR('',#37,2.25E0);
#39=CARTESIAN_POINT('',(1.05E0,-4.2E-1,2.E-1));
#40=LINE('',#39,#38);
#41=DIRECTION('',(-1.E0,0.E0,0.E0));
#42=VECTOR('',#41,2.25E0);
#43=CARTESIAN_POINT('',(3.3E0,4.2E-1,2.E-1));
#44=LINE('',#43,#42);
#45=DIRECTION('',(0.E0,-1.E0,0.E0));
#46=VECTOR('',#45,7.E-2);
#47=CARTESIAN_POINT('',(1.05E0,4.2E-1,2.E-1));
#48=LINE('',#47,#46);
#49=DIRECTION('',(1.E0,0.E0,0.E0));
#50=VECTOR('',#49,2.25E0);
#51=CARTESIAN_POINT('',(1.05E0,-4.2E-1,0.E0));
#52=LINE('',#51,#50);
#53=DIRECTION('',(0.E0,0.E0,-1.E0));
#54=VECTOR('',#53,2.E-1);
#55=CARTESIAN_POINT('',(1.05E0,-4.2E-1,2.E-1));
#56=LINE('',#55,#54);
#57=DIRECTION('',(0.E0,-1.E0,0.E0));
#58=VECTOR('',#57,7.E-2);
#59=CARTESIAN_POINT('',(3.3E0,-3.5E-1,2.E-1));
#60=LINE('',#59,#58);
#61=DIRECTION('',(0.E0,0.E0,-1.E0));
#62=VECTOR('',#61,2.E-1);
#63=CARTESIAN_POINT('',(3.3E0,-4.2E-1,2.E-1));
#64=LINE('',#63,#62);
#65=DIRECTION('',(0.E0,-1.E0,0.E0));
#66=VECTOR('',#65,1.56E0);
#67=CARTESIAN_POINT('',(3.3E0,-4.2E-1,0.E0));
#68=LINE('',#67,#66);
#69=DIRECTION('',(-2.220446049250E-14,-2.257453483404E-14,1.E0));
#70=VECTOR('',#69,6.E-1);
#71=CARTESIAN_POINT('',(3.3E0,-1.98E0,0.E0));
#72=LINE('',#71,#70);
#73=DIRECTION('',(5.674434894745E-14,1.E0,0.E0));
#74=VECTOR('',#73,9.234845008239E-1);
#75=CARTESIAN_POINT('',(3.3E0,-1.98E0,6.E-1));
#76=LINE('',#75,#74);
#77=DIRECTION('',(-5.722523326056E-14,1.E0,0.E0));
#78=VECTOR('',#77,9.234845008239E-1);
#79=CARTESIAN_POINT('',(3.3E0,1.056515499176E0,6.E-1));
#80=LINE('',#79,#78);
#81=DIRECTION('',(0.E0,0.E0,-1.E0));
#82=VECTOR('',#81,6.E-1);
#83=CARTESIAN_POINT('',(3.3E0,1.98E0,6.E-1));
#84=LINE('',#83,#82);
#85=DIRECTION('',(0.E0,-1.E0,0.E0));
#86=VECTOR('',#85,1.56E0);
#87=CARTESIAN_POINT('',(3.3E0,1.98E0,0.E0));
#88=LINE('',#87,#86);
#89=DIRECTION('',(0.E0,0.E0,1.E0));
#90=VECTOR('',#89,2.E-1);
#91=CARTESIAN_POINT('',(3.3E0,4.2E-1,0.E0));
#92=LINE('',#91,#90);
#93=DIRECTION('',(0.E0,-1.E0,0.E0));
#94=VECTOR('',#93,7.E-2);
#95=CARTESIAN_POINT('',(3.3E0,4.2E-1,2.E-1));
#96=LINE('',#95,#94);
#97=DIRECTION('',(0.E0,1.E0,0.E0));
#98=VECTOR('',#97,7.E-1);
#99=CARTESIAN_POINT('',(3.3E0,-3.5E-1,2.E-1));
#100=LINE('',#99,#98);
#101=DIRECTION('',(1.E0,0.E0,0.E0));
#102=VECTOR('',#101,3.5E-1);
#103=CARTESIAN_POINT('',(3.3E0,3.5E-1,2.E-1));
#104=LINE('',#103,#102);
#105=DIRECTION('',(0.E0,-1.E0,0.E0));
#106=VECTOR('',#105,7.E-1);
#107=CARTESIAN_POINT('',(3.65E0,3.5E-1,2.E-1));
#108=LINE('',#107,#106);
#109=DIRECTION('',(-1.E0,0.E0,0.E0));
#110=VECTOR('',#109,3.5E-1);
#111=CARTESIAN_POINT('',(3.65E0,-3.5E-1,2.E-1));
#112=LINE('',#111,#110);
#113=DIRECTION('',(0.E0,0.E0,1.E0));
#114=VECTOR('',#113,2.E-1);
#115=CARTESIAN_POINT('',(1.05E0,3.5E-1,0.E0));
#116=LINE('',#115,#114);
#117=DIRECTION('',(1.E0,0.E0,0.E0));
#118=VECTOR('',#117,2.6E0);
#119=CARTESIAN_POINT('',(1.05E0,3.5E-1,0.E0));
#120=LINE('',#119,#118);
#121=DIRECTION('',(1.E0,0.E0,0.E0));
#122=VECTOR('',#121,2.25E0);
#123=CARTESIAN_POINT('',(1.05E0,3.5E-1,2.E-1));
#124=LINE('',#123,#122);
#125=DIRECTION('',(0.E0,0.E0,-1.E0));
#126=VECTOR('',#125,2.E-1);
#127=CARTESIAN_POINT('',(3.65E0,3.5E-1,2.E-1));
#128=LINE('',#127,#126);
#129=DIRECTION('',(0.E0,-1.E0,0.E0));
#130=VECTOR('',#129,7.E-1);
#131=CARTESIAN_POINT('',(3.65E0,3.5E-1,0.E0));
#132=LINE('',#131,#130);
#133=DIRECTION('',(0.E0,0.E0,1.E0));
#134=VECTOR('',#133,2.E-1);
#135=CARTESIAN_POINT('',(3.65E0,-3.5E-1,0.E0));
#136=LINE('',#135,#134);
#137=DIRECTION('',(0.E0,0.E0,1.E0));
#138=VECTOR('',#137,6.E-1);
#139=CARTESIAN_POINT('',(1.98E0,-3.3E0,0.E0));
#140=LINE('',#139,#138);
#141=DIRECTION('',(-1.E0,0.E0,0.E0));
#142=VECTOR('',#141,5.28E0);
#143=CARTESIAN_POINT('',(1.98E0,-3.3E0,0.E0));
#144=LINE('',#143,#142);
#145=DIRECTION('',(0.E0,1.421085471520E-14,1.E0));
#146=VECTOR('',#145,1.E0);
#147=CARTESIAN_POINT('',(-3.3E0,-3.3E0,0.E0));
#148=LINE('',#147,#146);
#149=DIRECTION('',(1.E0,-2.335765045092E-14,0.E0));
#150=VECTOR('',#149,2.243484500824E0);
#151=CARTESIAN_POINT('',(-3.3E0,-3.3E0,1.E0));
#152=LINE('',#151,#150);
#153=DIRECTION('',(1.E0,0.E0,0.E0));
#154=VECTOR('',#153,2.113030998352E0);
#155=CARTESIAN_POINT('',(-1.056515499176E0,-3.3E0,5.E-1));
#156=LINE('',#155,#154);
#157=DIRECTION('',(1.E0,5.722523326056E-14,0.E0));
#158=VECTOR('',#157,9.234845008239E-1);
#159=CARTESIAN_POINT('',(1.056515499176E0,-3.3E0,6.E-1));
#160=LINE('',#159,#158);
#161=DIRECTION('',(0.E0,1.E0,0.E0));
#162=VECTOR('',#161,7.E-2);
#163=CARTESIAN_POINT('',(-3.3E0,3.5E-1,2.E-1));
#164=LINE('',#163,#162);
#165=DIRECTION('',(0.E0,0.E0,-1.E0));
#166=VECTOR('',#165,2.E-1);
#167=CARTESIAN_POINT('',(-3.3E0,4.2E-1,2.E-1));
#168=LINE('',#167,#166);
#169=DIRECTION('',(0.E0,1.E0,0.E0));
#170=VECTOR('',#169,2.88E0);
#171=CARTESIAN_POINT('',(-3.3E0,4.2E-1,0.E0));
#172=LINE('',#171,#170);
#173=DIRECTION('',(1.421085471520E-14,0.E0,1.E0));
#174=VECTOR('',#173,1.E0);
#175=CARTESIAN_POINT('',(-3.3E0,3.3E0,0.E0));
#176=LINE('',#175,#174);
#177=DIRECTION('',(-2.335765045092E-14,-1.E0,0.E0));
#178=VECTOR('',#177,2.243484500824E0);
#179=CARTESIAN_POINT('',(-3.3E0,3.3E0,1.E0));
#180=LINE('',#179,#178);
#181=DIRECTION('',(0.E0,-1.E0,0.E0));
#182=VECTOR('',#181,2.113030998352E0);
#183=CARTESIAN_POINT('',(-3.3E0,1.056515499176E0,5.E-1));
#184=LINE('',#183,#182);
#185=DIRECTION('',(2.355559664119E-14,-1.E0,0.E0));
#186=VECTOR('',#185,2.243484500824E0);
#187=CARTESIAN_POINT('',(-3.3E0,-1.056515499176E0,1.E0));
#188=LINE('',#187,#186);
#189=DIRECTION('',(0.E0,1.E0,0.E0));
#190=VECTOR('',#189,2.88E0);
#191=CARTESIAN_POINT('',(-3.3E0,-3.3E0,0.E0));
#192=LINE('',#191,#190);
#193=DIRECTION('',(0.E0,0.E0,1.E0));
#194=VECTOR('',#193,2.E-1);
#195=CARTESIAN_POINT('',(-3.3E0,-4.2E-1,0.E0));
#196=LINE('',#195,#194);
#197=DIRECTION('',(0.E0,1.E0,0.E0));
#198=VECTOR('',#197,7.E-2);
#199=CARTESIAN_POINT('',(-3.3E0,-4.2E-1,2.E-1));
#200=LINE('',#199,#198);
#201=DIRECTION('',(0.E0,1.E0,0.E0));
#202=VECTOR('',#201,7.E-1);
#203=CARTESIAN_POINT('',(-3.3E0,-3.5E-1,2.E-1));
#204=LINE('',#203,#202);
#205=DIRECTION('',(-1.E0,0.E0,0.E0));
#206=VECTOR('',#205,2.25E0);
#207=CARTESIAN_POINT('',(-1.05E0,-3.5E-1,2.E-1));
#208=LINE('',#207,#206);
#209=DIRECTION('',(0.E0,0.E0,-1.E0));
#210=VECTOR('',#209,2.E-1);
#211=CARTESIAN_POINT('',(-1.05E0,-3.5E-1,2.E-1));
#212=LINE('',#211,#210);
#213=DIRECTION('',(-1.E0,0.E0,0.E0));
#214=VECTOR('',#213,2.6E0);
#215=CARTESIAN_POINT('',(-1.05E0,-3.5E-1,0.E0));
#216=LINE('',#215,#214);
#217=DIRECTION('',(0.E0,0.E0,1.E0));
#218=VECTOR('',#217,2.E-1);
#219=CARTESIAN_POINT('',(-3.65E0,-3.5E-1,0.E0));
#220=LINE('',#219,#218);
#221=DIRECTION('',(1.E0,0.E0,0.E0));
#222=VECTOR('',#221,3.5E-1);
#223=CARTESIAN_POINT('',(-3.65E0,-3.5E-1,2.E-1));
#224=LINE('',#223,#222);
#225=DIRECTION('',(1.E0,0.E0,0.E0));
#226=VECTOR('',#225,2.25E0);
#227=CARTESIAN_POINT('',(-3.3E0,-4.2E-1,2.E-1));
#228=LINE('',#227,#226);
#229=DIRECTION('',(0.E0,1.E0,0.E0));
#230=VECTOR('',#229,7.E-2);
#231=CARTESIAN_POINT('',(-1.05E0,-4.2E-1,2.E-1));
#232=LINE('',#231,#230);
#233=DIRECTION('',(0.E0,1.E0,0.E0));
#234=VECTOR('',#233,7.E-2);
#235=CARTESIAN_POINT('',(-1.05E0,3.5E-1,2.E-1));
#236=LINE('',#235,#234);
#237=DIRECTION('',(-1.E0,0.E0,0.E0));
#238=VECTOR('',#237,2.25E0);
#239=CARTESIAN_POINT('',(-1.05E0,4.2E-1,2.E-1));
#240=LINE('',#239,#238);
#241=DIRECTION('',(1.E0,0.E0,0.E0));
#242=VECTOR('',#241,2.25E0);
#243=CARTESIAN_POINT('',(-3.3E0,-4.2E-1,0.E0));
#244=LINE('',#243,#242);
#245=DIRECTION('',(0.E0,0.E0,-1.E0));
#246=VECTOR('',#245,2.E-1);
#247=CARTESIAN_POINT('',(-1.05E0,-4.2E-1,2.E-1));
#248=LINE('',#247,#246);
#249=DIRECTION('',(0.E0,1.E0,0.E0));
#250=VECTOR('',#249,7.E-2);
#251=CARTESIAN_POINT('',(-1.05E0,-4.2E-1,0.E0));
#252=LINE('',#251,#250);
#253=DIRECTION('',(0.E0,1.E0,0.E0));
#254=VECTOR('',#253,7.E-2);
#255=CARTESIAN_POINT('',(-1.05E0,3.5E-1,0.E0));
#256=LINE('',#255,#254);
#257=DIRECTION('',(-1.E0,0.E0,0.E0));
#258=VECTOR('',#257,2.25E0);
#259=CARTESIAN_POINT('',(-1.05E0,3.5E-1,2.E-1));
#260=LINE('',#259,#258);
#261=DIRECTION('',(-1.E0,0.E0,0.E0));
#262=VECTOR('',#261,3.5E-1);
#263=CARTESIAN_POINT('',(-3.3E0,3.5E-1,2.E-1));
#264=LINE('',#263,#262);
#265=DIRECTION('',(0.E0,0.E0,-1.E0));
#266=VECTOR('',#265,2.E-1);
#267=CARTESIAN_POINT('',(-3.65E0,3.5E-1,2.E-1));
#268=LINE('',#267,#266);
#269=DIRECTION('',(1.E0,0.E0,0.E0));
#270=VECTOR('',#269,2.6E0);
#271=CARTESIAN_POINT('',(-3.65E0,3.5E-1,0.E0));
#272=LINE('',#271,#270);
#273=DIRECTION('',(0.E0,0.E0,1.E0));
#274=VECTOR('',#273,2.E-1);
#275=CARTESIAN_POINT('',(-1.05E0,3.5E-1,0.E0));
#276=LINE('',#275,#274);
#277=DIRECTION('',(0.E0,-1.E0,0.E0));
#278=VECTOR('',#277,7.E-1);
#279=CARTESIAN_POINT('',(-3.65E0,3.5E-1,2.E-1));
#280=LINE('',#279,#278);
#281=DIRECTION('',(0.E0,1.E0,0.E0));
#282=VECTOR('',#281,7.E-1);
#283=CARTESIAN_POINT('',(-3.65E0,-3.5E-1,0.E0));
#284=LINE('',#283,#282);
#285=DIRECTION('',(-1.E0,0.E0,0.E0));
#286=VECTOR('',#285,2.25E0);
#287=CARTESIAN_POINT('',(-1.05E0,4.2E-1,0.E0));
#288=LINE('',#287,#286);
#289=DIRECTION('',(0.E0,0.E0,-1.E0));
#290=VECTOR('',#289,2.E-1);
#291=CARTESIAN_POINT('',(-1.05E0,4.2E-1,2.E-1));
#292=LINE('',#291,#290);
#293=DIRECTION('',(-1.E0,0.E0,0.E0));
#294=VECTOR('',#293,2.113030998352E0);
#295=CARTESIAN_POINT('',(1.056515499176E0,3.3E0,5.E-1));
#296=LINE('',#295,#294);
#297=DIRECTION('',(-1.E0,-2.355559664119E-14,0.E0));
#298=VECTOR('',#297,2.243484500824E0);
#299=CARTESIAN_POINT('',(-1.056515499176E0,3.3E0,1.E0));
#300=LINE('',#299,#298);
#301=DIRECTION('',(1.E0,0.E0,0.E0));
#302=VECTOR('',#301,5.28E0);
#303=CARTESIAN_POINT('',(-3.3E0,3.3E0,0.E0));
#304=LINE('',#303,#302);
#305=DIRECTION('',(2.257453483404E-14,-2.220446049250E-14,1.E0));
#306=VECTOR('',#305,6.E-1);
#307=CARTESIAN_POINT('',(1.98E0,3.3E0,0.E0));
#308=LINE('',#307,#306);
#309=DIRECTION('',(-1.E0,5.674434894745E-14,0.E0));
#310=VECTOR('',#309,9.234845008239E-1);
#311=CARTESIAN_POINT('',(1.98E0,3.3E0,6.E-1));
#312=LINE('',#311,#310);
#313=CARTESIAN_POINT('',(0.E0,0.E0,5.E-1));
#314=DIRECTION('',(0.E0,0.E0,-1.E0));
#315=DIRECTION('',(-3.049106779730E-1,-9.523809523810E-1,0.E0));
#316=AXIS2_PLACEMENT_3D('',#313,#314,#315);
#318=CARTESIAN_POINT('',(0.E0,0.E0,5.E-1));
#319=DIRECTION('',(0.E0,0.E0,-1.E0));
#320=DIRECTION('',(-9.523809523810E-1,3.049106779730E-1,0.E0));
#321=AXIS2_PLACEMENT_3D('',#318,#319,#320);
#323=CARTESIAN_POINT('',(0.E0,0.E0,5.E-1));
#324=DIRECTION('',(0.E0,0.E0,-1.E0));
#325=DIRECTION('',(3.049106779730E-1,9.523809523810E-1,0.E0));
#326=AXIS2_PLACEMENT_3D('',#323,#324,#325);
#328=DIRECTION('',(0.E0,-1.E0,0.E0));
#329=VECTOR('',#328,2.113030998352E0);
#330=CARTESIAN_POINT('',(3.3E0,1.056515499176E0,5.E-1));
#331=LINE('',#330,#329);
#332=CARTESIAN_POINT('',(0.E0,0.E0,5.E-1));
#333=DIRECTION('',(0.E0,0.E0,-1.E0));
#334=DIRECTION('',(9.523809523810E-1,-3.049106779730E-1,0.E0));
#335=AXIS2_PLACEMENT_3D('',#332,#333,#334);
#337=CARTESIAN_POINT('',(0.E0,0.E0,5.E-1));
#338=DIRECTION('',(0.E0,0.E0,1.E0));
#339=DIRECTION('',(1.E0,0.E0,0.E0));
#340=AXIS2_PLACEMENT_3D('',#337,#338,#339);
#342=CARTESIAN_POINT('',(0.E0,0.E0,5.E-1));
#343=DIRECTION('',(0.E0,0.E0,1.E0));
#344=DIRECTION('',(-1.E0,0.E0,0.E0));
#345=AXIS2_PLACEMENT_3D('',#342,#343,#344);
#347=DIRECTION('',(3.064215547965E-14,0.E0,1.E0));
#348=VECTOR('',#347,5.E-1);
#349=CARTESIAN_POINT('',(-1.056515499176E0,-3.3E0,5.E-1));
#350=LINE('',#349,#348);
#351=DIRECTION('',(2.753353101070E-14,-3.730349362741E-14,-1.E0));
#352=VECTOR('',#351,5.E-1);
#353=CARTESIAN_POINT('',(-3.3E0,-1.056515499176E0,1.E0));
#354=LINE('',#353,#352);
#355=CARTESIAN_POINT('',(0.E0,0.E0,1.E0));
#356=DIRECTION('',(0.E0,0.E0,1.E0));
#357=DIRECTION('',(-9.523809523810E-1,-3.049106779730E-1,0.E0));
#358=AXIS2_PLACEMENT_3D('',#355,#356,#357);
#360=DIRECTION('',(-3.774758283726E-14,-2.575717417130E-14,-1.E0));
#361=VECTOR('',#360,5.E-1);
#362=CARTESIAN_POINT('',(-1.056515499176E0,3.3E0,1.E0));
#363=LINE('',#362,#361);
#364=DIRECTION('',(0.E0,-3.108624468950E-14,1.E0));
#365=VECTOR('',#364,5.E-1);
#366=CARTESIAN_POINT('',(-3.3E0,1.056515499176E0,5.E-1));
#367=LINE('',#366,#365);
#368=CARTESIAN_POINT('',(0.E0,0.E0,1.E0));
#369=DIRECTION('',(0.E0,0.E0,1.E0));
#370=DIRECTION('',(-3.049106779730E-1,9.523809523810E-1,0.E0));
#371=AXIS2_PLACEMENT_3D('',#368,#369,#370);
#373=DIRECTION('',(-1.532107773983E-13,0.E0,1.E0));
#374=VECTOR('',#373,1.E-1);
#375=CARTESIAN_POINT('',(1.056515499176E0,3.3E0,5.E-1));
#376=LINE('',#375,#374);
#377=DIRECTION('',(-1.376676550535E-13,1.865174681370E-13,-1.E0));
#378=VECTOR('',#377,1.E-1);
#379=CARTESIAN_POINT('',(3.3E0,1.056515499176E0,6.E-1));
#380=LINE('',#379,#378);
#381=CARTESIAN_POINT('',(0.E0,0.E0,6.E-1));
#382=DIRECTION('',(0.E0,0.E0,1.E0));
#383=DIRECTION('',(9.523809523810E-1,3.049106779730E-1,0.E0));
#384=AXIS2_PLACEMENT_3D('',#381,#382,#383);
#386=DIRECTION('',(7.071067811865E-1,-7.071067811865E-1,0.E0));
#387=VECTOR('',#386,1.866761902332E0);
#388=CARTESIAN_POINT('',(1.98E0,3.3E0,6.E-1));
#389=LINE('',#388,#387);
#390=DIRECTION('',(0.E0,1.532107773983E-13,1.E0));
#391=VECTOR('',#390,1.E-1);
#392=CARTESIAN_POINT('',(3.3E0,-1.056515499176E0,5.E-1));
#393=LINE('',#392,#391);
#394=DIRECTION('',(1.865174681370E-13,1.376676550535E-13,-1.E0));
#395=VECTOR('',#394,1.E-1);
#396=CARTESIAN_POINT('',(1.056515499176E0,-3.3E0,6.E-1));
#397=LINE('',#396,#395);
#398=CARTESIAN_POINT('',(0.E0,0.E0,6.E-1));
#399=DIRECTION('',(0.E0,0.E0,1.E0));
#400=DIRECTION('',(3.049106779730E-1,-9.523809523810E-1,0.E0));
#401=AXIS2_PLACEMENT_3D('',#398,#399,#400);
#403=DIRECTION('',(-7.071067811865E-1,-7.071067811865E-1,0.E0));
#404=VECTOR('',#403,1.866761902332E0);
#405=CARTESIAN_POINT('',(3.3E0,-1.98E0,6.E-1));
#406=LINE('',#405,#404);
#407=CARTESIAN_POINT('',(0.E0,0.E0,6.E-1));
#408=DIRECTION('',(0.E0,0.E0,1.E0));
#409=DIRECTION('',(1.E0,0.E0,0.E0));
#410=AXIS2_PLACEMENT_3D('',#407,#408,#409);
#412=CARTESIAN_POINT('',(-2.95E0,0.E0,6.E-1));
#413=DIRECTION('',(0.E0,-1.E0,0.E0));
#414=DIRECTION('',(-1.E0,0.E0,0.E0));
#415=AXIS2_PLACEMENT_3D('',#412,#413,#414);
#417=CARTESIAN_POINT('',(0.E0,0.E0,6.E-1));
#418=DIRECTION('',(0.E0,0.E0,1.E0));
#419=DIRECTION('',(-1.E0,0.E0,0.E0));
#420=AXIS2_PLACEMENT_3D('',#417,#418,#419);
#422=CARTESIAN_POINT('',(2.95E0,0.E0,6.E-1));
#423=DIRECTION('',(0.E0,1.E0,0.E0));
#424=DIRECTION('',(1.E0,0.E0,0.E0));
#425=AXIS2_PLACEMENT_3D('',#422,#423,#424);
#427=DIRECTION('',(0.E0,0.E0,-1.E0));
#428=VECTOR('',#427,2.798615950711E-1);
#429=CARTESIAN_POINT('',(3.15E0,0.E0,8.798615950711E-1));
#430=LINE('',#429,#428);
#431=DIRECTION('',(0.E0,0.E0,-1.E0));
#432=VECTOR('',#431,2.798615950711E-1);
#433=CARTESIAN_POINT('',(-3.15E0,0.E0,8.798615950711E-1));
#434=LINE('',#433,#432);
#435=CARTESIAN_POINT('',(0.E0,0.E0,1.040885598152E0));
#436=DIRECTION('',(0.E0,0.E0,1.E0));
#437=DIRECTION('',(1.E0,0.E0,0.E0));
#438=AXIS2_PLACEMENT_3D('',#435,#436,#437);
#440=CARTESIAN_POINT('',(-2.835E0,0.E0,8.798615950711E-1));
#441=DIRECTION('',(0.E0,-1.E0,0.E0));
#442=DIRECTION('',(-8.594693320280E-1,0.E0,5.111873113676E-1));
#443=AXIS2_PLACEMENT_3D('',#440,#441,#442);
#445=CARTESIAN_POINT('',(0.E0,0.E0,8.798615950711E-1));
#446=DIRECTION('',(0.E0,0.E0,-1.E0));
#447=DIRECTION('',(-1.E0,0.E0,0.E0));
#448=AXIS2_PLACEMENT_3D('',#445,#446,#447);
#450=CARTESIAN_POINT('',(0.E0,0.E0,8.798615950711E-1));
#451=DIRECTION('',(0.E0,0.E0,-1.E0));
#452=DIRECTION('',(1.E0,0.E0,0.E0));
#453=AXIS2_PLACEMENT_3D('',#450,#451,#452);
#455=CARTESIAN_POINT('',(0.E0,0.E0,1.040885598152E0));
#456=DIRECTION('',(0.E0,0.E0,1.E0));
#457=DIRECTION('',(-1.E0,0.E0,0.E0));
#458=AXIS2_PLACEMENT_3D('',#455,#456,#457);
#460=CARTESIAN_POINT('',(2.835E0,0.E0,8.798615950711E-1));
#461=DIRECTION('',(0.E0,1.E0,0.E0));
#462=DIRECTION('',(8.594693320280E-1,0.E0,5.111873113676E-1));
#463=AXIS2_PLACEMENT_3D('',#460,#461,#462);
#465=CARTESIAN_POINT('',(3.268172543342E0,0.E0,1.1375E0));
#466=DIRECTION('',(0.E0,-1.E0,0.E0));
#467=DIRECTION('',(-8.594693320288E-1,0.E0,5.111873113664E-1));
#468=AXIS2_PLACEMENT_3D('',#465,#466,#467);
#470=CARTESIAN_POINT('',(-3.268172543342E0,0.E0,1.1375E0));
#471=DIRECTION('',(0.E0,-1.E0,0.E0));
#472=DIRECTION('',(8.594693320288E-1,0.E0,-5.111873113664E-1));
#473=AXIS2_PLACEMENT_3D('',#470,#471,#472);
#475=CARTESIAN_POINT('',(0.E0,0.E0,1.234114401848E0));
#476=DIRECTION('',(0.E0,0.E0,-1.E0));
#477=DIRECTION('',(-1.E0,0.E0,0.E0));
#478=AXIS2_PLACEMENT_3D('',#475,#476,#477);
#480=CARTESIAN_POINT('',(2.835E0,0.E0,1.395138404929E0));
#481=DIRECTION('',(0.E0,-1.E0,0.E0));
#482=DIRECTION('',(8.594693320279E-1,0.E0,-5.111873113679E-1));
#483=AXIS2_PLACEMENT_3D('',#480,#481,#482);
#485=CARTESIAN_POINT('',(0.E0,0.E0,1.395138404929E0));
#486=DIRECTION('',(0.E0,0.E0,1.E0));
#487=DIRECTION('',(1.E0,0.E0,0.E0));
#488=AXIS2_PLACEMENT_3D('',#485,#486,#487);
#490=CARTESIAN_POINT('',(0.E0,0.E0,1.395138404929E0));
#491=DIRECTION('',(0.E0,0.E0,1.E0));
#492=DIRECTION('',(-1.E0,0.E0,0.E0));
#493=AXIS2_PLACEMENT_3D('',#490,#491,#492);
#495=CARTESIAN_POINT('',(0.E0,0.E0,1.234114401848E0));
#496=DIRECTION('',(0.E0,0.E0,-1.E0));
#497=DIRECTION('',(1.E0,0.E0,0.E0));
#498=AXIS2_PLACEMENT_3D('',#495,#496,#497);
#500=CARTESIAN_POINT('',(-2.835E0,0.E0,1.395138404929E0));
#501=DIRECTION('',(0.E0,1.E0,0.E0));
#502=DIRECTION('',(-8.594693320279E-1,0.E0,-5.111873113679E-1));
#503=AXIS2_PLACEMENT_3D('',#500,#501,#502);
#505=CARTESIAN_POINT('',(0.E0,0.E0,1.33E1));
#506=DIRECTION('',(0.E0,0.E0,1.E0));
#507=DIRECTION('',(-1.E0,0.E0,0.E0));
#508=AXIS2_PLACEMENT_3D('',#505,#506,#507);
#510=CARTESIAN_POINT('',(0.E0,0.E0,1.35E1));
#511=DIRECTION('',(0.E0,0.E0,1.E0));
#512=DIRECTION('',(-1.E0,0.E0,0.E0));
#513=AXIS2_PLACEMENT_3D('',#510,#511,#512);
#515=CARTESIAN_POINT('',(2.95E0,9.942047185518E-13,1.33E1));
#516=DIRECTION('',(-3.370194748276E-13,1.E0,0.E0));
#517=DIRECTION('',(0.E0,0.E0,1.E0));
#518=AXIS2_PLACEMENT_3D('',#515,#516,#517);
#520=CARTESIAN_POINT('',(0.E0,0.E0,1.35E1));
#521=DIRECTION('',(0.E0,0.E0,1.E0));
#522=DIRECTION('',(0.E0,1.E0,0.E0));
#523=AXIS2_PLACEMENT_3D('',#520,#521,#522);
#525=CARTESIAN_POINT('',(-2.95E0,-9.991139859888E-13,1.33E1));
#526=DIRECTION('',(3.386830746410E-13,-1.E0,0.E0));
#527=DIRECTION('',(0.E0,0.E0,1.E0));
#528=AXIS2_PLACEMENT_3D('',#525,#526,#527);
#530=CARTESIAN_POINT('',(0.E0,0.E0,1.33E1));
#531=DIRECTION('',(0.E0,0.E0,1.E0));
#532=DIRECTION('',(1.E0,0.E0,0.E0));
#533=AXIS2_PLACEMENT_3D('',#530,#531,#532);
#535=DIRECTION('',(0.E0,4.473995173575E-14,-1.E0));
#536=VECTOR('',#535,1.190486159507E1);
#537=CARTESIAN_POINT('',(-3.15E0,-5.327193741196E-13,1.33E1));
#538=LINE('',#537,#536);
#539=DIRECTION('',(0.E0,4.462235928547E-14,1.E0));
#540=VECTOR('',#539,1.190486159507E1);
#541=CARTESIAN_POINT('',(3.15E0,0.E0,1.395138404929E0));
#542=LINE('',#541,#540);
#543=CARTESIAN_POINT('',(0.E0,0.E0,1.35E1));
#544=DIRECTION('',(0.E0,0.E0,-1.E0));
#545=DIRECTION('',(0.E0,1.E0,0.E0));
#546=AXIS2_PLACEMENT_3D('',#543,#544,#545);
#548=CARTESIAN_POINT('',(0.E0,0.E0,1.35E1));
#549=DIRECTION('',(0.E0,0.E0,-1.E0));
#550=DIRECTION('',(1.E0,0.E0,0.E0));
#551=AXIS2_PLACEMENT_3D('',#548,#549,#550);
#553=DIRECTION('',(0.E0,1.E0,0.E0));
#554=VECTOR('',#553,5.9E0);
#555=CARTESIAN_POINT('',(0.E0,-2.95E0,1.35E1));
#556=LINE('',#555,#554);
#557=DIRECTION('',(0.E0,0.E0,-1.E0));
#558=VECTOR('',#557,1.6E0);
#559=CARTESIAN_POINT('',(0.E0,2.95E0,1.35E1));
#560=LINE('',#559,#558);
#561=DIRECTION('',(0.E0,0.E0,1.E0));
#562=VECTOR('',#561,1.6E0);
#563=CARTESIAN_POINT('',(0.E0,-2.95E0,1.19E1));
#564=LINE('',#563,#562);
#565=CARTESIAN_POINT('',(0.E0,0.E0,1.19E1));
#566=DIRECTION('',(0.E0,0.E0,-1.E0));
#567=DIRECTION('',(0.E0,-1.E0,0.E0));
#568=AXIS2_PLACEMENT_3D('',#565,#566,#567);
#570=CARTESIAN_POINT('',(0.E0,0.E0,1.19E1));
#571=DIRECTION('',(0.E0,0.E0,-1.E0));
#572=DIRECTION('',(-1.E0,0.E0,0.E0));
#573=AXIS2_PLACEMENT_3D('',#570,#571,#572);
#575=DIRECTION('',(0.E0,-1.E0,0.E0));
#576=VECTOR('',#575,5.9E0);
#577=CARTESIAN_POINT('',(0.E0,2.95E0,1.19E1));
#578=LINE('',#577,#576);
#579=CARTESIAN_POINT('',(0.E0,0.E0,1.19E1));
#580=DIRECTION('',(0.E0,0.E0,1.E0));
#581=DIRECTION('',(-1.724137931034E-2,9.998513563723E-1,0.E0));
#582=AXIS2_PLACEMENT_3D('',#579,#580,#581);
#584=CARTESIAN_POINT('',(0.E0,0.E0,1.19E1));
#585=DIRECTION('',(0.E0,0.E0,1.E0));
#586=DIRECTION('',(-1.E0,0.E0,0.E0));
#587=AXIS2_PLACEMENT_3D('',#584,#585,#586);
#589=DIRECTION('',(0.E0,1.E0,0.E0));
#590=VECTOR('',#589,5.799137866960E0);
#591=CARTESIAN_POINT('',(-5.E-2,-2.899568933480E0,1.19E1));
#592=LINE('',#591,#590);
#593=DIRECTION('',(0.E0,-2.803313137179E-14,-1.E0));
#594=VECTOR('',#593,1.6E0);
#595=CARTESIAN_POINT('',(-5.E-2,-2.899568933480E0,1.35E1));
#596=LINE('',#595,#594);
#597=DIRECTION('',(0.E0,-2.803313137179E-14,1.E0));
#598=VECTOR('',#597,1.6E0);
#599=CARTESIAN_POINT('',(-5.E-2,2.899568933480E0,1.19E1));
#600=LINE('',#599,#598);
#601=CARTESIAN_POINT('',(0.E0,0.E0,1.35E1));
#602=DIRECTION('',(0.E0,0.E0,-1.E0));
#603=DIRECTION('',(-1.724137931034E-2,-9.998513563723E-1,0.E0));
#604=AXIS2_PLACEMENT_3D('',#601,#602,#603);
#606=CARTESIAN_POINT('',(0.E0,0.E0,1.35E1));
#607=DIRECTION('',(0.E0,0.E0,-1.E0));
#608=DIRECTION('',(-1.E0,0.E0,0.E0));
#609=AXIS2_PLACEMENT_3D('',#606,#607,#608);
#611=DIRECTION('',(0.E0,1.E0,0.E0));
#612=VECTOR('',#611,5.799137866959E0);
#613=CARTESIAN_POINT('',(-5.E-2,-2.899568933480E0,1.35E1));
#614=LINE('',#613,#612);
#615=DIRECTION('',(-1.E0,0.E0,0.E0));
#616=VECTOR('',#615,2.25E0);
#617=CARTESIAN_POINT('',(3.3E0,4.2E-1,0.E0));
#618=LINE('',#617,#616);
#619=CARTESIAN_POINT('',(-3.65E0,-3.5E-1,0.E0));
#620=CARTESIAN_POINT('',(-3.65E0,3.5E-1,0.E0));
#621=VERTEX_POINT('',#619);
#622=VERTEX_POINT('',#620);
#623=CARTESIAN_POINT('',(-3.65E0,3.5E-1,2.E-1));
#624=CARTESIAN_POINT('',(-3.65E0,-3.5E-1,2.E-1));
#625=VERTEX_POINT('',#623);
#626=VERTEX_POINT('',#624);
#627=CARTESIAN_POINT('',(3.65E0,3.5E-1,2.E-1));
#628=CARTESIAN_POINT('',(3.65E0,-3.5E-1,2.E-1));
#629=VERTEX_POINT('',#627);
#630=VERTEX_POINT('',#628);
#631=CARTESIAN_POINT('',(3.65E0,3.5E-1,0.E0));
#632=VERTEX_POINT('',#631);
#633=CARTESIAN_POINT('',(3.65E0,-3.5E-1,0.E0));
#634=VERTEX_POINT('',#633);
#635=CARTESIAN_POINT('',(-3.3E0,-4.2E-1,2.E-1));
#636=CARTESIAN_POINT('',(-1.05E0,-4.2E-1,2.E-1));
#637=VERTEX_POINT('',#635);
#638=VERTEX_POINT('',#636);
#639=CARTESIAN_POINT('',(-3.3E0,-4.2E-1,0.E0));
#640=VERTEX_POINT('',#639);
#641=CARTESIAN_POINT('',(-1.05E0,-4.2E-1,0.E0));
#642=VERTEX_POINT('',#641);
#643=CARTESIAN_POINT('',(-1.05E0,4.2E-1,2.E-1));
#644=CARTESIAN_POINT('',(-3.3E0,4.2E-1,2.E-1));
#645=VERTEX_POINT('',#643);
#646=VERTEX_POINT('',#644);
#647=CARTESIAN_POINT('',(-1.05E0,4.2E-1,0.E0));
#648=CARTESIAN_POINT('',(-3.3E0,4.2E-1,0.E0));
#649=VERTEX_POINT('',#647);
#650=VERTEX_POINT('',#648);
#651=CARTESIAN_POINT('',(3.3E0,4.2E-1,0.E0));
#652=CARTESIAN_POINT('',(1.05E0,4.2E-1,0.E0));
#653=VERTEX_POINT('',#651);
#654=VERTEX_POINT('',#652);
#655=CARTESIAN_POINT('',(3.3E0,1.98E0,0.E0));
#656=VERTEX_POINT('',#655);
#657=CARTESIAN_POINT('',(1.98E0,3.3E0,0.E0));
#658=VERTEX_POINT('',#657);
#659=CARTESIAN_POINT('',(-3.3E0,3.3E0,0.E0));
#660=VERTEX_POINT('',#659);
#661=CARTESIAN_POINT('',(-3.3E0,-3.3E0,0.E0));
#662=VERTEX_POINT('',#661);
#663=CARTESIAN_POINT('',(1.98E0,-3.3E0,0.E0));
#664=VERTEX_POINT('',#663);
#665=CARTESIAN_POINT('',(3.3E0,-1.98E0,0.E0));
#666=VERTEX_POINT('',#665);
#667=CARTESIAN_POINT('',(3.3E0,-4.2E-1,0.E0));
#668=VERTEX_POINT('',#667);
#669=CARTESIAN_POINT('',(1.05E0,-4.2E-1,0.E0));
#670=VERTEX_POINT('',#669);
#671=CARTESIAN_POINT('',(1.05E0,4.2E-1,2.E-1));
#672=VERTEX_POINT('',#671);
#673=CARTESIAN_POINT('',(1.05E0,-4.2E-1,2.E-1));
#674=VERTEX_POINT('',#673);
#675=CARTESIAN_POINT('',(3.3E0,4.2E-1,2.E-1));
#676=VERTEX_POINT('',#675);
#677=CARTESIAN_POINT('',(3.3E0,-4.2E-1,2.E-1));
#678=VERTEX_POINT('',#677);
#679=CARTESIAN_POINT('',(3.3E0,-1.98E0,6.E-1));
#680=VERTEX_POINT('',#679);
#681=CARTESIAN_POINT('',(3.3E0,-1.056515499176E0,6.E-1));
#682=VERTEX_POINT('',#681);
#683=CARTESIAN_POINT('',(3.3E0,-1.056515499176E0,5.E-1));
#684=VERTEX_POINT('',#683);
#685=CARTESIAN_POINT('',(3.3E0,1.056515499176E0,5.E-1));
#686=VERTEX_POINT('',#685);
#687=CARTESIAN_POINT('',(3.3E0,1.056515499176E0,6.E-1));
#688=VERTEX_POINT('',#687);
#689=CARTESIAN_POINT('',(3.3E0,1.98E0,6.E-1));
#690=VERTEX_POINT('',#689);
#691=CARTESIAN_POINT('',(1.98E0,-3.3E0,6.E-1));
#692=VERTEX_POINT('',#691);
#693=CARTESIAN_POINT('',(-3.3E0,-3.3E0,1.E0));
#694=VERTEX_POINT('',#693);
#695=CARTESIAN_POINT('',(-1.056515499176E0,-3.3E0,1.E0));
#696=VERTEX_POINT('',#695);
#697=CARTESIAN_POINT('',(-1.056515499176E0,-3.3E0,5.E-1));
#698=VERTEX_POINT('',#697);
#699=CARTESIAN_POINT('',(1.056515499176E0,-3.3E0,5.E-1));
#700=VERTEX_POINT('',#699);
#701=CARTESIAN_POINT('',(1.056515499176E0,-3.3E0,6.E-1));
#702=VERTEX_POINT('',#701);
#703=CARTESIAN_POINT('',(-3.3E0,3.3E0,1.E0));
#704=VERTEX_POINT('',#703);
#705=CARTESIAN_POINT('',(-3.3E0,1.056515499176E0,1.E0));
#706=VERTEX_POINT('',#705);
#707=CARTESIAN_POINT('',(-3.3E0,1.056515499176E0,5.E-1));
#708=VERTEX_POINT('',#707);
#709=CARTESIAN_POINT('',(-3.3E0,-1.056515499176E0,5.E-1));
#710=VERTEX_POINT('',#709);
#711=CARTESIAN_POINT('',(-3.3E0,-1.056515499176E0,1.E0));
#712=VERTEX_POINT('',#711);
#713=CARTESIAN_POINT('',(1.056515499176E0,3.3E0,5.E-1));
#714=CARTESIAN_POINT('',(-1.056515499176E0,3.3E0,5.E-1));
#715=VERTEX_POINT('',#713);
#716=VERTEX_POINT('',#714);
#717=CARTESIAN_POINT('',(-1.056515499176E0,3.3E0,1.E0));
#718=VERTEX_POINT('',#717);
#719=CARTESIAN_POINT('',(1.98E0,3.3E0,6.E-1));
#720=VERTEX_POINT('',#719);
#721=CARTESIAN_POINT('',(1.056515499176E0,3.3E0,6.E-1));
#722=VERTEX_POINT('',#721);
#723=CARTESIAN_POINT('',(3.15E0,0.E0,1.395138404929E0));
#724=CARTESIAN_POINT('',(3.15E0,5.313194522745E-13,1.33E1));
#725=VERTEX_POINT('',#723);
#726=VERTEX_POINT('',#724);
#727=CARTESIAN_POINT('',(-3.15E0,0.E0,1.395138404929E0));
#728=VERTEX_POINT('',#727);
#729=CARTESIAN_POINT('',(-3.15E0,-5.327193741196E-13,1.33E1));
#730=VERTEX_POINT('',#729);
#731=CARTESIAN_POINT('',(-2.95E0,-9.991139859888E-13,1.35E1));
#732=VERTEX_POINT('',#731);
#733=CARTESIAN_POINT('',(0.E0,-2.95E0,1.35E1));
#734=VERTEX_POINT('',#733);
#735=CARTESIAN_POINT('',(2.95E0,0.E0,1.35E1));
#736=VERTEX_POINT('',#735);
#737=CARTESIAN_POINT('',(0.E0,2.95E0,1.35E1));
#738=VERTEX_POINT('',#737);
#739=CARTESIAN_POINT('',(-3.105732839589E0,0.E0,1.234114401848E0));
#740=VERTEX_POINT('',#739);
#741=CARTESIAN_POINT('',(3.105732839589E0,0.E0,1.234114401848E0));
#742=VERTEX_POINT('',#741);
#743=CARTESIAN_POINT('',(-3.105732839589E0,0.E0,1.040885598152E0));
#744=CARTESIAN_POINT('',(3.105732839589E0,0.E0,1.040885598152E0));
#745=VERTEX_POINT('',#743);
#746=VERTEX_POINT('',#744);
#747=CARTESIAN_POINT('',(3.15E0,0.E0,8.798615950711E-1));
#748=VERTEX_POINT('',#747);
#749=CARTESIAN_POINT('',(-3.15E0,0.E0,8.798615950711E-1));
#750=VERTEX_POINT('',#749);
#751=CARTESIAN_POINT('',(-3.15E0,0.E0,6.E-1));
#752=VERTEX_POINT('',#751);
#753=CARTESIAN_POINT('',(3.15E0,0.E0,6.E-1));
#754=VERTEX_POINT('',#753);
#755=CARTESIAN_POINT('',(0.E0,2.95E0,1.19E1));
#756=VERTEX_POINT('',#755);
#757=CARTESIAN_POINT('',(0.E0,-2.95E0,1.19E1));
#758=VERTEX_POINT('',#757);
#759=CARTESIAN_POINT('',(-2.95E0,0.E0,1.19E1));
#760=VERTEX_POINT('',#759);
#761=CARTESIAN_POINT('',(-5.E-2,2.899568933480E0,1.19E1));
#762=CARTESIAN_POINT('',(-2.9E0,0.E0,1.19E1));
#763=VERTEX_POINT('',#761);
#764=VERTEX_POINT('',#762);
#765=CARTESIAN_POINT('',(-5.E-2,-2.899568933480E0,1.19E1));
#766=VERTEX_POINT('',#765);
#767=CARTESIAN_POINT('',(-2.9E0,0.E0,1.35E1));
#768=CARTESIAN_POINT('',(-5.E-2,2.899568933480E0,1.35E1));
#769=VERTEX_POINT('',#767);
#770=VERTEX_POINT('',#768);
#771=CARTESIAN_POINT('',(-5.E-2,-2.899568933480E0,1.35E1));
#772=VERTEX_POINT('',#771);
#773=CARTESIAN_POINT('',(-3.3E0,-3.5E-1,2.E-1));
#774=CARTESIAN_POINT('',(-3.3E0,3.5E-1,2.E-1));
#775=VERTEX_POINT('',#773);
#776=VERTEX_POINT('',#774);
#777=CARTESIAN_POINT('',(-1.05E0,-3.5E-1,2.E-1));
#778=VERTEX_POINT('',#777);
#779=CARTESIAN_POINT('',(-1.05E0,-3.5E-1,0.E0));
#780=VERTEX_POINT('',#779);
#781=CARTESIAN_POINT('',(-1.05E0,3.5E-1,2.E-1));
#782=VERTEX_POINT('',#781);
#783=CARTESIAN_POINT('',(-1.05E0,3.5E-1,0.E0));
#784=VERTEX_POINT('',#783);
#785=CARTESIAN_POINT('',(3.3E0,-3.5E-1,2.E-1));
#786=CARTESIAN_POINT('',(3.3E0,3.5E-1,2.E-1));
#787=VERTEX_POINT('',#785);
#788=VERTEX_POINT('',#786);
#789=CARTESIAN_POINT('',(1.05E0,-3.5E-1,0.E0));
#790=CARTESIAN_POINT('',(1.05E0,-3.5E-1,2.E-1));
#791=VERTEX_POINT('',#789);
#792=VERTEX_POINT('',#790);
#793=CARTESIAN_POINT('',(1.05E0,3.5E-1,0.E0));
#794=CARTESIAN_POINT('',(1.05E0,3.5E-1,2.E-1));
#795=VERTEX_POINT('',#793);
#796=VERTEX_POINT('',#794);
#797=CARTESIAN_POINT('',(3.123205080757E0,0.E0,5.E-1));
#798=CARTESIAN_POINT('',(-3.123205080757E0,0.E0,5.E-1));
#799=VERTEX_POINT('',#797);
#800=VERTEX_POINT('',#798);
#801=CARTESIAN_POINT('',(-2.35E0,0.E0,0.E0));
#802=DIRECTION('',(0.E0,0.E0,1.E0));
#803=DIRECTION('',(1.E0,0.E0,0.E0));
#804=AXIS2_PLACEMENT_3D('',#801,#802,#803);
#805=PLANE('',#804);
#807=ORIENTED_EDGE('',*,*,#806,.F.);
#809=ORIENTED_EDGE('',*,*,#808,.F.);
#811=ORIENTED_EDGE('',*,*,#810,.F.);
#813=ORIENTED_EDGE('',*,*,#812,.F.);
#815=ORIENTED_EDGE('',*,*,#814,.F.);
#817=ORIENTED_EDGE('',*,*,#816,.F.);
#819=ORIENTED_EDGE('',*,*,#818,.F.);
#821=ORIENTED_EDGE('',*,*,#820,.T.);
#823=ORIENTED_EDGE('',*,*,#822,.F.);
#825=ORIENTED_EDGE('',*,*,#824,.F.);
#827=ORIENTED_EDGE('',*,*,#826,.F.);
#829=ORIENTED_EDGE('',*,*,#828,.F.);
#831=ORIENTED_EDGE('',*,*,#830,.F.);
#833=ORIENTED_EDGE('',*,*,#832,.F.);
#835=ORIENTED_EDGE('',*,*,#834,.F.);
#837=ORIENTED_EDGE('',*,*,#836,.F.);
#839=ORIENTED_EDGE('',*,*,#838,.F.);
#841=ORIENTED_EDGE('',*,*,#840,.F.);
#843=ORIENTED_EDGE('',*,*,#842,.F.);
#845=ORIENTED_EDGE('',*,*,#844,.T.);
#847=ORIENTED_EDGE('',*,*,#846,.F.);
#849=ORIENTED_EDGE('',*,*,#848,.F.);
#850=EDGE_LOOP('',(#807,#809,#811,#813,#815,#817,#819,#821,#823,#825,#827,#829,
#831,#833,#835,#837,#839,#841,#843,#845,#847,#849));
#851=FACE_OUTER_BOUND('',#850,.F.);
#852=ADVANCED_FACE('',(#851),#805,.F.);
#853=CARTESIAN_POINT('',(1.05E0,4.2E-1,0.E0));
#854=DIRECTION('',(-1.E0,0.E0,0.E0));
#855=DIRECTION('',(0.E0,-1.E0,0.E0));
#856=AXIS2_PLACEMENT_3D('',#853,#854,#855);
#857=PLANE('',#856);
#859=ORIENTED_EDGE('',*,*,#858,.F.);
#860=ORIENTED_EDGE('',*,*,#806,.T.);
#862=ORIENTED_EDGE('',*,*,#861,.F.);
#864=ORIENTED_EDGE('',*,*,#863,.F.);
#865=EDGE_LOOP('',(#859,#860,#862,#864));
#866=FACE_OUTER_BOUND('',#865,.F.);
#867=ADVANCED_FACE('',(#866),#857,.F.);
#868=CARTESIAN_POINT('',(1.05E0,4.2E-1,0.E0));
#869=DIRECTION('',(-1.E0,0.E0,0.E0));
#870=DIRECTION('',(0.E0,-1.E0,0.E0));
#871=AXIS2_PLACEMENT_3D('',#868,#869,#870);
#872=PLANE('',#871);
#874=ORIENTED_EDGE('',*,*,#873,.T.);
#876=ORIENTED_EDGE('',*,*,#875,.F.);
#878=ORIENTED_EDGE('',*,*,#877,.T.);
#879=ORIENTED_EDGE('',*,*,#814,.T.);
#880=EDGE_LOOP('',(#874,#876,#878,#879));
#881=FACE_OUTER_BOUND('',#880,.F.);
#882=ADVANCED_FACE('',(#881),#872,.F.);
#883=CARTESIAN_POINT('',(1.05E0,-3.5E-1,0.E0));
#884=DIRECTION('',(0.E0,-1.E0,0.E0));
#885=DIRECTION('',(1.E0,0.E0,0.E0));
#886=AXIS2_PLACEMENT_3D('',#883,#884,#885);
#887=PLANE('',#886);
#888=ORIENTED_EDGE('',*,*,#858,.T.);
#890=ORIENTED_EDGE('',*,*,#889,.T.);
#892=ORIENTED_EDGE('',*,*,#891,.F.);
#894=ORIENTED_EDGE('',*,*,#893,.F.);
#895=ORIENTED_EDGE('',*,*,#808,.T.);
#896=EDGE_LOOP('',(#888,#890,#892,#894,#895));
#897=FACE_OUTER_BOUND('',#896,.F.);
#898=ADVANCED_FACE('',(#897),#887,.T.);
#899=CARTESIAN_POINT('',(2.625E0,0.E0,2.E-1));
#900=DIRECTION('',(0.E0,0.E0,1.E0));
#901=DIRECTION('',(1.E0,0.E0,0.E0));
#902=AXIS2_PLACEMENT_3D('',#899,#900,#901);
#903=PLANE('',#902);
#904=ORIENTED_EDGE('',*,*,#889,.F.);
#905=ORIENTED_EDGE('',*,*,#863,.T.);
#907=ORIENTED_EDGE('',*,*,#906,.T.);
#909=ORIENTED_EDGE('',*,*,#908,.F.);
#910=EDGE_LOOP('',(#904,#905,#907,#909));
#911=FACE_OUTER_BOUND('',#910,.F.);
#912=ADVANCED_FACE('',(#911),#903,.F.);
#913=CARTESIAN_POINT('',(2.625E0,0.E0,2.E-1));
#914=DIRECTION('',(0.E0,0.E0,1.E0));
#915=DIRECTION('',(1.E0,0.E0,0.E0));
#916=AXIS2_PLACEMENT_3D('',#913,#914,#915);
#917=PLANE('',#916);
#919=ORIENTED_EDGE('',*,*,#918,.T.);
#921=ORIENTED_EDGE('',*,*,#920,.F.);
#923=ORIENTED_EDGE('',*,*,#922,.T.);
#924=ORIENTED_EDGE('',*,*,#875,.T.);
#925=EDGE_LOOP('',(#919,#921,#923,#924));
#926=FACE_OUTER_BOUND('',#925,.F.);
#927=ADVANCED_FACE('',(#926),#917,.F.);
#928=CARTESIAN_POINT('',(1.05E0,-4.2E-1,0.E0));
#929=DIRECTION('',(0.E0,-1.E0,0.E0));
#930=DIRECTION('',(0.E0,0.E0,-1.E0));
#931=AXIS2_PLACEMENT_3D('',#928,#929,#930);
#932=PLANE('',#931);
#933=ORIENTED_EDGE('',*,*,#848,.T.);
#935=ORIENTED_EDGE('',*,*,#934,.F.);
#936=ORIENTED_EDGE('',*,*,#906,.F.);
#937=ORIENTED_EDGE('',*,*,#861,.T.);
#938=EDGE_LOOP('',(#933,#935,#936,#937));
#939=FACE_OUTER_BOUND('',#938,.F.);
#940=ADVANCED_FACE('',(#939),#932,.F.);
#941=CARTESIAN_POINT('',(3.3E0,-1.98E0,0.E0));
#942=DIRECTION('',(1.E0,0.E0,0.E0));
#943=DIRECTION('',(0.E0,1.E0,0.E0));
#944=AXIS2_PLACEMENT_3D('',#941,#942,#943);
#945=PLANE('',#944);
#947=ORIENTED_EDGE('',*,*,#946,.F.);
#948=ORIENTED_EDGE('',*,*,#908,.T.);
#949=ORIENTED_EDGE('',*,*,#934,.T.);
#950=ORIENTED_EDGE('',*,*,#846,.T.);
#952=ORIENTED_EDGE('',*,*,#951,.T.);
#954=ORIENTED_EDGE('',*,*,#953,.T.);
#956=ORIENTED_EDGE('',*,*,#955,.F.);
#958=ORIENTED_EDGE('',*,*,#957,.F.);
#960=ORIENTED_EDGE('',*,*,#959,.F.);
#962=ORIENTED_EDGE('',*,*,#961,.T.);
#964=ORIENTED_EDGE('',*,*,#963,.T.);
#965=ORIENTED_EDGE('',*,*,#818,.T.);
#967=ORIENTED_EDGE('',*,*,#966,.T.);
#968=ORIENTED_EDGE('',*,*,#920,.T.);
#969=EDGE_LOOP('',(#947,#948,#949,#950,#952,#954,#956,#958,#960,#962,#964,#965,
#967,#968));
#970=FACE_OUTER_BOUND('',#969,.F.);
#971=ADVANCED_FACE('',(#970),#945,.T.);
#972=CARTESIAN_POINT('',(2.35E0,0.E0,2.E-1));
#973=DIRECTION('',(0.E0,0.E0,1.E0));
#974=DIRECTION('',(1.E0,0.E0,0.E0));
#975=AXIS2_PLACEMENT_3D('',#972,#973,#974);
#976=PLANE('',#975);
#977=ORIENTED_EDGE('',*,*,#946,.T.);
#979=ORIENTED_EDGE('',*,*,#978,.T.);
#981=ORIENTED_EDGE('',*,*,#980,.T.);
#982=ORIENTED_EDGE('',*,*,#891,.T.);
#983=EDGE_LOOP('',(#977,#979,#981,#982));
#984=FACE_OUTER_BOUND('',#983,.F.);
#985=ADVANCED_FACE('',(#984),#976,.T.);
#986=CARTESIAN_POINT('',(3.65E0,3.5E-1,0.E0));
#987=DIRECTION('',(0.E0,1.E0,0.E0));
#988=DIRECTION('',(-1.E0,0.E0,0.E0));
#989=AXIS2_PLACEMENT_3D('',#986,#987,#988);
#990=PLANE('',#989);
#991=ORIENTED_EDGE('',*,*,#873,.F.);
#992=ORIENTED_EDGE('',*,*,#812,.T.);
#994=ORIENTED_EDGE('',*,*,#993,.F.);
#995=ORIENTED_EDGE('',*,*,#978,.F.);
#996=ORIENTED_EDGE('',*,*,#918,.F.);
#997=EDGE_LOOP('',(#991,#992,#994,#995,#996));
#998=FACE_OUTER_BOUND('',#997,.F.);
#999=ADVANCED_FACE('',(#998),#990,.T.);
#1000=CARTESIAN_POINT('',(3.65E0,-3.5E-1,0.E0));
#1001=DIRECTION('',(1.E0,0.E0,0.E0));
#1002=DIRECTION('',(0.E0,1.E0,0.E0));
#1003=AXIS2_PLACEMENT_3D('',#1000,#1001,#1002);
#1004=PLANE('',#1003);
#1005=ORIENTED_EDGE('',*,*,#980,.F.);
#1006=ORIENTED_EDGE('',*,*,#993,.T.);
#1007=ORIENTED_EDGE('',*,*,#810,.T.);
#1008=ORIENTED_EDGE('',*,*,#893,.T.);
#1009=EDGE_LOOP('',(#1005,#1006,#1007,#1008));
#1010=FACE_OUTER_BOUND('',#1009,.F.);
#1011=ADVANCED_FACE('',(#1010),#1004,.T.);
#1012=CARTESIAN_POINT('',(1.98E0,-3.3E0,0.E0));
#1013=DIRECTION('',(7.071067811865E-1,-7.071067811865E-1,0.E0));
#1014=DIRECTION('',(7.071067811865E-1,7.071067811865E-1,0.E0));
#1015=AXIS2_PLACEMENT_3D('',#1012,#1013,#1014);
#1016=PLANE('',#1015);
#1017=ORIENTED_EDGE('',*,*,#844,.F.);
#1019=ORIENTED_EDGE('',*,*,#1018,.T.);
#1021=ORIENTED_EDGE('',*,*,#1020,.F.);
#1022=ORIENTED_EDGE('',*,*,#951,.F.);
#1023=EDGE_LOOP('',(#1017,#1019,#1021,#1022));
#1024=FACE_OUTER_BOUND('',#1023,.F.);
#1025=ADVANCED_FACE('',(#1024),#1016,.T.);
#1026=CARTESIAN_POINT('',(-3.3E0,-3.3E0,0.E0));
#1027=DIRECTION('',(0.E0,-1.E0,0.E0));
#1028=DIRECTION('',(1.E0,0.E0,0.E0));
#1029=AXIS2_PLACEMENT_3D('',#1026,#1027,#1028);
#1030=PLANE('',#1029);
#1031=ORIENTED_EDGE('',*,*,#842,.T.);
#1033=ORIENTED_EDGE('',*,*,#1032,.T.);
#1035=ORIENTED_EDGE('',*,*,#1034,.T.);
#1037=ORIENTED_EDGE('',*,*,#1036,.F.);
#1039=ORIENTED_EDGE('',*,*,#1038,.T.);
#1041=ORIENTED_EDGE('',*,*,#1040,.F.);
#1043=ORIENTED_EDGE('',*,*,#1042,.T.);
#1044=ORIENTED_EDGE('',*,*,#1018,.F.);
#1045=EDGE_LOOP('',(#1031,#1033,#1035,#1037,#1039,#1041,#1043,#1044));
#1046=FACE_OUTER_BOUND('',#1045,.F.);
#1047=ADVANCED_FACE('',(#1046),#1030,.T.);
#1048=CARTESIAN_POINT('',(-3.3E0,3.3E0,0.E0));
#1049=DIRECTION('',(-1.E0,0.E0,0.E0));
#1050=DIRECTION('',(0.E0,0.E0,1.E0));
#1051=AXIS2_PLACEMENT_3D('',#1048,#1049,#1050);
#1052=PLANE('',#1051);
#1054=ORIENTED_EDGE('',*,*,#1053,.T.);
#1056=ORIENTED_EDGE('',*,*,#1055,.T.);
#1058=ORIENTED_EDGE('',*,*,#1057,.T.);
#1059=ORIENTED_EDGE('',*,*,#824,.T.);
#1061=ORIENTED_EDGE('',*,*,#1060,.T.);
#1063=ORIENTED_EDGE('',*,*,#1062,.T.);
#1065=ORIENTED_EDGE('',*,*,#1064,.F.);
#1067=ORIENTED_EDGE('',*,*,#1066,.T.);
#1069=ORIENTED_EDGE('',*,*,#1068,.F.);
#1071=ORIENTED_EDGE('',*,*,#1070,.T.);
#1072=ORIENTED_EDGE('',*,*,#1032,.F.);
#1073=ORIENTED_EDGE('',*,*,#840,.T.);
#1075=ORIENTED_EDGE('',*,*,#1074,.T.);
#1077=ORIENTED_EDGE('',*,*,#1076,.T.);
#1078=EDGE_LOOP('',(#1054,#1056,#1058,#1059,#1061,#1063,#1065,#1067,#1069,#1071,
#1072,#1073,#1075,#1077));
#1079=FACE_OUTER_BOUND('',#1078,.F.);
#1080=ADVANCED_FACE('',(#1079),#1052,.T.);
#1081=CARTESIAN_POINT('',(-2.35E0,0.E0,2.E-1));
#1082=DIRECTION('',(0.E0,0.E0,1.E0));
#1083=DIRECTION('',(1.E0,0.E0,0.E0));
#1084=AXIS2_PLACEMENT_3D('',#1081,#1082,#1083);
#1085=PLANE('',#1084);
#1086=ORIENTED_EDGE('',*,*,#1053,.F.);
#1088=ORIENTED_EDGE('',*,*,#1087,.F.);
#1090=ORIENTED_EDGE('',*,*,#1089,.F.);
#1092=ORIENTED_EDGE('',*,*,#1091,.F.);
#1093=EDGE_LOOP('',(#1086,#1088,#1090,#1092));
#1094=FACE_OUTER_BOUND('',#1093,.F.);
#1095=ADVANCED_FACE('',(#1094),#1085,.T.);
#1096=CARTESIAN_POINT('',(-3.65E0,-3.5E-1,0.E0));
#1097=DIRECTION('',(0.E0,-1.E0,0.E0));
#1098=DIRECTION('',(0.E0,0.E0,-1.E0));
#1099=AXIS2_PLACEMENT_3D('',#1096,#1097,#1098);
#1100=PLANE('',#1099);
#1102=ORIENTED_EDGE('',*,*,#1101,.F.);
#1104=ORIENTED_EDGE('',*,*,#1103,.T.);
#1105=ORIENTED_EDGE('',*,*,#834,.T.);
#1107=ORIENTED_EDGE('',*,*,#1106,.T.);
#1108=ORIENTED_EDGE('',*,*,#1087,.T.);
#1109=EDGE_LOOP('',(#1102,#1104,#1105,#1107,#1108));
#1110=FACE_OUTER_BOUND('',#1109,.F.);
#1111=ADVANCED_FACE('',(#1110),#1100,.T.);
#1112=CARTESIAN_POINT('',(-2.625E0,0.E0,2.E-1));
#1113=DIRECTION('',(0.E0,0.E0,1.E0));
#1114=DIRECTION('',(1.E0,0.E0,0.E0));
#1115=AXIS2_PLACEMENT_3D('',#1112,#1113,#1114);
#1116=PLANE('',#1115);
#1117=ORIENTED_EDGE('',*,*,#1101,.T.);
#1118=ORIENTED_EDGE('',*,*,#1076,.F.);
#1120=ORIENTED_EDGE('',*,*,#1119,.T.);
#1122=ORIENTED_EDGE('',*,*,#1121,.T.);
#1123=EDGE_LOOP('',(#1117,#1118,#1120,#1122));
#1124=FACE_OUTER_BOUND('',#1123,.F.);
#1125=ADVANCED_FACE('',(#1124),#1116,.F.);
#1126=CARTESIAN_POINT('',(-2.625E0,0.E0,2.E-1));
#1127=DIRECTION('',(0.E0,0.E0,1.E0));
#1128=DIRECTION('',(1.E0,0.E0,0.E0));
#1129=AXIS2_PLACEMENT_3D('',#1126,#1127,#1128);
#1130=PLANE('',#1129);
#1132=ORIENTED_EDGE('',*,*,#1131,.F.);
#1134=ORIENTED_EDGE('',*,*,#1133,.T.);
#1136=ORIENTED_EDGE('',*,*,#1135,.T.);
#1137=ORIENTED_EDGE('',*,*,#1055,.F.);
#1138=EDGE_LOOP('',(#1132,#1134,#1136,#1137));
#1139=FACE_OUTER_BOUND('',#1138,.F.);
#1140=ADVANCED_FACE('',(#1139),#1130,.F.);
#1141=CARTESIAN_POINT('',(-4.2E0,-4.2E-1,0.E0));
#1142=DIRECTION('',(0.E0,-1.E0,0.E0));
#1143=DIRECTION('',(0.E0,0.E0,-1.E0));
#1144=AXIS2_PLACEMENT_3D('',#1141,#1142,#1143);
#1145=PLANE('',#1144);
#1146=ORIENTED_EDGE('',*,*,#1119,.F.);
#1147=ORIENTED_EDGE('',*,*,#1074,.F.);
#1148=ORIENTED_EDGE('',*,*,#838,.T.);
#1150=ORIENTED_EDGE('',*,*,#1149,.F.);
#1151=EDGE_LOOP('',(#1146,#1147,#1148,#1150));
#1152=FACE_OUTER_BOUND('',#1151,.F.);
#1153=ADVANCED_FACE('',(#1152),#1145,.F.);
#1154=CARTESIAN_POINT('',(-1.05E0,-4.2E-1,0.E0));
#1155=DIRECTION('',(1.E0,0.E0,0.E0));
#1156=DIRECTION('',(0.E0,1.E0,0.E0));
#1157=AXIS2_PLACEMENT_3D('',#1154,#1155,#1156);
#1158=PLANE('',#1157);
#1159=ORIENTED_EDGE('',*,*,#1103,.F.);
#1160=ORIENTED_EDGE('',*,*,#1121,.F.);
#1161=ORIENTED_EDGE('',*,*,#1149,.T.);
#1162=ORIENTED_EDGE('',*,*,#836,.T.);
#1163=EDGE_LOOP('',(#1159,#1160,#1161,#1162));
#1164=FACE_OUTER_BOUND('',#1163,.F.);
#1165=ADVANCED_FACE('',(#1164),#1158,.F.);
#1166=CARTESIAN_POINT('',(-1.05E0,-4.2E-1,0.E0));
#1167=DIRECTION('',(1.E0,0.E0,0.E0));
#1168=DIRECTION('',(0.E0,1.E0,0.E0));
#1169=AXIS2_PLACEMENT_3D('',#1166,#1167,#1168);
#1170=PLANE('',#1169);
#1172=ORIENTED_EDGE('',*,*,#1171,.F.);
#1173=ORIENTED_EDGE('',*,*,#828,.T.);
#1175=ORIENTED_EDGE('',*,*,#1174,.F.);
#1176=ORIENTED_EDGE('',*,*,#1133,.F.);
#1177=EDGE_LOOP('',(#1172,#1173,#1175,#1176));
#1178=FACE_OUTER_BOUND('',#1177,.F.);
#1179=ADVANCED_FACE('',(#1178),#1170,.F.);
#1180=CARTESIAN_POINT('',(-1.05E0,3.5E-1,0.E0));
#1181=DIRECTION('',(0.E0,1.E0,0.E0));
#1182=DIRECTION('',(-1.E0,0.E0,0.E0));
#1183=AXIS2_PLACEMENT_3D('',#1180,#1181,#1182);
#1184=PLANE('',#1183);
#1185=ORIENTED_EDGE('',*,*,#1131,.T.);
#1186=ORIENTED_EDGE('',*,*,#1091,.T.);
#1188=ORIENTED_EDGE('',*,*,#1187,.T.);
#1189=ORIENTED_EDGE('',*,*,#830,.T.);
#1190=ORIENTED_EDGE('',*,*,#1171,.T.);
#1191=EDGE_LOOP('',(#1185,#1186,#1188,#1189,#1190));
#1192=FACE_OUTER_BOUND('',#1191,.F.);
#1193=ADVANCED_FACE('',(#1192),#1184,.T.);
#1194=CARTESIAN_POINT('',(-3.65E0,3.5E-1,0.E0));
#1195=DIRECTION('',(-1.E0,0.E0,0.E0));
#1196=DIRECTION('',(0.E0,-1.E0,0.E0));
#1197=AXIS2_PLACEMENT_3D('',#1194,#1195,#1196);
#1198=PLANE('',#1197);
#1199=ORIENTED_EDGE('',*,*,#1089,.T.);
#1200=ORIENTED_EDGE('',*,*,#1106,.F.);
#1201=ORIENTED_EDGE('',*,*,#832,.T.);
#1202=ORIENTED_EDGE('',*,*,#1187,.F.);
#1203=EDGE_LOOP('',(#1199,#1200,#1201,#1202));
#1204=FACE_OUTER_BOUND('',#1203,.F.);
#1205=ADVANCED_FACE('',(#1204),#1198,.T.);
#1206=CARTESIAN_POINT('',(-1.05E0,4.2E-1,0.E0));
#1207=DIRECTION('',(0.E0,1.E0,0.E0));
#1208=DIRECTION('',(-1.E0,0.E0,0.E0));
#1209=AXIS2_PLACEMENT_3D('',#1206,#1207,#1208);
#1210=PLANE('',#1209);
#1211=ORIENTED_EDGE('',*,*,#826,.T.);
#1212=ORIENTED_EDGE('',*,*,#1057,.F.);
#1213=ORIENTED_EDGE('',*,*,#1135,.F.);
#1214=ORIENTED_EDGE('',*,*,#1174,.T.);
#1215=EDGE_LOOP('',(#1211,#1212,#1213,#1214));
#1216=FACE_OUTER_BOUND('',#1215,.F.);
#1217=ADVANCED_FACE('',(#1216),#1210,.F.);
#1218=CARTESIAN_POINT('',(1.98E0,3.3E0,0.E0));
#1219=DIRECTION('',(0.E0,1.E0,0.E0));
#1220=DIRECTION('',(0.E0,0.E0,1.E0));
#1221=AXIS2_PLACEMENT_3D('',#1218,#1219,#1220);
#1222=PLANE('',#1221);
#1224=ORIENTED_EDGE('',*,*,#1223,.T.);
#1226=ORIENTED_EDGE('',*,*,#1225,.F.);
#1228=ORIENTED_EDGE('',*,*,#1227,.T.);
#1229=ORIENTED_EDGE('',*,*,#1060,.F.);
#1230=ORIENTED_EDGE('',*,*,#822,.T.);
#1232=ORIENTED_EDGE('',*,*,#1231,.T.);
#1234=ORIENTED_EDGE('',*,*,#1233,.T.);
#1236=ORIENTED_EDGE('',*,*,#1235,.F.);
#1237=EDGE_LOOP('',(#1224,#1226,#1228,#1229,#1230,#1232,#1234,#1236));
#1238=FACE_OUTER_BOUND('',#1237,.F.);
#1239=ADVANCED_FACE('',(#1238),#1222,.T.);
#1240=CARTESIAN_POINT('',(0.E0,0.E0,5.E-1));
#1241=DIRECTION('',(0.E0,0.E0,1.E0));
#1242=DIRECTION('',(1.E0,0.E0,0.E0));
#1243=AXIS2_PLACEMENT_3D('',#1240,#1241,#1242);
#1244=PLANE('',#1243);
#1245=ORIENTED_EDGE('',*,*,#1038,.F.);
#1247=ORIENTED_EDGE('',*,*,#1246,.T.);
#1248=ORIENTED_EDGE('',*,*,#1066,.F.);
#1250=ORIENTED_EDGE('',*,*,#1249,.T.);
#1251=ORIENTED_EDGE('',*,*,#1223,.F.);
#1253=ORIENTED_EDGE('',*,*,#1252,.T.);
#1254=ORIENTED_EDGE('',*,*,#957,.T.);
#1256=ORIENTED_EDGE('',*,*,#1255,.T.);
#1257=EDGE_LOOP('',(#1245,#1247,#1248,#1250,#1251,#1253,#1254,#1256));
#1258=FACE_OUTER_BOUND('',#1257,.F.);
#1260=ORIENTED_EDGE('',*,*,#1259,.T.);
#1262=ORIENTED_EDGE('',*,*,#1261,.T.);
#1263=EDGE_LOOP('',(#1260,#1262));
#1264=FACE_BOUND('',#1263,.F.);
#1265=ADVANCED_FACE('',(#1258,#1264),#1244,.T.);
#1266=CARTESIAN_POINT('',(0.E0,0.E0,1.E0));
#1267=DIRECTION('',(0.E0,0.E0,-1.E0));
#1268=DIRECTION('',(-1.E0,0.E0,0.E0));
#1269=AXIS2_PLACEMENT_3D('',#1266,#1267,#1268);
#1270=CYLINDRICAL_SURFACE('',#1269,3.465E0);
#1271=ORIENTED_EDGE('',*,*,#1246,.F.);
#1272=ORIENTED_EDGE('',*,*,#1036,.T.);
#1274=ORIENTED_EDGE('',*,*,#1273,.F.);
#1275=ORIENTED_EDGE('',*,*,#1068,.T.);
#1276=EDGE_LOOP('',(#1271,#1272,#1274,#1275));
#1277=FACE_OUTER_BOUND('',#1276,.F.);
#1278=ADVANCED_FACE('',(#1277),#1270,.F.);
#1279=CARTESIAN_POINT('',(-2.343771129385E-1,0.E0,1.E0));
#1280=DIRECTION('',(0.E0,0.E0,1.E0));
#1281=DIRECTION('',(1.E0,0.E0,0.E0));
#1282=AXIS2_PLACEMENT_3D('',#1279,#1280,#1281);
#1283=PLANE('',#1282);
#1284=ORIENTED_EDGE('',*,*,#1070,.F.);
#1285=ORIENTED_EDGE('',*,*,#1273,.T.);
#1286=ORIENTED_EDGE('',*,*,#1034,.F.);
#1287=EDGE_LOOP('',(#1284,#1285,#1286));
#1288=FACE_OUTER_BOUND('',#1287,.F.);
#1289=ADVANCED_FACE('',(#1288),#1283,.T.);
#1290=CARTESIAN_POINT('',(0.E0,0.E0,1.E0));
#1291=DIRECTION('',(0.E0,0.E0,-1.E0));
#1292=DIRECTION('',(-1.E0,0.E0,0.E0));
#1293=AXIS2_PLACEMENT_3D('',#1290,#1291,#1292);
#1294=CYLINDRICAL_SURFACE('',#1293,3.465E0);
#1296=ORIENTED_EDGE('',*,*,#1295,.F.);
#1297=ORIENTED_EDGE('',*,*,#1225,.T.);
#1298=ORIENTED_EDGE('',*,*,#1249,.F.);
#1299=ORIENTED_EDGE('',*,*,#1064,.T.);
#1300=EDGE_LOOP('',(#1296,#1297,#1298,#1299));
#1301=FACE_OUTER_BOUND('',#1300,.F.);
#1302=ADVANCED_FACE('',(#1301),#1294,.F.);
#1303=CARTESIAN_POINT('',(-2.343771129385E-1,0.E0,1.E0));
#1304=DIRECTION('',(0.E0,0.E0,1.E0));
#1305=DIRECTION('',(1.E0,0.E0,0.E0));
#1306=AXIS2_PLACEMENT_3D('',#1303,#1304,#1305);
#1307=PLANE('',#1306);
#1308=ORIENTED_EDGE('',*,*,#1227,.F.);
#1309=ORIENTED_EDGE('',*,*,#1295,.T.);
#1310=ORIENTED_EDGE('',*,*,#1062,.F.);
#1311=EDGE_LOOP('',(#1308,#1309,#1310));
#1312=FACE_OUTER_BOUND('',#1311,.F.);
#1313=ADVANCED_FACE('',(#1312),#1307,.T.);
#1314=CARTESIAN_POINT('',(0.E0,0.E0,1.E0));
#1315=DIRECTION('',(0.E0,0.E0,-1.E0));
#1316=DIRECTION('',(-1.E0,0.E0,0.E0));
#1317=AXIS2_PLACEMENT_3D('',#1314,#1315,#1316);
#1318=CYLINDRICAL_SURFACE('',#1317,3.465E0);
#1319=ORIENTED_EDGE('',*,*,#1235,.T.);
#1321=ORIENTED_EDGE('',*,*,#1320,.F.);
#1322=ORIENTED_EDGE('',*,*,#959,.T.);
#1323=ORIENTED_EDGE('',*,*,#1252,.F.);
#1324=EDGE_LOOP('',(#1319,#1321,#1322,#1323));
#1325=FACE_OUTER_BOUND('',#1324,.F.);
#1326=ADVANCED_FACE('',(#1325),#1318,.F.);
#1327=CARTESIAN_POINT('',(3.15E0,0.E0,6.E-1));
#1328=DIRECTION('',(0.E0,0.E0,-1.E0));
#1329=DIRECTION('',(-1.E0,0.E0,0.E0));
#1330=AXIS2_PLACEMENT_3D('',#1327,#1328,#1329);
#1331=PLANE('',#1330);
#1332=ORIENTED_EDGE('',*,*,#961,.F.);
#1333=ORIENTED_EDGE('',*,*,#1320,.T.);
#1334=ORIENTED_EDGE('',*,*,#1233,.F.);
#1336=ORIENTED_EDGE('',*,*,#1335,.T.);
#1337=EDGE_LOOP('',(#1332,#1333,#1334,#1336));
#1338=FACE_OUTER_BOUND('',#1337,.F.);
#1339=ADVANCED_FACE('',(#1338),#1331,.F.);
#1340=CARTESIAN_POINT('',(3.3E0,1.98E0,0.E0));
#1341=DIRECTION('',(7.071067811865E-1,7.071067811865E-1,0.E0));
#1342=DIRECTION('',(-7.071067811865E-1,7.071067811865E-1,0.E0));
#1343=AXIS2_PLACEMENT_3D('',#1340,#1341,#1342);
#1344=PLANE('',#1343);
#1345=ORIENTED_EDGE('',*,*,#820,.F.);
#1346=ORIENTED_EDGE('',*,*,#963,.F.);
#1347=ORIENTED_EDGE('',*,*,#1335,.F.);
#1348=ORIENTED_EDGE('',*,*,#1231,.F.);
#1349=EDGE_LOOP('',(#1345,#1346,#1347,#1348));
#1350=FACE_OUTER_BOUND('',#1349,.F.);
#1351=ADVANCED_FACE('',(#1350),#1344,.T.);
#1352=CARTESIAN_POINT('',(0.E0,0.E0,1.E0));
#1353=DIRECTION('',(0.E0,0.E0,-1.E0));
#1354=DIRECTION('',(-1.E0,0.E0,0.E0));
#1355=AXIS2_PLACEMENT_3D('',#1352,#1353,#1354);
#1356=CYLINDRICAL_SURFACE('',#1355,3.465E0);
#1357=ORIENTED_EDGE('',*,*,#955,.T.);
#1359=ORIENTED_EDGE('',*,*,#1358,.F.);
#1360=ORIENTED_EDGE('',*,*,#1040,.T.);
#1361=ORIENTED_EDGE('',*,*,#1255,.F.);
#1362=EDGE_LOOP('',(#1357,#1359,#1360,#1361));
#1363=FACE_OUTER_BOUND('',#1362,.F.);
#1364=ADVANCED_FACE('',(#1363),#1356,.F.);
#1365=CARTESIAN_POINT('',(3.15E0,0.E0,6.E-1));
#1366=DIRECTION('',(0.E0,0.E0,-1.E0));
#1367=DIRECTION('',(-1.E0,0.E0,0.E0));
#1368=AXIS2_PLACEMENT_3D('',#1365,#1366,#1367);
#1369=PLANE('',#1368);
#1370=ORIENTED_EDGE('',*,*,#1042,.F.);
#1371=ORIENTED_EDGE('',*,*,#1358,.T.);
#1372=ORIENTED_EDGE('',*,*,#953,.F.);
#1373=ORIENTED_EDGE('',*,*,#1020,.T.);
#1374=EDGE_LOOP('',(#1370,#1371,#1372,#1373));
#1375=FACE_OUTER_BOUND('',#1374,.F.);
#1376=ADVANCED_FACE('',(#1375),#1369,.F.);
#1377=CARTESIAN_POINT('',(0.E0,0.E0,6.E-1));
#1378=DIRECTION('',(0.E0,0.E0,1.E0));
#1379=DIRECTION('',(-1.E0,0.E0,0.E0));
#1380=AXIS2_PLACEMENT_3D('',#1377,#1378,#1379);
#1381=TOROIDAL_SURFACE('',#1380,2.95E0,2.E-1);
#1382=ORIENTED_EDGE('',*,*,#1259,.F.);
#1384=ORIENTED_EDGE('',*,*,#1383,.F.);
#1386=ORIENTED_EDGE('',*,*,#1385,.T.);
#1388=ORIENTED_EDGE('',*,*,#1387,.T.);
#1389=EDGE_LOOP('',(#1382,#1384,#1386,#1388));
#1390=FACE_OUTER_BOUND('',#1389,.F.);
#1391=ADVANCED_FACE('',(#1390),#1381,.T.);
#1392=CARTESIAN_POINT('',(0.E0,0.E0,6.E-1));
#1393=DIRECTION('',(0.E0,0.E0,1.E0));
#1394=DIRECTION('',(1.E0,0.E0,0.E0));
#1395=AXIS2_PLACEMENT_3D('',#1392,#1393,#1394);
#1396=TOROIDAL_SURFACE('',#1395,2.95E0,2.E-1);
#1397=ORIENTED_EDGE('',*,*,#1261,.F.);
#1398=ORIENTED_EDGE('',*,*,#1387,.F.);
#1400=ORIENTED_EDGE('',*,*,#1399,.T.);
#1401=ORIENTED_EDGE('',*,*,#1383,.T.);
#1402=EDGE_LOOP('',(#1397,#1398,#1400,#1401));
#1403=FACE_OUTER_BOUND('',#1402,.F.);
#1404=ADVANCED_FACE('',(#1403),#1396,.T.);
#1405=CARTESIAN_POINT('',(0.E0,0.E0,4.E-1));
#1406=DIRECTION('',(0.E0,0.E0,1.E0));
#1407=DIRECTION('',(1.E0,0.E0,0.E0));
#1408=AXIS2_PLACEMENT_3D('',#1405,#1406,#1407);
#1409=CYLINDRICAL_SURFACE('',#1408,3.15E0);
#1411=ORIENTED_EDGE('',*,*,#1410,.F.);
#1413=ORIENTED_EDGE('',*,*,#1412,.F.);
#1415=ORIENTED_EDGE('',*,*,#1414,.T.);
#1416=ORIENTED_EDGE('',*,*,#1399,.F.);
#1417=EDGE_LOOP('',(#1411,#1413,#1415,#1416));
#1418=FACE_OUTER_BOUND('',#1417,.F.);
#1419=ADVANCED_FACE('',(#1418),#1409,.T.);
#1420=CARTESIAN_POINT('',(0.E0,0.E0,4.E-1));
#1421=DIRECTION('',(0.E0,0.E0,1.E0));
#1422=DIRECTION('',(1.E0,0.E0,0.E0));
#1423=AXIS2_PLACEMENT_3D('',#1420,#1421,#1422);
#1424=CYLINDRICAL_SURFACE('',#1423,3.15E0);
#1425=ORIENTED_EDGE('',*,*,#1385,.F.);
#1426=ORIENTED_EDGE('',*,*,#1414,.F.);
#1428=ORIENTED_EDGE('',*,*,#1427,.F.);
#1429=ORIENTED_EDGE('',*,*,#1410,.T.);
#1430=EDGE_LOOP('',(#1425,#1426,#1428,#1429));
#1431=FACE_OUTER_BOUND('',#1430,.F.);
#1432=ADVANCED_FACE('',(#1431),#1424,.T.);
#1433=CARTESIAN_POINT('',(0.E0,0.E0,8.798615950711E-1));
#1434=DIRECTION('',(0.E0,0.E0,1.E0));
#1435=DIRECTION('',(-1.E0,0.E0,0.E0));
#1436=AXIS2_PLACEMENT_3D('',#1433,#1434,#1435);
#1437=TOROIDAL_SURFACE('',#1436,2.835E0,3.15E-1);
#1439=ORIENTED_EDGE('',*,*,#1438,.F.);
#1441=ORIENTED_EDGE('',*,*,#1440,.T.);
#1443=ORIENTED_EDGE('',*,*,#1442,.T.);
#1444=ORIENTED_EDGE('',*,*,#1427,.T.);
#1445=EDGE_LOOP('',(#1439,#1441,#1443,#1444));
#1446=FACE_OUTER_BOUND('',#1445,.F.);
#1447=ADVANCED_FACE('',(#1446),#1437,.T.);
#1448=CARTESIAN_POINT('',(0.E0,0.E0,8.798615950711E-1));
#1449=DIRECTION('',(0.E0,0.E0,1.E0));
#1450=DIRECTION('',(1.E0,0.E0,0.E0));
#1451=AXIS2_PLACEMENT_3D('',#1448,#1449,#1450);
#1452=TOROIDAL_SURFACE('',#1451,2.835E0,3.15E-1);
#1453=ORIENTED_EDGE('',*,*,#1412,.T.);
#1454=ORIENTED_EDGE('',*,*,#1442,.F.);
#1456=ORIENTED_EDGE('',*,*,#1455,.T.);
#1457=ORIENTED_EDGE('',*,*,#1438,.T.);
#1458=EDGE_LOOP('',(#1453,#1454,#1456,#1457));
#1459=FACE_OUTER_BOUND('',#1458,.F.);
#1460=ADVANCED_FACE('',(#1459),#1452,.T.);
#1461=CARTESIAN_POINT('',(0.E0,0.E0,1.1375E0));
#1462=DIRECTION('',(0.E0,0.E0,-1.E0));
#1463=DIRECTION('',(1.E0,0.E0,0.E0));
#1464=AXIS2_PLACEMENT_3D('',#1461,#1462,#1463);
#1465=TOROIDAL_SURFACE('',#1464,3.268172543342E0,1.89E-1);
#1467=ORIENTED_EDGE('',*,*,#1466,.T.);
#1468=ORIENTED_EDGE('',*,*,#1455,.F.);
#1470=ORIENTED_EDGE('',*,*,#1469,.T.);
#1472=ORIENTED_EDGE('',*,*,#1471,.F.);
#1473=EDGE_LOOP('',(#1467,#1468,#1470,#1472));
#1474=FACE_OUTER_BOUND('',#1473,.F.);
#1475=ADVANCED_FACE('',(#1474),#1465,.F.);
#1476=CARTESIAN_POINT('',(0.E0,0.E0,1.1375E0));
#1477=DIRECTION('',(0.E0,0.E0,-1.E0));
#1478=DIRECTION('',(-1.E0,0.E0,0.E0));
#1479=AXIS2_PLACEMENT_3D('',#1476,#1477,#1478);
#1480=TOROIDAL_SURFACE('',#1479,3.268172543342E0,1.89E-1);
#1482=ORIENTED_EDGE('',*,*,#1481,.F.);
#1483=ORIENTED_EDGE('',*,*,#1469,.F.);
#1484=ORIENTED_EDGE('',*,*,#1440,.F.);
#1485=ORIENTED_EDGE('',*,*,#1466,.F.);
#1486=EDGE_LOOP('',(#1482,#1483,#1484,#1485));
#1487=FACE_OUTER_BOUND('',#1486,.F.);
#1488=ADVANCED_FACE('',(#1487),#1480,.F.);
#1489=CARTESIAN_POINT('',(0.E0,0.E0,1.395138404929E0));
#1490=DIRECTION('',(0.E0,0.E0,-1.E0));
#1491=DIRECTION('',(1.E0,0.E0,0.E0));
#1492=AXIS2_PLACEMENT_3D('',#1489,#1490,#1491);
#1493=TOROIDAL_SURFACE('',#1492,2.835E0,3.15E-1);
#1495=ORIENTED_EDGE('',*,*,#1494,.F.);
#1496=ORIENTED_EDGE('',*,*,#1481,.T.);
#1498=ORIENTED_EDGE('',*,*,#1497,.T.);
#1500=ORIENTED_EDGE('',*,*,#1499,.T.);
#1501=EDGE_LOOP('',(#1495,#1496,#1498,#1500));
#1502=FACE_OUTER_BOUND('',#1501,.F.);
#1503=ADVANCED_FACE('',(#1502),#1493,.T.);
#1504=CARTESIAN_POINT('',(0.E0,0.E0,1.395138404929E0));
#1505=DIRECTION('',(0.E0,0.E0,-1.E0));
#1506=DIRECTION('',(-1.E0,0.E0,0.E0));
#1507=AXIS2_PLACEMENT_3D('',#1504,#1505,#1506);
#1508=TOROIDAL_SURFACE('',#1507,2.835E0,3.15E-1);
#1510=ORIENTED_EDGE('',*,*,#1509,.T.);
#1511=ORIENTED_EDGE('',*,*,#1497,.F.);
#1512=ORIENTED_EDGE('',*,*,#1471,.T.);
#1513=ORIENTED_EDGE('',*,*,#1494,.T.);
#1514=EDGE_LOOP('',(#1510,#1511,#1512,#1513));
#1515=FACE_OUTER_BOUND('',#1514,.F.);
#1516=ADVANCED_FACE('',(#1515),#1508,.T.);
#1517=CARTESIAN_POINT('',(0.E0,0.E0,4.E-1));
#1518=DIRECTION('',(0.E0,0.E0,1.E0));
#1519=DIRECTION('',(1.E0,0.E0,0.E0));
#1520=AXIS2_PLACEMENT_3D('',#1517,#1518,#1519);
#1521=CYLINDRICAL_SURFACE('',#1520,3.15E0);
#1523=ORIENTED_EDGE('',*,*,#1522,.T.);
#1525=ORIENTED_EDGE('',*,*,#1524,.F.);
#1526=ORIENTED_EDGE('',*,*,#1509,.F.);
#1528=ORIENTED_EDGE('',*,*,#1527,.F.);
#1529=EDGE_LOOP('',(#1523,#1525,#1526,#1528));
#1530=FACE_OUTER_BOUND('',#1529,.F.);
#1531=ADVANCED_FACE('',(#1530),#1521,.T.);
#1532=CARTESIAN_POINT('',(0.E0,0.E0,1.33E1));
#1533=DIRECTION('',(0.E0,0.E0,1.E0));
#1534=DIRECTION('',(9.999764354666E-1,6.865020874E-3,0.E0));
#1535=AXIS2_PLACEMENT_3D('',#1532,#1533,#1534);
#1536=TOROIDAL_SURFACE('',#1535,2.95E0,2.E-1);
#1537=ORIENTED_EDGE('',*,*,#1522,.F.);
#1539=ORIENTED_EDGE('',*,*,#1538,.F.);
#1541=ORIENTED_EDGE('',*,*,#1540,.T.);
#1543=ORIENTED_EDGE('',*,*,#1542,.F.);
#1545=ORIENTED_EDGE('',*,*,#1544,.T.);
#1546=EDGE_LOOP('',(#1537,#1539,#1541,#1543,#1545));
#1547=FACE_OUTER_BOUND('',#1546,.F.);
#1548=ADVANCED_FACE('',(#1547),#1536,.T.);
#1549=CARTESIAN_POINT('',(0.E0,0.E0,1.33E1));
#1550=DIRECTION('',(0.E0,0.E0,1.E0));
#1551=DIRECTION('',(-9.999764354666E-1,-6.865020873999E-3,0.E0));
#1552=AXIS2_PLACEMENT_3D('',#1549,#1550,#1551);
#1553=TOROIDAL_SURFACE('',#1552,2.95E0,2.E-1);
#1555=ORIENTED_EDGE('',*,*,#1554,.F.);
#1556=ORIENTED_EDGE('',*,*,#1544,.F.);
#1558=ORIENTED_EDGE('',*,*,#1557,.F.);
#1560=ORIENTED_EDGE('',*,*,#1559,.T.);
#1561=ORIENTED_EDGE('',*,*,#1538,.T.);
#1562=EDGE_LOOP('',(#1555,#1556,#1558,#1560,#1561));
#1563=FACE_OUTER_BOUND('',#1562,.F.);
#1564=ADVANCED_FACE('',(#1563),#1553,.T.);
#1565=CARTESIAN_POINT('',(0.E0,0.E0,4.E-1));
#1566=DIRECTION('',(0.E0,0.E0,1.E0));
#1567=DIRECTION('',(1.E0,0.E0,0.E0));
#1568=AXIS2_PLACEMENT_3D('',#1565,#1566,#1567);
#1569=CYLINDRICAL_SURFACE('',#1568,3.15E0);
#1570=ORIENTED_EDGE('',*,*,#1554,.T.);
#1571=ORIENTED_EDGE('',*,*,#1527,.T.);
#1572=ORIENTED_EDGE('',*,*,#1499,.F.);
#1573=ORIENTED_EDGE('',*,*,#1524,.T.);
#1574=EDGE_LOOP('',(#1570,#1571,#1572,#1573));
#1575=FACE_OUTER_BOUND('',#1574,.F.);
#1576=ADVANCED_FACE('',(#1575),#1569,.T.);
#1577=CARTESIAN_POINT('',(0.E0,0.E0,1.35E1));
#1578=DIRECTION('',(0.E0,0.E0,1.E0));
#1579=DIRECTION('',(1.E0,0.E0,0.E0));
#1580=AXIS2_PLACEMENT_3D('',#1577,#1578,#1579);
#1581=PLANE('',#1580);
#1582=ORIENTED_EDGE('',*,*,#1557,.T.);
#1583=ORIENTED_EDGE('',*,*,#1542,.T.);
#1585=ORIENTED_EDGE('',*,*,#1584,.T.);
#1586=EDGE_LOOP('',(#1582,#1583,#1585));
#1587=FACE_OUTER_BOUND('',#1586,.F.);
#1588=ADVANCED_FACE('',(#1587),#1581,.T.);
#1589=CARTESIAN_POINT('',(0.E0,2.95E0,5.9E0));
#1590=DIRECTION('',(1.E0,0.E0,0.E0));
#1591=DIRECTION('',(0.E0,0.E0,-1.E0));
#1592=AXIS2_PLACEMENT_3D('',#1589,#1590,#1591);
#1593=PLANE('',#1592);
#1595=ORIENTED_EDGE('',*,*,#1594,.F.);
#1596=ORIENTED_EDGE('',*,*,#1584,.F.);
#1598=ORIENTED_EDGE('',*,*,#1597,.F.);
#1600=ORIENTED_EDGE('',*,*,#1599,.F.);
#1601=EDGE_LOOP('',(#1595,#1596,#1598,#1600));
#1602=FACE_OUTER_BOUND('',#1601,.F.);
#1603=ADVANCED_FACE('',(#1602),#1593,.F.);
#1604=CARTESIAN_POINT('',(0.E0,0.E0,5.9E0));
#1605=DIRECTION('',(0.E0,0.E0,-1.E0));
#1606=DIRECTION('',(-1.E0,0.E0,0.E0));
#1607=AXIS2_PLACEMENT_3D('',#1604,#1605,#1606);
#1608=CYLINDRICAL_SURFACE('',#1607,2.95E0);
#1609=ORIENTED_EDGE('',*,*,#1559,.F.);
#1610=ORIENTED_EDGE('',*,*,#1594,.T.);
#1612=ORIENTED_EDGE('',*,*,#1611,.F.);
#1614=ORIENTED_EDGE('',*,*,#1613,.F.);
#1615=ORIENTED_EDGE('',*,*,#1597,.T.);
#1616=ORIENTED_EDGE('',*,*,#1540,.F.);
#1617=EDGE_LOOP('',(#1609,#1610,#1612,#1614,#1615,#1616));
#1618=FACE_OUTER_BOUND('',#1617,.F.);
#1619=ADVANCED_FACE('',(#1618),#1608,.F.);
#1620=CARTESIAN_POINT('',(-1.015803292910E0,0.E0,1.19E1));
#1621=DIRECTION('',(0.E0,0.E0,1.E0));
#1622=DIRECTION('',(1.E0,0.E0,0.E0));
#1623=AXIS2_PLACEMENT_3D('',#1620,#1621,#1622);
#1624=PLANE('',#1623);
#1625=ORIENTED_EDGE('',*,*,#1613,.T.);
#1626=ORIENTED_EDGE('',*,*,#1611,.T.);
#1627=ORIENTED_EDGE('',*,*,#1599,.T.);
#1628=EDGE_LOOP('',(#1625,#1626,#1627));
#1629=FACE_OUTER_BOUND('',#1628,.F.);
#1631=ORIENTED_EDGE('',*,*,#1630,.T.);
#1633=ORIENTED_EDGE('',*,*,#1632,.T.);
#1635=ORIENTED_EDGE('',*,*,#1634,.T.);
#1636=EDGE_LOOP('',(#1631,#1633,#1635));
#1637=FACE_BOUND('',#1636,.F.);
#1638=ADVANCED_FACE('',(#1629,#1637),#1624,.T.);
#1639=CARTESIAN_POINT('',(0.E0,0.E0,1.19E1));
#1640=DIRECTION('',(0.E0,0.E0,1.E0));
#1641=DIRECTION('',(1.E0,0.E0,0.E0));
#1642=AXIS2_PLACEMENT_3D('',#1639,#1640,#1641);
#1643=CYLINDRICAL_SURFACE('',#1642,2.9E0);
#1645=ORIENTED_EDGE('',*,*,#1644,.F.);
#1647=ORIENTED_EDGE('',*,*,#1646,.F.);
#1649=ORIENTED_EDGE('',*,*,#1648,.T.);
#1650=ORIENTED_EDGE('',*,*,#1632,.F.);
#1651=ORIENTED_EDGE('',*,*,#1630,.F.);
#1653=ORIENTED_EDGE('',*,*,#1652,.T.);
#1654=EDGE_LOOP('',(#1645,#1647,#1649,#1650,#1651,#1653));
#1655=FACE_OUTER_BOUND('',#1654,.F.);
#1656=ADVANCED_FACE('',(#1655),#1643,.T.);
#1657=CARTESIAN_POINT('',(0.E0,0.E0,1.35E1));
#1658=DIRECTION('',(0.E0,0.E0,1.E0));
#1659=DIRECTION('',(1.E0,0.E0,0.E0));
#1660=AXIS2_PLACEMENT_3D('',#1657,#1658,#1659);
#1661=PLANE('',#1660);
#1662=ORIENTED_EDGE('',*,*,#1646,.T.);
#1663=ORIENTED_EDGE('',*,*,#1644,.T.);
#1665=ORIENTED_EDGE('',*,*,#1664,.F.);
#1666=EDGE_LOOP('',(#1662,#1663,#1665));
#1667=FACE_OUTER_BOUND('',#1666,.F.);
#1668=ADVANCED_FACE('',(#1667),#1661,.T.);
#1669=CARTESIAN_POINT('',(-5.E-2,-2.899568933480E0,1.19E1));
#1670=DIRECTION('',(1.E0,0.E0,0.E0));
#1671=DIRECTION('',(0.E0,1.E0,0.E0));
#1672=AXIS2_PLACEMENT_3D('',#1669,#1670,#1671);
#1673=PLANE('',#1672);
#1674=ORIENTED_EDGE('',*,*,#1634,.F.);
#1675=ORIENTED_EDGE('',*,*,#1648,.F.);
#1676=ORIENTED_EDGE('',*,*,#1664,.T.);
#1677=ORIENTED_EDGE('',*,*,#1652,.F.);
#1678=EDGE_LOOP('',(#1674,#1675,#1676,#1677));
#1679=FACE_OUTER_BOUND('',#1678,.F.);
#1680=ADVANCED_FACE('',(#1679),#1673,.T.);
#1681=CARTESIAN_POINT('',(4.2E0,4.2E-1,0.E0));
#1682=DIRECTION('',(0.E0,1.E0,0.E0));
#1683=DIRECTION('',(-1.E0,0.E0,0.E0));
#1684=AXIS2_PLACEMENT_3D('',#1681,#1682,#1683);
#1685=PLANE('',#1684);
#1686=ORIENTED_EDGE('',*,*,#922,.F.);
#1687=ORIENTED_EDGE('',*,*,#966,.F.);
#1688=ORIENTED_EDGE('',*,*,#816,.T.);
#1689=ORIENTED_EDGE('',*,*,#877,.F.);
#1690=EDGE_LOOP('',(#1686,#1687,#1688,#1689));
#1691=FACE_OUTER_BOUND('',#1690,.F.);
#1692=ADVANCED_FACE('',(#1691),#1685,.F.);
#1696=DIMENSIONAL_EXPONENTS(0.E0,0.E0,0.E0,0.E0,0.E0,0.E0,0.E0);
#1698=PLANE_ANGLE_MEASURE_WITH_UNIT(PLANE_ANGLE_MEASURE(1.745329251994E-2),
#1697);
#1699=(CONVERSION_BASED_UNIT('DEGREE',#1698)NAMED_UNIT(*)PLANE_ANGLE_UNIT());
#1701=UNCERTAINTY_MEASURE_WITH_UNIT(LENGTH_MEASURE(1.670561799056E-3),#1695,
'closure',
'Maximum model space distance between geometric entities at asserted connectivities');
#1702=(GEOMETRIC_REPRESENTATION_CONTEXT(3)GLOBAL_UNCERTAINTY_ASSIGNED_CONTEXT((
#1701))GLOBAL_UNIT_ASSIGNED_CONTEXT((#1695,#1699,#1700))REPRESENTATION_CONTEXT(
'ID1','3'));
#1704=APPLICATION_CONTEXT(
'CONFIGURATION CONTROLLED 3D DESIGNS OF MECHANICAL PARTS AND ASSEMBLIES');
#1705=APPLICATION_PROTOCOL_DEFINITION('international standard',
'config_control_design',1994,#1704);
#1706=DESIGN_CONTEXT('',#1704,'design');
#1707=MECHANICAL_CONTEXT('',#1704,'mechanical');
#1708=PRODUCT('PRT0001','PRT0001','NOT SPECIFIED',(#1707));
#1709=PRODUCT_DEFINITION_FORMATION_WITH_SPECIFIED_SOURCE('1','LAST_VERSION',
#1708,.MADE.);
#1713=PRODUCT_CATEGORY('part','');
#1714=PRODUCT_RELATED_PRODUCT_CATEGORY('detail','',(#1708));
#1715=PRODUCT_CATEGORY_RELATIONSHIP('','',#1713,#1714);
#1716=SECURITY_CLASSIFICATION_LEVEL('unclassified');
#1717=SECURITY_CLASSIFICATION('','',#1716);
#1718=CC_DESIGN_SECURITY_CLASSIFICATION(#1717,(#1709));
#1719=APPROVAL_STATUS('approved');
#1720=APPROVAL(#1719,'');
#1721=CC_DESIGN_APPROVAL(#1720,(#1717,#1709,#1710));
#1722=CALENDAR_DATE(122,3,4);
#1723=COORDINATED_UNIVERSAL_TIME_OFFSET(8,0,.AHEAD.);
#1724=LOCAL_TIME(11,9,2.6E1,#1723);
#1725=DATE_AND_TIME(#1722,#1724);
#1726=APPROVAL_DATE_TIME(#1725,#1720);
#1727=DATE_TIME_ROLE('creation_date');
#1728=CC_DESIGN_DATE_AND_TIME_ASSIGNMENT(#1725,#1727,(#1710));
#1729=DATE_TIME_ROLE('classification_date');
#1730=CC_DESIGN_DATE_AND_TIME_ASSIGNMENT(#1725,#1729,(#1717));
#1731=PERSON('UNSPECIFIED','UNSPECIFIED',$,$,$,$);
#1732=ORGANIZATION('UNSPECIFIED','UNSPECIFIED','UNSPECIFIED');
#1733=PERSON_AND_ORGANIZATION(#1731,#1732);
#1734=APPROVAL_ROLE('approver');
#1735=APPROVAL_PERSON_ORGANIZATION(#1733,#1720,#1734);
#1736=PERSON_AND_ORGANIZATION_ROLE('creator');
#1737=CC_DESIGN_PERSON_AND_ORGANIZATION_ASSIGNMENT(#1733,#1736,(#1709,#1710));
#1738=PERSON_AND_ORGANIZATION_ROLE('design_supplier');
#1739=CC_DESIGN_PERSON_AND_ORGANIZATION_ASSIGNMENT(#1733,#1738,(#1709));
#1740=PERSON_AND_ORGANIZATION_ROLE('classification_officer');
#1741=CC_DESIGN_PERSON_AND_ORGANIZATION_ASSIGNMENT(#1733,#1740,(#1717));
#1742=PERSON_AND_ORGANIZATION_ROLE('design_owner');
#1743=CC_DESIGN_PERSON_AND_ORGANIZATION_ASSIGNMENT(#1733,#1742,(#1708));
#317=CIRCLE('',#316,3.465E0);
#322=CIRCLE('',#321,3.465E0);
#327=CIRCLE('',#326,3.465E0);
#336=CIRCLE('',#335,3.465E0);
#341=CIRCLE('',#340,3.123205080757E0);
#346=CIRCLE('',#345,3.123205080757E0);
#359=CIRCLE('',#358,3.465E0);
#372=CIRCLE('',#371,3.465E0);
#385=CIRCLE('',#384,3.465E0);
#402=CIRCLE('',#401,3.465E0);
#411=CIRCLE('',#410,3.15E0);
#416=CIRCLE('',#415,2.E-1);
#421=CIRCLE('',#420,3.15E0);
#426=CIRCLE('',#425,2.E-1);
#439=CIRCLE('',#438,3.105732839589E0);
#444=CIRCLE('',#443,3.15E-1);
#449=CIRCLE('',#448,3.15E0);
#454=CIRCLE('',#453,3.15E0);
#459=CIRCLE('',#458,3.105732839589E0);
#464=CIRCLE('',#463,3.15E-1);
#469=CIRCLE('',#468,1.89E-1);
#474=CIRCLE('',#473,1.89E-1);
#479=CIRCLE('',#478,3.105732839589E0);
#484=CIRCLE('',#483,3.15E-1);
#489=CIRCLE('',#488,3.15E0);
#494=CIRCLE('',#493,3.15E0);
#499=CIRCLE('',#498,3.105732839589E0);
#504=CIRCLE('',#503,3.15E-1);
#509=CIRCLE('',#508,3.15E0);
#514=CIRCLE('',#513,2.95E0);
#519=CIRCLE('',#518,2.E-1);
#524=CIRCLE('',#523,2.95E0);
#529=CIRCLE('',#528,2.E-1);
#534=CIRCLE('',#533,3.15E0);
#547=CIRCLE('',#546,2.95E0);
#552=CIRCLE('',#551,2.95E0);
#569=CIRCLE('',#568,2.95E0);
#574=CIRCLE('',#573,2.95E0);
#583=CIRCLE('',#582,2.9E0);
#588=CIRCLE('',#587,2.9E0);
#605=CIRCLE('',#604,2.9E0);
#610=CIRCLE('',#609,2.9E0);
#806=EDGE_CURVE('',#791,#670,#12,.T.);
#808=EDGE_CURVE('',#634,#791,#32,.T.);
#810=EDGE_CURVE('',#632,#634,#132,.T.);
#812=EDGE_CURVE('',#795,#632,#120,.T.);
#814=EDGE_CURVE('',#654,#795,#20,.T.);
#816=EDGE_CURVE('',#653,#654,#618,.T.);
#818=EDGE_CURVE('',#656,#653,#88,.T.);
#820=EDGE_CURVE('',#656,#658,#4,.T.);
#822=EDGE_CURVE('',#660,#658,#304,.T.);
#824=EDGE_CURVE('',#650,#660,#172,.T.);
#826=EDGE_CURVE('',#649,#650,#288,.T.);
#828=EDGE_CURVE('',#784,#649,#256,.T.);
#830=EDGE_CURVE('',#622,#784,#272,.T.);
#832=EDGE_CURVE('',#621,#622,#284,.T.);
#834=EDGE_CURVE('',#780,#621,#216,.T.);
#836=EDGE_CURVE('',#642,#780,#252,.T.);
#838=EDGE_CURVE('',#640,#642,#244,.T.);
#840=EDGE_CURVE('',#662,#640,#192,.T.);
#842=EDGE_CURVE('',#664,#662,#144,.T.);
#844=EDGE_CURVE('',#664,#666,#8,.T.);
#846=EDGE_CURVE('',#668,#666,#68,.T.);
#848=EDGE_CURVE('',#670,#668,#52,.T.);
#858=EDGE_CURVE('',#791,#792,#24,.T.);
#861=EDGE_CURVE('',#674,#670,#56,.T.);
#863=EDGE_CURVE('',#792,#674,#36,.T.);
#873=EDGE_CURVE('',#795,#796,#116,.T.);
#875=EDGE_CURVE('',#672,#796,#48,.T.);
#877=EDGE_CURVE('',#672,#654,#16,.T.);
#889=EDGE_CURVE('',#792,#787,#28,.T.);
#891=EDGE_CURVE('',#630,#787,#112,.T.);
#893=EDGE_CURVE('',#634,#630,#136,.T.);
#906=EDGE_CURVE('',#674,#678,#40,.T.);
#908=EDGE_CURVE('',#787,#678,#60,.T.);
#918=EDGE_CURVE('',#796,#788,#124,.T.);
#920=EDGE_CURVE('',#676,#788,#96,.T.);
#922=EDGE_CURVE('',#676,#672,#44,.T.);
#934=EDGE_CURVE('',#678,#668,#64,.T.);
#946=EDGE_CURVE('',#787,#788,#100,.T.);
#951=EDGE_CURVE('',#666,#680,#72,.T.);
#953=EDGE_CURVE('',#680,#682,#76,.T.);
#955=EDGE_CURVE('',#684,#682,#393,.T.);
#957=EDGE_CURVE('',#686,#684,#331,.T.);
#959=EDGE_CURVE('',#688,#686,#380,.T.);
#961=EDGE_CURVE('',#688,#690,#80,.T.);
#963=EDGE_CURVE('',#690,#656,#84,.T.);
#966=EDGE_CURVE('',#653,#676,#92,.T.);
#978=EDGE_CURVE('',#788,#629,#104,.T.);
#980=EDGE_CURVE('',#629,#630,#108,.T.);
#993=EDGE_CURVE('',#629,#632,#128,.T.);
#1018=EDGE_CURVE('',#664,#692,#140,.T.);
#1020=EDGE_CURVE('',#680,#692,#406,.T.);
#1032=EDGE_CURVE('',#662,#694,#148,.T.);
#1034=EDGE_CURVE('',#694,#696,#152,.T.);
#1036=EDGE_CURVE('',#698,#696,#350,.T.);
#1038=EDGE_CURVE('',#698,#700,#156,.T.);
#1040=EDGE_CURVE('',#702,#700,#397,.T.);
#1042=EDGE_CURVE('',#702,#692,#160,.T.);
#1053=EDGE_CURVE('',#775,#776,#204,.T.);
#1055=EDGE_CURVE('',#776,#646,#164,.T.);
#1057=EDGE_CURVE('',#646,#650,#168,.T.);
#1060=EDGE_CURVE('',#660,#704,#176,.T.);
#1062=EDGE_CURVE('',#704,#706,#180,.T.);
#1064=EDGE_CURVE('',#708,#706,#367,.T.);
#1066=EDGE_CURVE('',#708,#710,#184,.T.);
#1068=EDGE_CURVE('',#712,#710,#354,.T.);
#1070=EDGE_CURVE('',#712,#694,#188,.T.);
#1074=EDGE_CURVE('',#640,#637,#196,.T.);
#1076=EDGE_CURVE('',#637,#775,#200,.T.);
#1087=EDGE_CURVE('',#626,#775,#224,.T.);
#1089=EDGE_CURVE('',#625,#626,#280,.T.);
#1091=EDGE_CURVE('',#776,#625,#264,.T.);
#1101=EDGE_CURVE('',#778,#775,#208,.T.);
#1103=EDGE_CURVE('',#778,#780,#212,.T.);
#1106=EDGE_CURVE('',#621,#626,#220,.T.);
#1119=EDGE_CURVE('',#637,#638,#228,.T.);
#1121=EDGE_CURVE('',#638,#778,#232,.T.);
#1131=EDGE_CURVE('',#782,#776,#260,.T.);
#1133=EDGE_CURVE('',#782,#645,#236,.T.);
#1135=EDGE_CURVE('',#645,#646,#240,.T.);
#1149=EDGE_CURVE('',#638,#642,#248,.T.);
#1171=EDGE_CURVE('',#784,#782,#276,.T.);
#1174=EDGE_CURVE('',#645,#649,#292,.T.);
#1187=EDGE_CURVE('',#625,#622,#268,.T.);
#1223=EDGE_CURVE('',#715,#716,#296,.T.);
#1225=EDGE_CURVE('',#718,#716,#363,.T.);
#1227=EDGE_CURVE('',#718,#704,#300,.T.);
#1231=EDGE_CURVE('',#658,#720,#308,.T.);
#1233=EDGE_CURVE('',#720,#722,#312,.T.);
#1235=EDGE_CURVE('',#715,#722,#376,.T.);
#1246=EDGE_CURVE('',#698,#710,#317,.T.);
#1249=EDGE_CURVE('',#708,#716,#322,.T.);
#1252=EDGE_CURVE('',#715,#686,#327,.T.);
#1255=EDGE_CURVE('',#684,#700,#336,.T.);
#1259=EDGE_CURVE('',#799,#800,#341,.T.);
#1261=EDGE_CURVE('',#800,#799,#346,.T.);
#1273=EDGE_CURVE('',#712,#696,#359,.T.);
#1295=EDGE_CURVE('',#718,#706,#372,.T.);
#1320=EDGE_CURVE('',#688,#722,#385,.T.);
#1335=EDGE_CURVE('',#720,#690,#389,.T.);
#1358=EDGE_CURVE('',#702,#682,#402,.T.);
#1383=EDGE_CURVE('',#754,#799,#426,.T.);
#1385=EDGE_CURVE('',#754,#752,#411,.T.);
#1387=EDGE_CURVE('',#752,#800,#416,.T.);
#1399=EDGE_CURVE('',#752,#754,#421,.T.);
#1410=EDGE_CURVE('',#750,#752,#434,.T.);
#1412=EDGE_CURVE('',#748,#750,#454,.T.);
#1414=EDGE_CURVE('',#748,#754,#430,.T.);
#1427=EDGE_CURVE('',#750,#748,#449,.T.);
#1438=EDGE_CURVE('',#746,#748,#464,.T.);
#1440=EDGE_CURVE('',#746,#745,#439,.T.);
#1442=EDGE_CURVE('',#745,#750,#444,.T.);
#1455=EDGE_CURVE('',#745,#746,#459,.T.);
#1466=EDGE_CURVE('',#742,#746,#469,.T.);
#1469=EDGE_CURVE('',#745,#740,#474,.T.);
#1471=EDGE_CURVE('',#742,#740,#499,.T.);
#1481=EDGE_CURVE('',#740,#742,#479,.T.);
#1494=EDGE_CURVE('',#740,#728,#504,.T.);
#1497=EDGE_CURVE('',#742,#725,#484,.T.);
#1499=EDGE_CURVE('',#725,#728,#489,.T.);
#1509=EDGE_CURVE('',#728,#725,#494,.T.);
#1522=EDGE_CURVE('',#730,#726,#509,.T.);
#1524=EDGE_CURVE('',#725,#726,#542,.T.);
#1527=EDGE_CURVE('',#730,#728,#538,.T.);
#1538=EDGE_CURVE('',#732,#730,#529,.T.);
#1540=EDGE_CURVE('',#732,#734,#514,.T.);
#1542=EDGE_CURVE('',#736,#734,#552,.T.);
#1544=EDGE_CURVE('',#736,#726,#519,.T.);
#1554=EDGE_CURVE('',#726,#730,#534,.T.);
#1557=EDGE_CURVE('',#738,#736,#547,.T.);
#1559=EDGE_CURVE('',#738,#732,#524,.T.);
#1584=EDGE_CURVE('',#734,#738,#556,.T.);
#1594=EDGE_CURVE('',#738,#756,#560,.T.);
#1597=EDGE_CURVE('',#758,#734,#564,.T.);
#1599=EDGE_CURVE('',#756,#758,#578,.T.);
#1611=EDGE_CURVE('',#760,#756,#574,.T.);
#1613=EDGE_CURVE('',#758,#760,#569,.T.);
#1630=EDGE_CURVE('',#763,#764,#583,.T.);
#1632=EDGE_CURVE('',#764,#766,#588,.T.);
#1634=EDGE_CURVE('',#766,#763,#592,.T.);
#1644=EDGE_CURVE('',#769,#770,#610,.T.);
#1646=EDGE_CURVE('',#772,#769,#605,.T.);
#1648=EDGE_CURVE('',#772,#766,#596,.T.);
#1652=EDGE_CURVE('',#763,#770,#600,.T.);
#1664=EDGE_CURVE('',#772,#770,#614,.T.);
#1693=CLOSED_SHELL('',(#852,#867,#882,#898,#912,#927,#940,#971,#985,#999,#1011,
#1025,#1047,#1080,#1095,#1111,#1125,#1140,#1153,#1165,#1179,#1193,#1205,#1217,
#1239,#1265,#1278,#1289,#1302,#1313,#1326,#1339,#1351,#1364,#1376,#1391,#1404,
#1419,#1432,#1447,#1460,#1475,#1488,#1503,#1516,#1531,#1548,#1564,#1576,#1588,
#1603,#1619,#1638,#1656,#1668,#1680,#1692));
#1694=MANIFOLD_SOLID_BREP('',#1693);
#1695=(LENGTH_UNIT()NAMED_UNIT(*)SI_UNIT(.MILLI.,.METRE.));
#1697=(NAMED_UNIT(*)PLANE_ANGLE_UNIT()SI_UNIT($,.RADIAN.));
#1700=(NAMED_UNIT(*)SI_UNIT($,.STERADIAN.)SOLID_ANGLE_UNIT());
#1703=ADVANCED_BREP_SHAPE_REPRESENTATION('',(#1694),#1702);
#1710=PRODUCT_DEFINITION('design','',#1709,#1706);
#1711=PRODUCT_DEFINITION_SHAPE('','SHAPE FOR PRT0001.',#1710);
#1712=SHAPE_DEFINITION_REPRESENTATION(#1711,#1703);
ENDSEC;
END-ISO-10303-21;
