ISO-10303-21;
HEADER;
/* Generated by software containing ST-Developer
 * from STEP Tools, Inc. (www.steptools.com) 
 */
/* OPTION: using custom schema-name function */

FILE_DESCRIPTION(
/* description */ (''),
/* implementation_level */ '2;1');

FILE_NAME(
/* name */ 'AAADDD.stp',
/* time_stamp */ '2024-09-18T18:53:30+08:00',
/* author */ (''),
/* organization */ (''),
/* preprocessor_version */ 'ST-DEVELOPER v14',
/* originating_system */ 'SIEMENS PLM Software NX 8.0',
/* authorisation */ '');

FILE_SCHEMA (('CONFIG_CONTROL_DESIGN'));
ENDSEC;

DATA;
#10=SHAPE_REPRESENTATION_RELATIONSHIP('None',
'relationship between _model42-None and _model42-None',#92,#11);
#11=ADVANCED_BREP_SHAPE_REPRESENTATION('_model42-None',(#93),#259);
#12=CC_DESIGN_APPROVAL(#24,(#82));
#13=CC_DESIGN_APPROVAL(#25,(#84));
#14=CC_DESIGN_APPROVAL(#26,(#31));
#15=APPROVAL_PERSON_ORGANIZATION(#69,#24,#18);
#16=APPROVAL_PERSON_ORGANIZATION(#70,#25,#19);
#17=APPROVAL_PERSON_ORGANIZATION(#71,#26,#20);
#18=APPROVAL_ROLE('approver');
#19=APPROVAL_ROLE('approver');
#20=APPROVAL_ROLE('approver');
#21=APPROVAL_DATE_TIME(#39,#24);
#22=APPROVAL_DATE_TIME(#40,#25);
#23=APPROVAL_DATE_TIME(#41,#26);
#24=APPROVAL(#27,' ');
#25=APPROVAL(#28,' ');
#26=APPROVAL(#29,' ');
#27=APPROVAL_STATUS('not_yet_approved');
#28=APPROVAL_STATUS('not_yet_approved');
#29=APPROVAL_STATUS('not_yet_approved');
#30=CC_DESIGN_SECURITY_CLASSIFICATION(#31,(#84));
#31=SECURITY_CLASSIFICATION(' ',' ',#32);
#32=SECURITY_CLASSIFICATION_LEVEL('confidential');
#33=CC_DESIGN_DATE_AND_TIME_ASSIGNMENT(#37,#35,(#82));
#34=CC_DESIGN_DATE_AND_TIME_ASSIGNMENT(#38,#36,(#31));
#35=DATE_TIME_ROLE('creation_date');
#36=DATE_TIME_ROLE('classification_date');
#37=DATE_AND_TIME(#52,#42);
#38=DATE_AND_TIME(#53,#43);
#39=DATE_AND_TIME(#54,#44);
#40=DATE_AND_TIME(#55,#45);
#41=DATE_AND_TIME(#56,#46);
#42=LOCAL_TIME(0,0,0.,#47);
#43=LOCAL_TIME(0,0,0.,#48);
#44=LOCAL_TIME(0,0,0.,#49);
#45=LOCAL_TIME(0,0,0.,#50);
#46=LOCAL_TIME(0,0,0.,#51);
#47=COORDINATED_UNIVERSAL_TIME_OFFSET(0,0,.BEHIND.);
#48=COORDINATED_UNIVERSAL_TIME_OFFSET(0,0,.BEHIND.);
#49=COORDINATED_UNIVERSAL_TIME_OFFSET(0,0,.BEHIND.);
#50=COORDINATED_UNIVERSAL_TIME_OFFSET(0,0,.BEHIND.);
#51=COORDINATED_UNIVERSAL_TIME_OFFSET(0,0,.BEHIND.);
#52=CALENDAR_DATE(0,1,1);
#53=CALENDAR_DATE(0,1,1);
#54=CALENDAR_DATE(0,1,1);
#55=CALENDAR_DATE(0,1,1);
#56=CALENDAR_DATE(0,1,1);
#57=CC_DESIGN_PERSON_AND_ORGANIZATION_ASSIGNMENT(#65,#61,(#82,#84));
#58=CC_DESIGN_PERSON_AND_ORGANIZATION_ASSIGNMENT(#66,#62,(#86));
#59=CC_DESIGN_PERSON_AND_ORGANIZATION_ASSIGNMENT(#67,#63,(#84));
#60=CC_DESIGN_PERSON_AND_ORGANIZATION_ASSIGNMENT(#68,#64,(#31));
#61=PERSON_AND_ORGANIZATION_ROLE('creator');
#62=PERSON_AND_ORGANIZATION_ROLE('design_owner');
#63=PERSON_AND_ORGANIZATION_ROLE('design_supplier');
#64=PERSON_AND_ORGANIZATION_ROLE('classification_officer');
#65=PERSON_AND_ORGANIZATION(#79,#72);
#66=PERSON_AND_ORGANIZATION(#79,#73);
#67=PERSON_AND_ORGANIZATION(#79,#74);
#68=PERSON_AND_ORGANIZATION(#79,#75);
#69=PERSON_AND_ORGANIZATION(#79,#76);
#70=PERSON_AND_ORGANIZATION(#79,#77);
#71=PERSON_AND_ORGANIZATION(#79,#78);
#72=ORGANIZATION(' ',' ',' ');
#73=ORGANIZATION(' ',' ',' ');
#74=ORGANIZATION(' ',' ',' ');
#75=ORGANIZATION(' ',' ',' ');
#76=ORGANIZATION(' ',' ',' ');
#77=ORGANIZATION(' ',' ',' ');
#78=ORGANIZATION(' ',' ',' ');
#79=PERSON(' ',' ',' ',(' '),$,$);
#80=SHAPE_DEFINITION_REPRESENTATION(#81,#92);
#81=PRODUCT_DEFINITION_SHAPE('','',#82);
#82=PRODUCT_DEFINITION(' ','',#84,#83);
#83=DESIGN_CONTEXT('',#91,'design');
#84=PRODUCT_DEFINITION_FORMATION_WITH_SPECIFIED_SOURCE(' ',' ',#86,
 .NOT_KNOWN.);
#85=PRODUCT_RELATED_PRODUCT_CATEGORY('detail','',(#86));
#86=PRODUCT('_model42','_model42',' ',(#89));
#87=PRODUCT_CATEGORY('part',' ');
#88=PRODUCT_CATEGORY(' ','');
#89=MECHANICAL_CONTEXT(' ',#91,'mechanical');
#90=APPLICATION_PROTOCOL_DEFINITION('international standard',
'config_control_design',2010,#91);
#91=APPLICATION_CONTEXT(
'configuration controlled 3D designs of mechanical parts and assemblies');
#92=SHAPE_REPRESENTATION('_model42-None',(#183),#259);
#93=MANIFOLD_SOLID_BREP('',#94);
#94=CLOSED_SHELL('',(#100,#101,#102,#103,#104,#105,#106,#107));
#95=TOROIDAL_SURFACE('',#198,1.8,0.2);
#96=TOROIDAL_SURFACE('',#199,1.8,0.2);
#97=CYLINDRICAL_SURFACE('',#192,2.);
#98=CYLINDRICAL_SURFACE('',#193,1.);
#99=CYLINDRICAL_SURFACE('',#197,1.45);
#100=ADVANCED_FACE('',(#111,#112),#108,.F.);
#101=ADVANCED_FACE('',(#113,#114),#109,.T.);
#102=ADVANCED_FACE('',(#115,#116),#97,.T.);
#103=ADVANCED_FACE('',(#117,#118),#98,.F.);
#104=ADVANCED_FACE('',(#119,#120),#110,.F.);
#105=ADVANCED_FACE('',(#121,#122),#99,.T.);
#106=ADVANCED_FACE('',(#123,#124),#95,.T.);
#107=ADVANCED_FACE('',(#125,#126),#96,.T.);
#108=PLANE('',#186);
#109=PLANE('',#189);
#110=PLANE('',#196);
#111=FACE_BOUND('',#127,.T.);
#112=FACE_BOUND('',#128,.T.);
#113=FACE_BOUND('',#129,.T.);
#114=FACE_BOUND('',#130,.T.);
#115=FACE_BOUND('',#131,.T.);
#116=FACE_BOUND('',#132,.T.);
#117=FACE_BOUND('',#133,.T.);
#118=FACE_BOUND('',#134,.T.);
#119=FACE_BOUND('',#135,.T.);
#120=FACE_BOUND('',#136,.T.);
#121=FACE_BOUND('',#137,.T.);
#122=FACE_BOUND('',#138,.T.);
#123=FACE_BOUND('',#139,.T.);
#124=FACE_BOUND('',#140,.T.);
#125=FACE_BOUND('',#141,.T.);
#126=FACE_BOUND('',#142,.T.);
#127=EDGE_LOOP('',(#143));
#128=EDGE_LOOP('',(#144));
#129=EDGE_LOOP('',(#145));
#130=EDGE_LOOP('',(#146));
#131=EDGE_LOOP('',(#147));
#132=EDGE_LOOP('',(#148));
#133=EDGE_LOOP('',(#149));
#134=EDGE_LOOP('',(#150));
#135=EDGE_LOOP('',(#151));
#136=EDGE_LOOP('',(#152));
#137=EDGE_LOOP('',(#153));
#138=EDGE_LOOP('',(#154));
#139=EDGE_LOOP('',(#155));
#140=EDGE_LOOP('',(#156));
#141=EDGE_LOOP('',(#157));
#142=EDGE_LOOP('',(#158));
#143=ORIENTED_EDGE('',*,*,#167,.F.);
#144=ORIENTED_EDGE('',*,*,#168,.T.);
#145=ORIENTED_EDGE('',*,*,#169,.T.);
#146=ORIENTED_EDGE('',*,*,#170,.F.);
#147=ORIENTED_EDGE('',*,*,#171,.T.);
#148=ORIENTED_EDGE('',*,*,#172,.T.);
#149=ORIENTED_EDGE('',*,*,#168,.F.);
#150=ORIENTED_EDGE('',*,*,#170,.T.);
#151=ORIENTED_EDGE('',*,*,#173,.T.);
#152=ORIENTED_EDGE('',*,*,#174,.F.);
#153=ORIENTED_EDGE('',*,*,#174,.T.);
#154=ORIENTED_EDGE('',*,*,#167,.T.);
#155=ORIENTED_EDGE('',*,*,#171,.F.);
#156=ORIENTED_EDGE('',*,*,#169,.F.);
#157=ORIENTED_EDGE('',*,*,#172,.F.);
#158=ORIENTED_EDGE('',*,*,#173,.F.);
#159=VERTEX_POINT('',#236);
#160=VERTEX_POINT('',#238);
#161=VERTEX_POINT('',#241);
#162=VERTEX_POINT('',#243);
#163=VERTEX_POINT('',#246);
#164=VERTEX_POINT('',#248);
#165=VERTEX_POINT('',#252);
#166=VERTEX_POINT('',#254);
#167=EDGE_CURVE('',#159,#159,#175,.T.);
#168=EDGE_CURVE('',#160,#160,#176,.T.);
#169=EDGE_CURVE('',#161,#161,#177,.T.);
#170=EDGE_CURVE('',#162,#162,#178,.T.);
#171=EDGE_CURVE('',#163,#163,#179,.T.);
#172=EDGE_CURVE('',#164,#164,#180,.T.);
#173=EDGE_CURVE('',#165,#165,#181,.T.);
#174=EDGE_CURVE('',#166,#166,#182,.T.);
#175=CIRCLE('',#184,1.45);
#176=CIRCLE('',#185,1.);
#177=CIRCLE('',#187,1.8);
#178=CIRCLE('',#188,1.);
#179=CIRCLE('',#190,2.);
#180=CIRCLE('',#191,2.);
#181=CIRCLE('',#194,1.8);
#182=CIRCLE('',#195,1.45);
#183=AXIS2_PLACEMENT_3D('',#234,#200,#201);
#184=AXIS2_PLACEMENT_3D('',#235,#202,#203);
#185=AXIS2_PLACEMENT_3D('',#237,#204,#205);
#186=AXIS2_PLACEMENT_3D('',#239,#206,#207);
#187=AXIS2_PLACEMENT_3D('',#240,#208,#209);
#188=AXIS2_PLACEMENT_3D('',#242,#210,#211);
#189=AXIS2_PLACEMENT_3D('',#244,#212,#213);
#190=AXIS2_PLACEMENT_3D('',#245,#214,#215);
#191=AXIS2_PLACEMENT_3D('',#247,#216,#217);
#192=AXIS2_PLACEMENT_3D('',#249,#218,#219);
#193=AXIS2_PLACEMENT_3D('',#250,#220,#221);
#194=AXIS2_PLACEMENT_3D('',#251,#222,#223);
#195=AXIS2_PLACEMENT_3D('',#253,#224,#225);
#196=AXIS2_PLACEMENT_3D('',#255,#226,#227);
#197=AXIS2_PLACEMENT_3D('',#256,#228,#229);
#198=AXIS2_PLACEMENT_3D('',#257,#230,#231);
#199=AXIS2_PLACEMENT_3D('',#258,#232,#233);
#200=DIRECTION('',(0.,0.,1.));
#201=DIRECTION('',(1.,0.,0.));
#202=DIRECTION('',(-2.14264717079971E-012,0.,1.));
#203=DIRECTION('',(1.,0.,2.14268258308584E-012));
#204=DIRECTION('',(-2.14264717079971E-012,0.,1.));
#205=DIRECTION('',(1.,0.,2.14281717370035E-012));
#206=DIRECTION('',(-2.14264717079971E-012,0.,1.));
#207=DIRECTION('',(0.,-1.,0.));
#208=DIRECTION('',(-2.14264717079971E-012,0.,1.));
#209=DIRECTION('',(1.,0.,2.14264717079971E-012));
#210=DIRECTION('',(-2.14264717079971E-012,0.,1.));
#211=DIRECTION('',(1.,0.,2.14264717079971E-012));
#212=DIRECTION('',(-2.14264717079971E-012,0.,1.));
#213=DIRECTION('',(0.,-1.,0.));
#214=DIRECTION('',(2.14264717079971E-012,0.,-1.));
#215=DIRECTION('',(1.,0.,2.14264099084732E-012));
#216=DIRECTION('',(-2.14264717079971E-012,0.,1.));
#217=DIRECTION('',(1.,0.,2.14260033326585E-012));
#218=DIRECTION('',(-2.14264717079971E-012,0.,1.));
#219=DIRECTION('',(1.,0.,2.14260033326585E-012));
#220=DIRECTION('',(-2.14264717079971E-012,0.,1.));
#221=DIRECTION('',(1.,0.,2.14281717370035E-012));
#222=DIRECTION('',(2.14264717079971E-012,0.,-1.));
#223=DIRECTION('',(1.,0.,2.14262442664746E-012));
#224=DIRECTION('',(2.14264717079971E-012,0.,-1.));
#225=DIRECTION('',(1.,0.,2.14268258308584E-012));
#226=DIRECTION('',(-2.14264717079971E-012,0.,1.));
#227=DIRECTION('',(0.,-1.,0.));
#228=DIRECTION('',(0.,0.,-1.));
#229=DIRECTION('',(-1.,0.,0.));
#230=DIRECTION('',(-2.14264717079971E-012,0.,1.));
#231=DIRECTION('',(1.,0.,2.14264099084732E-012));
#232=DIRECTION('',(-2.14264717079971E-012,0.,1.));
#233=DIRECTION('',(1.,0.,2.14260033326585E-012));
#234=CARTESIAN_POINT('',(0.,0.,0.));
#235=CARTESIAN_POINT('',(1.37251321419285E-010,0.0022606045211801,-3.5));
#236=CARTESIAN_POINT('',(1.45000000013725,0.0022606045211801,-3.49999999999689));
#237=CARTESIAN_POINT('',(7.50094431012371E-012,0.,-3.5));
#238=CARTESIAN_POINT('',(1.0000000000075,0.,-3.49999999999786));
#239=CARTESIAN_POINT('',(37.801848701016,13.,-3.499999999919));
#240=CARTESIAN_POINT('',(0.,0.,0.));
#241=CARTESIAN_POINT('',(1.8,0.,3.85676490743947E-012));
#242=CARTESIAN_POINT('',(0.,0.,0.));
#243=CARTESIAN_POINT('',(1.,0.,2.14264717079971E-012));
#244=CARTESIAN_POINT('',(37.8018487010086,13.,8.09959738168331E-011));
#245=CARTESIAN_POINT('',(4.30211422042248E-013,0.,-0.2));
#246=CARTESIAN_POINT('',(2.00000000000043,0.,-0.199999999995715));
#247=CARTESIAN_POINT('',(4.92661467177413E-012,0.,-2.3));
#248=CARTESIAN_POINT('',(2.00000000000493,0.,-2.29999999999571));
#249=CARTESIAN_POINT('',(5.35682609381638E-012,0.,-2.49999999995211));
#250=CARTESIAN_POINT('',(5.35682609381638E-012,0.,-2.49999999995211));
#251=CARTESIAN_POINT('',(5.35682609381638E-012,0.,-2.5));
#252=CARTESIAN_POINT('',(1.80000000000536,0.,-2.49999999999614));
#253=CARTESIAN_POINT('',(1.37251321419285E-010,0.0022606045211801,-2.5));
#254=CARTESIAN_POINT('',(1.45000000013725,0.0022606045211801,-2.49999999999689));
#255=CARTESIAN_POINT('',(37.8018487010139,13.,-2.499999999919));
#256=CARTESIAN_POINT('',(1.37251321419285E-010,0.0022606045211801,-2.91999999993728));
#257=CARTESIAN_POINT('',(4.30211422042248E-013,0.,-0.2));
#258=CARTESIAN_POINT('',(4.92661467177413E-012,0.,-2.3));
#259=(
GEOMETRIC_REPRESENTATION_CONTEXT(3)
GLOBAL_UNCERTAINTY_ASSIGNED_CONTEXT((#260))
GLOBAL_UNIT_ASSIGNED_CONTEXT((#266,#262,#261))
REPRESENTATION_CONTEXT('AAADDD','TOP_LEVEL_ASSEMBLY_PART')
);
#260=UNCERTAINTY_MEASURE_WITH_UNIT(LENGTH_MEASURE(2.E-005),#266,
'DISTANCE_ACCURACY_VALUE','Maximum Tolerance applied to model');
#261=(
NAMED_UNIT(*)
SI_UNIT($,.STERADIAN.)
SOLID_ANGLE_UNIT()
);
#262=(
CONVERSION_BASED_UNIT('DEGREE',#264)
NAMED_UNIT(#263)
PLANE_ANGLE_UNIT()
);
#263=DIMENSIONAL_EXPONENTS(0.,0.,0.,0.,0.,0.,0.);
#264=PLANE_ANGLE_MEASURE_WITH_UNIT(PLANE_ANGLE_MEASURE(0.0174532925),#265);
#265=(
NAMED_UNIT(*)
PLANE_ANGLE_UNIT()
SI_UNIT($,.RADIAN.)
);
#266=(
LENGTH_UNIT()
NAMED_UNIT(*)
SI_UNIT(.MILLI.,.METRE.)
);
ENDSEC;
END-ISO-10303-21;
