ISO-10303-21;
HEADER;
FILE_DESCRIPTION((''),'2;1');
FILE_NAME('TONG-LUOMU','2025-07-07T11:53:22',('Administrator'),(''),
'CREO PARAMETRIC BY PTC INC, 2023073','CREO PARAMETRIC BY PTC INC, 2023073','');
FILE_SCHEMA(('CONFIG_CONTROL_DESIGN'));
ENDSEC;
DATA;
#1=CARTESIAN_POINT('',(0.E0,0.E0,-4.1E0));
#2=DIRECTION('',(0.E0,0.E0,1.E0));
#3=DIRECTION('',(1.E0,0.E0,0.E0));
#4=AXIS2_PLACEMENT_3D('',#1,#2,#3);
#6=DIRECTION('',(0.E0,0.E0,1.E0));
#7=VECTOR('',#6,4.1E0);
#8=CARTESIAN_POINT('',(1.E0,0.E0,-4.1E0));
#9=LINE('',#8,#7);
#10=DIRECTION('',(0.E0,0.E0,1.E0));
#11=VECTOR('',#10,4.1E0);
#12=CARTESIAN_POINT('',(-1.E0,0.E0,-4.1E0));
#13=LINE('',#12,#11);
#14=CARTESIAN_POINT('',(0.E0,0.E0,-4.1E0));
#15=DIRECTION('',(0.E0,0.E0,-1.E0));
#16=DIRECTION('',(1.E0,0.E0,0.E0));
#17=AXIS2_PLACEMENT_3D('',#14,#15,#16);
#19=CARTESIAN_POINT('',(0.E0,0.E0,0.E0));
#20=DIRECTION('',(0.E0,0.E0,-1.E0));
#21=DIRECTION('',(1.E0,0.E0,0.E0));
#22=AXIS2_PLACEMENT_3D('',#19,#20,#21);
#24=CARTESIAN_POINT('',(0.E0,0.E0,0.E0));
#25=DIRECTION('',(0.E0,0.E0,1.E0));
#26=DIRECTION('',(1.E0,0.E0,0.E0));
#27=AXIS2_PLACEMENT_3D('',#24,#25,#26);
#29=CARTESIAN_POINT('',(0.E0,0.E0,0.E0));
#30=DIRECTION('',(0.E0,0.E0,1.E0));
#31=DIRECTION('',(1.E0,0.E0,0.E0));
#32=AXIS2_PLACEMENT_3D('',#29,#30,#31);
#34=DIRECTION('',(0.E0,0.E0,-1.E0));
#35=VECTOR('',#34,2.9E0);
#36=CARTESIAN_POINT('',(2.25E0,0.E0,0.E0));
#37=LINE('',#36,#35);
#38=DIRECTION('',(0.E0,0.E0,-1.E0));
#39=VECTOR('',#38,2.9E0);
#40=CARTESIAN_POINT('',(-2.25E0,0.E0,0.E0));
#41=LINE('',#40,#39);
#42=CARTESIAN_POINT('',(0.E0,0.E0,0.E0));
#43=DIRECTION('',(0.E0,0.E0,-1.E0));
#44=DIRECTION('',(1.E0,0.E0,0.E0));
#45=AXIS2_PLACEMENT_3D('',#42,#43,#44);
#47=CARTESIAN_POINT('',(0.E0,0.E0,-2.9E0));
#48=DIRECTION('',(0.E0,0.E0,-1.E0));
#49=DIRECTION('',(1.E0,0.E0,0.E0));
#50=AXIS2_PLACEMENT_3D('',#47,#48,#49);
#52=CARTESIAN_POINT('',(0.E0,0.E0,-2.9E0));
#53=DIRECTION('',(0.E0,0.E0,1.E0));
#54=DIRECTION('',(1.E0,0.E0,0.E0));
#55=AXIS2_PLACEMENT_3D('',#52,#53,#54);
#57=CARTESIAN_POINT('',(0.E0,0.E0,-3.8E0));
#58=DIRECTION('',(0.E0,0.E0,-1.E0));
#59=DIRECTION('',(-1.E0,0.E0,0.E0));
#60=AXIS2_PLACEMENT_3D('',#57,#58,#59);
#62=CARTESIAN_POINT('',(0.E0,0.E0,-2.9E0));
#63=DIRECTION('',(0.E0,0.E0,1.E0));
#64=DIRECTION('',(1.E0,0.E0,0.E0));
#65=AXIS2_PLACEMENT_3D('',#62,#63,#64);
#67=DIRECTION('',(-7.071067811865E-1,2.185368711314E-12,7.071067811865E-1));
#68=VECTOR('',#67,4.242640687120E-1);
#69=CARTESIAN_POINT('',(-1.45E0,-9.778030175443E-12,-4.1E0));
#70=LINE('',#69,#68);
#71=CARTESIAN_POINT('',(0.E0,0.E0,-4.1E0));
#72=DIRECTION('',(0.E0,0.E0,-1.E0));
#73=DIRECTION('',(-1.E0,0.E0,0.E0));
#74=AXIS2_PLACEMENT_3D('',#71,#72,#73);
#76=CARTESIAN_POINT('',(0.E0,0.E0,-4.1E0));
#77=DIRECTION('',(0.E0,0.E0,-1.E0));
#78=DIRECTION('',(1.E0,0.E0,0.E0));
#79=AXIS2_PLACEMENT_3D('',#76,#77,#78);
#81=DIRECTION('',(7.071067811865E-1,-2.185451431525E-12,7.071067811865E-1));
#82=VECTOR('',#81,4.242640687120E-1);
#83=CARTESIAN_POINT('',(1.45E0,9.778400270417E-12,-4.1E0));
#84=LINE('',#83,#82);
#85=CARTESIAN_POINT('',(0.E0,0.E0,-3.8E0));
#86=DIRECTION('',(0.E0,0.E0,-1.E0));
#87=DIRECTION('',(1.E0,0.E0,0.E0));
#88=AXIS2_PLACEMENT_3D('',#85,#86,#87);
#90=DIRECTION('',(1.707276295646E-13,-9.834126532093E-12,-1.E0));
#91=VECTOR('',#90,9.000000000002E-1);
#92=CARTESIAN_POINT('',(-1.75E0,0.E0,-2.9E0));
#93=LINE('',#92,#91);
#94=CARTESIAN_POINT('',(0.E0,0.E0,-2.9E0));
#95=DIRECTION('',(0.E0,0.E0,-1.E0));
#96=DIRECTION('',(1.E0,0.E0,0.E0));
#97=AXIS2_PLACEMENT_3D('',#94,#95,#96);
#99=DIRECTION('',(-1.702341971092E-13,9.834498754050E-12,-1.E0));
#100=VECTOR('',#99,9.000000000002E-1);
#101=CARTESIAN_POINT('',(1.75E0,0.E0,-2.9E0));
#102=LINE('',#101,#100);
#103=CARTESIAN_POINT('',(1.E0,0.E0,-4.1E0));
#104=CARTESIAN_POINT('',(1.E0,0.E0,0.E0));
#105=VERTEX_POINT('',#103);
#106=VERTEX_POINT('',#104);
#107=CARTESIAN_POINT('',(2.25E0,0.E0,0.E0));
#108=CARTESIAN_POINT('',(2.25E0,0.E0,-2.9E0));
#109=VERTEX_POINT('',#107);
#110=VERTEX_POINT('',#108);
#111=CARTESIAN_POINT('',(-1.E0,0.E0,-4.1E0));
#112=CARTESIAN_POINT('',(-1.E0,0.E0,0.E0));
#113=VERTEX_POINT('',#111);
#114=VERTEX_POINT('',#112);
#115=CARTESIAN_POINT('',(-2.25E0,0.E0,0.E0));
#116=CARTESIAN_POINT('',(-2.25E0,0.E0,-2.9E0));
#117=VERTEX_POINT('',#115);
#118=VERTEX_POINT('',#116);
#119=CARTESIAN_POINT('',(1.75E0,0.E0,-2.9E0));
#120=CARTESIAN_POINT('',(-1.75E0,0.E0,-2.9E0));
#121=VERTEX_POINT('',#119);
#122=VERTEX_POINT('',#120);
#123=CARTESIAN_POINT('',(-1.45E0,0.E0,-4.1E0));
#124=CARTESIAN_POINT('',(1.45E0,0.E0,-4.1E0));
#125=VERTEX_POINT('',#123);
#126=VERTEX_POINT('',#124);
#127=CARTESIAN_POINT('',(-1.75E0,0.E0,-3.8E0));
#128=CARTESIAN_POINT('',(1.75E0,0.E0,-3.8E0));
#129=VERTEX_POINT('',#127);
#130=VERTEX_POINT('',#128);
#131=CARTESIAN_POINT('',(0.E0,0.E0,-4.305E0));
#132=DIRECTION('',(0.E0,0.E0,1.E0));
#133=DIRECTION('',(-1.E0,0.E0,0.E0));
#134=AXIS2_PLACEMENT_3D('',#131,#132,#133);
#135=CYLINDRICAL_SURFACE('',#134,1.E0);
#137=ORIENTED_EDGE('',*,*,#136,.F.);
#139=ORIENTED_EDGE('',*,*,#138,.T.);
#141=ORIENTED_EDGE('',*,*,#140,.T.);
#143=ORIENTED_EDGE('',*,*,#142,.F.);
#144=EDGE_LOOP('',(#137,#139,#141,#143));
#145=FACE_OUTER_BOUND('',#144,.F.);
#146=ADVANCED_FACE('',(#145),#135,.F.);
#147=CARTESIAN_POINT('',(0.E0,0.E0,-4.305E0));
#148=DIRECTION('',(0.E0,0.E0,1.E0));
#149=DIRECTION('',(-1.E0,0.E0,0.E0));
#150=AXIS2_PLACEMENT_3D('',#147,#148,#149);
#151=CYLINDRICAL_SURFACE('',#150,1.E0);
#152=ORIENTED_EDGE('',*,*,#136,.T.);
#154=ORIENTED_EDGE('',*,*,#153,.T.);
#155=ORIENTED_EDGE('',*,*,#140,.F.);
#157=ORIENTED_EDGE('',*,*,#156,.F.);
#158=EDGE_LOOP('',(#152,#154,#155,#157));
#159=FACE_OUTER_BOUND('',#158,.F.);
#160=ADVANCED_FACE('',(#159),#151,.F.);
#161=CARTESIAN_POINT('',(0.E0,0.E0,0.E0));
#162=DIRECTION('',(0.E0,0.E0,1.E0));
#163=DIRECTION('',(-1.E0,0.E0,0.E0));
#164=AXIS2_PLACEMENT_3D('',#161,#162,#163);
#165=PLANE('',#164);
#167=ORIENTED_EDGE('',*,*,#166,.F.);
#169=ORIENTED_EDGE('',*,*,#168,.T.);
#170=EDGE_LOOP('',(#167,#169));
#171=FACE_OUTER_BOUND('',#170,.F.);
#172=ORIENTED_EDGE('',*,*,#153,.F.);
#173=ORIENTED_EDGE('',*,*,#142,.T.);
#174=EDGE_LOOP('',(#172,#173));
#175=FACE_BOUND('',#174,.F.);
#176=ADVANCED_FACE('',(#171,#175),#165,.T.);
#177=CARTESIAN_POINT('',(0.E0,0.E0,-4.305E0));
#178=DIRECTION('',(0.E0,0.E0,1.E0));
#179=DIRECTION('',(-1.E0,0.E0,0.E0));
#180=AXIS2_PLACEMENT_3D('',#177,#178,#179);
#181=CYLINDRICAL_SURFACE('',#180,2.25E0);
#183=ORIENTED_EDGE('',*,*,#182,.F.);
#184=ORIENTED_EDGE('',*,*,#166,.T.);
#186=ORIENTED_EDGE('',*,*,#185,.T.);
#188=ORIENTED_EDGE('',*,*,#187,.F.);
#189=EDGE_LOOP('',(#183,#184,#186,#188));
#190=FACE_OUTER_BOUND('',#189,.F.);
#191=ADVANCED_FACE('',(#190),#181,.T.);
#192=CARTESIAN_POINT('',(0.E0,0.E0,-4.305E0));
#193=DIRECTION('',(0.E0,0.E0,1.E0));
#194=DIRECTION('',(-1.E0,0.E0,0.E0));
#195=AXIS2_PLACEMENT_3D('',#192,#193,#194);
#196=CYLINDRICAL_SURFACE('',#195,2.25E0);
#197=ORIENTED_EDGE('',*,*,#182,.T.);
#199=ORIENTED_EDGE('',*,*,#198,.T.);
#200=ORIENTED_EDGE('',*,*,#185,.F.);
#201=ORIENTED_EDGE('',*,*,#168,.F.);
#202=EDGE_LOOP('',(#197,#199,#200,#201));
#203=FACE_OUTER_BOUND('',#202,.F.);
#204=ADVANCED_FACE('',(#203),#196,.T.);
#205=CARTESIAN_POINT('',(0.E0,0.E0,-2.9E0));
#206=DIRECTION('',(0.E0,0.E0,1.E0));
#207=DIRECTION('',(-1.E0,0.E0,0.E0));
#208=AXIS2_PLACEMENT_3D('',#205,#206,#207);
#209=PLANE('',#208);
#210=ORIENTED_EDGE('',*,*,#198,.F.);
#211=ORIENTED_EDGE('',*,*,#187,.T.);
#212=EDGE_LOOP('',(#210,#211));
#213=FACE_OUTER_BOUND('',#212,.F.);
#215=ORIENTED_EDGE('',*,*,#214,.F.);
#217=ORIENTED_EDGE('',*,*,#216,.T.);
#218=EDGE_LOOP('',(#215,#217));
#219=FACE_BOUND('',#218,.F.);
#220=ADVANCED_FACE('',(#213,#219),#209,.F.);
#221=CARTESIAN_POINT('',(0.E0,0.E0,-4.305E0));
#222=DIRECTION('',(0.E0,0.E0,1.E0));
#223=DIRECTION('',(-1.E0,0.E0,0.E0));
#224=AXIS2_PLACEMENT_3D('',#221,#222,#223);
#225=CYLINDRICAL_SURFACE('',#224,1.75E0);
#227=ORIENTED_EDGE('',*,*,#226,.T.);
#229=ORIENTED_EDGE('',*,*,#228,.F.);
#230=ORIENTED_EDGE('',*,*,#214,.T.);
#232=ORIENTED_EDGE('',*,*,#231,.T.);
#233=EDGE_LOOP('',(#227,#229,#230,#232));
#234=FACE_OUTER_BOUND('',#233,.F.);
#235=ADVANCED_FACE('',(#234),#225,.T.);
#236=CARTESIAN_POINT('',(0.E0,0.E0,-3.95E0));
#237=DIRECTION('',(0.E0,0.E0,1.E0));
#238=DIRECTION('',(0.E0,-1.E0,0.E0));
#239=AXIS2_PLACEMENT_3D('',#236,#237,#238);
#240=CONICAL_SURFACE('',#239,1.6E0,4.5E1);
#242=ORIENTED_EDGE('',*,*,#241,.T.);
#244=ORIENTED_EDGE('',*,*,#243,.T.);
#245=ORIENTED_EDGE('',*,*,#226,.F.);
#247=ORIENTED_EDGE('',*,*,#246,.F.);
#248=EDGE_LOOP('',(#242,#244,#245,#247));
#249=FACE_OUTER_BOUND('',#248,.F.);
#250=ADVANCED_FACE('',(#249),#240,.T.);
#251=CARTESIAN_POINT('',(0.E0,0.E0,-4.1E0));
#252=DIRECTION('',(0.E0,0.E0,1.E0));
#253=DIRECTION('',(-1.E0,0.E0,0.E0));
#254=AXIS2_PLACEMENT_3D('',#251,#252,#253);
#255=PLANE('',#254);
#256=ORIENTED_EDGE('',*,*,#241,.F.);
#258=ORIENTED_EDGE('',*,*,#257,.F.);
#259=EDGE_LOOP('',(#256,#258));
#260=FACE_OUTER_BOUND('',#259,.F.);
#261=ORIENTED_EDGE('',*,*,#138,.F.);
#262=ORIENTED_EDGE('',*,*,#156,.T.);
#263=EDGE_LOOP('',(#261,#262));
#264=FACE_BOUND('',#263,.F.);
#265=ADVANCED_FACE('',(#260,#264),#255,.F.);
#266=CARTESIAN_POINT('',(0.E0,0.E0,-3.95E0));
#267=DIRECTION('',(0.E0,0.E0,1.E0));
#268=DIRECTION('',(0.E0,-1.E0,0.E0));
#269=AXIS2_PLACEMENT_3D('',#266,#267,#268);
#270=CONICAL_SURFACE('',#269,1.6E0,4.5E1);
#271=ORIENTED_EDGE('',*,*,#257,.T.);
#272=ORIENTED_EDGE('',*,*,#246,.T.);
#274=ORIENTED_EDGE('',*,*,#273,.F.);
#275=ORIENTED_EDGE('',*,*,#243,.F.);
#276=EDGE_LOOP('',(#271,#272,#274,#275));
#277=FACE_OUTER_BOUND('',#276,.F.);
#278=ADVANCED_FACE('',(#277),#270,.T.);
#279=CARTESIAN_POINT('',(0.E0,0.E0,-4.305E0));
#280=DIRECTION('',(0.E0,0.E0,1.E0));
#281=DIRECTION('',(-1.E0,0.E0,0.E0));
#282=AXIS2_PLACEMENT_3D('',#279,#280,#281);
#283=CYLINDRICAL_SURFACE('',#282,1.75E0);
#284=ORIENTED_EDGE('',*,*,#273,.T.);
#285=ORIENTED_EDGE('',*,*,#231,.F.);
#286=ORIENTED_EDGE('',*,*,#216,.F.);
#287=ORIENTED_EDGE('',*,*,#228,.T.);
#288=EDGE_LOOP('',(#284,#285,#286,#287));
#289=FACE_OUTER_BOUND('',#288,.F.);
#290=ADVANCED_FACE('',(#289),#283,.T.);
#294=DIMENSIONAL_EXPONENTS(0.E0,0.E0,0.E0,0.E0,0.E0,0.E0,0.E0);
#296=PLANE_ANGLE_MEASURE_WITH_UNIT(PLANE_ANGLE_MEASURE(1.745329251994E-2),#295);
#297=(CONVERSION_BASED_UNIT('DEGREE',#296)NAMED_UNIT(*)PLANE_ANGLE_UNIT());
#299=UNCERTAINTY_MEASURE_WITH_UNIT(LENGTH_MEASURE(3.9E-4),#293,'closure',
'Maximum model space distance between geometric entities at asserted connectivities');
#300=(GEOMETRIC_REPRESENTATION_CONTEXT(3)GLOBAL_UNCERTAINTY_ASSIGNED_CONTEXT((
#299))GLOBAL_UNIT_ASSIGNED_CONTEXT((#293,#297,#298))REPRESENTATION_CONTEXT
('ID1','3'));
#302=APPLICATION_CONTEXT(
'CONFIGURATION CONTROLLED 3D DESIGNS OF MECHANICAL PARTS AND ASSEMBLIES');
#303=APPLICATION_PROTOCOL_DEFINITION('international standard',
'config_control_design',1994,#302);
#304=DESIGN_CONTEXT('',#302,'design');
#305=MECHANICAL_CONTEXT('',#302,'mechanical');
#306=PRODUCT('TONG-LUOMU','TONG-LUOMU','NOT SPECIFIED',(#305));
#307=PRODUCT_DEFINITION_FORMATION_WITH_SPECIFIED_SOURCE('14','LAST_VERSION',
#306,.MADE.);
#311=PRODUCT_CATEGORY('part','');
#312=PRODUCT_RELATED_PRODUCT_CATEGORY('detail','',(#306));
#313=PRODUCT_CATEGORY_RELATIONSHIP('','',#311,#312);
#314=SECURITY_CLASSIFICATION_LEVEL('unclassified');
#315=SECURITY_CLASSIFICATION('','',#314);
#316=CC_DESIGN_SECURITY_CLASSIFICATION(#315,(#307));
#317=APPROVAL_STATUS('approved');
#318=APPROVAL(#317,'');
#319=CC_DESIGN_APPROVAL(#318,(#315,#307,#308));
#320=CALENDAR_DATE(125,7,7);
#321=COORDINATED_UNIVERSAL_TIME_OFFSET(8,0,.AHEAD.);
#322=LOCAL_TIME(11,53,2.2E1,#321);
#323=DATE_AND_TIME(#320,#322);
#324=APPROVAL_DATE_TIME(#323,#318);
#325=DATE_TIME_ROLE('creation_date');
#326=CC_DESIGN_DATE_AND_TIME_ASSIGNMENT(#323,#325,(#308));
#327=DATE_TIME_ROLE('classification_date');
#328=CC_DESIGN_DATE_AND_TIME_ASSIGNMENT(#323,#327,(#315));
#329=PERSON('UNSPECIFIED','UNSPECIFIED',$,$,$,$);
#330=ORGANIZATION('UNSPECIFIED','UNSPECIFIED','UNSPECIFIED');
#331=PERSON_AND_ORGANIZATION(#329,#330);
#332=APPROVAL_ROLE('approver');
#333=APPROVAL_PERSON_ORGANIZATION(#331,#318,#332);
#334=PERSON_AND_ORGANIZATION_ROLE('creator');
#335=CC_DESIGN_PERSON_AND_ORGANIZATION_ASSIGNMENT(#331,#334,(#307,#308));
#336=PERSON_AND_ORGANIZATION_ROLE('design_supplier');
#337=CC_DESIGN_PERSON_AND_ORGANIZATION_ASSIGNMENT(#331,#336,(#307));
#338=PERSON_AND_ORGANIZATION_ROLE('classification_officer');
#339=CC_DESIGN_PERSON_AND_ORGANIZATION_ASSIGNMENT(#331,#338,(#315));
#340=PERSON_AND_ORGANIZATION_ROLE('design_owner');
#341=CC_DESIGN_PERSON_AND_ORGANIZATION_ASSIGNMENT(#331,#340,(#306));
#5=CIRCLE('',#4,1.E0);
#18=CIRCLE('',#17,1.E0);
#23=CIRCLE('',#22,1.E0);
#28=CIRCLE('',#27,1.E0);
#33=CIRCLE('',#32,2.25E0);
#46=CIRCLE('',#45,2.25E0);
#51=CIRCLE('',#50,2.25E0);
#56=CIRCLE('',#55,2.25E0);
#61=CIRCLE('',#60,1.75E0);
#66=CIRCLE('',#65,1.75E0);
#75=CIRCLE('',#74,1.45E0);
#80=CIRCLE('',#79,1.45E0);
#89=CIRCLE('',#88,1.75E0);
#98=CIRCLE('',#97,1.75E0);
#136=EDGE_CURVE('',#105,#106,#9,.T.);
#138=EDGE_CURVE('',#105,#113,#5,.T.);
#140=EDGE_CURVE('',#113,#114,#13,.T.);
#142=EDGE_CURVE('',#106,#114,#28,.T.);
#153=EDGE_CURVE('',#106,#114,#23,.T.);
#156=EDGE_CURVE('',#105,#113,#18,.T.);
#166=EDGE_CURVE('',#109,#117,#33,.T.);
#168=EDGE_CURVE('',#109,#117,#46,.T.);
#182=EDGE_CURVE('',#109,#110,#37,.T.);
#185=EDGE_CURVE('',#117,#118,#41,.T.);
#187=EDGE_CURVE('',#110,#118,#56,.T.);
#198=EDGE_CURVE('',#110,#118,#51,.T.);
#214=EDGE_CURVE('',#121,#122,#66,.T.);
#216=EDGE_CURVE('',#121,#122,#98,.T.);
#226=EDGE_CURVE('',#129,#130,#61,.T.);
#228=EDGE_CURVE('',#121,#130,#102,.T.);
#231=EDGE_CURVE('',#122,#129,#93,.T.);
#241=EDGE_CURVE('',#125,#126,#75,.T.);
#243=EDGE_CURVE('',#126,#130,#84,.T.);
#246=EDGE_CURVE('',#125,#129,#70,.T.);
#257=EDGE_CURVE('',#126,#125,#80,.T.);
#273=EDGE_CURVE('',#130,#129,#89,.T.);
#291=CLOSED_SHELL('',(#146,#160,#176,#191,#204,#220,#235,#250,#265,#278,#290));
#292=MANIFOLD_SOLID_BREP('',#291);
#293=(LENGTH_UNIT()NAMED_UNIT(*)SI_UNIT(.MILLI.,.METRE.));
#295=(NAMED_UNIT(*)PLANE_ANGLE_UNIT()SI_UNIT($,.RADIAN.));
#298=(NAMED_UNIT(*)SI_UNIT($,.STERADIAN.)SOLID_ANGLE_UNIT());
#301=ADVANCED_BREP_SHAPE_REPRESENTATION('',(#292),#300);
#308=PRODUCT_DEFINITION('design','',#307,#304);
#309=PRODUCT_DEFINITION_SHAPE('','SHAPE FOR TONG-LUOMU.',#308);
#310=SHAPE_DEFINITION_REPRESENTATION(#309,#301);
ENDSEC;
END-ISO-10303-21;
