ISO-10303-21;
HEADER;
FILE_DESCRIPTION((''),'2;1');
FILE_NAME('TONG-LUOMU','2025-05-23T16:14:30',('Administrator'),(''),
'CREO PARAMETRIC BY PTC INC, 2023073','CREO PARAMETRIC BY PTC INC, 2023073','');
FILE_SCHEMA(('CONFIG_CONTROL_DESIGN'));
ENDSEC;
DATA;
#1=CARTESIAN_POINT('',(0.E0,0.E0,-4.1E0));
#2=DIRECTION('',(0.E0,0.E0,1.E0));
#3=DIRECTION('',(1.E0,0.E0,0.E0));
#4=AXIS2_PLACEMENT_3D('',#1,#2,#3);
#6=DIRECTION('',(0.E0,0.E0,1.E0));
#7=VECTOR('',#6,4.1E0);
#8=CARTESIAN_POINT('',(1.15E0,0.E0,-4.1E0));
#9=LINE('',#8,#7);
#10=DIRECTION('',(0.E0,0.E0,1.E0));
#11=VECTOR('',#10,4.1E0);
#12=CARTESIAN_POINT('',(-1.15E0,0.E0,-4.1E0));
#13=LINE('',#12,#11);
#14=CARTESIAN_POINT('',(0.E0,0.E0,-4.1E0));
#15=DIRECTION('',(0.E0,0.E0,-1.E0));
#16=DIRECTION('',(1.E0,0.E0,0.E0));
#17=AXIS2_PLACEMENT_3D('',#14,#15,#16);
#19=CARTESIAN_POINT('',(0.E0,0.E0,0.E0));
#20=DIRECTION('',(0.E0,0.E0,-1.E0));
#21=DIRECTION('',(1.E0,0.E0,0.E0));
#22=AXIS2_PLACEMENT_3D('',#19,#20,#21);
#24=CARTESIAN_POINT('',(0.E0,0.E0,0.E0));
#25=DIRECTION('',(0.E0,0.E0,1.E0));
#26=DIRECTION('',(1.E0,0.E0,0.E0));
#27=AXIS2_PLACEMENT_3D('',#24,#25,#26);
#29=CARTESIAN_POINT('',(0.E0,0.E0,0.E0));
#30=DIRECTION('',(0.E0,0.E0,1.E0));
#31=DIRECTION('',(1.E0,0.E0,0.E0));
#32=AXIS2_PLACEMENT_3D('',#29,#30,#31);
#34=DIRECTION('',(0.E0,0.E0,-1.E0));
#35=VECTOR('',#34,2.9E0);
#36=CARTESIAN_POINT('',(2.75E0,0.E0,0.E0));
#37=LINE('',#36,#35);
#38=DIRECTION('',(0.E0,0.E0,-1.E0));
#39=VECTOR('',#38,2.9E0);
#40=CARTESIAN_POINT('',(-2.75E0,0.E0,0.E0));
#41=LINE('',#40,#39);
#42=CARTESIAN_POINT('',(0.E0,0.E0,0.E0));
#43=DIRECTION('',(0.E0,0.E0,-1.E0));
#44=DIRECTION('',(1.E0,0.E0,0.E0));
#45=AXIS2_PLACEMENT_3D('',#42,#43,#44);
#47=CARTESIAN_POINT('',(0.E0,0.E0,-2.9E0));
#48=DIRECTION('',(0.E0,0.E0,-1.E0));
#49=DIRECTION('',(1.E0,0.E0,0.E0));
#50=AXIS2_PLACEMENT_3D('',#47,#48,#49);
#52=CARTESIAN_POINT('',(0.E0,0.E0,-2.9E0));
#53=DIRECTION('',(0.E0,0.E0,1.E0));
#54=DIRECTION('',(1.E0,0.E0,0.E0));
#55=AXIS2_PLACEMENT_3D('',#52,#53,#54);
#57=CARTESIAN_POINT('',(0.E0,0.E0,-2.9E0));
#58=DIRECTION('',(0.E0,0.E0,1.E0));
#59=DIRECTION('',(1.E0,0.E0,0.E0));
#60=AXIS2_PLACEMENT_3D('',#57,#58,#59);
#62=DIRECTION('',(0.E0,0.E0,-1.E0));
#63=VECTOR('',#62,1.2E0);
#64=CARTESIAN_POINT('',(1.9E0,0.E0,-2.9E0));
#65=LINE('',#64,#63);
#66=DIRECTION('',(0.E0,0.E0,-1.E0));
#67=VECTOR('',#66,1.2E0);
#68=CARTESIAN_POINT('',(-1.9E0,0.E0,-2.9E0));
#69=LINE('',#68,#67);
#70=CARTESIAN_POINT('',(0.E0,0.E0,-2.9E0));
#71=DIRECTION('',(0.E0,0.E0,-1.E0));
#72=DIRECTION('',(1.E0,0.E0,0.E0));
#73=AXIS2_PLACEMENT_3D('',#70,#71,#72);
#75=CARTESIAN_POINT('',(0.E0,0.E0,-4.1E0));
#76=DIRECTION('',(0.E0,0.E0,-1.E0));
#77=DIRECTION('',(1.E0,0.E0,0.E0));
#78=AXIS2_PLACEMENT_3D('',#75,#76,#77);
#80=CARTESIAN_POINT('',(0.E0,0.E0,-4.1E0));
#81=DIRECTION('',(0.E0,0.E0,1.E0));
#82=DIRECTION('',(1.E0,0.E0,0.E0));
#83=AXIS2_PLACEMENT_3D('',#80,#81,#82);
#85=CARTESIAN_POINT('',(1.15E0,0.E0,-4.1E0));
#86=CARTESIAN_POINT('',(1.15E0,0.E0,0.E0));
#87=VERTEX_POINT('',#85);
#88=VERTEX_POINT('',#86);
#89=CARTESIAN_POINT('',(2.75E0,0.E0,0.E0));
#90=CARTESIAN_POINT('',(2.75E0,0.E0,-2.9E0));
#91=VERTEX_POINT('',#89);
#92=VERTEX_POINT('',#90);
#93=CARTESIAN_POINT('',(1.9E0,0.E0,-2.9E0));
#94=CARTESIAN_POINT('',(1.9E0,0.E0,-4.1E0));
#95=VERTEX_POINT('',#93);
#96=VERTEX_POINT('',#94);
#97=CARTESIAN_POINT('',(-1.15E0,0.E0,-4.1E0));
#98=CARTESIAN_POINT('',(-1.15E0,0.E0,0.E0));
#99=VERTEX_POINT('',#97);
#100=VERTEX_POINT('',#98);
#101=CARTESIAN_POINT('',(-2.75E0,0.E0,0.E0));
#102=CARTESIAN_POINT('',(-2.75E0,0.E0,-2.9E0));
#103=VERTEX_POINT('',#101);
#104=VERTEX_POINT('',#102);
#105=CARTESIAN_POINT('',(-1.9E0,0.E0,-2.9E0));
#106=CARTESIAN_POINT('',(-1.9E0,0.E0,-4.1E0));
#107=VERTEX_POINT('',#105);
#108=VERTEX_POINT('',#106);
#109=CARTESIAN_POINT('',(0.E0,0.E0,-4.305E0));
#110=DIRECTION('',(0.E0,0.E0,1.E0));
#111=DIRECTION('',(-1.E0,0.E0,0.E0));
#112=AXIS2_PLACEMENT_3D('',#109,#110,#111);
#113=CYLINDRICAL_SURFACE('',#112,1.15E0);
#115=ORIENTED_EDGE('',*,*,#114,.F.);
#117=ORIENTED_EDGE('',*,*,#116,.T.);
#119=ORIENTED_EDGE('',*,*,#118,.T.);
#121=ORIENTED_EDGE('',*,*,#120,.F.);
#122=EDGE_LOOP('',(#115,#117,#119,#121));
#123=FACE_OUTER_BOUND('',#122,.F.);
#124=ADVANCED_FACE('',(#123),#113,.F.);
#125=CARTESIAN_POINT('',(0.E0,0.E0,-4.305E0));
#126=DIRECTION('',(0.E0,0.E0,1.E0));
#127=DIRECTION('',(-1.E0,0.E0,0.E0));
#128=AXIS2_PLACEMENT_3D('',#125,#126,#127);
#129=CYLINDRICAL_SURFACE('',#128,1.15E0);
#130=ORIENTED_EDGE('',*,*,#114,.T.);
#132=ORIENTED_EDGE('',*,*,#131,.T.);
#133=ORIENTED_EDGE('',*,*,#118,.F.);
#135=ORIENTED_EDGE('',*,*,#134,.F.);
#136=EDGE_LOOP('',(#130,#132,#133,#135));
#137=FACE_OUTER_BOUND('',#136,.F.);
#138=ADVANCED_FACE('',(#137),#129,.F.);
#139=CARTESIAN_POINT('',(0.E0,0.E0,0.E0));
#140=DIRECTION('',(0.E0,0.E0,1.E0));
#141=DIRECTION('',(-1.E0,0.E0,0.E0));
#142=AXIS2_PLACEMENT_3D('',#139,#140,#141);
#143=PLANE('',#142);
#145=ORIENTED_EDGE('',*,*,#144,.F.);
#147=ORIENTED_EDGE('',*,*,#146,.T.);
#148=EDGE_LOOP('',(#145,#147));
#149=FACE_OUTER_BOUND('',#148,.F.);
#150=ORIENTED_EDGE('',*,*,#131,.F.);
#151=ORIENTED_EDGE('',*,*,#120,.T.);
#152=EDGE_LOOP('',(#150,#151));
#153=FACE_BOUND('',#152,.F.);
#154=ADVANCED_FACE('',(#149,#153),#143,.T.);
#155=CARTESIAN_POINT('',(0.E0,0.E0,-4.305E0));
#156=DIRECTION('',(0.E0,0.E0,1.E0));
#157=DIRECTION('',(-1.E0,0.E0,0.E0));
#158=AXIS2_PLACEMENT_3D('',#155,#156,#157);
#159=CYLINDRICAL_SURFACE('',#158,2.75E0);
#161=ORIENTED_EDGE('',*,*,#160,.F.);
#162=ORIENTED_EDGE('',*,*,#144,.T.);
#164=ORIENTED_EDGE('',*,*,#163,.T.);
#166=ORIENTED_EDGE('',*,*,#165,.F.);
#167=EDGE_LOOP('',(#161,#162,#164,#166));
#168=FACE_OUTER_BOUND('',#167,.F.);
#169=ADVANCED_FACE('',(#168),#159,.T.);
#170=CARTESIAN_POINT('',(0.E0,0.E0,-4.305E0));
#171=DIRECTION('',(0.E0,0.E0,1.E0));
#172=DIRECTION('',(-1.E0,0.E0,0.E0));
#173=AXIS2_PLACEMENT_3D('',#170,#171,#172);
#174=CYLINDRICAL_SURFACE('',#173,2.75E0);
#175=ORIENTED_EDGE('',*,*,#160,.T.);
#177=ORIENTED_EDGE('',*,*,#176,.T.);
#178=ORIENTED_EDGE('',*,*,#163,.F.);
#179=ORIENTED_EDGE('',*,*,#146,.F.);
#180=EDGE_LOOP('',(#175,#177,#178,#179));
#181=FACE_OUTER_BOUND('',#180,.F.);
#182=ADVANCED_FACE('',(#181),#174,.T.);
#183=CARTESIAN_POINT('',(0.E0,0.E0,-2.9E0));
#184=DIRECTION('',(0.E0,0.E0,1.E0));
#185=DIRECTION('',(-1.E0,0.E0,0.E0));
#186=AXIS2_PLACEMENT_3D('',#183,#184,#185);
#187=PLANE('',#186);
#188=ORIENTED_EDGE('',*,*,#176,.F.);
#189=ORIENTED_EDGE('',*,*,#165,.T.);
#190=EDGE_LOOP('',(#188,#189));
#191=FACE_OUTER_BOUND('',#190,.F.);
#193=ORIENTED_EDGE('',*,*,#192,.F.);
#195=ORIENTED_EDGE('',*,*,#194,.T.);
#196=EDGE_LOOP('',(#193,#195));
#197=FACE_BOUND('',#196,.F.);
#198=ADVANCED_FACE('',(#191,#197),#187,.F.);
#199=CARTESIAN_POINT('',(0.E0,0.E0,-4.305E0));
#200=DIRECTION('',(0.E0,0.E0,1.E0));
#201=DIRECTION('',(-1.E0,0.E0,0.E0));
#202=AXIS2_PLACEMENT_3D('',#199,#200,#201);
#203=CYLINDRICAL_SURFACE('',#202,1.9E0);
#205=ORIENTED_EDGE('',*,*,#204,.F.);
#206=ORIENTED_EDGE('',*,*,#192,.T.);
#208=ORIENTED_EDGE('',*,*,#207,.T.);
#210=ORIENTED_EDGE('',*,*,#209,.F.);
#211=EDGE_LOOP('',(#205,#206,#208,#210));
#212=FACE_OUTER_BOUND('',#211,.F.);
#213=ADVANCED_FACE('',(#212),#203,.T.);
#214=CARTESIAN_POINT('',(0.E0,0.E0,-4.305E0));
#215=DIRECTION('',(0.E0,0.E0,1.E0));
#216=DIRECTION('',(-1.E0,0.E0,0.E0));
#217=AXIS2_PLACEMENT_3D('',#214,#215,#216);
#218=CYLINDRICAL_SURFACE('',#217,1.9E0);
#219=ORIENTED_EDGE('',*,*,#204,.T.);
#221=ORIENTED_EDGE('',*,*,#220,.T.);
#222=ORIENTED_EDGE('',*,*,#207,.F.);
#223=ORIENTED_EDGE('',*,*,#194,.F.);
#224=EDGE_LOOP('',(#219,#221,#222,#223));
#225=FACE_OUTER_BOUND('',#224,.F.);
#226=ADVANCED_FACE('',(#225),#218,.T.);
#227=CARTESIAN_POINT('',(0.E0,0.E0,-4.1E0));
#228=DIRECTION('',(0.E0,0.E0,1.E0));
#229=DIRECTION('',(-1.E0,0.E0,0.E0));
#230=AXIS2_PLACEMENT_3D('',#227,#228,#229);
#231=PLANE('',#230);
#232=ORIENTED_EDGE('',*,*,#220,.F.);
#233=ORIENTED_EDGE('',*,*,#209,.T.);
#234=EDGE_LOOP('',(#232,#233));
#235=FACE_OUTER_BOUND('',#234,.F.);
#236=ORIENTED_EDGE('',*,*,#116,.F.);
#237=ORIENTED_EDGE('',*,*,#134,.T.);
#238=EDGE_LOOP('',(#236,#237));
#239=FACE_BOUND('',#238,.F.);
#240=ADVANCED_FACE('',(#235,#239),#231,.F.);
#244=DIMENSIONAL_EXPONENTS(0.E0,0.E0,0.E0,0.E0,0.E0,0.E0,0.E0);
#246=PLANE_ANGLE_MEASURE_WITH_UNIT(PLANE_ANGLE_MEASURE(1.745329251994E-2),#245);
#247=(CONVERSION_BASED_UNIT('DEGREE',#246)NAMED_UNIT(*)PLANE_ANGLE_UNIT());
#249=UNCERTAINTY_MEASURE_WITH_UNIT(LENGTH_MEASURE(3.9E-4),#243,'closure',
'Maximum model space distance between geometric entities at asserted connectivities');
#250=(GEOMETRIC_REPRESENTATION_CONTEXT(3)GLOBAL_UNCERTAINTY_ASSIGNED_CONTEXT((
#249))GLOBAL_UNIT_ASSIGNED_CONTEXT((#243,#247,#248))REPRESENTATION_CONTEXT
('ID1','3'));
#252=APPLICATION_CONTEXT(
'CONFIGURATION CONTROLLED 3D DESIGNS OF MECHANICAL PARTS AND ASSEMBLIES');
#253=APPLICATION_PROTOCOL_DEFINITION('international standard',
'config_control_design',1994,#252);
#254=DESIGN_CONTEXT('',#252,'design');
#255=MECHANICAL_CONTEXT('',#252,'mechanical');
#256=PRODUCT('TONG-LUOMU','TONG-LUOMU','NOT SPECIFIED',(#255));
#257=PRODUCT_DEFINITION_FORMATION_WITH_SPECIFIED_SOURCE('4','LAST_VERSION',#256,
.MADE.);
#261=PRODUCT_CATEGORY('part','');
#262=PRODUCT_RELATED_PRODUCT_CATEGORY('detail','',(#256));
#263=PRODUCT_CATEGORY_RELATIONSHIP('','',#261,#262);
#264=SECURITY_CLASSIFICATION_LEVEL('unclassified');
#265=SECURITY_CLASSIFICATION('','',#264);
#266=CC_DESIGN_SECURITY_CLASSIFICATION(#265,(#257));
#267=APPROVAL_STATUS('approved');
#268=APPROVAL(#267,'');
#269=CC_DESIGN_APPROVAL(#268,(#265,#257,#258));
#270=CALENDAR_DATE(125,23,5);
#271=COORDINATED_UNIVERSAL_TIME_OFFSET(8,0,.AHEAD.);
#272=LOCAL_TIME(16,14,3.E1,#271);
#273=DATE_AND_TIME(#270,#272);
#274=APPROVAL_DATE_TIME(#273,#268);
#275=DATE_TIME_ROLE('creation_date');
#276=CC_DESIGN_DATE_AND_TIME_ASSIGNMENT(#273,#275,(#258));
#277=DATE_TIME_ROLE('classification_date');
#278=CC_DESIGN_DATE_AND_TIME_ASSIGNMENT(#273,#277,(#265));
#279=PERSON('UNSPECIFIED','UNSPECIFIED',$,$,$,$);
#280=ORGANIZATION('UNSPECIFIED','UNSPECIFIED','UNSPECIFIED');
#281=PERSON_AND_ORGANIZATION(#279,#280);
#282=APPROVAL_ROLE('approver');
#283=APPROVAL_PERSON_ORGANIZATION(#281,#268,#282);
#284=PERSON_AND_ORGANIZATION_ROLE('creator');
#285=CC_DESIGN_PERSON_AND_ORGANIZATION_ASSIGNMENT(#281,#284,(#257,#258));
#286=PERSON_AND_ORGANIZATION_ROLE('design_supplier');
#287=CC_DESIGN_PERSON_AND_ORGANIZATION_ASSIGNMENT(#281,#286,(#257));
#288=PERSON_AND_ORGANIZATION_ROLE('classification_officer');
#289=CC_DESIGN_PERSON_AND_ORGANIZATION_ASSIGNMENT(#281,#288,(#265));
#290=PERSON_AND_ORGANIZATION_ROLE('design_owner');
#291=CC_DESIGN_PERSON_AND_ORGANIZATION_ASSIGNMENT(#281,#290,(#256));
#5=CIRCLE('',#4,1.15E0);
#18=CIRCLE('',#17,1.15E0);
#23=CIRCLE('',#22,1.15E0);
#28=CIRCLE('',#27,1.15E0);
#33=CIRCLE('',#32,2.75E0);
#46=CIRCLE('',#45,2.75E0);
#51=CIRCLE('',#50,2.75E0);
#56=CIRCLE('',#55,2.75E0);
#61=CIRCLE('',#60,1.9E0);
#74=CIRCLE('',#73,1.9E0);
#79=CIRCLE('',#78,1.9E0);
#84=CIRCLE('',#83,1.9E0);
#114=EDGE_CURVE('',#87,#88,#9,.T.);
#116=EDGE_CURVE('',#87,#99,#5,.T.);
#118=EDGE_CURVE('',#99,#100,#13,.T.);
#120=EDGE_CURVE('',#88,#100,#28,.T.);
#131=EDGE_CURVE('',#88,#100,#23,.T.);
#134=EDGE_CURVE('',#87,#99,#18,.T.);
#144=EDGE_CURVE('',#91,#103,#33,.T.);
#146=EDGE_CURVE('',#91,#103,#46,.T.);
#160=EDGE_CURVE('',#91,#92,#37,.T.);
#163=EDGE_CURVE('',#103,#104,#41,.T.);
#165=EDGE_CURVE('',#92,#104,#56,.T.);
#176=EDGE_CURVE('',#92,#104,#51,.T.);
#192=EDGE_CURVE('',#95,#107,#61,.T.);
#194=EDGE_CURVE('',#95,#107,#74,.T.);
#204=EDGE_CURVE('',#95,#96,#65,.T.);
#207=EDGE_CURVE('',#107,#108,#69,.T.);
#209=EDGE_CURVE('',#96,#108,#84,.T.);
#220=EDGE_CURVE('',#96,#108,#79,.T.);
#241=CLOSED_SHELL('',(#124,#138,#154,#169,#182,#198,#213,#226,#240));
#242=MANIFOLD_SOLID_BREP('',#241);
#243=(LENGTH_UNIT()NAMED_UNIT(*)SI_UNIT(.MILLI.,.METRE.));
#245=(NAMED_UNIT(*)PLANE_ANGLE_UNIT()SI_UNIT($,.RADIAN.));
#248=(NAMED_UNIT(*)SI_UNIT($,.STERADIAN.)SOLID_ANGLE_UNIT());
#251=ADVANCED_BREP_SHAPE_REPRESENTATION('',(#242),#250);
#258=PRODUCT_DEFINITION('design','',#257,#254);
#259=PRODUCT_DEFINITION_SHAPE('','SHAPE FOR TONG-LUOMU.',#258);
#260=SHAPE_DEFINITION_REPRESENTATION(#259,#251);
ENDSEC;
END-ISO-10303-21;
