ISO-10303-21;
HEADER;
/* Generated by software containing ST-Developer
 * from STEP Tools, Inc. (www.steptools.com) 
 */
/* OPTION: using custom schema-name function */

FILE_DESCRIPTION(
/* description */ (''),
/* implementation_level */ '2;1');

FILE_NAME(
/* name */ 'stp33-1.stp',
/* time_stamp */ '2024-08-28T18:44:03+08:00',
/* author */ (''),
/* organization */ (''),
/* preprocessor_version */ 'ST-DEVELOPER v14',
/* originating_system */ 'SIEMENS PLM Software NX 8.0',
/* authorisation */ '');

FILE_SCHEMA (('CONFIG_CONTROL_DESIGN'));
ENDSEC;

DATA;
#10=SHAPE_REPRESENTATION_RELATIONSHIP('None',
'relationship between _model24-None and _model24-None',#92,#11);
#11=ADVANCED_BREP_SHAPE_REPRESENTATION('_model24-None',(#93),#259);
#12=CC_DESIGN_APPROVAL(#24,(#82));
#13=CC_DESIGN_APPROVAL(#25,(#84));
#14=CC_DESIGN_APPROVAL(#26,(#31));
#15=APPROVAL_PERSON_ORGANIZATION(#69,#24,#18);
#16=APPROVAL_PERSON_ORGANIZATION(#70,#25,#19);
#17=APPROVAL_PERSON_ORGANIZATION(#71,#26,#20);
#18=APPROVAL_ROLE('approver');
#19=APPROVAL_ROLE('approver');
#20=APPROVAL_ROLE('approver');
#21=APPROVAL_DATE_TIME(#39,#24);
#22=APPROVAL_DATE_TIME(#40,#25);
#23=APPROVAL_DATE_TIME(#41,#26);
#24=APPROVAL(#27,' ');
#25=APPROVAL(#28,' ');
#26=APPROVAL(#29,' ');
#27=APPROVAL_STATUS('not_yet_approved');
#28=APPROVAL_STATUS('not_yet_approved');
#29=APPROVAL_STATUS('not_yet_approved');
#30=CC_DESIGN_SECURITY_CLASSIFICATION(#31,(#84));
#31=SECURITY_CLASSIFICATION(' ',' ',#32);
#32=SECURITY_CLASSIFICATION_LEVEL('confidential');
#33=CC_DESIGN_DATE_AND_TIME_ASSIGNMENT(#37,#35,(#82));
#34=CC_DESIGN_DATE_AND_TIME_ASSIGNMENT(#38,#36,(#31));
#35=DATE_TIME_ROLE('creation_date');
#36=DATE_TIME_ROLE('classification_date');
#37=DATE_AND_TIME(#52,#42);
#38=DATE_AND_TIME(#53,#43);
#39=DATE_AND_TIME(#54,#44);
#40=DATE_AND_TIME(#55,#45);
#41=DATE_AND_TIME(#56,#46);
#42=LOCAL_TIME(0,0,0.,#47);
#43=LOCAL_TIME(0,0,0.,#48);
#44=LOCAL_TIME(0,0,0.,#49);
#45=LOCAL_TIME(0,0,0.,#50);
#46=LOCAL_TIME(0,0,0.,#51);
#47=COORDINATED_UNIVERSAL_TIME_OFFSET(0,0,.BEHIND.);
#48=COORDINATED_UNIVERSAL_TIME_OFFSET(0,0,.BEHIND.);
#49=COORDINATED_UNIVERSAL_TIME_OFFSET(0,0,.BEHIND.);
#50=COORDINATED_UNIVERSAL_TIME_OFFSET(0,0,.BEHIND.);
#51=COORDINATED_UNIVERSAL_TIME_OFFSET(0,0,.BEHIND.);
#52=CALENDAR_DATE(0,1,1);
#53=CALENDAR_DATE(0,1,1);
#54=CALENDAR_DATE(0,1,1);
#55=CALENDAR_DATE(0,1,1);
#56=CALENDAR_DATE(0,1,1);
#57=CC_DESIGN_PERSON_AND_ORGANIZATION_ASSIGNMENT(#65,#61,(#82,#84));
#58=CC_DESIGN_PERSON_AND_ORGANIZATION_ASSIGNMENT(#66,#62,(#86));
#59=CC_DESIGN_PERSON_AND_ORGANIZATION_ASSIGNMENT(#67,#63,(#84));
#60=CC_DESIGN_PERSON_AND_ORGANIZATION_ASSIGNMENT(#68,#64,(#31));
#61=PERSON_AND_ORGANIZATION_ROLE('creator');
#62=PERSON_AND_ORGANIZATION_ROLE('design_owner');
#63=PERSON_AND_ORGANIZATION_ROLE('design_supplier');
#64=PERSON_AND_ORGANIZATION_ROLE('classification_officer');
#65=PERSON_AND_ORGANIZATION(#79,#72);
#66=PERSON_AND_ORGANIZATION(#79,#73);
#67=PERSON_AND_ORGANIZATION(#79,#74);
#68=PERSON_AND_ORGANIZATION(#79,#75);
#69=PERSON_AND_ORGANIZATION(#79,#76);
#70=PERSON_AND_ORGANIZATION(#79,#77);
#71=PERSON_AND_ORGANIZATION(#79,#78);
#72=ORGANIZATION(' ',' ',' ');
#73=ORGANIZATION(' ',' ',' ');
#74=ORGANIZATION(' ',' ',' ');
#75=ORGANIZATION(' ',' ',' ');
#76=ORGANIZATION(' ',' ',' ');
#77=ORGANIZATION(' ',' ',' ');
#78=ORGANIZATION(' ',' ',' ');
#79=PERSON(' ',' ',' ',(' '),$,$);
#80=SHAPE_DEFINITION_REPRESENTATION(#81,#92);
#81=PRODUCT_DEFINITION_SHAPE('','',#82);
#82=PRODUCT_DEFINITION(' ','',#84,#83);
#83=DESIGN_CONTEXT('',#91,'design');
#84=PRODUCT_DEFINITION_FORMATION_WITH_SPECIFIED_SOURCE(' ',' ',#86,
 .NOT_KNOWN.);
#85=PRODUCT_RELATED_PRODUCT_CATEGORY('detail','',(#86));
#86=PRODUCT('_model24','_model24',' ',(#89));
#87=PRODUCT_CATEGORY('part',' ');
#88=PRODUCT_CATEGORY(' ','');
#89=MECHANICAL_CONTEXT(' ',#91,'mechanical');
#90=APPLICATION_PROTOCOL_DEFINITION('international standard',
'config_control_design',2010,#91);
#91=APPLICATION_CONTEXT(
'configuration controlled 3D designs of mechanical parts and assemblies');
#92=SHAPE_REPRESENTATION('_model24-None',(#183),#259);
#93=MANIFOLD_SOLID_BREP('',#94);
#94=CLOSED_SHELL('',(#99,#100,#101,#102,#103,#104,#105,#106));
#95=CYLINDRICAL_SURFACE('',#188,1.6);
#96=CYLINDRICAL_SURFACE('',#191,0.85);
#97=CYLINDRICAL_SURFACE('',#195,1.25);
#98=CYLINDRICAL_SURFACE('',#198,1.25);
#99=ADVANCED_FACE('',(#111,#112),#107,.T.);
#100=ADVANCED_FACE('',(#113,#114),#95,.T.);
#101=ADVANCED_FACE('',(#115,#116),#96,.F.);
#102=ADVANCED_FACE('',(#117,#118),#108,.F.);
#103=ADVANCED_FACE('',(#119,#120),#97,.T.);
#104=ADVANCED_FACE('',(#121,#122),#109,.T.);
#105=ADVANCED_FACE('',(#123,#124),#98,.T.);
#106=ADVANCED_FACE('',(#125,#126),#110,.T.);
#107=PLANE('',#186);
#108=PLANE('',#193);
#109=PLANE('',#196);
#110=PLANE('',#199);
#111=FACE_BOUND('',#127,.T.);
#112=FACE_BOUND('',#128,.T.);
#113=FACE_BOUND('',#129,.T.);
#114=FACE_BOUND('',#130,.T.);
#115=FACE_BOUND('',#131,.T.);
#116=FACE_BOUND('',#132,.T.);
#117=FACE_BOUND('',#133,.T.);
#118=FACE_BOUND('',#134,.T.);
#119=FACE_BOUND('',#135,.T.);
#120=FACE_BOUND('',#136,.T.);
#121=FACE_BOUND('',#137,.T.);
#122=FACE_BOUND('',#138,.T.);
#123=FACE_BOUND('',#139,.T.);
#124=FACE_BOUND('',#140,.T.);
#125=FACE_BOUND('',#141,.T.);
#126=FACE_BOUND('',#142,.T.);
#127=EDGE_LOOP('',(#143));
#128=EDGE_LOOP('',(#144));
#129=EDGE_LOOP('',(#145));
#130=EDGE_LOOP('',(#146));
#131=EDGE_LOOP('',(#147));
#132=EDGE_LOOP('',(#148));
#133=EDGE_LOOP('',(#149));
#134=EDGE_LOOP('',(#150));
#135=EDGE_LOOP('',(#151));
#136=EDGE_LOOP('',(#152));
#137=EDGE_LOOP('',(#153));
#138=EDGE_LOOP('',(#154));
#139=EDGE_LOOP('',(#155));
#140=EDGE_LOOP('',(#156));
#141=EDGE_LOOP('',(#157));
#142=EDGE_LOOP('',(#158));
#143=ORIENTED_EDGE('',*,*,#167,.F.);
#144=ORIENTED_EDGE('',*,*,#168,.T.);
#145=ORIENTED_EDGE('',*,*,#169,.T.);
#146=ORIENTED_EDGE('',*,*,#167,.T.);
#147=ORIENTED_EDGE('',*,*,#170,.F.);
#148=ORIENTED_EDGE('',*,*,#171,.T.);
#149=ORIENTED_EDGE('',*,*,#172,.T.);
#150=ORIENTED_EDGE('',*,*,#169,.F.);
#151=ORIENTED_EDGE('',*,*,#173,.F.);
#152=ORIENTED_EDGE('',*,*,#172,.F.);
#153=ORIENTED_EDGE('',*,*,#170,.T.);
#154=ORIENTED_EDGE('',*,*,#173,.T.);
#155=ORIENTED_EDGE('',*,*,#174,.T.);
#156=ORIENTED_EDGE('',*,*,#168,.F.);
#157=ORIENTED_EDGE('',*,*,#171,.F.);
#158=ORIENTED_EDGE('',*,*,#174,.F.);
#159=VERTEX_POINT('',#236);
#160=VERTEX_POINT('',#238);
#161=VERTEX_POINT('',#241);
#162=VERTEX_POINT('',#244);
#163=VERTEX_POINT('',#246);
#164=VERTEX_POINT('',#249);
#165=VERTEX_POINT('',#252);
#166=VERTEX_POINT('',#256);
#167=EDGE_CURVE('',#159,#159,#175,.T.);
#168=EDGE_CURVE('',#160,#160,#176,.T.);
#169=EDGE_CURVE('',#161,#161,#177,.T.);
#170=EDGE_CURVE('',#162,#162,#178,.T.);
#171=EDGE_CURVE('',#163,#163,#179,.T.);
#172=EDGE_CURVE('',#164,#164,#180,.T.);
#173=EDGE_CURVE('',#165,#165,#181,.T.);
#174=EDGE_CURVE('',#166,#166,#182,.T.);
#175=CIRCLE('',#184,1.6);
#176=CIRCLE('',#185,1.25);
#177=CIRCLE('',#187,1.6);
#178=CIRCLE('',#189,0.85);
#179=CIRCLE('',#190,0.85);
#180=CIRCLE('',#192,1.25);
#181=CIRCLE('',#194,1.25);
#182=CIRCLE('',#197,1.25);
#183=AXIS2_PLACEMENT_3D('',#234,#200,#201);
#184=AXIS2_PLACEMENT_3D('',#235,#202,#203);
#185=AXIS2_PLACEMENT_3D('',#237,#204,#205);
#186=AXIS2_PLACEMENT_3D('',#239,#206,#207);
#187=AXIS2_PLACEMENT_3D('',#240,#208,#209);
#188=AXIS2_PLACEMENT_3D('',#242,#210,#211);
#189=AXIS2_PLACEMENT_3D('',#243,#212,#213);
#190=AXIS2_PLACEMENT_3D('',#245,#214,#215);
#191=AXIS2_PLACEMENT_3D('',#247,#216,#217);
#192=AXIS2_PLACEMENT_3D('',#248,#218,#219);
#193=AXIS2_PLACEMENT_3D('',#250,#220,#221);
#194=AXIS2_PLACEMENT_3D('',#251,#222,#223);
#195=AXIS2_PLACEMENT_3D('',#253,#224,#225);
#196=AXIS2_PLACEMENT_3D('',#254,#226,#227);
#197=AXIS2_PLACEMENT_3D('',#255,#228,#229);
#198=AXIS2_PLACEMENT_3D('',#257,#230,#231);
#199=AXIS2_PLACEMENT_3D('',#258,#232,#233);
#200=DIRECTION('',(0.,0.,1.));
#201=DIRECTION('',(1.,0.,0.));
#202=DIRECTION('',(-1.,0.,-3.21964677141295E-015));
#203=DIRECTION('',(3.25260651745651E-015,0.,-1.));
#204=DIRECTION('',(-1.,3.4410713482206E-022,2.60902410786912E-015));
#205=DIRECTION('',(2.60208521396521E-015,0.,1.));
#206=DIRECTION('',(1.,0.,3.21964677141295E-015));
#207=DIRECTION('',(3.21964677141295E-015,0.,-1.));
#208=DIRECTION('',(1.,3.4410713482206E-022,1.11022302462516E-016));
#209=DIRECTION('',(5.42101086242752E-016,0.,-1.));
#210=DIRECTION('',(-1.,7.88860905221012E-033,-3.21964677141295E-015));
#211=DIRECTION('',(-3.25260651745651E-015,0.,1.));
#212=DIRECTION('',(1.,2.38697950294409E-015,-1.66533453693773E-015));
#213=DIRECTION('',(1.020425574104E-015,0.,1.));
#214=DIRECTION('',(0.999999999999999,-2.64697796016969E-021,1.38777878078145E-015));
#215=DIRECTION('',(1.4432899320127E-015,0.,-1.));
#216=DIRECTION('',(-1.,7.88860905221012E-033,-3.21964677141295E-015));
#217=DIRECTION('',(-3.31638311583801E-015,0.,1.));
#218=DIRECTION('',(1.,3.4410713482206E-022,1.11022302462516E-016));
#219=DIRECTION('',(0.,0.,1.));
#220=DIRECTION('',(1.,3.4410713482206E-022,1.11022302462516E-016));
#221=DIRECTION('',(3.33066907387547E-016,0.,1.));
#222=DIRECTION('',(-1.,-2.38697950294409E-015,1.66533453693773E-015));
#223=DIRECTION('',(1.38777878078145E-015,0.,1.));
#224=DIRECTION('',(-1.,0.,1.22124532708767E-015));
#225=DIRECTION('',(1.38777878078145E-015,0.,1.));
#226=DIRECTION('',(-1.,-2.38697950294409E-015,1.66533453693773E-015));
#227=DIRECTION('',(1.27675647831893E-015,0.,1.));
#228=DIRECTION('',(-0.999999999999999,2.64697796016969E-021,-1.38777878078145E-015));
#229=DIRECTION('',(1.4432899320127E-015,0.,-1.));
#230=DIRECTION('',(1.,0.,-1.22124532708767E-015));
#231=DIRECTION('',(1.21430643318377E-015,0.,1.));
#232=DIRECTION('',(0.999999999999999,-2.64697796016969E-021,1.38777878078145E-015));
#233=DIRECTION('',(1.38777878078145E-015,0.,-0.999999999999999));
#234=CARTESIAN_POINT('',(0.,0.,0.));
#235=CARTESIAN_POINT('',(-1.09999999999899,8.63654450039553E-007,3.78649889221094E-007));
#236=CARTESIAN_POINT('',(-1.09999999999899,8.63654450039553E-007,-1.59999962135011));
#237=CARTESIAN_POINT('',(-1.099999999999,3.46944695195361E-015,-1.66533453693773E-013));
#238=CARTESIAN_POINT('',(-1.099999999999,3.46944695195361E-015,1.24999999999983));
#239=CARTESIAN_POINT('',(-1.09999999999899,8.63654450039553E-007,3.78649889221094E-007));
#240=CARTESIAN_POINT('',(-4.01751834999976,8.63654450039553E-007,3.78649805954367E-007));
#241=CARTESIAN_POINT('',(-4.01751834999976,8.63654450039553E-007,-1.59999962135019));
#242=CARTESIAN_POINT('',(-1.09999999999899,8.63654450039553E-007,3.78649889221094E-007));
#243=CARTESIAN_POINT('',(-4.49751834999983,8.63654450039553E-007,3.78649861465519E-007));
#244=CARTESIAN_POINT('',(-4.49751834999983,8.63654450039553E-007,0.850000378649861));
#245=CARTESIAN_POINT('',(-5.55111512312578E-014,8.63654450039553E-007,3.78649528398611E-007));
#246=CARTESIAN_POINT('',(-5.4284354789047E-014,8.63654450039553E-007,-0.849999621350472));
#247=CARTESIAN_POINT('',(-1.09999999999899,8.63654450039553E-007,3.78649889221094E-007));
#248=CARTESIAN_POINT('',(-4.0175183499999,3.46944695195361E-015,-2.22044604925031E-013));
#249=CARTESIAN_POINT('',(-4.0175183499999,3.46944695195361E-015,1.24999999999978));
#250=CARTESIAN_POINT('',(-4.01751834999976,-32.9999991363456,3.78649278598431E-007));
#251=CARTESIAN_POINT('',(-4.49751834999999,3.46944695195361E-015,-1.38777878078145E-013));
#252=CARTESIAN_POINT('',(-4.49751834999999,3.46944695195361E-015,1.24999999999986));
#253=CARTESIAN_POINT('',(-3.9975183499999,3.46944695195361E-015,0.));
#254=CARTESIAN_POINT('',(-4.49751835000002,33.499993835903,0.499992710176367));
#255=CARTESIAN_POINT('',(0.,3.46944695195361E-015,-2.77555756156289E-014));
#256=CARTESIAN_POINT('',(1.80411241501588E-015,3.46944695195361E-015,-1.25000000000003));
#257=CARTESIAN_POINT('',(-1.11999999999898,3.46944695195361E-015,1.66533453693773E-013));
#258=CARTESIAN_POINT('',(1.38777878078145E-013,0.49999808586175,-51.499996748581));
#259=(
GEOMETRIC_REPRESENTATION_CONTEXT(3)
GLOBAL_UNCERTAINTY_ASSIGNED_CONTEXT((#260))
GLOBAL_UNIT_ASSIGNED_CONTEXT((#266,#262,#261))
REPRESENTATION_CONTEXT('stp33-1','TOP_LEVEL_ASSEMBLY_PART')
);
#260=UNCERTAINTY_MEASURE_WITH_UNIT(LENGTH_MEASURE(2.E-005),#266,
'DISTANCE_ACCURACY_VALUE','Maximum Tolerance applied to model');
#261=(
NAMED_UNIT(*)
SI_UNIT($,.STERADIAN.)
SOLID_ANGLE_UNIT()
);
#262=(
CONVERSION_BASED_UNIT('DEGREE',#264)
NAMED_UNIT(#263)
PLANE_ANGLE_UNIT()
);
#263=DIMENSIONAL_EXPONENTS(0.,0.,0.,0.,0.,0.,0.);
#264=PLANE_ANGLE_MEASURE_WITH_UNIT(PLANE_ANGLE_MEASURE(0.0174532925),#265);
#265=(
NAMED_UNIT(*)
PLANE_ANGLE_UNIT()
SI_UNIT($,.RADIAN.)
);
#266=(
LENGTH_UNIT()
NAMED_UNIT(*)
SI_UNIT(.MILLI.,.METRE.)
);
ENDSEC;
END-ISO-10303-21;
