ISO-10303-21;
HEADER;
FILE_DESCRIPTION (( 'STEP AP203' ),
    '1' );
FILE_NAME ('28PIN接插件.STEP',
    '2019-08-14T03:16:09',
    ( 'adu' ),
    ( '' ),
    'SwSTEP 2.0',
    'SolidWorks 2018',
    '' );
FILE_SCHEMA (( 'CONFIG_CONTROL_DESIGN' ));
ENDSEC;

DATA;
#1 = EDGE_CURVE ( 'NONE', #78, #40, #104, .T. ) ;
#2 = DIRECTION ( 'NONE',  ( 0.0000000000000000000, 1.000000000000000000, 0.0000000000000000000 ) ) ;
#3 = CARTESIAN_POINT ( 'NONE',  ( 9.050000000000004263, -2.249999999999998668, 1.500000000000000000 ) ) ;
#4 = ADVANCED_FACE ( 'NONE', ( #220 ), #8, .F. ) ;
#5 = CLOSED_SHELL ( 'NONE', ( #204, #4, #184, #23, #145, #75 ) ) ;
#6 = CC_DESIGN_SECURITY_CLASSIFICATION ( #130, ( #13 ) ) ;
#7 = APPLICATION_CONTEXT ( 'configuration controlled 3d designs of mechanical parts and assemblies' ) ;
#8 = PLANE ( 'NONE',  #164 ) ;
#9 = COORDINATED_UNIVERSAL_TIME_OFFSET ( 8, 0, .AHEAD. ) ;
#10 = ORIENTED_EDGE ( 'NONE', *, *, #82, .T. ) ;
#11 = UNCERTAINTY_MEASURE_WITH_UNIT (LENGTH_MEASURE( 1.000000000000000082E-05 ), #119, 'distance_accuracy_value', 'NONE');
#12 = DIRECTION ( 'NONE',  ( -1.000000000000000000, -1.437616140312271115E-16, 0.0000000000000000000 ) ) ;
#13 = PRODUCT_DEFINITION_FORMATION_WITH_SPECIFIED_SOURCE ( '任何', '', #159, .NOT_KNOWN. ) ;
#14 = PERSON_AND_ORGANIZATION ( #60, #199 ) ;
#15 = LINE ( 'NONE', #173, #192 ) ;
#16 = ORIENTED_EDGE ( 'NONE', *, *, #1, .F. ) ;
#17 = AXIS2_PLACEMENT_3D ( 'NONE', #25, #149, #101 ) ;
#18 = SHAPE_DEFINITION_REPRESENTATION ( #218, #143 ) ;
#19 = CC_DESIGN_DATE_AND_TIME_ASSIGNMENT ( #196, #226, ( #130 ) ) ;
#20 = LOCAL_TIME ( 11, 16, 9.000000000000000000, #84 ) ;
#21 = LINE ( 'NONE', #134, #30 ) ;
#22 = VERTEX_POINT ( 'NONE', #113 ) ;
#23 = ADVANCED_FACE ( 'NONE', ( #33 ), #167, .F. ) ;
#24 = CARTESIAN_POINT ( 'NONE',  ( -9.049999999999997158, 2.249999999999998668, 1.500000000000000000 ) ) ;
#25 = CARTESIAN_POINT ( 'NONE',  ( 9.050000000000004263, -2.249999999999998668, 1.500000000000000000 ) ) ;
#26 = CARTESIAN_POINT ( 'NONE',  ( -9.049999999999997158, 2.249999999999998668, 0.0000000000000000000 ) ) ;
#27 = LINE ( 'NONE', #186, #111 ) ;
#28 = DIRECTION ( 'NONE',  ( -0.0000000000000000000, -0.0000000000000000000, -1.000000000000000000 ) ) ;
#29 = DIRECTION ( 'NONE',  ( 1.000000000000000000, 1.198013450260225970E-16, -0.0000000000000000000 ) ) ;
#30 = VECTOR ( 'NONE', #29, 1000.000000000000000 ) ;
#31 = PLANE ( 'NONE',  #162 ) ;
#32 = DIRECTION ( 'NONE',  ( -0.0000000000000000000, -0.0000000000000000000, -1.000000000000000000 ) ) ;
#33 = FACE_OUTER_BOUND ( 'NONE', #109, .T. ) ;
#34 = LOCAL_TIME ( 11, 16, 9.000000000000000000, #88 ) ;
#35 = ORIENTED_EDGE ( 'NONE', *, *, #202, .T. ) ;
#36 = PRODUCT_RELATED_PRODUCT_CATEGORY ( 'detail', '', ( #159 ) ) ;
#37 = MANIFOLD_SOLID_BREP ( '凸台-拉伸1', #5 ) ;
#38 = DATE_AND_TIME ( #185, #48 ) ;
#39 = DIRECTION ( 'NONE',  ( -0.0000000000000000000, -1.000000000000000000, -0.0000000000000000000 ) ) ;
#40 = VERTEX_POINT ( 'NONE', #221 ) ;
#41 =( NAMED_UNIT ( * ) PLANE_ANGLE_UNIT ( ) SI_UNIT ( $, .RADIAN. ) );
#42 = CARTESIAN_POINT ( 'NONE',  ( 0.0000000000000000000, 0.0000000000000000000, 1.500000000000000000 ) ) ;
#43 = DIRECTION ( 'NONE',  ( -0.0000000000000000000, -0.0000000000000000000, -1.000000000000000000 ) ) ;
#44 = VERTEX_POINT ( 'NONE', #26 ) ;
#45 = DIRECTION ( 'NONE',  ( 1.000000000000000000, 0.0000000000000000000, 0.0000000000000000000 ) ) ;
#46 = DIRECTION ( 'NONE',  ( 0.0000000000000000000, 1.000000000000000000, 0.0000000000000000000 ) ) ;
#47 = DESIGN_CONTEXT ( 'detailed design', #7, 'design' ) ;
#48 = LOCAL_TIME ( 11, 16, 9.000000000000000000, #52 ) ;
#49 = VERTEX_POINT ( 'NONE', #24 ) ;
#50 =( GEOMETRIC_REPRESENTATION_CONTEXT ( 3 ) GLOBAL_UNCERTAINTY_ASSIGNED_CONTEXT ( ( #11 ) ) GLOBAL_UNIT_ASSIGNED_CONTEXT ( ( #119, #41, #188 ) ) REPRESENTATION_CONTEXT ( 'NONE', 'WORKASPACE' ) );
#51 = ORIENTED_EDGE ( 'NONE', *, *, #61, .F. ) ;
#52 = COORDINATED_UNIVERSAL_TIME_OFFSET ( 8, 0, .AHEAD. ) ;
#53 = PERSON_AND_ORGANIZATION ( #60, #199 ) ;
#54 = VECTOR ( 'NONE', #96, 1000.000000000000000 ) ;
#55 = PERSON_AND_ORGANIZATION ( #60, #199 ) ;
#56 = VERTEX_POINT ( 'NONE', #64 ) ;
#57 = PERSON_AND_ORGANIZATION ( #60, #199 ) ;
#58 = VECTOR ( 'NONE', #43, 1000.000000000000000 ) ;
#59 = ORIENTED_EDGE ( 'NONE', *, *, #141, .T. ) ;
#60 = PERSON ( '未指定', '未指定', '未指定', ('未指定'), ('未指定'), ('未指定') ) ;
#61 = EDGE_CURVE ( 'NONE', #56, #165, #69, .T. ) ;
#62 = DIRECTION ( 'NONE',  ( 0.0000000000000000000, 0.0000000000000000000, -1.000000000000000000 ) ) ;
#63 = CARTESIAN_POINT ( 'NONE',  ( -9.049999999999997158, -2.250000000000000888, 0.0000000000000000000 ) ) ;
#64 = CARTESIAN_POINT ( 'NONE',  ( -9.049999999999997158, -2.250000000000000888, 1.500000000000000000 ) ) ;
#65 = DATE_TIME_ROLE ( 'creation_date' ) ;
#66 = LINE ( 'NONE', #86, #106 ) ;
#67 = MECHANICAL_CONTEXT ( 'NONE', #210, 'mechanical' ) ;
#68 = DIRECTION ( 'NONE',  ( 1.000000000000000000, 0.0000000000000000000, -0.0000000000000000000 ) ) ;
#69 = LINE ( 'NONE', #208, #209 ) ;
#70 = DIRECTION ( 'NONE',  ( -0.0000000000000000000, -1.000000000000000000, -0.0000000000000000000 ) ) ;
#71 = ORIENTED_EDGE ( 'NONE', *, *, #180, .F. ) ;
#72 = CALENDAR_DATE ( 2019, 14, 8 ) ;
#73 = AXIS2_PLACEMENT_3D ( 'NONE', #42, #171, #68 ) ;
#74 = CARTESIAN_POINT ( 'NONE',  ( 9.050000000000004263, 2.250000000000001332, 1.500000000000000000 ) ) ;
#75 = ADVANCED_FACE ( 'NONE', ( #197 ), #136, .F. ) ;
#76 = FACE_OUTER_BOUND ( 'NONE', #195, .T. ) ;
#77 = EDGE_CURVE ( 'NONE', #49, #56, #95, .T. ) ;
#78 = VERTEX_POINT ( 'NONE', #206 ) ;
#79 = DIRECTION ( 'NONE',  ( 0.0000000000000000000, 0.0000000000000000000, 1.000000000000000000 ) ) ;
#80 = CARTESIAN_POINT ( 'NONE',  ( 9.050000000000004263, 2.250000000000001332, 1.500000000000000000 ) ) ;
#81 = DIRECTION ( 'NONE',  ( 1.000000000000000000, 1.198013450260225970E-16, -0.0000000000000000000 ) ) ;
#82 = EDGE_CURVE ( 'NONE', #49, #44, #217, .T. ) ;
#83 = PERSON_AND_ORGANIZATION_ROLE ( 'design_supplier' ) ;
#84 = COORDINATED_UNIVERSAL_TIME_OFFSET ( 8, 0, .AHEAD. ) ;
#85 = CARTESIAN_POINT ( 'NONE',  ( 9.050000000000004263, -2.249999999999998668, 1.500000000000000000 ) ) ;
#86 = CARTESIAN_POINT ( 'NONE',  ( 9.050000000000004263, 2.250000000000001332, 0.0000000000000000000 ) ) ;
#87 = AXIS2_PLACEMENT_3D ( 'NONE', #154, #79, #213 ) ;
#88 = COORDINATED_UNIVERSAL_TIME_OFFSET ( 8, 0, .AHEAD. ) ;
#89 = CC_DESIGN_PERSON_AND_ORGANIZATION_ASSIGNMENT ( #14, #83, ( #13 ) ) ;
#90 = VECTOR ( 'NONE', #70, 1000.000000000000000 ) ;
#91 = ORIENTED_EDGE ( 'NONE', *, *, #92, .T. ) ;
#92 = EDGE_CURVE ( 'NONE', #22, #78, #27, .T. ) ;
#93 = APPROVAL ( #169, '未指定' ) ;
#94 = DIRECTION ( 'NONE',  ( -1.000000000000000000, -1.198013450260225970E-16, 0.0000000000000000000 ) ) ;
#95 = LINE ( 'NONE', #125, #170 ) ;
#96 = DIRECTION ( 'NONE',  ( -0.0000000000000000000, -0.0000000000000000000, -1.000000000000000000 ) ) ;
#97 = APPROVAL_STATUS ( 'not_yet_approved' ) ;
#98 = EDGE_LOOP ( 'NONE', ( #147, #181, #71, #151 ) ) ;
#99 = PERSON_AND_ORGANIZATION_ROLE ( 'classification_officer' ) ;
#100 = CC_DESIGN_PERSON_AND_ORGANIZATION_ASSIGNMENT ( #55, #223, ( #159 ) ) ;
#101 = DIRECTION ( 'NONE',  ( 0.0000000000000000000, 0.0000000000000000000, 1.000000000000000000 ) ) ;
#102 = FACE_OUTER_BOUND ( 'NONE', #235, .T. ) ;
#103 = DATE_AND_TIME ( #72, #194 ) ;
#104 = LINE ( 'NONE', #80, #54 ) ;
#105 = APPROVAL_PERSON_ORGANIZATION ( #161, #174, #117 ) ;
#106 = VECTOR ( 'NONE', #160, 1000.000000000000000 ) ;
#107 = EDGE_CURVE ( 'NONE', #40, #44, #66, .T. ) ;
#108 = PERSON_AND_ORGANIZATION ( #60, #199 ) ;
#109 = EDGE_LOOP ( 'NONE', ( #190, #139, #233, #177 ) ) ;
#110 = CC_DESIGN_APPROVAL ( #174, ( #13 ) ) ;
#111 = VECTOR ( 'NONE', #46, 1000.000000000000000 ) ;
#112 = CALENDAR_DATE ( 2019, 14, 8 ) ;
#113 = CARTESIAN_POINT ( 'NONE',  ( 9.050000000000004263, -2.249999999999998668, 1.500000000000000000 ) ) ;
#114 = EDGE_LOOP ( 'NONE', ( #224, #116, #183, #127 ) ) ;
#115 = APPLICATION_PROTOCOL_DEFINITION ( 'international standard', 'config_control_design', 1994, #7 ) ;
#116 = ORIENTED_EDGE ( 'NONE', *, *, #107, .F. ) ;
#117 = APPROVAL_ROLE ( '' ) ;
#118 = EDGE_CURVE ( 'NONE', #44, #165, #189, .T. ) ;
#119 =( LENGTH_UNIT ( ) NAMED_UNIT ( * ) SI_UNIT ( .MILLI., .METRE. ) );
#120 = CARTESIAN_POINT ( 'NONE',  ( 9.050000000000004263, -2.249999999999998668, 0.0000000000000000000 ) ) ;
#121 = LINE ( 'NONE', #120, #182 ) ;
#122 = CC_DESIGN_PERSON_AND_ORGANIZATION_ASSIGNMENT ( #57, #135, ( #13 ) ) ;
#123 = DATE_AND_TIME ( #112, #20 ) ;
#124 = VECTOR ( 'NONE', #12, 1000.000000000000000 ) ;
#125 = CARTESIAN_POINT ( 'NONE',  ( -9.049999999999997158, -2.250000000000000888, 1.500000000000000000 ) ) ;
#126 = DATE_AND_TIME ( #222, #34 ) ;
#127 = ORIENTED_EDGE ( 'NONE', *, *, #231, .F. ) ;
#128 = EDGE_CURVE ( 'NONE', #140, #40, #121, .T. ) ;
#129 = FACE_OUTER_BOUND ( 'NONE', #157, .T. ) ;
#130 = SECURITY_CLASSIFICATION ( '', '', #211 ) ;
#131 = ORIENTED_EDGE ( 'NONE', *, *, #92, .F. ) ;
#132 = PLANE ( 'NONE',  #17 ) ;
#133 = DIRECTION ( 'NONE',  ( 1.000000000000000000, 1.437616140312271115E-16, 0.0000000000000000000 ) ) ;
#134 = CARTESIAN_POINT ( 'NONE',  ( 9.050000000000004263, -2.249999999999998668, 1.500000000000000000 ) ) ;
#135 = PERSON_AND_ORGANIZATION_ROLE ( 'creator' ) ;
#136 = PLANE ( 'NONE',  #216 ) ;
#137 = LOCAL_TIME ( 11, 16, 9.000000000000000000, #212 ) ;
#138 = CARTESIAN_POINT ( 'NONE',  ( 9.050000000000004263, -2.249999999999998668, 0.0000000000000000000 ) ) ;
#139 = ORIENTED_EDGE ( 'NONE', *, *, #82, .F. ) ;
#140 = VERTEX_POINT ( 'NONE', #138 ) ;
#141 = EDGE_CURVE ( 'NONE', #78, #49, #175, .T. ) ;
#142 = APPROVAL ( #215, '未指定' ) ;
#143 = ADVANCED_BREP_SHAPE_REPRESENTATION ( '28PIN接插件', ( #37, #87 ), #50 ) ;
#144 = AXIS2_PLACEMENT_3D ( 'NONE', #225, #168, #133 ) ;
#145 = ADVANCED_FACE ( 'NONE', ( #129 ), #187, .T. ) ;
#146 = APPROVAL_PERSON_ORGANIZATION ( #53, #142, #214 ) ;
#147 = ORIENTED_EDGE ( 'NONE', *, *, #231, .T. ) ;
#148 = DIRECTION ( 'NONE',  ( -1.198013450260225970E-16, 1.000000000000000000, 0.0000000000000000000 ) ) ;
#149 = DIRECTION ( 'NONE',  ( -1.000000000000000000, 0.0000000000000000000, 0.0000000000000000000 ) ) ;
#150 = PERSON_AND_ORGANIZATION_ROLE ( 'creator' ) ;
#151 = ORIENTED_EDGE ( 'NONE', *, *, #61, .T. ) ;
#152 = CARTESIAN_POINT ( 'NONE',  ( 0.0000000000000000000, 0.0000000000000000000, 0.0000000000000000000 ) ) ;
#153 = CARTESIAN_POINT ( 'NONE',  ( -9.049999999999997158, -2.250000000000000888, 0.0000000000000000000 ) ) ;
#154 = CARTESIAN_POINT ( 'NONE',  ( 0.0000000000000000000, 0.0000000000000000000, 0.0000000000000000000 ) ) ;
#155 = APPROVAL_DATE_TIME ( #123, #93 ) ;
#156 = APPROVAL_DATE_TIME ( #103, #174 ) ;
#157 = EDGE_LOOP ( 'NONE', ( #205, #193, #91, #59 ) ) ;
#158 = CC_DESIGN_APPROVAL ( #142, ( #130 ) ) ;
#159 = PRODUCT ( '28PIN接插件', '28PIN接插件', '', ( #67 ) ) ;
#160 = DIRECTION ( 'NONE',  ( -1.000000000000000000, -1.437616140312271115E-16, 0.0000000000000000000 ) ) ;
#161 = PERSON_AND_ORGANIZATION ( #60, #199 ) ;
#162 = AXIS2_PLACEMENT_3D ( 'NONE', #172, #45, #62 ) ;
#163 = CALENDAR_DATE ( 2019, 14, 8 ) ;
#164 = AXIS2_PLACEMENT_3D ( 'NONE', #3, #148, #94 ) ;
#165 = VERTEX_POINT ( 'NONE', #153 ) ;
#166 = VECTOR ( 'NONE', #32, 1000.000000000000000 ) ;
#167 = PLANE ( 'NONE',  #144 ) ;
#168 = DIRECTION ( 'NONE',  ( 1.437616140312271115E-16, -1.000000000000000000, 0.0000000000000000000 ) ) ;
#169 = APPROVAL_STATUS ( 'not_yet_approved' ) ;
#170 = VECTOR ( 'NONE', #39, 1000.000000000000000 ) ;
#171 = DIRECTION ( 'NONE',  ( 0.0000000000000000000, -0.0000000000000000000, 1.000000000000000000 ) ) ;
#172 = CARTESIAN_POINT ( 'NONE',  ( -9.049999999999997158, -2.250000000000000888, 1.500000000000000000 ) ) ;
#173 = CARTESIAN_POINT ( 'NONE',  ( 9.050000000000004263, -2.249999999999998668, 0.0000000000000000000 ) ) ;
#174 = APPROVAL ( #97, '未指定' ) ;
#175 = LINE ( 'NONE', #74, #124 ) ;
#176 = APPLICATION_PROTOCOL_DEFINITION ( 'international standard', 'config_control_design', 1994, #210 ) ;
#177 = ORIENTED_EDGE ( 'NONE', *, *, #1, .T. ) ;
#178 = DIRECTION ( 'NONE',  ( 0.0000000000000000000, -0.0000000000000000000, 1.000000000000000000 ) ) ;
#179 = PRODUCT_DEFINITION ( '未知', '', #13, #47 ) ;
#180 = EDGE_CURVE ( 'NONE', #56, #22, #21, .T. ) ;
#181 = ORIENTED_EDGE ( 'NONE', *, *, #202, .F. ) ;
#182 = VECTOR ( 'NONE', #2, 1000.000000000000000 ) ;
#183 = ORIENTED_EDGE ( 'NONE', *, *, #128, .F. ) ;
#184 = ADVANCED_FACE ( 'NONE', ( #76 ), #132, .F. ) ;
#185 = CALENDAR_DATE ( 2019, 14, 8 ) ;
#186 = CARTESIAN_POINT ( 'NONE',  ( 9.050000000000004263, -2.249999999999998668, 1.500000000000000000 ) ) ;
#187 = PLANE ( 'NONE',  #73 ) ;
#188 =( NAMED_UNIT ( * ) SI_UNIT ( $, .STERADIAN. ) SOLID_ANGLE_UNIT ( ) );
#189 = LINE ( 'NONE', #63, #90 ) ;
#190 = ORIENTED_EDGE ( 'NONE', *, *, #107, .T. ) ;
#191 = PERSON_AND_ORGANIZATION ( #60, #199 ) ;
#192 = VECTOR ( 'NONE', #81, 1000.000000000000000 ) ;
#193 = ORIENTED_EDGE ( 'NONE', *, *, #180, .T. ) ;
#194 = LOCAL_TIME ( 11, 16, 9.000000000000000000, #9 ) ;
#195 = EDGE_LOOP ( 'NONE', ( #229, #16, #131, #35 ) ) ;
#196 = DATE_AND_TIME ( #163, #137 ) ;
#197 = FACE_OUTER_BOUND ( 'NONE', #114, .T. ) ;
#198 = PERSON_AND_ORGANIZATION ( #60, #199 ) ;
#199 = ORGANIZATION ( '未指定', '未指定', '' ) ;
#200 = CC_DESIGN_PERSON_AND_ORGANIZATION_ASSIGNMENT ( #191, #99, ( #130 ) ) ;
#201 = ORIENTED_EDGE ( 'NONE', *, *, #77, .F. ) ;
#202 = EDGE_CURVE ( 'NONE', #22, #140, #203, .T. ) ;
#203 = LINE ( 'NONE', #85, #58 ) ;
#204 = ADVANCED_FACE ( 'NONE', ( #102 ), #31, .F. ) ;
#205 = ORIENTED_EDGE ( 'NONE', *, *, #77, .T. ) ;
#206 = CARTESIAN_POINT ( 'NONE',  ( 9.050000000000004263, 2.250000000000001332, 1.500000000000000000 ) ) ;
#207 = APPROVAL_ROLE ( '' ) ;
#208 = CARTESIAN_POINT ( 'NONE',  ( -9.049999999999997158, -2.250000000000000888, 1.500000000000000000 ) ) ;
#209 = VECTOR ( 'NONE', #28, 1000.000000000000000 ) ;
#210 = APPLICATION_CONTEXT ( 'configuration controlled 3d designs of mechanical parts and assemblies' ) ;
#211 = SECURITY_CLASSIFICATION_LEVEL ( 'unclassified' ) ;
#212 = COORDINATED_UNIVERSAL_TIME_OFFSET ( 8, 0, .AHEAD. ) ;
#213 = DIRECTION ( 'NONE',  ( 1.000000000000000000, 0.0000000000000000000, 0.0000000000000000000 ) ) ;
#214 = APPROVAL_ROLE ( '' ) ;
#215 = APPROVAL_STATUS ( 'not_yet_approved' ) ;
#216 = AXIS2_PLACEMENT_3D ( 'NONE', #152, #178, #232 ) ;
#217 = LINE ( 'NONE', #219, #166 ) ;
#218 = PRODUCT_DEFINITION_SHAPE ( 'NONE', 'NONE',  #179 ) ;
#219 = CARTESIAN_POINT ( 'NONE',  ( -9.049999999999997158, 2.249999999999998668, 1.500000000000000000 ) ) ;
#220 = FACE_OUTER_BOUND ( 'NONE', #98, .T. ) ;
#221 = CARTESIAN_POINT ( 'NONE',  ( 9.050000000000004263, 2.250000000000001332, 0.0000000000000000000 ) ) ;
#222 = CALENDAR_DATE ( 2019, 14, 8 ) ;
#223 = PERSON_AND_ORGANIZATION_ROLE ( 'design_owner' ) ;
#224 = ORIENTED_EDGE ( 'NONE', *, *, #118, .F. ) ;
#225 = CARTESIAN_POINT ( 'NONE',  ( 9.050000000000004263, 2.250000000000001332, 1.500000000000000000 ) ) ;
#226 = DATE_TIME_ROLE ( 'classification_date' ) ;
#227 = APPROVAL_PERSON_ORGANIZATION ( #198, #93, #207 ) ;
#228 = APPROVAL_DATE_TIME ( #38, #142 ) ;
#229 = ORIENTED_EDGE ( 'NONE', *, *, #128, .T. ) ;
#230 = CC_DESIGN_PERSON_AND_ORGANIZATION_ASSIGNMENT ( #108, #150, ( #179 ) ) ;
#231 = EDGE_CURVE ( 'NONE', #165, #140, #15, .T. ) ;
#232 = DIRECTION ( 'NONE',  ( 1.000000000000000000, 0.0000000000000000000, -0.0000000000000000000 ) ) ;
#233 = ORIENTED_EDGE ( 'NONE', *, *, #141, .F. ) ;
#234 = CC_DESIGN_APPROVAL ( #93, ( #179 ) ) ;
#235 = EDGE_LOOP ( 'NONE', ( #237, #51, #201, #10 ) ) ;
#236 = CC_DESIGN_DATE_AND_TIME_ASSIGNMENT ( #126, #65, ( #179 ) ) ;
#237 = ORIENTED_EDGE ( 'NONE', *, *, #118, .T. ) ;
ENDSEC;
END-ISO-10303-21;
