ISO-10303-21;
HEADER;
FILE_DESCRIPTION (( 'STEP AP203' ),
    '1' );
FILE_NAME ('26PIN接插件.STEP',
    '2019-08-14T03:16:23',
    ( 'adu' ),
    ( '' ),
    'SwSTEP 2.0',
    'SolidWorks 2018',
    '' );
FILE_SCHEMA (( 'CONFIG_CONTROL_DESIGN' ));
ENDSEC;

DATA;
#1 = COORDINATED_UNIVERSAL_TIME_OFFSET ( 8, 0, .AHEAD. ) ;
#2 = DIRECTION ( 'NONE',  ( 0.0000000000000000000, 1.000000000000000000, 0.0000000000000000000 ) ) ;
#3 = DATE_AND_TIME ( #75, #166 ) ;
#4 = ORIENTED_EDGE ( 'NONE', *, *, #108, .T. ) ;
#5 = PLANE ( 'NONE',  #159 ) ;
#6 = CARTESIAN_POINT ( 'NONE',  ( -8.549999999999998934, 2.249999999999997780, 1.500000000000000000 ) ) ;
#7 = EDGE_CURVE ( 'NONE', #237, #57, #200, .T. ) ;
#8 = PRODUCT ( '26PIN接插件', '26PIN接插件', '', ( #69 ) ) ;
#9 = DIRECTION ( 'NONE',  ( -1.268072716357314683E-16, 1.000000000000000000, 0.0000000000000000000 ) ) ;
#10 = PERSON_AND_ORGANIZATION ( #195, #72 ) ;
#11 = ORIENTED_EDGE ( 'NONE', *, *, #58, .T. ) ;
#12 = DIRECTION ( 'NONE',  ( -1.000000000000000000, -1.268072716357314683E-16, 0.0000000000000000000 ) ) ;
#13 = LINE ( 'NONE', #26, #56 ) ;
#14 = ORIENTED_EDGE ( 'NONE', *, *, #122, .T. ) ;
#15 = COORDINATED_UNIVERSAL_TIME_OFFSET ( 8, 0, .AHEAD. ) ;
#16 = EDGE_CURVE ( 'NONE', #223, #237, #36, .T. ) ;
#17 = EDGE_LOOP ( 'NONE', ( #220, #158, #54, #110 ) ) ;
#18 = VECTOR ( 'NONE', #114, 1000.000000000000000 ) ;
#19 = DIRECTION ( 'NONE',  ( -3.854941057726238097E-16, -1.000000000000000000, -0.0000000000000000000 ) ) ;
#20 = CARTESIAN_POINT ( 'NONE',  ( 8.550000000000002487, -2.250000000000000000, 1.500000000000000000 ) ) ;
#21 = LOCAL_TIME ( 11, 16, 23.00000000000000000, #120 ) ;
#22 = PLANE ( 'NONE',  #156 ) ;
#23 = DIRECTION ( 'NONE',  ( -1.000000000000000000, -1.268072716357315177E-16, 0.0000000000000000000 ) ) ;
#24 = DIRECTION ( 'NONE',  ( 1.000000000000000000, -3.854941057726238097E-16, 0.0000000000000000000 ) ) ;
#25 = AXIS2_PLACEMENT_3D ( 'NONE', #64, #182, #74 ) ;
#26 = CARTESIAN_POINT ( 'NONE',  ( 8.550000000000002487, -2.250000000000000000, 1.500000000000000000 ) ) ;
#27 = APPROVAL_PERSON_ORGANIZATION ( #222, #201, #119 ) ;
#28 = DIRECTION ( 'NONE',  ( 0.0000000000000000000, 0.0000000000000000000, 1.000000000000000000 ) ) ;
#29 = PERSON_AND_ORGANIZATION_ROLE ( 'creator' ) ;
#30 = APPLICATION_CONTEXT ( 'configuration controlled 3d designs of mechanical parts and assemblies' ) ;
#31 = APPROVAL_DATE_TIME ( #184, #105 ) ;
#32 = ORIENTED_EDGE ( 'NONE', *, *, #58, .F. ) ;
#33 = AXIS2_PLACEMENT_3D ( 'NONE', #231, #66, #135 ) ;
#34 = CC_DESIGN_DATE_AND_TIME_ASSIGNMENT ( #3, #212, ( #52 ) ) ;
#35 = FACE_OUTER_BOUND ( 'NONE', #17, .T. ) ;
#36 = LINE ( 'NONE', #93, #219 ) ;
#37 = AXIS2_PLACEMENT_3D ( 'NONE', #43, #28, #191 ) ;
#38 = ORIENTED_EDGE ( 'NONE', *, *, #7, .T. ) ;
#39 = DIRECTION ( 'NONE',  ( -0.0000000000000000000, -0.0000000000000000000, -1.000000000000000000 ) ) ;
#40 = LINE ( 'NONE', #81, #71 ) ;
#41 = DIRECTION ( 'NONE',  ( 1.000000000000000000, 0.0000000000000000000, -0.0000000000000000000 ) ) ;
#42 = APPROVAL_DATE_TIME ( #165, #201 ) ;
#43 = CARTESIAN_POINT ( 'NONE',  ( 0.0000000000000000000, 0.0000000000000000000, 0.0000000000000000000 ) ) ;
#44 = LINE ( 'NONE', #146, #234 ) ;
#45 =( NAMED_UNIT ( * ) SI_UNIT ( $, .STERADIAN. ) SOLID_ANGLE_UNIT ( ) );
#46 = CC_DESIGN_APPROVAL ( #169, ( #52 ) ) ;
#47 = PLANE ( 'NONE',  #33 ) ;
#48 = PRODUCT_DEFINITION_SHAPE ( 'NONE', 'NONE',  #52 ) ;
#49 = LINE ( 'NONE', #154, #153 ) ;
#50 = EDGE_LOOP ( 'NONE', ( #139, #207, #11, #163 ) ) ;
#51 = EDGE_LOOP ( 'NONE', ( #215, #100, #79, #235 ) ) ;
#52 = PRODUCT_DEFINITION ( '未知', '', #103, #59 ) ;
#53 = PERSON_AND_ORGANIZATION ( #195, #72 ) ;
#54 = ORIENTED_EDGE ( 'NONE', *, *, #108, .F. ) ;
#55 = EDGE_CURVE ( 'NONE', #91, #87, #44, .T. ) ;
#56 = VECTOR ( 'NONE', #117, 1000.000000000000000 ) ;
#57 = VERTEX_POINT ( 'NONE', #62 ) ;
#58 = EDGE_CURVE ( 'NONE', #161, #77, #83, .T. ) ;
#59 = DESIGN_CONTEXT ( 'detailed design', #232, 'design' ) ;
#60 = APPROVAL_PERSON_ORGANIZATION ( #98, #169, #189 ) ;
#61 = DIRECTION ( 'NONE',  ( 0.0000000000000000000, 1.000000000000000000, 0.0000000000000000000 ) ) ;
#62 = CARTESIAN_POINT ( 'NONE',  ( 8.550000000000002487, -2.250000000000000000, 0.0000000000000000000 ) ) ;
#63 = LINE ( 'NONE', #172, #199 ) ;
#64 = CARTESIAN_POINT ( 'NONE',  ( 8.550000000000002487, -2.250000000000000000, 1.500000000000000000 ) ) ;
#65 = PERSON_AND_ORGANIZATION_ROLE ( 'creator' ) ;
#66 = DIRECTION ( 'NONE',  ( 1.268072716357315177E-16, -1.000000000000000000, 0.0000000000000000000 ) ) ;
#67 = FACE_OUTER_BOUND ( 'NONE', #229, .T. ) ;
#68 = CARTESIAN_POINT ( 'NONE',  ( 0.0000000000000000000, 0.0000000000000000000, 0.0000000000000000000 ) ) ;
#69 = MECHANICAL_CONTEXT ( 'NONE', #30, 'mechanical' ) ;
#70 = EDGE_LOOP ( 'NONE', ( #38, #203, #127, #233 ) ) ;
#71 = VECTOR ( 'NONE', #99, 1000.000000000000000 ) ;
#72 = ORGANIZATION ( '未指定', '未指定', '' ) ;
#73 = PERSON_AND_ORGANIZATION ( #195, #72 ) ;
#74 = DIRECTION ( 'NONE',  ( 0.0000000000000000000, 0.0000000000000000000, 1.000000000000000000 ) ) ;
#75 = CALENDAR_DATE ( 2019, 14, 8 ) ;
#76 = CARTESIAN_POINT ( 'NONE',  ( 8.550000000000002487, 2.250000000000000000, 1.500000000000000000 ) ) ;
#77 = VERTEX_POINT ( 'NONE', #76 ) ;
#78 = CC_DESIGN_PERSON_AND_ORGANIZATION_ASSIGNMENT ( #225, #80, ( #8 ) ) ;
#79 = ORIENTED_EDGE ( 'NONE', *, *, #134, .F. ) ;
#80 = PERSON_AND_ORGANIZATION_ROLE ( 'design_owner' ) ;
#81 = CARTESIAN_POINT ( 'NONE',  ( -8.549999999999998934, 2.249999999999997780, 1.500000000000000000 ) ) ;
#82 = VECTOR ( 'NONE', #23, 1000.000000000000000 ) ;
#83 = LINE ( 'NONE', #20, #121 ) ;
#84 = EDGE_CURVE ( 'NONE', #77, #91, #130, .T. ) ;
#85 = APPROVAL_STATUS ( 'not_yet_approved' ) ;
#86 = FACE_OUTER_BOUND ( 'NONE', #50, .T. ) ;
#87 = VERTEX_POINT ( 'NONE', #131 ) ;
#88 = CC_DESIGN_PERSON_AND_ORGANIZATION_ASSIGNMENT ( #53, #65, ( #52 ) ) ;
#89 = LOCAL_TIME ( 11, 16, 23.00000000000000000, #210 ) ;
#90 = CALENDAR_DATE ( 2019, 14, 8 ) ;
#91 = VERTEX_POINT ( 'NONE', #113 ) ;
#92 = ADVANCED_FACE ( 'NONE', ( #86 ), #22, .T. ) ;
#93 = CARTESIAN_POINT ( 'NONE',  ( -8.550000000000000711, -2.250000000000001776, 1.500000000000000000 ) ) ;
#94 = ORIENTED_EDGE ( 'NONE', *, *, #205, .T. ) ;
#95 = PERSON_AND_ORGANIZATION_ROLE ( 'design_supplier' ) ;
#96 = EDGE_CURVE ( 'NONE', #87, #237, #171, .T. ) ;
#97 = CARTESIAN_POINT ( 'NONE',  ( -8.550000000000000711, -2.250000000000001776, 1.500000000000000000 ) ) ;
#98 = PERSON_AND_ORGANIZATION ( #195, #72 ) ;
#99 = DIRECTION ( 'NONE',  ( -0.0000000000000000000, -0.0000000000000000000, -1.000000000000000000 ) ) ;
#100 = ORIENTED_EDGE ( 'NONE', *, *, #122, .F. ) ;
#101 = CARTESIAN_POINT ( 'NONE',  ( -8.550000000000000711, -2.250000000000001776, 1.500000000000000000 ) ) ;
#102 = DATE_TIME_ROLE ( 'classification_date' ) ;
#103 = PRODUCT_DEFINITION_FORMATION_WITH_SPECIFIED_SOURCE ( '任何', '', #8, .NOT_KNOWN. ) ;
#104 = DATE_AND_TIME ( #157, #21 ) ;
#105 = APPROVAL ( #188, '未指定' ) ;
#106 = FACE_OUTER_BOUND ( 'NONE', #51, .T. ) ;
#107 = ORIENTED_EDGE ( 'NONE', *, *, #84, .F. ) ;
#108 = EDGE_CURVE ( 'NONE', #57, #91, #63, .T. ) ;
#109 = ADVANCED_FACE ( 'NONE', ( #67 ), #147, .F. ) ;
#110 = ORIENTED_EDGE ( 'NONE', *, *, #7, .F. ) ;
#111 = CARTESIAN_POINT ( 'NONE',  ( 8.550000000000002487, 2.250000000000000000, 1.500000000000000000 ) ) ;
#112 = CC_DESIGN_PERSON_AND_ORGANIZATION_ASSIGNMENT ( #170, #95, ( #103 ) ) ;
#113 = CARTESIAN_POINT ( 'NONE',  ( 8.550000000000002487, 2.250000000000000000, 0.0000000000000000000 ) ) ;
#114 = DIRECTION ( 'NONE',  ( -3.854941057726238097E-16, -1.000000000000000000, -0.0000000000000000000 ) ) ;
#115 = CARTESIAN_POINT ( 'NONE',  ( 8.550000000000002487, -2.250000000000000000, 1.500000000000000000 ) ) ;
#116 = LINE ( 'NONE', #101, #18 ) ;
#117 = DIRECTION ( 'NONE',  ( -0.0000000000000000000, -0.0000000000000000000, -1.000000000000000000 ) ) ;
#118 = APPROVAL_STATUS ( 'not_yet_approved' ) ;
#119 = APPROVAL_ROLE ( '' ) ;
#120 = COORDINATED_UNIVERSAL_TIME_OFFSET ( 8, 0, .AHEAD. ) ;
#121 = VECTOR ( 'NONE', #2, 1000.000000000000000 ) ;
#122 = EDGE_CURVE ( 'NONE', #144, #87, #40, .T. ) ;
#123 = MANIFOLD_SOLID_BREP ( '凸台-拉伸1', #142 ) ;
#124 = LOCAL_TIME ( 11, 16, 23.00000000000000000, #15 ) ;
#125 = CC_DESIGN_PERSON_AND_ORGANIZATION_ASSIGNMENT ( #73, #196, ( #179 ) ) ;
#126 = ADVANCED_BREP_SHAPE_REPRESENTATION ( '26PIN接插件', ( #123, #37 ), #174 ) ;
#127 = ORIENTED_EDGE ( 'NONE', *, *, #167, .F. ) ;
#128 = CARTESIAN_POINT ( 'NONE',  ( -8.550000000000000711, -2.250000000000001776, 0.0000000000000000000 ) ) ;
#129 = LINE ( 'NONE', #111, #82 ) ;
#130 = LINE ( 'NONE', #224, #143 ) ;
#131 = CARTESIAN_POINT ( 'NONE',  ( -8.549999999999998934, 2.249999999999997780, 0.0000000000000000000 ) ) ;
#132 = CARTESIAN_POINT ( 'NONE',  ( 0.0000000000000000000, 0.0000000000000000000, 1.500000000000000000 ) ) ;
#133 = DIRECTION ( 'NONE',  ( 1.000000000000000000, 0.0000000000000000000, -0.0000000000000000000 ) ) ;
#134 = EDGE_CURVE ( 'NONE', #77, #144, #129, .T. ) ;
#135 = DIRECTION ( 'NONE',  ( 1.000000000000000000, 1.268072716357315177E-16, 0.0000000000000000000 ) ) ;
#136 = APPROVAL_ROLE ( '' ) ;
#137 = FACE_OUTER_BOUND ( 'NONE', #70, .T. ) ;
#138 = CC_DESIGN_DATE_AND_TIME_ASSIGNMENT ( #104, #102, ( #179 ) ) ;
#139 = ORIENTED_EDGE ( 'NONE', *, *, #194, .T. ) ;
#140 = LOCAL_TIME ( 11, 16, 23.00000000000000000, #1 ) ;
#141 = CC_DESIGN_APPROVAL ( #105, ( #103 ) ) ;
#142 = CLOSED_SHELL ( 'NONE', ( #236, #226, #109, #221, #92, #204 ) ) ;
#143 = VECTOR ( 'NONE', #185, 1000.000000000000000 ) ;
#144 = VERTEX_POINT ( 'NONE', #6 ) ;
#145 = DIRECTION ( 'NONE',  ( 1.000000000000000000, 1.268072716357314683E-16, -0.0000000000000000000 ) ) ;
#146 = CARTESIAN_POINT ( 'NONE',  ( 8.550000000000002487, 2.250000000000000000, 0.0000000000000000000 ) ) ;
#147 = PLANE ( 'NONE',  #25 ) ;
#148 = CARTESIAN_POINT ( 'NONE',  ( 8.550000000000002487, -2.250000000000000000, 0.0000000000000000000 ) ) ;
#149 = AXIS2_PLACEMENT_3D ( 'NONE', #68, #173, #133 ) ;
#150 = EDGE_LOOP ( 'NONE', ( #186, #192, #198, #14 ) ) ;
#151 = APPLICATION_PROTOCOL_DEFINITION ( 'international standard', 'config_control_design', 1994, #232 ) ;
#152 = DIRECTION ( 'NONE',  ( 3.854941057726238097E-16, 1.000000000000000000, 0.0000000000000000000 ) ) ;
#153 = VECTOR ( 'NONE', #230, 1000.000000000000000 ) ;
#154 = CARTESIAN_POINT ( 'NONE',  ( 8.550000000000002487, -2.250000000000000000, 1.500000000000000000 ) ) ;
#155 = CARTESIAN_POINT ( 'NONE',  ( -8.550000000000000711, -2.250000000000001776, 1.500000000000000000 ) ) ;
#156 = AXIS2_PLACEMENT_3D ( 'NONE', #132, #208, #41 ) ;
#157 = CALENDAR_DATE ( 2019, 14, 8 ) ;
#158 = ORIENTED_EDGE ( 'NONE', *, *, #55, .F. ) ;
#159 = AXIS2_PLACEMENT_3D ( 'NONE', #178, #9, #12 ) ;
#160 = APPROVAL_DATE_TIME ( #206, #169 ) ;
#161 = VERTEX_POINT ( 'NONE', #115 ) ;
#162 = APPROVAL_PERSON_ORGANIZATION ( #10, #105, #136 ) ;
#163 = ORIENTED_EDGE ( 'NONE', *, *, #134, .T. ) ;
#164 = AXIS2_PLACEMENT_3D ( 'NONE', #155, #24, #152 ) ;
#165 = DATE_AND_TIME ( #183, #89 ) ;
#166 = LOCAL_TIME ( 11, 16, 23.00000000000000000, #175 ) ;
#167 = EDGE_CURVE ( 'NONE', #223, #161, #49, .T. ) ;
#168 = DIRECTION ( 'NONE',  ( -1.000000000000000000, -1.268072716357315177E-16, 0.0000000000000000000 ) ) ;
#169 = APPROVAL ( #118, '未指定' ) ;
#170 = PERSON_AND_ORGANIZATION ( #195, #72 ) ;
#171 = LINE ( 'NONE', #128, #214 ) ;
#172 = CARTESIAN_POINT ( 'NONE',  ( 8.550000000000002487, -2.250000000000000000, 0.0000000000000000000 ) ) ;
#173 = DIRECTION ( 'NONE',  ( 0.0000000000000000000, -0.0000000000000000000, 1.000000000000000000 ) ) ;
#174 =( GEOMETRIC_REPRESENTATION_CONTEXT ( 3 ) GLOBAL_UNCERTAINTY_ASSIGNED_CONTEXT ( ( #216 ) ) GLOBAL_UNIT_ASSIGNED_CONTEXT ( ( #213, #193, #45 ) ) REPRESENTATION_CONTEXT ( 'NONE', 'WORKASPACE' ) );
#175 = COORDINATED_UNIVERSAL_TIME_OFFSET ( 8, 0, .AHEAD. ) ;
#176 = PLANE ( 'NONE',  #149 ) ;
#177 = CARTESIAN_POINT ( 'NONE',  ( -8.550000000000000711, -2.250000000000001776, 0.0000000000000000000 ) ) ;
#178 = CARTESIAN_POINT ( 'NONE',  ( 8.550000000000002487, -2.250000000000000000, 1.500000000000000000 ) ) ;
#179 = SECURITY_CLASSIFICATION ( '', '', #228 ) ;
#180 = SHAPE_DEFINITION_REPRESENTATION ( #48, #126 ) ;
#181 = CC_DESIGN_PERSON_AND_ORGANIZATION_ASSIGNMENT ( #218, #29, ( #103 ) ) ;
#182 = DIRECTION ( 'NONE',  ( -1.000000000000000000, 0.0000000000000000000, 0.0000000000000000000 ) ) ;
#183 = CALENDAR_DATE ( 2019, 14, 8 ) ;
#184 = DATE_AND_TIME ( #90, #140 ) ;
#185 = DIRECTION ( 'NONE',  ( -0.0000000000000000000, -0.0000000000000000000, -1.000000000000000000 ) ) ;
#186 = ORIENTED_EDGE ( 'NONE', *, *, #96, .T. ) ;
#187 = VECTOR ( 'NONE', #145, 1000.000000000000000 ) ;
#188 = APPROVAL_STATUS ( 'not_yet_approved' ) ;
#189 = APPROVAL_ROLE ( '' ) ;
#190 = APPLICATION_PROTOCOL_DEFINITION ( 'international standard', 'config_control_design', 1994, #30 ) ;
#191 = DIRECTION ( 'NONE',  ( 1.000000000000000000, 0.0000000000000000000, 0.0000000000000000000 ) ) ;
#192 = ORIENTED_EDGE ( 'NONE', *, *, #16, .F. ) ;
#193 =( NAMED_UNIT ( * ) PLANE_ANGLE_UNIT ( ) SI_UNIT ( $, .RADIAN. ) );
#194 = EDGE_CURVE ( 'NONE', #144, #223, #116, .T. ) ;
#195 = PERSON ( '未指定', '未指定', '未指定', ('未指定'), ('未指定'), ('未指定') ) ;
#196 = PERSON_AND_ORGANIZATION_ROLE ( 'classification_officer' ) ;
#197 = PRODUCT_RELATED_PRODUCT_CATEGORY ( 'detail', '', ( #8 ) ) ;
#198 = ORIENTED_EDGE ( 'NONE', *, *, #194, .F. ) ;
#199 = VECTOR ( 'NONE', #61, 1000.000000000000000 ) ;
#200 = LINE ( 'NONE', #148, #187 ) ;
#201 = APPROVAL ( #85, '未指定' ) ;
#202 = CALENDAR_DATE ( 2019, 14, 8 ) ;
#203 = ORIENTED_EDGE ( 'NONE', *, *, #205, .F. ) ;
#204 = ADVANCED_FACE ( 'NONE', ( #35 ), #176, .F. ) ;
#205 = EDGE_CURVE ( 'NONE', #161, #57, #13, .T. ) ;
#206 = DATE_AND_TIME ( #202, #124 ) ;
#207 = ORIENTED_EDGE ( 'NONE', *, *, #167, .T. ) ;
#208 = DIRECTION ( 'NONE',  ( 0.0000000000000000000, -0.0000000000000000000, 1.000000000000000000 ) ) ;
#209 = PLANE ( 'NONE',  #164 ) ;
#210 = COORDINATED_UNIVERSAL_TIME_OFFSET ( 8, 0, .AHEAD. ) ;
#211 = FACE_OUTER_BOUND ( 'NONE', #150, .T. ) ;
#212 = DATE_TIME_ROLE ( 'creation_date' ) ;
#213 =( LENGTH_UNIT ( ) NAMED_UNIT ( * ) SI_UNIT ( .MILLI., .METRE. ) );
#214 = VECTOR ( 'NONE', #19, 1000.000000000000000 ) ;
#215 = ORIENTED_EDGE ( 'NONE', *, *, #55, .T. ) ;
#216 = UNCERTAINTY_MEASURE_WITH_UNIT (LENGTH_MEASURE( 1.000000000000000082E-05 ), #213, 'distance_accuracy_value', 'NONE');
#217 = CC_DESIGN_APPROVAL ( #201, ( #179 ) ) ;
#218 = PERSON_AND_ORGANIZATION ( #195, #72 ) ;
#219 = VECTOR ( 'NONE', #39, 1000.000000000000000 ) ;
#220 = ORIENTED_EDGE ( 'NONE', *, *, #96, .F. ) ;
#221 = ADVANCED_FACE ( 'NONE', ( #106 ), #47, .F. ) ;
#222 = PERSON_AND_ORGANIZATION ( #195, #72 ) ;
#223 = VERTEX_POINT ( 'NONE', #97 ) ;
#224 = CARTESIAN_POINT ( 'NONE',  ( 8.550000000000002487, 2.250000000000000000, 1.500000000000000000 ) ) ;
#225 = PERSON_AND_ORGANIZATION ( #195, #72 ) ;
#226 = ADVANCED_FACE ( 'NONE', ( #137 ), #5, .F. ) ;
#227 = CC_DESIGN_SECURITY_CLASSIFICATION ( #179, ( #103 ) ) ;
#228 = SECURITY_CLASSIFICATION_LEVEL ( 'unclassified' ) ;
#229 = EDGE_LOOP ( 'NONE', ( #4, #107, #32, #94 ) ) ;
#230 = DIRECTION ( 'NONE',  ( 1.000000000000000000, 1.268072716357314683E-16, -0.0000000000000000000 ) ) ;
#231 = CARTESIAN_POINT ( 'NONE',  ( 8.550000000000002487, 2.250000000000000000, 1.500000000000000000 ) ) ;
#232 = APPLICATION_CONTEXT ( 'configuration controlled 3d designs of mechanical parts and assemblies' ) ;
#233 = ORIENTED_EDGE ( 'NONE', *, *, #16, .T. ) ;
#234 = VECTOR ( 'NONE', #168, 1000.000000000000000 ) ;
#235 = ORIENTED_EDGE ( 'NONE', *, *, #84, .T. ) ;
#236 = ADVANCED_FACE ( 'NONE', ( #211 ), #209, .F. ) ;
#237 = VERTEX_POINT ( 'NONE', #177 ) ;
ENDSEC;
END-ISO-10303-21;
