ISO-10303-21;
HEADER;
FILE_DESCRIPTION (( 'STEP AP203' ),
    '1' );
FILE_NAME ('6PIN接插件.STEP',
    '2019-08-14T03:16:41',
    ( 'adu' ),
    ( '' ),
    'SwSTEP 2.0',
    'SolidWorks 2018',
    '' );
FILE_SCHEMA (( 'CONFIG_CONTROL_DESIGN' ));
ENDSEC;

DATA;
#1 = VECTOR ( 'NONE', #56, 1000.000000000000000 ) ;
#2 = CC_DESIGN_SECURITY_CLASSIFICATION ( #16, ( #212 ) ) ;
#3 = VECTOR ( 'NONE', #105, 1000.000000000000000 ) ;
#4 = ORIENTED_EDGE ( 'NONE', *, *, #95, .F. ) ;
#5 = AXIS2_PLACEMENT_3D ( 'NONE', #35, #55, #230 ) ;
#6 = PERSON_AND_ORGANIZATION ( #25, #166 ) ;
#7 = PLANE ( 'NONE',  #97 ) ;
#8 = DIRECTION ( 'NONE',  ( 1.000000000000000000, 1.221636250687892233E-16, -0.0000000000000000000 ) ) ;
#9 = CARTESIAN_POINT ( 'NONE',  ( -3.550000000000000711, -2.249999999999999556, 1.500000000000000000 ) ) ;
#10 = PERSON_AND_ORGANIZATION ( #25, #166 ) ;
#11 = FACE_OUTER_BOUND ( 'NONE', #145, .T. ) ;
#12 = ORIENTED_EDGE ( 'NONE', *, *, #40, .T. ) ;
#13 =( NAMED_UNIT ( * ) PLANE_ANGLE_UNIT ( ) SI_UNIT ( $, .RADIAN. ) );
#14 = DATE_AND_TIME ( #107, #20 ) ;
#15 = LINE ( 'NONE', #116, #150 ) ;
#16 = SECURITY_CLASSIFICATION ( '', '', #70 ) ;
#17 = CARTESIAN_POINT ( 'NONE',  ( 3.549999999999999378, 2.250000000000001332, 1.500000000000000000 ) ) ;
#18 = CARTESIAN_POINT ( 'NONE',  ( 3.549999999999999378, -2.249999999999998668, 1.500000000000000000 ) ) ;
#19 = ADVANCED_FACE ( 'NONE', ( #168 ), #209, .T. ) ;
#20 = LOCAL_TIME ( 11, 16, 40.00000000000000000, #114 ) ;
#21 = LOCAL_TIME ( 11, 16, 40.00000000000000000, #136 ) ;
#22 = VERTEX_POINT ( 'NONE', #117 ) ;
#23 = COORDINATED_UNIVERSAL_TIME_OFFSET ( 8, 0, .AHEAD. ) ;
#24 = ORIENTED_EDGE ( 'NONE', *, *, #180, .F. ) ;
#25 = PERSON ( '未指定', '未指定', '未指定', ('未指定'), ('未指定'), ('未指定') ) ;
#26 = DIRECTION ( 'NONE',  ( 1.221636250687892480E-16, -1.000000000000000000, 0.0000000000000000000 ) ) ;
#27 = VERTEX_POINT ( 'NONE', #224 ) ;
#28 = PRODUCT ( '6PIN接插件', '6PIN接插件', '', ( #159 ) ) ;
#29 = DIRECTION ( 'NONE',  ( 0.0000000000000000000, 0.0000000000000000000, 1.000000000000000000 ) ) ;
#30 = DIRECTION ( 'NONE',  ( 0.0000000000000000000, 1.000000000000000000, 0.0000000000000000000 ) ) ;
#31 = EDGE_CURVE ( 'NONE', #206, #79, #15, .T. ) ;
#32 = DIRECTION ( 'NONE',  ( -0.0000000000000000000, -0.0000000000000000000, -1.000000000000000000 ) ) ;
#33 = APPLICATION_PROTOCOL_DEFINITION ( 'international standard', 'config_control_design', 1994, #161 ) ;
#34 = APPROVAL_STATUS ( 'not_yet_approved' ) ;
#35 = CARTESIAN_POINT ( 'NONE',  ( 0.0000000000000000000, 0.0000000000000000000, 0.0000000000000000000 ) ) ;
#36 = LINE ( 'NONE', #179, #3 ) ;
#37 = EDGE_LOOP ( 'NONE', ( #149, #118, #218, #39 ) ) ;
#38 = CALENDAR_DATE ( 2019, 14, 8 ) ;
#39 = ORIENTED_EDGE ( 'NONE', *, *, #163, .T. ) ;
#40 = EDGE_CURVE ( 'NONE', #79, #27, #112, .T. ) ;
#41 = UNCERTAINTY_MEASURE_WITH_UNIT (LENGTH_MEASURE( 1.000000000000000082E-05 ), #229, 'distance_accuracy_value', 'NONE');
#42 = PERSON_AND_ORGANIZATION ( #25, #166 ) ;
#43 = EDGE_LOOP ( 'NONE', ( #12, #64, #203, #124 ) ) ;
#44 = EDGE_CURVE ( 'NONE', #27, #201, #197, .T. ) ;
#45 = PERSON_AND_ORGANIZATION ( #25, #166 ) ;
#46 = DIRECTION ( 'NONE',  ( -1.000000000000000000, -1.221636250687892480E-16, 0.0000000000000000000 ) ) ;
#47 = CARTESIAN_POINT ( 'NONE',  ( 3.549999999999999378, -2.249999999999998668, 1.500000000000000000 ) ) ;
#48 =( GEOMETRIC_REPRESENTATION_CONTEXT ( 3 ) GLOBAL_UNCERTAINTY_ASSIGNED_CONTEXT ( ( #41 ) ) GLOBAL_UNIT_ASSIGNED_CONTEXT ( ( #229, #13, #121 ) ) REPRESENTATION_CONTEXT ( 'NONE', 'WORKASPACE' ) );
#49 = PERSON_AND_ORGANIZATION ( #25, #166 ) ;
#50 = CARTESIAN_POINT ( 'NONE',  ( -3.550000000000000266, 2.250000000000000444, 0.0000000000000000000 ) ) ;
#51 = ORIENTED_EDGE ( 'NONE', *, *, #127, .T. ) ;
#52 = APPLICATION_CONTEXT ( 'configuration controlled 3d designs of mechanical parts and assemblies' ) ;
#53 = EDGE_CURVE ( 'NONE', #74, #22, #66, .T. ) ;
#54 = FACE_OUTER_BOUND ( 'NONE', #59, .T. ) ;
#55 = DIRECTION ( 'NONE',  ( 0.0000000000000000000, -0.0000000000000000000, 1.000000000000000000 ) ) ;
#56 = DIRECTION ( 'NONE',  ( -0.0000000000000000000, -0.0000000000000000000, -1.000000000000000000 ) ) ;
#57 = LINE ( 'NONE', #140, #178 ) ;
#58 = ADVANCED_FACE ( 'NONE', ( #60 ), #7, .F. ) ;
#59 = EDGE_LOOP ( 'NONE', ( #235, #227, #4, #187 ) ) ;
#60 = FACE_OUTER_BOUND ( 'NONE', #37, .T. ) ;
#61 = SHAPE_DEFINITION_REPRESENTATION ( #90, #217 ) ;
#62 = VERTEX_POINT ( 'NONE', #205 ) ;
#63 = APPROVAL ( #34, '未指定' ) ;
#64 = ORIENTED_EDGE ( 'NONE', *, *, #44, .T. ) ;
#65 = AXIS2_PLACEMENT_3D ( 'NONE', #137, #98, #68 ) ;
#66 = LINE ( 'NONE', #226, #103 ) ;
#67 = DIRECTION ( 'NONE',  ( 1.000000000000000000, 1.221636250687892480E-16, 0.0000000000000000000 ) ) ;
#68 = DIRECTION ( 'NONE',  ( 1.000000000000000000, 0.0000000000000000000, -0.0000000000000000000 ) ) ;
#69 = DIRECTION ( 'NONE',  ( -0.0000000000000000000, -0.0000000000000000000, -1.000000000000000000 ) ) ;
#70 = SECURITY_CLASSIFICATION_LEVEL ( 'unclassified' ) ;
#71 = ADVANCED_FACE ( 'NONE', ( #220 ), #119, .F. ) ;
#72 = CARTESIAN_POINT ( 'NONE',  ( -3.550000000000000711, -2.249999999999999556, 1.500000000000000000 ) ) ;
#73 = VECTOR ( 'NONE', #8, 1000.000000000000000 ) ;
#74 = VERTEX_POINT ( 'NONE', #135 ) ;
#75 = DATE_TIME_ROLE ( 'creation_date' ) ;
#76 = CC_DESIGN_DATE_AND_TIME_ASSIGNMENT ( #200, #75, ( #133 ) ) ;
#77 = VECTOR ( 'NONE', #204, 1000.000000000000000 ) ;
#78 = CALENDAR_DATE ( 2019, 14, 8 ) ;
#79 = VERTEX_POINT ( 'NONE', #82 ) ;
#80 = LINE ( 'NONE', #72, #1 ) ;
#81 = CC_DESIGN_APPROVAL ( #142, ( #16 ) ) ;
#82 = CARTESIAN_POINT ( 'NONE',  ( -3.550000000000000266, 2.250000000000000444, 1.500000000000000000 ) ) ;
#83 = CARTESIAN_POINT ( 'NONE',  ( 3.549999999999999378, -2.249999999999998668, 1.500000000000000000 ) ) ;
#84 = LOCAL_TIME ( 11, 16, 40.00000000000000000, #129 ) ;
#85 = ORIENTED_EDGE ( 'NONE', *, *, #127, .F. ) ;
#86 = CARTESIAN_POINT ( 'NONE',  ( -3.550000000000000711, -2.249999999999999556, 0.0000000000000000000 ) ) ;
#87 = DIRECTION ( 'NONE',  ( 1.000000000000000000, 0.0000000000000000000, 0.0000000000000000000 ) ) ;
#88 = PERSON_AND_ORGANIZATION_ROLE ( 'creator' ) ;
#89 = AXIS2_PLACEMENT_3D ( 'NONE', #122, #138, #87 ) ;
#90 = PRODUCT_DEFINITION_SHAPE ( 'NONE', 'NONE',  #133 ) ;
#91 = ADVANCED_FACE ( 'NONE', ( #54 ), #188, .F. ) ;
#92 = LOCAL_TIME ( 11, 16, 40.00000000000000000, #23 ) ;
#93 = APPROVAL_DATE_TIME ( #184, #63 ) ;
#94 = CC_DESIGN_APPROVAL ( #63, ( #133 ) ) ;
#95 = EDGE_CURVE ( 'NONE', #201, #206, #231, .T. ) ;
#96 = PERSON_AND_ORGANIZATION ( #25, #166 ) ;
#97 = AXIS2_PLACEMENT_3D ( 'NONE', #154, #210, #185 ) ;
#98 = DIRECTION ( 'NONE',  ( 0.0000000000000000000, -0.0000000000000000000, 1.000000000000000000 ) ) ;
#99 = LINE ( 'NONE', #86, #131 ) ;
#100 = ORIENTED_EDGE ( 'NONE', *, *, #31, .F. ) ;
#101 = DIRECTION ( 'NONE',  ( -1.000000000000000000, 0.0000000000000000000, 0.0000000000000000000 ) ) ;
#102 = AXIS2_PLACEMENT_3D ( 'NONE', #83, #101, #29 ) ;
#103 = VECTOR ( 'NONE', #30, 1000.000000000000000 ) ;
#104 = PLANE ( 'NONE',  #5 ) ;
#105 = DIRECTION ( 'NONE',  ( 1.000000000000000000, 1.221636250687892233E-16, -0.0000000000000000000 ) ) ;
#106 = PERSON_AND_ORGANIZATION_ROLE ( 'creator' ) ;
#107 = CALENDAR_DATE ( 2019, 14, 8 ) ;
#108 = VECTOR ( 'NONE', #208, 1000.000000000000000 ) ;
#109 = ORIENTED_EDGE ( 'NONE', *, *, #183, .T. ) ;
#110 = APPROVAL ( #194, '未指定' ) ;
#111 = MANIFOLD_SOLID_BREP ( '凸台-拉伸1', #158 ) ;
#112 = LINE ( 'NONE', #9, #77 ) ;
#113 = AXIS2_PLACEMENT_3D ( 'NONE', #141, #232, #189 ) ;
#114 = COORDINATED_UNIVERSAL_TIME_OFFSET ( 8, 0, .AHEAD. ) ;
#115 = CC_DESIGN_APPROVAL ( #110, ( #212 ) ) ;
#116 = CARTESIAN_POINT ( 'NONE',  ( 3.549999999999999378, 2.250000000000001332, 1.500000000000000000 ) ) ;
#117 = CARTESIAN_POINT ( 'NONE',  ( 3.549999999999999378, 2.250000000000001332, 0.0000000000000000000 ) ) ;
#118 = ORIENTED_EDGE ( 'NONE', *, *, #195, .F. ) ;
#119 = PLANE ( 'NONE',  #216 ) ;
#120 = CC_DESIGN_PERSON_AND_ORGANIZATION_ASSIGNMENT ( #96, #106, ( #212 ) ) ;
#121 =( NAMED_UNIT ( * ) SI_UNIT ( $, .STERADIAN. ) SOLID_ANGLE_UNIT ( ) );
#122 = CARTESIAN_POINT ( 'NONE',  ( 0.0000000000000000000, 0.0000000000000000000, 0.0000000000000000000 ) ) ;
#123 = DIRECTION ( 'NONE',  ( -9.637352644315595243E-17, -1.000000000000000000, -0.0000000000000000000 ) ) ;
#124 = ORIENTED_EDGE ( 'NONE', *, *, #31, .T. ) ;
#125 = APPROVAL_ROLE ( '' ) ;
#126 = CALENDAR_DATE ( 2019, 14, 8 ) ;
#127 = EDGE_CURVE ( 'NONE', #22, #128, #182, .T. ) ;
#128 = VERTEX_POINT ( 'NONE', #50 ) ;
#129 = COORDINATED_UNIVERSAL_TIME_OFFSET ( 8, 0, .AHEAD. ) ;
#130 = ORIENTED_EDGE ( 'NONE', *, *, #202, .F. ) ;
#131 = VECTOR ( 'NONE', #123, 1000.000000000000000 ) ;
#132 = DIRECTION ( 'NONE',  ( -1.000000000000000000, -1.221636250687892480E-16, 0.0000000000000000000 ) ) ;
#133 = PRODUCT_DEFINITION ( '未知', '', #212, #134 ) ;
#134 = DESIGN_CONTEXT ( 'detailed design', #52, 'design' ) ;
#135 = CARTESIAN_POINT ( 'NONE',  ( 3.549999999999999378, -2.249999999999998668, 0.0000000000000000000 ) ) ;
#136 = COORDINATED_UNIVERSAL_TIME_OFFSET ( 8, 0, .AHEAD. ) ;
#137 = CARTESIAN_POINT ( 'NONE',  ( 0.0000000000000000000, 0.0000000000000000000, 1.500000000000000000 ) ) ;
#138 = DIRECTION ( 'NONE',  ( 0.0000000000000000000, 0.0000000000000000000, 1.000000000000000000 ) ) ;
#139 = LINE ( 'NONE', #162, #144 ) ;
#140 = CARTESIAN_POINT ( 'NONE',  ( -3.550000000000000266, 2.250000000000000444, 1.500000000000000000 ) ) ;
#141 = CARTESIAN_POINT ( 'NONE',  ( -3.550000000000000711, -2.249999999999999556, 1.500000000000000000 ) ) ;
#142 = APPROVAL ( #233, '未指定' ) ;
#143 = ADVANCED_FACE ( 'NONE', ( #11 ), #214, .F. ) ;
#144 = VECTOR ( 'NONE', #69, 1000.000000000000000 ) ;
#145 = EDGE_LOOP ( 'NONE', ( #109, #167, #221, #174 ) ) ;
#146 = CC_DESIGN_PERSON_AND_ORGANIZATION_ASSIGNMENT ( #10, #213, ( #16 ) ) ;
#147 = APPROVAL_DATE_TIME ( #192, #110 ) ;
#148 = LINE ( 'NONE', #193, #186 ) ;
#149 = ORIENTED_EDGE ( 'NONE', *, *, #180, .T. ) ;
#150 = VECTOR ( 'NONE', #132, 1000.000000000000000 ) ;
#151 = CARTESIAN_POINT ( 'NONE',  ( 3.549999999999999378, 2.250000000000001332, 0.0000000000000000000 ) ) ;
#152 = PRODUCT_RELATED_PRODUCT_CATEGORY ( 'detail', '', ( #28 ) ) ;
#153 = COORDINATED_UNIVERSAL_TIME_OFFSET ( 8, 0, .AHEAD. ) ;
#154 = CARTESIAN_POINT ( 'NONE',  ( 3.549999999999999378, -2.249999999999998668, 1.500000000000000000 ) ) ;
#155 = DIRECTION ( 'NONE',  ( -0.0000000000000000000, -0.0000000000000000000, -1.000000000000000000 ) ) ;
#156 = PERSON_AND_ORGANIZATION ( #25, #166 ) ;
#157 = CC_DESIGN_DATE_AND_TIME_ASSIGNMENT ( #14, #191, ( #16 ) ) ;
#158 = CLOSED_SHELL ( 'NONE', ( #143, #58, #91, #71, #19, #236 ) ) ;
#159 = MECHANICAL_CONTEXT ( 'NONE', #161, 'mechanical' ) ;
#160 = APPROVAL_ROLE ( '' ) ;
#161 = APPLICATION_CONTEXT ( 'configuration controlled 3d designs of mechanical parts and assemblies' ) ;
#162 = CARTESIAN_POINT ( 'NONE',  ( 3.549999999999999378, -2.249999999999998668, 1.500000000000000000 ) ) ;
#163 = EDGE_CURVE ( 'NONE', #27, #62, #80, .T. ) ;
#164 = ORIENTED_EDGE ( 'NONE', *, *, #176, .T. ) ;
#165 = DATE_AND_TIME ( #78, #211 ) ;
#166 = ORGANIZATION ( '未指定', '未指定', '' ) ;
#167 = ORIENTED_EDGE ( 'NONE', *, *, #163, .F. ) ;
#168 = FACE_OUTER_BOUND ( 'NONE', #43, .T. ) ;
#169 = VECTOR ( 'NONE', #46, 1000.000000000000000 ) ;
#170 = EDGE_LOOP ( 'NONE', ( #199, #85, #222, #24 ) ) ;
#171 = CARTESIAN_POINT ( 'NONE',  ( 3.549999999999999378, 2.250000000000001332, 1.500000000000000000 ) ) ;
#172 = APPROVAL_PERSON_ORGANIZATION ( #6, #63, #160 ) ;
#173 = CARTESIAN_POINT ( 'NONE',  ( 3.549999999999999378, -2.249999999999998668, 1.500000000000000000 ) ) ;
#174 = ORIENTED_EDGE ( 'NONE', *, *, #202, .T. ) ;
#175 = PERSON_AND_ORGANIZATION_ROLE ( 'design_owner' ) ;
#176 = EDGE_CURVE ( 'NONE', #206, #22, #148, .T. ) ;
#177 = APPLICATION_PROTOCOL_DEFINITION ( 'international standard', 'config_control_design', 1994, #52 ) ;
#178 = VECTOR ( 'NONE', #155, 1000.000000000000000 ) ;
#179 = CARTESIAN_POINT ( 'NONE',  ( 3.549999999999999378, -2.249999999999998668, 0.0000000000000000000 ) ) ;
#180 = EDGE_CURVE ( 'NONE', #62, #74, #36, .T. ) ;
#181 = APPROVAL_PERSON_ORGANIZATION ( #42, #110, #215 ) ;
#182 = LINE ( 'NONE', #151, #169 ) ;
#183 = EDGE_CURVE ( 'NONE', #128, #62, #99, .T. ) ;
#184 = DATE_AND_TIME ( #126, #92 ) ;
#185 = DIRECTION ( 'NONE',  ( -1.000000000000000000, -1.221636250687892233E-16, 0.0000000000000000000 ) ) ;
#186 = VECTOR ( 'NONE', #32, 1000.000000000000000 ) ;
#187 = ORIENTED_EDGE ( 'NONE', *, *, #195, .T. ) ;
#188 = PLANE ( 'NONE',  #102 ) ;
#189 = DIRECTION ( 'NONE',  ( 9.637352644315595243E-17, 1.000000000000000000, 0.0000000000000000000 ) ) ;
#190 = APPROVAL_PERSON_ORGANIZATION ( #219, #142, #125 ) ;
#191 = DATE_TIME_ROLE ( 'classification_date' ) ;
#192 = DATE_AND_TIME ( #38, #84 ) ;
#193 = CARTESIAN_POINT ( 'NONE',  ( 3.549999999999999378, 2.250000000000001332, 1.500000000000000000 ) ) ;
#194 = APPROVAL_STATUS ( 'not_yet_approved' ) ;
#195 = EDGE_CURVE ( 'NONE', #201, #74, #139, .T. ) ;
#196 = APPROVAL_DATE_TIME ( #165, #142 ) ;
#197 = LINE ( 'NONE', #173, #73 ) ;
#198 = EDGE_LOOP ( 'NONE', ( #51, #130, #100, #164 ) ) ;
#199 = ORIENTED_EDGE ( 'NONE', *, *, #183, .F. ) ;
#200 = DATE_AND_TIME ( #234, #21 ) ;
#201 = VERTEX_POINT ( 'NONE', #18 ) ;
#202 = EDGE_CURVE ( 'NONE', #79, #128, #57, .T. ) ;
#203 = ORIENTED_EDGE ( 'NONE', *, *, #95, .T. ) ;
#204 = DIRECTION ( 'NONE',  ( -9.637352644315595243E-17, -1.000000000000000000, -0.0000000000000000000 ) ) ;
#205 = CARTESIAN_POINT ( 'NONE',  ( -3.550000000000000711, -2.249999999999999556, 0.0000000000000000000 ) ) ;
#206 = VERTEX_POINT ( 'NONE', #17 ) ;
#207 = CC_DESIGN_PERSON_AND_ORGANIZATION_ASSIGNMENT ( #49, #175, ( #28 ) ) ;
#208 = DIRECTION ( 'NONE',  ( 0.0000000000000000000, 1.000000000000000000, 0.0000000000000000000 ) ) ;
#209 = PLANE ( 'NONE',  #65 ) ;
#210 = DIRECTION ( 'NONE',  ( -1.221636250687892233E-16, 1.000000000000000000, 0.0000000000000000000 ) ) ;
#211 = LOCAL_TIME ( 11, 16, 40.00000000000000000, #153 ) ;
#212 = PRODUCT_DEFINITION_FORMATION_WITH_SPECIFIED_SOURCE ( '任何', '', #28, .NOT_KNOWN. ) ;
#213 = PERSON_AND_ORGANIZATION_ROLE ( 'classification_officer' ) ;
#214 = PLANE ( 'NONE',  #113 ) ;
#215 = APPROVAL_ROLE ( '' ) ;
#216 = AXIS2_PLACEMENT_3D ( 'NONE', #171, #26, #67 ) ;
#217 = ADVANCED_BREP_SHAPE_REPRESENTATION ( '6PIN接插件', ( #111, #89 ), #48 ) ;
#218 = ORIENTED_EDGE ( 'NONE', *, *, #44, .F. ) ;
#219 = PERSON_AND_ORGANIZATION ( #25, #166 ) ;
#220 = FACE_OUTER_BOUND ( 'NONE', #198, .T. ) ;
#221 = ORIENTED_EDGE ( 'NONE', *, *, #40, .F. ) ;
#222 = ORIENTED_EDGE ( 'NONE', *, *, #53, .F. ) ;
#223 = CC_DESIGN_PERSON_AND_ORGANIZATION_ASSIGNMENT ( #156, #228, ( #212 ) ) ;
#224 = CARTESIAN_POINT ( 'NONE',  ( -3.550000000000000711, -2.249999999999999556, 1.500000000000000000 ) ) ;
#225 = FACE_OUTER_BOUND ( 'NONE', #170, .T. ) ;
#226 = CARTESIAN_POINT ( 'NONE',  ( 3.549999999999999378, -2.249999999999998668, 0.0000000000000000000 ) ) ;
#227 = ORIENTED_EDGE ( 'NONE', *, *, #176, .F. ) ;
#228 = PERSON_AND_ORGANIZATION_ROLE ( 'design_supplier' ) ;
#229 =( LENGTH_UNIT ( ) NAMED_UNIT ( * ) SI_UNIT ( .MILLI., .METRE. ) );
#230 = DIRECTION ( 'NONE',  ( 1.000000000000000000, 0.0000000000000000000, -0.0000000000000000000 ) ) ;
#231 = LINE ( 'NONE', #47, #108 ) ;
#232 = DIRECTION ( 'NONE',  ( 1.000000000000000000, -9.637352644315595243E-17, 0.0000000000000000000 ) ) ;
#233 = APPROVAL_STATUS ( 'not_yet_approved' ) ;
#234 = CALENDAR_DATE ( 2019, 14, 8 ) ;
#235 = ORIENTED_EDGE ( 'NONE', *, *, #53, .T. ) ;
#236 = ADVANCED_FACE ( 'NONE', ( #225 ), #104, .F. ) ;
#237 = CC_DESIGN_PERSON_AND_ORGANIZATION_ASSIGNMENT ( #45, #88, ( #133 ) ) ;
ENDSEC;
END-ISO-10303-21;
