ISO-10303-21;
HEADER;
FILE_DESCRIPTION (( 'STEP AP203' ),
    '1' );
FILE_NAME ('14PIN接插件.STEP',
    '2019-08-14T03:22:57',
    ( 'adu' ),
    ( '' ),
    'SwSTEP 2.0',
    'SolidWorks 2018',
    '' );
FILE_SCHEMA (( 'CONFIG_CONTROL_DESIGN' ));
ENDSEC;

DATA;
#1 = COORDINATED_UNIVERSAL_TIME_OFFSET ( 8, 0, .AHEAD. ) ;
#2 = APPLICATION_PROTOCOL_DEFINITION ( 'international standard', 'config_control_design', 1994, #20 ) ;
#3 = ORIENTED_EDGE ( 'NONE', *, *, #153, .T. ) ;
#4 = CC_DESIGN_DATE_AND_TIME_ASSIGNMENT ( #41, #57, ( #180 ) ) ;
#5 = SECURITY_CLASSIFICATION_LEVEL ( 'unclassified' ) ;
#6 = ORGANIZATION ( '未指定', '未指定', '' ) ;
#7 = ORIENTED_EDGE ( 'NONE', *, *, #21, .F. ) ;
#8 = EDGE_CURVE ( 'NONE', #43, #62, #131, .T. ) ;
#9 = PERSON_AND_ORGANIZATION ( #112, #6 ) ;
#10 = ADVANCED_FACE ( 'NONE', ( #61 ), #49, .F. ) ;
#11 = CARTESIAN_POINT ( 'NONE',  ( -5.299999999999993605, -2.450000000000001066, 0.0000000000000000000 ) ) ;
#12 = PLANE ( 'NONE',  #212 ) ;
#13 = CARTESIAN_POINT ( 'NONE',  ( 5.300000000000006040, -2.449999999999999734, 2.000000000000000000 ) ) ;
#14 = APPLICATION_PROTOCOL_DEFINITION ( 'international standard', 'config_control_design', 1994, #52 ) ;
#15 = PLANE ( 'NONE',  #144 ) ;
#16 = LINE ( 'NONE', #97, #175 ) ;
#17 = ORIENTED_EDGE ( 'NONE', *, *, #183, .T. ) ;
#18 = DIRECTION ( 'NONE',  ( -0.0000000000000000000, -0.0000000000000000000, -1.000000000000000000 ) ) ;
#19 = EDGE_LOOP ( 'NONE', ( #66, #164, #234, #3 ) ) ;
#20 = APPLICATION_CONTEXT ( 'configuration controlled 3d designs of mechanical parts and assemblies' ) ;
#21 = EDGE_CURVE ( 'NONE', #110, #43, #205, .T. ) ;
#22 = APPROVAL_ROLE ( '' ) ;
#23 = COORDINATED_UNIVERSAL_TIME_OFFSET ( 8, 0, .AHEAD. ) ;
#24 = ORIENTED_EDGE ( 'NONE', *, *, #137, .F. ) ;
#25 = FACE_OUTER_BOUND ( 'NONE', #185, .T. ) ;
#26 = CARTESIAN_POINT ( 'NONE',  ( -5.299999999999993605, -2.450000000000001066, 2.000000000000000000 ) ) ;
#27 = CARTESIAN_POINT ( 'NONE',  ( 5.300000000000006040, 2.450000000000000622, 0.0000000000000000000 ) ) ;
#28 = CARTESIAN_POINT ( 'NONE',  ( 0.0000000000000000000, 0.0000000000000000000, 0.0000000000000000000 ) ) ;
#29 = CARTESIAN_POINT ( 'NONE',  ( 5.300000000000006040, -2.449999999999999734, 2.000000000000000000 ) ) ;
#30 = PERSON_AND_ORGANIZATION ( #112, #6 ) ;
#31 = DIRECTION ( 'NONE',  ( 1.227398685832646557E-16, -1.000000000000000000, 0.0000000000000000000 ) ) ;
#32 = DIRECTION ( 'NONE',  ( 1.000000000000000000, 0.0000000000000000000, -0.0000000000000000000 ) ) ;
#33 = FACE_OUTER_BOUND ( 'NONE', #19, .T. ) ;
#34 = PERSON_AND_ORGANIZATION_ROLE ( 'creator' ) ;
#35 = APPROVAL_STATUS ( 'not_yet_approved' ) ;
#36 = LOCAL_TIME ( 11, 22, 57.00000000000000000, #23 ) ;
#37 = VERTEX_POINT ( 'NONE', #27 ) ;
#38 = APPROVAL_STATUS ( 'not_yet_approved' ) ;
#39 = APPROVAL ( #38, '未指定' ) ;
#40 = LOCAL_TIME ( 11, 22, 57.00000000000000000, #71 ) ;
#41 = DATE_AND_TIME ( #161, #36 ) ;
#42 = CALENDAR_DATE ( 2019, 14, 8 ) ;
#43 = VERTEX_POINT ( 'NONE', #11 ) ;
#44 = LOCAL_TIME ( 11, 22, 57.00000000000000000, #140 ) ;
#45 = LINE ( 'NONE', #218, #88 ) ;
#46 = VERTEX_POINT ( 'NONE', #191 ) ;
#47 = ORIENTED_EDGE ( 'NONE', *, *, #118, .T. ) ;
#48 = DIRECTION ( 'NONE',  ( 0.0000000000000000000, 0.0000000000000000000, -1.000000000000000000 ) ) ;
#49 = PLANE ( 'NONE',  #202 ) ;
#50 =( LENGTH_UNIT ( ) NAMED_UNIT ( * ) SI_UNIT ( .MILLI., .METRE. ) );
#51 = ORIENTED_EDGE ( 'NONE', *, *, #68, .T. ) ;
#52 = APPLICATION_CONTEXT ( 'configuration controlled 3d designs of mechanical parts and assemblies' ) ;
#53 = VECTOR ( 'NONE', #177, 1000.000000000000000 ) ;
#54 = EDGE_LOOP ( 'NONE', ( #120, #24, #186, #200 ) ) ;
#55 = PERSON_AND_ORGANIZATION_ROLE ( 'creator' ) ;
#56 = DATE_AND_TIME ( #104, #40 ) ;
#57 = DATE_TIME_ROLE ( 'classification_date' ) ;
#58 = LINE ( 'NONE', #151, #209 ) ;
#59 = CC_DESIGN_DATE_AND_TIME_ASSIGNMENT ( #113, #159, ( #99 ) ) ;
#60 = APPROVAL_PERSON_ORGANIZATION ( #122, #165, #22 ) ;
#61 = FACE_OUTER_BOUND ( 'NONE', #190, .T. ) ;
#62 = VERTEX_POINT ( 'NONE', #167 ) ;
#63 = CARTESIAN_POINT ( 'NONE',  ( -5.299999999999993605, 2.449999999999999289, 2.000000000000000000 ) ) ;
#64 = CARTESIAN_POINT ( 'NONE',  ( 5.300000000000006040, 2.450000000000000622, 2.000000000000000000 ) ) ;
#65 = PLANE ( 'NONE',  #107 ) ;
#66 = ORIENTED_EDGE ( 'NONE', *, *, #187, .T. ) ;
#67 = DIRECTION ( 'NONE',  ( 0.0000000000000000000, 0.0000000000000000000, 1.000000000000000000 ) ) ;
#68 = EDGE_CURVE ( 'NONE', #143, #46, #184, .T. ) ;
#69 = CC_DESIGN_PERSON_AND_ORGANIZATION_ASSIGNMENT ( #116, #182, ( #158 ) ) ;
#70 = DATE_AND_TIME ( #232, #154 ) ;
#71 = COORDINATED_UNIVERSAL_TIME_OFFSET ( 8, 0, .AHEAD. ) ;
#72 = VECTOR ( 'NONE', #149, 1000.000000000000000 ) ;
#73 = CC_DESIGN_APPROVAL ( #189, ( #99 ) ) ;
#74 = PERSON_AND_ORGANIZATION ( #112, #6 ) ;
#75 = FACE_OUTER_BOUND ( 'NONE', #111, .T. ) ;
#76 = ORIENTED_EDGE ( 'NONE', *, *, #8, .T. ) ;
#77 = EDGE_CURVE ( 'NONE', #110, #210, #58, .T. ) ;
#78 = DIRECTION ( 'NONE',  ( -0.0000000000000000000, -0.0000000000000000000, -1.000000000000000000 ) ) ;
#79 = UNCERTAINTY_MEASURE_WITH_UNIT (LENGTH_MEASURE( 1.000000000000000082E-05 ), #50, 'distance_accuracy_value', 'NONE');
#80 = CARTESIAN_POINT ( 'NONE',  ( 5.300000000000006040, -2.449999999999999734, 2.000000000000000000 ) ) ;
#81 = DATE_AND_TIME ( #42, #44 ) ;
#82 = ADVANCED_FACE ( 'NONE', ( #25 ), #168, .F. ) ;
#83 = VECTOR ( 'NONE', #139, 1000.000000000000000 ) ;
#84 = VERTEX_POINT ( 'NONE', #195 ) ;
#85 = DIRECTION ( 'NONE',  ( 0.0000000000000000000, 0.0000000000000000000, 1.000000000000000000 ) ) ;
#86 = DIRECTION ( 'NONE',  ( -1.000000000000000000, -1.227398685832646557E-16, 0.0000000000000000000 ) ) ;
#87 = CALENDAR_DATE ( 2019, 14, 8 ) ;
#88 = VECTOR ( 'NONE', #235, 1000.000000000000000 ) ;
#89 = ORIENTED_EDGE ( 'NONE', *, *, #153, .F. ) ;
#90 = CC_DESIGN_PERSON_AND_ORGANIZATION_ASSIGNMENT ( #30, #55, ( #158 ) ) ;
#91 = CLOSED_SHELL ( 'NONE', ( #82, #10, #169, #166, #148, #192 ) ) ;
#92 = APPROVAL_ROLE ( '' ) ;
#93 = EDGE_CURVE ( 'NONE', #84, #143, #226, .T. ) ;
#94 = ORIENTED_EDGE ( 'NONE', *, *, #225, .F. ) ;
#95 = ORIENTED_EDGE ( 'NONE', *, *, #68, .F. ) ;
#96 = APPROVAL_DATE_TIME ( #81, #189 ) ;
#97 = CARTESIAN_POINT ( 'NONE',  ( 5.300000000000006040, 2.450000000000000622, 0.0000000000000000000 ) ) ;
#98 = CARTESIAN_POINT ( 'NONE',  ( 5.300000000000006040, -2.449999999999999734, 2.000000000000000000 ) ) ;
#99 = PRODUCT_DEFINITION ( '未知', '', #158, #213 ) ;
#100 = DIRECTION ( 'NONE',  ( 1.000000000000000000, 1.227398685832646557E-16, -0.0000000000000000000 ) ) ;
#101 = DIRECTION ( 'NONE',  ( -1.000000000000000000, -1.227398685832646557E-16, 0.0000000000000000000 ) ) ;
#102 = CARTESIAN_POINT ( 'NONE',  ( -5.299999999999993605, -2.450000000000001066, 2.000000000000000000 ) ) ;
#103 = CARTESIAN_POINT ( 'NONE',  ( 0.0000000000000000000, 0.0000000000000000000, 2.000000000000000000 ) ) ;
#104 = CALENDAR_DATE ( 2019, 14, 8 ) ;
#105 = ORIENTED_EDGE ( 'NONE', *, *, #137, .T. ) ;
#106 = CARTESIAN_POINT ( 'NONE',  ( -5.299999999999993605, -2.450000000000001066, 2.000000000000000000 ) ) ;
#107 = AXIS2_PLACEMENT_3D ( 'NONE', #196, #31, #236 ) ;
#108 = PERSON_AND_ORGANIZATION_ROLE ( 'design_owner' ) ;
#109 = MECHANICAL_CONTEXT ( 'NONE', #52, 'mechanical' ) ;
#110 = VERTEX_POINT ( 'NONE', #102 ) ;
#111 = EDGE_LOOP ( 'NONE', ( #176, #170, #17, #224 ) ) ;
#112 = PERSON ( '未指定', '未指定', '未指定', ('未指定'), ('未指定'), ('未指定') ) ;
#113 = DATE_AND_TIME ( #87, #188 ) ;
#114 = SHAPE_DEFINITION_REPRESENTATION ( #133, #126 ) ;
#115 = CC_DESIGN_PERSON_AND_ORGANIZATION_ASSIGNMENT ( #9, #130, ( #180 ) ) ;
#116 = PERSON_AND_ORGANIZATION ( #112, #6 ) ;
#117 = DIRECTION ( 'NONE',  ( -1.000000000000000000, -1.227398685832646557E-16, 0.0000000000000000000 ) ) ;
#118 = EDGE_CURVE ( 'NONE', #46, #43, #163, .T. ) ;
#119 = PRODUCT_RELATED_PRODUCT_CATEGORY ( 'detail', '', ( #172 ) ) ;
#120 = ORIENTED_EDGE ( 'NONE', *, *, #118, .F. ) ;
#121 = AXIS2_PLACEMENT_3D ( 'NONE', #136, #211, #48 ) ;
#122 = PERSON_AND_ORGANIZATION ( #112, #6 ) ;
#123 = CARTESIAN_POINT ( 'NONE',  ( 5.300000000000006040, -2.449999999999999734, 0.0000000000000000000 ) ) ;
#124 = DIRECTION ( 'NONE',  ( 1.000000000000000000, 0.0000000000000000000, -0.0000000000000000000 ) ) ;
#125 = CC_DESIGN_APPROVAL ( #39, ( #180 ) ) ;
#126 = ADVANCED_BREP_SHAPE_REPRESENTATION ( '14PIN接插件', ( #204, #206 ), #138 ) ;
#127 = APPROVAL_DATE_TIME ( #56, #165 ) ;
#128 = VECTOR ( 'NONE', #217, 1000.000000000000000 ) ;
#129 = CC_DESIGN_PERSON_AND_ORGANIZATION_ASSIGNMENT ( #208, #34, ( #99 ) ) ;
#130 = PERSON_AND_ORGANIZATION_ROLE ( 'classification_officer' ) ;
#131 = LINE ( 'NONE', #229, #233 ) ;
#132 = ORIENTED_EDGE ( 'NONE', *, *, #203, .T. ) ;
#133 = PRODUCT_DEFINITION_SHAPE ( 'NONE', 'NONE',  #99 ) ;
#134 = VECTOR ( 'NONE', #101, 1000.000000000000000 ) ;
#135 = LINE ( 'NONE', #106, #83 ) ;
#136 = CARTESIAN_POINT ( 'NONE',  ( -5.299999999999993605, -2.450000000000001066, 2.000000000000000000 ) ) ;
#137 = EDGE_CURVE ( 'NONE', #37, #46, #16, .T. ) ;
#138 =( GEOMETRIC_REPRESENTATION_CONTEXT ( 3 ) GLOBAL_UNCERTAINTY_ASSIGNED_CONTEXT ( ( #79 ) ) GLOBAL_UNIT_ASSIGNED_CONTEXT ( ( #50, #155, #221 ) ) REPRESENTATION_CONTEXT ( 'NONE', 'WORKASPACE' ) );
#139 = DIRECTION ( 'NONE',  ( -0.0000000000000000000, -1.000000000000000000, -0.0000000000000000000 ) ) ;
#140 = COORDINATED_UNIVERSAL_TIME_OFFSET ( 8, 0, .AHEAD. ) ;
#141 = VECTOR ( 'NONE', #173, 1000.000000000000000 ) ;
#142 = APPROVAL_ROLE ( '' ) ;
#143 = VERTEX_POINT ( 'NONE', #152 ) ;
#144 = AXIS2_PLACEMENT_3D ( 'NONE', #28, #231, #32 ) ;
#145 = VECTOR ( 'NONE', #18, 1000.000000000000000 ) ;
#146 = ORIENTED_EDGE ( 'NONE', *, *, #21, .T. ) ;
#147 = CC_DESIGN_SECURITY_CLASSIFICATION ( #180, ( #158 ) ) ;
#148 = ADVANCED_FACE ( 'NONE', ( #75 ), #237, .T. ) ;
#149 = DIRECTION ( 'NONE',  ( -0.0000000000000000000, -0.0000000000000000000, -1.000000000000000000 ) ) ;
#150 = VECTOR ( 'NONE', #78, 1000.000000000000000 ) ;
#151 = CARTESIAN_POINT ( 'NONE',  ( 5.300000000000006040, -2.449999999999999734, 2.000000000000000000 ) ) ;
#152 = CARTESIAN_POINT ( 'NONE',  ( -5.299999999999993605, 2.449999999999999289, 2.000000000000000000 ) ) ;
#153 = EDGE_CURVE ( 'NONE', #210, #62, #199, .T. ) ;
#154 = LOCAL_TIME ( 11, 22, 57.00000000000000000, #228 ) ;
#155 =( NAMED_UNIT ( * ) PLANE_ANGLE_UNIT ( ) SI_UNIT ( $, .RADIAN. ) );
#156 = FACE_OUTER_BOUND ( 'NONE', #179, .T. ) ;
#157 = DIRECTION ( 'NONE',  ( 0.0000000000000000000, -0.0000000000000000000, 1.000000000000000000 ) ) ;
#158 = PRODUCT_DEFINITION_FORMATION_WITH_SPECIFIED_SOURCE ( '任何', '', #172, .NOT_KNOWN. ) ;
#159 = DATE_TIME_ROLE ( 'creation_date' ) ;
#160 = ORIENTED_EDGE ( 'NONE', *, *, #77, .F. ) ;
#161 = CALENDAR_DATE ( 2019, 14, 8 ) ;
#162 = CC_DESIGN_APPROVAL ( #165, ( #158 ) ) ;
#163 = LINE ( 'NONE', #214, #53 ) ;
#164 = ORIENTED_EDGE ( 'NONE', *, *, #203, .F. ) ;
#165 = APPROVAL ( #201, '未指定' ) ;
#166 = ADVANCED_FACE ( 'NONE', ( #156 ), #65, .F. ) ;
#167 = CARTESIAN_POINT ( 'NONE',  ( 5.300000000000006040, -2.449999999999999734, 0.0000000000000000000 ) ) ;
#168 = PLANE ( 'NONE',  #121 ) ;
#169 = ADVANCED_FACE ( 'NONE', ( #33 ), #12, .F. ) ;
#170 = ORIENTED_EDGE ( 'NONE', *, *, #77, .T. ) ;
#171 = CARTESIAN_POINT ( 'NONE',  ( 5.300000000000006040, -2.449999999999999734, 2.000000000000000000 ) ) ;
#172 = PRODUCT ( '14PIN接插件', '14PIN接插件', '', ( #109 ) ) ;
#173 = DIRECTION ( 'NONE',  ( 0.0000000000000000000, 1.000000000000000000, 0.0000000000000000000 ) ) ;
#174 = APPROVAL_DATE_TIME ( #70, #39 ) ;
#175 = VECTOR ( 'NONE', #86, 1000.000000000000000 ) ;
#176 = ORIENTED_EDGE ( 'NONE', *, *, #225, .T. ) ;
#177 = DIRECTION ( 'NONE',  ( -0.0000000000000000000, -1.000000000000000000, -0.0000000000000000000 ) ) ;
#178 = LINE ( 'NONE', #123, #128 ) ;
#179 = EDGE_LOOP ( 'NONE', ( #105, #95, #181, #132 ) ) ;
#180 = SECURITY_CLASSIFICATION ( '', '', #5 ) ;
#181 = ORIENTED_EDGE ( 'NONE', *, *, #93, .F. ) ;
#182 = PERSON_AND_ORGANIZATION_ROLE ( 'design_supplier' ) ;
#183 = EDGE_CURVE ( 'NONE', #210, #84, #194, .T. ) ;
#184 = LINE ( 'NONE', #63, #150 ) ;
#185 = EDGE_LOOP ( 'NONE', ( #47, #7, #94, #51 ) ) ;
#186 = ORIENTED_EDGE ( 'NONE', *, *, #187, .F. ) ;
#187 = EDGE_CURVE ( 'NONE', #62, #37, #178, .T. ) ;
#188 = LOCAL_TIME ( 11, 22, 57.00000000000000000, #1 ) ;
#189 = APPROVAL ( #35, '未指定' ) ;
#190 = EDGE_LOOP ( 'NONE', ( #76, #89, #160, #146 ) ) ;
#191 = CARTESIAN_POINT ( 'NONE',  ( -5.299999999999993605, 2.449999999999999289, 0.0000000000000000000 ) ) ;
#192 = ADVANCED_FACE ( 'NONE', ( #216 ), #15, .F. ) ;
#193 = PERSON_AND_ORGANIZATION ( #112, #6 ) ;
#194 = LINE ( 'NONE', #13, #141 ) ;
#195 = CARTESIAN_POINT ( 'NONE',  ( 5.300000000000006040, 2.450000000000000622, 2.000000000000000000 ) ) ;
#196 = CARTESIAN_POINT ( 'NONE',  ( 5.300000000000006040, 2.450000000000000622, 2.000000000000000000 ) ) ;
#197 = PERSON_AND_ORGANIZATION ( #112, #6 ) ;
#198 = DIRECTION ( 'NONE',  ( 1.000000000000000000, 0.0000000000000000000, 0.0000000000000000000 ) ) ;
#199 = LINE ( 'NONE', #171, #145 ) ;
#200 = ORIENTED_EDGE ( 'NONE', *, *, #8, .F. ) ;
#201 = APPROVAL_STATUS ( 'not_yet_approved' ) ;
#202 = AXIS2_PLACEMENT_3D ( 'NONE', #98, #227, #117 ) ;
#203 = EDGE_CURVE ( 'NONE', #84, #37, #45, .T. ) ;
#204 = MANIFOLD_SOLID_BREP ( '凸台-拉伸1', #91 ) ;
#205 = LINE ( 'NONE', #26, #72 ) ;
#206 = AXIS2_PLACEMENT_3D ( 'NONE', #220, #67, #198 ) ;
#207 = DIRECTION ( 'NONE',  ( 1.000000000000000000, 1.227398685832646557E-16, -0.0000000000000000000 ) ) ;
#208 = PERSON_AND_ORGANIZATION ( #112, #6 ) ;
#209 = VECTOR ( 'NONE', #100, 1000.000000000000000 ) ;
#210 = VERTEX_POINT ( 'NONE', #29 ) ;
#211 = DIRECTION ( 'NONE',  ( 1.000000000000000000, 0.0000000000000000000, 0.0000000000000000000 ) ) ;
#212 = AXIS2_PLACEMENT_3D ( 'NONE', #80, #230, #85 ) ;
#213 = DESIGN_CONTEXT ( 'detailed design', #20, 'design' ) ;
#214 = CARTESIAN_POINT ( 'NONE',  ( -5.299999999999993605, -2.450000000000001066, 0.0000000000000000000 ) ) ;
#215 = AXIS2_PLACEMENT_3D ( 'NONE', #103, #157, #124 ) ;
#216 = FACE_OUTER_BOUND ( 'NONE', #54, .T. ) ;
#217 = DIRECTION ( 'NONE',  ( 0.0000000000000000000, 1.000000000000000000, 0.0000000000000000000 ) ) ;
#218 = CARTESIAN_POINT ( 'NONE',  ( 5.300000000000006040, 2.450000000000000622, 2.000000000000000000 ) ) ;
#219 = APPROVAL_PERSON_ORGANIZATION ( #197, #39, #92 ) ;
#220 = CARTESIAN_POINT ( 'NONE',  ( 0.0000000000000000000, 0.0000000000000000000, 0.0000000000000000000 ) ) ;
#221 =( NAMED_UNIT ( * ) SI_UNIT ( $, .STERADIAN. ) SOLID_ANGLE_UNIT ( ) );
#222 = CC_DESIGN_PERSON_AND_ORGANIZATION_ASSIGNMENT ( #74, #108, ( #172 ) ) ;
#223 = APPROVAL_PERSON_ORGANIZATION ( #193, #189, #142 ) ;
#224 = ORIENTED_EDGE ( 'NONE', *, *, #93, .T. ) ;
#225 = EDGE_CURVE ( 'NONE', #143, #110, #135, .T. ) ;
#226 = LINE ( 'NONE', #64, #134 ) ;
#227 = DIRECTION ( 'NONE',  ( -1.227398685832646557E-16, 1.000000000000000000, 0.0000000000000000000 ) ) ;
#228 = COORDINATED_UNIVERSAL_TIME_OFFSET ( 8, 0, .AHEAD. ) ;
#229 = CARTESIAN_POINT ( 'NONE',  ( 5.300000000000006040, -2.449999999999999734, 0.0000000000000000000 ) ) ;
#230 = DIRECTION ( 'NONE',  ( -1.000000000000000000, 0.0000000000000000000, 0.0000000000000000000 ) ) ;
#231 = DIRECTION ( 'NONE',  ( 0.0000000000000000000, -0.0000000000000000000, 1.000000000000000000 ) ) ;
#232 = CALENDAR_DATE ( 2019, 14, 8 ) ;
#233 = VECTOR ( 'NONE', #207, 1000.000000000000000 ) ;
#234 = ORIENTED_EDGE ( 'NONE', *, *, #183, .F. ) ;
#235 = DIRECTION ( 'NONE',  ( -0.0000000000000000000, -0.0000000000000000000, -1.000000000000000000 ) ) ;
#236 = DIRECTION ( 'NONE',  ( 1.000000000000000000, 1.227398685832646557E-16, 0.0000000000000000000 ) ) ;
#237 = PLANE ( 'NONE',  #215 ) ;
ENDSEC;
END-ISO-10303-21;
