ISO-10303-21;
HEADER;
FILE_DESCRIPTION((''),'2;1');
FILE_NAME('HTPEBOHATF0A','2019-08-23T',('Administrator'),(''),
'CREO PARAMETRIC BY PTC INC, 2015380','CREO PARAMETRIC BY PTC INC, 2015380','');
FILE_SCHEMA(('CONFIG_CONTROL_DESIGN'));
ENDSEC;
DATA;
#1=DIRECTION('',(7.071067811866E-1,6.830127018921E-1,-1.830127018925E-1));
#2=VECTOR('',#1,1.414213562373E-1);
#3=CARTESIAN_POINT('',(-2.328557648701E1,2.108487690746E1,7.161774919981E1));
#4=LINE('',#3,#2);
#5=CARTESIAN_POINT('',(-2.228557648701E1,2.108487690746E1,7.161774919981E1));
#6=DIRECTION('',(0.E0,9.659258262891E-1,-2.588190451025E-1));
#7=DIRECTION('',(1.E0,1.776356839400E-14,5.684341886081E-14));
#8=AXIS2_PLACEMENT_3D('',#5,#6,#7);
#10=CARTESIAN_POINT('',(-2.228557648701E1,2.118146949009E1,7.159186729530E1));
#11=DIRECTION('',(0.E0,9.659258262891E-1,-2.588190451025E-1));
#12=DIRECTION('',(-1.E0,0.E0,0.E0));
#13=AXIS2_PLACEMENT_3D('',#10,#11,#12);
#15=CARTESIAN_POINT('',(-2.228557648701E1,2.118146949009E1,7.159186729530E1));
#16=DIRECTION('',(0.E0,9.659258262891E-1,-2.588190451025E-1));
#17=DIRECTION('',(1.E0,0.E0,0.E0));
#18=AXIS2_PLACEMENT_3D('',#15,#16,#17);
#20=CARTESIAN_POINT('',(-2.228557648701E1,2.118146949009E1,7.159186729530E1));
#21=DIRECTION('',(0.E0,-9.659258262891E-1,2.588190451025E-1));
#22=DIRECTION('',(-1.E0,0.E0,0.E0));
#23=AXIS2_PLACEMENT_3D('',#20,#21,#22);
#25=CARTESIAN_POINT('',(-2.228557648701E1,2.118146949009E1,7.159186729530E1));
#26=DIRECTION('',(0.E0,-9.659258262891E-1,2.588190451025E-1));
#27=DIRECTION('',(1.E0,0.E0,0.E0));
#28=AXIS2_PLACEMENT_3D('',#25,#26,#27);
#30=DIRECTION('',(-7.071067811865E-1,6.830127018922E-1,-1.830127018924E-1));
#31=VECTOR('',#30,1.414213562373E-1);
#32=CARTESIAN_POINT('',(-2.128557648701E1,2.108487690746E1,7.161774919981E1));
#33=LINE('',#32,#31);
#34=CARTESIAN_POINT('',(-2.228557648701E1,2.108487690746E1,7.161774919981E1));
#35=DIRECTION('',(0.E0,9.659258262891E-1,-2.588190451025E-1));
#36=DIRECTION('',(-1.E0,1.776356839400E-14,5.684341886081E-14));
#37=AXIS2_PLACEMENT_3D('',#34,#35,#36);
#39=DIRECTION('',(0.E0,-9.659258262891E-1,2.588190451026E-1));
#40=VECTOR('',#39,6.E-1);
#41=CARTESIAN_POINT('',(-2.328557648701E1,2.108487690746E1,7.161774919981E1));
#42=LINE('',#41,#40);
#43=DIRECTION('',(0.E0,-9.659258262891E-1,2.588190451026E-1));
#44=VECTOR('',#43,6.E-1);
#45=CARTESIAN_POINT('',(-2.128557648701E1,2.108487690746E1,7.161774919981E1));
#46=LINE('',#45,#44);
#47=DIRECTION('',(7.071067811865E-1,-1.830127018922E-1,-6.830127018922E-1));
#48=VECTOR('',#47,7.071067811866E-1);
#49=CARTESIAN_POINT('',(-1.386557648701E1,2.082884521806E1,7.298044790973E1));
#50=LINE('',#49,#48);
#51=DIRECTION('',(7.071067811865E-1,1.830127018922E-1,6.830127018922E-1));
#52=VECTOR('',#51,7.071067811866E-1);
#53=CARTESIAN_POINT('',(-2.358557648701E1,2.069943569551E1,7.249748499659E1));
#54=LINE('',#53,#52);
#55=DIRECTION('',(-7.071067811866E-1,1.830127018922E-1,6.830127018922E-1));
#56=VECTOR('',#55,7.071067811865E-1);
#57=CARTESIAN_POINT('',(-2.308557648701E1,2.018179760530E1,7.056563334401E1));
#58=LINE('',#57,#56);
#59=DIRECTION('',(-7.071067811866E-1,-1.830127018922E-1,-6.830127018922E-1));
#60=VECTOR('',#59,7.071067811865E-1);
#61=CARTESIAN_POINT('',(-1.336557648701E1,2.031120712786E1,7.104859625716E1));
#62=LINE('',#61,#60);
#63=CARTESIAN_POINT('',(-1.466557648701E1,2.050532141168E1,7.177304062687E1));
#64=DIRECTION('',(0.E0,-9.659258262891E-1,2.588190451025E-1));
#65=DIRECTION('',(1.E0,0.E0,-1.421085471520E-14));
#66=AXIS2_PLACEMENT_3D('',#63,#64,#65);
#68=CARTESIAN_POINT('',(-1.466557648701E1,2.050532141168E1,7.177304062687E1));
#69=DIRECTION('',(0.E0,-9.659258262891E-1,2.588190451025E-1));
#70=DIRECTION('',(-1.E0,0.E0,0.E0));
#71=AXIS2_PLACEMENT_3D('',#68,#69,#70);
#73=CARTESIAN_POINT('',(-1.720557648701E1,2.050532141168E1,7.177304062687E1));
#74=DIRECTION('',(0.E0,-9.659258262891E-1,2.588190451025E-1));
#75=DIRECTION('',(1.E0,0.E0,-1.421085471520E-14));
#76=AXIS2_PLACEMENT_3D('',#73,#74,#75);
#78=CARTESIAN_POINT('',(-1.720557648701E1,2.050532141168E1,7.177304062687E1));
#79=DIRECTION('',(0.E0,-9.659258262891E-1,2.588190451025E-1));
#80=DIRECTION('',(-1.E0,0.E0,0.E0));
#81=AXIS2_PLACEMENT_3D('',#78,#79,#80);
#83=CARTESIAN_POINT('',(-2.228557648701E1,2.050532141168E1,7.177304062687E1));
#84=DIRECTION('',(0.E0,-9.659258262891E-1,2.588190451025E-1));
#85=DIRECTION('',(1.E0,0.E0,-1.421085471520E-14));
#86=AXIS2_PLACEMENT_3D('',#83,#84,#85);
#88=CARTESIAN_POINT('',(-2.228557648701E1,2.050532141168E1,7.177304062687E1));
#89=DIRECTION('',(0.E0,-9.659258262891E-1,2.588190451025E-1));
#90=DIRECTION('',(-1.E0,0.E0,0.E0));
#91=AXIS2_PLACEMENT_3D('',#88,#89,#90);
#93=CARTESIAN_POINT('',(-1.974557648701E1,2.050532141168E1,7.177304062687E1));
#94=DIRECTION('',(0.E0,-9.659258262891E-1,2.588190451025E-1));
#95=DIRECTION('',(1.E0,0.E0,-1.421085471520E-14));
#96=AXIS2_PLACEMENT_3D('',#93,#94,#95);
#98=CARTESIAN_POINT('',(-1.974557648701E1,2.050532141168E1,7.177304062687E1));
#99=DIRECTION('',(0.E0,-9.659258262891E-1,2.588190451025E-1));
#100=DIRECTION('',(-1.E0,0.E0,0.E0));
#101=AXIS2_PLACEMENT_3D('',#98,#99,#100);
#103=DIRECTION('',(0.E0,2.588190451025E-1,9.659258262891E-1));
#104=VECTOR('',#103,1.5E0);
#105=CARTESIAN_POINT('',(-1.336557648701E1,2.031120712786E1,7.104859625716E1));
#106=LINE('',#105,#104);
#107=DIRECTION('',(1.E0,0.E0,0.E0));
#108=VECTOR('',#107,9.22E0);
#109=CARTESIAN_POINT('',(-2.308557648701E1,1.873290886587E1,7.095386191167E1));
#110=LINE('',#109,#108);
#111=DIRECTION('',(7.071067811866E-1,-1.830127018922E-1,-6.830127018922E-1));
#112=VECTOR('',#111,7.071067811865E-1);
#113=CARTESIAN_POINT('',(-2.358557648701E1,1.886231838842E1,7.143682482481E1));
#114=LINE('',#113,#112);
#115=DIRECTION('',(0.E0,-2.588190451025E-1,-9.659258262891E-1));
#116=VECTOR('',#115,1.5E0);
#117=CARTESIAN_POINT('',(-2.358557648701E1,1.925054695608E1,7.288571356424E1));
#118=LINE('',#117,#116);
#119=DIRECTION('',(-7.071067811865E-1,-1.830127018922E-1,-6.830127018922E-1));
#120=VECTOR('',#119,7.071067811866E-1);
#121=CARTESIAN_POINT('',(-2.308557648701E1,1.937995647863E1,7.336867647739E1));
#122=LINE('',#121,#120);
#123=DIRECTION('',(-1.E0,0.E0,0.E0));
#124=VECTOR('',#123,9.22E0);
#125=CARTESIAN_POINT('',(-1.386557648701E1,1.937995647863E1,7.336867647739E1));
#126=LINE('',#125,#124);
#127=DIRECTION('',(-7.071067811865E-1,1.830127018922E-1,6.830127018922E-1));
#128=VECTOR('',#127,7.071067811866E-1);
#129=CARTESIAN_POINT('',(-1.336557648701E1,1.925054695608E1,7.288571356424E1));
#130=LINE('',#129,#128);
#131=DIRECTION('',(0.E0,2.588190451025E-1,9.659258262891E-1));
#132=VECTOR('',#131,1.5E0);
#133=CARTESIAN_POINT('',(-1.336557648701E1,1.886231838842E1,7.143682482481E1));
#134=LINE('',#133,#132);
#135=DIRECTION('',(7.071067811866E-1,1.830127018922E-1,6.830127018922E-1));
#136=VECTOR('',#135,7.071067811865E-1);
#137=CARTESIAN_POINT('',(-1.386557648701E1,1.873290886587E1,7.095386191167E1));
#138=LINE('',#137,#136);
#139=CARTESIAN_POINT('',(-1.466557648701E1,1.905643267225E1,7.216126919453E1));
#140=DIRECTION('',(0.E0,9.659258262891E-1,-2.588190451025E-1));
#141=DIRECTION('',(-1.E0,0.E0,0.E0));
#142=AXIS2_PLACEMENT_3D('',#139,#140,#141);
#144=CARTESIAN_POINT('',(-1.466557648701E1,1.905643267225E1,7.216126919453E1));
#145=DIRECTION('',(0.E0,9.659258262891E-1,-2.588190451025E-1));
#146=DIRECTION('',(1.E0,0.E0,-1.894780628694E-14));
#147=AXIS2_PLACEMENT_3D('',#144,#145,#146);
#149=CARTESIAN_POINT('',(-1.720557648701E1,1.905643267225E1,7.216126919453E1));
#150=DIRECTION('',(0.E0,9.659258262891E-1,-2.588190451025E-1));
#151=DIRECTION('',(-1.E0,0.E0,0.E0));
#152=AXIS2_PLACEMENT_3D('',#149,#150,#151);
#154=CARTESIAN_POINT('',(-1.720557648701E1,1.905643267225E1,7.216126919453E1));
#155=DIRECTION('',(0.E0,9.659258262891E-1,-2.588190451025E-1));
#156=DIRECTION('',(1.E0,0.E0,-1.894780628694E-14));
#157=AXIS2_PLACEMENT_3D('',#154,#155,#156);
#159=CARTESIAN_POINT('',(-2.228557648701E1,1.905643267225E1,7.216126919453E1));
#160=DIRECTION('',(0.E0,9.659258262891E-1,-2.588190451025E-1));
#161=DIRECTION('',(-1.E0,0.E0,0.E0));
#162=AXIS2_PLACEMENT_3D('',#159,#160,#161);
#164=CARTESIAN_POINT('',(-2.228557648701E1,1.905643267225E1,7.216126919453E1));
#165=DIRECTION('',(0.E0,9.659258262891E-1,-2.588190451025E-1));
#166=DIRECTION('',(1.E0,0.E0,-1.894780628694E-14));
#167=AXIS2_PLACEMENT_3D('',#164,#165,#166);
#169=CARTESIAN_POINT('',(-1.974557648701E1,1.905643267225E1,7.216126919453E1));
#170=DIRECTION('',(0.E0,9.659258262891E-1,-2.588190451025E-1));
#171=DIRECTION('',(-1.E0,0.E0,0.E0));
#172=AXIS2_PLACEMENT_3D('',#169,#170,#171);
#174=CARTESIAN_POINT('',(-1.974557648701E1,1.905643267225E1,7.216126919453E1));
#175=DIRECTION('',(0.E0,9.659258262891E-1,-2.588190451025E-1));
#176=DIRECTION('',(1.E0,0.E0,-1.894780628694E-14));
#177=AXIS2_PLACEMENT_3D('',#174,#175,#176);
#179=DIRECTION('',(1.E0,0.E0,0.E0));
#180=VECTOR('',#179,9.22E0);
#181=CARTESIAN_POINT('',(-2.308557648701E1,2.018179760530E1,7.056563334401E1));
#182=LINE('',#181,#180);
#183=DIRECTION('',(0.E0,9.659258262891E-1,-2.588190451025E-1));
#184=VECTOR('',#183,1.5E0);
#185=CARTESIAN_POINT('',(-2.358557648701E1,1.886231838842E1,7.143682482481E1));
#186=LINE('',#185,#184);
#187=DIRECTION('',(0.E0,-9.659258262891E-1,2.588190451025E-1));
#188=VECTOR('',#187,1.5E0);
#189=CARTESIAN_POINT('',(-2.308557648701E1,2.018179760530E1,7.056563334401E1));
#190=LINE('',#189,#188);
#191=DIRECTION('',(0.E0,-2.588190451025E-1,-9.659258262891E-1));
#192=VECTOR('',#191,1.5E0);
#193=CARTESIAN_POINT('',(-2.358557648701E1,2.069943569551E1,7.249748499659E1));
#194=LINE('',#193,#192);
#195=DIRECTION('',(0.E0,9.659258262891E-1,-2.588190451025E-1));
#196=VECTOR('',#195,1.5E0);
#197=CARTESIAN_POINT('',(-2.308557648701E1,1.937995647863E1,7.336867647739E1));
#198=LINE('',#197,#196);
#199=DIRECTION('',(0.E0,-9.659258262891E-1,2.588190451025E-1));
#200=VECTOR('',#199,1.5E0);
#201=CARTESIAN_POINT('',(-2.358557648701E1,2.069943569551E1,7.249748499659E1));
#202=LINE('',#201,#200);
#203=DIRECTION('',(-1.E0,0.E0,0.E0));
#204=VECTOR('',#203,9.22E0);
#205=CARTESIAN_POINT('',(-1.386557648701E1,2.082884521806E1,7.298044790973E1));
#206=LINE('',#205,#204);
#207=DIRECTION('',(0.E0,9.659258262891E-1,-2.588190451025E-1));
#208=VECTOR('',#207,1.5E0);
#209=CARTESIAN_POINT('',(-1.336557648701E1,1.925054695608E1,7.288571356424E1));
#210=LINE('',#209,#208);
#211=DIRECTION('',(1.184237892934E-14,-9.659258262891E-1,2.588190451025E-1));
#212=VECTOR('',#211,1.5E0);
#213=CARTESIAN_POINT('',(-1.386557648701E1,2.082884521806E1,7.298044790973E1));
#214=LINE('',#213,#212);
#215=DIRECTION('',(1.184237892933E-14,9.659258262891E-1,-2.588190451025E-1));
#216=VECTOR('',#215,1.5E0);
#217=CARTESIAN_POINT('',(-1.386557648701E1,1.873290886587E1,7.095386191167E1));
#218=LINE('',#217,#216);
#219=DIRECTION('',(0.E0,-9.659258262891E-1,2.588190451025E-1));
#220=VECTOR('',#219,1.5E0);
#221=CARTESIAN_POINT('',(-1.336557648701E1,2.031120712786E1,7.104859625716E1));
#222=LINE('',#221,#220);
#223=DIRECTION('',(0.E0,-9.659258262891E-1,2.588190451025E-1));
#224=VECTOR('',#223,2.E-1);
#225=CARTESIAN_POINT('',(-1.541557648701E1,1.905643267225E1,7.216126919453E1));
#226=LINE('',#225,#224);
#227=DIRECTION('',(0.E0,-9.659258262891E-1,2.588190451026E-1));
#228=VECTOR('',#227,2.E-1);
#229=CARTESIAN_POINT('',(-1.391557648701E1,1.905643267225E1,7.216126919453E1));
#230=LINE('',#229,#228);
#231=DIRECTION('',(-7.071067811866E-1,-6.830127018922E-1,1.830127018922E-1));
#232=VECTOR('',#231,1.414213562373E-1);
#233=CARTESIAN_POINT('',(-1.391557648701E1,1.886324750699E1,7.221303300355E1));
#234=LINE('',#233,#232);
#235=CARTESIAN_POINT('',(-1.466557648701E1,1.886324750699E1,7.221303300355E1));
#236=DIRECTION('',(0.E0,-9.659258262891E-1,2.588190451025E-1));
#237=DIRECTION('',(-1.E0,0.E0,1.894780628694E-14));
#238=AXIS2_PLACEMENT_3D('',#235,#236,#237);
#240=CARTESIAN_POINT('',(-1.466557648701E1,1.876665492436E1,7.223891490806E1));
#241=DIRECTION('',(0.E0,-9.659258262891E-1,2.588190451025E-1));
#242=DIRECTION('',(1.E0,3.825999346400E-14,1.311771204480E-13));
#243=AXIS2_PLACEMENT_3D('',#240,#241,#242);
#245=CARTESIAN_POINT('',(-1.466557648701E1,1.876665492436E1,7.223891490806E1));
#246=DIRECTION('',(0.E0,-9.659258262891E-1,2.588190451025E-1));
#247=DIRECTION('',(-1.E0,1.093142670400E-14,4.372570681601E-14));
#248=AXIS2_PLACEMENT_3D('',#245,#246,#247);
#250=DIRECTION('',(7.071067811866E-1,-6.830127018922E-1,1.830127018922E-1));
#251=VECTOR('',#250,1.414213562373E-1);
#252=CARTESIAN_POINT('',(-1.541557648701E1,1.886324750699E1,7.221303300355E1));
#253=LINE('',#252,#251);
#254=CARTESIAN_POINT('',(-1.466557648701E1,1.886324750699E1,7.221303300355E1));
#255=DIRECTION('',(0.E0,-9.659258262891E-1,2.588190451025E-1));
#256=DIRECTION('',(1.E0,0.E0,1.894780628694E-14));
#257=AXIS2_PLACEMENT_3D('',#254,#255,#256);
#259=DIRECTION('',(0.E0,-9.659258262891E-1,2.588190451025E-1));
#260=VECTOR('',#259,2.E-1);
#261=CARTESIAN_POINT('',(-1.795557648701E1,1.905643267225E1,7.216126919453E1));
#262=LINE('',#261,#260);
#263=DIRECTION('',(0.E0,-9.659258262891E-1,2.588190451026E-1));
#264=VECTOR('',#263,2.E-1);
#265=CARTESIAN_POINT('',(-1.645557648701E1,1.905643267225E1,7.216126919453E1));
#266=LINE('',#265,#264);
#267=DIRECTION('',(-7.071067811865E-1,-6.830127018922E-1,1.830127018922E-1));
#268=VECTOR('',#267,1.414213562373E-1);
#269=CARTESIAN_POINT('',(-1.645557648701E1,1.886324750699E1,7.221303300355E1));
#270=LINE('',#269,#268);
#271=CARTESIAN_POINT('',(-1.720557648701E1,1.886324750699E1,7.221303300355E1));
#272=DIRECTION('',(0.E0,-9.659258262891E-1,2.588190451025E-1));
#273=DIRECTION('',(-1.E0,0.E0,1.894780628694E-14));
#274=AXIS2_PLACEMENT_3D('',#271,#272,#273);
#276=CARTESIAN_POINT('',(-1.720557648701E1,1.876665492436E1,7.223891490806E1));
#277=DIRECTION('',(0.E0,-9.659258262891E-1,2.588190451025E-1));
#278=DIRECTION('',(1.E0,3.825999346400E-14,1.311771204480E-13));
#279=AXIS2_PLACEMENT_3D('',#276,#277,#278);
#281=CARTESIAN_POINT('',(-1.720557648701E1,1.876665492436E1,7.223891490806E1));
#282=DIRECTION('',(0.E0,-9.659258262891E-1,2.588190451025E-1));
#283=DIRECTION('',(-1.E0,1.093142670400E-14,4.372570681601E-14));
#284=AXIS2_PLACEMENT_3D('',#281,#282,#283);
#286=DIRECTION('',(7.071067811865E-1,-6.830127018922E-1,1.830127018922E-1));
#287=VECTOR('',#286,1.414213562373E-1);
#288=CARTESIAN_POINT('',(-1.795557648701E1,1.886324750699E1,7.221303300355E1));
#289=LINE('',#288,#287);
#290=CARTESIAN_POINT('',(-1.720557648701E1,1.886324750699E1,7.221303300355E1));
#291=DIRECTION('',(0.E0,-9.659258262891E-1,2.588190451025E-1));
#292=DIRECTION('',(1.E0,0.E0,1.894780628694E-14));
#293=AXIS2_PLACEMENT_3D('',#290,#291,#292);
#295=DIRECTION('',(-1.776356839400E-14,-9.659258262891E-1,2.588190451025E-1));
#296=VECTOR('',#295,2.E-1);
#297=CARTESIAN_POINT('',(-2.303557648701E1,1.905643267225E1,7.216126919453E1));
#298=LINE('',#297,#296);
#299=DIRECTION('',(-1.776356839400E-14,-9.659258262891E-1,2.588190451026E-1));
#300=VECTOR('',#299,2.E-1);
#301=CARTESIAN_POINT('',(-2.153557648701E1,1.905643267225E1,7.216126919453E1));
#302=LINE('',#301,#300);
#303=DIRECTION('',(-7.071067811866E-1,-6.830127018922E-1,1.830127018922E-1));
#304=VECTOR('',#303,1.414213562373E-1);
#305=CARTESIAN_POINT('',(-2.153557648701E1,1.886324750699E1,7.221303300355E1));
#306=LINE('',#305,#304);
#307=CARTESIAN_POINT('',(-2.228557648701E1,1.886324750699E1,7.221303300355E1));
#308=DIRECTION('',(0.E0,-9.659258262891E-1,2.588190451025E-1));
#309=DIRECTION('',(-1.E0,0.E0,1.894780628694E-14));
#310=AXIS2_PLACEMENT_3D('',#307,#308,#309);
#312=CARTESIAN_POINT('',(-2.228557648701E1,1.876665492436E1,7.223891490806E1));
#313=DIRECTION('',(0.E0,-9.659258262891E-1,2.588190451025E-1));
#314=DIRECTION('',(1.E0,3.825999346400E-14,1.311771204480E-13));
#315=AXIS2_PLACEMENT_3D('',#312,#313,#314);
#317=CARTESIAN_POINT('',(-2.228557648701E1,1.876665492436E1,7.223891490806E1));
#318=DIRECTION('',(0.E0,-9.659258262891E-1,2.588190451025E-1));
#319=DIRECTION('',(-1.E0,1.093142670400E-14,4.372570681601E-14));
#320=AXIS2_PLACEMENT_3D('',#317,#318,#319);
#322=DIRECTION('',(7.071067811866E-1,-6.830127018922E-1,1.830127018922E-1));
#323=VECTOR('',#322,1.414213562373E-1);
#324=CARTESIAN_POINT('',(-2.303557648701E1,1.886324750699E1,7.221303300355E1));
#325=LINE('',#324,#323);
#326=CARTESIAN_POINT('',(-2.228557648701E1,1.886324750699E1,7.221303300355E1));
#327=DIRECTION('',(0.E0,-9.659258262891E-1,2.588190451025E-1));
#328=DIRECTION('',(1.E0,0.E0,1.894780628694E-14));
#329=AXIS2_PLACEMENT_3D('',#326,#327,#328);
#331=DIRECTION('',(-1.776356839400E-14,-9.659258262891E-1,2.588190451025E-1));
#332=VECTOR('',#331,2.E-1);
#333=CARTESIAN_POINT('',(-2.049557648701E1,1.905643267225E1,7.216126919453E1));
#334=LINE('',#333,#332);
#335=DIRECTION('',(0.E0,-9.659258262891E-1,2.588190451026E-1));
#336=VECTOR('',#335,2.E-1);
#337=CARTESIAN_POINT('',(-1.899557648701E1,1.905643267225E1,7.216126919453E1));
#338=LINE('',#337,#336);
#339=DIRECTION('',(-7.071067811865E-1,-6.830127018922E-1,1.830127018922E-1));
#340=VECTOR('',#339,1.414213562373E-1);
#341=CARTESIAN_POINT('',(-1.899557648701E1,1.886324750699E1,7.221303300355E1));
#342=LINE('',#341,#340);
#343=CARTESIAN_POINT('',(-1.974557648701E1,1.886324750699E1,7.221303300355E1));
#344=DIRECTION('',(0.E0,-9.659258262891E-1,2.588190451025E-1));
#345=DIRECTION('',(-1.E0,0.E0,1.894780628694E-14));
#346=AXIS2_PLACEMENT_3D('',#343,#344,#345);
#348=CARTESIAN_POINT('',(-1.974557648701E1,1.876665492436E1,7.223891490806E1));
#349=DIRECTION('',(0.E0,-9.659258262891E-1,2.588190451025E-1));
#350=DIRECTION('',(1.E0,3.825999346400E-14,1.311771204480E-13));
#351=AXIS2_PLACEMENT_3D('',#348,#349,#350);
#353=CARTESIAN_POINT('',(-1.974557648701E1,1.876665492436E1,7.223891490806E1));
#354=DIRECTION('',(0.E0,-9.659258262891E-1,2.588190451025E-1));
#355=DIRECTION('',(-1.E0,1.093142670400E-14,4.372570681601E-14));
#356=AXIS2_PLACEMENT_3D('',#353,#354,#355);
#358=DIRECTION('',(7.071067811865E-1,-6.830127018922E-1,1.830127018922E-1));
#359=VECTOR('',#358,1.414213562373E-1);
#360=CARTESIAN_POINT('',(-2.049557648701E1,1.886324750699E1,7.221303300355E1));
#361=LINE('',#360,#359);
#362=CARTESIAN_POINT('',(-1.974557648701E1,1.886324750699E1,7.221303300355E1));
#363=DIRECTION('',(0.E0,-9.659258262891E-1,2.588190451025E-1));
#364=DIRECTION('',(1.E0,0.E0,1.894780628694E-14));
#365=AXIS2_PLACEMENT_3D('',#362,#363,#364);
#367=DIRECTION('',(0.E0,-9.659258262891E-1,2.588190451026E-1));
#368=VECTOR('',#367,6.E-1);
#369=CARTESIAN_POINT('',(-1.566557648701E1,2.108487690746E1,7.161774919981E1));
#370=LINE('',#369,#368);
#371=DIRECTION('',(0.E0,-9.659258262891E-1,2.588190451026E-1));
#372=VECTOR('',#371,6.E-1);
#373=CARTESIAN_POINT('',(-1.366557648701E1,2.108487690746E1,7.161774919981E1));
#374=LINE('',#373,#372);
#375=DIRECTION('',(7.071067811865E-1,6.830127018922E-1,-1.830127018925E-1));
#376=VECTOR('',#375,1.414213562373E-1);
#377=CARTESIAN_POINT('',(-1.566557648701E1,2.108487690746E1,7.161774919981E1));
#378=LINE('',#377,#376);
#379=CARTESIAN_POINT('',(-1.466557648701E1,2.108487690746E1,7.161774919981E1));
#380=DIRECTION('',(0.E0,9.659258262891E-1,-2.588190451025E-1));
#381=DIRECTION('',(1.E0,1.776356839400E-14,7.105427357601E-14));
#382=AXIS2_PLACEMENT_3D('',#379,#380,#381);
#384=CARTESIAN_POINT('',(-1.466557648701E1,2.118146949009E1,7.159186729530E1));
#385=DIRECTION('',(0.E0,9.659258262891E-1,-2.588190451025E-1));
#386=DIRECTION('',(-1.E0,0.E0,0.E0));
#387=AXIS2_PLACEMENT_3D('',#384,#385,#386);
#389=CARTESIAN_POINT('',(-1.466557648701E1,2.118146949009E1,7.159186729530E1));
#390=DIRECTION('',(0.E0,9.659258262891E-1,-2.588190451025E-1));
#391=DIRECTION('',(1.E0,0.E0,0.E0));
#392=AXIS2_PLACEMENT_3D('',#389,#390,#391);
#394=CARTESIAN_POINT('',(-1.466557648701E1,2.118146949009E1,7.159186729530E1));
#395=DIRECTION('',(0.E0,-9.659258262891E-1,2.588190451025E-1));
#396=DIRECTION('',(-1.E0,0.E0,0.E0));
#397=AXIS2_PLACEMENT_3D('',#394,#395,#396);
#399=CARTESIAN_POINT('',(-1.466557648701E1,2.118146949009E1,7.159186729530E1));
#400=DIRECTION('',(0.E0,-9.659258262891E-1,2.588190451025E-1));
#401=DIRECTION('',(1.E0,0.E0,0.E0));
#402=AXIS2_PLACEMENT_3D('',#399,#400,#401);
#404=DIRECTION('',(-7.071067811866E-1,6.830127018922E-1,-1.830127018924E-1));
#405=VECTOR('',#404,1.414213562373E-1);
#406=CARTESIAN_POINT('',(-1.366557648701E1,2.108487690746E1,7.161774919981E1));
#407=LINE('',#406,#405);
#408=CARTESIAN_POINT('',(-1.466557648701E1,2.108487690746E1,7.161774919981E1));
#409=DIRECTION('',(0.E0,9.659258262891E-1,-2.588190451025E-1));
#410=DIRECTION('',(-1.E0,1.776356839400E-14,5.684341886081E-14));
#411=AXIS2_PLACEMENT_3D('',#408,#409,#410);
#413=DIRECTION('',(9.848077530122E-1,-1.677312594965E-1,4.494345552753E-2));
#414=VECTOR('',#413,7.107986283200E-1);
#415=CARTESIAN_POINT('',(-1.536557648701E1,2.118146949009E1,7.159186729530E1));
#416=LINE('',#415,#414);
#417=DIRECTION('',(-9.848077530122E-1,-1.677312594965E-1,4.494345552755E-2));
#418=VECTOR('',#417,7.107986283200E-1);
#419=CARTESIAN_POINT('',(-1.396557648701E1,2.118146949009E1,7.159186729530E1));
#420=LINE('',#419,#418);
#421=DIRECTION('',(0.E0,-9.659258262891E-1,2.588190451026E-1));
#422=VECTOR('',#421,6.E-1);
#423=CARTESIAN_POINT('',(-1.820557648701E1,2.108487690746E1,7.161774919981E1));
#424=LINE('',#423,#422);
#425=DIRECTION('',(0.E0,-9.659258262891E-1,2.588190451026E-1));
#426=VECTOR('',#425,6.E-1);
#427=CARTESIAN_POINT('',(-1.620557648701E1,2.108487690746E1,7.161774919981E1));
#428=LINE('',#427,#426);
#429=DIRECTION('',(7.071067811866E-1,6.830127018921E-1,-1.830127018925E-1));
#430=VECTOR('',#429,1.414213562373E-1);
#431=CARTESIAN_POINT('',(-1.820557648701E1,2.108487690746E1,7.161774919981E1));
#432=LINE('',#431,#430);
#433=CARTESIAN_POINT('',(-1.720557648701E1,2.108487690746E1,7.161774919981E1));
#434=DIRECTION('',(0.E0,9.659258262891E-1,-2.588190451025E-1));
#435=DIRECTION('',(1.E0,1.776356839400E-14,5.684341886081E-14));
#436=AXIS2_PLACEMENT_3D('',#433,#434,#435);
#438=CARTESIAN_POINT('',(-1.720557648701E1,2.118146949009E1,7.159186729530E1));
#439=DIRECTION('',(0.E0,9.659258262891E-1,-2.588190451025E-1));
#440=DIRECTION('',(-1.E0,0.E0,0.E0));
#441=AXIS2_PLACEMENT_3D('',#438,#439,#440);
#443=CARTESIAN_POINT('',(-1.720557648701E1,2.118146949009E1,7.159186729530E1));
#444=DIRECTION('',(0.E0,9.659258262891E-1,-2.588190451025E-1));
#445=DIRECTION('',(1.E0,0.E0,0.E0));
#446=AXIS2_PLACEMENT_3D('',#443,#444,#445);
#448=CARTESIAN_POINT('',(-1.720557648701E1,2.118146949009E1,7.159186729530E1));
#449=DIRECTION('',(0.E0,-9.659258262891E-1,2.588190451025E-1));
#450=DIRECTION('',(-1.E0,0.E0,0.E0));
#451=AXIS2_PLACEMENT_3D('',#448,#449,#450);
#453=CARTESIAN_POINT('',(-1.720557648701E1,2.118146949009E1,7.159186729530E1));
#454=DIRECTION('',(0.E0,-9.659258262891E-1,2.588190451025E-1));
#455=DIRECTION('',(1.E0,0.E0,0.E0));
#456=AXIS2_PLACEMENT_3D('',#453,#454,#455);
#458=DIRECTION('',(-7.071067811865E-1,6.830127018922E-1,-1.830127018924E-1));
#459=VECTOR('',#458,1.414213562373E-1);
#460=CARTESIAN_POINT('',(-1.620557648701E1,2.108487690746E1,7.161774919981E1));
#461=LINE('',#460,#459);
#462=CARTESIAN_POINT('',(-1.720557648701E1,2.108487690746E1,7.161774919981E1));
#463=DIRECTION('',(0.E0,9.659258262891E-1,-2.588190451025E-1));
#464=DIRECTION('',(-1.E0,1.776356839400E-14,5.684341886081E-14));
#465=AXIS2_PLACEMENT_3D('',#462,#463,#464);
#467=DIRECTION('',(9.848077530122E-1,-1.677312594965E-1,4.494345552753E-2));
#468=VECTOR('',#467,7.107986283200E-1);
#469=CARTESIAN_POINT('',(-1.790557648701E1,2.118146949009E1,7.159186729530E1));
#470=LINE('',#469,#468);
#471=DIRECTION('',(-9.848077530122E-1,-1.677312594965E-1,4.494345552755E-2));
#472=VECTOR('',#471,7.107986283200E-1);
#473=CARTESIAN_POINT('',(-1.650557648701E1,2.118146949009E1,7.159186729530E1));
#474=LINE('',#473,#472);
#475=DIRECTION('',(0.E0,-9.659258262891E-1,2.588190451026E-1));
#476=VECTOR('',#475,6.E-1);
#477=CARTESIAN_POINT('',(-2.074557648701E1,2.108487690746E1,7.161774919981E1));
#478=LINE('',#477,#476);
#479=DIRECTION('',(0.E0,-9.659258262891E-1,2.588190451026E-1));
#480=VECTOR('',#479,6.E-1);
#481=CARTESIAN_POINT('',(-1.874557648701E1,2.108487690746E1,7.161774919981E1));
#482=LINE('',#481,#480);
#483=DIRECTION('',(7.071067811866E-1,6.830127018921E-1,-1.830127018925E-1));
#484=VECTOR('',#483,1.414213562373E-1);
#485=CARTESIAN_POINT('',(-2.074557648701E1,2.108487690746E1,7.161774919981E1));
#486=LINE('',#485,#484);
#487=CARTESIAN_POINT('',(-1.974557648701E1,2.108487690746E1,7.161774919981E1));
#488=DIRECTION('',(0.E0,9.659258262891E-1,-2.588190451025E-1));
#489=DIRECTION('',(1.E0,1.421085471520E-14,5.684341886081E-14));
#490=AXIS2_PLACEMENT_3D('',#487,#488,#489);
#492=CARTESIAN_POINT('',(-1.974557648701E1,2.118146949009E1,7.159186729530E1));
#493=DIRECTION('',(0.E0,9.659258262891E-1,-2.588190451025E-1));
#494=DIRECTION('',(-1.E0,0.E0,0.E0));
#495=AXIS2_PLACEMENT_3D('',#492,#493,#494);
#497=CARTESIAN_POINT('',(-1.974557648701E1,2.118146949009E1,7.159186729530E1));
#498=DIRECTION('',(0.E0,9.659258262891E-1,-2.588190451025E-1));
#499=DIRECTION('',(1.E0,0.E0,0.E0));
#500=AXIS2_PLACEMENT_3D('',#497,#498,#499);
#502=CARTESIAN_POINT('',(-1.974557648701E1,2.118146949009E1,7.159186729530E1));
#503=DIRECTION('',(0.E0,-9.659258262891E-1,2.588190451025E-1));
#504=DIRECTION('',(-1.E0,0.E0,0.E0));
#505=AXIS2_PLACEMENT_3D('',#502,#503,#504);
#507=CARTESIAN_POINT('',(-1.974557648701E1,2.118146949009E1,7.159186729530E1));
#508=DIRECTION('',(0.E0,-9.659258262891E-1,2.588190451025E-1));
#509=DIRECTION('',(1.E0,0.E0,0.E0));
#510=AXIS2_PLACEMENT_3D('',#507,#508,#509);
#512=DIRECTION('',(-7.071067811866E-1,6.830127018922E-1,-1.830127018924E-1));
#513=VECTOR('',#512,1.414213562373E-1);
#514=CARTESIAN_POINT('',(-1.874557648701E1,2.108487690746E1,7.161774919981E1));
#515=LINE('',#514,#513);
#516=CARTESIAN_POINT('',(-1.974557648701E1,2.108487690746E1,7.161774919981E1));
#517=DIRECTION('',(0.E0,9.659258262891E-1,-2.588190451025E-1));
#518=DIRECTION('',(-1.E0,1.776356839400E-14,5.684341886081E-14));
#519=AXIS2_PLACEMENT_3D('',#516,#517,#518);
#521=DIRECTION('',(9.848077530122E-1,-1.677312594965E-1,4.494345552753E-2));
#522=VECTOR('',#521,7.107986283200E-1);
#523=CARTESIAN_POINT('',(-2.044557648701E1,2.118146949009E1,7.159186729530E1));
#524=LINE('',#523,#522);
#525=DIRECTION('',(-9.848077530122E-1,-1.677312594965E-1,4.494345552755E-2));
#526=VECTOR('',#525,7.107986283200E-1);
#527=CARTESIAN_POINT('',(-1.904557648701E1,2.118146949009E1,7.159186729530E1));
#528=LINE('',#527,#526);
#529=DIRECTION('',(9.848077530122E-1,-1.677312594965E-1,4.494345552753E-2));
#530=VECTOR('',#529,7.107986283200E-1);
#531=CARTESIAN_POINT('',(-2.298557648701E1,2.118146949009E1,7.159186729530E1));
#532=LINE('',#531,#530);
#533=DIRECTION('',(-9.848077530122E-1,-1.677312594965E-1,4.494345552755E-2));
#534=VECTOR('',#533,7.107986283200E-1);
#535=CARTESIAN_POINT('',(-2.158557648701E1,2.118146949009E1,7.159186729530E1));
#536=LINE('',#535,#534);
#537=CARTESIAN_POINT('',(-1.645557648701E1,1.905643267225E1,7.216126919453E1));
#538=CARTESIAN_POINT('',(-1.795557648701E1,1.905643267225E1,7.216126919453E1));
#539=VERTEX_POINT('',#537);
#540=VERTEX_POINT('',#538);
#541=CARTESIAN_POINT('',(-2.358557648701E1,2.069943569551E1,7.249748499659E1));
#542=CARTESIAN_POINT('',(-2.358557648701E1,2.031120712786E1,7.104859625716E1));
#543=VERTEX_POINT('',#541);
#544=VERTEX_POINT('',#542);
#545=CARTESIAN_POINT('',(-1.336557648701E1,1.925054695608E1,7.288571356424E1));
#546=CARTESIAN_POINT('',(-1.386557648701E1,1.937995647863E1,7.336867647739E1));
#547=VERTEX_POINT('',#545);
#548=VERTEX_POINT('',#546);
#549=CARTESIAN_POINT('',(-2.303557648701E1,1.886324750699E1,7.221303300355E1));
#550=CARTESIAN_POINT('',(-2.293557648701E1,1.876665492436E1,7.223891490806E1));
#551=VERTEX_POINT('',#549);
#552=VERTEX_POINT('',#550);
#553=CARTESIAN_POINT('',(-1.366557648701E1,2.108487690746E1,7.161774919981E1));
#554=CARTESIAN_POINT('',(-1.366557648701E1,2.050532141168E1,7.177304062687E1));
#555=VERTEX_POINT('',#553);
#556=VERTEX_POINT('',#554);
#557=CARTESIAN_POINT('',(-2.298557648701E1,2.118146949009E1,7.159186729530E1));
#558=CARTESIAN_POINT('',(-2.228557648701E1,2.106224634091E1,7.162381304184E1));
#559=VERTEX_POINT('',#557);
#560=VERTEX_POINT('',#558);
#561=CARTESIAN_POINT('',(-1.884557648701E1,2.118146949009E1,7.159186729530E1));
#562=CARTESIAN_POINT('',(-2.064557648701E1,2.118146949009E1,7.159186729530E1));
#563=VERTEX_POINT('',#561);
#564=VERTEX_POINT('',#562);
#565=CARTESIAN_POINT('',(-2.049557648701E1,1.905643267225E1,7.216126919453E1));
#566=CARTESIAN_POINT('',(-2.049557648701E1,1.886324750699E1,7.221303300355E1));
#567=VERTEX_POINT('',#565);
#568=VERTEX_POINT('',#566);
#569=CARTESIAN_POINT('',(-1.541557648701E1,1.905643267225E1,7.216126919453E1));
#570=CARTESIAN_POINT('',(-1.391557648701E1,1.905643267225E1,7.216126919453E1));
#571=VERTEX_POINT('',#569);
#572=VERTEX_POINT('',#570);
#573=CARTESIAN_POINT('',(-2.308557648701E1,1.873290886587E1,7.095386191167E1));
#574=CARTESIAN_POINT('',(-1.386557648701E1,1.873290886587E1,7.095386191167E1));
#575=VERTEX_POINT('',#573);
#576=VERTEX_POINT('',#574);
#577=CARTESIAN_POINT('',(-2.158557648701E1,2.118146949009E1,7.159186729530E1));
#578=VERTEX_POINT('',#577);
#579=CARTESIAN_POINT('',(-1.820557648701E1,2.108487690746E1,7.161774919981E1));
#580=CARTESIAN_POINT('',(-1.620557648701E1,2.108487690746E1,7.161774919981E1));
#581=VERTEX_POINT('',#579);
#582=VERTEX_POINT('',#580);
#583=CARTESIAN_POINT('',(-2.328557648701E1,2.108487690746E1,7.161774919981E1));
#584=CARTESIAN_POINT('',(-2.328557648701E1,2.050532141168E1,7.177304062687E1));
#585=VERTEX_POINT('',#583);
#586=VERTEX_POINT('',#584);
#587=CARTESIAN_POINT('',(-1.376557648701E1,2.118146949009E1,7.159186729530E1));
#588=CARTESIAN_POINT('',(-1.556557648701E1,2.118146949009E1,7.159186729530E1));
#589=VERTEX_POINT('',#587);
#590=VERTEX_POINT('',#588);
#591=CARTESIAN_POINT('',(-1.874557648701E1,2.108487690746E1,7.161774919981E1));
#592=CARTESIAN_POINT('',(-2.074557648701E1,2.108487690746E1,7.161774919981E1));
#593=VERTEX_POINT('',#591);
#594=VERTEX_POINT('',#592);
#595=CARTESIAN_POINT('',(-2.303557648701E1,1.905643267225E1,7.216126919453E1));
#596=CARTESIAN_POINT('',(-2.153557648701E1,1.905643267225E1,7.216126919453E1));
#597=VERTEX_POINT('',#595);
#598=VERTEX_POINT('',#596);
#599=CARTESIAN_POINT('',(-1.899557648701E1,1.886324750699E1,7.221303300355E1));
#600=VERTEX_POINT('',#599);
#601=CARTESIAN_POINT('',(-2.138557648701E1,2.118146949009E1,7.159186729530E1));
#602=CARTESIAN_POINT('',(-2.318557648701E1,2.118146949009E1,7.159186729530E1));
#603=VERTEX_POINT('',#601);
#604=VERTEX_POINT('',#602);
#605=CARTESIAN_POINT('',(-1.899557648701E1,1.905643267225E1,7.216126919453E1));
#606=VERTEX_POINT('',#605);
#607=CARTESIAN_POINT('',(-1.531557648701E1,1.876665492436E1,7.223891490806E1));
#608=CARTESIAN_POINT('',(-1.401557648701E1,1.876665492436E1,7.223891490806E1));
#609=VERTEX_POINT('',#607);
#610=VERTEX_POINT('',#608);
#611=CARTESIAN_POINT('',(-1.566557648701E1,2.108487690746E1,7.161774919981E1));
#612=VERTEX_POINT('',#611);
#613=CARTESIAN_POINT('',(-1.909557648701E1,1.876665492436E1,7.223891490806E1));
#614=VERTEX_POINT('',#613);
#615=CARTESIAN_POINT('',(-2.039557648701E1,1.876665492436E1,7.223891490806E1));
#616=VERTEX_POINT('',#615);
#617=CARTESIAN_POINT('',(-1.645557648701E1,1.886324750699E1,7.221303300355E1));
#618=CARTESIAN_POINT('',(-1.795557648701E1,1.886324750699E1,7.221303300355E1));
#619=VERTEX_POINT('',#617);
#620=VERTEX_POINT('',#618);
#621=CARTESIAN_POINT('',(-1.336557648701E1,2.031120712786E1,7.104859625716E1));
#622=CARTESIAN_POINT('',(-1.336557648701E1,1.886231838842E1,7.143682482481E1));
#623=VERTEX_POINT('',#621);
#624=VERTEX_POINT('',#622);
#625=CARTESIAN_POINT('',(-1.391557648701E1,1.886324750699E1,7.221303300355E1));
#626=CARTESIAN_POINT('',(-1.541557648701E1,1.886324750699E1,7.221303300355E1));
#627=VERTEX_POINT('',#625);
#628=VERTEX_POINT('',#626);
#629=CARTESIAN_POINT('',(-1.336557648701E1,2.069943569551E1,7.249748499659E1));
#630=VERTEX_POINT('',#629);
#631=CARTESIAN_POINT('',(-1.386557648701E1,2.082884521806E1,7.298044790973E1));
#632=CARTESIAN_POINT('',(-2.308557648701E1,2.082884521806E1,7.298044790973E1));
#633=VERTEX_POINT('',#631);
#634=VERTEX_POINT('',#632);
#635=CARTESIAN_POINT('',(-2.308557648701E1,1.937995647863E1,7.336867647739E1));
#636=VERTEX_POINT('',#635);
#637=CARTESIAN_POINT('',(-1.790557648701E1,2.118146949009E1,7.159186729530E1));
#638=CARTESIAN_POINT('',(-1.720557648701E1,2.106224634091E1,7.162381304184E1));
#639=VERTEX_POINT('',#637);
#640=VERTEX_POINT('',#638);
#641=CARTESIAN_POINT('',(-2.358557648701E1,1.886231838842E1,7.143682482481E1));
#642=VERTEX_POINT('',#641);
#643=CARTESIAN_POINT('',(-2.308557648701E1,2.018179760530E1,7.056563334401E1));
#644=VERTEX_POINT('',#643);
#645=CARTESIAN_POINT('',(-1.536557648701E1,2.118146949009E1,7.159186729530E1));
#646=CARTESIAN_POINT('',(-1.396557648701E1,2.118146949009E1,7.159186729530E1));
#647=VERTEX_POINT('',#645);
#648=VERTEX_POINT('',#646);
#649=CARTESIAN_POINT('',(-1.785557648701E1,1.876665492436E1,7.223891490806E1));
#650=VERTEX_POINT('',#649);
#651=CARTESIAN_POINT('',(-1.386557648701E1,2.018179760530E1,7.056563334401E1));
#652=VERTEX_POINT('',#651);
#653=CARTESIAN_POINT('',(-2.358557648701E1,1.925054695608E1,7.288571356424E1));
#654=VERTEX_POINT('',#653);
#655=CARTESIAN_POINT('',(-1.466557648701E1,2.106224634091E1,7.162381304184E1));
#656=VERTEX_POINT('',#655);
#657=CARTESIAN_POINT('',(-2.153557648701E1,1.886324750699E1,7.221303300355E1));
#658=VERTEX_POINT('',#657);
#659=CARTESIAN_POINT('',(-2.074557648701E1,2.050532141168E1,7.177304062687E1));
#660=CARTESIAN_POINT('',(-1.874557648701E1,2.050532141168E1,7.177304062687E1));
#661=VERTEX_POINT('',#659);
#662=VERTEX_POINT('',#660);
#663=CARTESIAN_POINT('',(-1.650557648701E1,2.118146949009E1,7.159186729530E1));
#664=VERTEX_POINT('',#663);
#665=CARTESIAN_POINT('',(-2.128557648701E1,2.108487690746E1,7.161774919981E1));
#666=VERTEX_POINT('',#665);
#667=CARTESIAN_POINT('',(-2.163557648701E1,1.876665492436E1,7.223891490806E1));
#668=VERTEX_POINT('',#667);
#669=CARTESIAN_POINT('',(-1.820557648701E1,2.050532141168E1,7.177304062687E1));
#670=VERTEX_POINT('',#669);
#671=CARTESIAN_POINT('',(-2.128557648701E1,2.050532141168E1,7.177304062687E1));
#672=VERTEX_POINT('',#671);
#673=CARTESIAN_POINT('',(-1.566557648701E1,2.050532141168E1,7.177304062687E1));
#674=VERTEX_POINT('',#673);
#675=CARTESIAN_POINT('',(-1.810557648701E1,2.118146949009E1,7.159186729530E1));
#676=CARTESIAN_POINT('',(-1.630557648701E1,2.118146949009E1,7.159186729530E1));
#677=VERTEX_POINT('',#675);
#678=VERTEX_POINT('',#676);
#679=CARTESIAN_POINT('',(-2.044557648701E1,2.118146949009E1,7.159186729530E1));
#680=CARTESIAN_POINT('',(-1.904557648701E1,2.118146949009E1,7.159186729530E1));
#681=VERTEX_POINT('',#679);
#682=VERTEX_POINT('',#680);
#683=CARTESIAN_POINT('',(-1.974557648701E1,2.106224634091E1,7.162381304184E1));
#684=VERTEX_POINT('',#683);
#685=CARTESIAN_POINT('',(-1.655557648701E1,1.876665492436E1,7.223891490806E1));
#686=VERTEX_POINT('',#685);
#687=CARTESIAN_POINT('',(-1.620557648701E1,2.050532141168E1,7.177304062687E1));
#688=VERTEX_POINT('',#687);
#689=CARTESIAN_POINT('',(-2.228557648701E1,2.113317319877E1,7.160480824756E1));
#690=DIRECTION('',(0.E0,-9.659258262891E-1,2.588190451025E-1));
#691=DIRECTION('',(-1.E0,0.E0,0.E0));
#692=AXIS2_PLACEMENT_3D('',#689,#690,#691);
#693=CONICAL_SURFACE('',#692,9.5E-1,4.5E1);
#695=ORIENTED_EDGE('',*,*,#694,.T.);
#697=ORIENTED_EDGE('',*,*,#696,.F.);
#699=ORIENTED_EDGE('',*,*,#698,.F.);
#701=ORIENTED_EDGE('',*,*,#700,.T.);
#702=EDGE_LOOP('',(#695,#697,#699,#701));
#703=FACE_OUTER_BOUND('',#702,.F.);
#704=ADVANCED_FACE('',(#703),#693,.T.);
#705=CARTESIAN_POINT('',(-2.328557648701E1,2.118146949009E1,7.159186729530E1));
#706=DIRECTION('',(0.E0,-9.659258262891E-1,2.588190451025E-1));
#707=DIRECTION('',(-1.E0,0.E0,0.E0));
#708=AXIS2_PLACEMENT_3D('',#705,#706,#707);
#709=PLANE('',#708);
#711=ORIENTED_EDGE('',*,*,#710,.F.);
#712=ORIENTED_EDGE('',*,*,#694,.F.);
#713=EDGE_LOOP('',(#711,#712));
#714=FACE_OUTER_BOUND('',#713,.F.);
#716=ORIENTED_EDGE('',*,*,#715,.F.);
#718=ORIENTED_EDGE('',*,*,#717,.F.);
#719=EDGE_LOOP('',(#716,#718));
#720=FACE_BOUND('',#719,.F.);
#721=ADVANCED_FACE('',(#714,#720),#709,.F.);
#722=CARTESIAN_POINT('',(-2.228557648701E1,2.113317319877E1,7.160480824756E1));
#723=DIRECTION('',(0.E0,-9.659258262891E-1,2.588190451025E-1));
#724=DIRECTION('',(-1.E0,0.E0,0.E0));
#725=AXIS2_PLACEMENT_3D('',#722,#723,#724);
#726=CONICAL_SURFACE('',#725,9.5E-1,4.5E1);
#727=ORIENTED_EDGE('',*,*,#700,.F.);
#729=ORIENTED_EDGE('',*,*,#728,.F.);
#730=ORIENTED_EDGE('',*,*,#696,.T.);
#731=ORIENTED_EDGE('',*,*,#710,.T.);
#732=EDGE_LOOP('',(#727,#729,#730,#731));
#733=FACE_OUTER_BOUND('',#732,.F.);
#734=ADVANCED_FACE('',(#733),#726,.T.);
#735=CARTESIAN_POINT('',(-2.228557648701E1,2.106224634091E1,7.162381304184E1));
#736=DIRECTION('',(0.E0,9.659258262891E-1,-2.588190451025E-1));
#737=DIRECTION('',(1.E0,0.E0,0.E0));
#738=AXIS2_PLACEMENT_3D('',#735,#736,#737);
#739=CYLINDRICAL_SURFACE('',#738,1.E0);
#741=ORIENTED_EDGE('',*,*,#740,.F.);
#742=ORIENTED_EDGE('',*,*,#728,.T.);
#744=ORIENTED_EDGE('',*,*,#743,.T.);
#746=ORIENTED_EDGE('',*,*,#745,.T.);
#747=EDGE_LOOP('',(#741,#742,#744,#746));
#748=FACE_OUTER_BOUND('',#747,.F.);
#749=ADVANCED_FACE('',(#748),#739,.T.);
#750=CARTESIAN_POINT('',(-2.228557648701E1,2.106224634091E1,7.162381304184E1));
#751=DIRECTION('',(0.E0,9.659258262891E-1,-2.588190451025E-1));
#752=DIRECTION('',(1.E0,0.E0,0.E0));
#753=AXIS2_PLACEMENT_3D('',#750,#751,#752);
#754=CYLINDRICAL_SURFACE('',#753,1.E0);
#756=ORIENTED_EDGE('',*,*,#755,.T.);
#757=ORIENTED_EDGE('',*,*,#743,.F.);
#758=ORIENTED_EDGE('',*,*,#698,.T.);
#759=ORIENTED_EDGE('',*,*,#740,.T.);
#760=EDGE_LOOP('',(#756,#757,#758,#759));
#761=FACE_OUTER_BOUND('',#760,.F.);
#762=ADVANCED_FACE('',(#761),#754,.T.);
#763=CARTESIAN_POINT('',(-1.847557648701E1,2.050532141168E1,7.177304062687E1));
#764=DIRECTION('',(0.E0,9.659258262891E-1,-2.588190451025E-1));
#765=DIRECTION('',(1.E0,0.E0,0.E0));
#766=AXIS2_PLACEMENT_3D('',#763,#764,#765);
#767=PLANE('',#766);
#769=ORIENTED_EDGE('',*,*,#768,.T.);
#771=ORIENTED_EDGE('',*,*,#770,.F.);
#773=ORIENTED_EDGE('',*,*,#772,.T.);
#775=ORIENTED_EDGE('',*,*,#774,.F.);
#777=ORIENTED_EDGE('',*,*,#776,.T.);
#779=ORIENTED_EDGE('',*,*,#778,.F.);
#781=ORIENTED_EDGE('',*,*,#780,.T.);
#783=ORIENTED_EDGE('',*,*,#782,.F.);
#784=EDGE_LOOP('',(#769,#771,#773,#775,#777,#779,#781,#783));
#785=FACE_OUTER_BOUND('',#784,.F.);
#787=ORIENTED_EDGE('',*,*,#786,.F.);
#789=ORIENTED_EDGE('',*,*,#788,.F.);
#790=EDGE_LOOP('',(#787,#789));
#791=FACE_BOUND('',#790,.F.);
#793=ORIENTED_EDGE('',*,*,#792,.F.);
#795=ORIENTED_EDGE('',*,*,#794,.F.);
#796=EDGE_LOOP('',(#793,#795));
#797=FACE_BOUND('',#796,.F.);
#798=ORIENTED_EDGE('',*,*,#745,.F.);
#799=ORIENTED_EDGE('',*,*,#755,.F.);
#800=EDGE_LOOP('',(#798,#799));
#801=FACE_BOUND('',#800,.F.);
#803=ORIENTED_EDGE('',*,*,#802,.F.);
#805=ORIENTED_EDGE('',*,*,#804,.F.);
#806=EDGE_LOOP('',(#803,#805));
#807=FACE_BOUND('',#806,.F.);
#808=ADVANCED_FACE('',(#785,#791,#797,#801,#807),#767,.T.);
#809=CARTESIAN_POINT('',(-1.336557648701E1,2.082884521806E1,7.298044790973E1));
#810=DIRECTION('',(-1.E0,0.E0,0.E0));
#811=DIRECTION('',(0.E0,9.659258262891E-1,-2.588190451025E-1));
#812=AXIS2_PLACEMENT_3D('',#809,#810,#811);
#813=PLANE('',#812);
#815=ORIENTED_EDGE('',*,*,#814,.T.);
#817=ORIENTED_EDGE('',*,*,#816,.T.);
#818=ORIENTED_EDGE('',*,*,#768,.F.);
#820=ORIENTED_EDGE('',*,*,#819,.T.);
#821=EDGE_LOOP('',(#815,#817,#818,#820));
#822=FACE_OUTER_BOUND('',#821,.F.);
#823=ADVANCED_FACE('',(#822),#813,.F.);
#824=CARTESIAN_POINT('',(-1.847557648701E1,1.905643267225E1,7.216126919453E1));
#825=DIRECTION('',(0.E0,9.659258262891E-1,-2.588190451025E-1));
#826=DIRECTION('',(1.E0,0.E0,0.E0));
#827=AXIS2_PLACEMENT_3D('',#824,#825,#826);
#828=PLANE('',#827);
#830=ORIENTED_EDGE('',*,*,#829,.F.);
#832=ORIENTED_EDGE('',*,*,#831,.F.);
#834=ORIENTED_EDGE('',*,*,#833,.F.);
#836=ORIENTED_EDGE('',*,*,#835,.F.);
#838=ORIENTED_EDGE('',*,*,#837,.F.);
#840=ORIENTED_EDGE('',*,*,#839,.F.);
#841=ORIENTED_EDGE('',*,*,#814,.F.);
#843=ORIENTED_EDGE('',*,*,#842,.F.);
#844=EDGE_LOOP('',(#830,#832,#834,#836,#838,#840,#841,#843));
#845=FACE_OUTER_BOUND('',#844,.F.);
#847=ORIENTED_EDGE('',*,*,#846,.F.);
#849=ORIENTED_EDGE('',*,*,#848,.F.);
#850=EDGE_LOOP('',(#847,#849));
#851=FACE_BOUND('',#850,.F.);
#853=ORIENTED_EDGE('',*,*,#852,.F.);
#855=ORIENTED_EDGE('',*,*,#854,.F.);
#856=EDGE_LOOP('',(#853,#855));
#857=FACE_BOUND('',#856,.F.);
#859=ORIENTED_EDGE('',*,*,#858,.F.);
#861=ORIENTED_EDGE('',*,*,#860,.F.);
#862=EDGE_LOOP('',(#859,#861));
#863=FACE_BOUND('',#862,.F.);
#865=ORIENTED_EDGE('',*,*,#864,.F.);
#867=ORIENTED_EDGE('',*,*,#866,.F.);
#868=EDGE_LOOP('',(#865,#867));
#869=FACE_BOUND('',#868,.F.);
#870=ADVANCED_FACE('',(#845,#851,#857,#863,#869),#828,.F.);
#871=CARTESIAN_POINT('',(-1.336557648701E1,2.018179760530E1,7.056563334401E1));
#872=DIRECTION('',(0.E0,2.588190451025E-1,9.659258262891E-1));
#873=DIRECTION('',(1.E0,0.E0,0.E0));
#874=AXIS2_PLACEMENT_3D('',#871,#872,#873);
#875=PLANE('',#874);
#876=ORIENTED_EDGE('',*,*,#780,.F.);
#878=ORIENTED_EDGE('',*,*,#877,.T.);
#879=ORIENTED_EDGE('',*,*,#829,.T.);
#881=ORIENTED_EDGE('',*,*,#880,.T.);
#882=EDGE_LOOP('',(#876,#878,#879,#881));
#883=FACE_OUTER_BOUND('',#882,.F.);
#884=ADVANCED_FACE('',(#883),#875,.F.);
#885=CARTESIAN_POINT('',(-2.358557648701E1,2.031120712786E1,7.104859625716E1));
#886=DIRECTION('',(7.071067811865E-1,1.830127018922E-1,6.830127018922E-1));
#887=DIRECTION('',(0.E0,-9.659258262891E-1,2.588190451025E-1));
#888=AXIS2_PLACEMENT_3D('',#885,#886,#887);
#889=PLANE('',#888);
#890=ORIENTED_EDGE('',*,*,#778,.T.);
#892=ORIENTED_EDGE('',*,*,#891,.F.);
#893=ORIENTED_EDGE('',*,*,#831,.T.);
#894=ORIENTED_EDGE('',*,*,#877,.F.);
#895=EDGE_LOOP('',(#890,#892,#893,#894));
#896=FACE_OUTER_BOUND('',#895,.F.);
#897=ADVANCED_FACE('',(#896),#889,.F.);
#898=CARTESIAN_POINT('',(-2.358557648701E1,2.082884521806E1,7.298044790973E1));
#899=DIRECTION('',(1.E0,0.E0,0.E0));
#900=DIRECTION('',(0.E0,-9.659258262891E-1,2.588190451025E-1));
#901=AXIS2_PLACEMENT_3D('',#898,#899,#900);
#902=PLANE('',#901);
#903=ORIENTED_EDGE('',*,*,#776,.F.);
#905=ORIENTED_EDGE('',*,*,#904,.T.);
#906=ORIENTED_EDGE('',*,*,#833,.T.);
#907=ORIENTED_EDGE('',*,*,#891,.T.);
#908=EDGE_LOOP('',(#903,#905,#906,#907));
#909=FACE_OUTER_BOUND('',#908,.F.);
#910=ADVANCED_FACE('',(#909),#902,.F.);
#911=CARTESIAN_POINT('',(-2.308557648701E1,2.082884521806E1,7.298044790973E1));
#912=DIRECTION('',(7.071067811865E-1,-1.830127018922E-1,-6.830127018922E-1));
#913=DIRECTION('',(0.E0,-9.659258262891E-1,2.588190451025E-1));
#914=AXIS2_PLACEMENT_3D('',#911,#912,#913);
#915=PLANE('',#914);
#916=ORIENTED_EDGE('',*,*,#774,.T.);
#918=ORIENTED_EDGE('',*,*,#917,.F.);
#919=ORIENTED_EDGE('',*,*,#835,.T.);
#920=ORIENTED_EDGE('',*,*,#904,.F.);
#921=EDGE_LOOP('',(#916,#918,#919,#920));
#922=FACE_OUTER_BOUND('',#921,.F.);
#923=ADVANCED_FACE('',(#922),#915,.F.);
#924=CARTESIAN_POINT('',(-1.336557648701E1,2.082884521806E1,7.298044790973E1));
#925=DIRECTION('',(0.E0,-2.588190451025E-1,-9.659258262891E-1));
#926=DIRECTION('',(-1.E0,0.E0,0.E0));
#927=AXIS2_PLACEMENT_3D('',#924,#925,#926);
#928=PLANE('',#927);
#929=ORIENTED_EDGE('',*,*,#837,.T.);
#930=ORIENTED_EDGE('',*,*,#917,.T.);
#931=ORIENTED_EDGE('',*,*,#772,.F.);
#933=ORIENTED_EDGE('',*,*,#932,.T.);
#934=EDGE_LOOP('',(#929,#930,#931,#933));
#935=FACE_OUTER_BOUND('',#934,.F.);
#936=ADVANCED_FACE('',(#935),#928,.F.);
#937=CARTESIAN_POINT('',(-1.336557648701E1,2.069943569551E1,7.249748499659E1));
#938=DIRECTION('',(-7.071067811865E-1,-1.830127018922E-1,-6.830127018922E-1));
#939=DIRECTION('',(0.E0,-9.659258262891E-1,2.588190451025E-1));
#940=AXIS2_PLACEMENT_3D('',#937,#938,#939);
#941=PLANE('',#940);
#942=ORIENTED_EDGE('',*,*,#770,.T.);
#943=ORIENTED_EDGE('',*,*,#816,.F.);
#944=ORIENTED_EDGE('',*,*,#839,.T.);
#945=ORIENTED_EDGE('',*,*,#932,.F.);
#946=EDGE_LOOP('',(#942,#943,#944,#945));
#947=FACE_OUTER_BOUND('',#946,.F.);
#948=ADVANCED_FACE('',(#947),#941,.F.);
#949=CARTESIAN_POINT('',(-1.386557648701E1,2.018179760530E1,7.056563334401E1));
#950=DIRECTION('',(-7.071067811865E-1,1.830127018922E-1,6.830127018922E-1));
#951=DIRECTION('',(0.E0,-9.659258262891E-1,2.588190451025E-1));
#952=AXIS2_PLACEMENT_3D('',#949,#950,#951);
#953=PLANE('',#952);
#954=ORIENTED_EDGE('',*,*,#782,.T.);
#955=ORIENTED_EDGE('',*,*,#880,.F.);
#956=ORIENTED_EDGE('',*,*,#842,.T.);
#957=ORIENTED_EDGE('',*,*,#819,.F.);
#958=EDGE_LOOP('',(#954,#955,#956,#957));
#959=FACE_OUTER_BOUND('',#958,.F.);
#960=ADVANCED_FACE('',(#959),#953,.F.);
#961=CARTESIAN_POINT('',(-1.466557648701E1,2.106224634091E1,7.162381304184E1));
#962=DIRECTION('',(0.E0,9.659258262891E-1,-2.588190451025E-1));
#963=DIRECTION('',(1.E0,0.E0,0.E0));
#964=AXIS2_PLACEMENT_3D('',#961,#962,#963);
#965=CYLINDRICAL_SURFACE('',#964,7.5E-1);
#967=ORIENTED_EDGE('',*,*,#966,.F.);
#968=ORIENTED_EDGE('',*,*,#846,.T.);
#970=ORIENTED_EDGE('',*,*,#969,.T.);
#972=ORIENTED_EDGE('',*,*,#971,.T.);
#973=EDGE_LOOP('',(#967,#968,#970,#972));
#974=FACE_OUTER_BOUND('',#973,.F.);
#975=ADVANCED_FACE('',(#974),#965,.T.);
#976=CARTESIAN_POINT('',(-1.466557648701E1,2.106224634091E1,7.162381304184E1));
#977=DIRECTION('',(0.E0,9.659258262891E-1,-2.588190451025E-1));
#978=DIRECTION('',(1.E0,0.E0,0.E0));
#979=AXIS2_PLACEMENT_3D('',#976,#977,#978);
#980=CYLINDRICAL_SURFACE('',#979,7.5E-1);
#982=ORIENTED_EDGE('',*,*,#981,.T.);
#983=ORIENTED_EDGE('',*,*,#969,.F.);
#984=ORIENTED_EDGE('',*,*,#848,.T.);
#985=ORIENTED_EDGE('',*,*,#966,.T.);
#986=EDGE_LOOP('',(#982,#983,#984,#985));
#987=FACE_OUTER_BOUND('',#986,.F.);
#988=ADVANCED_FACE('',(#987),#980,.T.);
#989=CARTESIAN_POINT('',(-1.466557648701E1,1.881495121568E1,7.222597395580E1));
#990=DIRECTION('',(0.E0,9.659258262891E-1,-2.588190451025E-1));
#991=DIRECTION('',(1.E0,0.E0,0.E0));
#992=AXIS2_PLACEMENT_3D('',#989,#990,#991);
#993=CONICAL_SURFACE('',#992,7.E-1,4.5E1);
#995=ORIENTED_EDGE('',*,*,#994,.T.);
#997=ORIENTED_EDGE('',*,*,#996,.F.);
#998=ORIENTED_EDGE('',*,*,#981,.F.);
#1000=ORIENTED_EDGE('',*,*,#999,.T.);
#1001=EDGE_LOOP('',(#995,#997,#998,#1000));
#1002=FACE_OUTER_BOUND('',#1001,.F.);
#1003=ADVANCED_FACE('',(#1002),#993,.T.);
#1004=CARTESIAN_POINT('',(-1.466557648701E1,1.876665492436E1,7.223891490806E1));
#1005=DIRECTION('',(0.E0,9.659258262891E-1,-2.588190451025E-1));
#1006=DIRECTION('',(1.E0,0.E0,0.E0));
#1007=AXIS2_PLACEMENT_3D('',#1004,#1005,#1006);
#1008=PLANE('',#1007);
#1010=ORIENTED_EDGE('',*,*,#1009,.F.);
#1011=ORIENTED_EDGE('',*,*,#994,.F.);
#1012=EDGE_LOOP('',(#1010,#1011));
#1013=FACE_OUTER_BOUND('',#1012,.F.);
#1014=ADVANCED_FACE('',(#1013),#1008,.F.);
#1015=CARTESIAN_POINT('',(-1.466557648701E1,1.881495121568E1,7.222597395580E1));
#1016=DIRECTION('',(0.E0,9.659258262891E-1,-2.588190451025E-1));
#1017=DIRECTION('',(1.E0,0.E0,0.E0));
#1018=AXIS2_PLACEMENT_3D('',#1015,#1016,#1017);
#1019=CONICAL_SURFACE('',#1018,7.E-1,4.5E1);
#1020=ORIENTED_EDGE('',*,*,#999,.F.);
#1021=ORIENTED_EDGE('',*,*,#971,.F.);
#1022=ORIENTED_EDGE('',*,*,#996,.T.);
#1023=ORIENTED_EDGE('',*,*,#1009,.T.);
#1024=EDGE_LOOP('',(#1020,#1021,#1022,#1023));
#1025=FACE_OUTER_BOUND('',#1024,.F.);
#1026=ADVANCED_FACE('',(#1025),#1019,.T.);
#1027=CARTESIAN_POINT('',(-1.720557648701E1,2.106224634091E1,7.162381304184E1));
#1028=DIRECTION('',(0.E0,9.659258262891E-1,-2.588190451025E-1));
#1029=DIRECTION('',(1.E0,0.E0,0.E0));
#1030=AXIS2_PLACEMENT_3D('',#1027,#1028,#1029);
#1031=CYLINDRICAL_SURFACE('',#1030,7.5E-1);
#1033=ORIENTED_EDGE('',*,*,#1032,.F.);
#1034=ORIENTED_EDGE('',*,*,#852,.T.);
#1036=ORIENTED_EDGE('',*,*,#1035,.T.);
#1038=ORIENTED_EDGE('',*,*,#1037,.T.);
#1039=EDGE_LOOP('',(#1033,#1034,#1036,#1038));
#1040=FACE_OUTER_BOUND('',#1039,.F.);
#1041=ADVANCED_FACE('',(#1040),#1031,.T.);
#1042=CARTESIAN_POINT('',(-1.720557648701E1,2.106224634091E1,7.162381304184E1));
#1043=DIRECTION('',(0.E0,9.659258262891E-1,-2.588190451025E-1));
#1044=DIRECTION('',(1.E0,0.E0,0.E0));
#1045=AXIS2_PLACEMENT_3D('',#1042,#1043,#1044);
#1046=CYLINDRICAL_SURFACE('',#1045,7.5E-1);
#1048=ORIENTED_EDGE('',*,*,#1047,.T.);
#1049=ORIENTED_EDGE('',*,*,#1035,.F.);
#1050=ORIENTED_EDGE('',*,*,#854,.T.);
#1051=ORIENTED_EDGE('',*,*,#1032,.T.);
#1052=EDGE_LOOP('',(#1048,#1049,#1050,#1051));
#1053=FACE_OUTER_BOUND('',#1052,.F.);
#1054=ADVANCED_FACE('',(#1053),#1046,.T.);
#1055=CARTESIAN_POINT('',(-1.720557648701E1,1.881495121568E1,7.222597395580E1));
#1056=DIRECTION('',(0.E0,9.659258262891E-1,-2.588190451025E-1));
#1057=DIRECTION('',(1.E0,0.E0,0.E0));
#1058=AXIS2_PLACEMENT_3D('',#1055,#1056,#1057);
#1059=CONICAL_SURFACE('',#1058,7.E-1,4.5E1);
#1061=ORIENTED_EDGE('',*,*,#1060,.T.);
#1063=ORIENTED_EDGE('',*,*,#1062,.F.);
#1064=ORIENTED_EDGE('',*,*,#1047,.F.);
#1066=ORIENTED_EDGE('',*,*,#1065,.T.);
#1067=EDGE_LOOP('',(#1061,#1063,#1064,#1066));
#1068=FACE_OUTER_BOUND('',#1067,.F.);
#1069=ADVANCED_FACE('',(#1068),#1059,.T.);
#1070=CARTESIAN_POINT('',(-1.720557648701E1,1.876665492436E1,7.223891490806E1));
#1071=DIRECTION('',(0.E0,9.659258262891E-1,-2.588190451025E-1));
#1072=DIRECTION('',(1.E0,0.E0,0.E0));
#1073=AXIS2_PLACEMENT_3D('',#1070,#1071,#1072);
#1074=PLANE('',#1073);
#1076=ORIENTED_EDGE('',*,*,#1075,.F.);
#1077=ORIENTED_EDGE('',*,*,#1060,.F.);
#1078=EDGE_LOOP('',(#1076,#1077));
#1079=FACE_OUTER_BOUND('',#1078,.F.);
#1080=ADVANCED_FACE('',(#1079),#1074,.F.);
#1081=CARTESIAN_POINT('',(-1.720557648701E1,1.881495121568E1,7.222597395580E1));
#1082=DIRECTION('',(0.E0,9.659258262891E-1,-2.588190451025E-1));
#1083=DIRECTION('',(1.E0,0.E0,0.E0));
#1084=AXIS2_PLACEMENT_3D('',#1081,#1082,#1083);
#1085=CONICAL_SURFACE('',#1084,7.E-1,4.5E1);
#1086=ORIENTED_EDGE('',*,*,#1065,.F.);
#1087=ORIENTED_EDGE('',*,*,#1037,.F.);
#1088=ORIENTED_EDGE('',*,*,#1062,.T.);
#1089=ORIENTED_EDGE('',*,*,#1075,.T.);
#1090=EDGE_LOOP('',(#1086,#1087,#1088,#1089));
#1091=FACE_OUTER_BOUND('',#1090,.F.);
#1092=ADVANCED_FACE('',(#1091),#1085,.T.);
#1093=CARTESIAN_POINT('',(-2.228557648701E1,2.106224634091E1,7.162381304184E1));
#1094=DIRECTION('',(0.E0,9.659258262891E-1,-2.588190451025E-1));
#1095=DIRECTION('',(1.E0,0.E0,0.E0));
#1096=AXIS2_PLACEMENT_3D('',#1093,#1094,#1095);
#1097=CYLINDRICAL_SURFACE('',#1096,7.5E-1);
#1099=ORIENTED_EDGE('',*,*,#1098,.F.);
#1100=ORIENTED_EDGE('',*,*,#858,.T.);
#1102=ORIENTED_EDGE('',*,*,#1101,.T.);
#1104=ORIENTED_EDGE('',*,*,#1103,.T.);
#1105=EDGE_LOOP('',(#1099,#1100,#1102,#1104));
#1106=FACE_OUTER_BOUND('',#1105,.F.);
#1107=ADVANCED_FACE('',(#1106),#1097,.T.);
#1108=CARTESIAN_POINT('',(-2.228557648701E1,2.106224634091E1,7.162381304184E1));
#1109=DIRECTION('',(0.E0,9.659258262891E-1,-2.588190451025E-1));
#1110=DIRECTION('',(1.E0,0.E0,0.E0));
#1111=AXIS2_PLACEMENT_3D('',#1108,#1109,#1110);
#1112=CYLINDRICAL_SURFACE('',#1111,7.5E-1);
#1114=ORIENTED_EDGE('',*,*,#1113,.T.);
#1115=ORIENTED_EDGE('',*,*,#1101,.F.);
#1116=ORIENTED_EDGE('',*,*,#860,.T.);
#1117=ORIENTED_EDGE('',*,*,#1098,.T.);
#1118=EDGE_LOOP('',(#1114,#1115,#1116,#1117));
#1119=FACE_OUTER_BOUND('',#1118,.F.);
#1120=ADVANCED_FACE('',(#1119),#1112,.T.);
#1121=CARTESIAN_POINT('',(-2.228557648701E1,1.881495121568E1,7.222597395580E1));
#1122=DIRECTION('',(0.E0,9.659258262891E-1,-2.588190451025E-1));
#1123=DIRECTION('',(1.E0,0.E0,0.E0));
#1124=AXIS2_PLACEMENT_3D('',#1121,#1122,#1123);
#1125=CONICAL_SURFACE('',#1124,7.E-1,4.5E1);
#1127=ORIENTED_EDGE('',*,*,#1126,.T.);
#1129=ORIENTED_EDGE('',*,*,#1128,.F.);
#1130=ORIENTED_EDGE('',*,*,#1113,.F.);
#1132=ORIENTED_EDGE('',*,*,#1131,.T.);
#1133=EDGE_LOOP('',(#1127,#1129,#1130,#1132));
#1134=FACE_OUTER_BOUND('',#1133,.F.);
#1135=ADVANCED_FACE('',(#1134),#1125,.T.);
#1136=CARTESIAN_POINT('',(-2.228557648701E1,1.876665492436E1,7.223891490806E1));
#1137=DIRECTION('',(0.E0,9.659258262891E-1,-2.588190451025E-1));
#1138=DIRECTION('',(1.E0,0.E0,0.E0));
#1139=AXIS2_PLACEMENT_3D('',#1136,#1137,#1138);
#1140=PLANE('',#1139);
#1142=ORIENTED_EDGE('',*,*,#1141,.F.);
#1143=ORIENTED_EDGE('',*,*,#1126,.F.);
#1144=EDGE_LOOP('',(#1142,#1143));
#1145=FACE_OUTER_BOUND('',#1144,.F.);
#1146=ADVANCED_FACE('',(#1145),#1140,.F.);
#1147=CARTESIAN_POINT('',(-2.228557648701E1,1.881495121568E1,7.222597395580E1));
#1148=DIRECTION('',(0.E0,9.659258262891E-1,-2.588190451025E-1));
#1149=DIRECTION('',(1.E0,0.E0,0.E0));
#1150=AXIS2_PLACEMENT_3D('',#1147,#1148,#1149);
#1151=CONICAL_SURFACE('',#1150,7.E-1,4.5E1);
#1152=ORIENTED_EDGE('',*,*,#1131,.F.);
#1153=ORIENTED_EDGE('',*,*,#1103,.F.);
#1154=ORIENTED_EDGE('',*,*,#1128,.T.);
#1155=ORIENTED_EDGE('',*,*,#1141,.T.);
#1156=EDGE_LOOP('',(#1152,#1153,#1154,#1155));
#1157=FACE_OUTER_BOUND('',#1156,.F.);
#1158=ADVANCED_FACE('',(#1157),#1151,.T.);
#1159=CARTESIAN_POINT('',(-1.974557648701E1,2.106224634091E1,7.162381304184E1));
#1160=DIRECTION('',(0.E0,9.659258262891E-1,-2.588190451025E-1));
#1161=DIRECTION('',(1.E0,0.E0,0.E0));
#1162=AXIS2_PLACEMENT_3D('',#1159,#1160,#1161);
#1163=CYLINDRICAL_SURFACE('',#1162,7.5E-1);
#1165=ORIENTED_EDGE('',*,*,#1164,.F.);
#1166=ORIENTED_EDGE('',*,*,#864,.T.);
#1168=ORIENTED_EDGE('',*,*,#1167,.T.);
#1170=ORIENTED_EDGE('',*,*,#1169,.T.);
#1171=EDGE_LOOP('',(#1165,#1166,#1168,#1170));
#1172=FACE_OUTER_BOUND('',#1171,.F.);
#1173=ADVANCED_FACE('',(#1172),#1163,.T.);
#1174=CARTESIAN_POINT('',(-1.974557648701E1,2.106224634091E1,7.162381304184E1));
#1175=DIRECTION('',(0.E0,9.659258262891E-1,-2.588190451025E-1));
#1176=DIRECTION('',(1.E0,0.E0,0.E0));
#1177=AXIS2_PLACEMENT_3D('',#1174,#1175,#1176);
#1178=CYLINDRICAL_SURFACE('',#1177,7.5E-1);
#1180=ORIENTED_EDGE('',*,*,#1179,.T.);
#1181=ORIENTED_EDGE('',*,*,#1167,.F.);
#1182=ORIENTED_EDGE('',*,*,#866,.T.);
#1183=ORIENTED_EDGE('',*,*,#1164,.T.);
#1184=EDGE_LOOP('',(#1180,#1181,#1182,#1183));
#1185=FACE_OUTER_BOUND('',#1184,.F.);
#1186=ADVANCED_FACE('',(#1185),#1178,.T.);
#1187=CARTESIAN_POINT('',(-1.974557648701E1,1.881495121568E1,7.222597395580E1));
#1188=DIRECTION('',(0.E0,9.659258262891E-1,-2.588190451025E-1));
#1189=DIRECTION('',(1.E0,0.E0,0.E0));
#1190=AXIS2_PLACEMENT_3D('',#1187,#1188,#1189);
#1191=CONICAL_SURFACE('',#1190,7.E-1,4.5E1);
#1193=ORIENTED_EDGE('',*,*,#1192,.T.);
#1195=ORIENTED_EDGE('',*,*,#1194,.F.);
#1196=ORIENTED_EDGE('',*,*,#1179,.F.);
#1198=ORIENTED_EDGE('',*,*,#1197,.T.);
#1199=EDGE_LOOP('',(#1193,#1195,#1196,#1198));
#1200=FACE_OUTER_BOUND('',#1199,.F.);
#1201=ADVANCED_FACE('',(#1200),#1191,.T.);
#1202=CARTESIAN_POINT('',(-1.974557648701E1,1.876665492436E1,7.223891490806E1));
#1203=DIRECTION('',(0.E0,9.659258262891E-1,-2.588190451025E-1));
#1204=DIRECTION('',(1.E0,0.E0,0.E0));
#1205=AXIS2_PLACEMENT_3D('',#1202,#1203,#1204);
#1206=PLANE('',#1205);
#1208=ORIENTED_EDGE('',*,*,#1207,.F.);
#1209=ORIENTED_EDGE('',*,*,#1192,.F.);
#1210=EDGE_LOOP('',(#1208,#1209));
#1211=FACE_OUTER_BOUND('',#1210,.F.);
#1212=ADVANCED_FACE('',(#1211),#1206,.F.);
#1213=CARTESIAN_POINT('',(-1.974557648701E1,1.881495121568E1,7.222597395580E1));
#1214=DIRECTION('',(0.E0,9.659258262891E-1,-2.588190451025E-1));
#1215=DIRECTION('',(1.E0,0.E0,0.E0));
#1216=AXIS2_PLACEMENT_3D('',#1213,#1214,#1215);
#1217=CONICAL_SURFACE('',#1216,7.E-1,4.5E1);
#1218=ORIENTED_EDGE('',*,*,#1197,.F.);
#1219=ORIENTED_EDGE('',*,*,#1169,.F.);
#1220=ORIENTED_EDGE('',*,*,#1194,.T.);
#1221=ORIENTED_EDGE('',*,*,#1207,.T.);
#1222=EDGE_LOOP('',(#1218,#1219,#1220,#1221));
#1223=FACE_OUTER_BOUND('',#1222,.F.);
#1224=ADVANCED_FACE('',(#1223),#1217,.T.);
#1225=CARTESIAN_POINT('',(-1.466557648701E1,2.106224634091E1,7.162381304184E1));
#1226=DIRECTION('',(0.E0,9.659258262891E-1,-2.588190451025E-1));
#1227=DIRECTION('',(1.E0,0.E0,0.E0));
#1228=AXIS2_PLACEMENT_3D('',#1225,#1226,#1227);
#1229=CYLINDRICAL_SURFACE('',#1228,1.E0);
#1231=ORIENTED_EDGE('',*,*,#1230,.F.);
#1233=ORIENTED_EDGE('',*,*,#1232,.T.);
#1235=ORIENTED_EDGE('',*,*,#1234,.T.);
#1236=ORIENTED_EDGE('',*,*,#786,.T.);
#1237=EDGE_LOOP('',(#1231,#1233,#1235,#1236));
#1238=FACE_OUTER_BOUND('',#1237,.F.);
#1239=ADVANCED_FACE('',(#1238),#1229,.T.);
#1240=CARTESIAN_POINT('',(-1.466557648701E1,2.106224634091E1,7.162381304184E1));
#1241=DIRECTION('',(0.E0,9.659258262891E-1,-2.588190451025E-1));
#1242=DIRECTION('',(1.E0,0.E0,0.E0));
#1243=AXIS2_PLACEMENT_3D('',#1240,#1241,#1242);
#1244=CYLINDRICAL_SURFACE('',#1243,1.E0);
#1245=ORIENTED_EDGE('',*,*,#788,.T.);
#1246=ORIENTED_EDGE('',*,*,#1234,.F.);
#1248=ORIENTED_EDGE('',*,*,#1247,.T.);
#1249=ORIENTED_EDGE('',*,*,#1230,.T.);
#1250=EDGE_LOOP('',(#1245,#1246,#1248,#1249));
#1251=FACE_OUTER_BOUND('',#1250,.F.);
#1252=ADVANCED_FACE('',(#1251),#1244,.T.);
#1253=CARTESIAN_POINT('',(-1.466557648701E1,2.113317319877E1,7.160480824756E1));
#1254=DIRECTION('',(0.E0,-9.659258262891E-1,2.588190451025E-1));
#1255=DIRECTION('',(-1.E0,0.E0,0.E0));
#1256=AXIS2_PLACEMENT_3D('',#1253,#1254,#1255);
#1257=CONICAL_SURFACE('',#1256,9.5E-1,4.5E1);
#1259=ORIENTED_EDGE('',*,*,#1258,.T.);
#1261=ORIENTED_EDGE('',*,*,#1260,.F.);
#1262=ORIENTED_EDGE('',*,*,#1247,.F.);
#1264=ORIENTED_EDGE('',*,*,#1263,.T.);
#1265=EDGE_LOOP('',(#1259,#1261,#1262,#1264));
#1266=FACE_OUTER_BOUND('',#1265,.F.);
#1267=ADVANCED_FACE('',(#1266),#1257,.T.);
#1268=CARTESIAN_POINT('',(-1.566557648701E1,2.118146949009E1,7.159186729530E1));
#1269=DIRECTION('',(0.E0,-9.659258262891E-1,2.588190451025E-1));
#1270=DIRECTION('',(-1.E0,0.E0,0.E0));
#1271=AXIS2_PLACEMENT_3D('',#1268,#1269,#1270);
#1272=PLANE('',#1271);
#1274=ORIENTED_EDGE('',*,*,#1273,.F.);
#1275=ORIENTED_EDGE('',*,*,#1258,.F.);
#1276=EDGE_LOOP('',(#1274,#1275));
#1277=FACE_OUTER_BOUND('',#1276,.F.);
#1279=ORIENTED_EDGE('',*,*,#1278,.F.);
#1281=ORIENTED_EDGE('',*,*,#1280,.F.);
#1282=EDGE_LOOP('',(#1279,#1281));
#1283=FACE_BOUND('',#1282,.F.);
#1284=ADVANCED_FACE('',(#1277,#1283),#1272,.F.);
#1285=CARTESIAN_POINT('',(-1.466557648701E1,2.113317319877E1,7.160480824756E1));
#1286=DIRECTION('',(0.E0,-9.659258262891E-1,2.588190451025E-1));
#1287=DIRECTION('',(-1.E0,0.E0,0.E0));
#1288=AXIS2_PLACEMENT_3D('',#1285,#1286,#1287);
#1289=CONICAL_SURFACE('',#1288,9.5E-1,4.5E1);
#1290=ORIENTED_EDGE('',*,*,#1263,.F.);
#1291=ORIENTED_EDGE('',*,*,#1232,.F.);
#1292=ORIENTED_EDGE('',*,*,#1260,.T.);
#1293=ORIENTED_EDGE('',*,*,#1273,.T.);
#1294=EDGE_LOOP('',(#1290,#1291,#1292,#1293));
#1295=FACE_OUTER_BOUND('',#1294,.F.);
#1296=ADVANCED_FACE('',(#1295),#1289,.T.);
#1297=CARTESIAN_POINT('',(-1.466557648701E1,2.112305014699E1,7.160752071111E1));
#1298=DIRECTION('',(0.E0,9.659258262891E-1,-2.588190451025E-1));
#1299=DIRECTION('',(1.E0,0.E0,0.E0));
#1300=AXIS2_PLACEMENT_3D('',#1297,#1298,#1299);
#1301=CONICAL_SURFACE('',#1300,3.57E-1,8.E1);
#1303=ORIENTED_EDGE('',*,*,#1302,.F.);
#1304=ORIENTED_EDGE('',*,*,#1278,.T.);
#1306=ORIENTED_EDGE('',*,*,#1305,.T.);
#1307=EDGE_LOOP('',(#1303,#1304,#1306));
#1308=FACE_OUTER_BOUND('',#1307,.F.);
#1309=ADVANCED_FACE('',(#1308),#1301,.F.);
#1310=CARTESIAN_POINT('',(-1.466557648701E1,2.112305014699E1,7.160752071111E1));
#1311=DIRECTION('',(0.E0,9.659258262891E-1,-2.588190451025E-1));
#1312=DIRECTION('',(1.E0,0.E0,0.E0));
#1313=AXIS2_PLACEMENT_3D('',#1310,#1311,#1312);
#1314=CONICAL_SURFACE('',#1313,3.57E-1,8.E1);
#1315=ORIENTED_EDGE('',*,*,#1305,.F.);
#1316=ORIENTED_EDGE('',*,*,#1280,.T.);
#1317=ORIENTED_EDGE('',*,*,#1302,.T.);
#1318=EDGE_LOOP('',(#1315,#1316,#1317));
#1319=FACE_OUTER_BOUND('',#1318,.F.);
#1320=ADVANCED_FACE('',(#1319),#1314,.F.);
#1321=CARTESIAN_POINT('',(-1.720557648701E1,2.106224634091E1,7.162381304184E1));
#1322=DIRECTION('',(0.E0,9.659258262891E-1,-2.588190451025E-1));
#1323=DIRECTION('',(1.E0,0.E0,0.E0));
#1324=AXIS2_PLACEMENT_3D('',#1321,#1322,#1323);
#1325=CYLINDRICAL_SURFACE('',#1324,1.E0);
#1327=ORIENTED_EDGE('',*,*,#1326,.F.);
#1329=ORIENTED_EDGE('',*,*,#1328,.T.);
#1331=ORIENTED_EDGE('',*,*,#1330,.T.);
#1332=ORIENTED_EDGE('',*,*,#792,.T.);
#1333=EDGE_LOOP('',(#1327,#1329,#1331,#1332));
#1334=FACE_OUTER_BOUND('',#1333,.F.);
#1335=ADVANCED_FACE('',(#1334),#1325,.T.);
#1336=CARTESIAN_POINT('',(-1.720557648701E1,2.106224634091E1,7.162381304184E1));
#1337=DIRECTION('',(0.E0,9.659258262891E-1,-2.588190451025E-1));
#1338=DIRECTION('',(1.E0,0.E0,0.E0));
#1339=AXIS2_PLACEMENT_3D('',#1336,#1337,#1338);
#1340=CYLINDRICAL_SURFACE('',#1339,1.E0);
#1341=ORIENTED_EDGE('',*,*,#794,.T.);
#1342=ORIENTED_EDGE('',*,*,#1330,.F.);
#1344=ORIENTED_EDGE('',*,*,#1343,.T.);
#1345=ORIENTED_EDGE('',*,*,#1326,.T.);
#1346=EDGE_LOOP('',(#1341,#1342,#1344,#1345));
#1347=FACE_OUTER_BOUND('',#1346,.F.);
#1348=ADVANCED_FACE('',(#1347),#1340,.T.);
#1349=CARTESIAN_POINT('',(-1.720557648701E1,2.113317319877E1,7.160480824756E1));
#1350=DIRECTION('',(0.E0,-9.659258262891E-1,2.588190451025E-1));
#1351=DIRECTION('',(-1.E0,0.E0,0.E0));
#1352=AXIS2_PLACEMENT_3D('',#1349,#1350,#1351);
#1353=CONICAL_SURFACE('',#1352,9.5E-1,4.5E1);
#1355=ORIENTED_EDGE('',*,*,#1354,.T.);
#1357=ORIENTED_EDGE('',*,*,#1356,.F.);
#1358=ORIENTED_EDGE('',*,*,#1343,.F.);
#1360=ORIENTED_EDGE('',*,*,#1359,.T.);
#1361=EDGE_LOOP('',(#1355,#1357,#1358,#1360));
#1362=FACE_OUTER_BOUND('',#1361,.F.);
#1363=ADVANCED_FACE('',(#1362),#1353,.T.);
#1364=CARTESIAN_POINT('',(-1.820557648701E1,2.118146949009E1,7.159186729530E1));
#1365=DIRECTION('',(0.E0,-9.659258262891E-1,2.588190451025E-1));
#1366=DIRECTION('',(-1.E0,0.E0,0.E0));
#1367=AXIS2_PLACEMENT_3D('',#1364,#1365,#1366);
#1368=PLANE('',#1367);
#1370=ORIENTED_EDGE('',*,*,#1369,.F.);
#1371=ORIENTED_EDGE('',*,*,#1354,.F.);
#1372=EDGE_LOOP('',(#1370,#1371));
#1373=FACE_OUTER_BOUND('',#1372,.F.);
#1375=ORIENTED_EDGE('',*,*,#1374,.F.);
#1377=ORIENTED_EDGE('',*,*,#1376,.F.);
#1378=EDGE_LOOP('',(#1375,#1377));
#1379=FACE_BOUND('',#1378,.F.);
#1380=ADVANCED_FACE('',(#1373,#1379),#1368,.F.);
#1381=CARTESIAN_POINT('',(-1.720557648701E1,2.113317319877E1,7.160480824756E1));
#1382=DIRECTION('',(0.E0,-9.659258262891E-1,2.588190451025E-1));
#1383=DIRECTION('',(-1.E0,0.E0,0.E0));
#1384=AXIS2_PLACEMENT_3D('',#1381,#1382,#1383);
#1385=CONICAL_SURFACE('',#1384,9.5E-1,4.5E1);
#1386=ORIENTED_EDGE('',*,*,#1359,.F.);
#1387=ORIENTED_EDGE('',*,*,#1328,.F.);
#1388=ORIENTED_EDGE('',*,*,#1356,.T.);
#1389=ORIENTED_EDGE('',*,*,#1369,.T.);
#1390=EDGE_LOOP('',(#1386,#1387,#1388,#1389));
#1391=FACE_OUTER_BOUND('',#1390,.F.);
#1392=ADVANCED_FACE('',(#1391),#1385,.T.);
#1393=CARTESIAN_POINT('',(-1.720557648701E1,2.112305014699E1,7.160752071111E1));
#1394=DIRECTION('',(0.E0,9.659258262891E-1,-2.588190451025E-1));
#1395=DIRECTION('',(1.E0,0.E0,0.E0));
#1396=AXIS2_PLACEMENT_3D('',#1393,#1394,#1395);
#1397=CONICAL_SURFACE('',#1396,3.57E-1,8.E1);
#1399=ORIENTED_EDGE('',*,*,#1398,.F.);
#1400=ORIENTED_EDGE('',*,*,#1374,.T.);
#1402=ORIENTED_EDGE('',*,*,#1401,.T.);
#1403=EDGE_LOOP('',(#1399,#1400,#1402));
#1404=FACE_OUTER_BOUND('',#1403,.F.);
#1405=ADVANCED_FACE('',(#1404),#1397,.F.);
#1406=CARTESIAN_POINT('',(-1.720557648701E1,2.112305014699E1,7.160752071111E1));
#1407=DIRECTION('',(0.E0,9.659258262891E-1,-2.588190451025E-1));
#1408=DIRECTION('',(1.E0,0.E0,0.E0));
#1409=AXIS2_PLACEMENT_3D('',#1406,#1407,#1408);
#1410=CONICAL_SURFACE('',#1409,3.57E-1,8.E1);
#1411=ORIENTED_EDGE('',*,*,#1401,.F.);
#1412=ORIENTED_EDGE('',*,*,#1376,.T.);
#1413=ORIENTED_EDGE('',*,*,#1398,.T.);
#1414=EDGE_LOOP('',(#1411,#1412,#1413));
#1415=FACE_OUTER_BOUND('',#1414,.F.);
#1416=ADVANCED_FACE('',(#1415),#1410,.F.);
#1417=CARTESIAN_POINT('',(-1.974557648701E1,2.106224634091E1,7.162381304184E1));
#1418=DIRECTION('',(0.E0,9.659258262891E-1,-2.588190451025E-1));
#1419=DIRECTION('',(1.E0,0.E0,0.E0));
#1420=AXIS2_PLACEMENT_3D('',#1417,#1418,#1419);
#1421=CYLINDRICAL_SURFACE('',#1420,1.E0);
#1423=ORIENTED_EDGE('',*,*,#1422,.F.);
#1425=ORIENTED_EDGE('',*,*,#1424,.T.);
#1427=ORIENTED_EDGE('',*,*,#1426,.T.);
#1428=ORIENTED_EDGE('',*,*,#802,.T.);
#1429=EDGE_LOOP('',(#1423,#1425,#1427,#1428));
#1430=FACE_OUTER_BOUND('',#1429,.F.);
#1431=ADVANCED_FACE('',(#1430),#1421,.T.);
#1432=CARTESIAN_POINT('',(-1.974557648701E1,2.106224634091E1,7.162381304184E1));
#1433=DIRECTION('',(0.E0,9.659258262891E-1,-2.588190451025E-1));
#1434=DIRECTION('',(1.E0,0.E0,0.E0));
#1435=AXIS2_PLACEMENT_3D('',#1432,#1433,#1434);
#1436=CYLINDRICAL_SURFACE('',#1435,1.E0);
#1437=ORIENTED_EDGE('',*,*,#804,.T.);
#1438=ORIENTED_EDGE('',*,*,#1426,.F.);
#1440=ORIENTED_EDGE('',*,*,#1439,.T.);
#1441=ORIENTED_EDGE('',*,*,#1422,.T.);
#1442=EDGE_LOOP('',(#1437,#1438,#1440,#1441));
#1443=FACE_OUTER_BOUND('',#1442,.F.);
#1444=ADVANCED_FACE('',(#1443),#1436,.T.);
#1445=CARTESIAN_POINT('',(-1.974557648701E1,2.113317319877E1,7.160480824756E1));
#1446=DIRECTION('',(0.E0,-9.659258262891E-1,2.588190451025E-1));
#1447=DIRECTION('',(-1.E0,0.E0,0.E0));
#1448=AXIS2_PLACEMENT_3D('',#1445,#1446,#1447);
#1449=CONICAL_SURFACE('',#1448,9.5E-1,4.5E1);
#1451=ORIENTED_EDGE('',*,*,#1450,.T.);
#1453=ORIENTED_EDGE('',*,*,#1452,.F.);
#1454=ORIENTED_EDGE('',*,*,#1439,.F.);
#1456=ORIENTED_EDGE('',*,*,#1455,.T.);
#1457=EDGE_LOOP('',(#1451,#1453,#1454,#1456));
#1458=FACE_OUTER_BOUND('',#1457,.F.);
#1459=ADVANCED_FACE('',(#1458),#1449,.T.);
#1460=CARTESIAN_POINT('',(-2.074557648701E1,2.118146949009E1,7.159186729530E1));
#1461=DIRECTION('',(0.E0,-9.659258262891E-1,2.588190451025E-1));
#1462=DIRECTION('',(-1.E0,0.E0,0.E0));
#1463=AXIS2_PLACEMENT_3D('',#1460,#1461,#1462);
#1464=PLANE('',#1463);
#1466=ORIENTED_EDGE('',*,*,#1465,.F.);
#1467=ORIENTED_EDGE('',*,*,#1450,.F.);
#1468=EDGE_LOOP('',(#1466,#1467));
#1469=FACE_OUTER_BOUND('',#1468,.F.);
#1471=ORIENTED_EDGE('',*,*,#1470,.F.);
#1473=ORIENTED_EDGE('',*,*,#1472,.F.);
#1474=EDGE_LOOP('',(#1471,#1473));
#1475=FACE_BOUND('',#1474,.F.);
#1476=ADVANCED_FACE('',(#1469,#1475),#1464,.F.);
#1477=CARTESIAN_POINT('',(-1.974557648701E1,2.113317319877E1,7.160480824756E1));
#1478=DIRECTION('',(0.E0,-9.659258262891E-1,2.588190451025E-1));
#1479=DIRECTION('',(-1.E0,0.E0,0.E0));
#1480=AXIS2_PLACEMENT_3D('',#1477,#1478,#1479);
#1481=CONICAL_SURFACE('',#1480,9.5E-1,4.5E1);
#1482=ORIENTED_EDGE('',*,*,#1455,.F.);
#1483=ORIENTED_EDGE('',*,*,#1424,.F.);
#1484=ORIENTED_EDGE('',*,*,#1452,.T.);
#1485=ORIENTED_EDGE('',*,*,#1465,.T.);
#1486=EDGE_LOOP('',(#1482,#1483,#1484,#1485));
#1487=FACE_OUTER_BOUND('',#1486,.F.);
#1488=ADVANCED_FACE('',(#1487),#1481,.T.);
#1489=CARTESIAN_POINT('',(-1.974557648701E1,2.112305014699E1,7.160752071111E1));
#1490=DIRECTION('',(0.E0,9.659258262891E-1,-2.588190451025E-1));
#1491=DIRECTION('',(1.E0,0.E0,0.E0));
#1492=AXIS2_PLACEMENT_3D('',#1489,#1490,#1491);
#1493=CONICAL_SURFACE('',#1492,3.57E-1,8.E1);
#1495=ORIENTED_EDGE('',*,*,#1494,.F.);
#1496=ORIENTED_EDGE('',*,*,#1470,.T.);
#1498=ORIENTED_EDGE('',*,*,#1497,.T.);
#1499=EDGE_LOOP('',(#1495,#1496,#1498));
#1500=FACE_OUTER_BOUND('',#1499,.F.);
#1501=ADVANCED_FACE('',(#1500),#1493,.F.);
#1502=CARTESIAN_POINT('',(-1.974557648701E1,2.112305014699E1,7.160752071111E1));
#1503=DIRECTION('',(0.E0,9.659258262891E-1,-2.588190451025E-1));
#1504=DIRECTION('',(1.E0,0.E0,0.E0));
#1505=AXIS2_PLACEMENT_3D('',#1502,#1503,#1504);
#1506=CONICAL_SURFACE('',#1505,3.57E-1,8.E1);
#1507=ORIENTED_EDGE('',*,*,#1497,.F.);
#1508=ORIENTED_EDGE('',*,*,#1472,.T.);
#1509=ORIENTED_EDGE('',*,*,#1494,.T.);
#1510=EDGE_LOOP('',(#1507,#1508,#1509));
#1511=FACE_OUTER_BOUND('',#1510,.F.);
#1512=ADVANCED_FACE('',(#1511),#1506,.F.);
#1513=CARTESIAN_POINT('',(-2.228557648701E1,2.112305014699E1,7.160752071111E1));
#1514=DIRECTION('',(0.E0,9.659258262891E-1,-2.588190451025E-1));
#1515=DIRECTION('',(1.E0,0.E0,0.E0));
#1516=AXIS2_PLACEMENT_3D('',#1513,#1514,#1515);
#1517=CONICAL_SURFACE('',#1516,3.57E-1,8.E1);
#1519=ORIENTED_EDGE('',*,*,#1518,.F.);
#1520=ORIENTED_EDGE('',*,*,#715,.T.);
#1522=ORIENTED_EDGE('',*,*,#1521,.T.);
#1523=EDGE_LOOP('',(#1519,#1520,#1522));
#1524=FACE_OUTER_BOUND('',#1523,.F.);
#1525=ADVANCED_FACE('',(#1524),#1517,.F.);
#1526=CARTESIAN_POINT('',(-2.228557648701E1,2.112305014699E1,7.160752071111E1));
#1527=DIRECTION('',(0.E0,9.659258262891E-1,-2.588190451025E-1));
#1528=DIRECTION('',(1.E0,0.E0,0.E0));
#1529=AXIS2_PLACEMENT_3D('',#1526,#1527,#1528);
#1530=CONICAL_SURFACE('',#1529,3.57E-1,8.E1);
#1531=ORIENTED_EDGE('',*,*,#1521,.F.);
#1532=ORIENTED_EDGE('',*,*,#717,.T.);
#1533=ORIENTED_EDGE('',*,*,#1518,.T.);
#1534=EDGE_LOOP('',(#1531,#1532,#1533));
#1535=FACE_OUTER_BOUND('',#1534,.F.);
#1536=ADVANCED_FACE('',(#1535),#1530,.F.);
#1537=CLOSED_SHELL('',(#704,#721,#734,#749,#762,#808,#823,#870,#884,#897,#910,
#923,#936,#948,#960,#975,#988,#1003,#1014,#1026,#1041,#1054,#1069,#1080,#1092,
#1107,#1120,#1135,#1146,#1158,#1173,#1186,#1201,#1212,#1224,#1239,#1252,#1267,
#1284,#1296,#1309,#1320,#1335,#1348,#1363,#1380,#1392,#1405,#1416,#1431,#1444,
#1459,#1476,#1488,#1501,#1512,#1525,#1536));
#1538=MANIFOLD_SOLID_BREP('',#1537);
#1540=DIMENSIONAL_EXPONENTS(0.E0,0.E0,0.E0,0.E0,0.E0,0.E0,0.E0);
#1542=PLANE_ANGLE_MEASURE_WITH_UNIT(PLANE_ANGLE_MEASURE(1.745329251994E-2),
#1541);
#1543=(CONVERSION_BASED_UNIT('DEGREE',#1542)NAMED_UNIT(*)PLANE_ANGLE_UNIT());
#1545=UNCERTAINTY_MEASURE_WITH_UNIT(LENGTH_MEASURE(1.096481041552E-3),#1539,
'closure',
'Maximum model space distance between geometric entities at asserted connectivities');
#1546=(GEOMETRIC_REPRESENTATION_CONTEXT(3)GLOBAL_UNCERTAINTY_ASSIGNED_CONTEXT((
#1545))GLOBAL_UNIT_ASSIGNED_CONTEXT((#1539,#1543,#1544))REPRESENTATION_CONTEXT(
'ID1','3'));
#1548=APPLICATION_CONTEXT(
'CONFIGURATION CONTROLLED 3D DESIGNS OF MECHANICAL PARTS AND ASSEMBLIES');
#1549=APPLICATION_PROTOCOL_DEFINITION('international standard',
'config_control_design',1994,#1548);
#1550=DESIGN_CONTEXT('',#1548,'design');
#1551=MECHANICAL_CONTEXT('',#1548,'mechanical');
#1552=PRODUCT('HTPEBOHATF0A','HTPEBOHATF0A','NOT SPECIFIED',(#1551));
#1553=PRODUCT_DEFINITION_FORMATION_WITH_SPECIFIED_SOURCE('1','LAST_VERSION',
#1552,.MADE.);
#1557=PRODUCT_CATEGORY('part','');
#1558=PRODUCT_RELATED_PRODUCT_CATEGORY('detail','',(#1552));
#1559=PRODUCT_CATEGORY_RELATIONSHIP('','',#1557,#1558);
#1560=SECURITY_CLASSIFICATION_LEVEL('unclassified');
#1561=SECURITY_CLASSIFICATION('','',#1560);
#1562=CC_DESIGN_SECURITY_CLASSIFICATION(#1561,(#1553));
#1563=APPROVAL_STATUS('approved');
#1564=APPROVAL(#1563,'');
#1565=CC_DESIGN_APPROVAL(#1564,(#1561,#1553,#1554));
#1566=CALENDAR_DATE(119,23,8);
#1567=COORDINATED_UNIVERSAL_TIME_OFFSET(8,0,.AHEAD.);
#1568=LOCAL_TIME(12,4,1.6E1,#1567);
#1569=DATE_AND_TIME(#1566,#1568);
#1570=APPROVAL_DATE_TIME(#1569,#1564);
#1571=DATE_TIME_ROLE('creation_date');
#1572=CC_DESIGN_DATE_AND_TIME_ASSIGNMENT(#1569,#1571,(#1554));
#1573=DATE_TIME_ROLE('classification_date');
#1574=CC_DESIGN_DATE_AND_TIME_ASSIGNMENT(#1569,#1573,(#1561));
#1575=PERSON('UNSPECIFIED','UNSPECIFIED',$,$,$,$);
#1576=ORGANIZATION('UNSPECIFIED','UNSPECIFIED','UNSPECIFIED');
#1577=PERSON_AND_ORGANIZATION(#1575,#1576);
#1578=APPROVAL_ROLE('approver');
#1579=APPROVAL_PERSON_ORGANIZATION(#1577,#1564,#1578);
#1580=PERSON_AND_ORGANIZATION_ROLE('creator');
#1581=CC_DESIGN_PERSON_AND_ORGANIZATION_ASSIGNMENT(#1577,#1580,(#1553,#1554));
#1582=PERSON_AND_ORGANIZATION_ROLE('design_supplier');
#1583=CC_DESIGN_PERSON_AND_ORGANIZATION_ASSIGNMENT(#1577,#1582,(#1553));
#1584=PERSON_AND_ORGANIZATION_ROLE('classification_officer');
#1585=CC_DESIGN_PERSON_AND_ORGANIZATION_ASSIGNMENT(#1577,#1584,(#1561));
#1586=PERSON_AND_ORGANIZATION_ROLE('design_owner');
#1587=CC_DESIGN_PERSON_AND_ORGANIZATION_ASSIGNMENT(#1577,#1586,(#1552));
#9=CIRCLE('',#8,1.E0);
#14=CIRCLE('',#13,9.E-1);
#19=CIRCLE('',#18,9.E-1);
#24=CIRCLE('',#23,7.E-1);
#29=CIRCLE('',#28,7.E-1);
#38=CIRCLE('',#37,1.E0);
#67=CIRCLE('',#66,1.E0);
#72=CIRCLE('',#71,1.E0);
#77=CIRCLE('',#76,1.E0);
#82=CIRCLE('',#81,1.E0);
#87=CIRCLE('',#86,1.E0);
#92=CIRCLE('',#91,1.E0);
#97=CIRCLE('',#96,1.E0);
#102=CIRCLE('',#101,1.E0);
#143=CIRCLE('',#142,7.5E-1);
#148=CIRCLE('',#147,7.5E-1);
#153=CIRCLE('',#152,7.5E-1);
#158=CIRCLE('',#157,7.5E-1);
#163=CIRCLE('',#162,7.5E-1);
#168=CIRCLE('',#167,7.5E-1);
#173=CIRCLE('',#172,7.5E-1);
#178=CIRCLE('',#177,7.5E-1);
#239=CIRCLE('',#238,7.5E-1);
#244=CIRCLE('',#243,6.5E-1);
#249=CIRCLE('',#248,6.5E-1);
#258=CIRCLE('',#257,7.5E-1);
#275=CIRCLE('',#274,7.5E-1);
#280=CIRCLE('',#279,6.5E-1);
#285=CIRCLE('',#284,6.5E-1);
#294=CIRCLE('',#293,7.5E-1);
#311=CIRCLE('',#310,7.5E-1);
#316=CIRCLE('',#315,6.5E-1);
#321=CIRCLE('',#320,6.5E-1);
#330=CIRCLE('',#329,7.5E-1);
#347=CIRCLE('',#346,7.5E-1);
#352=CIRCLE('',#351,6.5E-1);
#357=CIRCLE('',#356,6.5E-1);
#366=CIRCLE('',#365,7.5E-1);
#383=CIRCLE('',#382,1.E0);
#388=CIRCLE('',#387,9.E-1);
#393=CIRCLE('',#392,9.E-1);
#398=CIRCLE('',#397,7.E-1);
#403=CIRCLE('',#402,7.E-1);
#412=CIRCLE('',#411,1.E0);
#437=CIRCLE('',#436,1.E0);
#442=CIRCLE('',#441,9.E-1);
#447=CIRCLE('',#446,9.E-1);
#452=CIRCLE('',#451,7.E-1);
#457=CIRCLE('',#456,7.E-1);
#466=CIRCLE('',#465,1.E0);
#491=CIRCLE('',#490,1.E0);
#496=CIRCLE('',#495,9.E-1);
#501=CIRCLE('',#500,9.E-1);
#506=CIRCLE('',#505,7.E-1);
#511=CIRCLE('',#510,7.E-1);
#520=CIRCLE('',#519,1.E0);
#694=EDGE_CURVE('',#603,#604,#19,.T.);
#696=EDGE_CURVE('',#585,#604,#4,.T.);
#698=EDGE_CURVE('',#666,#585,#9,.T.);
#700=EDGE_CURVE('',#666,#603,#33,.T.);
#710=EDGE_CURVE('',#604,#603,#14,.T.);
#715=EDGE_CURVE('',#559,#578,#24,.T.);
#717=EDGE_CURVE('',#578,#559,#29,.T.);
#728=EDGE_CURVE('',#585,#666,#38,.T.);
#740=EDGE_CURVE('',#585,#586,#42,.T.);
#743=EDGE_CURVE('',#666,#672,#46,.T.);
#745=EDGE_CURVE('',#672,#586,#87,.T.);
#755=EDGE_CURVE('',#586,#672,#92,.T.);
#768=EDGE_CURVE('',#623,#630,#106,.T.);
#770=EDGE_CURVE('',#633,#630,#50,.T.);
#772=EDGE_CURVE('',#633,#634,#206,.T.);
#774=EDGE_CURVE('',#543,#634,#54,.T.);
#776=EDGE_CURVE('',#543,#544,#194,.T.);
#778=EDGE_CURVE('',#644,#544,#58,.T.);
#780=EDGE_CURVE('',#644,#652,#182,.T.);
#782=EDGE_CURVE('',#623,#652,#62,.T.);
#786=EDGE_CURVE('',#556,#674,#67,.T.);
#788=EDGE_CURVE('',#674,#556,#72,.T.);
#792=EDGE_CURVE('',#688,#670,#77,.T.);
#794=EDGE_CURVE('',#670,#688,#82,.T.);
#802=EDGE_CURVE('',#662,#661,#97,.T.);
#804=EDGE_CURVE('',#661,#662,#102,.T.);
#814=EDGE_CURVE('',#624,#547,#134,.T.);
#816=EDGE_CURVE('',#547,#630,#210,.T.);
#819=EDGE_CURVE('',#623,#624,#222,.T.);
#829=EDGE_CURVE('',#575,#576,#110,.T.);
#831=EDGE_CURVE('',#642,#575,#114,.T.);
#833=EDGE_CURVE('',#654,#642,#118,.T.);
#835=EDGE_CURVE('',#636,#654,#122,.T.);
#837=EDGE_CURVE('',#548,#636,#126,.T.);
#839=EDGE_CURVE('',#547,#548,#130,.T.);
#842=EDGE_CURVE('',#576,#624,#138,.T.);
#846=EDGE_CURVE('',#571,#572,#143,.T.);
#848=EDGE_CURVE('',#572,#571,#148,.T.);
#852=EDGE_CURVE('',#540,#539,#153,.T.);
#854=EDGE_CURVE('',#539,#540,#158,.T.);
#858=EDGE_CURVE('',#597,#598,#163,.T.);
#860=EDGE_CURVE('',#598,#597,#168,.T.);
#864=EDGE_CURVE('',#567,#606,#173,.T.);
#866=EDGE_CURVE('',#606,#567,#178,.T.);
#877=EDGE_CURVE('',#644,#575,#190,.T.);
#880=EDGE_CURVE('',#576,#652,#218,.T.);
#891=EDGE_CURVE('',#642,#544,#186,.T.);
#904=EDGE_CURVE('',#543,#654,#202,.T.);
#917=EDGE_CURVE('',#636,#634,#198,.T.);
#932=EDGE_CURVE('',#633,#548,#214,.T.);
#966=EDGE_CURVE('',#571,#628,#226,.T.);
#969=EDGE_CURVE('',#572,#627,#230,.T.);
#971=EDGE_CURVE('',#627,#628,#258,.T.);
#981=EDGE_CURVE('',#628,#627,#239,.T.);
#994=EDGE_CURVE('',#609,#610,#249,.T.);
#996=EDGE_CURVE('',#627,#610,#234,.T.);
#999=EDGE_CURVE('',#628,#609,#253,.T.);
#1009=EDGE_CURVE('',#610,#609,#244,.T.);
#1032=EDGE_CURVE('',#540,#620,#262,.T.);
#1035=EDGE_CURVE('',#539,#619,#266,.T.);
#1037=EDGE_CURVE('',#619,#620,#294,.T.);
#1047=EDGE_CURVE('',#620,#619,#275,.T.);
#1060=EDGE_CURVE('',#650,#686,#285,.T.);
#1062=EDGE_CURVE('',#619,#686,#270,.T.);
#1065=EDGE_CURVE('',#620,#650,#289,.T.);
#1075=EDGE_CURVE('',#686,#650,#280,.T.);
#1098=EDGE_CURVE('',#597,#551,#298,.T.);
#1101=EDGE_CURVE('',#598,#658,#302,.T.);
#1103=EDGE_CURVE('',#658,#551,#330,.T.);
#1113=EDGE_CURVE('',#551,#658,#311,.T.);
#1126=EDGE_CURVE('',#552,#668,#321,.T.);
#1128=EDGE_CURVE('',#658,#668,#306,.T.);
#1131=EDGE_CURVE('',#551,#552,#325,.T.);
#1141=EDGE_CURVE('',#668,#552,#316,.T.);
#1164=EDGE_CURVE('',#567,#568,#334,.T.);
#1167=EDGE_CURVE('',#606,#600,#338,.T.);
#1169=EDGE_CURVE('',#600,#568,#366,.T.);
#1179=EDGE_CURVE('',#568,#600,#347,.T.);
#1192=EDGE_CURVE('',#616,#614,#357,.T.);
#1194=EDGE_CURVE('',#600,#614,#342,.T.);
#1197=EDGE_CURVE('',#568,#616,#361,.T.);
#1207=EDGE_CURVE('',#614,#616,#352,.T.);
#1230=EDGE_CURVE('',#612,#674,#370,.T.);
#1232=EDGE_CURVE('',#612,#555,#412,.T.);
#1234=EDGE_CURVE('',#555,#556,#374,.T.);
#1247=EDGE_CURVE('',#555,#612,#383,.T.);
#1258=EDGE_CURVE('',#589,#590,#393,.T.);
#1260=EDGE_CURVE('',#612,#590,#378,.T.);
#1263=EDGE_CURVE('',#555,#589,#407,.T.);
#1273=EDGE_CURVE('',#590,#589,#388,.T.);
#1278=EDGE_CURVE('',#647,#648,#398,.T.);
#1280=EDGE_CURVE('',#648,#647,#403,.T.);
#1302=EDGE_CURVE('',#647,#656,#416,.T.);
#1305=EDGE_CURVE('',#648,#656,#420,.T.);
#1326=EDGE_CURVE('',#581,#670,#424,.T.);
#1328=EDGE_CURVE('',#581,#582,#466,.T.);
#1330=EDGE_CURVE('',#582,#688,#428,.T.);
#1343=EDGE_CURVE('',#582,#581,#437,.T.);
#1354=EDGE_CURVE('',#678,#677,#447,.T.);
#1356=EDGE_CURVE('',#581,#677,#432,.T.);
#1359=EDGE_CURVE('',#582,#678,#461,.T.);
#1369=EDGE_CURVE('',#677,#678,#442,.T.);
#1374=EDGE_CURVE('',#639,#664,#452,.T.);
#1376=EDGE_CURVE('',#664,#639,#457,.T.);
#1398=EDGE_CURVE('',#639,#640,#470,.T.);
#1401=EDGE_CURVE('',#664,#640,#474,.T.);
#1422=EDGE_CURVE('',#594,#661,#478,.T.);
#1424=EDGE_CURVE('',#594,#593,#520,.T.);
#1426=EDGE_CURVE('',#593,#662,#482,.T.);
#1439=EDGE_CURVE('',#593,#594,#491,.T.);
#1450=EDGE_CURVE('',#563,#564,#501,.T.);
#1452=EDGE_CURVE('',#594,#564,#486,.T.);
#1455=EDGE_CURVE('',#593,#563,#515,.T.);
#1465=EDGE_CURVE('',#564,#563,#496,.T.);
#1470=EDGE_CURVE('',#681,#682,#506,.T.);
#1472=EDGE_CURVE('',#682,#681,#511,.T.);
#1494=EDGE_CURVE('',#681,#684,#524,.T.);
#1497=EDGE_CURVE('',#682,#684,#528,.T.);
#1518=EDGE_CURVE('',#559,#560,#532,.T.);
#1521=EDGE_CURVE('',#578,#560,#536,.T.);
#1539=(LENGTH_UNIT()NAMED_UNIT(*)SI_UNIT(.MILLI.,.METRE.));
#1541=(NAMED_UNIT(*)PLANE_ANGLE_UNIT()SI_UNIT($,.RADIAN.));
#1544=(NAMED_UNIT(*)SI_UNIT($,.STERADIAN.)SOLID_ANGLE_UNIT());
#1547=ADVANCED_BREP_SHAPE_REPRESENTATION('',(#1538),#1546);
#1554=PRODUCT_DEFINITION('design','',#1553,#1550);
#1555=PRODUCT_DEFINITION_SHAPE('','SHAPE FOR HTPEBOHATF0A.',#1554);
#1556=SHAPE_DEFINITION_REPRESENTATION(#1555,#1547);
ENDSEC;
END-ISO-10303-21;
