ISO-10303-21;
HEADER;
FILE_DESCRIPTION (( 'STEP AP214' ),
    '1' );
FILE_NAME ('User Library-SMDinductor.STEP',
    '2019-03-06T03:36:54',
    ( '' ),
    ( '' ),
    'SwSTEP 2.0',
    'SolidWorks 2019',
    '' );
FILE_SCHEMA (( 'AUTOMOTIVE_DESIGN' ));
ENDSEC;

DATA;
#1 = DIRECTION ( 'NONE',  ( 0.0000000000000000000, 0.0000000000000000000, 1.000000000000000000 ) ) ;
#2 = VECTOR ( 'NONE', #178, 1000.000000000000000 ) ;
#3 = ORIENTED_EDGE ( 'NONE', *, *, #637, .F. ) ;
#4 = ADVANCED_FACE ( 'NONE', ( #1049 ), #1140, .F. ) ;
#5 = CARTESIAN_POINT ( 'NONE',  ( 0.0000000000000000000, 0.0000000000000000000, -1.800000000000000711 ) ) ;
#6 = CARTESIAN_POINT ( 'NONE',  ( 0.0000000000000000000, 2.799999999999999822, -4.949999999999999289 ) ) ;
#7 = LINE ( 'NONE', #628, #839 ) ;
#8 = ORIENTED_EDGE ( 'NONE', *, *, #180, .T. ) ;
#9 = DIRECTION ( 'NONE',  ( 0.0000000000000000000, -1.000000000000000000, 0.0000000000000000000 ) ) ;
#10 = ORIENTED_EDGE ( 'NONE', *, *, #637, .T. ) ;
#11 = CARTESIAN_POINT ( 'NONE',  ( 0.0000000000000000000, 2.799999999999999822, 0.0000000000000000000 ) ) ;
#12 = EDGE_CURVE ( 'NONE', #985, #318, #416, .T. ) ;
#13 = SURFACE_STYLE_FILL_AREA ( #483 ) ;
#14 = CARTESIAN_POINT ( 'NONE',  ( 0.0000000000000000000, 2.799999999999999822, -4.949999999999999289 ) ) ;
#15 = ORIENTED_EDGE ( 'NONE', *, *, #12, .T. ) ;
#16 = CARTESIAN_POINT ( 'NONE',  ( -0.1000000000000000056, 1.399999999999999911, -3.400000000000000799 ) ) ;
#17 = VERTEX_POINT ( 'NONE', #608 ) ;
#18 = PRESENTATION_LAYER_ASSIGNMENT (  '', '', ( #303 ) ) ;
#19 = PRESENTATION_LAYER_ASSIGNMENT (  '', '', ( #541 ) ) ;
#20 = CARTESIAN_POINT ( 'NONE',  ( -0.1000000000000000056, 1.399999999999999911, -1.800000000000000711 ) ) ;
#21 = DIRECTION ( 'NONE',  ( 0.0000000000000000000, 0.0000000000000000000, 1.000000000000000000 ) ) ;
#22 = SURFACE_STYLE_FILL_AREA ( #751 ) ;
#23 = MECHANICAL_DESIGN_GEOMETRIC_PRESENTATION_REPRESENTATION (  '', ( #270 ), #563 ) ;
#24 = ORIENTED_EDGE ( 'NONE', *, *, #772, .T. ) ;
#25 = VECTOR ( 'NONE', #481, 1000.000000000000000 ) ;
#26 = DIRECTION ( 'NONE',  ( 0.0000000000000000000, -0.0000000000000000000, -1.000000000000000000 ) ) ;
#27 = VERTEX_POINT ( 'NONE', #240 ) ;
#28 =( LENGTH_UNIT ( ) NAMED_UNIT ( * ) SI_UNIT ( .MILLI., .METRE. ) );
#29 = PLANE ( 'NONE',  #841 ) ;
#30 = EDGE_LOOP ( 'NONE', ( #765, #871, #654, #1013 ) ) ;
#31 = DIRECTION ( 'NONE',  ( -1.000000000000000000, 0.0000000000000000000, -0.0000000000000000000 ) ) ;
#32 = EDGE_CURVE ( 'NONE', #17, #1076, #954, .T. ) ;
#33 = ORIENTED_EDGE ( 'NONE', *, *, #297, .F. ) ;
#34 = DIRECTION ( 'NONE',  ( 0.0000000000000000000, 0.0000000000000000000, 1.000000000000000000 ) ) ;
#35 = FILL_AREA_STYLE_COLOUR ( '', #928 ) ;
#36 =( LENGTH_UNIT ( ) NAMED_UNIT ( * ) SI_UNIT ( .MILLI., .METRE. ) );
#37 = SURFACE_STYLE_FILL_AREA ( #1127 ) ;
#38 = CARTESIAN_POINT ( 'NONE',  ( -0.1000000000000000056, 1.399999999999999911, -2.338810951952338346 ) ) ;
#39 = EDGE_CURVE ( 'NONE', #1174, #741, #1154, .T. ) ;
#40 = SURFACE_SIDE_STYLE ('',( #856 ) ) ;
#41 = VECTOR ( 'NONE', #1074, 1000.000000000000000 ) ;
#42 = AXIS2_PLACEMENT_3D ( 'NONE', #187, #1078, #993 ) ;
#43 = MANIFOLD_SOLID_BREP ( 'Mirror1', #1068 ) ;
#44 = ORIENTED_EDGE ( 'NONE', *, *, #729, .F. ) ;
#45 = PLANE ( 'NONE',  #141 ) ;
#46 = ORIENTED_EDGE ( 'NONE', *, *, #1023, .F. ) ;
#47 =( NAMED_UNIT ( * ) PLANE_ANGLE_UNIT ( ) SI_UNIT ( $, .RADIAN. ) );
#48 = DIRECTION ( 'NONE',  ( -0.0000000000000000000, -0.0000000000000000000, 1.000000000000000000 ) ) ;
#49 = EDGE_CURVE ( 'NONE', #649, #1026, #974, .T. ) ;
#50 = SURFACE_STYLE_USAGE ( .BOTH. , #599 ) ;
#51 = DIRECTION ( 'NONE',  ( 0.0000000000000000000, -1.000000000000000000, -0.0000000000000000000 ) ) ;
#52 = EDGE_LOOP ( 'NONE', ( #811, #148, #833, #989 ) ) ;
#53 =( LENGTH_UNIT ( ) NAMED_UNIT ( * ) SI_UNIT ( .MILLI., .METRE. ) );
#54 = DIRECTION ( 'NONE',  ( 0.0000000000000000000, 0.0000000000000000000, -1.000000000000000000 ) ) ;
#55 = ADVANCED_FACE ( 'NONE', ( #960 ), #320, .F. ) ;
#56 = PLANE ( 'NONE',  #1010 ) ;
#57 = CARTESIAN_POINT ( 'NONE',  ( -0.001000000000000132727, 1.399999999999999911, -2.338810951952338346 ) ) ;
#58 = VERTEX_POINT ( 'NONE', #773 ) ;
#59 = CYLINDRICAL_SURFACE ( 'NONE', #234, 0.2500000000000000000 ) ;
#60 = VECTOR ( 'NONE', #85, 1000.000000000000000 ) ;
#61 = VERTEX_POINT ( 'NONE', #233 ) ;
#62 = STYLED_ITEM ( 'NONE', ( #130 ), #524 ) ;
#63 = ORIENTED_EDGE ( 'NONE', *, *, #90, .T. ) ;
#64 = DIRECTION ( 'NONE',  ( 0.0000000000000000000, -1.000000000000000000, -0.0000000000000000000 ) ) ;
#65 = CIRCLE ( 'NONE', #579, 0.2500000000000002220 ) ;
#66 = DIRECTION ( 'NONE',  ( 1.000000000000000000, 0.0000000000000000000, 0.0000000000000000000 ) ) ;
#67 = CARTESIAN_POINT ( 'NONE',  ( -0.1000000000000000056, -0.1000000000000000056, -3.400000000000000799 ) ) ;
#68 = CARTESIAN_POINT ( 'NONE',  ( 1.099999999999999867, 0.0000000000000000000, -1.800000000000000711 ) ) ;
#69 = ORIENTED_EDGE ( 'NONE', *, *, #226, .F. ) ;
#70 = EDGE_CURVE ( 'NONE', #1179, #536, #601, .T. ) ;
#71 = DIRECTION ( 'NONE',  ( -0.0000000000000000000, -1.000000000000000000, -0.0000000000000000000 ) ) ;
#72 = CARTESIAN_POINT ( 'NONE',  ( 0.0000000000000000000, 0.0000000000000000000, 0.0000000000000000000 ) ) ;
#73 = ORIENTED_EDGE ( 'NONE', *, *, #456, .F. ) ;
#74 = PRODUCT_RELATED_PRODUCT_CATEGORY ( 'part', '', ( #92 ) ) ;
#75 = DIRECTION ( 'NONE',  ( 0.0000000000000000000, 0.0000000000000000000, 1.000000000000000000 ) ) ;
#76 = LINE ( 'NONE', #442, #1147 ) ;
#77 = DIRECTION ( 'NONE',  ( 0.0000000000000000000, 0.0000000000000000000, -1.000000000000000000 ) ) ;
#78 = VECTOR ( 'NONE', #346, 1000.000000000000000 ) ;
#79 = VERTEX_POINT ( 'NONE', #1058 ) ;
#80 = CIRCLE ( 'NONE', #306, 0.2500000000000002220 ) ;
#81 =( GEOMETRIC_REPRESENTATION_CONTEXT ( 3 ) GLOBAL_UNCERTAINTY_ASSIGNED_CONTEXT ( ( #903 ) ) GLOBAL_UNIT_ASSIGNED_CONTEXT ( ( #155, #678, #613 ) ) REPRESENTATION_CONTEXT ( 'NONE', 'WORKASPACE' ) );
#82 = VECTOR ( 'NONE', #225, 1000.000000000000000 ) ;
#83 = CARTESIAN_POINT ( 'NONE',  ( -0.1000000000000000056, 1.399999999999999911, -2.861189048047663164 ) ) ;
#84 = ADVANCED_FACE ( 'NONE', ( #970 ), #152, .T. ) ;
#85 = DIRECTION ( 'NONE',  ( -1.000000000000000000, -0.0000000000000000000, -0.0000000000000000000 ) ) ;
#86 = EDGE_LOOP ( 'NONE', ( #638, #302, #556, #384 ) ) ;
#87 = LINE ( 'NONE', #930, #25 ) ;
#88 = CARTESIAN_POINT ( 'NONE',  ( 0.2500000000000000000, 0.0000000000000000000, 0.0000000000000000000 ) ) ;
#89 = DIRECTION ( 'NONE',  ( 0.0000000000000000000, 0.0000000000000000000, -1.000000000000000000 ) ) ;
#90 = EDGE_CURVE ( 'NONE', #957, #1114, #1018, .T. ) ;
#91 = ORIENTED_EDGE ( 'NONE', *, *, #32, .F. ) ;
#92 = PRODUCT ( 'User Library-SMDinductor', 'User Library-SMDinductor', '', ( #936 ) ) ;
#93 = CARTESIAN_POINT ( 'NONE',  ( 0.0000000000000000000, 2.799999999999999822, -5.200000000000000178 ) ) ;
#94 = DIRECTION ( 'NONE',  ( 0.0000000000000000000, -1.000000000000000000, 0.0000000000000000000 ) ) ;
#95 = VERTEX_POINT ( 'NONE', #1083 ) ;
#96 = EDGE_CURVE ( 'NONE', #985, #95, #175, .T. ) ;
#97 = VECTOR ( 'NONE', #1057, 1000.000000000000000 ) ;
#98 = VECTOR ( 'NONE', #1163, 1000.000000000000000 ) ;
#99 = DIRECTION ( 'NONE',  ( 0.0000000000000000000, 0.0000000000000000000, 1.000000000000000000 ) ) ;
#100 = VECTOR ( 'NONE', #849, 1000.000000000000000 ) ;
#101 = DIRECTION ( 'NONE',  ( -0.0000000000000000000, 1.000000000000000000, -0.0000000000000000000 ) ) ;
#102 = CARTESIAN_POINT ( 'NONE',  ( 4.599999999999999645, -0.1000000000000000056, -3.400000000000000799 ) ) ;
#103 = ORIENTED_EDGE ( 'NONE', *, *, #1148, .F. ) ;
#104 = ORIENTED_EDGE ( 'NONE', *, *, #1132, .T. ) ;
#105 = EDGE_CURVE ( 'NONE', #281, #468, #622, .T. ) ;
#106 =( NAMED_UNIT ( * ) PLANE_ANGLE_UNIT ( ) SI_UNIT ( $, .RADIAN. ) );
#107 = DIRECTION ( 'NONE',  ( 1.000000000000000000, 0.0000000000000000000, 0.0000000000000000000 ) ) ;
#108 = DIRECTION ( 'NONE',  ( 1.000000000000000000, -0.0000000000000000000, -0.0000000000000000000 ) ) ;
#109 = EDGE_LOOP ( 'NONE', ( #754, #103, #123, #605 ) ) ;
#110 = CARTESIAN_POINT ( 'NONE',  ( -0.1000000000000000056, 1.399999999999999911, -1.800000000000000711 ) ) ;
#111 = LINE ( 'NONE', #199, #921 ) ;
#112 = LINE ( 'NONE', #119, #846 ) ;
#113 = ORIENTED_EDGE ( 'NONE', *, *, #829, .F. ) ;
#114 = CARTESIAN_POINT ( 'NONE',  ( 0.0000000000000000000, 1.399999999999999911, -2.861189048047663164 ) ) ;
#115 = EDGE_LOOP ( 'NONE', ( #189, #623, #1092, #1017 ) ) ;
#116 = CIRCLE ( 'NONE', #265, 0.2500000000000000000 ) ;
#117 = CARTESIAN_POINT ( 'NONE',  ( -0.1000000000000000056, 1.399999999999999911, -1.800000000000000711 ) ) ;
#118 =( GEOMETRIC_REPRESENTATION_CONTEXT ( 3 ) GLOBAL_UNCERTAINTY_ASSIGNED_CONTEXT ( ( #351 ) ) GLOBAL_UNIT_ASSIGNED_CONTEXT ( ( #36, #312, #572 ) ) REPRESENTATION_CONTEXT ( 'NONE', 'WORKASPACE' ) );
#119 = CARTESIAN_POINT ( 'NONE',  ( 5.700000000000000178, 2.799999999999999822, 0.0000000000000000000 ) ) ;
#120 = EDGE_CURVE ( 'NONE', #460, #617, #907, .T. ) ;
#121 = VERTEX_POINT ( 'NONE', #716 ) ;
#122 = DIRECTION ( 'NONE',  ( 0.0000000000000000000, 1.000000000000000000, 0.0000000000000000000 ) ) ;
#123 = ORIENTED_EDGE ( 'NONE', *, *, #597, .F. ) ;
#124 = LINE ( 'NONE', #517, #762 ) ;
#125 = FACE_OUTER_BOUND ( 'NONE', #584, .T. ) ;
#126 = VERTEX_POINT ( 'NONE', #898 ) ;
#127 = ADVANCED_FACE ( 'NONE', ( #735 ), #1178, .F. ) ;
#128 = FACE_OUTER_BOUND ( 'NONE', #429, .T. ) ;
#129 = LINE ( 'NONE', #1144, #544 ) ;
#130 = PRESENTATION_STYLE_ASSIGNMENT (( #656 ) ) ;
#131 = ORIENTED_EDGE ( 'NONE', *, *, #1186, .T. ) ;
#132 = CARTESIAN_POINT ( 'NONE',  ( 5.450000000000000178, 2.799999999999999822, -4.949999999999999289 ) ) ;
#133 = ORIENTED_EDGE ( 'NONE', *, *, #1132, .F. ) ;
#134 = PLANE ( 'NONE',  #684 ) ;
#135 = ADVANCED_FACE ( 'NONE', ( #166 ), #1173, .F. ) ;
#136 = VECTOR ( 'NONE', #77, 1000.000000000000000 ) ;
#137 = FACE_OUTER_BOUND ( 'NONE', #341, .T. ) ;
#138 = VECTOR ( 'NONE', #683, 1000.000000000000000 ) ;
#139 = FILL_AREA_STYLE ('',( #877 ) ) ;
#140 = CARTESIAN_POINT ( 'NONE',  ( 5.800000000000000711, 1.399999999999999911, -1.800000000000000711 ) ) ;
#141 = AXIS2_PLACEMENT_3D ( 'NONE', #1136, #411, #396 ) ;
#142 = ORIENTED_EDGE ( 'NONE', *, *, #120, .F. ) ;
#143 = DIRECTION ( 'NONE',  ( -1.000000000000000000, -0.0000000000000000000, -0.0000000000000000000 ) ) ;
#144 = ADVANCED_FACE ( 'NONE', ( #913 ), #260, .F. ) ;
#145 = FILL_AREA_STYLE ('',( #686 ) ) ;
#146 = PLANE ( 'NONE',  #781 ) ;
#147 = CARTESIAN_POINT ( 'NONE',  ( 5.800000000000000711, 1.399999999999999911, -3.400000000000000799 ) ) ;
#148 = ORIENTED_EDGE ( 'NONE', *, *, #39, .T. ) ;
#149 = CARTESIAN_POINT ( 'NONE',  ( 5.700000000000000178, -0.1000000000000000056, 0.0000000000000000000 ) ) ;
#150 = FILL_AREA_STYLE_COLOUR ( '', #387 ) ;
#151 =( NAMED_UNIT ( * ) SI_UNIT ( $, .STERADIAN. ) SOLID_ANGLE_UNIT ( ) );
#152 = PLANE ( 'NONE',  #860 ) ;
#153 = VERTEX_POINT ( 'NONE', #700 ) ;
#154 = VECTOR ( 'NONE', #51, 1000.000000000000000 ) ;
#155 =( LENGTH_UNIT ( ) NAMED_UNIT ( * ) SI_UNIT ( .MILLI., .METRE. ) );
#156 = SURFACE_STYLE_USAGE ( .BOTH. , #710 ) ;
#157 = COLOUR_RGB ( '',0.9686274509803921573, 0.8784313725490195957, 0.5999999999999999778 ) ;
#158 = VERTEX_POINT ( 'NONE', #996 ) ;
#159 = ADVANCED_FACE ( 'NONE', ( #830 ), #1067, .F. ) ;
#160 = VECTOR ( 'NONE', #48, 1000.000000000000000 ) ;
#161 = ORIENTED_EDGE ( 'NONE', *, *, #719, .F. ) ;
#162 =( GEOMETRIC_REPRESENTATION_CONTEXT ( 3 ) GLOBAL_UNCERTAINTY_ASSIGNED_CONTEXT ( ( #1077 ) ) GLOBAL_UNIT_ASSIGNED_CONTEXT ( ( #248, #610, #523 ) ) REPRESENTATION_CONTEXT ( 'NONE', 'WORKASPACE' ) );
#163 = UNCERTAINTY_MEASURE_WITH_UNIT (LENGTH_MEASURE( 1.000000000000000082E-05 ), #1079, 'distance_accuracy_value', 'NONE');
#164 = CARTESIAN_POINT ( 'NONE',  ( 0.0000000000000000000, 1.399999999999999911, -1.800000000000000711 ) ) ;
#165 = FACE_OUTER_BOUND ( 'NONE', #950, .T. ) ;
#166 = FACE_OUTER_BOUND ( 'NONE', #203, .T. ) ;
#167 = EDGE_CURVE ( 'NONE', #153, #58, #1165, .T. ) ;
#168 = VERTEX_POINT ( 'NONE', #255 ) ;
#169 = CARTESIAN_POINT ( 'NONE',  ( 0.0000000000000000000, 1.399999999999999911, -1.800000000000000711 ) ) ;
#170 = CARTESIAN_POINT ( 'NONE',  ( -0.1000000000000000056, 1.399999999999999911, -1.800000000000000711 ) ) ;
#171 = VERTEX_POINT ( 'NONE', #619 ) ;
#172 = EDGE_CURVE ( 'NONE', #630, #1130, #1166, .T. ) ;
#173 = CARTESIAN_POINT ( 'NONE',  ( 0.0000000000000000000, 1.007425377110848785, -2.338810951952338346 ) ) ;
#174 = LINE ( 'NONE', #1005, #991 ) ;
#175 = LINE ( 'NONE', #531, #505 ) ;
#176 = ORIENTED_EDGE ( 'NONE', *, *, #105, .F. ) ;
#177 = AXIS2_PLACEMENT_3D ( 'NONE', #958, #307, #586 ) ;
#178 = DIRECTION ( 'NONE',  ( 0.0000000000000000000, 1.000000000000000000, 0.0000000000000000000 ) ) ;
#179 = VECTOR ( 'NONE', #648, 1000.000000000000000 ) ;
#180 = EDGE_CURVE ( 'NONE', #247, #95, #837, .T. ) ;
#181 = CARTESIAN_POINT ( 'NONE',  ( 0.0000000000000000000, 1.399999999999999911, -1.800000000000000711 ) ) ;
#182 = DIRECTION ( 'NONE',  ( -1.000000000000000000, -0.0000000000000000000, -0.0000000000000000000 ) ) ;
#183 = DIRECTION ( 'NONE',  ( 0.0000000000000000000, 0.0000000000000000000, 1.000000000000000000 ) ) ;
#184 = ORIENTED_EDGE ( 'NONE', *, *, #1162, .F. ) ;
#185 = CARTESIAN_POINT ( 'NONE',  ( 0.2500000000000000000, 2.799999999999999822, -0.2500000000000000000 ) ) ;
#186 = ORIENTED_EDGE ( 'NONE', *, *, #422, .F. ) ;
#187 = CARTESIAN_POINT ( 'NONE',  ( 5.800000000000000711, 1.399999999999999911, -1.800000000000000711 ) ) ;
#188 = PLANE ( 'NONE',  #759 ) ;
#189 = ORIENTED_EDGE ( 'NONE', *, *, #120, .T. ) ;
#190 = EDGE_CURVE ( 'NONE', #1114, #281, #111, .T. ) ;
#191 = MECHANICAL_DESIGN_GEOMETRIC_PRESENTATION_REPRESENTATION (  '', ( #541 ), #343 ) ;
#192 = ORIENTED_EDGE ( 'NONE', *, *, #519, .F. ) ;
#193 = VECTOR ( 'NONE', #603, 1000.000000000000000 ) ;
#194 = PRODUCT_DEFINITION_CONTEXT ( 'detailed design', #363, 'design' ) ;
#195 = MECHANICAL_DESIGN_GEOMETRIC_PRESENTATION_REPRESENTATION (  '', ( #1151 ), #81 ) ;
#196 = CARTESIAN_POINT ( 'NONE',  ( 5.800000000000000711, 1.399999999999999911, -1.800000000000000711 ) ) ;
#197 = VERTEX_POINT ( 'NONE', #480 ) ;
#198 = CARTESIAN_POINT ( 'NONE',  ( 0.0000000000000000000, 1.399999999999999911, -2.338810951952338346 ) ) ;
#199 = CARTESIAN_POINT ( 'NONE',  ( -0.1000000000000000056, 1.399999999999999911, -1.800000000000000711 ) ) ;
#200 = APPLICATION_PROTOCOL_DEFINITION ( 'draft international standard', 'automotive_design', 1998, #514 ) ;
#201 = ORIENTED_EDGE ( 'NONE', *, *, #32, .T. ) ;
#202 = FACE_OUTER_BOUND ( 'NONE', #634, .T. ) ;
#203 = EDGE_LOOP ( 'NONE', ( #893, #669, #1002, #1135, #1032, #421 ) ) ;
#204 = EDGE_CURVE ( 'NONE', #1114, #220, #745, .T. ) ;
#205 = FACE_OUTER_BOUND ( 'NONE', #266, .T. ) ;
#206 = ORIENTED_EDGE ( 'NONE', *, *, #242, .T. ) ;
#207 = LINE ( 'NONE', #488, #212 ) ;
#208 = ORIENTED_EDGE ( 'NONE', *, *, #1044, .F. ) ;
#209 = CARTESIAN_POINT ( 'NONE',  ( 5.800000000000000711, -0.1000000000000000056, -3.400000000000000799 ) ) ;
#210 = EDGE_CURVE ( 'NONE', #27, #1102, #1066, .T. ) ;
#211 = CARTESIAN_POINT ( 'NONE',  ( 0.0000000000000000000, 0.0000000000000000000, 0.0000000000000000000 ) ) ;
#212 = VECTOR ( 'NONE', #478, 1000.000000000000000 ) ;
#213 = ORIENTED_EDGE ( 'NONE', *, *, #982, .T. ) ;
#214 = DIRECTION ( 'NONE',  ( 0.0000000000000000000, -1.000000000000000000, 0.0000000000000000000 ) ) ;
#215 = ORIENTED_EDGE ( 'NONE', *, *, #1087, .F. ) ;
#216 = LINE ( 'NONE', #677, #629 ) ;
#217 = DIRECTION ( 'NONE',  ( -1.000000000000000000, 0.0000000000000000000, 0.0000000000000000000 ) ) ;
#218 = ADVANCED_FACE ( 'NONE', ( #165 ), #353, .T. ) ;
#219 = CARTESIAN_POINT ( 'NONE',  ( -0.1000000000000000056, 1.399999999999999911, -1.800000000000000711 ) ) ;
#220 = VERTEX_POINT ( 'NONE', #169 ) ;
#221 = CARTESIAN_POINT ( 'NONE',  ( 4.599999999999999645, 0.0000000000000000000, -1.800000000000000711 ) ) ;
#222 = DIRECTION ( 'NONE',  ( -0.0000000000000000000, -1.000000000000000000, 0.0000000000000000000 ) ) ;
#223 = DIRECTION ( 'NONE',  ( 1.000000000000000000, -0.0000000000000000000, -0.0000000000000000000 ) ) ;
#224 = CARTESIAN_POINT ( 'NONE',  ( 0.0000000000000000000, 1.007425377110848785, -2.861189048047663164 ) ) ;
#225 = DIRECTION ( 'NONE',  ( -1.000000000000000000, 0.0000000000000000000, 0.0000000000000000000 ) ) ;
#226 = EDGE_CURVE ( 'NONE', #546, #336, #688, .T. ) ;
#227 = VERTEX_POINT ( 'NONE', #886 ) ;
#228 = PLANE ( 'NONE',  #861 ) ;
#229 = VECTOR ( 'NONE', #410, 1000.000000000000000 ) ;
#230 = VECTOR ( 'NONE', #71, 1000.000000000000000 ) ;
#231 = AXIS2_PLACEMENT_3D ( 'NONE', #93, #99, #274 ) ;
#232 = DIRECTION ( 'NONE',  ( 0.0000000000000000000, 0.0000000000000000000, 1.000000000000000000 ) ) ;
#233 = CARTESIAN_POINT ( 'NONE',  ( 0.2500000000000000000, 2.799999999999999822, -5.200000000000000178 ) ) ;
#234 = AXIS2_PLACEMENT_3D ( 'NONE', #1156, #606, #1150 ) ;
#235 = VECTOR ( 'NONE', #9, 1000.000000000000000 ) ;
#236 = ORIENTED_EDGE ( 'NONE', *, *, #345, .T. ) ;
#237 = LINE ( 'NONE', #509, #783 ) ;
#238 =( LENGTH_UNIT ( ) NAMED_UNIT ( * ) SI_UNIT ( .MILLI., .METRE. ) );
#239 = DIRECTION ( 'NONE',  ( 0.0000000000000000000, 0.0000000000000000000, 1.000000000000000000 ) ) ;
#240 = CARTESIAN_POINT ( 'NONE',  ( 5.450000000000000178, 0.0000000000000000000, -5.200000000000000178 ) ) ;
#241 = ORIENTED_EDGE ( 'NONE', *, *, #262, .F. ) ;
#242 = EDGE_CURVE ( 'NONE', #881, #566, #702, .T. ) ;
#243 = UNCERTAINTY_MEASURE_WITH_UNIT (LENGTH_MEASURE( 1.000000000000000082E-05 ), #28, 'distance_accuracy_value', 'NONE');
#244 = SURFACE_SIDE_STYLE ('',( #673 ) ) ;
#245 = CARTESIAN_POINT ( 'NONE',  ( 0.0000000000000000000, 1.399999999999999911, -2.338810951952338346 ) ) ;
#246 = DIRECTION ( 'NONE',  ( 1.000000000000000000, -0.0000000000000000000, 0.0000000000000000000 ) ) ;
#247 = VERTEX_POINT ( 'NONE', #878 ) ;
#248 =( LENGTH_UNIT ( ) NAMED_UNIT ( * ) SI_UNIT ( .MILLI., .METRE. ) );
#249 = EDGE_CURVE ( 'NONE', #79, #1174, #614, .T. ) ;
#250 = DIRECTION ( 'NONE',  ( 0.0000000000000000000, 0.0000000000000000000, -1.000000000000000000 ) ) ;
#251 = DIRECTION ( 'NONE',  ( -0.0000000000000000000, -0.0000000000000000000, -1.000000000000000000 ) ) ;
#252 = ORIENTED_EDGE ( 'NONE', *, *, #764, .T. ) ;
#253 = UNCERTAINTY_MEASURE_WITH_UNIT (LENGTH_MEASURE( 1.000000000000000082E-05 ), #727, 'distance_accuracy_value', 'NONE');
#254 = LINE ( 'NONE', #453, #1126 ) ;
#255 = CARTESIAN_POINT ( 'NONE',  ( 0.0000000000000000000, 0.0000000000000000000, -4.949999999999999289 ) ) ;
#256 = ORIENTED_EDGE ( 'NONE', *, *, #597, .T. ) ;
#257 = EDGE_CURVE ( 'NONE', #932, #468, #973, .T. ) ;
#258 = CARTESIAN_POINT ( 'NONE',  ( 5.800000000000000711, 1.399999999999999911, -2.861189048047663164 ) ) ;
#259 =( NAMED_UNIT ( * ) PLANE_ANGLE_UNIT ( ) SI_UNIT ( $, .RADIAN. ) );
#260 = PLANE ( 'NONE',  #595 ) ;
#261 = ORIENTED_EDGE ( 'NONE', *, *, #1180, .F. ) ;
#262 = EDGE_CURVE ( 'NONE', #594, #58, #76, .T. ) ;
#263 = FACE_OUTER_BOUND ( 'NONE', #842, .T. ) ;
#264 = DIRECTION ( 'NONE',  ( -0.0000000000000000000, -0.0000000000000000000, 1.000000000000000000 ) ) ;
#265 = AXIS2_PLACEMENT_3D ( 'NONE', #185, #272, #633 ) ;
#266 = EDGE_LOOP ( 'NONE', ( #752, #976, #15, #360, #470, #582 ) ) ;
#267 = CARTESIAN_POINT ( 'NONE',  ( 5.700000000000000178, 1.399999999999999911, -2.861189048047663164 ) ) ;
#268 = VECTOR ( 'NONE', #596, 1000.000000000000000 ) ;
#269 = DIRECTION ( 'NONE',  ( 0.0000000000000000000, -0.0000000000000000000, -1.000000000000000000 ) ) ;
#270 = STYLED_ITEM ( 'NONE', ( #872 ), #858 ) ;
#271 = DIRECTION ( 'NONE',  ( 0.0000000000000000000, 0.0000000000000000000, -1.000000000000000000 ) ) ;
#272 = DIRECTION ( 'NONE',  ( -0.0000000000000000000, 1.000000000000000000, -0.0000000000000000000 ) ) ;
#273 = EDGE_LOOP ( 'NONE', ( #1035, #723, #236, #213, #289, #761, #863, #381 ) ) ;
#274 = DIRECTION ( 'NONE',  ( 1.000000000000000000, 0.0000000000000000000, -0.0000000000000000000 ) ) ;
#275 = ADVANCED_FACE ( 'NONE', ( #604 ), #146, .F. ) ;
#276 = FACE_OUTER_BOUND ( 'NONE', #489, .T. ) ;
#277 = ORIENTED_EDGE ( 'NONE', *, *, #749, .F. ) ;
#278 = CARTESIAN_POINT ( 'NONE',  ( 5.700000000000000178, 1.399999999999999911, 0.0000000000000000000 ) ) ;
#279 = LINE ( 'NONE', #1107, #574 ) ;
#280 = PRODUCT_DEFINITION ( 'UNKNOWN', '', #1170, #194 ) ;
#281 = VERTEX_POINT ( 'NONE', #790 ) ;
#282 = AXIS2_PLACEMENT_3D ( 'NONE', #11, #377, #797 ) ;
#283 = ORIENTED_EDGE ( 'NONE', *, *, #1060, .T. ) ;
#284 =( GEOMETRIC_REPRESENTATION_CONTEXT ( 3 ) GLOBAL_UNCERTAINTY_ASSIGNED_CONTEXT ( ( #253 ) ) GLOBAL_UNIT_ASSIGNED_CONTEXT ( ( #727, #484, #492 ) ) REPRESENTATION_CONTEXT ( 'NONE', 'WORKASPACE' ) );
#285 = DIRECTION ( 'NONE',  ( -0.0000000000000000000, -0.0000000000000000000, 1.000000000000000000 ) ) ;
#286 = VECTOR ( 'NONE', #955, 1000.000000000000000 ) ;
#287 = CARTESIAN_POINT ( 'NONE',  ( -0.1000000000000000056, 1.399999999999999911, -2.338810951952338346 ) ) ;
#288 = FILL_AREA_STYLE_COLOUR ( '', #529 ) ;
#289 = ORIENTED_EDGE ( 'NONE', *, *, #439, .T. ) ;
#290 = LINE ( 'NONE', #392, #448 ) ;
#291 = ADVANCED_FACE ( 'NONE', ( #420 ), #56, .F. ) ;
#292 = ORIENTED_EDGE ( 'NONE', *, *, #1093, .T. ) ;
#293 = DIRECTION ( 'NONE',  ( 0.0000000000000000000, -1.000000000000000000, 0.0000000000000000000 ) ) ;
#294 = ORIENTED_EDGE ( 'NONE', *, *, #956, .T. ) ;
#295 = DIRECTION ( 'NONE',  ( 0.0000000000000000000, 1.000000000000000000, 0.0000000000000000000 ) ) ;
#296 = ORIENTED_EDGE ( 'NONE', *, *, #314, .T. ) ;
#297 = EDGE_CURVE ( 'NONE', #566, #27, #979, .T. ) ;
#298 = CARTESIAN_POINT ( 'NONE',  ( 0.0000000000000000000, 1.399999999999999911, -2.861189048047663164 ) ) ;
#299 = DIRECTION ( 'NONE',  ( 0.0000000000000000000, 0.0000000000000000000, -1.000000000000000000 ) ) ;
#300 = EDGE_LOOP ( 'NONE', ( #322, #10, #966, #1121 ) ) ;
#301 = DIRECTION ( 'NONE',  ( -0.0000000000000000000, 1.000000000000000000, -0.0000000000000000000 ) ) ;
#302 = ORIENTED_EDGE ( 'NONE', *, *, #755, .F. ) ;
#303 = STYLED_ITEM ( 'NONE', ( #695 ), #43 ) ;
#304 = FACE_OUTER_BOUND ( 'NONE', #493, .T. ) ;
#305 = VECTOR ( 'NONE', #108, 1000.000000000000000 ) ;
#306 = AXIS2_PLACEMENT_3D ( 'NONE', #414, #667, #568 ) ;
#307 = DIRECTION ( 'NONE',  ( 0.0000000000000000000, 1.000000000000000000, 0.0000000000000000000 ) ) ;
#308 =( LENGTH_UNIT ( ) NAMED_UNIT ( * ) SI_UNIT ( .MILLI., .METRE. ) );
#309 = CARTESIAN_POINT ( 'NONE',  ( 0.0000000000000000000, 0.0000000000000000000, 0.0000000000000000000 ) ) ;
#310 = VERTEX_POINT ( 'NONE', #694 ) ;
#311 = FACE_OUTER_BOUND ( 'NONE', #300, .T. ) ;
#312 =( NAMED_UNIT ( * ) PLANE_ANGLE_UNIT ( ) SI_UNIT ( $, .RADIAN. ) );
#313 = FILL_AREA_STYLE ('',( #150 ) ) ;
#314 = EDGE_CURVE ( 'NONE', #888, #620, #340, .T. ) ;
#315 = CARTESIAN_POINT ( 'NONE',  ( -0.1000000000000000056, 1.007425377110848785, -2.861189048047663164 ) ) ;
#316 = LINE ( 'NONE', #224, #512 ) ;
#317 = LINE ( 'NONE', #748, #866 ) ;
#318 = VERTEX_POINT ( 'NONE', #897 ) ;
#319 = LINE ( 'NONE', #164, #463 ) ;
#320 = PLANE ( 'NONE',  #736 ) ;
#321 = PLANE ( 'NONE',  #1055 ) ;
#322 = ORIENTED_EDGE ( 'NONE', *, *, #249, .F. ) ;
#323 = VECTOR ( 'NONE', #251, 1000.000000000000000 ) ;
#324 = VECTOR ( 'NONE', #386, 1000.000000000000000 ) ;
#325 = COLOUR_RGB ( '',0.9686274509803921573, 0.8784313725490195957, 0.5999999999999999778 ) ;
#326 = FACE_OUTER_BOUND ( 'NONE', #273, .T. ) ;
#327 = DIRECTION ( 'NONE',  ( 1.000000000000000000, -0.0000000000000000000, 0.0000000000000000000 ) ) ;
#328 = CARTESIAN_POINT ( 'NONE',  ( 5.700000000000000178, 2.799999999999999822, -0.2500000000000000000 ) ) ;
#329 = DIRECTION ( 'NONE',  ( -1.000000000000000000, 0.0000000000000000000, 0.0000000000000000000 ) ) ;
#330 = VECTOR ( 'NONE', #737, 1000.000000000000000 ) ;
#331 = ORIENTED_EDGE ( 'NONE', *, *, #508, .T. ) ;
#332 = DIRECTION ( 'NONE',  ( -0.0000000000000000000, 0.0000000000000000000, -1.000000000000000000 ) ) ;
#333 = EDGE_CURVE ( 'NONE', #712, #881, #7, .T. ) ;
#334 = DIRECTION ( 'NONE',  ( 0.0000000000000000000, 0.0000000000000000000, -1.000000000000000000 ) ) ;
#335 = SURFACE_STYLE_USAGE ( .BOTH. , #879 ) ;
#336 = VERTEX_POINT ( 'NONE', #1000 ) ;
#337 = FILL_AREA_STYLE_COLOUR ( '', #367 ) ;
#338 = EDGE_CURVE ( 'NONE', #375, #591, #1098, .T. ) ;
#339 = PRODUCT_DEFINITION_SHAPE ( 'NONE', 'NONE',  #280 ) ;
#340 = LINE ( 'NONE', #245, #626 ) ;
#341 = EDGE_LOOP ( 'NONE', ( #1039, #201, #815, #1143, #1059, #844 ) ) ;
#342 = SURFACE_STYLE_USAGE ( .BOTH. , #697 ) ;
#343 =( GEOMETRIC_REPRESENTATION_CONTEXT ( 3 ) GLOBAL_UNCERTAINTY_ASSIGNED_CONTEXT ( ( #163 ) ) GLOBAL_UNIT_ASSIGNED_CONTEXT ( ( #1079, #259, #151 ) ) REPRESENTATION_CONTEXT ( 'NONE', 'WORKASPACE' ) );
#344 = CARTESIAN_POINT ( 'NONE',  ( 0.0000000000000000000, 2.799999999999999822, -0.2500000000000000000 ) ) ;
#345 = EDGE_CURVE ( 'NONE', #336, #17, #925, .T. ) ;
#346 = DIRECTION ( 'NONE',  ( -1.000000000000000000, -0.0000000000000000000, -0.0000000000000000000 ) ) ;
#347 = COLOUR_RGB ( '',0.9686274509803921573, 0.8784313725490195957, 0.5999999999999999778 ) ;
#348 = ORIENTED_EDGE ( 'NONE', *, *, #338, .T. ) ;
#349 = CIRCLE ( 'NONE', #1129, 0.2500000000000002220 ) ;
#350 = AXIS2_PLACEMENT_3D ( 'NONE', #1128, #122, #1040 ) ;
#351 = UNCERTAINTY_MEASURE_WITH_UNIT (LENGTH_MEASURE( 1.000000000000000082E-05 ), #36, 'distance_accuracy_value', 'NONE');
#352 = CARTESIAN_POINT ( 'NONE',  ( 5.450000000000000178, 0.0000000000000000000, -0.2500000000000000000 ) ) ;
#353 = CYLINDRICAL_SURFACE ( 'NONE', #382, 0.2500000000000000000 ) ;
#354 = FILL_AREA_STYLE ('',( #892 ) ) ;
#355 = EDGE_CURVE ( 'NONE', #227, #79, #174, .T. ) ;
#356 = ORIENTED_EDGE ( 'NONE', *, *, #210, .F. ) ;
#357 = CARTESIAN_POINT ( 'NONE',  ( 5.700000000000000178, 0.0000000000000000000, -3.400000000000000799 ) ) ;
#358 = LINE ( 'NONE', #731, #364 ) ;
#359 = CARTESIAN_POINT ( 'NONE',  ( 5.700000000000000178, 1.399999999999999911, -1.800000000000000711 ) ) ;
#360 = ORIENTED_EDGE ( 'NONE', *, *, #674, .T. ) ;
#361 = DIRECTION ( 'NONE',  ( 0.0000000000000000000, -1.000000000000000000, 0.0000000000000000000 ) ) ;
#362 = DIRECTION ( 'NONE',  ( -1.000000000000000000, -0.0000000000000000000, -0.0000000000000000000 ) ) ;
#363 = APPLICATION_CONTEXT ( 'automotive_design' ) ;
#364 = VECTOR ( 'NONE', #1082, 1000.000000000000000 ) ;
#365 = EDGE_LOOP ( 'NONE', ( #828, #91, #452, #927 ) ) ;
#366 = CARTESIAN_POINT ( 'NONE',  ( 5.800000000000000711, 1.399999999999999911, -1.800000000000000711 ) ) ;
#367 = COLOUR_RGB ( '',0.9686274509803921573, 0.8784313725490195957, 0.5999999999999999778 ) ;
#368 = EDGE_CURVE ( 'NONE', #58, #1179, #487, .T. ) ;
#369 = CARTESIAN_POINT ( 'NONE',  ( 5.700000000000000178, 2.799999999999999822, 0.0000000000000000000 ) ) ;
#370 = ORIENTED_EDGE ( 'NONE', *, *, #355, .F. ) ;
#371 = EDGE_CURVE ( 'NONE', #591, #153, #116, .T. ) ;
#372 = DIRECTION ( 'NONE',  ( 1.000000000000000000, -0.0000000000000000000, -0.0000000000000000000 ) ) ;
#373 =( NAMED_UNIT ( * ) SI_UNIT ( $, .STERADIAN. ) SOLID_ANGLE_UNIT ( ) );
#374 = CARTESIAN_POINT ( 'NONE',  ( 5.800000000000000711, -0.0000000000000000000, -1.800000000000000711 ) ) ;
#375 = VERTEX_POINT ( 'NONE', #14 ) ;
#376 = ORIENTED_EDGE ( 'NONE', *, *, #249, .T. ) ;
#377 = DIRECTION ( 'NONE',  ( 0.0000000000000000000, -1.000000000000000000, 0.0000000000000000000 ) ) ;
#378 = SURFACE_SIDE_STYLE ('',( #454 ) ) ;
#379 = EDGE_CURVE ( 'NONE', #566, #61, #565, .T. ) ;
#380 = CLOSED_SHELL ( 'NONE', ( #935, #291, #939, #472, #135, #55, #500, #655, #1016, #413, #127, #887 ) ) ;
#381 = ORIENTED_EDGE ( 'NONE', *, *, #581, .T. ) ;
#382 = AXIS2_PLACEMENT_3D ( 'NONE', #804, #607, #250 ) ;
#383 = CARTESIAN_POINT ( 'NONE',  ( 1.099999999999999867, -0.1000000000000000056, -1.800000000000000711 ) ) ;
#384 = ORIENTED_EDGE ( 'NONE', *, *, #674, .F. ) ;
#385 =( GEOMETRIC_REPRESENTATION_CONTEXT ( 3 ) GLOBAL_UNCERTAINTY_ASSIGNED_CONTEXT ( ( #670 ) ) GLOBAL_UNIT_ASSIGNED_CONTEXT ( ( #53, #47, #963 ) ) REPRESENTATION_CONTEXT ( 'NONE', 'WORKASPACE' ) );
#386 = DIRECTION ( 'NONE',  ( 1.000000000000000000, -0.0000000000000000000, -0.0000000000000000000 ) ) ;
#387 = COLOUR_RGB ( '',1.000000000000000000, 0.9490196078431372140, 0.8980392156862745390 ) ;
#388 = VECTOR ( 'NONE', #295, 1000.000000000000000 ) ;
#389 = APPLICATION_PROTOCOL_DEFINITION ( 'draft international standard', 'automotive_design', 1998, #363 ) ;
#390 = CARTESIAN_POINT ( 'NONE',  ( -0.1000000000000000056, -0.1000000000000000056, -3.400000000000000799 ) ) ;
#391 = VERTEX_POINT ( 'NONE', #995 ) ;
#392 = CARTESIAN_POINT ( 'NONE',  ( 5.800000000000000711, 1.399999999999999911, -1.800000000000000711 ) ) ;
#393 = ORIENTED_EDGE ( 'NONE', *, *, #665, .F. ) ;
#394 = CARTESIAN_POINT ( 'NONE',  ( 5.700000000000000178, 0.0000000000000000000, -0.2500000000000000000 ) ) ;
#395 = ORIENTED_EDGE ( 'NONE', *, *, #210, .T. ) ;
#396 = DIRECTION ( 'NONE',  ( -1.000000000000000000, 0.0000000000000000000, -0.0000000000000000000 ) ) ;
#397 = ORIENTED_EDGE ( 'NONE', *, *, #625, .T. ) ;
#398 = CARTESIAN_POINT ( 'NONE',  ( 5.800000000000000711, 1.007425377110848785, -2.861189048047663164 ) ) ;
#399 = SURFACE_STYLE_USAGE ( .BOTH. , #859 ) ;
#400 = CARTESIAN_POINT ( 'NONE',  ( 0.0000000000000000000, 2.799999999999999822, 0.0000000000000000000 ) ) ;
#401 = DIRECTION ( 'NONE',  ( -1.000000000000000000, -0.0000000000000000000, -0.0000000000000000000 ) ) ;
#402 = ORIENTED_EDGE ( 'NONE', *, *, #857, .T. ) ;
#403 = AXIS2_PLACEMENT_3D ( 'NONE', #984, #293, #650 ) ;
#404 = PLANE ( 'NONE',  #405 ) ;
#405 = AXIS2_PLACEMENT_3D ( 'NONE', #278, #1122, #497 ) ;
#406 = EDGE_CURVE ( 'NONE', #620, #1026, #279, .T. ) ;
#407 = VECTOR ( 'NONE', #1138, 1000.000000000000000 ) ;
#408 = PRESENTATION_STYLE_ASSIGNMENT (( #399 ) ) ;
#409 = MECHANICAL_DESIGN_GEOMETRIC_PRESENTATION_REPRESENTATION (  '', ( #1152 ), #664 ) ;
#410 = DIRECTION ( 'NONE',  ( -1.000000000000000000, 0.0000000000000000000, 0.0000000000000000000 ) ) ;
#411 = DIRECTION ( 'NONE',  ( 0.0000000000000000000, 0.0000000000000000000, -1.000000000000000000 ) ) ;
#412 = ORIENTED_EDGE ( 'NONE', *, *, #1075, .T. ) ;
#413 = ADVANCED_FACE ( 'NONE', ( #276 ), #188, .F. ) ;
#414 = CARTESIAN_POINT ( 'NONE',  ( 5.450000000000000178, 0.0000000000000000000, -4.949999999999999289 ) ) ;
#415 = PRESENTATION_STYLE_ASSIGNMENT (( #50 ) ) ;
#416 = LINE ( 'NONE', #147, #154 ) ;
#417 = ORIENTED_EDGE ( 'NONE', *, *, #1148, .T. ) ;
#418 = LINE ( 'NONE', #775, #268 ) ;
#419 =( NAMED_UNIT ( * ) PLANE_ANGLE_UNIT ( ) SI_UNIT ( $, .RADIAN. ) );
#420 = FACE_OUTER_BOUND ( 'NONE', #1028, .T. ) ;
#421 = ORIENTED_EDGE ( 'NONE', *, *, #929, .F. ) ;
#422 = EDGE_CURVE ( 'NONE', #847, #281, #906, .T. ) ;
#423 = VERTEX_POINT ( 'NONE', #102 ) ;
#424 = SURFACE_STYLE_FILL_AREA ( #876 ) ;
#425 = VECTOR ( 'NONE', #618, 1000.000000000000000 ) ;
#426 = ORIENTED_EDGE ( 'NONE', *, *, #749, .T. ) ;
#427 =( GEOMETRIC_REPRESENTATION_CONTEXT ( 3 ) GLOBAL_UNCERTAINTY_ASSIGNED_CONTEXT ( ( #889 ) ) GLOBAL_UNIT_ASSIGNED_CONTEXT ( ( #238, #469, #733 ) ) REPRESENTATION_CONTEXT ( 'NONE', 'WORKASPACE' ) );
#428 = EDGE_CURVE ( 'NONE', #679, #158, #917, .T. ) ;
#429 = EDGE_LOOP ( 'NONE', ( #696, #807, #397, #768 ) ) ;
#430 = FACE_OUTER_BOUND ( 'NONE', #30, .T. ) ;
#431 = DIRECTION ( 'NONE',  ( 1.000000000000000000, 0.0000000000000000000, -0.0000000000000000000 ) ) ;
#432 = DIRECTION ( 'NONE',  ( 0.0000000000000000000, 0.0000000000000000000, 1.000000000000000000 ) ) ;
#433 = ORIENTED_EDGE ( 'NONE', *, *, #857, .F. ) ;
#434 = EDGE_CURVE ( 'NONE', #734, #460, #824, .T. ) ;
#435 = UNCERTAINTY_MEASURE_WITH_UNIT (LENGTH_MEASURE( 1.000000000000000082E-05 ), #940, 'distance_accuracy_value', 'NONE');
#436 = CARTESIAN_POINT ( 'NONE',  ( -0.1000000000000000056, -0.0000000000000000000, -3.400000000000000799 ) ) ;
#437 = ORIENTED_EDGE ( 'NONE', *, *, #1099, .T. ) ;
#438 = AXIS2_PLACEMENT_3D ( 'NONE', #400, #246, #786 ) ;
#439 = EDGE_CURVE ( 'NONE', #717, #318, #931, .T. ) ;
#440 = STYLED_ITEM ( 'NONE', ( #988 ), #144 ) ;
#441 = DIRECTION ( 'NONE',  ( -1.000000000000000000, 0.0000000000000000000, 0.0000000000000000000 ) ) ;
#442 = CARTESIAN_POINT ( 'NONE',  ( 5.450000000000000178, 2.799999999999999822, 0.0000000000000000000 ) ) ;
#443 = AXIS2_PLACEMENT_3D ( 'NONE', #457, #441, #1 ) ;
#444 = DIRECTION ( 'NONE',  ( 0.0000000000000000000, -1.000000000000000000, 0.0000000000000000000 ) ) ;
#445 = ORIENTED_EDGE ( 'NONE', *, *, #355, .T. ) ;
#446 = DIRECTION ( 'NONE',  ( -1.000000000000000000, -0.0000000000000000000, -0.0000000000000000000 ) ) ;
#447 = MECHANICAL_DESIGN_GEOMETRIC_PRESENTATION_REPRESENTATION (  '', ( #802 ), #162 ) ;
#448 = VECTOR ( 'NONE', #575, 1000.000000000000000 ) ;
#449 = LINE ( 'NONE', #813, #612 ) ;
#450 = FILL_AREA_STYLE ('',( #288 ) ) ;
#451 = CARTESIAN_POINT ( 'NONE',  ( 5.700000000000000178, 0.0000000000000000000, -1.800000000000000711 ) ) ;
#452 = ORIENTED_EDGE ( 'NONE', *, *, #345, .F. ) ;
#453 = CARTESIAN_POINT ( 'NONE',  ( 5.700000000000000178, 1.399999999999999911, -1.800000000000000711 ) ) ;
#454 = SURFACE_STYLE_FILL_AREA ( #450 ) ;
#455 = VERTEX_POINT ( 'NONE', #1012 ) ;
#456 = EDGE_CURVE ( 'NONE', #1076, #460, #358, .T. ) ;
#457 = CARTESIAN_POINT ( 'NONE',  ( 1.099999999999999867, -0.1000000000000000056, -3.400000000000000799 ) ) ;
#458 = DIRECTION ( 'NONE',  ( -0.0000000000000000000, 1.000000000000000000, -0.0000000000000000000 ) ) ;
#459 =( GEOMETRIC_REPRESENTATION_CONTEXT ( 3 ) GLOBAL_UNCERTAINTY_ASSIGNED_CONTEXT ( ( #537 ) ) GLOBAL_UNIT_ASSIGNED_CONTEXT ( ( #308, #1063, #587 ) ) REPRESENTATION_CONTEXT ( 'NONE', 'WORKASPACE' ) );
#460 = VERTEX_POINT ( 'NONE', #819 ) ;
#461 = VECTOR ( 'NONE', #627, 1000.000000000000000 ) ;
#462 = EDGE_CURVE ( 'NONE', #536, #712, #640, .T. ) ;
#463 = VECTOR ( 'NONE', #54, 1000.000000000000000 ) ;
#464 = MANIFOLD_SOLID_BREP ( 'Cut-Extrude1', #380 ) ;
#465 = LINE ( 'NONE', #501, #193 ) ;
#466 = CARTESIAN_POINT ( 'NONE',  ( 5.700000000000000178, 1.007425377110848785, -2.861189048047663164 ) ) ;
#467 = DIRECTION ( 'NONE',  ( 0.0000000000000000000, 0.0000000000000000000, -1.000000000000000000 ) ) ;
#468 = VERTEX_POINT ( 'NONE', #390 ) ;
#469 =( NAMED_UNIT ( * ) PLANE_ANGLE_UNIT ( ) SI_UNIT ( $, .RADIAN. ) );
#470 = ORIENTED_EDGE ( 'NONE', *, *, #729, .T. ) ;
#471 = DIRECTION ( 'NONE',  ( 0.0000000000000000000, 0.0000000000000000000, 1.000000000000000000 ) ) ;
#472 = ADVANCED_FACE ( 'NONE', ( #125 ), #814, .F. ) ;
#473 = LINE ( 'NONE', #834, #547 ) ;
#474 = DIRECTION ( 'NONE',  ( 0.0000000000000000000, 0.0000000000000000000, -1.000000000000000000 ) ) ;
#475 = DIRECTION ( 'NONE',  ( -0.0000000000000000000, 1.000000000000000000, -0.0000000000000000000 ) ) ;
#476 = CYLINDRICAL_SURFACE ( 'NONE', #646, 0.2500000000000002220 ) ;
#477 = EDGE_LOOP ( 'NONE', ( #161, #44, #412, #899 ) ) ;
#478 = DIRECTION ( 'NONE',  ( -1.000000000000000000, -0.0000000000000000000, -0.0000000000000000000 ) ) ;
#479 = ORIENTED_EDGE ( 'NONE', *, *, #379, .F. ) ;
#480 = CARTESIAN_POINT ( 'NONE',  ( 0.0000000000000000000, 1.399999999999999911, -3.400000000000000799 ) ) ;
#481 = DIRECTION ( 'NONE',  ( 0.0000000000000000000, -1.000000000000000000, -0.0000000000000000000 ) ) ;
#482 = EDGE_CURVE ( 'NONE', #168, #1130, #1025, .T. ) ;
#483 = FILL_AREA_STYLE ('',( #35 ) ) ;
#484 =( NAMED_UNIT ( * ) PLANE_ANGLE_UNIT ( ) SI_UNIT ( $, .RADIAN. ) );
#485 = DIRECTION ( 'NONE',  ( 0.0000000000000000000, 0.0000000000000000000, -1.000000000000000000 ) ) ;
#486 = ORIENTED_EDGE ( 'NONE', *, *, #333, .T. ) ;
#487 = CIRCLE ( 'NONE', #611, 0.2500000000000000000 ) ;
#488 = CARTESIAN_POINT ( 'NONE',  ( -0.1000000000000000056, 1.399999999999999911, -3.400000000000000799 ) ) ;
#489 = EDGE_LOOP ( 'NONE', ( #657, #294, #792, #645 ) ) ;
#490 = AXIS2_PLACEMENT_3D ( 'NONE', #352, #361, #904 ) ;
#491 = PRESENTATION_LAYER_ASSIGNMENT (  '', '', ( #865 ) ) ;
#492 =( NAMED_UNIT ( * ) SI_UNIT ( $, .STERADIAN. ) SOLID_ANGLE_UNIT ( ) );
#493 = EDGE_LOOP ( 'NONE', ( #569, #744, #1137, #8 ) ) ;
#494 = DIRECTION ( 'NONE',  ( 0.0000000000000000000, 0.0000000000000000000, 1.000000000000000000 ) ) ;
#495 = PLANE ( 'NONE',  #884 ) ;
#496 = VERTEX_POINT ( 'NONE', #298 ) ;
#497 = DIRECTION ( 'NONE',  ( -0.0000000000000000000, 0.0000000000000000000, -1.000000000000000000 ) ) ;
#498 = ORIENTED_EDGE ( 'NONE', *, *, #167, .F. ) ;
#499 = CYLINDRICAL_SURFACE ( 'NONE', #908, 0.2500000000000002220 ) ;
#500 = ADVANCED_FACE ( 'NONE', ( #941 ), #672, .T. ) ;
#501 = CARTESIAN_POINT ( 'NONE',  ( -0.1000000000000000056, -0.1000000000000000056, -3.400000000000000799 ) ) ;
#502 = FILL_AREA_STYLE_COLOUR ( '', #325 ) ;
#503 = FILL_AREA_STYLE_COLOUR ( '', #540 ) ;
#504 = FACE_OUTER_BOUND ( 'NONE', #1041, .T. ) ;
#505 = VECTOR ( 'NONE', #183, 1000.000000000000000 ) ;
#506 = ORIENTED_EDGE ( 'NONE', *, *, #764, .F. ) ;
#507 = VECTOR ( 'NONE', #264, 1000.000000000000000 ) ;
#508 = EDGE_CURVE ( 'NONE', #455, #171, #953, .T. ) ;
#509 = CARTESIAN_POINT ( 'NONE',  ( 4.599999999999999645, -0.1000000000000000056, -3.400000000000000799 ) ) ;
#510 = AXIS2_PLACEMENT_3D ( 'NONE', #1003, #1175, #269 ) ;
#511 = SURFACE_STYLE_FILL_AREA ( #139 ) ;
#512 = VECTOR ( 'NONE', #1169, 1000.000000000000000 ) ;
#513 = AXIS2_PLACEMENT_3D ( 'NONE', #1019, #21, #107 ) ;
#514 = APPLICATION_CONTEXT ( 'automotive_design' ) ;
#515 = ORIENTED_EDGE ( 'NONE', *, *, #70, .T. ) ;
#516 = ORIENTED_EDGE ( 'NONE', *, *, #704, .F. ) ;
#517 = CARTESIAN_POINT ( 'NONE',  ( 5.701000000000000512, 1.399999999999999911, -2.338810951952338346 ) ) ;
#518 = PLANE ( 'NONE',  #687 ) ;
#519 = EDGE_CURVE ( 'NONE', #27, #712, #80, .T. ) ;
#520 = DIRECTION ( 'NONE',  ( 0.0000000000000000000, 1.000000000000000000, 0.0000000000000000000 ) ) ;
#521 = CARTESIAN_POINT ( 'NONE',  ( 0.0000000000000000000, 1.399999999999999911, 0.0000000000000000000 ) ) ;
#522 = EDGE_LOOP ( 'NONE', ( #850, #486, #836, #515 ) ) ;
#523 =( NAMED_UNIT ( * ) SI_UNIT ( $, .STERADIAN. ) SOLID_ANGLE_UNIT ( ) );
#524 = ADVANCED_FACE ( 'NONE', ( #205 ), #29, .F. ) ;
#525 = CARTESIAN_POINT ( 'NONE',  ( -0.1000000000000000056, 1.399999999999999911, -3.400000000000000799 ) ) ;
#526 = ORIENTED_EDGE ( 'NONE', *, *, #368, .F. ) ;
#527 = ORIENTED_EDGE ( 'NONE', *, *, #90, .F. ) ;
#528 = FACE_OUTER_BOUND ( 'NONE', #86, .T. ) ;
#529 = COLOUR_RGB ( '',0.9686274509803921573, 0.8784313725490195957, 0.5999999999999999778 ) ;
#530 = SURFACE_SIDE_STYLE ('',( #533 ) ) ;
#531 = CARTESIAN_POINT ( 'NONE',  ( 5.800000000000000711, 1.399999999999999911, -1.800000000000000711 ) ) ;
#532 = ORIENTED_EDGE ( 'NONE', *, *, #428, .T. ) ;
#533 = SURFACE_STYLE_FILL_AREA ( #145 ) ;
#534 = CARTESIAN_POINT ( 'NONE',  ( 5.800000000000000711, 1.399999999999999911, -2.338810951952338346 ) ) ;
#535 = SURFACE_STYLE_FILL_AREA ( #354 ) ;
#536 = VERTEX_POINT ( 'NONE', #394 ) ;
#537 = UNCERTAINTY_MEASURE_WITH_UNIT (LENGTH_MEASURE( 1.000000000000000082E-05 ), #308, 'distance_accuracy_value', 'NONE');
#538 = DIRECTION ( 'NONE',  ( 0.0000000000000000000, -0.0000000000000000000, -1.000000000000000000 ) ) ;
#539 = ORIENTED_EDGE ( 'NONE', *, *, #422, .T. ) ;
#540 = COLOUR_RGB ( '',0.7921568627450980005, 0.8196078431372548767, 0.9333333333333333481 ) ;
#541 = STYLED_ITEM ( 'NONE', ( #1172 ), #275 ) ;
#542 = FACE_OUTER_BOUND ( 'NONE', #522, .T. ) ;
#543 = DIRECTION ( 'NONE',  ( -1.000000000000000000, 0.0000000000000000000, -0.0000000000000000000 ) ) ;
#544 = VECTOR ( 'NONE', #34, 1000.000000000000000 ) ;
#545 =( NAMED_UNIT ( * ) SI_UNIT ( $, .STERADIAN. ) SOLID_ANGLE_UNIT ( ) );
#546 = VERTEX_POINT ( 'NONE', #1030 ) ;
#547 = VECTOR ( 'NONE', #494, 1000.000000000000000 ) ;
#548 = DIRECTION ( 'NONE',  ( 0.0000000000000000000, -1.000000000000000000, 0.0000000000000000000 ) ) ;
#549 = ADVANCED_FACE ( 'NONE', ( #137 ), #923, .F. ) ;
#550 = CARTESIAN_POINT ( 'NONE',  ( 5.450000000000000178, 2.799999999999999822, -0.2500000000000000000 ) ) ;
#551 = DIRECTION ( 'NONE',  ( -0.0000000000000000000, 0.0000000000000000000, 1.000000000000000000 ) ) ;
#552 = ORIENTED_EDGE ( 'NONE', *, *, #257, .T. ) ;
#553 = LINE ( 'NONE', #1101, #2 ) ;
#554 = CARTESIAN_POINT ( 'NONE',  ( 5.701000000000000512, 1.399999999999999911, -2.861189048047663164 ) ) ;
#555 = EDGE_CURVE ( 'NONE', #536, #594, #740, .T. ) ;
#556 = ORIENTED_EDGE ( 'NONE', *, *, #1075, .F. ) ;
#557 = UNCERTAINTY_MEASURE_WITH_UNIT (LENGTH_MEASURE( 1.000000000000000082E-05 ), #1043, 'distance_accuracy_value', 'NONE');
#558 =( NAMED_UNIT ( * ) PLANE_ANGLE_UNIT ( ) SI_UNIT ( $, .RADIAN. ) );
#559 = DIRECTION ( 'NONE',  ( 0.0000000000000000000, 0.0000000000000000000, -1.000000000000000000 ) ) ;
#560 = VECTOR ( 'NONE', #1113, 1000.000000000000000 ) ;
#561 = COLOUR_RGB ( '',0.9686274509803921573, 0.8784313725490195957, 0.5999999999999999778 ) ;
#562 = VERTEX_POINT ( 'NONE', #83 ) ;
#563 =( GEOMETRIC_REPRESENTATION_CONTEXT ( 3 ) GLOBAL_UNCERTAINTY_ASSIGNED_CONTEXT ( ( #557 ) ) GLOBAL_UNIT_ASSIGNED_CONTEXT ( ( #1043, #419, #1157 ) ) REPRESENTATION_CONTEXT ( 'NONE', 'WORKASPACE' ) );
#564 = SURFACE_STYLE_USAGE ( .BOTH. , #1106 ) ;
#565 = LINE ( 'NONE', #987, #817 ) ;
#566 = VERTEX_POINT ( 'NONE', #1089 ) ;
#567 = DIRECTION ( 'NONE',  ( -0.0000000000000000000, -1.000000000000000000, -0.0000000000000000000 ) ) ;
#568 = DIRECTION ( 'NONE',  ( 0.0000000000000000000, 0.0000000000000000000, -1.000000000000000000 ) ) ;
#569 = ORIENTED_EDGE ( 'NONE', *, *, #96, .F. ) ;
#570 = CARTESIAN_POINT ( 'NONE',  ( -0.1000000000000000056, 1.007425377110848785, -2.338810951952338346 ) ) ;
#571 = SHAPE_DEFINITION_REPRESENTATION ( #339, #589 ) ;
#572 =( NAMED_UNIT ( * ) SI_UNIT ( $, .STERADIAN. ) SOLID_ANGLE_UNIT ( ) );
#573 = EDGE_LOOP ( 'NONE', ( #1118, #186, #732, #417, #277, #758 ) ) ;
#574 = VECTOR ( 'NONE', #182, 1000.000000000000000 ) ;
#575 = DIRECTION ( 'NONE',  ( 0.0000000000000000000, -1.000000000000000000, -0.0000000000000000000 ) ) ;
#576 = ORIENTED_EDGE ( 'NONE', *, *, #902, .F. ) ;
#577 = VECTOR ( 'NONE', #746, 1000.000000000000000 ) ;
#578 = CARTESIAN_POINT ( 'NONE',  ( 0.0000000000000000000, 1.399999999999999911, -1.800000000000000711 ) ) ;
#579 = AXIS2_PLACEMENT_3D ( 'NONE', #1096, #920, #1015 ) ;
#580 = CARTESIAN_POINT ( 'NONE',  ( 5.800000000000000711, 1.399999999999999911, -3.400000000000000799 ) ) ;
#581 = EDGE_CURVE ( 'NONE', #95, #741, #916, .T. ) ;
#582 = ORIENTED_EDGE ( 'NONE', *, *, #1054, .F. ) ;
#583 = FACE_OUTER_BOUND ( 'NONE', #573, .T. ) ;
#584 = EDGE_LOOP ( 'NONE', ( #1046, #208, #133, #918, #113, #426, #532, #393 ) ) ;
#585 = FILL_AREA_STYLE_COLOUR ( '', #347 ) ;
#586 = DIRECTION ( 'NONE',  ( 0.0000000000000000000, -0.0000000000000000000, 1.000000000000000000 ) ) ;
#587 =( NAMED_UNIT ( * ) SI_UNIT ( $, .STERADIAN. ) SOLID_ANGLE_UNIT ( ) );
#588 = ADVANCED_FACE ( 'NONE', ( #542 ), #795, .F. ) ;
#589 = ADVANCED_BREP_SHAPE_REPRESENTATION ( 'User Library-SMDinductor', ( #858, #43, #464, #513 ), #1056 ) ;
#590 = LINE ( 'NONE', #1027, #600 ) ;
#591 = VERTEX_POINT ( 'NONE', #344 ) ;
#592 = DIRECTION ( 'NONE',  ( 0.0000000000000000000, 0.0000000000000000000, 1.000000000000000000 ) ) ;
#593 = DIRECTION ( 'NONE',  ( 0.0000000000000000000, 0.0000000000000000000, 1.000000000000000000 ) ) ;
#594 = VERTEX_POINT ( 'NONE', #808 ) ;
#595 = AXIS2_PLACEMENT_3D ( 'NONE', #359, #1105, #471 ) ;
#596 = DIRECTION ( 'NONE',  ( 1.000000000000000000, -0.0000000000000000000, -0.0000000000000000000 ) ) ;
#597 = EDGE_CURVE ( 'NONE', #171, #1064, #1081, .T. ) ;
#598 = CARTESIAN_POINT ( 'NONE',  ( 0.0000000000000000000, 0.0000000000000000000, -0.2500000000000000000 ) ) ;
#599 = SURFACE_SIDE_STYLE ('',( #511 ) ) ;
#600 = VECTOR ( 'NONE', #401, 1000.000000000000000 ) ;
#601 = LINE ( 'NONE', #328, #680 ) ;
#602 = ORIENTED_EDGE ( 'NONE', *, *, #406, .T. ) ;
#603 = DIRECTION ( 'NONE',  ( 1.000000000000000000, 0.0000000000000000000, 0.0000000000000000000 ) ) ;
#604 = FACE_OUTER_BOUND ( 'NONE', #477, .T. ) ;
#605 = ORIENTED_EDGE ( 'NONE', *, *, #848, .F. ) ;
#606 = DIRECTION ( 'NONE',  ( 0.0000000000000000000, -1.000000000000000000, 0.0000000000000000000 ) ) ;
#607 = DIRECTION ( 'NONE',  ( 0.0000000000000000000, -1.000000000000000000, 0.0000000000000000000 ) ) ;
#608 = CARTESIAN_POINT ( 'NONE',  ( 5.800000000000000711, 1.399999999999999911, -1.800000000000000711 ) ) ;
#609 = ORIENTED_EDGE ( 'NONE', *, *, #880, .T. ) ;
#610 =( NAMED_UNIT ( * ) PLANE_ANGLE_UNIT ( ) SI_UNIT ( $, .RADIAN. ) );
#611 = AXIS2_PLACEMENT_3D ( 'NONE', #550, #458, #636 ) ;
#612 = VECTOR ( 'NONE', #714, 1000.000000000000000 ) ;
#613 =( NAMED_UNIT ( * ) SI_UNIT ( $, .STERADIAN. ) SOLID_ANGLE_UNIT ( ) );
#614 = LINE ( 'NONE', #873, #97 ) ;
#615 =( LENGTH_UNIT ( ) NAMED_UNIT ( * ) SI_UNIT ( .MILLI., .METRE. ) );
#616 = EDGE_CURVE ( 'NONE', #741, #546, #621, .T. ) ;
#617 = VERTEX_POINT ( 'NONE', #357 ) ;
#618 = DIRECTION ( 'NONE',  ( 0.0000000000000000000, -1.000000000000000000, 0.0000000000000000000 ) ) ;
#619 = CARTESIAN_POINT ( 'NONE',  ( 1.099999999999999867, 0.0000000000000000000, -3.400000000000000799 ) ) ;
#620 = VERTEX_POINT ( 'NONE', #173 ) ;
#621 = LINE ( 'NONE', #986, #461 ) ;
#622 = LINE ( 'NONE', #67, #323 ) ;
#623 = ORIENTED_EDGE ( 'NONE', *, *, #1054, .T. ) ;
#624 = LINE ( 'NONE', #267, #964 ) ;
#625 = EDGE_CURVE ( 'NONE', #496, #197, #709, .T. ) ;
#626 = VECTOR ( 'NONE', #983, 1000.000000000000000 ) ;
#627 = DIRECTION ( 'NONE',  ( 0.0000000000000000000, 0.0000000000000000000, 1.000000000000000000 ) ) ;
#628 = CARTESIAN_POINT ( 'NONE',  ( 5.700000000000000178, 2.799999999999999822, -4.949999999999999289 ) ) ;
#629 = VECTOR ( 'NONE', #372, 1000.000000000000000 ) ;
#630 = VERTEX_POINT ( 'NONE', #88 ) ;
#631 = EDGE_CURVE ( 'NONE', #1076, #227, #254, .T. ) ;
#632 = PLANE ( 'NONE',  #443 ) ;
#633 = DIRECTION ( 'NONE',  ( 0.0000000000000000000, 0.0000000000000000000, -1.000000000000000000 ) ) ;
#634 = EDGE_LOOP ( 'NONE', ( #1160, #943, #192, #33 ) ) ;
#635 = CARTESIAN_POINT ( 'NONE',  ( 0.0000000000000000000, 1.399999999999999911, -3.400000000000000799 ) ) ;
#636 = DIRECTION ( 'NONE',  ( 0.0000000000000000000, 0.0000000000000000000, -1.000000000000000000 ) ) ;
#637 = EDGE_CURVE ( 'NONE', #79, #546, #449, .T. ) ;
#638 = ORIENTED_EDGE ( 'NONE', *, *, #439, .F. ) ;
#639 = DIRECTION ( 'NONE',  ( 0.0000000000000000000, 1.000000000000000000, 0.0000000000000000000 ) ) ;
#640 = LINE ( 'NONE', #832, #1031 ) ;
#641 = AXIS2_PLACEMENT_3D ( 'NONE', #805, #551, #980 ) ;
#642 = MECHANICAL_DESIGN_GEOMETRIC_PRESENTATION_REPRESENTATION (  '', ( #1011 ), #385 ) ;
#643 = ORIENTED_EDGE ( 'NONE', *, *, #519, .T. ) ;
#644 = ADVANCED_FACE ( 'NONE', ( #726 ), #998, .F. ) ;
#645 = ORIENTED_EDGE ( 'NONE', *, *, #1093, .F. ) ;
#646 = AXIS2_PLACEMENT_3D ( 'NONE', #1001, #222, #299 ) ;
#647 = ORIENTED_EDGE ( 'NONE', *, *, #1006, .T. ) ;
#648 = DIRECTION ( 'NONE',  ( 0.0000000000000000000, -1.000000000000000000, 0.0000000000000000000 ) ) ;
#649 = VERTEX_POINT ( 'NONE', #818 ) ;
#650 = DIRECTION ( 'NONE',  ( 0.0000000000000000000, 0.0000000000000000000, -1.000000000000000000 ) ) ;
#651 = ORIENTED_EDGE ( 'NONE', *, *, #204, .T. ) ;
#652 = CARTESIAN_POINT ( 'NONE',  ( 5.700000000000000178, 1.399999999999999911, -1.800000000000000711 ) ) ;
#653 = LINE ( 'NONE', #675, #82 ) ;
#654 = ORIENTED_EDGE ( 'NONE', *, *, #172, .F. ) ;
#655 = ADVANCED_FACE ( 'NONE', ( #1181 ), #632, .F. ) ;
#656 = SURFACE_STYLE_USAGE ( .BOTH. , #1139 ) ;
#657 = ORIENTED_EDGE ( 'NONE', *, *, #1044, .T. ) ;
#658 = PRESENTATION_LAYER_ASSIGNMENT (  '', '', ( #1187 ) ) ;
#659 = DIRECTION ( 'NONE',  ( 0.0000000000000000000, 1.000000000000000000, -0.0000000000000000000 ) ) ;
#660 = ORIENTED_EDGE ( 'NONE', *, *, #482, .T. ) ;
#661 = VECTOR ( 'NONE', #75, 1000.000000000000000 ) ;
#662 = CARTESIAN_POINT ( 'NONE',  ( 0.2500000000000000000, 2.799999999999999822, -5.200000000000000178 ) ) ;
#663 = AXIS2_PLACEMENT_3D ( 'NONE', #110, #843, #31 ) ;
#664 =( GEOMETRIC_REPRESENTATION_CONTEXT ( 3 ) GLOBAL_UNCERTAINTY_ASSIGNED_CONTEXT ( ( #435 ) ) GLOBAL_UNIT_ASSIGNED_CONTEXT ( ( #940, #666, #948 ) ) REPRESENTATION_CONTEXT ( 'NONE', 'WORKASPACE' ) );
#665 = EDGE_CURVE ( 'NONE', #197, #158, #1094, .T. ) ;
#666 =( NAMED_UNIT ( * ) PLANE_ANGLE_UNIT ( ) SI_UNIT ( $, .RADIAN. ) );
#667 = DIRECTION ( 'NONE',  ( 0.0000000000000000000, -1.000000000000000000, 0.0000000000000000000 ) ) ;
#668 = CARTESIAN_POINT ( 'NONE',  ( 5.800000000000000711, 1.399999999999999911, -3.400000000000000799 ) ) ;
#669 = ORIENTED_EDGE ( 'NONE', *, *, #848, .T. ) ;
#670 = UNCERTAINTY_MEASURE_WITH_UNIT (LENGTH_MEASURE( 1.000000000000000082E-05 ), #53, 'distance_accuracy_value', 'NONE');
#671 = PRESENTATION_STYLE_ASSIGNMENT (( #763 ) ) ;
#672 = PLANE ( 'NONE',  #177 ) ;
#673 = SURFACE_STYLE_FILL_AREA ( #313 ) ;
#674 = EDGE_CURVE ( 'NONE', #318, #423, #1052, .T. ) ;
#675 = CARTESIAN_POINT ( 'NONE',  ( 5.800000000000000711, -0.0000000000000000000, -3.400000000000000799 ) ) ;
#676 = ORIENTED_EDGE ( 'NONE', *, *, #704, .T. ) ;
#677 = CARTESIAN_POINT ( 'NONE',  ( -0.001000000000000132727, 1.399999999999999911, -2.338810951952338346 ) ) ;
#678 =( NAMED_UNIT ( * ) PLANE_ANGLE_UNIT ( ) SI_UNIT ( $, .RADIAN. ) );
#679 = VERTEX_POINT ( 'NONE', #5 ) ;
#680 = VECTOR ( 'NONE', #689, 1000.000000000000000 ) ;
#681 = ADVANCED_FACE ( 'NONE', ( #304 ), #404, .F. ) ;
#682 = EDGE_LOOP ( 'NONE', ( #395, #252, #479, #1095 ) ) ;
#683 = DIRECTION ( 'NONE',  ( -0.0000000000000000000, 1.000000000000000000, -0.0000000000000000000 ) ) ;
#684 = AXIS2_PLACEMENT_3D ( 'NONE', #782, #64, #332 ) ;
#685 = DIRECTION ( 'NONE',  ( 1.000000000000000000, 0.0000000000000000000, 0.0000000000000000000 ) ) ;
#686 = FILL_AREA_STYLE_COLOUR ( '', #784 ) ;
#687 = AXIS2_PLACEMENT_3D ( 'NONE', #692, #485, #685 ) ;
#688 = LINE ( 'NONE', #534, #1048 ) ;
#689 = DIRECTION ( 'NONE',  ( 0.0000000000000000000, -1.000000000000000000, 0.0000000000000000000 ) ) ;
#690 = EDGE_LOOP ( 'NONE', ( #370, #1112, #69, #3 ) ) ;
#691 = DIRECTION ( 'NONE',  ( 0.0000000000000000000, 1.000000000000000000, 0.0000000000000000000 ) ) ;
#692 = CARTESIAN_POINT ( 'NONE',  ( -0.001000000000000132727, 1.399999999999999911, -2.861189048047663164 ) ) ;
#693 = LINE ( 'NONE', #436, #743 ) ;
#694 = CARTESIAN_POINT ( 'NONE',  ( 4.599999999999999645, -0.1000000000000000056, -1.800000000000000711 ) ) ;
#695 = PRESENTATION_STYLE_ASSIGNMENT (( #335 ) ) ;
#696 = ORIENTED_EDGE ( 'NONE', *, *, #1023, .T. ) ;
#697 = SURFACE_SIDE_STYLE ('',( #424 ) ) ;
#698 = EDGE_CURVE ( 'NONE', #227, #336, #216, .T. ) ;
#699 = CARTESIAN_POINT ( 'NONE',  ( 0.2500000000000000000, 2.799999999999999822, -4.949999999999999289 ) ) ;
#700 = CARTESIAN_POINT ( 'NONE',  ( 0.2500000000000000000, 2.799999999999999822, 0.0000000000000000000 ) ) ;
#701 = ORIENTED_EDGE ( 'NONE', *, *, #1162, .T. ) ;
#702 = CIRCLE ( 'NONE', #739, 0.2500000000000002220 ) ;
#703 = VECTOR ( 'NONE', #271, 1000.000000000000000 ) ;
#704 = EDGE_CURVE ( 'NONE', #455, #847, #129, .T. ) ;
#705 = PRESENTATION_LAYER_ASSIGNMENT (  '', '', ( #1151 ) ) ;
#706 = CARTESIAN_POINT ( 'NONE',  ( 5.450000000000000178, 2.799999999999999822, -4.949999999999999289 ) ) ;
#707 = CARTESIAN_POINT ( 'NONE',  ( 0.0000000000000000000, 2.799999999999999822, 0.0000000000000000000 ) ) ;
#708 = EDGE_LOOP ( 'NONE', ( #283, #778, #142, #73, #875, #445, #376, #437 ) ) ;
#709 = LINE ( 'NONE', #181, #703 ) ;
#710 = SURFACE_SIDE_STYLE ('',( #969 ) ) ;
#711 = SURFACE_STYLE_USAGE ( .BOTH. , #1159 ) ;
#712 = VERTEX_POINT ( 'NONE', #947 ) ;
#713 = EDGE_CURVE ( 'NONE', #888, #957, #124, .T. ) ;
#714 = DIRECTION ( 'NONE',  ( 1.000000000000000000, -0.0000000000000000000, -0.0000000000000000000 ) ) ;
#715 = DIRECTION ( 'NONE',  ( 0.0000000000000000000, 0.0000000000000000000, 1.000000000000000000 ) ) ;
#716 = CARTESIAN_POINT ( 'NONE',  ( 5.700000000000000178, 1.399999999999999911, -3.400000000000000799 ) ) ;
#717 = VERTEX_POINT ( 'NONE', #1131 ) ;
#718 = PLANE ( 'NONE',  #510 ) ;
#719 = EDGE_CURVE ( 'NONE', #126, #734, #967, .T. ) ;
#720 = VECTOR ( 'NONE', #467, 1000.000000000000000 ) ;
#721 = CARTESIAN_POINT ( 'NONE',  ( 5.800000000000000711, -0.1000000000000000056, -3.400000000000000799 ) ) ;
#722 = MECHANICAL_DESIGN_GEOMETRIC_PRESENTATION_REPRESENTATION (  '', ( #62 ), #118 ) ;
#723 = ORIENTED_EDGE ( 'NONE', *, *, #226, .T. ) ;
#724 = VECTOR ( 'NONE', #301, 1000.000000000000000 ) ;
#725 = DIRECTION ( 'NONE',  ( -1.000000000000000000, 0.0000000000000000000, 0.0000000000000000000 ) ) ;
#726 = FACE_OUTER_BOUND ( 'NONE', #682, .T. ) ;
#727 =( LENGTH_UNIT ( ) NAMED_UNIT ( * ) SI_UNIT ( .MILLI., .METRE. ) );
#728 = ORIENTED_EDGE ( 'NONE', *, *, #49, .T. ) ;
#729 = EDGE_CURVE ( 'NONE', #423, #126, #237, .T. ) ;
#730 = PRESENTATION_STYLE_ASSIGNMENT (( #564 ) ) ;
#731 = CARTESIAN_POINT ( 'NONE',  ( 5.700000000000000178, 1.399999999999999911, -1.800000000000000711 ) ) ;
#732 = ORIENTED_EDGE ( 'NONE', *, *, #919, .T. ) ;
#733 =( NAMED_UNIT ( * ) SI_UNIT ( $, .STERADIAN. ) SOLID_ANGLE_UNIT ( ) );
#734 = VERTEX_POINT ( 'NONE', #221 ) ;
#735 = FACE_OUTER_BOUND ( 'NONE', #1100, .T. ) ;
#736 = AXIS2_PLACEMENT_3D ( 'NONE', #521, #874, #870 ) ;
#737 = DIRECTION ( 'NONE',  ( -0.0000000000000000000, -1.000000000000000000, 0.0000000000000000000 ) ) ;
#738 = CARTESIAN_POINT ( 'NONE',  ( 0.0000000000000000000, 2.799999999999999822, 0.0000000000000000000 ) ) ;
#739 = AXIS2_PLACEMENT_3D ( 'NONE', #706, #796, #1062 ) ;
#740 = CIRCLE ( 'NONE', #490, 0.2500000000000000000 ) ;
#741 = VERTEX_POINT ( 'NONE', #398 ) ;
#742 = LINE ( 'NONE', #668, #845 ) ;
#743 = VECTOR ( 'NONE', #66, 1000.000000000000000 ) ;
#744 = ORIENTED_EDGE ( 'NONE', *, *, #968, .F. ) ;
#745 = LINE ( 'NONE', #20, #560 ) ;
#746 = DIRECTION ( 'NONE',  ( -0.0000000000000000000, 1.000000000000000000, -0.0000000000000000000 ) ) ;
#747 = ORIENTED_EDGE ( 'NONE', *, *, #713, .F. ) ;
#748 = CARTESIAN_POINT ( 'NONE',  ( 0.0000000000000000000, 2.799999999999999822, -0.2500000000000000000 ) ) ;
#749 = EDGE_CURVE ( 'NONE', #220, #679, #769, .T. ) ;
#750 = EDGE_LOOP ( 'NONE', ( #1022, #402, #348, #787, #1155, #946, #131, #206 ) ) ;
#751 = FILL_AREA_STYLE ('',( #502 ) ) ;
#752 = ORIENTED_EDGE ( 'NONE', *, *, #1110, .F. ) ;
#753 = CARTESIAN_POINT ( 'NONE',  ( 5.700000000000000178, 1.399999999999999911, -1.800000000000000711 ) ) ;
#754 = ORIENTED_EDGE ( 'NONE', *, *, #428, .F. ) ;
#755 = EDGE_CURVE ( 'NONE', #310, #717, #418, .T. ) ;
#756 = DIRECTION ( 'NONE',  ( 0.0000000000000000000, -1.000000000000000000, -0.0000000000000000000 ) ) ;
#757 = FACE_OUTER_BOUND ( 'NONE', #52, .T. ) ;
#758 = ORIENTED_EDGE ( 'NONE', *, *, #204, .F. ) ;
#759 = AXIS2_PLACEMENT_3D ( 'NONE', #554, #559, #543 ) ;
#760 = PLANE ( 'NONE',  #350 ) ;
#761 = ORIENTED_EDGE ( 'NONE', *, *, #12, .F. ) ;
#762 = VECTOR ( 'NONE', #143, 1000.000000000000000 ) ;
#763 = SURFACE_STYLE_USAGE ( .BOTH. , #40 ) ;
#764 = EDGE_CURVE ( 'NONE', #1102, #61, #1047, .T. ) ;
#765 = ORIENTED_EDGE ( 'NONE', *, *, #371, .F. ) ;
#766 = CARTESIAN_POINT ( 'NONE',  ( -0.1000000000000000056, -0.0000000000000000000, -1.800000000000000711 ) ) ;
#767 = LINE ( 'NONE', #114, #388 ) ;
#768 = ORIENTED_EDGE ( 'NONE', *, *, #929, .T. ) ;
#769 = LINE ( 'NONE', #578, #1070 ) ;
#770 = FILL_AREA_STYLE ('',( #1037 ) ) ;
#771 = PLANE ( 'NONE',  #1072 ) ;
#772 = EDGE_CURVE ( 'NONE', #468, #455, #465, .T. ) ;
#773 = CARTESIAN_POINT ( 'NONE',  ( 5.450000000000000178, 2.799999999999999822, 0.0000000000000000000 ) ) ;
#774 = EDGE_LOOP ( 'NONE', ( #1080, #1116, #660, #647 ) ) ;
#775 = CARTESIAN_POINT ( 'NONE',  ( 5.800000000000000711, -0.1000000000000000056, -1.800000000000000711 ) ) ;
#776 = CARTESIAN_POINT ( 'NONE',  ( 5.701000000000000512, 1.007425377110848785, -2.861189048047663164 ) ) ;
#777 = CARTESIAN_POINT ( 'NONE',  ( -0.1000000000000000056, 1.399999999999999911, -1.800000000000000711 ) ) ;
#778 = ORIENTED_EDGE ( 'NONE', *, *, #1110, .T. ) ;
#779 = DIRECTION ( 'NONE',  ( 0.0000000000000000000, 0.0000000000000000000, 1.000000000000000000 ) ) ;
#780 = EDGE_LOOP ( 'NONE', ( #910, #937, #63, #651 ) ) ;
#781 = AXIS2_PLACEMENT_3D ( 'NONE', #1164, #431, #239 ) ;
#782 = CARTESIAN_POINT ( 'NONE',  ( 5.700000000000000178, 1.399999999999999911, 0.0000000000000000000 ) ) ;
#783 = VECTOR ( 'NONE', #639, 1000.000000000000000 ) ;
#784 = COLOUR_RGB ( '',0.9686274509803921573, 0.8784313725490195957, 0.5999999999999999778 ) ;
#785 = CARTESIAN_POINT ( 'NONE',  ( 5.450000000000000178, 2.799999999999999822, -5.200000000000000178 ) ) ;
#786 = DIRECTION ( 'NONE',  ( 0.0000000000000000000, 0.0000000000000000000, -1.000000000000000000 ) ) ;
#787 = ORIENTED_EDGE ( 'NONE', *, *, #371, .T. ) ;
#788 = ADVANCED_FACE ( 'NONE', ( #311 ), #228, .F. ) ;
#789 = PRESENTATION_STYLE_ASSIGNMENT (( #869 ) ) ;
#790 = CARTESIAN_POINT ( 'NONE',  ( -0.1000000000000000056, -0.1000000000000000056, -1.800000000000000711 ) ) ;
#791 = DIRECTION ( 'NONE',  ( 1.000000000000000000, 0.0000000000000000000, -0.0000000000000000000 ) ) ;
#792 = ORIENTED_EDGE ( 'NONE', *, *, #1087, .T. ) ;
#793 = PLANE ( 'NONE',  #905 ) ;
#794 = ADVANCED_FACE ( 'NONE', ( #864 ), #134, .F. ) ;
#795 = PLANE ( 'NONE',  #1188 ) ;
#796 = DIRECTION ( 'NONE',  ( -0.0000000000000000000, 1.000000000000000000, -0.0000000000000000000 ) ) ;
#797 = DIRECTION ( 'NONE',  ( 0.0000000000000000000, -0.0000000000000000000, -1.000000000000000000 ) ) ;
#798 = ORIENTED_EDGE ( 'NONE', *, *, #172, .T. ) ;
#799 =( GEOMETRIC_REPRESENTATION_CONTEXT ( 3 ) GLOBAL_UNCERTAINTY_ASSIGNED_CONTEXT ( ( #915 ) ) GLOBAL_UNIT_ASSIGNED_CONTEXT ( ( #615, #106, #545 ) ) REPRESENTATION_CONTEXT ( 'NONE', 'WORKASPACE' ) );
#800 = VECTOR ( 'NONE', #548, 1000.000000000000000 ) ;
#801 = DIRECTION ( 'NONE',  ( -1.000000000000000000, 0.0000000000000000000, 0.0000000000000000000 ) ) ;
#802 = STYLED_ITEM ( 'NONE', ( #883 ), #821 ) ;
#803 = ADVANCED_FACE ( 'NONE', ( #430 ), #59, .T. ) ;
#804 = CARTESIAN_POINT ( 'NONE',  ( 5.450000000000000178, 2.799999999999999822, -0.2500000000000000000 ) ) ;
#805 = CARTESIAN_POINT ( 'NONE',  ( 5.701000000000000512, 1.399999999999999911, -2.338810951952338346 ) ) ;
#806 = VECTOR ( 'NONE', #852, 1000.000000000000000 ) ;
#807 = ORIENTED_EDGE ( 'NONE', *, *, #956, .F. ) ;
#808 = CARTESIAN_POINT ( 'NONE',  ( 5.450000000000000178, 0.0000000000000000000, 0.0000000000000000000 ) ) ;
#809 = CARTESIAN_POINT ( 'NONE',  ( -0.1000000000000000056, -0.1000000000000000056, -1.800000000000000711 ) ) ;
#810 = CARTESIAN_POINT ( 'NONE',  ( -0.1000000000000000056, 1.399999999999999911, -3.400000000000000799 ) ) ;
#811 = ORIENTED_EDGE ( 'NONE', *, *, #1099, .F. ) ;
#812 = UNCERTAINTY_MEASURE_WITH_UNIT (LENGTH_MEASURE( 1.000000000000000082E-05 ), #1133, 'distance_accuracy_value', 'NONE');
#813 = CARTESIAN_POINT ( 'NONE',  ( -0.001000000000000132727, 1.007425377110848785, -2.338810951952338346 ) ) ;
#814 = PLANE ( 'NONE',  #961 ) ;
#815 = ORIENTED_EDGE ( 'NONE', *, *, #456, .T. ) ;
#816 = VECTOR ( 'NONE', #223, 1000.000000000000000 ) ;
#817 = VECTOR ( 'NONE', #362, 1000.000000000000000 ) ;
#818 = CARTESIAN_POINT ( 'NONE',  ( -0.1000000000000000056, 1.007425377110848785, -2.861189048047663164 ) ) ;
#819 = CARTESIAN_POINT ( 'NONE',  ( 5.700000000000000178, 0.0000000000000000000, -1.800000000000000711 ) ) ;
#820 = EDGE_LOOP ( 'NONE', ( #971, #24, #676, #539 ) ) ;
#821 = ADVANCED_FACE ( 'NONE', ( #528 ), #793, .F. ) ;
#822 = CARTESIAN_POINT ( 'NONE',  ( -0.001000000000000132727, 1.007425377110848785, -2.861189048047663164 ) ) ;
#823 = CARTESIAN_POINT ( 'NONE',  ( 5.700000000000000178, 2.799999999999999822, -0.2500000000000000000 ) ) ;
#824 = LINE ( 'NONE', #374, #305 ) ;
#825 = ORIENTED_EDGE ( 'NONE', *, *, #919, .F. ) ;
#826 = CARTESIAN_POINT ( 'NONE',  ( -0.1000000000000000056, 1.399999999999999911, -2.861189048047663164 ) ) ;
#827 = FACE_OUTER_BOUND ( 'NONE', #1007, .T. ) ;
#828 = ORIENTED_EDGE ( 'NONE', *, *, #631, .F. ) ;
#829 = EDGE_CURVE ( 'NONE', #220, #888, #319, .T. ) ;
#830 = FACE_OUTER_BOUND ( 'NONE', #750, .T. ) ;
#831 = LINE ( 'NONE', #6, #330 ) ;
#832 = CARTESIAN_POINT ( 'NONE',  ( 5.700000000000000178, 0.0000000000000000000, 0.0000000000000000000 ) ) ;
#833 = ORIENTED_EDGE ( 'NONE', *, *, #581, .F. ) ;
#834 = CARTESIAN_POINT ( 'NONE',  ( 4.599999999999999645, -0.1000000000000000056, -3.400000000000000799 ) ) ;
#835 = CARTESIAN_POINT ( 'NONE',  ( 0.0000000000000000000, 1.399999999999999911, 0.0000000000000000000 ) ) ;
#836 = ORIENTED_EDGE ( 'NONE', *, *, #1186, .F. ) ;
#837 = LINE ( 'NONE', #934, #324 ) ;
#838 = DIRECTION ( 'NONE',  ( 0.0000000000000000000, 0.0000000000000000000, 1.000000000000000000 ) ) ;
#839 = VECTOR ( 'NONE', #475, 1000.000000000000000 ) ;
#840 = ADVANCED_FACE ( 'NONE', ( #1061 ), #771, .T. ) ;
#841 = AXIS2_PLACEMENT_3D ( 'NONE', #580, #838, #949 ) ;
#842 = EDGE_LOOP ( 'NONE', ( #433, #506, #855, #261 ) ) ;
#843 = DIRECTION ( 'NONE',  ( 0.0000000000000000000, 0.0000000000000000000, -1.000000000000000000 ) ) ;
#844 = ORIENTED_EDGE ( 'NONE', *, *, #755, .T. ) ;
#845 = VECTOR ( 'NONE', #938, 1000.000000000000000 ) ;
#846 = VECTOR ( 'NONE', #474, 1000.000000000000000 ) ;
#847 = VERTEX_POINT ( 'NONE', #890 ) ;
#848 = EDGE_CURVE ( 'NONE', #158, #171, #693, .T. ) ;
#849 = DIRECTION ( 'NONE',  ( 1.000000000000000000, 0.0000000000000000000, 0.0000000000000000000 ) ) ;
#850 = ORIENTED_EDGE ( 'NONE', *, *, #462, .T. ) ;
#851 = CARTESIAN_POINT ( 'NONE',  ( 4.599999999999999645, 0.0000000000000000000, -3.400000000000000799 ) ) ;
#852 = DIRECTION ( 'NONE',  ( -1.000000000000000000, -0.0000000000000000000, -0.0000000000000000000 ) ) ;
#853 = CARTESIAN_POINT ( 'NONE',  ( -0.001000000000000132727, 1.007425377110848785, -2.861189048047663164 ) ) ;
#854 = DIRECTION ( 'NONE',  ( 0.0000000000000000000, -1.000000000000000000, 0.0000000000000000000 ) ) ;
#855 = ORIENTED_EDGE ( 'NONE', *, *, #880, .F. ) ;
#856 = SURFACE_STYLE_FILL_AREA ( #952 ) ;
#857 = EDGE_CURVE ( 'NONE', #61, #375, #349, .T. ) ;
#858 = MANIFOLD_SOLID_BREP ( 'Fillet1', #1184 ) ;
#859 = SURFACE_SIDE_STYLE ('',( #22 ) ) ;
#860 = AXIS2_PLACEMENT_3D ( 'NONE', #72, #444, #538 ) ;
#861 = AXIS2_PLACEMENT_3D ( 'NONE', #822, #756, #1036 ) ;
#862 = LINE ( 'NONE', #951, #179 ) ;
#863 = ORIENTED_EDGE ( 'NONE', *, *, #96, .T. ) ;
#864 = FACE_OUTER_BOUND ( 'NONE', #365, .T. ) ;
#865 = STYLED_ITEM ( 'NONE', ( #415 ), #867 ) ;
#866 = VECTOR ( 'NONE', #659, 1000.000000000000000 ) ;
#867 = ADVANCED_FACE ( 'NONE', ( #326 ), #1185, .F. ) ;
#868 = CARTESIAN_POINT ( 'NONE',  ( 0.0000000000000000000, 1.399999999999999911, -1.800000000000000711 ) ) ;
#869 = SURFACE_STYLE_USAGE ( .BOTH. , #530 ) ;
#870 = DIRECTION ( 'NONE',  ( 0.0000000000000000000, -0.0000000000000000000, -1.000000000000000000 ) ) ;
#871 = ORIENTED_EDGE ( 'NONE', *, *, #1006, .F. ) ;
#872 = PRESENTATION_STYLE_ASSIGNMENT (( #965 ) ) ;
#873 = CARTESIAN_POINT ( 'NONE',  ( 5.700000000000000178, 1.007425377110848785, -2.861189048047663164 ) ) ;
#874 = DIRECTION ( 'NONE',  ( 0.0000000000000000000, -1.000000000000000000, 0.0000000000000000000 ) ) ;
#875 = ORIENTED_EDGE ( 'NONE', *, *, #631, .T. ) ;
#876 = FILL_AREA_STYLE ('',( #337 ) ) ;
#877 = FILL_AREA_STYLE_COLOUR ( '', #994 ) ;
#878 = CARTESIAN_POINT ( 'NONE',  ( 5.700000000000000178, 1.399999999999999911, -2.861189048047663164 ) ) ;
#879 = SURFACE_SIDE_STYLE ('',( #37 ) ) ;
#880 = EDGE_CURVE ( 'NONE', #168, #1102, #65, .T. ) ;
#881 = VERTEX_POINT ( 'NONE', #990 ) ;
#882 = VECTOR ( 'NONE', #1177, 1000.000000000000000 ) ;
#883 = PRESENTATION_STYLE_ASSIGNMENT (( #342 ) ) ;
#884 = AXIS2_PLACEMENT_3D ( 'NONE', #835, #214, #26 ) ;
#885 = DIRECTION ( 'NONE',  ( 0.0000000000000000000, 0.0000000000000000000, -1.000000000000000000 ) ) ;
#886 = CARTESIAN_POINT ( 'NONE',  ( 5.700000000000000178, 1.399999999999999911, -2.338810951952338346 ) ) ;
#887 = ADVANCED_FACE ( 'NONE', ( #827 ), #718, .F. ) ;
#888 = VERTEX_POINT ( 'NONE', #198 ) ;
#889 = UNCERTAINTY_MEASURE_WITH_UNIT (LENGTH_MEASURE( 1.000000000000000082E-05 ), #238, 'distance_accuracy_value', 'NONE');
#890 = CARTESIAN_POINT ( 'NONE',  ( 1.099999999999999867, -0.1000000000000000056, -1.800000000000000711 ) ) ;
#891 = CARTESIAN_POINT ( 'NONE',  ( 0.0000000000000000000, 0.0000000000000000000, -5.200000000000000178 ) ) ;
#892 = FILL_AREA_STYLE_COLOUR ( '', #157 ) ;
#893 = ORIENTED_EDGE ( 'NONE', *, *, #665, .T. ) ;
#894 = EDGE_CURVE ( 'NONE', #310, #734, #553, .T. ) ;
#895 = DIRECTION ( 'NONE',  ( 0.0000000000000000000, 1.000000000000000000, 0.0000000000000000000 ) ) ;
#896 = DIRECTION ( 'NONE',  ( 0.0000000000000000000, 0.0000000000000000000, 1.000000000000000000 ) ) ;
#897 = CARTESIAN_POINT ( 'NONE',  ( 5.800000000000000711, -0.1000000000000000056, -3.400000000000000799 ) ) ;
#898 = CARTESIAN_POINT ( 'NONE',  ( 4.599999999999999645, 0.0000000000000000000, -3.400000000000000799 ) ) ;
#899 = ORIENTED_EDGE ( 'NONE', *, *, #894, .T. ) ;
#900 = COLOUR_RGB ( '',0.9686274509803921573, 0.8784313725490195957, 0.5999999999999999778 ) ;
#901 = VECTOR ( 'NONE', #1097, 1000.000000000000000 ) ;
#902 = EDGE_CURVE ( 'NONE', #630, #594, #911, .T. ) ;
#903 = UNCERTAINTY_MEASURE_WITH_UNIT (LENGTH_MEASURE( 1.000000000000000082E-05 ), #155, 'distance_accuracy_value', 'NONE');
#904 = DIRECTION ( 'NONE',  ( 0.0000000000000000000, 0.0000000000000000000, -1.000000000000000000 ) ) ;
#905 = AXIS2_PLACEMENT_3D ( 'NONE', #149, #691, #1161 ) ;
#906 = LINE ( 'NONE', #809, #60 ) ;
#907 = LINE ( 'NONE', #451, #136 ) ;
#908 = AXIS2_PLACEMENT_3D ( 'NONE', #132, #854, #1021 ) ;
#909 = PRESENTATION_LAYER_ASSIGNMENT (  '', '', ( #1152 ) ) ;
#910 = ORIENTED_EDGE ( 'NONE', *, *, #829, .T. ) ;
#911 = LINE ( 'NONE', #309, #100 ) ;
#912 = CARTESIAN_POINT ( 'NONE',  ( 0.0000000000000000000, 0.0000000000000000000, -1.800000000000000711 ) ) ;
#913 = FACE_OUTER_BOUND ( 'NONE', #708, .T. ) ;
#914 = ORIENTED_EDGE ( 'NONE', *, *, #406, .F. ) ;
#915 = UNCERTAINTY_MEASURE_WITH_UNIT (LENGTH_MEASURE( 1.000000000000000082E-05 ), #615, 'distance_accuracy_value', 'NONE');
#916 = LINE ( 'NONE', #258, #800 ) ;
#917 = LINE ( 'NONE', #912, #720 ) ;
#918 = ORIENTED_EDGE ( 'NONE', *, *, #314, .F. ) ;
#919 = EDGE_CURVE ( 'NONE', #847, #1064, #1111, .T. ) ;
#920 = DIRECTION ( 'NONE',  ( 0.0000000000000000000, -1.000000000000000000, 0.0000000000000000000 ) ) ;
#921 = VECTOR ( 'NONE', #567, 1000.000000000000000 ) ;
#922 = MECHANICAL_DESIGN_GEOMETRIC_PRESENTATION_REPRESENTATION (  '', ( #440 ), #799 ) ;
#923 = PLANE ( 'NONE',  #42 ) ;
#924 = LINE ( 'NONE', #287, #1034 ) ;
#925 = LINE ( 'NONE', #196, #1086 ) ;
#926 = MECHANICAL_DESIGN_GEOMETRIC_PRESENTATION_REPRESENTATION (  '', ( #1088 ), #942 ) ;
#927 = ORIENTED_EDGE ( 'NONE', *, *, #698, .F. ) ;
#928 = COLOUR_RGB ( '',0.7921568627450980005, 0.8196078431372548767, 0.9333333333333333481 ) ;
#929 = EDGE_CURVE ( 'NONE', #197, #932, #207, .T. ) ;
#930 = CARTESIAN_POINT ( 'NONE',  ( 5.700000000000000178, 1.399999999999999911, -3.400000000000000799 ) ) ;
#931 = LINE ( 'NONE', #721, #882 ) ;
#932 = VERTEX_POINT ( 'NONE', #16 ) ;
#933 = DIRECTION ( 'NONE',  ( 0.0000000000000000000, 0.0000000000000000000, -1.000000000000000000 ) ) ;
#934 = CARTESIAN_POINT ( 'NONE',  ( -0.001000000000000132727, 1.399999999999999911, -2.861189048047663164 ) ) ;
#935 = ADVANCED_FACE ( 'NONE', ( #128 ), #495, .F. ) ;
#936 = PRODUCT_CONTEXT ( 'NONE', #514, 'mechanical' ) ;
#937 = ORIENTED_EDGE ( 'NONE', *, *, #713, .T. ) ;
#938 = DIRECTION ( 'NONE',  ( 1.000000000000000000, -0.0000000000000000000, -0.0000000000000000000 ) ) ;
#939 = ADVANCED_FACE ( 'NONE', ( #583 ), #1120, .F. ) ;
#940 =( LENGTH_UNIT ( ) NAMED_UNIT ( * ) SI_UNIT ( .MILLI., .METRE. ) );
#941 = FACE_OUTER_BOUND ( 'NONE', #109, .T. ) ;
#942 =( GEOMETRIC_REPRESENTATION_CONTEXT ( 3 ) GLOBAL_UNCERTAINTY_ASSIGNED_CONTEXT ( ( #812 ) ) GLOBAL_UNIT_ASSIGNED_CONTEXT ( ( #1133, #558, #1171 ) ) REPRESENTATION_CONTEXT ( 'NONE', 'WORKASPACE' ) );
#943 = ORIENTED_EDGE ( 'NONE', *, *, #333, .F. ) ;
#944 = CARTESIAN_POINT ( 'NONE',  ( 5.800000000000000711, 1.399999999999999911, -3.400000000000000799 ) ) ;
#945 = MECHANICAL_DESIGN_GEOMETRIC_PRESENTATION_REPRESENTATION (  '', ( #865 ), #427 ) ;
#946 = ORIENTED_EDGE ( 'NONE', *, *, #368, .T. ) ;
#947 = CARTESIAN_POINT ( 'NONE',  ( 5.700000000000000178, 0.0000000000000000000, -4.949999999999999289 ) ) ;
#948 =( NAMED_UNIT ( * ) SI_UNIT ( $, .STERADIAN. ) SOLID_ANGLE_UNIT ( ) );
#949 = DIRECTION ( 'NONE',  ( -1.000000000000000000, 0.0000000000000000000, 0.0000000000000000000 ) ) ;
#950 = EDGE_LOOP ( 'NONE', ( #526, #241, #981, #997 ) ) ;
#951 = CARTESIAN_POINT ( 'NONE',  ( 0.2500000000000000000, 2.799999999999999822, 0.0000000000000000000 ) ) ;
#952 = FILL_AREA_STYLE ('',( #585 ) ) ;
#953 = LINE ( 'NONE', #1042, #577 ) ;
#954 = LINE ( 'NONE', #140, #229 ) ;
#955 = DIRECTION ( 'NONE',  ( -0.0000000000000000000, -0.0000000000000000000, 1.000000000000000000 ) ) ;
#956 = EDGE_CURVE ( 'NONE', #496, #562, #590, .T. ) ;
#957 = VERTEX_POINT ( 'NONE', #38 ) ;
#958 = CARTESIAN_POINT ( 'NONE',  ( 0.0000000000000000000, 0.0000000000000000000, 0.0000000000000000000 ) ) ;
#959 = AXIS2_PLACEMENT_3D ( 'NONE', #810, #432, #791 ) ;
#960 = FACE_OUTER_BOUND ( 'NONE', #780, .T. ) ;
#961 = AXIS2_PLACEMENT_3D ( 'NONE', #868, #217, #592 ) ;
#962 = ORIENTED_EDGE ( 'NONE', *, *, #972, .T. ) ;
#963 =( NAMED_UNIT ( * ) SI_UNIT ( $, .STERADIAN. ) SOLID_ANGLE_UNIT ( ) );
#964 = VECTOR ( 'NONE', #895, 1000.000000000000000 ) ;
#965 = SURFACE_STYLE_USAGE ( .BOTH. , #244 ) ;
#966 = ORIENTED_EDGE ( 'NONE', *, *, #616, .F. ) ;
#967 = LINE ( 'NONE', #851, #407 ) ;
#968 = EDGE_CURVE ( 'NONE', #121, #985, #742, .T. ) ;
#969 = SURFACE_STYLE_FILL_AREA ( #1073 ) ;
#970 = FACE_OUTER_BOUND ( 'NONE', #1020, .T. ) ;
#971 = ORIENTED_EDGE ( 'NONE', *, *, #105, .T. ) ;
#972 = EDGE_CURVE ( 'NONE', #153, #630, #862, .T. ) ;
#973 = LINE ( 'NONE', #525, #230 ) ;
#974 = LINE ( 'NONE', #315, #1103 ) ;
#975 = LINE ( 'NONE', #776, #1109 ) ;
#976 = ORIENTED_EDGE ( 'NONE', *, *, #968, .T. ) ;
#977 = MECHANICAL_DESIGN_GEOMETRIC_PRESENTATION_REPRESENTATION (  '', ( #1187 ), #284 ) ;
#978 = PRESENTATION_LAYER_ASSIGNMENT (  '', '', ( #802 ) ) ;
#979 = LINE ( 'NONE', #785, #425 ) ;
#980 = DIRECTION ( 'NONE',  ( 1.000000000000000000, 0.0000000000000000000, 0.0000000000000000000 ) ) ;
#981 = ORIENTED_EDGE ( 'NONE', *, *, #555, .F. ) ;
#982 = EDGE_CURVE ( 'NONE', #17, #717, #290, .T. ) ;
#983 = DIRECTION ( 'NONE',  ( 0.0000000000000000000, -1.000000000000000000, 0.0000000000000000000 ) ) ;
#984 = CARTESIAN_POINT ( 'NONE',  ( 0.2500000000000000000, 0.0000000000000000000, -0.2500000000000000000 ) ) ;
#985 = VERTEX_POINT ( 'NONE', #944 ) ;
#986 = CARTESIAN_POINT ( 'NONE',  ( 5.800000000000000711, 1.007425377110848785, -2.861189048047663164 ) ) ;
#987 = CARTESIAN_POINT ( 'NONE',  ( 0.0000000000000000000, 2.799999999999999822, -5.200000000000000178 ) ) ;
#988 = PRESENTATION_STYLE_ASSIGNMENT (( #711 ) ) ;
#989 = ORIENTED_EDGE ( 'NONE', *, *, #180, .F. ) ;
#990 = CARTESIAN_POINT ( 'NONE',  ( 5.700000000000000178, 2.799999999999999822, -4.949999999999999289 ) ) ;
#991 = VECTOR ( 'NONE', #94, 1000.000000000000000 ) ;
#992 = CARTESIAN_POINT ( 'NONE',  ( 0.2500000000000000000, 0.0000000000000000000, -5.200000000000000178 ) ) ;
#993 = DIRECTION ( 'NONE',  ( 1.000000000000000000, 0.0000000000000000000, 0.0000000000000000000 ) ) ;
#994 = COLOUR_RGB ( '',0.9686274509803921573, 0.8784313725490195957, 0.5999999999999999778 ) ;
#995 = CARTESIAN_POINT ( 'NONE',  ( 0.0000000000000000000, 1.007425377110848785, -2.861189048047663164 ) ) ;
#996 = CARTESIAN_POINT ( 'NONE',  ( 0.0000000000000000000, 0.0000000000000000000, -3.400000000000000799 ) ) ;
#997 = ORIENTED_EDGE ( 'NONE', *, *, #70, .F. ) ;
#998 = PLANE ( 'NONE',  #231 ) ;
#999 = ADVANCED_FACE ( 'NONE', ( #202 ), #499, .T. ) ;
#1000 = CARTESIAN_POINT ( 'NONE',  ( 5.800000000000000711, 1.399999999999999911, -2.338810951952338346 ) ) ;
#1001 = CARTESIAN_POINT ( 'NONE',  ( 0.2500000000000000000, 2.799999999999999822, -4.949999999999999289 ) ) ;
#1002 = ORIENTED_EDGE ( 'NONE', *, *, #508, .F. ) ;
#1003 = CARTESIAN_POINT ( 'NONE',  ( 5.701000000000000512, 1.007425377110848785, -2.861189048047663164 ) ) ;
#1004 = DIRECTION ( 'NONE',  ( 0.0000000000000000000, 0.0000000000000000000, -1.000000000000000000 ) ) ;
#1005 = CARTESIAN_POINT ( 'NONE',  ( 5.700000000000000178, 1.399999999999999911, -2.338810951952338346 ) ) ;
#1006 = EDGE_CURVE ( 'NONE', #1130, #591, #317, .T. ) ;
#1007 = EDGE_LOOP ( 'NONE', ( #104, #292, #728, #914 ) ) ;
#1008 = ORIENTED_EDGE ( 'NONE', *, *, #482, .F. ) ;
#1009 = MECHANICAL_DESIGN_GEOMETRIC_PRESENTATION_REPRESENTATION (  '', ( #303 ), #459 ) ;
#1010 = AXIS2_PLACEMENT_3D ( 'NONE', #777, #327, #334 ) ;
#1011 = STYLED_ITEM ( 'NONE', ( #671 ), #794 ) ;
#1012 = CARTESIAN_POINT ( 'NONE',  ( 1.099999999999999867, -0.1000000000000000056, -3.400000000000000799 ) ) ;
#1013 = ORIENTED_EDGE ( 'NONE', *, *, #972, .F. ) ;
#1014 = VECTOR ( 'NONE', #933, 1000.000000000000000 ) ;
#1015 = DIRECTION ( 'NONE',  ( 0.0000000000000000000, 0.0000000000000000000, -1.000000000000000000 ) ) ;
#1016 = ADVANCED_FACE ( 'NONE', ( #1115 ), #760, .F. ) ;
#1017 = ORIENTED_EDGE ( 'NONE', *, *, #434, .T. ) ;
#1018 = LINE ( 'NONE', #170, #1124 ) ;
#1019 = CARTESIAN_POINT ( 'NONE',  ( 0.0000000000000000000, 0.0000000000000000000, 0.0000000000000000000 ) ) ;
#1020 = EDGE_LOOP ( 'NONE', ( #1008, #609, #356, #643, #1167, #1108, #576, #798 ) ) ;
#1021 = DIRECTION ( 'NONE',  ( 0.0000000000000000000, 0.0000000000000000000, -1.000000000000000000 ) ) ;
#1022 = ORIENTED_EDGE ( 'NONE', *, *, #379, .T. ) ;
#1023 = EDGE_CURVE ( 'NONE', #932, #562, #1033, .T. ) ;
#1024 = LINE ( 'NONE', #766, #806 ) ;
#1025 = LINE ( 'NONE', #211, #160 ) ;
#1026 = VERTEX_POINT ( 'NONE', #570 ) ;
#1027 = CARTESIAN_POINT ( 'NONE',  ( 5.701000000000000512, 1.399999999999999911, -2.861189048047663164 ) ) ;
#1028 = EDGE_LOOP ( 'NONE', ( #1183, #215, #46, #552, #176, #1149, #527, #184 ) ) ;
#1029 = DIRECTION ( 'NONE',  ( -0.0000000000000000000, -1.000000000000000000, -0.0000000000000000000 ) ) ;
#1030 = CARTESIAN_POINT ( 'NONE',  ( 5.800000000000000711, 1.007425377110848785, -2.338810951952338346 ) ) ;
#1031 = VECTOR ( 'NONE', #89, 1000.000000000000000 ) ;
#1032 = ORIENTED_EDGE ( 'NONE', *, *, #257, .F. ) ;
#1033 = LINE ( 'NONE', #219, #286 ) ;
#1034 = VECTOR ( 'NONE', #101, 1000.000000000000000 ) ;
#1035 = ORIENTED_EDGE ( 'NONE', *, *, #616, .T. ) ;
#1036 = DIRECTION ( 'NONE',  ( -0.0000000000000000000, 0.0000000000000000000, -1.000000000000000000 ) ) ;
#1037 = FILL_AREA_STYLE_COLOUR ( '', #561 ) ;
#1038 = ADVANCED_FACE ( 'NONE', ( #504 ), #45, .F. ) ;
#1039 = ORIENTED_EDGE ( 'NONE', *, *, #982, .F. ) ;
#1040 = DIRECTION ( 'NONE',  ( 0.0000000000000000000, -0.0000000000000000000, 1.000000000000000000 ) ) ;
#1041 = EDGE_LOOP ( 'NONE', ( #1069, #1051, #498, #962 ) ) ;
#1042 = CARTESIAN_POINT ( 'NONE',  ( 1.099999999999999867, -0.1000000000000000056, -3.400000000000000799 ) ) ;
#1043 =( LENGTH_UNIT ( ) NAMED_UNIT ( * ) SI_UNIT ( .MILLI., .METRE. ) );
#1044 = EDGE_CURVE ( 'NONE', #391, #496, #767, .T. ) ;
#1045 = LINE ( 'NONE', #753, #1014 ) ;
#1046 = ORIENTED_EDGE ( 'NONE', *, *, #625, .F. ) ;
#1047 = LINE ( 'NONE', #662, #138 ) ;
#1048 = VECTOR ( 'NONE', #1146, 1000.000000000000000 ) ;
#1049 = FACE_OUTER_BOUND ( 'NONE', #774, .T. ) ;
#1050 = PRESENTATION_LAYER_ASSIGNMENT (  '', '', ( #62 ) ) ;
#1051 = ORIENTED_EDGE ( 'NONE', *, *, #262, .T. ) ;
#1052 = LINE ( 'NONE', #209, #901 ) ;
#1053 = PRESENTATION_LAYER_ASSIGNMENT (  '', '', ( #270 ) ) ;
#1054 = EDGE_CURVE ( 'NONE', #617, #126, #653, .T. ) ;
#1055 = AXIS2_PLACEMENT_3D ( 'NONE', #57, #779, #329 ) ;
#1056 =( GEOMETRIC_REPRESENTATION_CONTEXT ( 3 ) GLOBAL_UNCERTAINTY_ASSIGNED_CONTEXT ( ( #243 ) ) GLOBAL_UNIT_ASSIGNED_CONTEXT ( ( #28, #1117, #373 ) ) REPRESENTATION_CONTEXT ( 'NONE', 'WORKASPACE' ) );
#1057 = DIRECTION ( 'NONE',  ( 0.0000000000000000000, 0.0000000000000000000, -1.000000000000000000 ) ) ;
#1058 = CARTESIAN_POINT ( 'NONE',  ( 5.700000000000000178, 1.007425377110848785, -2.338810951952338346 ) ) ;
#1059 = ORIENTED_EDGE ( 'NONE', *, *, #894, .F. ) ;
#1060 = EDGE_CURVE ( 'NONE', #247, #121, #1045, .T. ) ;
#1061 = FACE_OUTER_BOUND ( 'NONE', #115, .T. ) ;
#1062 = DIRECTION ( 'NONE',  ( 0.0000000000000000000, 0.0000000000000000000, -1.000000000000000000 ) ) ;
#1063 =( NAMED_UNIT ( * ) PLANE_ANGLE_UNIT ( ) SI_UNIT ( $, .RADIAN. ) );
#1064 = VERTEX_POINT ( 'NONE', #68 ) ;
#1065 = ADVANCED_FACE ( 'NONE', ( #1142 ), #321, .F. ) ;
#1066 = LINE ( 'NONE', #891, #78 ) ;
#1067 = PLANE ( 'NONE',  #282 ) ;
#1068 = CLOSED_SHELL ( 'NONE', ( #681, #867, #549, #144, #524, #794, #840, #275, #821, #1123, #1065, #788 ) ) ;
#1069 = ORIENTED_EDGE ( 'NONE', *, *, #902, .T. ) ;
#1070 = VECTOR ( 'NONE', #1029, 1000.000000000000000 ) ;
#1071 = PRESENTATION_LAYER_ASSIGNMENT (  '', '', ( #1088 ) ) ;
#1072 = AXIS2_PLACEMENT_3D ( 'NONE', #1145, #520, #232 ) ;
#1073 = FILL_AREA_STYLE ('',( #1153 ) ) ;
#1074 = DIRECTION ( 'NONE',  ( 1.000000000000000000, 0.0000000000000000000, 0.0000000000000000000 ) ) ;
#1075 = EDGE_CURVE ( 'NONE', #423, #310, #473, .T. ) ;
#1076 = VERTEX_POINT ( 'NONE', #652 ) ;
#1077 = UNCERTAINTY_MEASURE_WITH_UNIT (LENGTH_MEASURE( 1.000000000000000082E-05 ), #248, 'distance_accuracy_value', 'NONE');
#1078 = DIRECTION ( 'NONE',  ( 0.0000000000000000000, 0.0000000000000000000, -1.000000000000000000 ) ) ;
#1079 =( LENGTH_UNIT ( ) NAMED_UNIT ( * ) SI_UNIT ( .MILLI., .METRE. ) );
#1080 = ORIENTED_EDGE ( 'NONE', *, *, #338, .F. ) ;
#1081 = LINE ( 'NONE', #1176, #661 ) ;
#1082 = DIRECTION ( 'NONE',  ( 0.0000000000000000000, -1.000000000000000000, -0.0000000000000000000 ) ) ;
#1083 = CARTESIAN_POINT ( 'NONE',  ( 5.800000000000000711, 1.399999999999999911, -2.861189048047663164 ) ) ;
#1084 = EDGE_LOOP ( 'NONE', ( #256, #825, #516, #331 ) ) ;
#1085 = DIRECTION ( 'NONE',  ( 0.0000000000000000000, 0.0000000000000000000, -1.000000000000000000 ) ) ;
#1086 = VECTOR ( 'NONE', #715, 1000.000000000000000 ) ;
#1087 = EDGE_CURVE ( 'NONE', #562, #649, #1119, .T. ) ;
#1088 = STYLED_ITEM ( 'NONE', ( #408 ), #549 ) ;
#1089 = CARTESIAN_POINT ( 'NONE',  ( 5.450000000000000178, 2.799999999999999822, -5.200000000000000178 ) ) ;
#1090 = AXIS2_PLACEMENT_3D ( 'NONE', #366, #725, #1085 ) ;
#1091 = PRESENTATION_STYLE_ASSIGNMENT (( #1182 ) ) ;
#1092 = ORIENTED_EDGE ( 'NONE', *, *, #719, .T. ) ;
#1093 = EDGE_CURVE ( 'NONE', #391, #649, #975, .T. ) ;
#1094 = LINE ( 'NONE', #635, #98 ) ;
#1095 = ORIENTED_EDGE ( 'NONE', *, *, #297, .T. ) ;
#1096 = CARTESIAN_POINT ( 'NONE',  ( 0.2500000000000000000, 0.0000000000000000000, -4.949999999999999289 ) ) ;
#1097 = DIRECTION ( 'NONE',  ( -1.000000000000000000, 0.0000000000000000000, 0.0000000000000000000 ) ) ;
#1098 = LINE ( 'NONE', #738, #507 ) ;
#1099 = EDGE_CURVE ( 'NONE', #1174, #247, #624, .T. ) ;
#1100 = EDGE_LOOP ( 'NONE', ( #296, #602, #701, #747 ) ) ;
#1101 = CARTESIAN_POINT ( 'NONE',  ( 4.599999999999999645, -0.1000000000000000056, -1.800000000000000711 ) ) ;
#1102 = VERTEX_POINT ( 'NONE', #992 ) ;
#1103 = VECTOR ( 'NONE', #593, 1000.000000000000000 ) ;
#1104 = PRESENTATION_LAYER_ASSIGNMENT (  '', '', ( #440 ) ) ;
#1105 = DIRECTION ( 'NONE',  ( 1.000000000000000000, 0.0000000000000000000, -0.0000000000000000000 ) ) ;
#1106 = SURFACE_SIDE_STYLE ('',( #13 ) ) ;
#1107 = CARTESIAN_POINT ( 'NONE',  ( 5.701000000000000512, 1.007425377110848785, -2.338810951952338346 ) ) ;
#1108 = ORIENTED_EDGE ( 'NONE', *, *, #555, .T. ) ;
#1109 = VECTOR ( 'NONE', #446, 1000.000000000000000 ) ;
#1110 = EDGE_CURVE ( 'NONE', #121, #617, #87, .T. ) ;
#1111 = LINE ( 'NONE', #383, #724 ) ;
#1112 = ORIENTED_EDGE ( 'NONE', *, *, #698, .T. ) ;
#1113 = DIRECTION ( 'NONE',  ( 1.000000000000000000, 0.0000000000000000000, 0.0000000000000000000 ) ) ;
#1114 = VERTEX_POINT ( 'NONE', #117 ) ;
#1115 = FACE_OUTER_BOUND ( 'NONE', #820, .T. ) ;
#1116 = ORIENTED_EDGE ( 'NONE', *, *, #1180, .T. ) ;
#1117 =( NAMED_UNIT ( * ) PLANE_ANGLE_UNIT ( ) SI_UNIT ( $, .RADIAN. ) );
#1118 = ORIENTED_EDGE ( 'NONE', *, *, #190, .T. ) ;
#1119 = LINE ( 'NONE', #826, #235 ) ;
#1120 = PLANE ( 'NONE',  #663 ) ;
#1121 = ORIENTED_EDGE ( 'NONE', *, *, #39, .F. ) ;
#1122 = DIRECTION ( 'NONE',  ( 0.0000000000000000000, -1.000000000000000000, -0.0000000000000000000 ) ) ;
#1123 = ADVANCED_FACE ( 'NONE', ( #757 ), #518, .F. ) ;
#1124 = VECTOR ( 'NONE', #285, 1000.000000000000000 ) ;
#1125 = SURFACE_STYLE_FILL_AREA ( #770 ) ;
#1126 = VECTOR ( 'NONE', #1004, 1000.000000000000000 ) ;
#1127 = FILL_AREA_STYLE ('',( #503 ) ) ;
#1128 = CARTESIAN_POINT ( 'NONE',  ( 0.0000000000000000000, -0.1000000000000000056, 0.0000000000000000000 ) ) ;
#1129 = AXIS2_PLACEMENT_3D ( 'NONE', #699, #1134, #885 ) ;
#1130 = VERTEX_POINT ( 'NONE', #598 ) ;
#1131 = CARTESIAN_POINT ( 'NONE',  ( 5.800000000000000711, -0.1000000000000000056, -1.800000000000000711 ) ) ;
#1132 = EDGE_CURVE ( 'NONE', #620, #391, #316, .T. ) ;
#1133 =( LENGTH_UNIT ( ) NAMED_UNIT ( * ) SI_UNIT ( .MILLI., .METRE. ) );
#1134 = DIRECTION ( 'NONE',  ( -0.0000000000000000000, 1.000000000000000000, -0.0000000000000000000 ) ) ;
#1135 = ORIENTED_EDGE ( 'NONE', *, *, #772, .F. ) ;
#1136 = CARTESIAN_POINT ( 'NONE',  ( 0.0000000000000000000, 2.799999999999999822, 0.0000000000000000000 ) ) ;
#1137 = ORIENTED_EDGE ( 'NONE', *, *, #1060, .F. ) ;
#1138 = DIRECTION ( 'NONE',  ( 0.0000000000000000000, 0.0000000000000000000, 1.000000000000000000 ) ) ;
#1139 = SURFACE_SIDE_STYLE ('',( #1125 ) ) ;
#1140 = PLANE ( 'NONE',  #438 ) ;
#1141 = ADVANCED_FACE ( 'NONE', ( #263 ), #476, .T. ) ;
#1142 = FACE_OUTER_BOUND ( 'NONE', #690, .T. ) ;
#1143 = ORIENTED_EDGE ( 'NONE', *, *, #434, .F. ) ;
#1144 = CARTESIAN_POINT ( 'NONE',  ( 1.099999999999999867, -0.1000000000000000056, -3.400000000000000799 ) ) ;
#1145 = CARTESIAN_POINT ( 'NONE',  ( 5.700000000000000178, 0.0000000000000000000, 0.0000000000000000000 ) ) ;
#1146 = DIRECTION ( 'NONE',  ( 0.0000000000000000000, 1.000000000000000000, 0.0000000000000000000 ) ) ;
#1147 = VECTOR ( 'NONE', #1158, 1000.000000000000000 ) ;
#1148 = EDGE_CURVE ( 'NONE', #1064, #679, #1024, .T. ) ;
#1149 = ORIENTED_EDGE ( 'NONE', *, *, #190, .F. ) ;
#1150 = DIRECTION ( 'NONE',  ( 0.0000000000000000000, 0.0000000000000000000, -1.000000000000000000 ) ) ;
#1151 = STYLED_ITEM ( 'NONE', ( #789 ), #840 ) ;
#1152 = STYLED_ITEM ( 'NONE', ( #730 ), #589 ) ;
#1153 = FILL_AREA_STYLE_COLOUR ( '', #900 ) ;
#1154 = LINE ( 'NONE', #853, #816 ) ;
#1155 = ORIENTED_EDGE ( 'NONE', *, *, #167, .T. ) ;
#1156 = CARTESIAN_POINT ( 'NONE',  ( 0.2500000000000000000, 2.799999999999999822, -0.2500000000000000000 ) ) ;
#1157 =( NAMED_UNIT ( * ) SI_UNIT ( $, .STERADIAN. ) SOLID_ANGLE_UNIT ( ) );
#1158 = DIRECTION ( 'NONE',  ( -0.0000000000000000000, 1.000000000000000000, -0.0000000000000000000 ) ) ;
#1159 = SURFACE_SIDE_STYLE ('',( #535 ) ) ;
#1160 = ORIENTED_EDGE ( 'NONE', *, *, #242, .F. ) ;
#1161 = DIRECTION ( 'NONE',  ( 0.0000000000000000000, 0.0000000000000000000, 1.000000000000000000 ) ) ;
#1162 = EDGE_CURVE ( 'NONE', #1026, #957, #924, .T. ) ;
#1163 = DIRECTION ( 'NONE',  ( -0.0000000000000000000, -1.000000000000000000, -0.0000000000000000000 ) ) ;
#1164 = CARTESIAN_POINT ( 'NONE',  ( 4.599999999999999645, -0.1000000000000000056, -3.400000000000000799 ) ) ;
#1165 = LINE ( 'NONE', #707, #41 ) ;
#1166 = CIRCLE ( 'NONE', #403, 0.2500000000000000000 ) ;
#1167 = ORIENTED_EDGE ( 'NONE', *, *, #462, .F. ) ;
#1168 = PRESENTATION_LAYER_ASSIGNMENT (  '', '', ( #1011 ) ) ;
#1169 = DIRECTION ( 'NONE',  ( 0.0000000000000000000, 0.0000000000000000000, -1.000000000000000000 ) ) ;
#1170 = PRODUCT_DEFINITION_FORMATION_WITH_SPECIFIED_SOURCE ( 'ANY', '', #92, .NOT_KNOWN. ) ;
#1171 =( NAMED_UNIT ( * ) SI_UNIT ( $, .STERADIAN. ) SOLID_ANGLE_UNIT ( ) );
#1172 = PRESENTATION_STYLE_ASSIGNMENT (( #156 ) ) ;
#1173 = PLANE ( 'NONE',  #959 ) ;
#1174 = VERTEX_POINT ( 'NONE', #466 ) ;
#1175 = DIRECTION ( 'NONE',  ( 0.0000000000000000000, -1.000000000000000000, 0.0000000000000000000 ) ) ;
#1176 = CARTESIAN_POINT ( 'NONE',  ( 1.099999999999999867, 0.0000000000000000000, -3.400000000000000799 ) ) ;
#1177 = DIRECTION ( 'NONE',  ( 0.0000000000000000000, -0.0000000000000000000, -1.000000000000000000 ) ) ;
#1178 = PLANE ( 'NONE',  #641 ) ;
#1179 = VERTEX_POINT ( 'NONE', #823 ) ;
#1180 = EDGE_CURVE ( 'NONE', #375, #168, #831, .T. ) ;
#1181 = FACE_OUTER_BOUND ( 'NONE', #1084, .T. ) ;
#1182 = SURFACE_STYLE_USAGE ( .BOTH. , #378 ) ;
#1183 = ORIENTED_EDGE ( 'NONE', *, *, #49, .F. ) ;
#1184 = CLOSED_SHELL ( 'NONE', ( #4, #1038, #588, #644, #159, #84, #1141, #999, #218, #803 ) ) ;
#1185 = PLANE ( 'NONE',  #1090 ) ;
#1186 = EDGE_CURVE ( 'NONE', #1179, #881, #112, .T. ) ;
#1187 = STYLED_ITEM ( 'NONE', ( #1091 ), #464 ) ;
#1188 = AXIS2_PLACEMENT_3D ( 'NONE', #369, #801, #896 ) ;
ENDSEC;
END-ISO-10303-21;
