ISO-10303-21;
HEADER;
FILE_DESCRIPTION((''),'2;1');
FILE_NAME('CDTP','2022-10-08T12:02:18',('fyq'),(''),
'CREO PARAMETRIC BY PTC INC, 2020033','CREO PARAMETRIC BY PTC INC, 2020033','');
FILE_SCHEMA(('CONFIG_CONTROL_DESIGN'));
ENDSEC;
DATA;
#2=CARTESIAN_POINT('',(1.8E1,2.9E1,-7.742000090289E1));
#3=DIRECTION('',(0.E0,0.E0,-1.E0));
#4=DIRECTION('',(0.E0,1.E0,0.E0));
#5=AXIS2_PLACEMENT_3D('',#2,#3,#4);
#7=DIRECTION('',(1.E0,0.E0,0.E0));
#8=VECTOR('',#7,1.3E1);
#9=CARTESIAN_POINT('',(5.E0,2.99E1,-7.742000090289E1));
#10=LINE('',#9,#8);
#11=CARTESIAN_POINT('',(5.E0,2.9E1,-7.742000090289E1));
#12=DIRECTION('',(0.E0,0.E0,-1.E0));
#13=DIRECTION('',(-1.E0,0.E0,0.E0));
#14=AXIS2_PLACEMENT_3D('',#11,#12,#13);
#16=DIRECTION('',(0.E0,1.E0,0.E0));
#17=VECTOR('',#16,7.E0);
#18=CARTESIAN_POINT('',(4.1E0,2.2E1,-7.742000090289E1));
#19=LINE('',#18,#17);
#20=CARTESIAN_POINT('',(5.E0,2.2E1,-7.742000090289E1));
#21=DIRECTION('',(0.E0,0.E0,-1.E0));
#22=DIRECTION('',(0.E0,-1.E0,0.E0));
#23=AXIS2_PLACEMENT_3D('',#20,#21,#22);
#25=DIRECTION('',(-1.E0,0.E0,0.E0));
#26=VECTOR('',#25,1.3E1);
#27=CARTESIAN_POINT('',(1.8E1,2.11E1,-7.742000090289E1));
#28=LINE('',#27,#26);
#29=CARTESIAN_POINT('',(1.8E1,2.2E1,-7.742000090289E1));
#30=DIRECTION('',(0.E0,0.E0,-1.E0));
#31=DIRECTION('',(1.E0,0.E0,0.E0));
#32=AXIS2_PLACEMENT_3D('',#29,#30,#31);
#34=DIRECTION('',(0.E0,-1.E0,0.E0));
#35=VECTOR('',#34,7.E0);
#36=CARTESIAN_POINT('',(1.89E1,2.9E1,-7.742000090289E1));
#37=LINE('',#36,#35);
#38=CARTESIAN_POINT('',(1.8E1,2.99E1,-7.682000090289E1));
#39=DIRECTION('',(1.E0,0.E0,0.E0));
#40=DIRECTION('',(0.E0,0.E0,-1.E0));
#41=AXIS2_PLACEMENT_3D('',#38,#39,#40);
#43=CARTESIAN_POINT('',(1.89E1,2.9E1,-7.682000090289E1));
#44=DIRECTION('',(0.E0,-1.E0,0.E0));
#45=DIRECTION('',(0.E0,0.E0,-1.E0));
#46=AXIS2_PLACEMENT_3D('',#43,#44,#45);
#48=CARTESIAN_POINT('',(1.89E1,2.2E1,-7.682000090289E1));
#49=DIRECTION('',(0.E0,-1.E0,0.E0));
#50=DIRECTION('',(0.E0,0.E0,-1.E0));
#51=AXIS2_PLACEMENT_3D('',#48,#49,#50);
#53=CARTESIAN_POINT('',(1.8E1,2.11E1,-7.682000090289E1));
#54=DIRECTION('',(-1.E0,0.E0,0.E0));
#55=DIRECTION('',(0.E0,0.E0,-1.E0));
#56=AXIS2_PLACEMENT_3D('',#53,#54,#55);
#58=CARTESIAN_POINT('',(5.E0,2.11E1,-7.682000090289E1));
#59=DIRECTION('',(-1.E0,0.E0,0.E0));
#60=DIRECTION('',(0.E0,0.E0,-1.E0));
#61=AXIS2_PLACEMENT_3D('',#58,#59,#60);
#63=CARTESIAN_POINT('',(4.1E0,2.2E1,-7.682000090289E1));
#64=DIRECTION('',(0.E0,1.E0,0.E0));
#65=DIRECTION('',(0.E0,0.E0,-1.E0));
#66=AXIS2_PLACEMENT_3D('',#63,#64,#65);
#68=CARTESIAN_POINT('',(4.1E0,2.9E1,-7.682000090289E1));
#69=DIRECTION('',(0.E0,1.E0,0.E0));
#70=DIRECTION('',(0.E0,0.E0,-1.E0));
#71=AXIS2_PLACEMENT_3D('',#68,#69,#70);
#73=CARTESIAN_POINT('',(5.E0,2.99E1,-7.682000090289E1));
#74=DIRECTION('',(1.E0,0.E0,0.E0));
#75=DIRECTION('',(0.E0,0.E0,-1.E0));
#76=AXIS2_PLACEMENT_3D('',#73,#74,#75);
#78=DIRECTION('',(1.E0,0.E0,0.E0));
#79=VECTOR('',#78,1.299999999997E1);
#80=CARTESIAN_POINT('',(5.000000000010E0,3.05E1,-7.682000090289E1));
#81=LINE('',#80,#79);
#82=DIRECTION('',(7.612372270999E-12,0.E0,1.E0));
#83=VECTOR('',#82,2.6E0);
#84=CARTESIAN_POINT('',(1.799999999998E1,3.05E1,-7.682000090289E1));
#85=LINE('',#84,#83);
#86=DIRECTION('',(1.E0,0.E0,0.E0));
#87=VECTOR('',#86,1.3E1);
#88=CARTESIAN_POINT('',(5.E0,3.05E1,-7.422000090289E1));
#89=LINE('',#88,#87);
#90=DIRECTION('',(-3.851961484823E-12,0.E0,1.E0));
#91=VECTOR('',#90,2.6E0);
#92=CARTESIAN_POINT('',(5.000000000010E0,3.05E1,-7.682000090289E1));
#93=LINE('',#92,#91);
#94=CARTESIAN_POINT('',(1.8E1,2.9E1,-7.682000090289E1));
#95=DIRECTION('',(0.E0,0.E0,-1.E0));
#96=DIRECTION('',(0.E0,1.E0,0.E0));
#97=AXIS2_PLACEMENT_3D('',#94,#95,#96);
#99=CARTESIAN_POINT('',(1.8E1,2.9E1,-7.422000090289E1));
#100=DIRECTION('',(0.E0,0.E0,1.E0));
#101=DIRECTION('',(1.E0,0.E0,0.E0));
#102=AXIS2_PLACEMENT_3D('',#99,#100,#101);
#104=DIRECTION('',(0.E0,-1.E0,0.E0));
#105=VECTOR('',#104,6.999999999970E0);
#106=CARTESIAN_POINT('',(1.95E1,2.899999999999E1,-7.682000090289E1));
#107=LINE('',#106,#105);
#108=DIRECTION('',(0.E0,-7.613738699337E-12,1.E0));
#109=VECTOR('',#108,2.6E0);
#110=CARTESIAN_POINT('',(1.95E1,2.200000000002E1,-7.682000090289E1));
#111=LINE('',#110,#109);
#112=DIRECTION('',(0.E0,-1.E0,0.E0));
#113=VECTOR('',#112,7.E0);
#114=CARTESIAN_POINT('',(1.95E1,2.9E1,-7.422000090289E1));
#115=LINE('',#114,#113);
#116=DIRECTION('',(0.E0,3.850595056485E-12,1.E0));
#117=VECTOR('',#116,2.6E0);
#118=CARTESIAN_POINT('',(1.95E1,2.899999999999E1,-7.682000090289E1));
#119=LINE('',#118,#117);
#120=CARTESIAN_POINT('',(1.8E1,2.2E1,-7.682000090289E1));
#121=DIRECTION('',(0.E0,0.E0,-1.E0));
#122=DIRECTION('',(1.E0,0.E0,0.E0));
#123=AXIS2_PLACEMENT_3D('',#120,#121,#122);
#125=CARTESIAN_POINT('',(1.8E1,2.2E1,-7.422000090289E1));
#126=DIRECTION('',(0.E0,0.E0,1.E0));
#127=DIRECTION('',(0.E0,-1.E0,0.E0));
#128=AXIS2_PLACEMENT_3D('',#125,#126,#127);
#130=DIRECTION('',(-1.E0,0.E0,0.E0));
#131=VECTOR('',#130,1.299999999997E1);
#132=CARTESIAN_POINT('',(1.799999999999E1,2.05E1,-7.682000090289E1));
#133=LINE('',#132,#131);
#134=DIRECTION('',(-7.612713878084E-12,0.E0,1.E0));
#135=VECTOR('',#134,2.6E0);
#136=CARTESIAN_POINT('',(5.000000000020E0,2.05E1,-7.682000090289E1));
#137=LINE('',#136,#135);
#138=DIRECTION('',(-1.E0,0.E0,0.E0));
#139=VECTOR('',#138,1.3E1);
#140=CARTESIAN_POINT('',(1.8E1,2.05E1,-7.422000090289E1));
#141=LINE('',#140,#139);
#142=DIRECTION('',(3.851961484823E-12,0.E0,1.E0));
#143=VECTOR('',#142,2.6E0);
#144=CARTESIAN_POINT('',(1.799999999999E1,2.05E1,-7.682000090289E1));
#145=LINE('',#144,#143);
#146=CARTESIAN_POINT('',(5.E0,2.2E1,-7.682000090289E1));
#147=DIRECTION('',(0.E0,0.E0,-1.E0));
#148=DIRECTION('',(0.E0,-1.E0,0.E0));
#149=AXIS2_PLACEMENT_3D('',#146,#147,#148);
#151=CARTESIAN_POINT('',(5.E0,2.2E1,-7.422000090289E1));
#152=DIRECTION('',(0.E0,0.E0,1.E0));
#153=DIRECTION('',(-1.E0,0.E0,0.E0));
#154=AXIS2_PLACEMENT_3D('',#151,#152,#153);
#156=DIRECTION('',(0.E0,1.E0,0.E0));
#157=VECTOR('',#156,6.999999999970E0);
#158=CARTESIAN_POINT('',(3.5E0,2.200000000001E1,-7.682000090289E1));
#159=LINE('',#158,#157);
#160=DIRECTION('',(0.E0,7.612372270999E-12,1.E0));
#161=VECTOR('',#160,2.6E0);
#162=CARTESIAN_POINT('',(3.5E0,2.899999999998E1,-7.682000090289E1));
#163=LINE('',#162,#161);
#164=DIRECTION('',(0.E0,1.E0,0.E0));
#165=VECTOR('',#164,7.E0);
#166=CARTESIAN_POINT('',(3.5E0,2.2E1,-7.422000090289E1));
#167=LINE('',#166,#165);
#168=DIRECTION('',(0.E0,-3.851961484823E-12,1.E0));
#169=VECTOR('',#168,2.6E0);
#170=CARTESIAN_POINT('',(3.5E0,2.200000000001E1,-7.682000090289E1));
#171=LINE('',#170,#169);
#172=CARTESIAN_POINT('',(5.E0,2.9E1,-7.682000090289E1));
#173=DIRECTION('',(0.E0,0.E0,-1.E0));
#174=DIRECTION('',(-1.E0,0.E0,0.E0));
#175=AXIS2_PLACEMENT_3D('',#172,#173,#174);
#177=CARTESIAN_POINT('',(5.E0,2.9E1,-7.422000090289E1));
#178=DIRECTION('',(0.E0,0.E0,1.E0));
#179=DIRECTION('',(0.E0,1.E0,0.E0));
#180=AXIS2_PLACEMENT_3D('',#177,#178,#179);
#182=DIRECTION('',(1.E0,0.E0,0.E0));
#183=VECTOR('',#182,1.487616630393E1);
#184=CARTESIAN_POINT('',(4.061916848035E0,1.99E1,-7.422000090289E1));
#185=LINE('',#184,#183);
#186=CARTESIAN_POINT('',(1.8E1,2.2E1,-7.422000090289E1));
#187=DIRECTION('',(0.E0,0.E0,1.E0));
#188=DIRECTION('',(4.078622399846E-1,-9.130434782609E-1,0.E0));
#189=AXIS2_PLACEMENT_3D('',#186,#187,#188);
#191=DIRECTION('',(0.E0,1.E0,0.E0));
#192=VECTOR('',#191,7.E0);
#193=CARTESIAN_POINT('',(2.03E1,2.2E1,-7.422000090289E1));
#194=LINE('',#193,#192);
#195=CARTESIAN_POINT('',(1.8E1,2.9E1,-7.422000090289E1));
#196=DIRECTION('',(0.E0,0.E0,1.E0));
#197=DIRECTION('',(1.E0,0.E0,0.E0));
#198=AXIS2_PLACEMENT_3D('',#195,#196,#197);
#200=DIRECTION('',(-1.E0,0.E0,0.E0));
#201=VECTOR('',#200,4.E0);
#202=CARTESIAN_POINT('',(1.8E1,3.13E1,-7.422000090289E1));
#203=LINE('',#202,#201);
#204=DIRECTION('',(1.E0,0.E0,0.E0));
#205=VECTOR('',#204,5.E0);
#206=CARTESIAN_POINT('',(9.E0,3.2E1,-7.422000090289E1));
#207=LINE('',#206,#205);
#208=DIRECTION('',(-1.E0,0.E0,0.E0));
#209=VECTOR('',#208,4.E0);
#210=CARTESIAN_POINT('',(9.E0,3.13E1,-7.422000090289E1));
#211=LINE('',#210,#209);
#212=CARTESIAN_POINT('',(5.E0,2.9E1,-7.422000090289E1));
#213=DIRECTION('',(0.E0,0.E0,1.E0));
#214=DIRECTION('',(0.E0,1.E0,0.E0));
#215=AXIS2_PLACEMENT_3D('',#212,#213,#214);
#217=DIRECTION('',(0.E0,-1.E0,0.E0));
#218=VECTOR('',#217,7.E0);
#219=CARTESIAN_POINT('',(2.7E0,2.9E1,-7.422000090289E1));
#220=LINE('',#219,#218);
#221=CARTESIAN_POINT('',(5.E0,2.2E1,-7.422000090289E1));
#222=DIRECTION('',(0.E0,0.E0,1.E0));
#223=DIRECTION('',(-1.E0,0.E0,0.E0));
#224=AXIS2_PLACEMENT_3D('',#221,#222,#223);
#226=DIRECTION('',(0.E0,-1.E0,0.E0));
#227=VECTOR('',#226,7.E0);
#228=CARTESIAN_POINT('',(1.92E1,2.9E1,-7.392000090289E1));
#229=LINE('',#228,#227);
#230=CARTESIAN_POINT('',(1.8E1,2.9E1,-7.392000090289E1));
#231=DIRECTION('',(0.E0,0.E0,1.E0));
#232=DIRECTION('',(1.E0,0.E0,0.E0));
#233=AXIS2_PLACEMENT_3D('',#230,#231,#232);
#235=DIRECTION('',(1.E0,0.E0,0.E0));
#236=VECTOR('',#235,1.3E1);
#237=CARTESIAN_POINT('',(5.E0,3.02E1,-7.392000090289E1));
#238=LINE('',#237,#236);
#239=CARTESIAN_POINT('',(5.E0,2.9E1,-7.392000090289E1));
#240=DIRECTION('',(0.E0,0.E0,1.E0));
#241=DIRECTION('',(0.E0,1.E0,0.E0));
#242=AXIS2_PLACEMENT_3D('',#239,#240,#241);
#244=DIRECTION('',(0.E0,1.E0,0.E0));
#245=VECTOR('',#244,7.E0);
#246=CARTESIAN_POINT('',(3.8E0,2.2E1,-7.392000090289E1));
#247=LINE('',#246,#245);
#248=CARTESIAN_POINT('',(5.E0,2.2E1,-7.392000090289E1));
#249=DIRECTION('',(0.E0,0.E0,1.E0));
#250=DIRECTION('',(-1.E0,0.E0,0.E0));
#251=AXIS2_PLACEMENT_3D('',#248,#249,#250);
#253=DIRECTION('',(-1.E0,0.E0,0.E0));
#254=VECTOR('',#253,1.3E1);
#255=CARTESIAN_POINT('',(1.8E1,2.08E1,-7.392000090289E1));
#256=LINE('',#255,#254);
#257=CARTESIAN_POINT('',(1.8E1,2.2E1,-7.392000090289E1));
#258=DIRECTION('',(0.E0,0.E0,1.E0));
#259=DIRECTION('',(0.E0,-1.E0,0.E0));
#260=AXIS2_PLACEMENT_3D('',#257,#258,#259);
#262=DIRECTION('',(-1.E0,0.E0,0.E0));
#263=VECTOR('',#262,1.487616630393E1);
#264=CARTESIAN_POINT('',(1.893808315196E1,1.99E1,-7.392000090289E1));
#265=LINE('',#264,#263);
#266=CARTESIAN_POINT('',(5.E0,2.2E1,-7.392000090289E1));
#267=DIRECTION('',(0.E0,0.E0,1.E0));
#268=DIRECTION('',(-1.E0,0.E0,0.E0));
#269=AXIS2_PLACEMENT_3D('',#266,#267,#268);
#271=DIRECTION('',(0.E0,-1.E0,0.E0));
#272=VECTOR('',#271,7.E0);
#273=CARTESIAN_POINT('',(2.7E0,2.9E1,-7.392000090289E1));
#274=LINE('',#273,#272);
#275=CARTESIAN_POINT('',(5.E0,2.9E1,-7.392000090289E1));
#276=DIRECTION('',(0.E0,0.E0,1.E0));
#277=DIRECTION('',(0.E0,1.E0,0.E0));
#278=AXIS2_PLACEMENT_3D('',#275,#276,#277);
#280=DIRECTION('',(-1.E0,0.E0,0.E0));
#281=VECTOR('',#280,4.E0);
#282=CARTESIAN_POINT('',(9.E0,3.13E1,-7.392000090289E1));
#283=LINE('',#282,#281);
#284=DIRECTION('',(0.E0,1.E0,0.E0));
#285=VECTOR('',#284,7.E-1);
#286=CARTESIAN_POINT('',(9.E0,3.13E1,-7.392000090289E1));
#287=LINE('',#286,#285);
#288=DIRECTION('',(-1.E0,0.E0,0.E0));
#289=VECTOR('',#288,5.E0);
#290=CARTESIAN_POINT('',(1.4E1,3.2E1,-7.392000090289E1));
#291=LINE('',#290,#289);
#292=DIRECTION('',(0.E0,-1.E0,0.E0));
#293=VECTOR('',#292,7.E-1);
#294=CARTESIAN_POINT('',(1.4E1,3.2E1,-7.392000090289E1));
#295=LINE('',#294,#293);
#296=DIRECTION('',(-1.E0,0.E0,0.E0));
#297=VECTOR('',#296,4.E0);
#298=CARTESIAN_POINT('',(1.8E1,3.13E1,-7.392000090289E1));
#299=LINE('',#298,#297);
#300=CARTESIAN_POINT('',(1.8E1,2.9E1,-7.392000090289E1));
#301=DIRECTION('',(0.E0,0.E0,1.E0));
#302=DIRECTION('',(1.E0,0.E0,0.E0));
#303=AXIS2_PLACEMENT_3D('',#300,#301,#302);
#305=DIRECTION('',(0.E0,1.E0,0.E0));
#306=VECTOR('',#305,7.E0);
#307=CARTESIAN_POINT('',(2.03E1,2.2E1,-7.392000090289E1));
#308=LINE('',#307,#306);
#309=CARTESIAN_POINT('',(1.8E1,2.2E1,-7.392000090289E1));
#310=DIRECTION('',(0.E0,0.E0,1.E0));
#311=DIRECTION('',(4.078622399846E-1,-9.130434782609E-1,0.E0));
#312=AXIS2_PLACEMENT_3D('',#309,#310,#311);
#314=DIRECTION('',(0.E0,-1.E0,0.E0));
#315=VECTOR('',#314,6.999999999957E0);
#316=CARTESIAN_POINT('',(1.92E1,2.899999999998E1,-7.682000090289E1));
#317=LINE('',#316,#315);
#318=DIRECTION('',(0.E0,5.217588813107E-12,1.E0));
#319=VECTOR('',#318,2.9E0);
#320=CARTESIAN_POINT('',(1.92E1,2.899999999998E1,-7.682000090289E1));
#321=LINE('',#320,#319);
#322=DIRECTION('',(0.E0,-9.448993311927E-12,1.E0));
#323=VECTOR('',#322,2.9E0);
#324=CARTESIAN_POINT('',(1.92E1,2.200000000003E1,-7.682000090289E1));
#325=LINE('',#324,#323);
#326=CARTESIAN_POINT('',(1.89E1,2.9E1,-7.682000090289E1));
#327=DIRECTION('',(0.E0,-1.E0,0.E0));
#328=DIRECTION('',(0.E0,0.E0,-1.E0));
#329=AXIS2_PLACEMENT_3D('',#326,#327,#328);
#331=DIRECTION('',(0.E0,-1.E0,0.E0));
#332=VECTOR('',#331,7.E0);
#333=CARTESIAN_POINT('',(1.89E1,2.9E1,-7.712000090289E1));
#334=LINE('',#333,#332);
#335=CARTESIAN_POINT('',(1.8E1,2.2E1,-7.712000090289E1));
#336=DIRECTION('',(0.E0,0.E0,-1.E0));
#337=DIRECTION('',(1.E0,0.E0,0.E0));
#338=AXIS2_PLACEMENT_3D('',#335,#336,#337);
#340=DIRECTION('',(-1.E0,0.E0,0.E0));
#341=VECTOR('',#340,1.3E1);
#342=CARTESIAN_POINT('',(1.8E1,2.11E1,-7.712000090289E1));
#343=LINE('',#342,#341);
#344=CARTESIAN_POINT('',(5.E0,2.2E1,-7.712000090289E1));
#345=DIRECTION('',(0.E0,0.E0,-1.E0));
#346=DIRECTION('',(0.E0,-1.E0,0.E0));
#347=AXIS2_PLACEMENT_3D('',#344,#345,#346);
#349=DIRECTION('',(0.E0,1.E0,0.E0));
#350=VECTOR('',#349,7.E0);
#351=CARTESIAN_POINT('',(4.1E0,2.2E1,-7.712000090289E1));
#352=LINE('',#351,#350);
#353=CARTESIAN_POINT('',(5.E0,2.9E1,-7.712000090289E1));
#354=DIRECTION('',(0.E0,0.E0,-1.E0));
#355=DIRECTION('',(-1.E0,0.E0,0.E0));
#356=AXIS2_PLACEMENT_3D('',#353,#354,#355);
#358=DIRECTION('',(1.E0,0.E0,0.E0));
#359=VECTOR('',#358,1.3E1);
#360=CARTESIAN_POINT('',(5.E0,2.99E1,-7.712000090289E1));
#361=LINE('',#360,#359);
#362=CARTESIAN_POINT('',(1.8E1,2.9E1,-7.712000090289E1));
#363=DIRECTION('',(0.E0,0.E0,-1.E0));
#364=DIRECTION('',(0.E0,1.E0,0.E0));
#365=AXIS2_PLACEMENT_3D('',#362,#363,#364);
#367=CARTESIAN_POINT('',(1.89E1,2.2E1,-7.682000090289E1));
#368=DIRECTION('',(0.E0,-1.E0,0.E0));
#369=DIRECTION('',(-1.184237892934E-14,0.E0,-1.E0));
#370=AXIS2_PLACEMENT_3D('',#367,#368,#369);
#372=CARTESIAN_POINT('',(1.8E1,2.2E1,-7.682000090289E1));
#373=DIRECTION('',(0.E0,0.E0,-1.E0));
#374=DIRECTION('',(1.E0,0.E0,0.E0));
#375=AXIS2_PLACEMENT_3D('',#372,#373,#374);
#377=DIRECTION('',(-1.E0,0.E0,0.E0));
#378=VECTOR('',#377,1.299999999996E1);
#379=CARTESIAN_POINT('',(1.799999999998E1,2.08E1,-7.682000090289E1));
#380=LINE('',#379,#378);
#381=DIRECTION('',(5.217588813107E-12,0.E0,1.E0));
#382=VECTOR('',#381,2.9E0);
#383=CARTESIAN_POINT('',(1.799999999998E1,2.08E1,-7.682000090289E1));
#384=LINE('',#383,#382);
#385=DIRECTION('',(-9.447155701403E-12,0.E0,1.E0));
#386=VECTOR('',#385,2.9E0);
#387=CARTESIAN_POINT('',(5.000000000027E0,2.08E1,-7.682000090289E1));
#388=LINE('',#387,#386);
#389=CARTESIAN_POINT('',(1.8E1,2.11E1,-7.682000090289E1));
#390=DIRECTION('',(-1.E0,0.E0,0.E0));
#391=DIRECTION('',(0.E0,0.E0,-1.E0));
#392=AXIS2_PLACEMENT_3D('',#389,#390,#391);
#394=CARTESIAN_POINT('',(5.E0,2.11E1,-7.682000090289E1));
#395=DIRECTION('',(-1.E0,0.E0,0.E0));
#396=DIRECTION('',(0.E0,0.E0,-1.E0));
#397=AXIS2_PLACEMENT_3D('',#394,#395,#396);
#399=CARTESIAN_POINT('',(4.1E0,2.2E1,-7.682000090289E1));
#400=DIRECTION('',(0.E0,1.E0,0.E0));
#401=DIRECTION('',(0.E0,0.E0,-1.E0));
#402=AXIS2_PLACEMENT_3D('',#399,#400,#401);
#404=DIRECTION('',(0.E0,1.E0,0.E0));
#405=VECTOR('',#404,6.999999999957E0);
#406=CARTESIAN_POINT('',(3.8E0,2.200000000002E1,-7.682000090289E1));
#407=LINE('',#406,#405);
#408=DIRECTION('',(0.E0,-5.218813886790E-12,1.E0));
#409=VECTOR('',#408,2.9E0);
#410=CARTESIAN_POINT('',(3.8E0,2.200000000002E1,-7.682000090289E1));
#411=LINE('',#410,#409);
#412=DIRECTION('',(0.E0,9.447768238245E-12,1.E0));
#413=VECTOR('',#412,2.9E0);
#414=CARTESIAN_POINT('',(3.8E0,2.899999999997E1,-7.682000090289E1));
#415=LINE('',#414,#413);
#416=CARTESIAN_POINT('',(5.E0,2.2E1,-7.682000090289E1));
#417=DIRECTION('',(0.E0,0.E0,-1.E0));
#418=DIRECTION('',(0.E0,-1.E0,0.E0));
#419=AXIS2_PLACEMENT_3D('',#416,#417,#418);
#421=CARTESIAN_POINT('',(5.E0,2.9E1,-7.682000090289E1));
#422=DIRECTION('',(0.E0,0.E0,-1.E0));
#423=DIRECTION('',(-1.E0,0.E0,0.E0));
#424=AXIS2_PLACEMENT_3D('',#421,#422,#423);
#426=CARTESIAN_POINT('',(4.1E0,2.9E1,-7.682000090289E1));
#427=DIRECTION('',(0.E0,1.E0,0.E0));
#428=DIRECTION('',(0.E0,0.E0,-1.E0));
#429=AXIS2_PLACEMENT_3D('',#426,#427,#428);
#431=CARTESIAN_POINT('',(5.E0,2.99E1,-7.682000090289E1));
#432=DIRECTION('',(1.E0,0.E0,0.E0));
#433=DIRECTION('',(0.E0,0.E0,-1.E0));
#434=AXIS2_PLACEMENT_3D('',#431,#432,#433);
#436=DIRECTION('',(1.E0,0.E0,0.E0));
#437=VECTOR('',#436,1.299999999996E1);
#438=CARTESIAN_POINT('',(5.000000000015E0,3.02E1,-7.682000090289E1));
#439=LINE('',#438,#437);
#440=DIRECTION('',(-5.217588813107E-12,0.E0,1.E0));
#441=VECTOR('',#440,2.9E0);
#442=CARTESIAN_POINT('',(5.000000000015E0,3.02E1,-7.682000090289E1));
#443=LINE('',#442,#441);
#444=DIRECTION('',(9.447768238245E-12,0.E0,1.E0));
#445=VECTOR('',#444,2.9E0);
#446=CARTESIAN_POINT('',(1.799999999997E1,3.02E1,-7.682000090289E1));
#447=LINE('',#446,#445);
#448=CARTESIAN_POINT('',(1.8E1,2.9E1,-7.682000090289E1));
#449=DIRECTION('',(0.E0,0.E0,-1.E0));
#450=DIRECTION('',(0.E0,1.E0,0.E0));
#451=AXIS2_PLACEMENT_3D('',#448,#449,#450);
#453=CARTESIAN_POINT('',(1.8E1,2.99E1,-7.682000090289E1));
#454=DIRECTION('',(1.E0,0.E0,0.E0));
#455=DIRECTION('',(0.E0,0.E0,-1.E0));
#456=AXIS2_PLACEMENT_3D('',#453,#454,#455);
#458=DIRECTION('',(0.E0,0.E0,1.E0));
#459=VECTOR('',#458,3.E-1);
#460=CARTESIAN_POINT('',(4.061916848035E0,1.99E1,-7.422000090289E1));
#461=LINE('',#460,#459);
#462=DIRECTION('',(0.E0,0.E0,-1.E0));
#463=VECTOR('',#462,3.E-1);
#464=CARTESIAN_POINT('',(2.7E0,2.2E1,-7.392000090289E1));
#465=LINE('',#464,#463);
#466=DIRECTION('',(0.E0,0.E0,-1.E0));
#467=VECTOR('',#466,3.E-1);
#468=CARTESIAN_POINT('',(2.7E0,2.9E1,-7.392000090289E1));
#469=LINE('',#468,#467);
#470=DIRECTION('',(0.E0,0.E0,-1.E0));
#471=VECTOR('',#470,3.E-1);
#472=CARTESIAN_POINT('',(5.E0,3.13E1,-7.392000090289E1));
#473=LINE('',#472,#471);
#474=DIRECTION('',(0.E0,0.E0,1.E0));
#475=VECTOR('',#474,3.E-1);
#476=CARTESIAN_POINT('',(1.4E1,3.13E1,-7.422000090289E1));
#477=LINE('',#476,#475);
#478=DIRECTION('',(0.E0,0.E0,-1.E0));
#479=VECTOR('',#478,3.E-1);
#480=CARTESIAN_POINT('',(1.8E1,3.13E1,-7.392000090289E1));
#481=LINE('',#480,#479);
#482=DIRECTION('',(0.E0,0.E0,1.E0));
#483=VECTOR('',#482,3.E-1);
#484=CARTESIAN_POINT('',(9.E0,3.13E1,-7.422000090289E1));
#485=LINE('',#484,#483);
#486=DIRECTION('',(0.E0,1.E0,0.E0));
#487=VECTOR('',#486,3.E-1);
#488=CARTESIAN_POINT('',(1.4E1,3.23E1,-6.922000090289E1));
#489=LINE('',#488,#487);
#490=DIRECTION('',(0.E0,0.E0,1.E0));
#491=VECTOR('',#490,4.4E0);
#492=CARTESIAN_POINT('',(1.4E1,3.26E1,-7.362000090289E1));
#493=LINE('',#492,#491);
#494=CARTESIAN_POINT('',(1.4E1,3.2E1,-7.362000090289E1));
#495=DIRECTION('',(1.E0,0.E0,0.E0));
#496=DIRECTION('',(0.E0,3.552713678801E-14,-1.E0));
#497=AXIS2_PLACEMENT_3D('',#494,#495,#496);
#499=DIRECTION('',(0.E0,-1.E0,0.E0));
#500=VECTOR('',#499,7.E-1);
#501=CARTESIAN_POINT('',(1.4E1,3.2E1,-7.422000090289E1));
#502=LINE('',#501,#500);
#503=CARTESIAN_POINT('',(1.15E1,3.26E1,-7.042000090289E1));
#504=DIRECTION('',(0.E0,1.E0,0.E0));
#505=DIRECTION('',(1.E0,0.E0,0.E0));
#506=AXIS2_PLACEMENT_3D('',#503,#504,#505);
#508=CARTESIAN_POINT('',(1.15E1,3.26E1,-7.042000090289E1));
#509=DIRECTION('',(0.E0,1.E0,0.E0));
#510=DIRECTION('',(-1.E0,0.E0,0.E0));
#511=AXIS2_PLACEMENT_3D('',#508,#509,#510);
#513=CARTESIAN_POINT('',(1.3E1,3.26E1,-6.922000090289E1));
#514=DIRECTION('',(0.E0,1.E0,0.E0));
#515=DIRECTION('',(2.131628207280E-14,0.E0,1.E0));
#516=AXIS2_PLACEMENT_3D('',#513,#514,#515);
#518=CARTESIAN_POINT('',(1.E1,3.26E1,-6.922000090289E1));
#519=DIRECTION('',(0.E0,1.E0,0.E0));
#520=DIRECTION('',(-1.E0,0.E0,0.E0));
#521=AXIS2_PLACEMENT_3D('',#518,#519,#520);
#523=DIRECTION('',(0.E0,0.E0,1.E0));
#524=VECTOR('',#523,4.4E0);
#525=CARTESIAN_POINT('',(9.E0,3.26E1,-7.362000090289E1));
#526=LINE('',#525,#524);
#527=DIRECTION('',(1.E0,0.E0,0.E0));
#528=VECTOR('',#527,5.E0);
#529=CARTESIAN_POINT('',(9.E0,3.26E1,-7.362000090289E1));
#530=LINE('',#529,#528);
#531=DIRECTION('',(0.E0,1.E0,0.E0));
#532=VECTOR('',#531,3.E-1);
#533=CARTESIAN_POINT('',(1.25E1,3.23E1,-7.042000090289E1));
#534=LINE('',#533,#532);
#535=CARTESIAN_POINT('',(1.15E1,3.23E1,-7.042000090289E1));
#536=DIRECTION('',(0.E0,1.E0,0.E0));
#537=DIRECTION('',(1.E0,0.E0,0.E0));
#538=AXIS2_PLACEMENT_3D('',#535,#536,#537);
#540=CARTESIAN_POINT('',(1.15E1,3.23E1,-7.042000090289E1));
#541=DIRECTION('',(0.E0,1.E0,0.E0));
#542=DIRECTION('',(-1.E0,0.E0,0.E0));
#543=AXIS2_PLACEMENT_3D('',#540,#541,#542);
#545=CARTESIAN_POINT('',(1.3E1,3.23E1,-6.922000090289E1));
#546=DIRECTION('',(0.E0,-1.E0,0.E0));
#547=DIRECTION('',(1.E0,0.E0,0.E0));
#548=AXIS2_PLACEMENT_3D('',#545,#546,#547);
#550=DIRECTION('',(0.E0,0.E0,1.E0));
#551=VECTOR('',#550,4.4E0);
#552=CARTESIAN_POINT('',(1.4E1,3.23E1,-7.362000090289E1));
#553=LINE('',#552,#551);
#554=DIRECTION('',(-1.E0,0.E0,0.E0));
#555=VECTOR('',#554,5.E0);
#556=CARTESIAN_POINT('',(1.4E1,3.23E1,-7.362000090289E1));
#557=LINE('',#556,#555);
#558=CARTESIAN_POINT('',(1.E1,3.23E1,-6.922000090289E1));
#559=DIRECTION('',(0.E0,-1.E0,0.E0));
#560=DIRECTION('',(-2.131628207280E-14,0.E0,1.E0));
#561=AXIS2_PLACEMENT_3D('',#558,#559,#560);
#563=DIRECTION('',(0.E0,1.E0,0.E0));
#564=VECTOR('',#563,3.E-1);
#565=CARTESIAN_POINT('',(1.05E1,3.23E1,-7.042000090289E1));
#566=LINE('',#565,#564);
#567=CARTESIAN_POINT('',(1.4E1,3.2E1,-7.362000090289E1));
#568=DIRECTION('',(-1.E0,0.E0,0.E0));
#569=DIRECTION('',(0.E0,1.E0,0.E0));
#570=AXIS2_PLACEMENT_3D('',#567,#568,#569);
#572=CARTESIAN_POINT('',(9.E0,3.2E1,-7.362000090289E1));
#573=DIRECTION('',(1.E0,0.E0,0.E0));
#574=DIRECTION('',(0.E0,0.E0,-1.E0));
#575=AXIS2_PLACEMENT_3D('',#572,#573,#574);
#577=DIRECTION('',(0.E0,-1.E0,0.E0));
#578=VECTOR('',#577,3.E-1);
#579=CARTESIAN_POINT('',(9.E0,3.26E1,-6.922000090289E1));
#580=LINE('',#579,#578);
#581=DIRECTION('',(0.E0,0.E0,1.E0));
#582=VECTOR('',#581,4.4E0);
#583=CARTESIAN_POINT('',(9.E0,3.23E1,-7.362000090289E1));
#584=LINE('',#583,#582);
#585=DIRECTION('',(0.E0,1.E0,0.E0));
#586=VECTOR('',#585,7.E-1);
#587=CARTESIAN_POINT('',(9.E0,3.13E1,-7.422000090289E1));
#588=LINE('',#587,#586);
#589=CARTESIAN_POINT('',(9.E0,3.2E1,-7.362000090289E1));
#590=DIRECTION('',(-1.E0,0.E0,0.E0));
#591=DIRECTION('',(0.E0,1.E0,2.368475785867E-14));
#592=AXIS2_PLACEMENT_3D('',#589,#590,#591);
#594=DIRECTION('',(0.E0,1.E0,0.E0));
#595=VECTOR('',#594,3.E-1);
#596=CARTESIAN_POINT('',(1.3E1,3.23E1,-6.822000090289E1));
#597=LINE('',#596,#595);
#598=DIRECTION('',(-1.E0,0.E0,0.E0));
#599=VECTOR('',#598,3.E0);
#600=CARTESIAN_POINT('',(1.3E1,3.23E1,-6.822000090289E1));
#601=LINE('',#600,#599);
#602=DIRECTION('',(0.E0,-1.E0,0.E0));
#603=VECTOR('',#602,3.E-1);
#604=CARTESIAN_POINT('',(1.E1,3.26E1,-6.822000090289E1));
#605=LINE('',#604,#603);
#606=DIRECTION('',(1.E0,0.E0,0.E0));
#607=VECTOR('',#606,3.E0);
#608=CARTESIAN_POINT('',(1.E1,3.26E1,-6.822000090289E1));
#609=LINE('',#608,#607);
#610=DIRECTION('',(0.E0,0.E0,-1.E0));
#611=VECTOR('',#610,3.E-1);
#612=CARTESIAN_POINT('',(2.03E1,2.9E1,-7.392000090289E1));
#613=LINE('',#612,#611);
#614=DIRECTION('',(0.E0,0.E0,-1.E0));
#615=VECTOR('',#614,3.E-1);
#616=CARTESIAN_POINT('',(2.03E1,2.2E1,-7.392000090289E1));
#617=LINE('',#616,#615);
#618=DIRECTION('',(0.E0,0.E0,1.E0));
#619=VECTOR('',#618,3.E-1);
#620=CARTESIAN_POINT('',(1.893808315196E1,1.99E1,-7.422000090289E1));
#621=LINE('',#620,#619);
#622=CARTESIAN_POINT('',(1.92E1,2.9E1,-7.392000090289E1));
#623=CARTESIAN_POINT('',(1.92E1,2.2E1,-7.392000090289E1));
#624=VERTEX_POINT('',#622);
#625=VERTEX_POINT('',#623);
#626=CARTESIAN_POINT('',(3.8E0,2.2E1,-7.392000090289E1));
#627=CARTESIAN_POINT('',(3.8E0,2.9E1,-7.392000090289E1));
#628=VERTEX_POINT('',#626);
#629=VERTEX_POINT('',#627);
#630=CARTESIAN_POINT('',(5.E0,3.02E1,-7.392000090289E1));
#631=CARTESIAN_POINT('',(1.8E1,3.02E1,-7.392000090289E1));
#632=VERTEX_POINT('',#630);
#633=VERTEX_POINT('',#631);
#634=CARTESIAN_POINT('',(5.E0,3.13E1,-7.392000090289E1));
#635=CARTESIAN_POINT('',(2.7E0,2.9E1,-7.392000090289E1));
#636=VERTEX_POINT('',#634);
#637=VERTEX_POINT('',#635);
#638=CARTESIAN_POINT('',(2.03E1,2.9E1,-7.392000090289E1));
#639=CARTESIAN_POINT('',(1.8E1,3.13E1,-7.392000090289E1));
#640=VERTEX_POINT('',#638);
#641=VERTEX_POINT('',#639);
#642=CARTESIAN_POINT('',(5.E0,3.13E1,-7.422000090289E1));
#643=CARTESIAN_POINT('',(2.7E0,2.9E1,-7.422000090289E1));
#644=VERTEX_POINT('',#642);
#645=VERTEX_POINT('',#643);
#646=CARTESIAN_POINT('',(2.03E1,2.9E1,-7.422000090289E1));
#647=CARTESIAN_POINT('',(1.8E1,3.13E1,-7.422000090289E1));
#648=VERTEX_POINT('',#646);
#649=VERTEX_POINT('',#647);
#650=CARTESIAN_POINT('',(1.95E1,2.9E1,-7.422000090289E1));
#651=CARTESIAN_POINT('',(1.95E1,2.2E1,-7.422000090289E1));
#652=VERTEX_POINT('',#650);
#653=VERTEX_POINT('',#651);
#654=CARTESIAN_POINT('',(3.5E0,2.2E1,-7.422000090289E1));
#655=CARTESIAN_POINT('',(3.5E0,2.9E1,-7.422000090289E1));
#656=VERTEX_POINT('',#654);
#657=VERTEX_POINT('',#655);
#658=CARTESIAN_POINT('',(5.E0,3.05E1,-7.422000090289E1));
#659=CARTESIAN_POINT('',(1.8E1,3.05E1,-7.422000090289E1));
#660=VERTEX_POINT('',#658);
#661=VERTEX_POINT('',#659);
#662=CARTESIAN_POINT('',(1.4E1,3.13E1,-7.422000090289E1));
#663=CARTESIAN_POINT('',(1.4E1,3.13E1,-7.392000090289E1));
#664=VERTEX_POINT('',#662);
#665=VERTEX_POINT('',#663);
#666=CARTESIAN_POINT('',(9.E0,3.13E1,-7.422000090289E1));
#667=CARTESIAN_POINT('',(9.E0,3.13E1,-7.392000090289E1));
#668=VERTEX_POINT('',#666);
#669=VERTEX_POINT('',#667);
#670=CARTESIAN_POINT('',(1.25E1,3.23E1,-7.042000090289E1));
#671=CARTESIAN_POINT('',(1.05E1,3.23E1,-7.042000090289E1));
#672=VERTEX_POINT('',#670);
#673=VERTEX_POINT('',#671);
#674=CARTESIAN_POINT('',(1.25E1,3.26E1,-7.042000090289E1));
#675=CARTESIAN_POINT('',(1.05E1,3.26E1,-7.042000090289E1));
#676=VERTEX_POINT('',#674);
#677=VERTEX_POINT('',#675);
#678=CARTESIAN_POINT('',(1.4E1,3.23E1,-7.362000090289E1));
#679=CARTESIAN_POINT('',(9.E0,3.23E1,-7.362000090289E1));
#680=VERTEX_POINT('',#678);
#681=VERTEX_POINT('',#679);
#682=CARTESIAN_POINT('',(1.4E1,3.2E1,-7.392000090289E1));
#683=CARTESIAN_POINT('',(9.E0,3.2E1,-7.392000090289E1));
#684=VERTEX_POINT('',#682);
#685=VERTEX_POINT('',#683);
#686=CARTESIAN_POINT('',(1.89E1,2.9E1,-7.712000090289E1));
#687=CARTESIAN_POINT('',(1.89E1,2.2E1,-7.712000090289E1));
#688=VERTEX_POINT('',#686);
#689=VERTEX_POINT('',#687);
#690=CARTESIAN_POINT('',(1.92E1,2.899999999998E1,-7.682000090289E1));
#691=CARTESIAN_POINT('',(1.92E1,2.200000000003E1,-7.682000090289E1));
#692=VERTEX_POINT('',#690);
#693=VERTEX_POINT('',#691);
#694=CARTESIAN_POINT('',(4.1E0,2.2E1,-7.712000090289E1));
#695=CARTESIAN_POINT('',(4.1E0,2.9E1,-7.712000090289E1));
#696=VERTEX_POINT('',#694);
#697=VERTEX_POINT('',#695);
#698=CARTESIAN_POINT('',(3.8E0,2.200000000002E1,-7.682000090289E1));
#699=CARTESIAN_POINT('',(3.8E0,2.899999999997E1,-7.682000090289E1));
#700=VERTEX_POINT('',#698);
#701=VERTEX_POINT('',#699);
#702=CARTESIAN_POINT('',(5.E0,2.99E1,-7.712000090289E1));
#703=VERTEX_POINT('',#702);
#704=CARTESIAN_POINT('',(5.E0,3.02E1,-7.682000090289E1));
#705=VERTEX_POINT('',#704);
#706=CARTESIAN_POINT('',(1.8E1,2.99E1,-7.712000090289E1));
#707=VERTEX_POINT('',#706);
#708=CARTESIAN_POINT('',(1.799999999997E1,3.02E1,-7.682000090289E1));
#709=VERTEX_POINT('',#708);
#710=CARTESIAN_POINT('',(1.4E1,3.2E1,-7.422000090289E1));
#711=CARTESIAN_POINT('',(1.4E1,3.26E1,-7.362000090289E1));
#712=VERTEX_POINT('',#710);
#713=VERTEX_POINT('',#711);
#714=CARTESIAN_POINT('',(9.E0,3.26E1,-7.362000090289E1));
#715=VERTEX_POINT('',#714);
#716=CARTESIAN_POINT('',(9.E0,3.2E1,-7.422000090289E1));
#717=VERTEX_POINT('',#716);
#718=CARTESIAN_POINT('',(1.8E1,2.99E1,-7.742000090289E1));
#719=CARTESIAN_POINT('',(1.89E1,2.9E1,-7.742000090289E1));
#720=VERTEX_POINT('',#718);
#721=VERTEX_POINT('',#719);
#722=CARTESIAN_POINT('',(1.8E1,3.05E1,-7.682000090289E1));
#723=CARTESIAN_POINT('',(1.95E1,2.9E1,-7.682000090289E1));
#724=VERTEX_POINT('',#722);
#725=VERTEX_POINT('',#723);
#726=CARTESIAN_POINT('',(1.89E1,2.2E1,-7.742000090289E1));
#727=VERTEX_POINT('',#726);
#728=CARTESIAN_POINT('',(1.95E1,2.200000000002E1,-7.682000090289E1));
#729=VERTEX_POINT('',#728);
#730=CARTESIAN_POINT('',(4.1E0,2.2E1,-7.742000090289E1));
#731=CARTESIAN_POINT('',(4.1E0,2.9E1,-7.742000090289E1));
#732=VERTEX_POINT('',#730);
#733=VERTEX_POINT('',#731);
#734=CARTESIAN_POINT('',(3.5E0,2.200000000001E1,-7.682000090289E1));
#735=CARTESIAN_POINT('',(3.5E0,2.899999999998E1,-7.682000090289E1));
#736=VERTEX_POINT('',#734);
#737=VERTEX_POINT('',#735);
#738=CARTESIAN_POINT('',(5.E0,2.99E1,-7.742000090289E1));
#739=VERTEX_POINT('',#738);
#740=CARTESIAN_POINT('',(5.E0,3.05E1,-7.682000090289E1));
#741=VERTEX_POINT('',#740);
#742=CARTESIAN_POINT('',(1.3E1,3.26E1,-6.822000090289E1));
#743=CARTESIAN_POINT('',(1.4E1,3.26E1,-6.922000090289E1));
#744=VERTEX_POINT('',#742);
#745=VERTEX_POINT('',#743);
#746=CARTESIAN_POINT('',(1.4E1,3.23E1,-6.922000090289E1));
#747=VERTEX_POINT('',#746);
#748=CARTESIAN_POINT('',(1.3E1,3.23E1,-6.822000090289E1));
#749=VERTEX_POINT('',#748);
#750=CARTESIAN_POINT('',(1.E1,3.23E1,-6.822000090289E1));
#751=CARTESIAN_POINT('',(9.E0,3.23E1,-6.922000090289E1));
#752=VERTEX_POINT('',#750);
#753=VERTEX_POINT('',#751);
#754=CARTESIAN_POINT('',(9.E0,3.26E1,-6.922000090289E1));
#755=VERTEX_POINT('',#754);
#756=CARTESIAN_POINT('',(1.E1,3.26E1,-6.822000090289E1));
#757=VERTEX_POINT('',#756);
#758=CARTESIAN_POINT('',(1.8E1,2.08E1,-7.392000090289E1));
#759=CARTESIAN_POINT('',(5.E0,2.08E1,-7.392000090289E1));
#760=VERTEX_POINT('',#758);
#761=VERTEX_POINT('',#759);
#762=CARTESIAN_POINT('',(2.7E0,2.2E1,-7.392000090289E1));
#763=VERTEX_POINT('',#762);
#764=CARTESIAN_POINT('',(2.03E1,2.2E1,-7.392000090289E1));
#765=VERTEX_POINT('',#764);
#766=CARTESIAN_POINT('',(2.7E0,2.2E1,-7.422000090289E1));
#767=VERTEX_POINT('',#766);
#768=CARTESIAN_POINT('',(2.03E1,2.2E1,-7.422000090289E1));
#769=VERTEX_POINT('',#768);
#770=CARTESIAN_POINT('',(1.8E1,2.05E1,-7.422000090289E1));
#771=CARTESIAN_POINT('',(5.E0,2.05E1,-7.422000090289E1));
#772=VERTEX_POINT('',#770);
#773=VERTEX_POINT('',#771);
#774=CARTESIAN_POINT('',(1.8E1,2.11E1,-7.712000090289E1));
#775=VERTEX_POINT('',#774);
#776=CARTESIAN_POINT('',(1.8E1,2.08E1,-7.682000090289E1));
#777=VERTEX_POINT('',#776);
#778=CARTESIAN_POINT('',(5.E0,2.11E1,-7.712000090289E1));
#779=VERTEX_POINT('',#778);
#780=CARTESIAN_POINT('',(5.000000000027E0,2.08E1,-7.682000090289E1));
#781=VERTEX_POINT('',#780);
#782=CARTESIAN_POINT('',(1.8E1,2.11E1,-7.742000090289E1));
#783=VERTEX_POINT('',#782);
#784=CARTESIAN_POINT('',(1.8E1,2.05E1,-7.682000090289E1));
#785=VERTEX_POINT('',#784);
#786=CARTESIAN_POINT('',(5.E0,2.11E1,-7.742000090289E1));
#787=VERTEX_POINT('',#786);
#788=CARTESIAN_POINT('',(5.000000000020E0,2.05E1,-7.682000090289E1));
#789=VERTEX_POINT('',#788);
#790=CARTESIAN_POINT('',(1.893808315196E1,1.99E1,-7.392000090289E1));
#791=CARTESIAN_POINT('',(4.061916848035E0,1.99E1,-7.392000090289E1));
#792=VERTEX_POINT('',#790);
#793=VERTEX_POINT('',#791);
#794=CARTESIAN_POINT('',(4.061916848035E0,1.99E1,-7.422000090289E1));
#795=CARTESIAN_POINT('',(1.893808315196E1,1.99E1,-7.422000090289E1));
#796=VERTEX_POINT('',#794);
#797=VERTEX_POINT('',#795);
#798=CARTESIAN_POINT('',(0.E0,0.E0,-7.742000090289E1));
#799=DIRECTION('',(0.E0,0.E0,-1.E0));
#800=DIRECTION('',(-1.E0,0.E0,0.E0));
#801=AXIS2_PLACEMENT_3D('',#798,#799,#800);
#802=PLANE('',#801);
#804=ORIENTED_EDGE('',*,*,#803,.F.);
#806=ORIENTED_EDGE('',*,*,#805,.F.);
#808=ORIENTED_EDGE('',*,*,#807,.F.);
#810=ORIENTED_EDGE('',*,*,#809,.F.);
#812=ORIENTED_EDGE('',*,*,#811,.F.);
#814=ORIENTED_EDGE('',*,*,#813,.F.);
#816=ORIENTED_EDGE('',*,*,#815,.F.);
#818=ORIENTED_EDGE('',*,*,#817,.F.);
#819=EDGE_LOOP('',(#804,#806,#808,#810,#812,#814,#816,#818));
#820=FACE_OUTER_BOUND('',#819,.F.);
#821=ADVANCED_FACE('',(#820),#802,.T.);
#822=CARTESIAN_POINT('',(1.8E1,2.9E1,-7.682000090289E1));
#823=DIRECTION('',(0.E0,0.E0,1.E0));
#824=DIRECTION('',(-2.175589989323E-2,9.997633123994E-1,0.E0));
#825=AXIS2_PLACEMENT_3D('',#822,#823,#824);
#826=TOROIDAL_SURFACE('',#825,9.E-1,6.E-1);
#827=ORIENTED_EDGE('',*,*,#803,.T.);
#829=ORIENTED_EDGE('',*,*,#828,.T.);
#831=ORIENTED_EDGE('',*,*,#830,.F.);
#833=ORIENTED_EDGE('',*,*,#832,.F.);
#834=EDGE_LOOP('',(#827,#829,#831,#833));
#835=FACE_OUTER_BOUND('',#834,.F.);
#836=ADVANCED_FACE('',(#835),#826,.T.);
#837=CARTESIAN_POINT('',(1.89E1,2.902297440789E1,-7.682000090289E1));
#838=DIRECTION('',(0.E0,-1.E0,0.E0));
#839=DIRECTION('',(0.E0,0.E0,-1.E0));
#840=AXIS2_PLACEMENT_3D('',#837,#838,#839);
#841=CYLINDRICAL_SURFACE('',#840,6.E-1);
#842=ORIENTED_EDGE('',*,*,#817,.T.);
#844=ORIENTED_EDGE('',*,*,#843,.T.);
#846=ORIENTED_EDGE('',*,*,#845,.F.);
#847=ORIENTED_EDGE('',*,*,#828,.F.);
#848=EDGE_LOOP('',(#842,#844,#846,#847));
#849=FACE_OUTER_BOUND('',#848,.F.);
#850=ADVANCED_FACE('',(#849),#841,.T.);
#851=CARTESIAN_POINT('',(1.8E1,2.2E1,-7.682000090289E1));
#852=DIRECTION('',(0.E0,0.E0,1.E0));
#853=DIRECTION('',(9.997633123994E-1,2.175589989323E-2,0.E0));
#854=AXIS2_PLACEMENT_3D('',#851,#852,#853);
#855=TOROIDAL_SURFACE('',#854,9.E-1,6.E-1);
#856=ORIENTED_EDGE('',*,*,#815,.T.);
#858=ORIENTED_EDGE('',*,*,#857,.T.);
#860=ORIENTED_EDGE('',*,*,#859,.F.);
#861=ORIENTED_EDGE('',*,*,#843,.F.);
#862=EDGE_LOOP('',(#856,#858,#860,#861));
#863=FACE_OUTER_BOUND('',#862,.F.);
#864=ADVANCED_FACE('',(#863),#855,.T.);
#865=CARTESIAN_POINT('',(1.802297440789E1,2.11E1,-7.682000090289E1));
#866=DIRECTION('',(-1.E0,0.E0,0.E0));
#867=DIRECTION('',(0.E0,0.E0,-1.E0));
#868=AXIS2_PLACEMENT_3D('',#865,#866,#867);
#869=CYLINDRICAL_SURFACE('',#868,6.E-1);
#870=ORIENTED_EDGE('',*,*,#813,.T.);
#872=ORIENTED_EDGE('',*,*,#871,.T.);
#874=ORIENTED_EDGE('',*,*,#873,.F.);
#875=ORIENTED_EDGE('',*,*,#857,.F.);
#876=EDGE_LOOP('',(#870,#872,#874,#875));
#877=FACE_OUTER_BOUND('',#876,.F.);
#878=ADVANCED_FACE('',(#877),#869,.T.);
#879=CARTESIAN_POINT('',(5.E0,2.2E1,-7.682000090289E1));
#880=DIRECTION('',(0.E0,0.E0,1.E0));
#881=DIRECTION('',(2.175589989323E-2,-9.997633123994E-1,0.E0));
#882=AXIS2_PLACEMENT_3D('',#879,#880,#881);
#883=TOROIDAL_SURFACE('',#882,9.E-1,6.E-1);
#885=ORIENTED_EDGE('',*,*,#884,.T.);
#887=ORIENTED_EDGE('',*,*,#886,.F.);
#888=ORIENTED_EDGE('',*,*,#871,.F.);
#889=ORIENTED_EDGE('',*,*,#811,.T.);
#890=EDGE_LOOP('',(#885,#887,#888,#889));
#891=FACE_OUTER_BOUND('',#890,.F.);
#892=ADVANCED_FACE('',(#891),#883,.T.);
#893=CARTESIAN_POINT('',(4.1E0,2.197702559211E1,-7.682000090289E1));
#894=DIRECTION('',(0.E0,1.E0,0.E0));
#895=DIRECTION('',(0.E0,0.E0,-1.E0));
#896=AXIS2_PLACEMENT_3D('',#893,#894,#895);
#897=CYLINDRICAL_SURFACE('',#896,6.E-1);
#898=ORIENTED_EDGE('',*,*,#809,.T.);
#900=ORIENTED_EDGE('',*,*,#899,.T.);
#902=ORIENTED_EDGE('',*,*,#901,.F.);
#903=ORIENTED_EDGE('',*,*,#884,.F.);
#904=EDGE_LOOP('',(#898,#900,#902,#903));
#905=FACE_OUTER_BOUND('',#904,.F.);
#906=ADVANCED_FACE('',(#905),#897,.T.);
#907=CARTESIAN_POINT('',(5.E0,2.9E1,-7.682000090289E1));
#908=DIRECTION('',(0.E0,0.E0,1.E0));
#909=DIRECTION('',(-9.997633123994E-1,-2.175589989323E-2,0.E0));
#910=AXIS2_PLACEMENT_3D('',#907,#908,#909);
#911=TOROIDAL_SURFACE('',#910,9.E-1,6.E-1);
#912=ORIENTED_EDGE('',*,*,#807,.T.);
#914=ORIENTED_EDGE('',*,*,#913,.T.);
#916=ORIENTED_EDGE('',*,*,#915,.F.);
#917=ORIENTED_EDGE('',*,*,#899,.F.);
#918=EDGE_LOOP('',(#912,#914,#916,#917));
#919=FACE_OUTER_BOUND('',#918,.F.);
#920=ADVANCED_FACE('',(#919),#911,.T.);
#921=CARTESIAN_POINT('',(4.977025592107E0,2.99E1,-7.682000090289E1));
#922=DIRECTION('',(1.E0,0.E0,0.E0));
#923=DIRECTION('',(0.E0,0.E0,-1.E0));
#924=AXIS2_PLACEMENT_3D('',#921,#922,#923);
#925=CYLINDRICAL_SURFACE('',#924,6.E-1);
#926=ORIENTED_EDGE('',*,*,#805,.T.);
#927=ORIENTED_EDGE('',*,*,#832,.T.);
#929=ORIENTED_EDGE('',*,*,#928,.F.);
#930=ORIENTED_EDGE('',*,*,#913,.F.);
#931=EDGE_LOOP('',(#926,#927,#929,#930));
#932=FACE_OUTER_BOUND('',#931,.F.);
#933=ADVANCED_FACE('',(#932),#925,.T.);
#934=CARTESIAN_POINT('',(3.5E0,3.05E1,-7.742000090289E1));
#935=DIRECTION('',(0.E0,1.E0,0.E0));
#936=DIRECTION('',(1.E0,0.E0,0.E0));
#937=AXIS2_PLACEMENT_3D('',#934,#935,#936);
#938=PLANE('',#937);
#939=ORIENTED_EDGE('',*,*,#928,.T.);
#941=ORIENTED_EDGE('',*,*,#940,.T.);
#943=ORIENTED_EDGE('',*,*,#942,.F.);
#945=ORIENTED_EDGE('',*,*,#944,.F.);
#946=EDGE_LOOP('',(#939,#941,#943,#945));
#947=FACE_OUTER_BOUND('',#946,.F.);
#948=ADVANCED_FACE('',(#947),#938,.T.);
#949=CARTESIAN_POINT('',(1.8E1,2.9E1,-8.198260090289E1));
#950=DIRECTION('',(0.E0,0.E0,1.E0));
#951=DIRECTION('',(1.E0,0.E0,0.E0));
#952=AXIS2_PLACEMENT_3D('',#949,#950,#951);
#953=CYLINDRICAL_SURFACE('',#952,1.5E0);
#954=ORIENTED_EDGE('',*,*,#830,.T.);
#956=ORIENTED_EDGE('',*,*,#955,.T.);
#958=ORIENTED_EDGE('',*,*,#957,.T.);
#959=ORIENTED_EDGE('',*,*,#940,.F.);
#960=EDGE_LOOP('',(#954,#956,#958,#959));
#961=FACE_OUTER_BOUND('',#960,.F.);
#962=ADVANCED_FACE('',(#961),#953,.T.);
#963=CARTESIAN_POINT('',(1.95E1,3.05E1,-7.742000090289E1));
#964=DIRECTION('',(1.E0,0.E0,0.E0));
#965=DIRECTION('',(0.E0,-1.E0,0.E0));
#966=AXIS2_PLACEMENT_3D('',#963,#964,#965);
#967=PLANE('',#966);
#968=ORIENTED_EDGE('',*,*,#845,.T.);
#970=ORIENTED_EDGE('',*,*,#969,.T.);
#972=ORIENTED_EDGE('',*,*,#971,.F.);
#973=ORIENTED_EDGE('',*,*,#955,.F.);
#974=EDGE_LOOP('',(#968,#970,#972,#973));
#975=FACE_OUTER_BOUND('',#974,.F.);
#976=ADVANCED_FACE('',(#975),#967,.T.);
#977=CARTESIAN_POINT('',(1.8E1,2.2E1,-8.198260090289E1));
#978=DIRECTION('',(0.E0,0.E0,1.E0));
#979=DIRECTION('',(0.E0,-1.E0,0.E0));
#980=AXIS2_PLACEMENT_3D('',#977,#978,#979);
#981=CYLINDRICAL_SURFACE('',#980,1.5E0);
#982=ORIENTED_EDGE('',*,*,#859,.T.);
#984=ORIENTED_EDGE('',*,*,#983,.T.);
#986=ORIENTED_EDGE('',*,*,#985,.T.);
#987=ORIENTED_EDGE('',*,*,#969,.F.);
#988=EDGE_LOOP('',(#982,#984,#986,#987));
#989=FACE_OUTER_BOUND('',#988,.F.);
#990=ADVANCED_FACE('',(#989),#981,.T.);
#991=CARTESIAN_POINT('',(1.95E1,2.05E1,-7.742000090289E1));
#992=DIRECTION('',(0.E0,-1.E0,0.E0));
#993=DIRECTION('',(-1.E0,0.E0,0.E0));
#994=AXIS2_PLACEMENT_3D('',#991,#992,#993);
#995=PLANE('',#994);
#996=ORIENTED_EDGE('',*,*,#873,.T.);
#998=ORIENTED_EDGE('',*,*,#997,.T.);
#1000=ORIENTED_EDGE('',*,*,#999,.F.);
#1001=ORIENTED_EDGE('',*,*,#983,.F.);
#1002=EDGE_LOOP('',(#996,#998,#1000,#1001));
#1003=FACE_OUTER_BOUND('',#1002,.F.);
#1004=ADVANCED_FACE('',(#1003),#995,.T.);
#1005=CARTESIAN_POINT('',(5.E0,2.2E1,-8.198260090289E1));
#1006=DIRECTION('',(0.E0,0.E0,1.E0));
#1007=DIRECTION('',(-1.E0,0.E0,0.E0));
#1008=AXIS2_PLACEMENT_3D('',#1005,#1006,#1007);
#1009=CYLINDRICAL_SURFACE('',#1008,1.5E0);
#1010=ORIENTED_EDGE('',*,*,#886,.T.);
#1012=ORIENTED_EDGE('',*,*,#1011,.T.);
#1014=ORIENTED_EDGE('',*,*,#1013,.T.);
#1015=ORIENTED_EDGE('',*,*,#997,.F.);
#1016=EDGE_LOOP('',(#1010,#1012,#1014,#1015));
#1017=FACE_OUTER_BOUND('',#1016,.F.);
#1018=ADVANCED_FACE('',(#1017),#1009,.T.);
#1019=CARTESIAN_POINT('',(3.5E0,2.15E1,-7.742000090289E1));
#1020=DIRECTION('',(-1.E0,0.E0,0.E0));
#1021=DIRECTION('',(0.E0,1.E0,0.E0));
#1022=AXIS2_PLACEMENT_3D('',#1019,#1020,#1021);
#1023=PLANE('',#1022);
#1024=ORIENTED_EDGE('',*,*,#901,.T.);
#1026=ORIENTED_EDGE('',*,*,#1025,.T.);
#1028=ORIENTED_EDGE('',*,*,#1027,.F.);
#1029=ORIENTED_EDGE('',*,*,#1011,.F.);
#1030=EDGE_LOOP('',(#1024,#1026,#1028,#1029));
#1031=FACE_OUTER_BOUND('',#1030,.F.);
#1032=ADVANCED_FACE('',(#1031),#1023,.T.);
#1033=CARTESIAN_POINT('',(5.E0,2.9E1,-8.198260090289E1));
#1034=DIRECTION('',(0.E0,0.E0,1.E0));
#1035=DIRECTION('',(0.E0,1.E0,0.E0));
#1036=AXIS2_PLACEMENT_3D('',#1033,#1034,#1035);
#1037=CYLINDRICAL_SURFACE('',#1036,1.5E0);
#1038=ORIENTED_EDGE('',*,*,#915,.T.);
#1039=ORIENTED_EDGE('',*,*,#944,.T.);
#1041=ORIENTED_EDGE('',*,*,#1040,.T.);
#1042=ORIENTED_EDGE('',*,*,#1025,.F.);
#1043=EDGE_LOOP('',(#1038,#1039,#1041,#1042));
#1044=FACE_OUTER_BOUND('',#1043,.F.);
#1045=ADVANCED_FACE('',(#1044),#1037,.T.);
#1046=CARTESIAN_POINT('',(0.E0,0.E0,-7.422000090289E1));
#1047=DIRECTION('',(0.E0,0.E0,1.E0));
#1048=DIRECTION('',(1.E0,0.E0,0.E0));
#1049=AXIS2_PLACEMENT_3D('',#1046,#1047,#1048);
#1050=PLANE('',#1049);
#1052=ORIENTED_EDGE('',*,*,#1051,.T.);
#1054=ORIENTED_EDGE('',*,*,#1053,.T.);
#1056=ORIENTED_EDGE('',*,*,#1055,.T.);
#1058=ORIENTED_EDGE('',*,*,#1057,.T.);
#1060=ORIENTED_EDGE('',*,*,#1059,.T.);
#1062=ORIENTED_EDGE('',*,*,#1061,.F.);
#1064=ORIENTED_EDGE('',*,*,#1063,.F.);
#1066=ORIENTED_EDGE('',*,*,#1065,.F.);
#1068=ORIENTED_EDGE('',*,*,#1067,.T.);
#1070=ORIENTED_EDGE('',*,*,#1069,.T.);
#1072=ORIENTED_EDGE('',*,*,#1071,.T.);
#1074=ORIENTED_EDGE('',*,*,#1073,.T.);
#1075=EDGE_LOOP('',(#1052,#1054,#1056,#1058,#1060,#1062,#1064,#1066,#1068,#1070,
#1072,#1074));
#1076=FACE_OUTER_BOUND('',#1075,.F.);
#1077=ORIENTED_EDGE('',*,*,#971,.T.);
#1078=ORIENTED_EDGE('',*,*,#985,.F.);
#1079=ORIENTED_EDGE('',*,*,#999,.T.);
#1080=ORIENTED_EDGE('',*,*,#1013,.F.);
#1081=ORIENTED_EDGE('',*,*,#1027,.T.);
#1082=ORIENTED_EDGE('',*,*,#1040,.F.);
#1083=ORIENTED_EDGE('',*,*,#942,.T.);
#1084=ORIENTED_EDGE('',*,*,#957,.F.);
#1085=EDGE_LOOP('',(#1077,#1078,#1079,#1080,#1081,#1082,#1083,#1084));
#1086=FACE_BOUND('',#1085,.F.);
#1087=ADVANCED_FACE('',(#1076,#1086),#1050,.F.);
#1088=CARTESIAN_POINT('',(0.E0,1.99E1,-7.422000090289E1));
#1089=DIRECTION('',(0.E0,1.E0,0.E0));
#1090=DIRECTION('',(1.E0,0.E0,0.E0));
#1091=AXIS2_PLACEMENT_3D('',#1088,#1089,#1090);
#1092=PLANE('',#1091);
#1094=ORIENTED_EDGE('',*,*,#1093,.F.);
#1096=ORIENTED_EDGE('',*,*,#1095,.F.);
#1097=ORIENTED_EDGE('',*,*,#1051,.F.);
#1099=ORIENTED_EDGE('',*,*,#1098,.T.);
#1100=EDGE_LOOP('',(#1094,#1096,#1097,#1099));
#1101=FACE_OUTER_BOUND('',#1100,.F.);
#1102=ADVANCED_FACE('',(#1101),#1092,.F.);
#1103=CARTESIAN_POINT('',(0.E0,0.E0,-7.392000090289E1));
#1104=DIRECTION('',(0.E0,0.E0,-1.E0));
#1105=DIRECTION('',(-1.E0,0.E0,0.E0));
#1106=AXIS2_PLACEMENT_3D('',#1103,#1104,#1105);
#1107=PLANE('',#1106);
#1108=ORIENTED_EDGE('',*,*,#1093,.T.);
#1110=ORIENTED_EDGE('',*,*,#1109,.F.);
#1112=ORIENTED_EDGE('',*,*,#1111,.F.);
#1114=ORIENTED_EDGE('',*,*,#1113,.F.);
#1116=ORIENTED_EDGE('',*,*,#1115,.F.);
#1118=ORIENTED_EDGE('',*,*,#1117,.T.);
#1120=ORIENTED_EDGE('',*,*,#1119,.F.);
#1122=ORIENTED_EDGE('',*,*,#1121,.T.);
#1124=ORIENTED_EDGE('',*,*,#1123,.F.);
#1126=ORIENTED_EDGE('',*,*,#1125,.F.);
#1128=ORIENTED_EDGE('',*,*,#1127,.F.);
#1130=ORIENTED_EDGE('',*,*,#1129,.F.);
#1131=EDGE_LOOP('',(#1108,#1110,#1112,#1114,#1116,#1118,#1120,#1122,#1124,#1126,
#1128,#1130));
#1132=FACE_OUTER_BOUND('',#1131,.F.);
#1134=ORIENTED_EDGE('',*,*,#1133,.F.);
#1136=ORIENTED_EDGE('',*,*,#1135,.T.);
#1138=ORIENTED_EDGE('',*,*,#1137,.F.);
#1140=ORIENTED_EDGE('',*,*,#1139,.T.);
#1142=ORIENTED_EDGE('',*,*,#1141,.F.);
#1144=ORIENTED_EDGE('',*,*,#1143,.T.);
#1146=ORIENTED_EDGE('',*,*,#1145,.F.);
#1148=ORIENTED_EDGE('',*,*,#1147,.T.);
#1149=EDGE_LOOP('',(#1134,#1136,#1138,#1140,#1142,#1144,#1146,#1148));
#1150=FACE_BOUND('',#1149,.F.);
#1151=ADVANCED_FACE('',(#1132,#1150),#1107,.F.);
#1152=CARTESIAN_POINT('',(1.92E1,3.05E1,-7.742000090289E1));
#1153=DIRECTION('',(1.E0,0.E0,0.E0));
#1154=DIRECTION('',(0.E0,-1.E0,0.E0));
#1155=AXIS2_PLACEMENT_3D('',#1152,#1153,#1154);
#1156=PLANE('',#1155);
#1158=ORIENTED_EDGE('',*,*,#1157,.F.);
#1160=ORIENTED_EDGE('',*,*,#1159,.T.);
#1161=ORIENTED_EDGE('',*,*,#1133,.T.);
#1163=ORIENTED_EDGE('',*,*,#1162,.F.);
#1164=EDGE_LOOP('',(#1158,#1160,#1161,#1163));
#1165=FACE_OUTER_BOUND('',#1164,.F.);
#1166=ADVANCED_FACE('',(#1165),#1156,.F.);
#1167=CARTESIAN_POINT('',(1.89E1,2.902297440789E1,-7.682000090289E1));
#1168=DIRECTION('',(0.E0,-1.E0,0.E0));
#1169=DIRECTION('',(0.E0,0.E0,-1.E0));
#1170=AXIS2_PLACEMENT_3D('',#1167,#1168,#1169);
#1171=CYLINDRICAL_SURFACE('',#1170,3.E-1);
#1173=ORIENTED_EDGE('',*,*,#1172,.F.);
#1175=ORIENTED_EDGE('',*,*,#1174,.T.);
#1176=ORIENTED_EDGE('',*,*,#1157,.T.);
#1178=ORIENTED_EDGE('',*,*,#1177,.F.);
#1179=EDGE_LOOP('',(#1173,#1175,#1176,#1178));
#1180=FACE_OUTER_BOUND('',#1179,.F.);
#1181=ADVANCED_FACE('',(#1180),#1171,.F.);
#1182=CARTESIAN_POINT('',(0.E0,0.E0,-7.712000090289E1));
#1183=DIRECTION('',(0.E0,0.E0,-1.E0));
#1184=DIRECTION('',(-1.E0,0.E0,0.E0));
#1185=AXIS2_PLACEMENT_3D('',#1182,#1183,#1184);
#1186=PLANE('',#1185);
#1187=ORIENTED_EDGE('',*,*,#1172,.T.);
#1189=ORIENTED_EDGE('',*,*,#1188,.T.);
#1191=ORIENTED_EDGE('',*,*,#1190,.T.);
#1193=ORIENTED_EDGE('',*,*,#1192,.T.);
#1195=ORIENTED_EDGE('',*,*,#1194,.T.);
#1197=ORIENTED_EDGE('',*,*,#1196,.T.);
#1199=ORIENTED_EDGE('',*,*,#1198,.T.);
#1201=ORIENTED_EDGE('',*,*,#1200,.T.);
#1202=EDGE_LOOP('',(#1187,#1189,#1191,#1193,#1195,#1197,#1199,#1201));
#1203=FACE_OUTER_BOUND('',#1202,.F.);
#1204=ADVANCED_FACE('',(#1203),#1186,.F.);
#1205=CARTESIAN_POINT('',(1.8E1,2.2E1,-7.682000090289E1));
#1206=DIRECTION('',(0.E0,0.E0,1.E0));
#1207=DIRECTION('',(9.996301838306E-1,2.719366791759E-2,0.E0));
#1208=AXIS2_PLACEMENT_3D('',#1205,#1206,#1207);
#1209=TOROIDAL_SURFACE('',#1208,9.E-1,3.E-1);
#1210=ORIENTED_EDGE('',*,*,#1188,.F.);
#1211=ORIENTED_EDGE('',*,*,#1177,.T.);
#1213=ORIENTED_EDGE('',*,*,#1212,.T.);
#1215=ORIENTED_EDGE('',*,*,#1214,.F.);
#1216=EDGE_LOOP('',(#1210,#1211,#1213,#1215));
#1217=FACE_OUTER_BOUND('',#1216,.F.);
#1218=ADVANCED_FACE('',(#1217),#1209,.F.);
#1219=CARTESIAN_POINT('',(1.8E1,2.2E1,-8.198260090289E1));
#1220=DIRECTION('',(0.E0,0.E0,1.E0));
#1221=DIRECTION('',(0.E0,-1.E0,0.E0));
#1222=AXIS2_PLACEMENT_3D('',#1219,#1220,#1221);
#1223=CYLINDRICAL_SURFACE('',#1222,1.2E0);
#1224=ORIENTED_EDGE('',*,*,#1212,.F.);
#1225=ORIENTED_EDGE('',*,*,#1162,.T.);
#1226=ORIENTED_EDGE('',*,*,#1147,.F.);
#1228=ORIENTED_EDGE('',*,*,#1227,.F.);
#1229=EDGE_LOOP('',(#1224,#1225,#1226,#1228));
#1230=FACE_OUTER_BOUND('',#1229,.F.);
#1231=ADVANCED_FACE('',(#1230),#1223,.F.);
#1232=CARTESIAN_POINT('',(1.95E1,2.08E1,-7.742000090289E1));
#1233=DIRECTION('',(0.E0,-1.E0,0.E0));
#1234=DIRECTION('',(-1.E0,0.E0,0.E0));
#1235=AXIS2_PLACEMENT_3D('',#1232,#1233,#1234);
#1236=PLANE('',#1235);
#1238=ORIENTED_EDGE('',*,*,#1237,.F.);
#1239=ORIENTED_EDGE('',*,*,#1227,.T.);
#1240=ORIENTED_EDGE('',*,*,#1145,.T.);
#1242=ORIENTED_EDGE('',*,*,#1241,.F.);
#1243=EDGE_LOOP('',(#1238,#1239,#1240,#1242));
#1244=FACE_OUTER_BOUND('',#1243,.F.);
#1245=ADVANCED_FACE('',(#1244),#1236,.F.);
#1246=CARTESIAN_POINT('',(1.802297440789E1,2.11E1,-7.682000090289E1));
#1247=DIRECTION('',(-1.E0,0.E0,0.E0));
#1248=DIRECTION('',(0.E0,0.E0,-1.E0));
#1249=AXIS2_PLACEMENT_3D('',#1246,#1247,#1248);
#1250=CYLINDRICAL_SURFACE('',#1249,3.E-1);
#1251=ORIENTED_EDGE('',*,*,#1190,.F.);
#1252=ORIENTED_EDGE('',*,*,#1214,.T.);
#1253=ORIENTED_EDGE('',*,*,#1237,.T.);
#1255=ORIENTED_EDGE('',*,*,#1254,.F.);
#1256=EDGE_LOOP('',(#1251,#1252,#1253,#1255));
#1257=FACE_OUTER_BOUND('',#1256,.F.);
#1258=ADVANCED_FACE('',(#1257),#1250,.F.);
#1259=CARTESIAN_POINT('',(5.E0,2.2E1,-7.682000090289E1));
#1260=DIRECTION('',(0.E0,0.E0,1.E0));
#1261=DIRECTION('',(2.719366791759E-2,-9.996301838306E-1,0.E0));
#1262=AXIS2_PLACEMENT_3D('',#1259,#1260,#1261);
#1263=TOROIDAL_SURFACE('',#1262,9.E-1,3.E-1);
#1265=ORIENTED_EDGE('',*,*,#1264,.F.);
#1266=ORIENTED_EDGE('',*,*,#1192,.F.);
#1267=ORIENTED_EDGE('',*,*,#1254,.T.);
#1269=ORIENTED_EDGE('',*,*,#1268,.T.);
#1270=EDGE_LOOP('',(#1265,#1266,#1267,#1269));
#1271=FACE_OUTER_BOUND('',#1270,.F.);
#1272=ADVANCED_FACE('',(#1271),#1263,.F.);
#1273=CARTESIAN_POINT('',(4.1E0,2.197702559211E1,-7.682000090289E1));
#1274=DIRECTION('',(0.E0,1.E0,0.E0));
#1275=DIRECTION('',(0.E0,0.E0,-1.E0));
#1276=AXIS2_PLACEMENT_3D('',#1273,#1274,#1275);
#1277=CYLINDRICAL_SURFACE('',#1276,3.E-1);
#1278=ORIENTED_EDGE('',*,*,#1194,.F.);
#1279=ORIENTED_EDGE('',*,*,#1264,.T.);
#1281=ORIENTED_EDGE('',*,*,#1280,.T.);
#1283=ORIENTED_EDGE('',*,*,#1282,.F.);
#1284=EDGE_LOOP('',(#1278,#1279,#1281,#1283));
#1285=FACE_OUTER_BOUND('',#1284,.F.);
#1286=ADVANCED_FACE('',(#1285),#1277,.F.);
#1287=CARTESIAN_POINT('',(3.8E0,2.15E1,-7.742000090289E1));
#1288=DIRECTION('',(-1.E0,0.E0,0.E0));
#1289=DIRECTION('',(0.E0,1.E0,0.E0));
#1290=AXIS2_PLACEMENT_3D('',#1287,#1288,#1289);
#1291=PLANE('',#1290);
#1292=ORIENTED_EDGE('',*,*,#1280,.F.);
#1294=ORIENTED_EDGE('',*,*,#1293,.T.);
#1295=ORIENTED_EDGE('',*,*,#1141,.T.);
#1297=ORIENTED_EDGE('',*,*,#1296,.F.);
#1298=EDGE_LOOP('',(#1292,#1294,#1295,#1297));
#1299=FACE_OUTER_BOUND('',#1298,.F.);
#1300=ADVANCED_FACE('',(#1299),#1291,.F.);
#1301=CARTESIAN_POINT('',(5.E0,2.2E1,-8.198260090289E1));
#1302=DIRECTION('',(0.E0,0.E0,1.E0));
#1303=DIRECTION('',(-1.E0,0.E0,0.E0));
#1304=AXIS2_PLACEMENT_3D('',#1301,#1302,#1303);
#1305=CYLINDRICAL_SURFACE('',#1304,1.2E0);
#1306=ORIENTED_EDGE('',*,*,#1268,.F.);
#1307=ORIENTED_EDGE('',*,*,#1241,.T.);
#1308=ORIENTED_EDGE('',*,*,#1143,.F.);
#1309=ORIENTED_EDGE('',*,*,#1293,.F.);
#1310=EDGE_LOOP('',(#1306,#1307,#1308,#1309));
#1311=FACE_OUTER_BOUND('',#1310,.F.);
#1312=ADVANCED_FACE('',(#1311),#1305,.F.);
#1313=CARTESIAN_POINT('',(5.E0,2.9E1,-8.198260090289E1));
#1314=DIRECTION('',(0.E0,0.E0,1.E0));
#1315=DIRECTION('',(0.E0,1.E0,0.E0));
#1316=AXIS2_PLACEMENT_3D('',#1313,#1314,#1315);
#1317=CYLINDRICAL_SURFACE('',#1316,1.2E0);
#1319=ORIENTED_EDGE('',*,*,#1318,.F.);
#1320=ORIENTED_EDGE('',*,*,#1296,.T.);
#1321=ORIENTED_EDGE('',*,*,#1139,.F.);
#1323=ORIENTED_EDGE('',*,*,#1322,.F.);
#1324=EDGE_LOOP('',(#1319,#1320,#1321,#1323));
#1325=FACE_OUTER_BOUND('',#1324,.F.);
#1326=ADVANCED_FACE('',(#1325),#1317,.F.);
#1327=CARTESIAN_POINT('',(5.E0,2.9E1,-7.682000090289E1));
#1328=DIRECTION('',(0.E0,0.E0,1.E0));
#1329=DIRECTION('',(-9.996301838306E-1,-2.719366791759E-2,0.E0));
#1330=AXIS2_PLACEMENT_3D('',#1327,#1328,#1329);
#1331=TOROIDAL_SURFACE('',#1330,9.E-1,3.E-1);
#1332=ORIENTED_EDGE('',*,*,#1196,.F.);
#1333=ORIENTED_EDGE('',*,*,#1282,.T.);
#1334=ORIENTED_EDGE('',*,*,#1318,.T.);
#1336=ORIENTED_EDGE('',*,*,#1335,.F.);
#1337=EDGE_LOOP('',(#1332,#1333,#1334,#1336));
#1338=FACE_OUTER_BOUND('',#1337,.F.);
#1339=ADVANCED_FACE('',(#1338),#1331,.F.);
#1340=CARTESIAN_POINT('',(4.977025592107E0,2.99E1,-7.682000090289E1));
#1341=DIRECTION('',(1.E0,0.E0,0.E0));
#1342=DIRECTION('',(0.E0,0.E0,-1.E0));
#1343=AXIS2_PLACEMENT_3D('',#1340,#1341,#1342);
#1344=CYLINDRICAL_SURFACE('',#1343,3.E-1);
#1345=ORIENTED_EDGE('',*,*,#1198,.F.);
#1346=ORIENTED_EDGE('',*,*,#1335,.T.);
#1348=ORIENTED_EDGE('',*,*,#1347,.T.);
#1350=ORIENTED_EDGE('',*,*,#1349,.F.);
#1351=EDGE_LOOP('',(#1345,#1346,#1348,#1350));
#1352=FACE_OUTER_BOUND('',#1351,.F.);
#1353=ADVANCED_FACE('',(#1352),#1344,.F.);
#1354=CARTESIAN_POINT('',(3.5E0,3.02E1,-7.742000090289E1));
#1355=DIRECTION('',(0.E0,1.E0,0.E0));
#1356=DIRECTION('',(1.E0,0.E0,0.E0));
#1357=AXIS2_PLACEMENT_3D('',#1354,#1355,#1356);
#1358=PLANE('',#1357);
#1359=ORIENTED_EDGE('',*,*,#1347,.F.);
#1360=ORIENTED_EDGE('',*,*,#1322,.T.);
#1361=ORIENTED_EDGE('',*,*,#1137,.T.);
#1363=ORIENTED_EDGE('',*,*,#1362,.F.);
#1364=EDGE_LOOP('',(#1359,#1360,#1361,#1363));
#1365=FACE_OUTER_BOUND('',#1364,.F.);
#1366=ADVANCED_FACE('',(#1365),#1358,.F.);
#1367=CARTESIAN_POINT('',(1.8E1,2.9E1,-8.198260090289E1));
#1368=DIRECTION('',(0.E0,0.E0,1.E0));
#1369=DIRECTION('',(1.E0,0.E0,0.E0));
#1370=AXIS2_PLACEMENT_3D('',#1367,#1368,#1369);
#1371=CYLINDRICAL_SURFACE('',#1370,1.2E0);
#1373=ORIENTED_EDGE('',*,*,#1372,.F.);
#1374=ORIENTED_EDGE('',*,*,#1362,.T.);
#1375=ORIENTED_EDGE('',*,*,#1135,.F.);
#1376=ORIENTED_EDGE('',*,*,#1159,.F.);
#1377=EDGE_LOOP('',(#1373,#1374,#1375,#1376));
#1378=FACE_OUTER_BOUND('',#1377,.F.);
#1379=ADVANCED_FACE('',(#1378),#1371,.F.);
#1380=CARTESIAN_POINT('',(1.8E1,2.9E1,-7.682000090289E1));
#1381=DIRECTION('',(0.E0,0.E0,1.E0));
#1382=DIRECTION('',(-2.719366791759E-2,9.996301838306E-1,0.E0));
#1383=AXIS2_PLACEMENT_3D('',#1380,#1381,#1382);
#1384=TOROIDAL_SURFACE('',#1383,9.E-1,3.E-1);
#1385=ORIENTED_EDGE('',*,*,#1200,.F.);
#1386=ORIENTED_EDGE('',*,*,#1349,.T.);
#1387=ORIENTED_EDGE('',*,*,#1372,.T.);
#1388=ORIENTED_EDGE('',*,*,#1174,.F.);
#1389=EDGE_LOOP('',(#1385,#1386,#1387,#1388));
#1390=FACE_OUTER_BOUND('',#1389,.F.);
#1391=ADVANCED_FACE('',(#1390),#1384,.F.);
#1392=CARTESIAN_POINT('',(5.E0,2.2E1,-7.392000090289E1));
#1393=DIRECTION('',(0.E0,0.E0,1.E0));
#1394=DIRECTION('',(1.E0,0.E0,0.E0));
#1395=AXIS2_PLACEMENT_3D('',#1392,#1393,#1394);
#1396=CYLINDRICAL_SURFACE('',#1395,2.3E0);
#1397=ORIENTED_EDGE('',*,*,#1098,.F.);
#1398=ORIENTED_EDGE('',*,*,#1073,.F.);
#1400=ORIENTED_EDGE('',*,*,#1399,.F.);
#1401=ORIENTED_EDGE('',*,*,#1109,.T.);
#1402=EDGE_LOOP('',(#1397,#1398,#1400,#1401));
#1403=FACE_OUTER_BOUND('',#1402,.F.);
#1404=ADVANCED_FACE('',(#1403),#1396,.T.);
#1405=CARTESIAN_POINT('',(2.7E0,2.9E1,-7.392000090289E1));
#1406=DIRECTION('',(-1.E0,0.E0,0.E0));
#1407=DIRECTION('',(0.E0,-1.E0,0.E0));
#1408=AXIS2_PLACEMENT_3D('',#1405,#1406,#1407);
#1409=PLANE('',#1408);
#1410=ORIENTED_EDGE('',*,*,#1111,.T.);
#1411=ORIENTED_EDGE('',*,*,#1399,.T.);
#1412=ORIENTED_EDGE('',*,*,#1071,.F.);
#1414=ORIENTED_EDGE('',*,*,#1413,.F.);
#1415=EDGE_LOOP('',(#1410,#1411,#1412,#1414));
#1416=FACE_OUTER_BOUND('',#1415,.F.);
#1417=ADVANCED_FACE('',(#1416),#1409,.T.);
#1418=CARTESIAN_POINT('',(5.E0,2.9E1,-7.392000090289E1));
#1419=DIRECTION('',(0.E0,0.E0,1.E0));
#1420=DIRECTION('',(1.E0,0.E0,0.E0));
#1421=AXIS2_PLACEMENT_3D('',#1418,#1419,#1420);
#1422=CYLINDRICAL_SURFACE('',#1421,2.3E0);
#1423=ORIENTED_EDGE('',*,*,#1113,.T.);
#1424=ORIENTED_EDGE('',*,*,#1413,.T.);
#1425=ORIENTED_EDGE('',*,*,#1069,.F.);
#1427=ORIENTED_EDGE('',*,*,#1426,.F.);
#1428=EDGE_LOOP('',(#1423,#1424,#1425,#1427));
#1429=FACE_OUTER_BOUND('',#1428,.F.);
#1430=ADVANCED_FACE('',(#1429),#1422,.T.);
#1431=CARTESIAN_POINT('',(1.8E1,3.13E1,-7.392000090289E1));
#1432=DIRECTION('',(0.E0,1.E0,0.E0));
#1433=DIRECTION('',(-1.E0,0.E0,0.E0));
#1434=AXIS2_PLACEMENT_3D('',#1431,#1432,#1433);
#1435=PLANE('',#1434);
#1437=ORIENTED_EDGE('',*,*,#1436,.F.);
#1438=ORIENTED_EDGE('',*,*,#1059,.F.);
#1440=ORIENTED_EDGE('',*,*,#1439,.F.);
#1441=ORIENTED_EDGE('',*,*,#1123,.T.);
#1442=EDGE_LOOP('',(#1437,#1438,#1440,#1441));
#1443=FACE_OUTER_BOUND('',#1442,.F.);
#1444=ADVANCED_FACE('',(#1443),#1435,.T.);
#1445=CARTESIAN_POINT('',(1.8E1,3.13E1,-7.392000090289E1));
#1446=DIRECTION('',(0.E0,1.E0,0.E0));
#1447=DIRECTION('',(-1.E0,0.E0,0.E0));
#1448=AXIS2_PLACEMENT_3D('',#1445,#1446,#1447);
#1449=PLANE('',#1448);
#1451=ORIENTED_EDGE('',*,*,#1450,.T.);
#1452=ORIENTED_EDGE('',*,*,#1115,.T.);
#1453=ORIENTED_EDGE('',*,*,#1426,.T.);
#1454=ORIENTED_EDGE('',*,*,#1067,.F.);
#1455=EDGE_LOOP('',(#1451,#1452,#1453,#1454));
#1456=FACE_OUTER_BOUND('',#1455,.F.);
#1457=ADVANCED_FACE('',(#1456),#1449,.T.);
#1458=CARTESIAN_POINT('',(1.4E1,3.26E1,-7.422000090289E1));
#1459=DIRECTION('',(1.E0,0.E0,0.E0));
#1460=DIRECTION('',(0.E0,-1.E0,0.E0));
#1461=AXIS2_PLACEMENT_3D('',#1458,#1459,#1460);
#1462=PLANE('',#1461);
#1464=ORIENTED_EDGE('',*,*,#1463,.T.);
#1466=ORIENTED_EDGE('',*,*,#1465,.F.);
#1468=ORIENTED_EDGE('',*,*,#1467,.F.);
#1469=ORIENTED_EDGE('',*,*,#1061,.T.);
#1470=ORIENTED_EDGE('',*,*,#1436,.T.);
#1471=ORIENTED_EDGE('',*,*,#1121,.F.);
#1473=ORIENTED_EDGE('',*,*,#1472,.F.);
#1475=ORIENTED_EDGE('',*,*,#1474,.T.);
#1476=EDGE_LOOP('',(#1464,#1466,#1468,#1469,#1470,#1471,#1473,#1475));
#1477=FACE_OUTER_BOUND('',#1476,.F.);
#1478=ADVANCED_FACE('',(#1477),#1462,.T.);
#1479=CARTESIAN_POINT('',(1.3E1,2.88356E0,-6.922000090289E1));
#1480=DIRECTION('',(0.E0,1.E0,0.E0));
#1481=DIRECTION('',(0.E0,0.E0,1.E0));
#1482=AXIS2_PLACEMENT_3D('',#1479,#1480,#1481);
#1483=CYLINDRICAL_SURFACE('',#1482,1.E0);
#1485=ORIENTED_EDGE('',*,*,#1484,.T.);
#1486=ORIENTED_EDGE('',*,*,#1463,.F.);
#1488=ORIENTED_EDGE('',*,*,#1487,.T.);
#1490=ORIENTED_EDGE('',*,*,#1489,.T.);
#1491=EDGE_LOOP('',(#1485,#1486,#1488,#1490));
#1492=FACE_OUTER_BOUND('',#1491,.F.);
#1493=ADVANCED_FACE('',(#1492),#1483,.T.);
#1494=CARTESIAN_POINT('',(9.E0,3.26E1,-7.422000090289E1));
#1495=DIRECTION('',(0.E0,1.E0,0.E0));
#1496=DIRECTION('',(1.E0,0.E0,0.E0));
#1497=AXIS2_PLACEMENT_3D('',#1494,#1495,#1496);
#1498=PLANE('',#1497);
#1499=ORIENTED_EDGE('',*,*,#1484,.F.);
#1501=ORIENTED_EDGE('',*,*,#1500,.F.);
#1503=ORIENTED_EDGE('',*,*,#1502,.F.);
#1505=ORIENTED_EDGE('',*,*,#1504,.F.);
#1507=ORIENTED_EDGE('',*,*,#1506,.T.);
#1508=ORIENTED_EDGE('',*,*,#1465,.T.);
#1509=EDGE_LOOP('',(#1499,#1501,#1503,#1505,#1507,#1508));
#1510=FACE_OUTER_BOUND('',#1509,.F.);
#1512=ORIENTED_EDGE('',*,*,#1511,.T.);
#1514=ORIENTED_EDGE('',*,*,#1513,.T.);
#1515=EDGE_LOOP('',(#1512,#1514));
#1516=FACE_BOUND('',#1515,.F.);
#1517=ADVANCED_FACE('',(#1510,#1516),#1498,.T.);
#1518=CARTESIAN_POINT('',(1.15E1,3.05E1,-7.042000090289E1));
#1519=DIRECTION('',(0.E0,1.E0,0.E0));
#1520=DIRECTION('',(1.E0,0.E0,0.E0));
#1521=AXIS2_PLACEMENT_3D('',#1518,#1519,#1520);
#1522=CYLINDRICAL_SURFACE('',#1521,1.E0);
#1524=ORIENTED_EDGE('',*,*,#1523,.T.);
#1526=ORIENTED_EDGE('',*,*,#1525,.T.);
#1527=ORIENTED_EDGE('',*,*,#1511,.F.);
#1529=ORIENTED_EDGE('',*,*,#1528,.F.);
#1530=EDGE_LOOP('',(#1524,#1526,#1527,#1529));
#1531=FACE_OUTER_BOUND('',#1530,.F.);
#1532=ADVANCED_FACE('',(#1531),#1522,.F.);
#1533=CARTESIAN_POINT('',(1.4E1,3.23E1,-7.422000090289E1));
#1534=DIRECTION('',(0.E0,-1.E0,0.E0));
#1535=DIRECTION('',(-1.E0,0.E0,0.E0));
#1536=AXIS2_PLACEMENT_3D('',#1533,#1534,#1535);
#1537=PLANE('',#1536);
#1538=ORIENTED_EDGE('',*,*,#1487,.F.);
#1539=ORIENTED_EDGE('',*,*,#1474,.F.);
#1541=ORIENTED_EDGE('',*,*,#1540,.T.);
#1543=ORIENTED_EDGE('',*,*,#1542,.T.);
#1545=ORIENTED_EDGE('',*,*,#1544,.F.);
#1547=ORIENTED_EDGE('',*,*,#1546,.F.);
#1548=EDGE_LOOP('',(#1538,#1539,#1541,#1543,#1545,#1547));
#1549=FACE_OUTER_BOUND('',#1548,.F.);
#1550=ORIENTED_EDGE('',*,*,#1523,.F.);
#1552=ORIENTED_EDGE('',*,*,#1551,.F.);
#1553=EDGE_LOOP('',(#1550,#1552));
#1554=FACE_BOUND('',#1553,.F.);
#1555=ADVANCED_FACE('',(#1549,#1554),#1537,.T.);
#1556=CARTESIAN_POINT('',(1.15E1,3.05E1,-7.042000090289E1));
#1557=DIRECTION('',(0.E0,1.E0,0.E0));
#1558=DIRECTION('',(1.E0,0.E0,0.E0));
#1559=AXIS2_PLACEMENT_3D('',#1556,#1557,#1558);
#1560=CYLINDRICAL_SURFACE('',#1559,1.E0);
#1561=ORIENTED_EDGE('',*,*,#1551,.T.);
#1562=ORIENTED_EDGE('',*,*,#1528,.T.);
#1563=ORIENTED_EDGE('',*,*,#1513,.F.);
#1564=ORIENTED_EDGE('',*,*,#1525,.F.);
#1565=EDGE_LOOP('',(#1561,#1562,#1563,#1564));
#1566=FACE_OUTER_BOUND('',#1565,.F.);
#1567=ADVANCED_FACE('',(#1566),#1560,.F.);
#1568=CARTESIAN_POINT('',(4.324336E1,3.2E1,-7.362000090289E1));
#1569=DIRECTION('',(-1.E0,0.E0,0.E0));
#1570=DIRECTION('',(0.E0,1.E0,0.E0));
#1571=AXIS2_PLACEMENT_3D('',#1568,#1569,#1570);
#1572=CYLINDRICAL_SURFACE('',#1571,3.E-1);
#1573=ORIENTED_EDGE('',*,*,#1540,.F.);
#1574=ORIENTED_EDGE('',*,*,#1472,.T.);
#1575=ORIENTED_EDGE('',*,*,#1119,.T.);
#1577=ORIENTED_EDGE('',*,*,#1576,.T.);
#1578=EDGE_LOOP('',(#1573,#1574,#1575,#1577));
#1579=FACE_OUTER_BOUND('',#1578,.F.);
#1580=ADVANCED_FACE('',(#1579),#1572,.F.);
#1581=CARTESIAN_POINT('',(9.E0,3.23E1,-7.422000090289E1));
#1582=DIRECTION('',(-1.E0,0.E0,0.E0));
#1583=DIRECTION('',(0.E0,1.E0,0.E0));
#1584=AXIS2_PLACEMENT_3D('',#1581,#1582,#1583);
#1585=PLANE('',#1584);
#1587=ORIENTED_EDGE('',*,*,#1586,.T.);
#1588=ORIENTED_EDGE('',*,*,#1542,.F.);
#1589=ORIENTED_EDGE('',*,*,#1576,.F.);
#1590=ORIENTED_EDGE('',*,*,#1117,.F.);
#1591=ORIENTED_EDGE('',*,*,#1450,.F.);
#1592=ORIENTED_EDGE('',*,*,#1065,.T.);
#1594=ORIENTED_EDGE('',*,*,#1593,.F.);
#1595=ORIENTED_EDGE('',*,*,#1504,.T.);
#1596=EDGE_LOOP('',(#1587,#1588,#1589,#1590,#1591,#1592,#1594,#1595));
#1597=FACE_OUTER_BOUND('',#1596,.F.);
#1598=ADVANCED_FACE('',(#1597),#1585,.T.);
#1599=CARTESIAN_POINT('',(1.E1,4.941644E1,-6.922000090289E1));
#1600=DIRECTION('',(0.E0,-1.E0,0.E0));
#1601=DIRECTION('',(0.E0,0.E0,1.E0));
#1602=AXIS2_PLACEMENT_3D('',#1599,#1600,#1601);
#1603=CYLINDRICAL_SURFACE('',#1602,1.E0);
#1604=ORIENTED_EDGE('',*,*,#1544,.T.);
#1605=ORIENTED_EDGE('',*,*,#1586,.F.);
#1606=ORIENTED_EDGE('',*,*,#1502,.T.);
#1608=ORIENTED_EDGE('',*,*,#1607,.T.);
#1609=EDGE_LOOP('',(#1604,#1605,#1606,#1608));
#1610=FACE_OUTER_BOUND('',#1609,.F.);
#1611=ADVANCED_FACE('',(#1610),#1603,.T.);
#1612=CARTESIAN_POINT('',(0.E0,0.E0,-6.822000090289E1));
#1613=DIRECTION('',(0.E0,0.E0,-1.E0));
#1614=DIRECTION('',(-1.E0,0.E0,0.E0));
#1615=AXIS2_PLACEMENT_3D('',#1612,#1613,#1614);
#1616=PLANE('',#1615);
#1617=ORIENTED_EDGE('',*,*,#1489,.F.);
#1618=ORIENTED_EDGE('',*,*,#1546,.T.);
#1619=ORIENTED_EDGE('',*,*,#1607,.F.);
#1620=ORIENTED_EDGE('',*,*,#1500,.T.);
#1621=EDGE_LOOP('',(#1617,#1618,#1619,#1620));
#1622=FACE_OUTER_BOUND('',#1621,.F.);
#1623=ADVANCED_FACE('',(#1622),#1616,.F.);
#1624=CARTESIAN_POINT('',(-2.024336E1,3.2E1,-7.362000090289E1));
#1625=DIRECTION('',(1.E0,0.E0,0.E0));
#1626=DIRECTION('',(0.E0,0.E0,-1.E0));
#1627=AXIS2_PLACEMENT_3D('',#1624,#1625,#1626);
#1628=CYLINDRICAL_SURFACE('',#1627,6.E-1);
#1629=ORIENTED_EDGE('',*,*,#1467,.T.);
#1630=ORIENTED_EDGE('',*,*,#1506,.F.);
#1631=ORIENTED_EDGE('',*,*,#1593,.T.);
#1632=ORIENTED_EDGE('',*,*,#1063,.T.);
#1633=EDGE_LOOP('',(#1629,#1630,#1631,#1632));
#1634=FACE_OUTER_BOUND('',#1633,.F.);
#1635=ADVANCED_FACE('',(#1634),#1628,.T.);
#1636=CARTESIAN_POINT('',(1.8E1,2.9E1,-7.392000090289E1));
#1637=DIRECTION('',(0.E0,0.E0,1.E0));
#1638=DIRECTION('',(1.E0,0.E0,0.E0));
#1639=AXIS2_PLACEMENT_3D('',#1636,#1637,#1638);
#1640=CYLINDRICAL_SURFACE('',#1639,2.3E0);
#1641=ORIENTED_EDGE('',*,*,#1125,.T.);
#1642=ORIENTED_EDGE('',*,*,#1439,.T.);
#1643=ORIENTED_EDGE('',*,*,#1057,.F.);
#1645=ORIENTED_EDGE('',*,*,#1644,.F.);
#1646=EDGE_LOOP('',(#1641,#1642,#1643,#1645));
#1647=FACE_OUTER_BOUND('',#1646,.F.);
#1648=ADVANCED_FACE('',(#1647),#1640,.T.);
#1649=CARTESIAN_POINT('',(2.03E1,2.2E1,-7.392000090289E1));
#1650=DIRECTION('',(1.E0,0.E0,0.E0));
#1651=DIRECTION('',(0.E0,1.E0,0.E0));
#1652=AXIS2_PLACEMENT_3D('',#1649,#1650,#1651);
#1653=PLANE('',#1652);
#1654=ORIENTED_EDGE('',*,*,#1127,.T.);
#1655=ORIENTED_EDGE('',*,*,#1644,.T.);
#1656=ORIENTED_EDGE('',*,*,#1055,.F.);
#1658=ORIENTED_EDGE('',*,*,#1657,.F.);
#1659=EDGE_LOOP('',(#1654,#1655,#1656,#1658));
#1660=FACE_OUTER_BOUND('',#1659,.F.);
#1661=ADVANCED_FACE('',(#1660),#1653,.T.);
#1662=CARTESIAN_POINT('',(1.8E1,2.2E1,-7.392000090289E1));
#1663=DIRECTION('',(0.E0,0.E0,1.E0));
#1664=DIRECTION('',(1.E0,0.E0,0.E0));
#1665=AXIS2_PLACEMENT_3D('',#1662,#1663,#1664);
#1666=CYLINDRICAL_SURFACE('',#1665,2.3E0);
#1667=ORIENTED_EDGE('',*,*,#1095,.T.);
#1668=ORIENTED_EDGE('',*,*,#1129,.T.);
#1669=ORIENTED_EDGE('',*,*,#1657,.T.);
#1670=ORIENTED_EDGE('',*,*,#1053,.F.);
#1671=EDGE_LOOP('',(#1667,#1668,#1669,#1670));
#1672=FACE_OUTER_BOUND('',#1671,.F.);
#1673=ADVANCED_FACE('',(#1672),#1666,.T.);
#1677=DIMENSIONAL_EXPONENTS(0.E0,0.E0,0.E0,0.E0,0.E0,0.E0,0.E0);
#1679=PLANE_ANGLE_MEASURE_WITH_UNIT(PLANE_ANGLE_MEASURE(1.745329251994E-2),
#1678);
#1680=(CONVERSION_BASED_UNIT('DEGREE',#1679)NAMED_UNIT(*)PLANE_ANGLE_UNIT());
#1682=UNCERTAINTY_MEASURE_WITH_UNIT(LENGTH_MEASURE(1.494095513537E-3),#1676,
'closure',
'Maximum model space distance between geometric entities at asserted connectivities');
#1683=(GEOMETRIC_REPRESENTATION_CONTEXT(3)GLOBAL_UNCERTAINTY_ASSIGNED_CONTEXT((
#1682))GLOBAL_UNIT_ASSIGNED_CONTEXT((#1676,#1680,#1681))REPRESENTATION_CONTEXT(
'ID1','3'));
#1685=APPLICATION_CONTEXT(
'CONFIGURATION CONTROLLED 3D DESIGNS OF MECHANICAL PARTS AND ASSEMBLIES');
#1686=APPLICATION_PROTOCOL_DEFINITION('international standard',
'config_control_design',1994,#1685);
#1687=DESIGN_CONTEXT('',#1685,'design');
#1688=MECHANICAL_CONTEXT('',#1685,'mechanical');
#1689=PRODUCT('CDTP','CDTP','NOT SPECIFIED',(#1688));
#1690=PRODUCT_DEFINITION_FORMATION_WITH_SPECIFIED_SOURCE('3','LAST_VERSION',
#1689,.MADE.);
#1694=PRODUCT_CATEGORY('part','');
#1695=PRODUCT_RELATED_PRODUCT_CATEGORY('detail','',(#1689));
#1696=PRODUCT_CATEGORY_RELATIONSHIP('','',#1694,#1695);
#1697=SECURITY_CLASSIFICATION_LEVEL('unclassified');
#1698=SECURITY_CLASSIFICATION('','',#1697);
#1699=CC_DESIGN_SECURITY_CLASSIFICATION(#1698,(#1690));
#1700=APPROVAL_STATUS('approved');
#1701=APPROVAL(#1700,'');
#1702=CC_DESIGN_APPROVAL(#1701,(#1698,#1690,#1691));
#1703=CALENDAR_DATE(122,8,10);
#1704=COORDINATED_UNIVERSAL_TIME_OFFSET(8,0,.AHEAD.);
#1705=LOCAL_TIME(12,2,1.8E1,#1704);
#1706=DATE_AND_TIME(#1703,#1705);
#1707=APPROVAL_DATE_TIME(#1706,#1701);
#1708=DATE_TIME_ROLE('creation_date');
#1709=CC_DESIGN_DATE_AND_TIME_ASSIGNMENT(#1706,#1708,(#1691));
#1710=DATE_TIME_ROLE('classification_date');
#1711=CC_DESIGN_DATE_AND_TIME_ASSIGNMENT(#1706,#1710,(#1698));
#1712=PERSON('UNSPECIFIED','UNSPECIFIED',$,$,$,$);
#1713=ORGANIZATION('UNSPECIFIED','UNSPECIFIED','UNSPECIFIED');
#1714=PERSON_AND_ORGANIZATION(#1712,#1713);
#1715=APPROVAL_ROLE('approver');
#1716=APPROVAL_PERSON_ORGANIZATION(#1714,#1701,#1715);
#1717=PERSON_AND_ORGANIZATION_ROLE('creator');
#1718=CC_DESIGN_PERSON_AND_ORGANIZATION_ASSIGNMENT(#1714,#1717,(#1690,#1691));
#1719=PERSON_AND_ORGANIZATION_ROLE('design_supplier');
#1720=CC_DESIGN_PERSON_AND_ORGANIZATION_ASSIGNMENT(#1714,#1719,(#1690));
#1721=PERSON_AND_ORGANIZATION_ROLE('classification_officer');
#1722=CC_DESIGN_PERSON_AND_ORGANIZATION_ASSIGNMENT(#1714,#1721,(#1698));
#1723=PERSON_AND_ORGANIZATION_ROLE('design_owner');
#1724=CC_DESIGN_PERSON_AND_ORGANIZATION_ASSIGNMENT(#1714,#1723,(#1689));
#6=CIRCLE('',#5,9.E-1);
#15=CIRCLE('',#14,9.E-1);
#24=CIRCLE('',#23,9.E-1);
#33=CIRCLE('',#32,9.E-1);
#42=CIRCLE('',#41,6.E-1);
#47=CIRCLE('',#46,6.E-1);
#52=CIRCLE('',#51,6.E-1);
#57=CIRCLE('',#56,6.E-1);
#62=CIRCLE('',#61,6.E-1);
#67=CIRCLE('',#66,6.E-1);
#72=CIRCLE('',#71,6.E-1);
#77=CIRCLE('',#76,6.E-1);
#98=CIRCLE('',#97,1.5E0);
#103=CIRCLE('',#102,1.5E0);
#124=CIRCLE('',#123,1.5E0);
#129=CIRCLE('',#128,1.5E0);
#150=CIRCLE('',#149,1.5E0);
#155=CIRCLE('',#154,1.5E0);
#176=CIRCLE('',#175,1.5E0);
#181=CIRCLE('',#180,1.5E0);
#190=CIRCLE('',#189,2.3E0);
#199=CIRCLE('',#198,2.3E0);
#216=CIRCLE('',#215,2.3E0);
#225=CIRCLE('',#224,2.3E0);
#234=CIRCLE('',#233,1.2E0);
#243=CIRCLE('',#242,1.2E0);
#252=CIRCLE('',#251,1.2E0);
#261=CIRCLE('',#260,1.2E0);
#270=CIRCLE('',#269,2.3E0);
#279=CIRCLE('',#278,2.3E0);
#304=CIRCLE('',#303,2.3E0);
#313=CIRCLE('',#312,2.3E0);
#330=CIRCLE('',#329,3.E-1);
#339=CIRCLE('',#338,9.E-1);
#348=CIRCLE('',#347,9.E-1);
#357=CIRCLE('',#356,9.E-1);
#366=CIRCLE('',#365,9.E-1);
#371=CIRCLE('',#370,3.E-1);
#376=CIRCLE('',#375,1.2E0);
#393=CIRCLE('',#392,3.E-1);
#398=CIRCLE('',#397,3.E-1);
#403=CIRCLE('',#402,3.E-1);
#420=CIRCLE('',#419,1.2E0);
#425=CIRCLE('',#424,1.2E0);
#430=CIRCLE('',#429,3.E-1);
#435=CIRCLE('',#434,3.E-1);
#452=CIRCLE('',#451,1.2E0);
#457=CIRCLE('',#456,3.E-1);
#498=CIRCLE('',#497,6.E-1);
#507=CIRCLE('',#506,1.E0);
#512=CIRCLE('',#511,1.E0);
#517=CIRCLE('',#516,1.E0);
#522=CIRCLE('',#521,1.E0);
#539=CIRCLE('',#538,1.E0);
#544=CIRCLE('',#543,1.E0);
#549=CIRCLE('',#548,1.E0);
#562=CIRCLE('',#561,1.E0);
#571=CIRCLE('',#570,3.E-1);
#576=CIRCLE('',#575,3.E-1);
#593=CIRCLE('',#592,6.E-1);
#803=EDGE_CURVE('',#720,#721,#6,.T.);
#805=EDGE_CURVE('',#739,#720,#10,.T.);
#807=EDGE_CURVE('',#733,#739,#15,.T.);
#809=EDGE_CURVE('',#732,#733,#19,.T.);
#811=EDGE_CURVE('',#787,#732,#24,.T.);
#813=EDGE_CURVE('',#783,#787,#28,.T.);
#815=EDGE_CURVE('',#727,#783,#33,.T.);
#817=EDGE_CURVE('',#721,#727,#37,.T.);
#828=EDGE_CURVE('',#721,#725,#47,.T.);
#830=EDGE_CURVE('',#724,#725,#98,.T.);
#832=EDGE_CURVE('',#720,#724,#42,.T.);
#843=EDGE_CURVE('',#727,#729,#52,.T.);
#845=EDGE_CURVE('',#725,#729,#107,.T.);
#857=EDGE_CURVE('',#783,#785,#57,.T.);
#859=EDGE_CURVE('',#729,#785,#124,.T.);
#871=EDGE_CURVE('',#787,#789,#62,.T.);
#873=EDGE_CURVE('',#785,#789,#133,.T.);
#884=EDGE_CURVE('',#732,#736,#67,.T.);
#886=EDGE_CURVE('',#789,#736,#150,.T.);
#899=EDGE_CURVE('',#733,#737,#72,.T.);
#901=EDGE_CURVE('',#736,#737,#159,.T.);
#913=EDGE_CURVE('',#739,#741,#77,.T.);
#915=EDGE_CURVE('',#737,#741,#176,.T.);
#928=EDGE_CURVE('',#741,#724,#81,.T.);
#940=EDGE_CURVE('',#724,#661,#85,.T.);
#942=EDGE_CURVE('',#660,#661,#89,.T.);
#944=EDGE_CURVE('',#741,#660,#93,.T.);
#955=EDGE_CURVE('',#725,#652,#119,.T.);
#957=EDGE_CURVE('',#652,#661,#103,.T.);
#969=EDGE_CURVE('',#729,#653,#111,.T.);
#971=EDGE_CURVE('',#652,#653,#115,.T.);
#983=EDGE_CURVE('',#785,#772,#145,.T.);
#985=EDGE_CURVE('',#772,#653,#129,.T.);
#997=EDGE_CURVE('',#789,#773,#137,.T.);
#999=EDGE_CURVE('',#772,#773,#141,.T.);
#1011=EDGE_CURVE('',#736,#656,#171,.T.);
#1013=EDGE_CURVE('',#656,#773,#155,.T.);
#1025=EDGE_CURVE('',#737,#657,#163,.T.);
#1027=EDGE_CURVE('',#656,#657,#167,.T.);
#1040=EDGE_CURVE('',#660,#657,#181,.T.);
#1051=EDGE_CURVE('',#796,#797,#185,.T.);
#1053=EDGE_CURVE('',#797,#769,#190,.T.);
#1055=EDGE_CURVE('',#769,#648,#194,.T.);
#1057=EDGE_CURVE('',#648,#649,#199,.T.);
#1059=EDGE_CURVE('',#649,#664,#203,.T.);
#1061=EDGE_CURVE('',#712,#664,#502,.T.);
#1063=EDGE_CURVE('',#717,#712,#207,.T.);
#1065=EDGE_CURVE('',#668,#717,#588,.T.);
#1067=EDGE_CURVE('',#668,#644,#211,.T.);
#1069=EDGE_CURVE('',#644,#645,#216,.T.);
#1071=EDGE_CURVE('',#645,#767,#220,.T.);
#1073=EDGE_CURVE('',#767,#796,#225,.T.);
#1093=EDGE_CURVE('',#792,#793,#265,.T.);
#1095=EDGE_CURVE('',#797,#792,#621,.T.);
#1098=EDGE_CURVE('',#796,#793,#461,.T.);
#1109=EDGE_CURVE('',#763,#793,#270,.T.);
#1111=EDGE_CURVE('',#637,#763,#274,.T.);
#1113=EDGE_CURVE('',#636,#637,#279,.T.);
#1115=EDGE_CURVE('',#669,#636,#283,.T.);
#1117=EDGE_CURVE('',#669,#685,#287,.T.);
#1119=EDGE_CURVE('',#684,#685,#291,.T.);
#1121=EDGE_CURVE('',#684,#665,#295,.T.);
#1123=EDGE_CURVE('',#641,#665,#299,.T.);
#1125=EDGE_CURVE('',#640,#641,#304,.T.);
#1127=EDGE_CURVE('',#765,#640,#308,.T.);
#1129=EDGE_CURVE('',#792,#765,#313,.T.);
#1133=EDGE_CURVE('',#624,#625,#229,.T.);
#1135=EDGE_CURVE('',#624,#633,#234,.T.);
#1137=EDGE_CURVE('',#632,#633,#238,.T.);
#1139=EDGE_CURVE('',#632,#629,#243,.T.);
#1141=EDGE_CURVE('',#628,#629,#247,.T.);
#1143=EDGE_CURVE('',#628,#761,#252,.T.);
#1145=EDGE_CURVE('',#760,#761,#256,.T.);
#1147=EDGE_CURVE('',#760,#625,#261,.T.);
#1157=EDGE_CURVE('',#692,#693,#317,.T.);
#1159=EDGE_CURVE('',#692,#624,#321,.T.);
#1162=EDGE_CURVE('',#693,#625,#325,.T.);
#1172=EDGE_CURVE('',#688,#689,#334,.T.);
#1174=EDGE_CURVE('',#688,#692,#330,.T.);
#1177=EDGE_CURVE('',#689,#693,#371,.T.);
#1188=EDGE_CURVE('',#689,#775,#339,.T.);
#1190=EDGE_CURVE('',#775,#779,#343,.T.);
#1192=EDGE_CURVE('',#779,#696,#348,.T.);
#1194=EDGE_CURVE('',#696,#697,#352,.T.);
#1196=EDGE_CURVE('',#697,#703,#357,.T.);
#1198=EDGE_CURVE('',#703,#707,#361,.T.);
#1200=EDGE_CURVE('',#707,#688,#366,.T.);
#1212=EDGE_CURVE('',#693,#777,#376,.T.);
#1214=EDGE_CURVE('',#775,#777,#393,.T.);
#1227=EDGE_CURVE('',#777,#760,#384,.T.);
#1237=EDGE_CURVE('',#777,#781,#380,.T.);
#1241=EDGE_CURVE('',#781,#761,#388,.T.);
#1254=EDGE_CURVE('',#779,#781,#398,.T.);
#1264=EDGE_CURVE('',#696,#700,#403,.T.);
#1268=EDGE_CURVE('',#781,#700,#420,.T.);
#1280=EDGE_CURVE('',#700,#701,#407,.T.);
#1282=EDGE_CURVE('',#697,#701,#430,.T.);
#1293=EDGE_CURVE('',#700,#628,#411,.T.);
#1296=EDGE_CURVE('',#701,#629,#415,.T.);
#1318=EDGE_CURVE('',#701,#705,#425,.T.);
#1322=EDGE_CURVE('',#705,#632,#443,.T.);
#1335=EDGE_CURVE('',#703,#705,#435,.T.);
#1347=EDGE_CURVE('',#705,#709,#439,.T.);
#1349=EDGE_CURVE('',#707,#709,#457,.T.);
#1362=EDGE_CURVE('',#709,#633,#447,.T.);
#1372=EDGE_CURVE('',#709,#692,#452,.T.);
#1399=EDGE_CURVE('',#763,#767,#465,.T.);
#1413=EDGE_CURVE('',#637,#645,#469,.T.);
#1426=EDGE_CURVE('',#636,#644,#473,.T.);
#1436=EDGE_CURVE('',#664,#665,#477,.T.);
#1439=EDGE_CURVE('',#641,#649,#481,.T.);
#1450=EDGE_CURVE('',#668,#669,#485,.T.);
#1463=EDGE_CURVE('',#747,#745,#489,.T.);
#1465=EDGE_CURVE('',#713,#745,#493,.T.);
#1467=EDGE_CURVE('',#712,#713,#498,.T.);
#1472=EDGE_CURVE('',#680,#684,#571,.T.);
#1474=EDGE_CURVE('',#680,#747,#553,.T.);
#1484=EDGE_CURVE('',#744,#745,#517,.T.);
#1487=EDGE_CURVE('',#747,#749,#549,.T.);
#1489=EDGE_CURVE('',#749,#744,#597,.T.);
#1500=EDGE_CURVE('',#757,#744,#609,.T.);
#1502=EDGE_CURVE('',#755,#757,#522,.T.);
#1504=EDGE_CURVE('',#715,#755,#526,.T.);
#1506=EDGE_CURVE('',#715,#713,#530,.T.);
#1511=EDGE_CURVE('',#676,#677,#507,.T.);
#1513=EDGE_CURVE('',#677,#676,#512,.T.);
#1523=EDGE_CURVE('',#672,#673,#539,.T.);
#1525=EDGE_CURVE('',#673,#677,#566,.T.);
#1528=EDGE_CURVE('',#672,#676,#534,.T.);
#1540=EDGE_CURVE('',#680,#681,#557,.T.);
#1542=EDGE_CURVE('',#681,#753,#584,.T.);
#1544=EDGE_CURVE('',#752,#753,#562,.T.);
#1546=EDGE_CURVE('',#749,#752,#601,.T.);
#1551=EDGE_CURVE('',#673,#672,#544,.T.);
#1576=EDGE_CURVE('',#685,#681,#576,.T.);
#1586=EDGE_CURVE('',#755,#753,#580,.T.);
#1593=EDGE_CURVE('',#715,#717,#593,.T.);
#1607=EDGE_CURVE('',#757,#752,#605,.T.);
#1644=EDGE_CURVE('',#640,#648,#613,.T.);
#1657=EDGE_CURVE('',#765,#769,#617,.T.);
#1674=CLOSED_SHELL('',(#821,#836,#850,#864,#878,#892,#906,#920,#933,#948,#962,
#976,#990,#1004,#1018,#1032,#1045,#1087,#1102,#1151,#1166,#1181,#1204,#1218,
#1231,#1245,#1258,#1272,#1286,#1300,#1312,#1326,#1339,#1353,#1366,#1379,#1391,
#1404,#1417,#1430,#1444,#1457,#1478,#1493,#1517,#1532,#1555,#1567,#1580,#1598,
#1611,#1623,#1635,#1648,#1661,#1673));
#1675=MANIFOLD_SOLID_BREP('',#1674);
#1676=(LENGTH_UNIT()NAMED_UNIT(*)SI_UNIT(.MILLI.,.METRE.));
#1678=(NAMED_UNIT(*)PLANE_ANGLE_UNIT()SI_UNIT($,.RADIAN.));
#1681=(NAMED_UNIT(*)SI_UNIT($,.STERADIAN.)SOLID_ANGLE_UNIT());
#1684=ADVANCED_BREP_SHAPE_REPRESENTATION('',(#1675),#1683);
#1691=PRODUCT_DEFINITION('design','',#1690,#1687);
#1692=PRODUCT_DEFINITION_SHAPE('','SHAPE FOR CDTP.',#1691);
#1693=SHAPE_DEFINITION_REPRESENTATION(#1692,#1684);
ENDSEC;
END-ISO-10303-21;
