ISO-10303-21;
HEADER;
/* Generated by software containing ST-Developer
 * from STEP Tools, Inc. (www.steptools.com) 
 */
/* OPTION: using custom schema-name function */

FILE_DESCRIPTION(
/* description */ (''),
/* implementation_level */ '2;1');

FILE_NAME(
/* name */ 'led1.stp',
/* time_stamp */ '2024-09-11T14:19:17+08:00',
/* author */ (''),
/* organization */ (''),
/* preprocessor_version */ 'ST-DEVELOPER v14',
/* originating_system */ 'SIEMENS PLM Software NX 8.0',
/* authorisation */ '');

FILE_SCHEMA (('CONFIG_CONTROL_DESIGN'));
ENDSEC;

DATA;
#10=SHAPE_REPRESENTATION_RELATIONSHIP('None',
'relationship between _model36-None and _model36-None',#92,#11);
#11=ADVANCED_BREP_SHAPE_REPRESENTATION('_model36-None',(#93),#389);
#12=CC_DESIGN_APPROVAL(#24,(#82));
#13=CC_DESIGN_APPROVAL(#25,(#84));
#14=CC_DESIGN_APPROVAL(#26,(#31));
#15=APPROVAL_PERSON_ORGANIZATION(#69,#24,#18);
#16=APPROVAL_PERSON_ORGANIZATION(#70,#25,#19);
#17=APPROVAL_PERSON_ORGANIZATION(#71,#26,#20);
#18=APPROVAL_ROLE('approver');
#19=APPROVAL_ROLE('approver');
#20=APPROVAL_ROLE('approver');
#21=APPROVAL_DATE_TIME(#39,#24);
#22=APPROVAL_DATE_TIME(#40,#25);
#23=APPROVAL_DATE_TIME(#41,#26);
#24=APPROVAL(#27,' ');
#25=APPROVAL(#28,' ');
#26=APPROVAL(#29,' ');
#27=APPROVAL_STATUS('not_yet_approved');
#28=APPROVAL_STATUS('not_yet_approved');
#29=APPROVAL_STATUS('not_yet_approved');
#30=CC_DESIGN_SECURITY_CLASSIFICATION(#31,(#84));
#31=SECURITY_CLASSIFICATION(' ',' ',#32);
#32=SECURITY_CLASSIFICATION_LEVEL('confidential');
#33=CC_DESIGN_DATE_AND_TIME_ASSIGNMENT(#37,#35,(#82));
#34=CC_DESIGN_DATE_AND_TIME_ASSIGNMENT(#38,#36,(#31));
#35=DATE_TIME_ROLE('creation_date');
#36=DATE_TIME_ROLE('classification_date');
#37=DATE_AND_TIME(#52,#42);
#38=DATE_AND_TIME(#53,#43);
#39=DATE_AND_TIME(#54,#44);
#40=DATE_AND_TIME(#55,#45);
#41=DATE_AND_TIME(#56,#46);
#42=LOCAL_TIME(0,0,0.,#47);
#43=LOCAL_TIME(0,0,0.,#48);
#44=LOCAL_TIME(0,0,0.,#49);
#45=LOCAL_TIME(0,0,0.,#50);
#46=LOCAL_TIME(0,0,0.,#51);
#47=COORDINATED_UNIVERSAL_TIME_OFFSET(0,0,.BEHIND.);
#48=COORDINATED_UNIVERSAL_TIME_OFFSET(0,0,.BEHIND.);
#49=COORDINATED_UNIVERSAL_TIME_OFFSET(0,0,.BEHIND.);
#50=COORDINATED_UNIVERSAL_TIME_OFFSET(0,0,.BEHIND.);
#51=COORDINATED_UNIVERSAL_TIME_OFFSET(0,0,.BEHIND.);
#52=CALENDAR_DATE(0,1,1);
#53=CALENDAR_DATE(0,1,1);
#54=CALENDAR_DATE(0,1,1);
#55=CALENDAR_DATE(0,1,1);
#56=CALENDAR_DATE(0,1,1);
#57=CC_DESIGN_PERSON_AND_ORGANIZATION_ASSIGNMENT(#65,#61,(#82,#84));
#58=CC_DESIGN_PERSON_AND_ORGANIZATION_ASSIGNMENT(#66,#62,(#86));
#59=CC_DESIGN_PERSON_AND_ORGANIZATION_ASSIGNMENT(#67,#63,(#84));
#60=CC_DESIGN_PERSON_AND_ORGANIZATION_ASSIGNMENT(#68,#64,(#31));
#61=PERSON_AND_ORGANIZATION_ROLE('creator');
#62=PERSON_AND_ORGANIZATION_ROLE('design_owner');
#63=PERSON_AND_ORGANIZATION_ROLE('design_supplier');
#64=PERSON_AND_ORGANIZATION_ROLE('classification_officer');
#65=PERSON_AND_ORGANIZATION(#79,#72);
#66=PERSON_AND_ORGANIZATION(#79,#73);
#67=PERSON_AND_ORGANIZATION(#79,#74);
#68=PERSON_AND_ORGANIZATION(#79,#75);
#69=PERSON_AND_ORGANIZATION(#79,#76);
#70=PERSON_AND_ORGANIZATION(#79,#77);
#71=PERSON_AND_ORGANIZATION(#79,#78);
#72=ORGANIZATION(' ',' ',' ');
#73=ORGANIZATION(' ',' ',' ');
#74=ORGANIZATION(' ',' ',' ');
#75=ORGANIZATION(' ',' ',' ');
#76=ORGANIZATION(' ',' ',' ');
#77=ORGANIZATION(' ',' ',' ');
#78=ORGANIZATION(' ',' ',' ');
#79=PERSON(' ',' ',' ',(' '),$,$);
#80=SHAPE_DEFINITION_REPRESENTATION(#81,#92);
#81=PRODUCT_DEFINITION_SHAPE('','',#82);
#82=PRODUCT_DEFINITION(' ','',#84,#83);
#83=DESIGN_CONTEXT('',#91,'design');
#84=PRODUCT_DEFINITION_FORMATION_WITH_SPECIFIED_SOURCE(' ',' ',#86,
 .NOT_KNOWN.);
#85=PRODUCT_RELATED_PRODUCT_CATEGORY('detail','',(#86));
#86=PRODUCT('_model36','_model36',' ',(#89));
#87=PRODUCT_CATEGORY('part',' ');
#88=PRODUCT_CATEGORY(' ','');
#89=MECHANICAL_CONTEXT(' ',#91,'mechanical');
#90=APPLICATION_PROTOCOL_DEFINITION('international standard',
'config_control_design',2010,#91);
#91=APPLICATION_CONTEXT(
'configuration controlled 3D designs of mechanical parts and assemblies');
#92=SHAPE_REPRESENTATION('_model36-None',(#277),#389);
#93=MANIFOLD_SOLID_BREP('',#94);
#94=CLOSED_SHELL('',(#97,#98,#99,#100,#101,#102,#103,#104,#105,#106,#107));
#95=FACE_BOUND('',#133,.T.);
#96=FACE_BOUND('',#134,.T.);
#97=ADVANCED_FACE('',(#119),#108,.F.);
#98=ADVANCED_FACE('',(#120),#109,.F.);
#99=ADVANCED_FACE('',(#121),#110,.F.);
#100=ADVANCED_FACE('',(#122),#111,.F.);
#101=ADVANCED_FACE('',(#95,#96),#112,.T.);
#102=ADVANCED_FACE('',(#123),#113,.F.);
#103=ADVANCED_FACE('',(#124),#114,.T.);
#104=ADVANCED_FACE('',(#125),#115,.F.);
#105=ADVANCED_FACE('',(#126),#116,.F.);
#106=ADVANCED_FACE('',(#127),#117,.F.);
#107=ADVANCED_FACE('',(#128),#118,.F.);
#108=PLANE('',#278);
#109=PLANE('',#279);
#110=PLANE('',#280);
#111=PLANE('',#281);
#112=PLANE('',#282);
#113=PLANE('',#283);
#114=PLANE('',#284);
#115=PLANE('',#285);
#116=PLANE('',#286);
#117=PLANE('',#287);
#118=PLANE('',#288);
#119=FACE_OUTER_BOUND('',#129,.T.);
#120=FACE_OUTER_BOUND('',#130,.T.);
#121=FACE_OUTER_BOUND('',#131,.T.);
#122=FACE_OUTER_BOUND('',#132,.T.);
#123=FACE_OUTER_BOUND('',#135,.T.);
#124=FACE_OUTER_BOUND('',#136,.T.);
#125=FACE_OUTER_BOUND('',#137,.T.);
#126=FACE_OUTER_BOUND('',#138,.T.);
#127=FACE_OUTER_BOUND('',#139,.T.);
#128=FACE_OUTER_BOUND('',#140,.T.);
#129=EDGE_LOOP('',(#141,#142,#143,#144));
#130=EDGE_LOOP('',(#145,#146,#147,#148));
#131=EDGE_LOOP('',(#149,#150,#151,#152));
#132=EDGE_LOOP('',(#153,#154,#155,#156));
#133=EDGE_LOOP('',(#157,#158,#159,#160));
#134=EDGE_LOOP('',(#161,#162,#163,#164));
#135=EDGE_LOOP('',(#165,#166,#167,#168));
#136=EDGE_LOOP('',(#169,#170,#171,#172));
#137=EDGE_LOOP('',(#173,#174,#175,#176));
#138=EDGE_LOOP('',(#177,#178,#179,#180));
#139=EDGE_LOOP('',(#181,#182,#183,#184));
#140=EDGE_LOOP('',(#185,#186,#187,#188));
#141=ORIENTED_EDGE('',*,*,#205,.T.);
#142=ORIENTED_EDGE('',*,*,#206,.F.);
#143=ORIENTED_EDGE('',*,*,#207,.F.);
#144=ORIENTED_EDGE('',*,*,#208,.T.);
#145=ORIENTED_EDGE('',*,*,#209,.T.);
#146=ORIENTED_EDGE('',*,*,#210,.F.);
#147=ORIENTED_EDGE('',*,*,#211,.F.);
#148=ORIENTED_EDGE('',*,*,#206,.T.);
#149=ORIENTED_EDGE('',*,*,#212,.T.);
#150=ORIENTED_EDGE('',*,*,#213,.F.);
#151=ORIENTED_EDGE('',*,*,#214,.F.);
#152=ORIENTED_EDGE('',*,*,#210,.T.);
#153=ORIENTED_EDGE('',*,*,#215,.T.);
#154=ORIENTED_EDGE('',*,*,#208,.F.);
#155=ORIENTED_EDGE('',*,*,#216,.F.);
#156=ORIENTED_EDGE('',*,*,#213,.T.);
#157=ORIENTED_EDGE('',*,*,#217,.F.);
#158=ORIENTED_EDGE('',*,*,#218,.F.);
#159=ORIENTED_EDGE('',*,*,#219,.F.);
#160=ORIENTED_EDGE('',*,*,#220,.F.);
#161=ORIENTED_EDGE('',*,*,#207,.T.);
#162=ORIENTED_EDGE('',*,*,#211,.T.);
#163=ORIENTED_EDGE('',*,*,#214,.T.);
#164=ORIENTED_EDGE('',*,*,#216,.T.);
#165=ORIENTED_EDGE('',*,*,#205,.F.);
#166=ORIENTED_EDGE('',*,*,#215,.F.);
#167=ORIENTED_EDGE('',*,*,#212,.F.);
#168=ORIENTED_EDGE('',*,*,#209,.F.);
#169=ORIENTED_EDGE('',*,*,#221,.T.);
#170=ORIENTED_EDGE('',*,*,#222,.T.);
#171=ORIENTED_EDGE('',*,*,#223,.T.);
#172=ORIENTED_EDGE('',*,*,#224,.T.);
#173=ORIENTED_EDGE('',*,*,#225,.F.);
#174=ORIENTED_EDGE('',*,*,#224,.F.);
#175=ORIENTED_EDGE('',*,*,#226,.F.);
#176=ORIENTED_EDGE('',*,*,#217,.T.);
#177=ORIENTED_EDGE('',*,*,#226,.T.);
#178=ORIENTED_EDGE('',*,*,#223,.F.);
#179=ORIENTED_EDGE('',*,*,#227,.F.);
#180=ORIENTED_EDGE('',*,*,#218,.T.);
#181=ORIENTED_EDGE('',*,*,#225,.T.);
#182=ORIENTED_EDGE('',*,*,#220,.T.);
#183=ORIENTED_EDGE('',*,*,#228,.F.);
#184=ORIENTED_EDGE('',*,*,#221,.F.);
#185=ORIENTED_EDGE('',*,*,#227,.T.);
#186=ORIENTED_EDGE('',*,*,#222,.F.);
#187=ORIENTED_EDGE('',*,*,#228,.T.);
#188=ORIENTED_EDGE('',*,*,#219,.T.);
#189=VERTEX_POINT('',#339);
#190=VERTEX_POINT('',#340);
#191=VERTEX_POINT('',#342);
#192=VERTEX_POINT('',#344);
#193=VERTEX_POINT('',#348);
#194=VERTEX_POINT('',#350);
#195=VERTEX_POINT('',#354);
#196=VERTEX_POINT('',#356);
#197=VERTEX_POINT('',#363);
#198=VERTEX_POINT('',#364);
#199=VERTEX_POINT('',#366);
#200=VERTEX_POINT('',#368);
#201=VERTEX_POINT('',#373);
#202=VERTEX_POINT('',#374);
#203=VERTEX_POINT('',#376);
#204=VERTEX_POINT('',#378);
#205=EDGE_CURVE('',#189,#190,#229,.T.);
#206=EDGE_CURVE('',#191,#190,#230,.T.);
#207=EDGE_CURVE('',#192,#191,#231,.T.);
#208=EDGE_CURVE('',#192,#189,#232,.T.);
#209=EDGE_CURVE('',#190,#193,#233,.T.);
#210=EDGE_CURVE('',#194,#193,#234,.T.);
#211=EDGE_CURVE('',#191,#194,#235,.T.);
#212=EDGE_CURVE('',#193,#195,#236,.T.);
#213=EDGE_CURVE('',#196,#195,#237,.T.);
#214=EDGE_CURVE('',#194,#196,#238,.T.);
#215=EDGE_CURVE('',#195,#189,#239,.T.);
#216=EDGE_CURVE('',#196,#192,#240,.T.);
#217=EDGE_CURVE('',#197,#198,#241,.T.);
#218=EDGE_CURVE('',#199,#197,#242,.T.);
#219=EDGE_CURVE('',#200,#199,#243,.T.);
#220=EDGE_CURVE('',#198,#200,#244,.T.);
#221=EDGE_CURVE('',#201,#202,#245,.T.);
#222=EDGE_CURVE('',#202,#203,#246,.T.);
#223=EDGE_CURVE('',#203,#204,#247,.T.);
#224=EDGE_CURVE('',#204,#201,#248,.T.);
#225=EDGE_CURVE('',#201,#198,#249,.T.);
#226=EDGE_CURVE('',#197,#204,#250,.T.);
#227=EDGE_CURVE('',#199,#203,#251,.T.);
#228=EDGE_CURVE('',#202,#200,#252,.T.);
#229=LINE('',#338,#253);
#230=LINE('',#341,#254);
#231=LINE('',#343,#255);
#232=LINE('',#345,#256);
#233=LINE('',#347,#257);
#234=LINE('',#349,#258);
#235=LINE('',#351,#259);
#236=LINE('',#353,#260);
#237=LINE('',#355,#261);
#238=LINE('',#357,#262);
#239=LINE('',#359,#263);
#240=LINE('',#360,#264);
#241=LINE('',#362,#265);
#242=LINE('',#365,#266);
#243=LINE('',#367,#267);
#244=LINE('',#369,#268);
#245=LINE('',#372,#269);
#246=LINE('',#375,#270);
#247=LINE('',#377,#271);
#248=LINE('',#379,#272);
#249=LINE('',#381,#273);
#250=LINE('',#382,#274);
#251=LINE('',#384,#275);
#252=LINE('',#386,#276);
#253=VECTOR('',#291,1.);
#254=VECTOR('',#292,1.);
#255=VECTOR('',#293,1.);
#256=VECTOR('',#294,1.);
#257=VECTOR('',#297,1.);
#258=VECTOR('',#298,1.);
#259=VECTOR('',#299,1.);
#260=VECTOR('',#302,1.);
#261=VECTOR('',#303,1.);
#262=VECTOR('',#304,1.);
#263=VECTOR('',#307,1.);
#264=VECTOR('',#308,1.);
#265=VECTOR('',#311,1.);
#266=VECTOR('',#312,1.);
#267=VECTOR('',#313,1.);
#268=VECTOR('',#314,1.);
#269=VECTOR('',#319,1.);
#270=VECTOR('',#320,1.);
#271=VECTOR('',#321,1.);
#272=VECTOR('',#322,1.);
#273=VECTOR('',#325,1.);
#274=VECTOR('',#326,1.);
#275=VECTOR('',#329,1.);
#276=VECTOR('',#332,1.);
#277=AXIS2_PLACEMENT_3D('',#337,#289,#290);
#278=AXIS2_PLACEMENT_3D('',#346,#295,#296);
#279=AXIS2_PLACEMENT_3D('',#352,#300,#301);
#280=AXIS2_PLACEMENT_3D('',#358,#305,#306);
#281=AXIS2_PLACEMENT_3D('',#361,#309,#310);
#282=AXIS2_PLACEMENT_3D('',#370,#315,#316);
#283=AXIS2_PLACEMENT_3D('',#371,#317,#318);
#284=AXIS2_PLACEMENT_3D('',#380,#323,#324);
#285=AXIS2_PLACEMENT_3D('',#383,#327,#328);
#286=AXIS2_PLACEMENT_3D('',#385,#330,#331);
#287=AXIS2_PLACEMENT_3D('',#387,#333,#334);
#288=AXIS2_PLACEMENT_3D('',#388,#335,#336);
#289=DIRECTION('',(0.,0.,1.));
#290=DIRECTION('',(1.,0.,0.));
#291=DIRECTION('',(2.33146835171283E-015,0.,-1.));
#292=DIRECTION('',(0.,1.,0.));
#293=DIRECTION('',(2.33146835171283E-015,0.,-1.));
#294=DIRECTION('',(0.,1.,0.));
#295=DIRECTION('',(1.,0.,2.38697950294409E-015));
#296=DIRECTION('',(-2.38697950294409E-015,0.,1.));
#297=DIRECTION('',(1.,0.,1.66533453693773E-016));
#298=DIRECTION('',(0.,1.,0.));
#299=DIRECTION('',(1.,0.,1.66533453693773E-016));
#300=DIRECTION('',(-1.66533453693773E-016,0.,1.));
#301=DIRECTION('',(-1.,0.,-2.22044604925031E-016));
#302=DIRECTION('',(-3.27515792264421E-015,0.,1.));
#303=DIRECTION('',(0.,1.,0.));
#304=DIRECTION('',(-3.27515792264421E-015,0.,1.));
#305=DIRECTION('',(-1.,0.,-3.27515792264421E-015));
#306=DIRECTION('',(3.33066907387547E-015,0.,-1.));
#307=DIRECTION('',(-1.,0.,1.16573417585641E-015));
#308=DIRECTION('',(-1.,0.,1.16573417585641E-015));
#309=DIRECTION('',(-1.16573417585641E-015,0.,-1.));
#310=DIRECTION('',(1.,0.,-1.16573417585641E-015));
#311=DIRECTION('',(2.33146835171283E-015,0.,-1.));
#312=DIRECTION('',(-1.,0.,4.32986979603811E-015));
#313=DIRECTION('',(-4.49640324973188E-015,0.,1.));
#314=DIRECTION('',(1.,0.,-1.16573417585641E-015));
#315=DIRECTION('',(0.,-1.,0.));
#316=DIRECTION('',(0.390731128489277,0.,0.920504853452439));
#317=DIRECTION('',(0.,-1.,0.));
#318=DIRECTION('',(0.390731128489277,0.,0.920504853452439));
#319=DIRECTION('',(1.,0.,-1.16573417585641E-015));
#320=DIRECTION('',(-4.49640324973188E-015,0.,1.));
#321=DIRECTION('',(-1.,0.,4.32986979603811E-015));
#322=DIRECTION('',(2.33146835171283E-015,0.,-1.));
#323=DIRECTION('',(0.,-1.,0.));
#324=DIRECTION('',(0.390731128489277,0.,0.920504853452439));
#325=DIRECTION('',(-0.386493975840498,-0.837403614321077,-0.386493975840507));
#326=DIRECTION('',(0.386493975840502,0.837403614321083,-0.38649397584049));
#327=DIRECTION('',(-0.907959384500451,0.419058177461748,-2.99760216648792E-015));
#328=DIRECTION('',(3.1641356201817E-015,-3.72098185597025E-016,-1.));
#329=DIRECTION('',(-0.386493975840505,0.837403614321083,-0.386493975840486));
#330=DIRECTION('',(3.94129173741931E-015,0.419058177461736,0.907959384500457));
#331=DIRECTION('',(-1.,2.32019264911898E-017,4.44089209850063E-015));
#332=DIRECTION('',(0.386493975840504,-0.837403614321074,-0.386493975840507));
#333=DIRECTION('',(-6.66133814775094E-016,0.419058177461756,-0.907959384500447));
#334=DIRECTION('',(1.,-1.86049092798513E-016,-6.66133814775094E-016));
#335=DIRECTION('',(0.907959384500449,0.419058177461752,4.77395900588817E-015));
#336=DIRECTION('',(-5.16253706450698E-015,-2.55871712706579E-016,1.));
#337=CARTESIAN_POINT('',(0.,0.,0.));
#338=CARTESIAN_POINT('',(-1.99000000000008,3.46944695195361E-015,0.999999999999959));
#339=CARTESIAN_POINT('',(-1.99000000000008,3.46944695195361E-015,0.999999999999959));
#340=CARTESIAN_POINT('',(-1.98999999999955,3.46944695195361E-015,-1.00000000000028));
#341=CARTESIAN_POINT('',(-1.98999999999955,-1.7,-1.00000000000028));
#342=CARTESIAN_POINT('',(-1.98999999999955,-1.7,-1.00000000000028));
#343=CARTESIAN_POINT('',(-1.99000000000008,-1.7,0.999999999999959));
#344=CARTESIAN_POINT('',(-1.99000000000008,-1.7,0.999999999999959));
#345=CARTESIAN_POINT('',(-1.99000000000008,-1.7,0.999999999999959));
#346=CARTESIAN_POINT('',(-1.99000000000008,-1.7,0.999999999999959));
#347=CARTESIAN_POINT('',(-1.98999999999955,3.46944695195361E-015,-1.00000000000028));
#348=CARTESIAN_POINT('',(1.98999999999974,3.46944695195361E-015,-0.999999999999834));
#349=CARTESIAN_POINT('',(1.98999999999974,-1.7,-0.999999999999834));
#350=CARTESIAN_POINT('',(1.98999999999974,-1.7,-0.999999999999834));
#351=CARTESIAN_POINT('',(-1.98999999999955,-1.7,-1.00000000000028));
#352=CARTESIAN_POINT('',(-1.98999999999955,-1.7,-1.00000000000028));
#353=CARTESIAN_POINT('',(1.98999999999974,3.46944695195361E-015,-0.999999999999834));
#354=CARTESIAN_POINT('',(1.99000000000005,3.46944695195361E-015,0.999999999999904));
#355=CARTESIAN_POINT('',(1.99000000000005,-1.7,0.999999999999904));
#356=CARTESIAN_POINT('',(1.99000000000005,-1.7,0.999999999999904));
#357=CARTESIAN_POINT('',(1.98999999999974,-1.7,-0.999999999999834));
#358=CARTESIAN_POINT('',(1.98999999999974,-1.7,-0.999999999999834));
#359=CARTESIAN_POINT('',(1.99000000000005,3.46944695195361E-015,0.999999999999904));
#360=CARTESIAN_POINT('',(1.99000000000005,-1.7,0.999999999999904));
#361=CARTESIAN_POINT('',(1.99000000000005,-1.7,0.999999999999904));
#362=CARTESIAN_POINT('',(-1.51,-1.7,0.684999999999936));
#363=CARTESIAN_POINT('',(-1.51,-1.7,0.684999999999936));
#364=CARTESIAN_POINT('',(-1.50999999999978,-1.7,-0.685000000000158));
#365=CARTESIAN_POINT('',(1.3631499999997,-1.7,0.685000000000074));
#366=CARTESIAN_POINT('',(1.51000000000033,-1.7,0.684999999999866));
#367=CARTESIAN_POINT('',(1.51000000000057,-1.7,-0.685000000000227));
#368=CARTESIAN_POINT('',(1.51000000000057,-1.7,-0.685000000000227));
#369=CARTESIAN_POINT('',(-1.36315000000009,-1.7,-0.685000000000047));
#370=CARTESIAN_POINT('',(88.0347064043195,-1.7,-82.6809709874672));
#371=CARTESIAN_POINT('',(88.0347064043195,3.46944695195361E-015,-82.6809709874672));
#372=CARTESIAN_POINT('',(88.0347064043196,-1.0499999999999,-0.385000000000302));
#373=CARTESIAN_POINT('',(-1.20999999999959,-1.0499999999999,-0.38500000000026));
#374=CARTESIAN_POINT('',(1.20999999999979,-1.0499999999999,-0.384999999999969));
#375=CARTESIAN_POINT('',(1.21000000000056,-1.0499999999999,-82.6809709874676));
#376=CARTESIAN_POINT('',(1.21000000000013,-1.0499999999999,0.384999999999969));
#377=CARTESIAN_POINT('',(88.0347064043199,-1.0499999999999,0.384999999999538));
#378=CARTESIAN_POINT('',(-1.21000000000014,-1.0499999999999,0.385000000000107));
#379=CARTESIAN_POINT('',(-1.20999999999959,-1.0499999999999,-82.6809709874674));
#380=CARTESIAN_POINT('',(88.0347064043195,-1.0499999999999,-82.6809709874672));
#381=CARTESIAN_POINT('',(-1.48806390041482,-1.6524717842323,-0.663063900415012));
#382=CARTESIAN_POINT('',(-1.51,-1.7,0.684999999999936));
#383=CARTESIAN_POINT('',(-1.51,-1.7,0.684999999999936));
#384=CARTESIAN_POINT('',(1.30535269709578,-1.25659751037339,0.480352697095315));
#385=CARTESIAN_POINT('',(1.3631499999997,-1.7,0.685000000000074));
#386=CARTESIAN_POINT('',(1.51000000000052,-1.7,-0.685000000000324));
#387=CARTESIAN_POINT('',(-1.36315000000009,-1.7,-0.685000000000047));
#388=CARTESIAN_POINT('',(1.51000000000057,-1.7,-0.685000000000227));
#389=(
GEOMETRIC_REPRESENTATION_CONTEXT(3)
GLOBAL_UNCERTAINTY_ASSIGNED_CONTEXT((#390))
GLOBAL_UNIT_ASSIGNED_CONTEXT((#396,#392,#391))
REPRESENTATION_CONTEXT('led1','TOP_LEVEL_ASSEMBLY_PART')
);
#390=UNCERTAINTY_MEASURE_WITH_UNIT(LENGTH_MEASURE(2.E-005),#396,
'DISTANCE_ACCURACY_VALUE','Maximum Tolerance applied to model');
#391=(
NAMED_UNIT(*)
SI_UNIT($,.STERADIAN.)
SOLID_ANGLE_UNIT()
);
#392=(
CONVERSION_BASED_UNIT('DEGREE',#394)
NAMED_UNIT(#393)
PLANE_ANGLE_UNIT()
);
#393=DIMENSIONAL_EXPONENTS(0.,0.,0.,0.,0.,0.,0.);
#394=PLANE_ANGLE_MEASURE_WITH_UNIT(PLANE_ANGLE_MEASURE(0.0174532925),#395);
#395=(
NAMED_UNIT(*)
PLANE_ANGLE_UNIT()
SI_UNIT($,.RADIAN.)
);
#396=(
LENGTH_UNIT()
NAMED_UNIT(*)
SI_UNIT(.MILLI.,.METRE.)
);
ENDSEC;
END-ISO-10303-21;
