ISO-10303-21;
HEADER;
FILE_DESCRIPTION (( 'STEP AP214' ),
    '1' );
FILE_NAME ('User Library-3528.STEP',
    '2018-09-28T08:35:27',
    ( '' ),
    ( '' ),
    'SwSTEP 2.0',
    'SolidWorks 2018',
    '' );
FILE_SCHEMA (( 'AUTOMOTIVE_DESIGN' ));
ENDSEC;

DATA;
#1 = DIRECTION ( 'NONE',  ( -1.000000000000000000, -0.0000000000000000000, -0.0000000000000000000 ) ) ;
#2 = ADVANCED_FACE ( 'NONE', ( #569 ), #678, .F. ) ;
#3 = VECTOR ( 'NONE', #439, 1000.000000000000000 ) ;
#4 = MECHANICAL_DESIGN_GEOMETRIC_PRESENTATION_REPRESENTATION (  '', ( #52 ), #633 ) ;
#5 = ORIENTED_EDGE ( 'NONE', *, *, #948, .F. ) ;
#6 = ORIENTED_EDGE ( 'NONE', *, *, #908, .T. ) ;
#7 = ORIENTED_EDGE ( 'NONE', *, *, #737, .F. ) ;
#8 = CARTESIAN_POINT ( 'NONE',  ( 0.0000000000000000000, -2.274508524084394079, 0.0000000000000000000 ) ) ;
#9 = CARTESIAN_POINT ( 'NONE',  ( 1.200000000000001954, 0.0000000000000000000, -0.7499999999999993339 ) ) ;
#10 =( GEOMETRIC_REPRESENTATION_CONTEXT ( 3 ) GLOBAL_UNCERTAINTY_ASSIGNED_CONTEXT ( ( #37 ) ) GLOBAL_UNIT_ASSIGNED_CONTEXT ( ( #88, #605, #374 ) ) REPRESENTATION_CONTEXT ( 'NONE', 'WORKASPACE' ) );
#11 =( LENGTH_UNIT ( ) NAMED_UNIT ( * ) SI_UNIT ( .MILLI., .METRE. ) );
#12 = AXIS2_PLACEMENT_3D ( 'NONE', #946, #951, #734 ) ;
#13 = DIRECTION ( 'NONE',  ( 1.000000000000000000, 0.0000000000000000000, 0.0000000000000000000 ) ) ;
#14 = VECTOR ( 'NONE', #837, 1000.000000000000000 ) ;
#15 = EDGE_CURVE ( 'NONE', #534, #570, #578, .T. ) ;
#16 = CARTESIAN_POINT ( 'NONE',  ( 1.400000000000001910, 1.500000000000000000, 1.749999999999999334 ) ) ;
#17 = CARTESIAN_POINT ( 'NONE',  ( 0.0000000000000000000, 5.142699677826972682, 0.0000000000000000000 ) ) ;
#18 = EDGE_LOOP ( 'NONE', ( #800, #722, #152, #398 ) ) ;
#19 = PRESENTATION_LAYER_ASSIGNMENT (  '', '', ( #774 ) ) ;
#20 = ORIENTED_EDGE ( 'NONE', *, *, #403, .F. ) ;
#21 = CARTESIAN_POINT ( 'NONE',  ( -1.199999999999998401, -0.0000000000000000000, -1.749999999999999334 ) ) ;
#22 = DIRECTION ( 'NONE',  ( 1.000000000000000000, 0.0000000000000000000, 0.0000000000000000000 ) ) ;
#23 = CARTESIAN_POINT ( 'NONE',  ( 1.400000000000001910, 1.500000000000000000, -1.750000000000000666 ) ) ;
#24 = CARTESIAN_POINT ( 'NONE',  ( 0.0000000000000000000, 1.399999999999999911, 1.287888822008752099 ) ) ;
#25 = LINE ( 'NONE', #242, #14 ) ;
#26 = CARTESIAN_POINT ( 'NONE',  ( 0.0000000000000000000, 1.500000000000000000, -1.287888822008752099 ) ) ;
#27 = DIRECTION ( 'NONE',  ( 0.0000000000000000000, -1.000000000000000000, 0.0000000000000000000 ) ) ;
#28 = VECTOR ( 'NONE', #625, 1000.000000000000000 ) ;
#29 = SURFACE_STYLE_FILL_AREA ( #297 ) ;
#30 = CARTESIAN_POINT ( 'NONE',  ( 1.577208923530673487E-16, 1.500000000000000000, 1.287888822008752099 ) ) ;
#31 = CARTESIAN_POINT ( 'NONE',  ( -1.399999999999998579, 1.500000000000000000, -1.750000000000000666 ) ) ;
#32 = ORIENTED_EDGE ( 'NONE', *, *, #218, .F. ) ;
#33 = ORIENTED_EDGE ( 'NONE', *, *, #893, .T. ) ;
#34 = VERTEX_POINT ( 'NONE', #380 ) ;
#35 = DIRECTION ( 'NONE',  ( 1.000000000000000000, 0.0000000000000000000, -0.0000000000000000000 ) ) ;
#36 = DIRECTION ( 'NONE',  ( 1.000000000000000000, -0.0000000000000000000, -0.0000000000000000000 ) ) ;
#37 = UNCERTAINTY_MEASURE_WITH_UNIT (LENGTH_MEASURE( 1.000000000000000082E-05 ), #88, 'distance_accuracy_value', 'NONE');
#38 = EDGE_CURVE ( 'NONE', #205, #570, #567, .T. ) ;
#39 = VECTOR ( 'NONE', #247, 1000.000000000000000 ) ;
#40 = FACE_OUTER_BOUND ( 'NONE', #150, .T. ) ;
#41 = VECTOR ( 'NONE', #1, 1000.000000000000000 ) ;
#42 = ORIENTED_EDGE ( 'NONE', *, *, #767, .F. ) ;
#43 = ORIENTED_EDGE ( 'NONE', *, *, #887, .F. ) ;
#44 = EDGE_CURVE ( 'NONE', #788, #34, #261, .T. ) ;
#45 = LINE ( 'NONE', #437, #505 ) ;
#46 = CARTESIAN_POINT ( 'NONE',  ( 1.200000000000001954, -0.1500000000000000222, 1.699999999999999512 ) ) ;
#47 = LINE ( 'NONE', #471, #462 ) ;
#48 = LINE ( 'NONE', #744, #783 ) ;
#49 = ORIENTED_EDGE ( 'NONE', *, *, #352, .F. ) ;
#50 = VERTEX_POINT ( 'NONE', #537 ) ;
#51 = DIRECTION ( 'NONE',  ( 0.0000000000000000000, -0.0000000000000000000, -1.000000000000000000 ) ) ;
#52 = STYLED_ITEM ( 'NONE', ( #199 ), #545 ) ;
#53 = UNCERTAINTY_MEASURE_WITH_UNIT (LENGTH_MEASURE( 1.000000000000000082E-05 ), #235, 'distance_accuracy_value', 'NONE');
#54 = PRODUCT_RELATED_PRODUCT_CATEGORY ( 'part', '', ( #939 ) ) ;
#55 = DIRECTION ( 'NONE',  ( -1.000000000000000000, 0.0000000000000000000, -0.0000000000000000000 ) ) ;
#56 = AXIS2_PLACEMENT_3D ( 'NONE', #233, #375, #13 ) ;
#57 = SURFACE_STYLE_FILL_AREA ( #753 ) ;
#58 = SURFACE_STYLE_FILL_AREA ( #812 ) ;
#59 = UNCERTAINTY_MEASURE_WITH_UNIT (LENGTH_MEASURE( 1.000000000000000082E-05 ), #338, 'distance_accuracy_value', 'NONE');
#60 = ADVANCED_FACE ( 'NONE', ( #271 ), #365, .F. ) ;
#61 = VECTOR ( 'NONE', #426, 1000.000000000000000 ) ;
#62 = SURFACE_SIDE_STYLE ('',( #955 ) ) ;
#63 = ORIENTED_EDGE ( 'NONE', *, *, #44, .T. ) ;
#64 = ORIENTED_EDGE ( 'NONE', *, *, #65, .F. ) ;
#65 = EDGE_CURVE ( 'NONE', #75, #424, #546, .T. ) ;
#66 = STYLED_ITEM ( 'NONE', ( #794 ), #663 ) ;
#67 = DIRECTION ( 'NONE',  ( -1.000000000000000000, 0.0000000000000000000, 0.0000000000000000000 ) ) ;
#68 = ADVANCED_FACE ( 'NONE', ( #934 ), #810, .F. ) ;
#69 = VECTOR ( 'NONE', #210, 1000.000000000000000 ) ;
#70 = DIRECTION ( 'NONE',  ( -0.0000000000000000000, 1.000000000000000000, -0.0000000000000000000 ) ) ;
#71 = CYLINDRICAL_SURFACE ( 'NONE', #101, 1.287888822008752099 ) ;
#72 =( GEOMETRIC_REPRESENTATION_CONTEXT ( 3 ) GLOBAL_UNCERTAINTY_ASSIGNED_CONTEXT ( ( #676 ) ) GLOBAL_UNIT_ASSIGNED_CONTEXT ( ( #317, #701, #393 ) ) REPRESENTATION_CONTEXT ( 'NONE', 'WORKASPACE' ) );
#73 = CARTESIAN_POINT ( 'NONE',  ( 1.200000000000001954, 0.0000000000000000000, -1.749999999999999334 ) ) ;
#74 = ORIENTED_EDGE ( 'NONE', *, *, #195, .T. ) ;
#75 = VERTEX_POINT ( 'NONE', #903 ) ;
#76 = DIRECTION ( 'NONE',  ( -0.0000000000000000000, -1.000000000000000000, -0.0000000000000000000 ) ) ;
#77 = DIRECTION ( 'NONE',  ( -1.000000000000000000, 0.0000000000000000000, -0.0000000000000000000 ) ) ;
#78 = ADVANCED_FACE ( 'NONE', ( #402 ), #381, .T. ) ;
#79 = FILL_AREA_STYLE ('',( #143 ) ) ;
#80 = VECTOR ( 'NONE', #326, 1000.000000000000000 ) ;
#81 = FACE_BOUND ( 'NONE', #620, .T. ) ;
#82 = CARTESIAN_POINT ( 'NONE',  ( 0.0000000000000000000, 1.399999999999999911, 0.0000000000000000000 ) ) ;
#83 = CARTESIAN_POINT ( 'NONE',  ( 1.200000000000001954, 0.0000000000000000000, 1.749999999999999334 ) ) ;
#84 = AXIS2_PLACEMENT_3D ( 'NONE', #406, #780, #636 ) ;
#85 = ORIENTED_EDGE ( 'NONE', *, *, #789, .F. ) ;
#86 = CARTESIAN_POINT ( 'NONE',  ( 0.0000000000000000000, 1.399999999999999911, -1.287888822008752099 ) ) ;
#87 = ORIENTED_EDGE ( 'NONE', *, *, #401, .F. ) ;
#88 =( LENGTH_UNIT ( ) NAMED_UNIT ( * ) SI_UNIT ( .MILLI., .METRE. ) );
#89 = SURFACE_SIDE_STYLE ('',( #57 ) ) ;
#90 = DIRECTION ( 'NONE',  ( 0.0000000000000000000, 0.0000000000000000000, -1.000000000000000000 ) ) ;
#91 = DIRECTION ( 'NONE',  ( 0.0000000000000000000, 1.000000000000000000, 0.0000000000000000000 ) ) ;
#92 = SURFACE_STYLE_USAGE ( .BOTH. , #223 ) ;
#93 = FACE_OUTER_BOUND ( 'NONE', #513, .T. ) ;
#94 = SURFACE_STYLE_FILL_AREA ( #721 ) ;
#95 = CARTESIAN_POINT ( 'NONE',  ( -1.199999999999998401, 0.0000000000000000000, 1.749999999999999334 ) ) ;
#96 = SURFACE_STYLE_FILL_AREA ( #953 ) ;
#97 = ORIENTED_EDGE ( 'NONE', *, *, #930, .F. ) ;
#98 = ORIENTED_EDGE ( 'NONE', *, *, #428, .F. ) ;
#99 = PLANE ( 'NONE',  #169 ) ;
#100 = DIRECTION ( 'NONE',  ( -0.0000000000000000000, 0.0000000000000000000, 1.000000000000000000 ) ) ;
#101 = AXIS2_PLACEMENT_3D ( 'NONE', #278, #70, #586 ) ;
#102 = PRODUCT_DEFINITION_FORMATION_WITH_SPECIFIED_SOURCE ( 'ANY', '', #939, .NOT_KNOWN. ) ;
#103 = DIRECTION ( 'NONE',  ( 2.168404344971008868E-16, 0.0000000000000000000, -1.000000000000000000 ) ) ;
#104 = CARTESIAN_POINT ( 'NONE',  ( 1.400000000000001910, 1.500000000000000000, 1.749999999999999334 ) ) ;
#105 = LINE ( 'NONE', #444, #259 ) ;
#106 = AXIS2_PLACEMENT_3D ( 'NONE', #691, #467, #543 ) ;
#107 =( GEOMETRIC_REPRESENTATION_CONTEXT ( 3 ) GLOBAL_UNCERTAINTY_ASSIGNED_CONTEXT ( ( #53 ) ) GLOBAL_UNIT_ASSIGNED_CONTEXT ( ( #235, #830, #387 ) ) REPRESENTATION_CONTEXT ( 'NONE', 'WORKASPACE' ) );
#108 = ORIENTED_EDGE ( 'NONE', *, *, #642, .F. ) ;
#109 = EDGE_LOOP ( 'NONE', ( #836, #838, #167, #435 ) ) ;
#110 = EDGE_CURVE ( 'NONE', #594, #926, #252, .T. ) ;
#111 =( NAMED_UNIT ( * ) PLANE_ANGLE_UNIT ( ) SI_UNIT ( $, .RADIAN. ) );
#112 = LINE ( 'NONE', #399, #282 ) ;
#113 = CARTESIAN_POINT ( 'NONE',  ( -1.199999999999998401, -0.1500000000000000222, 1.749999999999999334 ) ) ;
#114 = ORIENTED_EDGE ( 'NONE', *, *, #65, .T. ) ;
#115 = DIRECTION ( 'NONE',  ( 0.0000000000000000000, 0.0000000000000000000, 1.000000000000000000 ) ) ;
#116 = VERTEX_POINT ( 'NONE', #354 ) ;
#117 = ORIENTED_EDGE ( 'NONE', *, *, #834, .F. ) ;
#118 = DIRECTION ( 'NONE',  ( 1.000000000000000000, 0.0000000000000000000, 0.0000000000000000000 ) ) ;
#119 = VECTOR ( 'NONE', #607, 1000.000000000000000 ) ;
#120 = DIRECTION ( 'NONE',  ( 0.0000000000000000000, -1.000000000000000000, 0.0000000000000000000 ) ) ;
#121 = LINE ( 'NONE', #863, #270 ) ;
#122 = VECTOR ( 'NONE', #901, 1000.000000000000000 ) ;
#123 = ORIENTED_EDGE ( 'NONE', *, *, #184, .F. ) ;
#124 = ORIENTED_EDGE ( 'NONE', *, *, #950, .F. ) ;
#125 = ORIENTED_EDGE ( 'NONE', *, *, #15, .T. ) ;
#126 = AXIS2_PLACEMENT_3D ( 'NONE', #234, #239, #464 ) ;
#127 = FILL_AREA_STYLE_COLOUR ( '', #308 ) ;
#128 = DIRECTION ( 'NONE',  ( 0.0000000000000000000, 0.0000000000000000000, -1.000000000000000000 ) ) ;
#129 = ADVANCED_FACE ( 'NONE', ( #720 ), #421, .T. ) ;
#130 = SURFACE_STYLE_USAGE ( .BOTH. , #885 ) ;
#131 = LINE ( 'NONE', #313, #531 ) ;
#132 = PRESENTATION_STYLE_ASSIGNMENT (( #346 ) ) ;
#133 = VECTOR ( 'NONE', #417, 1000.000000000000000 ) ;
#134 = CARTESIAN_POINT ( 'NONE',  ( 1.200000000000001954, -0.1500000000000000222, -1.749999999999999334 ) ) ;
#135 = ADVANCED_FACE ( 'NONE', ( #283 ), #298, .F. ) ;
#136 = EDGE_CURVE ( 'NONE', #176, #535, #641, .T. ) ;
#137 = ORIENTED_EDGE ( 'NONE', *, *, #15, .F. ) ;
#138 = ORIENTED_EDGE ( 'NONE', *, *, #950, .T. ) ;
#139 = CARTESIAN_POINT ( 'NONE',  ( 1.200000000000001954, -0.2000000000000000111, -1.699999999999999512 ) ) ;
#140 = DIRECTION ( 'NONE',  ( 2.168404344971008868E-16, 0.0000000000000000000, 1.000000000000000000 ) ) ;
#141 = CARTESIAN_POINT ( 'NONE',  ( -1.399999999999998579, 0.0000000000000000000, 1.749999999999999334 ) ) ;
#142 = ADVANCED_FACE ( 'NONE', ( #450 ), #665, .T. ) ;
#143 = FILL_AREA_STYLE_COLOUR ( '', #639 ) ;
#144 = CYLINDRICAL_SURFACE ( 'NONE', #826, 0.7334495225046856470 ) ;
#145 = AXIS2_PLACEMENT_3D ( 'NONE', #688, #604, #157 ) ;
#146 = VECTOR ( 'NONE', #118, 1000.000000000000000 ) ;
#147 = CARTESIAN_POINT ( 'NONE',  ( 1.200000000000001954, -0.2000000000000000111, 0.7499999999999993339 ) ) ;
#148 = VERTEX_POINT ( 'NONE', #200 ) ;
#149 = DIRECTION ( 'NONE',  ( 0.0000000000000000000, 0.0000000000000000000, -1.000000000000000000 ) ) ;
#150 = EDGE_LOOP ( 'NONE', ( #925, #499, #6, #98 ) ) ;
#151 = UNCERTAINTY_MEASURE_WITH_UNIT (LENGTH_MEASURE( 1.000000000000000082E-05 ), #659, 'distance_accuracy_value', 'NONE');
#152 = ORIENTED_EDGE ( 'NONE', *, *, #110, .F. ) ;
#153 = DIRECTION ( 'NONE',  ( 0.0000000000000000000, 1.000000000000000000, 0.0000000000000000000 ) ) ;
#154 = AXIS2_PLACEMENT_3D ( 'NONE', #892, #149, #613 ) ;
#155 = AXIS2_PLACEMENT_3D ( 'NONE', #612, #923, #695 ) ;
#156 =( NAMED_UNIT ( * ) SI_UNIT ( $, .STERADIAN. ) SOLID_ANGLE_UNIT ( ) );
#157 = DIRECTION ( 'NONE',  ( 0.0000000000000000000, 0.0000000000000000000, -1.000000000000000000 ) ) ;
#158 = VECTOR ( 'NONE', #480, 1000.000000000000000 ) ;
#159 = EDGE_CURVE ( 'NONE', #275, #300, #856, .T. ) ;
#160 = SURFACE_SIDE_STYLE ('',( #844 ) ) ;
#161 = VECTOR ( 'NONE', #940, 1000.000000000000000 ) ;
#162 = CIRCLE ( 'NONE', #553, 0.7334495225046856470 ) ;
#163 =( GEOMETRIC_REPRESENTATION_CONTEXT ( 3 ) GLOBAL_UNCERTAINTY_ASSIGNED_CONTEXT ( ( #489 ) ) GLOBAL_UNIT_ASSIGNED_CONTEXT ( ( #902, #455, #529 ) ) REPRESENTATION_CONTEXT ( 'NONE', 'WORKASPACE' ) );
#164 = ORIENTED_EDGE ( 'NONE', *, *, #936, .T. ) ;
#165 = PLANE ( 'NONE',  #126 ) ;
#166 = DIRECTION ( 'NONE',  ( 0.0000000000000000000, 0.0000000000000000000, 1.000000000000000000 ) ) ;
#167 = ORIENTED_EDGE ( 'NONE', *, *, #389, .F. ) ;
#168 = PLANE ( 'NONE',  #376 ) ;
#169 = AXIS2_PLACEMENT_3D ( 'NONE', #31, #166, #173 ) ;
#170 = DIRECTION ( 'NONE',  ( 0.0000000000000000000, 0.0000000000000000000, -1.000000000000000000 ) ) ;
#171 = LINE ( 'NONE', #469, #407 ) ;
#172 = DIRECTION ( 'NONE',  ( 0.0000000000000000000, 0.0000000000000000000, -1.000000000000000000 ) ) ;
#173 = DIRECTION ( 'NONE',  ( 1.000000000000000000, 0.0000000000000000000, -0.0000000000000000000 ) ) ;
#174 = SPHERICAL_SURFACE ( 'NONE', #56, 8.343288089275452180 ) ;
#175 = ORIENTED_EDGE ( 'NONE', *, *, #851, .F. ) ;
#176 = VERTEX_POINT ( 'NONE', #139 ) ;
#177 = DIRECTION ( 'NONE',  ( 1.000000000000000000, 0.0000000000000000000, -2.168404344971008868E-16 ) ) ;
#178 = CLOSED_SHELL ( 'NONE', ( #295, #292, #129, #285 ) ) ;
#179 = AXIS2_PLACEMENT_3D ( 'NONE', #322, #700, #103 ) ;
#180 = COLOUR_RGB ( '',1.000000000000000000, 1.000000000000000000, 1.000000000000000000 ) ;
#181 = APPLICATION_PROTOCOL_DEFINITION ( 'draft international standard', 'automotive_design', 1998, #479 ) ;
#182 = ORIENTED_EDGE ( 'NONE', *, *, #110, .T. ) ;
#183 = ORIENTED_EDGE ( 'NONE', *, *, #238, .F. ) ;
#184 = EDGE_CURVE ( 'NONE', #300, #580, #227, .T. ) ;
#185 = CARTESIAN_POINT ( 'NONE',  ( -1.199999999999998179, -0.2000000000000000111, 0.7499999999999993339 ) ) ;
#186 = CARTESIAN_POINT ( 'NONE',  ( -1.199999999999998401, -0.2000000000000000111, 1.749999999999999334 ) ) ;
#187 = FACE_OUTER_BOUND ( 'NONE', #434, .T. ) ;
#188 = LINE ( 'NONE', #217, #3 ) ;
#189 = CARTESIAN_POINT ( 'NONE',  ( -1.199999999999998401, -0.2000000000000000111, 1.749999999999999334 ) ) ;
#190 = ORIENTED_EDGE ( 'NONE', *, *, #218, .T. ) ;
#191 = ORIENTED_EDGE ( 'NONE', *, *, #519, .T. ) ;
#192 =( GEOMETRIC_REPRESENTATION_CONTEXT ( 3 ) GLOBAL_UNCERTAINTY_ASSIGNED_CONTEXT ( ( #726 ) ) GLOBAL_UNIT_ASSIGNED_CONTEXT ( ( #11, #685, #816 ) ) REPRESENTATION_CONTEXT ( 'NONE', 'WORKASPACE' ) );
#193 = ORIENTED_EDGE ( 'NONE', *, *, #237, .F. ) ;
#194 = MANIFOLD_SOLID_BREP ( '??5', #785 ) ;
#195 = EDGE_CURVE ( 'NONE', #751, #148, #773, .T. ) ;
#196 = DIRECTION ( 'NONE',  ( -0.0000000000000000000, -0.0000000000000000000, 1.000000000000000000 ) ) ;
#197 = AXIS2_PLACEMENT_3D ( 'NONE', #379, #153, #456 ) ;
#198 = CARTESIAN_POINT ( 'NONE',  ( -1.399999999999998579, 0.0000000000000000000, -1.750000000000000666 ) ) ;
#199 = PRESENTATION_STYLE_ASSIGNMENT (( #291 ) ) ;
#200 = CARTESIAN_POINT ( 'NONE',  ( -1.199999999999998401, -0.2000000000000000111, -1.699999999999999512 ) ) ;
#201 = EDGE_CURVE ( 'NONE', #453, #580, #432, .T. ) ;
#202 = ORIENTED_EDGE ( 'NONE', *, *, #948, .T. ) ;
#203 = FILL_AREA_STYLE_COLOUR ( '', #448 ) ;
#204 = ORIENTED_EDGE ( 'NONE', *, *, #237, .T. ) ;
#205 = VERTEX_POINT ( 'NONE', #747 ) ;
#206 = AXIS2_PLACEMENT_3D ( 'NONE', #698, #470, #552 ) ;
#207 = CARTESIAN_POINT ( 'NONE',  ( -1.199999999999998179, -0.1500000000000000222, 1.699999999999999512 ) ) ;
#208 = ADVANCED_FACE ( 'NONE', ( #476 ), #430, .F. ) ;
#209 = CARTESIAN_POINT ( 'NONE',  ( 8.982166100715179064E-17, 0.0000000000000000000, -0.7334495225046856470 ) ) ;
#210 = DIRECTION ( 'NONE',  ( -2.168404344971008868E-16, -0.0000000000000000000, -1.000000000000000000 ) ) ;
#211 = FILL_AREA_STYLE_COLOUR ( '', #240 ) ;
#212 = LINE ( 'NONE', #916, #80 ) ;
#213 = FILL_AREA_STYLE ('',( #203 ) ) ;
#214 = LINE ( 'NONE', #821, #370 ) ;
#215 = ORIENTED_EDGE ( 'NONE', *, *, #431, .T. ) ;
#216 = EDGE_LOOP ( 'NONE', ( #182, #477, #20, #743 ) ) ;
#217 = CARTESIAN_POINT ( 'NONE',  ( -1.199999999999998179, 0.0000000000000000000, 0.7499999999999993339 ) ) ;
#218 = EDGE_CURVE ( 'NONE', #580, #512, #188, .T. ) ;
#219 =( LENGTH_UNIT ( ) NAMED_UNIT ( * ) SI_UNIT ( .MILLI., .METRE. ) );
#220 = EDGE_CURVE ( 'NONE', #859, #34, #795, .T. ) ;
#221 = ADVANCED_FACE ( 'NONE', ( #618 ), #603, .F. ) ;
#222 = DIRECTION ( 'NONE',  ( 1.000000000000000000, -0.0000000000000000000, 0.0000000000000000000 ) ) ;
#223 = SURFACE_SIDE_STYLE ('',( #96 ) ) ;
#224 = LINE ( 'NONE', #229, #69 ) ;
#225 = FACE_OUTER_BOUND ( 'NONE', #646, .T. ) ;
#226 = PLANE ( 'NONE',  #912 ) ;
#227 = LINE ( 'NONE', #585, #590 ) ;
#228 = CARTESIAN_POINT ( 'NONE',  ( -1.199999999999998179, -0.2000000000000000111, -0.7499999999999993339 ) ) ;
#229 = CARTESIAN_POINT ( 'NONE',  ( -1.199999999999998401, -0.0000000000000000000, -1.749999999999999334 ) ) ;
#230 = ORIENTED_EDGE ( 'NONE', *, *, #256, .T. ) ;
#231 = ORIENTED_EDGE ( 'NONE', *, *, #802, .T. ) ;
#232 = CARTESIAN_POINT ( 'NONE',  ( -1.199999999999998401, -0.2000000000000000111, 1.699999999999999512 ) ) ;
#233 = CARTESIAN_POINT ( 'NONE',  ( 0.0000000000000000000, -6.743288089275452535, 0.0000000000000000000 ) ) ;
#234 = CARTESIAN_POINT ( 'NONE',  ( 1.400000000000001910, 1.500000000000000000, -1.750000000000000666 ) ) ;
#235 =( LENGTH_UNIT ( ) NAMED_UNIT ( * ) SI_UNIT ( .MILLI., .METRE. ) );
#236 = DIRECTION ( 'NONE',  ( -0.0000000000000000000, 1.000000000000000000, -0.0000000000000000000 ) ) ;
#237 = EDGE_CURVE ( 'NONE', #596, #822, #214, .T. ) ;
#238 = EDGE_CURVE ( 'NONE', #34, #788, #809, .T. ) ;
#239 = DIRECTION ( 'NONE',  ( 0.0000000000000000000, -1.000000000000000000, 0.0000000000000000000 ) ) ;
#240 = COLOUR_RGB ( '',0.6470588235294117974, 0.6196078431372549211, 0.5882352941176470784 ) ;
#241 = ORIENTED_EDGE ( 'NONE', *, *, #159, .F. ) ;
#242 = CARTESIAN_POINT ( 'NONE',  ( 1.200000000000001954, -0.2000000000000000111, 1.749999999999999334 ) ) ;
#243 = SURFACE_STYLE_USAGE ( .BOTH. , #461 ) ;
#244 = VERTEX_POINT ( 'NONE', #9 ) ;
#245 = CARTESIAN_POINT ( 'NONE',  ( 1.577208923530673487E-16, 1.500000000000000000, -1.287888822008752099 ) ) ;
#246 = CARTESIAN_POINT ( 'NONE',  ( -1.199999999999998179, -0.2000000000000000111, 0.7499999999999993339 ) ) ;
#247 = DIRECTION ( 'NONE',  ( 2.168404344971008868E-16, 0.0000000000000000000, 1.000000000000000000 ) ) ;
#248 = CARTESIAN_POINT ( 'NONE',  ( 1.200000000000001954, -0.2000000000000000111, -0.7499999999999993339 ) ) ;
#249 = CIRCLE ( 'NONE', #84, 1.287888822008752099 ) ;
#250 = COLOUR_RGB ( '',1.000000000000000000, 1.000000000000000000, 1.000000000000000000 ) ;
#251 = AXIS2_PLACEMENT_3D ( 'NONE', #276, #67, #587 ) ;
#252 = LINE ( 'NONE', #141, #342 ) ;
#253 = ORIENTED_EDGE ( 'NONE', *, *, #538, .T. ) ;
#254 = CARTESIAN_POINT ( 'NONE',  ( -1.199999999999998401, -0.2000000000000000111, -1.749999999999999334 ) ) ;
#255 = ORIENTED_EDGE ( 'NONE', *, *, #936, .F. ) ;
#256 = EDGE_CURVE ( 'NONE', #396, #300, #48, .T. ) ;
#257 = DIRECTION ( 'NONE',  ( -1.000000000000000000, -0.0000000000000000000, -0.0000000000000000000 ) ) ;
#258 = FILL_AREA_STYLE_COLOUR ( '', #759 ) ;
#259 = VECTOR ( 'NONE', #905, 1000.000000000000000 ) ;
#260 = APPLICATION_PROTOCOL_DEFINITION ( 'draft international standard', 'automotive_design', 1998, #776 ) ;
#261 = CIRCLE ( 'NONE', #451, 1.287888822008752099 ) ;
#262 = AXIS2_PLACEMENT_3D ( 'NONE', #185, #120, #501 ) ;
#263 = ORIENTED_EDGE ( 'NONE', *, *, #428, .T. ) ;
#264 = VERTEX_POINT ( 'NONE', #147 ) ;
#265 = EDGE_CURVE ( 'NONE', #579, #116, #895, .T. ) ;
#266 = CARTESIAN_POINT ( 'NONE',  ( -1.199999999999998179, -0.2000000000000000111, 0.7499999999999993339 ) ) ;
#267 = VECTOR ( 'NONE', #35, 1000.000000000000000 ) ;
#268 = EDGE_CURVE ( 'NONE', #424, #333, #320, .T. ) ;
#269 = COLOUR_RGB ( '',1.000000000000000000, 1.000000000000000000, 1.000000000000000000 ) ;
#270 = VECTOR ( 'NONE', #487, 1000.000000000000000 ) ;
#271 = FACE_OUTER_BOUND ( 'NONE', #302, .T. ) ;
#272 = CARTESIAN_POINT ( 'NONE',  ( 1.200000000000001954, -0.2000000000000000111, 0.7499999999999993339 ) ) ;
#273 = EDGE_LOOP ( 'NONE', ( #884, #395, #410, #253 ) ) ;
#274 =( GEOMETRIC_REPRESENTATION_CONTEXT ( 3 ) GLOBAL_UNCERTAINTY_ASSIGNED_CONTEXT ( ( #59 ) ) GLOBAL_UNIT_ASSIGNED_CONTEXT ( ( #338, #850, #635 ) ) REPRESENTATION_CONTEXT ( 'NONE', 'WORKASPACE' ) );
#275 = VERTEX_POINT ( 'NONE', #83 ) ;
#276 = CARTESIAN_POINT ( 'NONE',  ( 1.200000000000001954, -0.1500000000000000222, -1.699999999999999512 ) ) ;
#277 = CARTESIAN_POINT ( 'NONE',  ( 0.0000000000000000000, 0.0000000000000000000, 0.7334495225046856470 ) ) ;
#278 = CARTESIAN_POINT ( 'NONE',  ( 0.0000000000000000000, 1.399999999999999911, 0.0000000000000000000 ) ) ;
#279 = DIRECTION ( 'NONE',  ( -1.000000000000000000, 0.0000000000000000000, 2.168404344971008868E-16 ) ) ;
#280 = CIRCLE ( 'NONE', #756, 1.287888822008752099 ) ;
#281 = CARTESIAN_POINT ( 'NONE',  ( 1.200000000000001954, -0.2000000000000000111, 1.749999999999999334 ) ) ;
#282 = VECTOR ( 'NONE', #617, 1000.000000000000000 ) ;
#283 = FACE_OUTER_BOUND ( 'NONE', #711, .T. ) ;
#284 = DIRECTION ( 'NONE',  ( 0.0000000000000000000, 0.0000000000000000000, 1.000000000000000000 ) ) ;
#285 = ADVANCED_FACE ( 'NONE', ( #845 ), #174, .T. ) ;
#286 = ORIENTED_EDGE ( 'NONE', *, *, #491, .T. ) ;
#287 = CARTESIAN_POINT ( 'NONE',  ( -1.199999999999998179, 0.0000000000000000000, 0.7499999999999993339 ) ) ;
#288 = ORIENTED_EDGE ( 'NONE', *, *, #750, .F. ) ;
#289 = ORIENTED_EDGE ( 'NONE', *, *, #195, .F. ) ;
#290 = DIRECTION ( 'NONE',  ( 1.000000000000000000, 0.0000000000000000000, 0.0000000000000000000 ) ) ;
#291 = SURFACE_STYLE_USAGE ( .BOTH. , #62 ) ;
#292 = ADVANCED_FACE ( 'NONE', ( #870 ), #304, .F. ) ;
#293 = CARTESIAN_POINT ( 'NONE',  ( 1.400000000000001910, 0.0000000000000000000, -1.750000000000000666 ) ) ;
#294 = CARTESIAN_POINT ( 'NONE',  ( -1.199999999999998401, -0.1500000000000000222, -1.699999999999999512 ) ) ;
#295 = ADVANCED_FACE ( 'NONE', ( #681 ), #616, .T. ) ;
#296 = PRESENTATION_STYLE_ASSIGNMENT (( #243 ) ) ;
#297 = FILL_AREA_STYLE ('',( #441 ) ) ;
#298 = CYLINDRICAL_SURFACE ( 'NONE', #637, 1.287888822008752099 ) ;
#299 = PRESENTATION_STYLE_ASSIGNMENT (( #818 ) ) ;
#300 = VERTEX_POINT ( 'NONE', #95 ) ;
#301 = DIRECTION ( 'NONE',  ( -0.0000000000000000000, -1.000000000000000000, -0.0000000000000000000 ) ) ;
#302 = EDGE_LOOP ( 'NONE', ( #621, #324, #42, #945 ) ) ;
#303 = PLANE ( 'NONE',  #494 ) ;
#304 = PLANE ( 'NONE',  #197 ) ;
#305 = DIRECTION ( 'NONE',  ( 0.0000000000000000000, -0.0000000000000000000, -1.000000000000000000 ) ) ;
#306 = FACE_OUTER_BOUND ( 'NONE', #825, .T. ) ;
#307 = AXIS2_PLACEMENT_3D ( 'NONE', #771, #702, #839 ) ;
#308 = COLOUR_RGB ( '',0.6470588235294117974, 0.6196078431372549211, 0.5882352941176470784 ) ;
#309 = CARTESIAN_POINT ( 'NONE',  ( 1.200000000000001954, -0.2000000000000000111, -1.749999999999999334 ) ) ;
#310 = LINE ( 'NONE', #248, #392 ) ;
#311 = EDGE_CURVE ( 'NONE', #360, #926, #917, .T. ) ;
#312 = ORIENTED_EDGE ( 'NONE', *, *, #159, .T. ) ;
#313 = CARTESIAN_POINT ( 'NONE',  ( -1.199999999999998179, -0.0000000000000000000, -0.7499999999999993339 ) ) ;
#314 = ORIENTED_EDGE ( 'NONE', *, *, #642, .T. ) ;
#315 = STYLED_ITEM ( 'NONE', ( #640 ), #371 ) ;
#316 = CARTESIAN_POINT ( 'NONE',  ( 1.200000000000001954, 0.0000000000000000000, -1.749999999999999334 ) ) ;
#317 =( LENGTH_UNIT ( ) NAMED_UNIT ( * ) SI_UNIT ( .MILLI., .METRE. ) );
#318 = CARTESIAN_POINT ( 'NONE',  ( 1.200000000000001954, -0.2000000000000000111, -1.699999999999999512 ) ) ;
#319 = LINE ( 'NONE', #638, #146 ) ;
#320 = LINE ( 'NONE', #525, #122 ) ;
#321 = ORIENTED_EDGE ( 'NONE', *, *, #418, .T. ) ;
#322 = CARTESIAN_POINT ( 'NONE',  ( -1.199999999999998401, -0.2000000000000000111, 1.749999999999999334 ) ) ;
#323 = EDGE_LOOP ( 'NONE', ( #556, #286, #97, #215, #921 ) ) ;
#324 = ORIENTED_EDGE ( 'NONE', *, *, #628, .F. ) ;
#325 = CARTESIAN_POINT ( 'NONE',  ( 1.200000000000001954, -0.2000000000000000111, -1.749999999999999334 ) ) ;
#326 = DIRECTION ( 'NONE',  ( -0.0000000000000000000, -1.000000000000000000, -0.0000000000000000000 ) ) ;
#327 = VECTOR ( 'NONE', #527, 1000.000000000000000 ) ;
#328 = SURFACE_STYLE_USAGE ( .BOTH. , #562 ) ;
#329 = FACE_OUTER_BOUND ( 'NONE', #109, .T. ) ;
#330 = SURFACE_STYLE_FILL_AREA ( #622 ) ;
#331 = EDGE_LOOP ( 'NONE', ( #897, #949, #64, #947 ) ) ;
#332 = CARTESIAN_POINT ( 'NONE',  ( 0.0000000000000000000, 0.0000000000000000000, 0.0000000000000000000 ) ) ;
#333 = VERTEX_POINT ( 'NONE', #840 ) ;
#334 = EDGE_CURVE ( 'NONE', #535, #909, #112, .T. ) ;
#335 = VERTEX_POINT ( 'NONE', #536 ) ;
#336 = EDGE_CURVE ( 'NONE', #75, #244, #310, .T. ) ;
#337 = PLANE ( 'NONE',  #262 ) ;
#338 =( LENGTH_UNIT ( ) NAMED_UNIT ( * ) SI_UNIT ( .MILLI., .METRE. ) );
#339 = SURFACE_STYLE_FILL_AREA ( #554 ) ;
#340 = SURFACE_SIDE_STYLE ('',( #94 ) ) ;
#341 = CIRCLE ( 'NONE', #654, 0.04999999999999991257 ) ;
#342 = VECTOR ( 'NONE', #883, 1000.000000000000000 ) ;
#343 =( GEOMETRIC_REPRESENTATION_CONTEXT ( 3 ) GLOBAL_UNCERTAINTY_ASSIGNED_CONTEXT ( ( #790 ) ) GLOBAL_UNIT_ASSIGNED_CONTEXT ( ( #601, #684, #829 ) ) REPRESENTATION_CONTEXT ( 'NONE', 'WORKASPACE' ) );
#344 = ORIENTED_EDGE ( 'NONE', *, *, #908, .F. ) ;
#345 = VERTEX_POINT ( 'NONE', #104 ) ;
#346 = SURFACE_STYLE_USAGE ( .BOTH. , #340 ) ;
#347 = VERTEX_POINT ( 'NONE', #910 ) ;
#348 = EDGE_CURVE ( 'NONE', #644, #822, #879, .T. ) ;
#349 = DIRECTION ( 'NONE',  ( 2.168404344971008868E-16, 0.0000000000000000000, -1.000000000000000000 ) ) ;
#350 = ADVANCED_FACE ( 'NONE', ( #483 ), #704, .F. ) ;
#351 = PRESENTATION_LAYER_ASSIGNMENT (  '', '', ( #472 ) ) ;
#352 = EDGE_CURVE ( 'NONE', #396, #871, #47, .T. ) ;
#353 = CIRCLE ( 'NONE', #145, 1.287888822008752099 ) ;
#354 = CARTESIAN_POINT ( 'NONE',  ( 1.400000000000001910, 0.0000000000000000000, -1.750000000000000666 ) ) ;
#355 = PLANE ( 'NONE',  #600 ) ;
#356 = ORIENTED_EDGE ( 'NONE', *, *, #44, .F. ) ;
#357 = PRESENTATION_LAYER_ASSIGNMENT (  '', '', ( #66 ) ) ;
#358 = ORIENTED_EDGE ( 'NONE', *, *, #389, .T. ) ;
#359 = DIRECTION ( 'NONE',  ( -0.0000000000000000000, 1.000000000000000000, -0.0000000000000000000 ) ) ;
#360 = VERTEX_POINT ( 'NONE', #758 ) ;
#361 = CARTESIAN_POINT ( 'NONE',  ( -1.199999999999998401, -0.2000000000000000111, -1.749999999999999334 ) ) ;
#362 = ADVANCED_FACE ( 'NONE', ( #729 ), #918, .T. ) ;
#363 =( NAMED_UNIT ( * ) PLANE_ANGLE_UNIT ( ) SI_UNIT ( $, .RADIAN. ) );
#364 = AXIS2_PLACEMENT_3D ( 'NONE', #581, #76, #730 ) ;
#365 = PLANE ( 'NONE',  #652 ) ;
#366 = CYLINDRICAL_SURFACE ( 'NONE', #206, 0.7334495225046856470 ) ;
#367 = DIRECTION ( 'NONE',  ( 1.000000000000000000, 0.0000000000000000000, 0.0000000000000000000 ) ) ;
#368 = FACE_OUTER_BOUND ( 'NONE', #323, .T. ) ;
#369 = LINE ( 'NONE', #779, #133 ) ;
#370 = VECTOR ( 'NONE', #533, 1000.000000000000000 ) ;
#371 = MANIFOLD_SOLID_BREP ( '??3', #860 ) ;
#372 = VERTEX_POINT ( 'NONE', #24 ) ;
#373 = ADVANCED_FACE ( 'NONE', ( #187 ), #99, .F. ) ;
#374 =( NAMED_UNIT ( * ) SI_UNIT ( $, .STERADIAN. ) SOLID_ANGLE_UNIT ( ) );
#375 = DIRECTION ( 'NONE',  ( 0.0000000000000000000, 1.000000000000000000, 0.0000000000000000000 ) ) ;
#376 = AXIS2_PLACEMENT_3D ( 'NONE', #689, #222, #746 ) ;
#377 = LINE ( 'NONE', #891, #119 ) ;
#378 = DIRECTION ( 'NONE',  ( -0.0000000000000000000, 1.000000000000000000, -0.0000000000000000000 ) ) ;
#379 = CARTESIAN_POINT ( 'NONE',  ( 0.0000000000000000000, 1.399999999999999911, 0.0000000000000000000 ) ) ;
#380 = CARTESIAN_POINT ( 'NONE',  ( 1.577208923530673487E-16, 1.399999999999999911, 1.287888822008752099 ) ) ;
#381 = CYLINDRICAL_SURFACE ( 'NONE', #251, 0.04999999999999991257 ) ;
#382 = EDGE_LOOP ( 'NONE', ( #137, #344 ) ) ;
#383 = DIRECTION ( 'NONE',  ( 0.0000000000000000000, 0.0000000000000000000, -1.000000000000000000 ) ) ;
#384 = ORIENTED_EDGE ( 'NONE', *, *, #457, .T. ) ;
#385 =( GEOMETRIC_REPRESENTATION_CONTEXT ( 3 ) GLOBAL_UNCERTAINTY_ASSIGNED_CONTEXT ( ( #648 ) ) GLOBAL_UNIT_ASSIGNED_CONTEXT ( ( #219, #674, #156 ) ) REPRESENTATION_CONTEXT ( 'NONE', 'WORKASPACE' ) );
#386 = SURFACE_STYLE_USAGE ( .BOTH. , #160 ) ;
#387 =( NAMED_UNIT ( * ) SI_UNIT ( $, .STERADIAN. ) SOLID_ANGLE_UNIT ( ) );
#388 = EDGE_CURVE ( 'NONE', #632, #594, #719, .T. ) ;
#389 = EDGE_CURVE ( 'NONE', #345, #763, #369, .T. ) ;
#390 = FILL_AREA_STYLE_COLOUR ( '', #853 ) ;
#391 = STYLED_ITEM ( 'NONE', ( #576 ), #846 ) ;
#392 = VECTOR ( 'NONE', #755, 1000.000000000000000 ) ;
#393 =( NAMED_UNIT ( * ) SI_UNIT ( $, .STERADIAN. ) SOLID_ANGLE_UNIT ( ) );
#394 = VECTOR ( 'NONE', #741, 1000.000000000000000 ) ;
#395 = ORIENTED_EDGE ( 'NONE', *, *, #737, .T. ) ;
#396 = VERTEX_POINT ( 'NONE', #113 ) ;
#397 = PLANE ( 'NONE',  #179 ) ;
#398 = ORIENTED_EDGE ( 'NONE', *, *, #484, .F. ) ;
#399 = CARTESIAN_POINT ( 'NONE',  ( 1.200000000000001954, -0.2000000000000000111, -1.749999999999999334 ) ) ;
#400 = CARTESIAN_POINT ( 'NONE',  ( -1.199999999999998179, -0.2000000000000000111, 0.7499999999999993339 ) ) ;
#401 = EDGE_CURVE ( 'NONE', #347, #453, #742, .T. ) ;
#402 = FACE_OUTER_BOUND ( 'NONE', #454, .T. ) ;
#403 = EDGE_CURVE ( 'NONE', #632, #360, #943, .T. ) ;
#404 = EDGE_LOOP ( 'NONE', ( #526, #777, #523, #63 ) ) ;
#405 = ORIENTED_EDGE ( 'NONE', *, *, #238, .T. ) ;
#406 = CARTESIAN_POINT ( 'NONE',  ( 0.0000000000000000000, 1.500000000000000000, 0.0000000000000000000 ) ) ;
#407 = VECTOR ( 'NONE', #547, 1000.000000000000000 ) ;
#408 = AXIS2_PLACEMENT_3D ( 'NONE', #207, #290, #128 ) ;
#409 = DIRECTION ( 'NONE',  ( 0.0000000000000000000, 0.0000000000000000000, -1.000000000000000000 ) ) ;
#410 = ORIENTED_EDGE ( 'NONE', *, *, #588, .T. ) ;
#411 = ORIENTED_EDGE ( 'NONE', *, *, #735, .F. ) ;
#412 =( LENGTH_UNIT ( ) NAMED_UNIT ( * ) SI_UNIT ( .MILLI., .METRE. ) );
#413 = ORIENTED_EDGE ( 'NONE', *, *, #851, .T. ) ;
#414 = EDGE_LOOP ( 'NONE', ( #231, #696, #405, #43 ) ) ;
#415 = DIRECTION ( 'NONE',  ( 0.0000000000000000000, 0.0000000000000000000, -1.000000000000000000 ) ) ;
#416 = STYLED_ITEM ( 'NONE', ( #132 ), #506 ) ;
#417 = DIRECTION ( 'NONE',  ( 0.0000000000000000000, 0.0000000000000000000, -1.000000000000000000 ) ) ;
#418 = EDGE_CURVE ( 'NONE', #205, #50, #162, .T. ) ;
#419 = CARTESIAN_POINT ( 'NONE',  ( 0.0000000000000000000, -0.2000000000000000944, 0.0000000000000000000 ) ) ;
#420 = PRESENTATION_STYLE_ASSIGNMENT (( #130 ) ) ;
#421 = CYLINDRICAL_SURFACE ( 'NONE', #364, 1.287888822008752099 ) ;
#422 = DIRECTION ( 'NONE',  ( 0.0000000000000000000, -0.0000000000000000000, -1.000000000000000000 ) ) ;
#423 = ORIENTED_EDGE ( 'NONE', *, *, #311, .T. ) ;
#424 = VERTEX_POINT ( 'NONE', #787 ) ;
#425 = DIRECTION ( 'NONE',  ( -1.000000000000000000, 0.0000000000000000000, -2.168404344971008868E-16 ) ) ;
#426 = DIRECTION ( 'NONE',  ( -1.000000000000000000, -0.0000000000000000000, -0.0000000000000000000 ) ) ;
#427 = ADVANCED_FACE ( 'NONE', ( #566 ), #496, .F. ) ;
#428 = EDGE_CURVE ( 'NONE', #50, #534, #868, .T. ) ;
#429 = LINE ( 'NONE', #325, #39 ) ;
#430 = PLANE ( 'NONE',  #778 ) ;
#431 = EDGE_CURVE ( 'NONE', #264, #512, #907, .T. ) ;
#432 = LINE ( 'NONE', #814, #394 ) ;
#433 = ADVANCED_FACE ( 'NONE', ( #703 ), #337, .T. ) ;
#434 = EDGE_LOOP ( 'NONE', ( #900, #666, #255, #592 ) ) ;
#435 = ORIENTED_EDGE ( 'NONE', *, *, #789, .T. ) ;
#436 = ORIENTED_EDGE ( 'NONE', *, *, #336, .F. ) ;
#437 = CARTESIAN_POINT ( 'NONE',  ( -1.199999999999998401, -0.0000000000000000000, -1.749999999999999334 ) ) ;
#438 = EDGE_CURVE ( 'NONE', #360, #345, #319, .T. ) ;
#439 = DIRECTION ( 'NONE',  ( 1.000000000000000000, 0.0000000000000000000, 0.0000000000000000000 ) ) ;
#440 = CARTESIAN_POINT ( 'NONE',  ( -1.399999999999998579, 1.500000000000000000, -1.750000000000000666 ) ) ;
#441 = FILL_AREA_STYLE_COLOUR ( '', #705 ) ;
#442 = PRESENTATION_LAYER_ASSIGNMENT (  '', '', ( #52 ) ) ;
#443 = UNCERTAINTY_MEASURE_WITH_UNIT (LENGTH_MEASURE( 1.000000000000000082E-05 ), #412, 'distance_accuracy_value', 'NONE');
#444 = CARTESIAN_POINT ( 'NONE',  ( 1.200000000000001954, 0.0000000000000000000, 1.749999999999999334 ) ) ;
#445 = DIRECTION ( 'NONE',  ( -0.0000000000000000000, 1.000000000000000000, -0.0000000000000000000 ) ) ;
#446 = SURFACE_SIDE_STYLE ('',( #728 ) ) ;
#447 = VECTOR ( 'NONE', #748, 1000.000000000000000 ) ;
#448 = COLOUR_RGB ( '',1.000000000000000000, 0.0000000000000000000, 0.0000000000000000000 ) ;
#449 = SURFACE_STYLE_USAGE ( .BOTH. , #89 ) ;
#450 = FACE_OUTER_BOUND ( 'NONE', #752, .T. ) ;
#451 = AXIS2_PLACEMENT_3D ( 'NONE', #655, #801, #668 ) ;
#452 = PRESENTATION_LAYER_ASSIGNMENT (  '', '', ( #515 ) ) ;
#453 = VERTEX_POINT ( 'NONE', #266 ) ;
#454 = EDGE_LOOP ( 'NONE', ( #289, #7, #835, #117 ) ) ;
#455 =( NAMED_UNIT ( * ) PLANE_ANGLE_UNIT ( ) SI_UNIT ( $, .RADIAN. ) );
#456 = DIRECTION ( 'NONE',  ( 0.0000000000000000000, -0.0000000000000000000, 1.000000000000000000 ) ) ;
#457 = EDGE_CURVE ( 'NONE', #347, #396, #341, .T. ) ;
#458 = DIRECTION ( 'NONE',  ( -0.0000000000000000000, 0.0000000000000000000, 1.000000000000000000 ) ) ;
#459 = AXIS2_PLACEMENT_3D ( 'NONE', #627, #913, #170 ) ;
#460 = DIRECTION ( 'NONE',  ( -1.000000000000000000, -0.0000000000000000000, -0.0000000000000000000 ) ) ;
#461 = SURFACE_SIDE_STYLE ('',( #808 ) ) ;
#462 = VECTOR ( 'NONE', #36, 1000.000000000000000 ) ;
#463 = ORIENTED_EDGE ( 'NONE', *, *, #597, .F. ) ;
#464 = DIRECTION ( 'NONE',  ( 0.0000000000000000000, -0.0000000000000000000, -1.000000000000000000 ) ) ;
#465 = FILL_AREA_STYLE ('',( #915 ) ) ;
#466 = EDGE_LOOP ( 'NONE', ( #33, #321 ) ) ;
#467 = DIRECTION ( 'NONE',  ( 0.0000000000000000000, -1.000000000000000000, 0.0000000000000000000 ) ) ;
#468 = AXIS2_PLACEMENT_3D ( 'NONE', #189, #574, #55 ) ;
#469 = CARTESIAN_POINT ( 'NONE',  ( -1.199999999999998401, -0.2000000000000000111, -1.749999999999999334 ) ) ;
#470 = DIRECTION ( 'NONE',  ( -0.0000000000000000000, 1.000000000000000000, -0.0000000000000000000 ) ) ;
#471 = CARTESIAN_POINT ( 'NONE',  ( 1.200000000000001954, -0.1500000000000000222, 1.749999999999999334 ) ) ;
#472 = STYLED_ITEM ( 'NONE', ( #495 ), #194 ) ;
#473 = CIRCLE ( 'NONE', #459, 0.7334495225046856470 ) ;
#474 = LINE ( 'NONE', #232, #447 ) ;
#475 = DIRECTION ( 'NONE',  ( 0.0000000000000000000, -1.000000000000000000, 0.0000000000000000000 ) ) ;
#476 = FACE_OUTER_BOUND ( 'NONE', #273, .T. ) ;
#477 = ORIENTED_EDGE ( 'NONE', *, *, #311, .F. ) ;
#478 = EDGE_LOOP ( 'NONE', ( #524, #74, #922, #766, #634 ) ) ;
#479 = APPLICATION_CONTEXT ( 'automotive_design' ) ;
#480 = DIRECTION ( 'NONE',  ( 1.000000000000000000, 0.0000000000000000000, 0.0000000000000000000 ) ) ;
#481 = VECTOR ( 'NONE', #301, 1000.000000000000000 ) ;
#482 = PRODUCT_DEFINITION ( 'UNKNOWN', '', #102, #516 ) ;
#483 = FACE_OUTER_BOUND ( 'NONE', #559, .T. ) ;
#484 = EDGE_CURVE ( 'NONE', #116, #594, #121, .T. ) ;
#485 = ORIENTED_EDGE ( 'NONE', *, *, #403, .T. ) ;
#486 = ORIENTED_EDGE ( 'NONE', *, *, #201, .F. ) ;
#487 = DIRECTION ( 'NONE',  ( -1.000000000000000000, -0.0000000000000000000, -0.0000000000000000000 ) ) ;
#488 = CARTESIAN_POINT ( 'NONE',  ( -1.199999999999998179, -0.2000000000000000111, 0.7499999999999993339 ) ) ;
#489 = UNCERTAINTY_MEASURE_WITH_UNIT (LENGTH_MEASURE( 1.000000000000000082E-05 ), #902, 'distance_accuracy_value', 'NONE');
#490 = DIRECTION ( 'NONE',  ( 1.000000000000000000, 0.0000000000000000000, 0.0000000000000000000 ) ) ;
#491 = EDGE_CURVE ( 'NONE', #871, #335, #520, .T. ) ;
#492 = LINE ( 'NONE', #16, #481 ) ;
#493 = UNCERTAINTY_MEASURE_WITH_UNIT (LENGTH_MEASURE( 1.000000000000000082E-05 ), #867, 'distance_accuracy_value', 'NONE');
#494 = AXIS2_PLACEMENT_3D ( 'NONE', #82, #91, #820 ) ;
#495 = PRESENTATION_STYLE_ASSIGNMENT (( #92 ) ) ;
#496 = PLANE ( 'NONE',  #468 ) ;
#497 = ORIENTED_EDGE ( 'NONE', *, *, #438, .F. ) ;
#498 = ORIENTED_EDGE ( 'NONE', *, *, #184, .T. ) ;
#499 = ORIENTED_EDGE ( 'NONE', *, *, #38, .T. ) ;
#500 = MECHANICAL_DESIGN_GEOMETRIC_PRESENTATION_REPRESENTATION (  '', ( #675 ), #10 ) ;
#501 = DIRECTION ( 'NONE',  ( 0.0000000000000000000, -0.0000000000000000000, -1.000000000000000000 ) ) ;
#502 = ADVANCED_FACE ( 'NONE', ( #225 ), #647, .F. ) ;
#503 =( NAMED_UNIT ( * ) SI_UNIT ( $, .STERADIAN. ) SOLID_ANGLE_UNIT ( ) );
#504 =( NAMED_UNIT ( * ) PLANE_ANGLE_UNIT ( ) SI_UNIT ( $, .RADIAN. ) );
#505 = VECTOR ( 'NONE', #875, 1000.000000000000000 ) ;
#506 = ADVANCED_FACE ( 'NONE', ( #329 ), #717, .F. ) ;
#507 = VECTOR ( 'NONE', #938, 1000.000000000000000 ) ;
#508 = AXIS2_PLACEMENT_3D ( 'NONE', #293, #593, #305 ) ;
#509 = CARTESIAN_POINT ( 'NONE',  ( 1.200000000000001954, -0.1500000000000000222, -1.699999999999999512 ) ) ;
#510 = EDGE_LOOP ( 'NONE', ( #193, #175, #314, #653 ) ) ;
#511 = DIRECTION ( 'NONE',  ( -2.168404344971008868E-16, 0.0000000000000000000, 1.000000000000000000 ) ) ;
#512 = VERTEX_POINT ( 'NONE', #791 ) ;
#513 = EDGE_LOOP ( 'NONE', ( #413, #191 ) ) ;
#514 = ADVANCED_FACE ( 'NONE', ( #368 ), #355, .F. ) ;
#515 = STYLED_ITEM ( 'NONE', ( #296 ), #373 ) ;
#516 = PRODUCT_DEFINITION_CONTEXT ( 'detailed design', #776, 'design' ) ;
#517 = PRESENTATION_LAYER_ASSIGNMENT (  '', '', ( #391 ) ) ;
#518 = DIRECTION ( 'NONE',  ( -0.0000000000000000000, -1.000000000000000000, -0.0000000000000000000 ) ) ;
#519 = EDGE_CURVE ( 'NONE', #596, #372, #660, .T. ) ;
#520 = CIRCLE ( 'NONE', #564, 0.04999999999999991257 ) ;
#521 = AXIS2_PLACEMENT_3D ( 'NONE', #228, #598, #77 ) ;
#522 = VECTOR ( 'NONE', #236, 1000.000000000000000 ) ;
#523 = ORIENTED_EDGE ( 'NONE', *, *, #887, .T. ) ;
#524 = ORIENTED_EDGE ( 'NONE', *, *, #588, .F. ) ;
#525 = CARTESIAN_POINT ( 'NONE',  ( -1.199999999999998179, -0.2000000000000000111, -0.7499999999999993339 ) ) ;
#526 = ORIENTED_EDGE ( 'NONE', *, *, #220, .F. ) ;
#527 = DIRECTION ( 'NONE',  ( -1.000000000000000000, 0.0000000000000000000, -0.0000000000000000000 ) ) ;
#528 = CARTESIAN_POINT ( 'NONE',  ( -1.399999999999998579, 1.500000000000000000, 1.749999999999999334 ) ) ;
#529 =( NAMED_UNIT ( * ) SI_UNIT ( $, .STERADIAN. ) SOLID_ANGLE_UNIT ( ) );
#530 = DIRECTION ( 'NONE',  ( -0.0000000000000000000, -1.000000000000000000, -0.0000000000000000000 ) ) ;
#531 = VECTOR ( 'NONE', #460, 1000.000000000000000 ) ;
#532 = CARTESIAN_POINT ( 'NONE',  ( 1.200000000000001954, -0.2000000000000000111, 1.749999999999999334 ) ) ;
#533 = DIRECTION ( 'NONE',  ( -0.0000000000000000000, 1.000000000000000000, -0.0000000000000000000 ) ) ;
#534 = VERTEX_POINT ( 'NONE', #277 ) ;
#535 = VERTEX_POINT ( 'NONE', #134 ) ;
#536 = CARTESIAN_POINT ( 'NONE',  ( 1.200000000000001954, -0.2000000000000000111, 1.699999999999999512 ) ) ;
#537 = CARTESIAN_POINT ( 'NONE',  ( 0.0000000000000000000, -0.2000000000000000944, 0.7334495225046856470 ) ) ;
#538 = EDGE_CURVE ( 'NONE', #754, #909, #45, .T. ) ;
#539 = DIRECTION ( 'NONE',  ( -2.168404344971008868E-16, 0.0000000000000000000, -1.000000000000000000 ) ) ;
#540 =( GEOMETRIC_REPRESENTATION_CONTEXT ( 3 ) GLOBAL_UNCERTAINTY_ASSIGNED_CONTEXT ( ( #443 ) ) GLOBAL_UNIT_ASSIGNED_CONTEXT ( ( #412, #111, #862 ) ) REPRESENTATION_CONTEXT ( 'NONE', 'WORKASPACE' ) );
#541 = DIRECTION ( 'NONE',  ( 0.0000000000000000000, 0.0000000000000000000, -1.000000000000000000 ) ) ;
#542 = VECTOR ( 'NONE', #140, 1000.000000000000000 ) ;
#543 = DIRECTION ( 'NONE',  ( 0.0000000000000000000, 0.0000000000000000000, -1.000000000000000000 ) ) ;
#544 = VECTOR ( 'NONE', #793, 1000.000000000000000 ) ;
#545 = MANIFOLD_SOLID_BREP ( '??1', #178 ) ;
#546 = LINE ( 'NONE', #725, #41 ) ;
#547 = DIRECTION ( 'NONE',  ( -2.168404344971008868E-16, -0.0000000000000000000, -1.000000000000000000 ) ) ;
#548 = ORIENTED_EDGE ( 'NONE', *, *, #750, .T. ) ;
#549 = MECHANICAL_DESIGN_GEOMETRIC_PRESENTATION_REPRESENTATION (  '', ( #774 ), #192 ) ;
#550 = EDGE_LOOP ( 'NONE', ( #731, #463 ) ) ;
#551 = CARTESIAN_POINT ( 'NONE',  ( 1.400000000000001910, 1.500000000000000000, -1.750000000000000666 ) ) ;
#552 = DIRECTION ( 'NONE',  ( 0.0000000000000000000, 0.0000000000000000000, 1.000000000000000000 ) ) ;
#553 = AXIS2_PLACEMENT_3D ( 'NONE', #419, #857, #415 ) ;
#554 = FILL_AREA_STYLE ('',( #258 ) ) ;
#555 = LINE ( 'NONE', #361, #161 ) ;
#556 = ORIENTED_EDGE ( 'NONE', *, *, #697, .F. ) ;
#557 = CARTESIAN_POINT ( 'NONE',  ( -1.399999999999998579, 1.500000000000000000, -1.750000000000000666 ) ) ;
#558 = ORIENTED_EDGE ( 'NONE', *, *, #38, .F. ) ;
#559 = EDGE_LOOP ( 'NONE', ( #190, #713, #124, #882 ) ) ;
#560 =( GEOMETRIC_REPRESENTATION_CONTEXT ( 3 ) GLOBAL_UNCERTAINTY_ASSIGNED_CONTEXT ( ( #769 ) ) GLOBAL_UNIT_ASSIGNED_CONTEXT ( ( #583, #363, #727 ) ) REPRESENTATION_CONTEXT ( 'NONE', 'WORKASPACE' ) );
#561 = CARTESIAN_POINT ( 'NONE',  ( -1.199999999999998179, 0.0000000000000000000, 0.7499999999999993339 ) ) ;
#562 = SURFACE_SIDE_STYLE ('',( #339 ) ) ;
#563 = DIRECTION ( 'NONE',  ( 1.000000000000000000, 0.0000000000000000000, 2.168404344971008868E-16 ) ) ;
#564 = AXIS2_PLACEMENT_3D ( 'NONE', #46, #563, #931 ) ;
#565 = FACE_OUTER_BOUND ( 'NONE', #478, .T. ) ;
#566 = FACE_OUTER_BOUND ( 'NONE', #813, .T. ) ;
#567 = LINE ( 'NONE', #610, #522 ) ;
#568 = MANIFOLD_SOLID_BREP ( '??2', #708 ) ;
#569 = FACE_OUTER_BOUND ( 'NONE', #873, .T. ) ;
#570 = VERTEX_POINT ( 'NONE', #209 ) ;
#571 = EDGE_CURVE ( 'NONE', #926, #579, #941, .T. ) ;
#572 = CARTESIAN_POINT ( 'NONE',  ( -1.399999999999998579, 1.500000000000000000, 1.749999999999999334 ) ) ;
#573 = MECHANICAL_DESIGN_GEOMETRIC_PRESENTATION_REPRESENTATION (  '', ( #515 ), #72 ) ;
#574 = DIRECTION ( 'NONE',  ( 0.0000000000000000000, 0.0000000000000000000, -1.000000000000000000 ) ) ;
#575 =( NAMED_UNIT ( * ) PLANE_ANGLE_UNIT ( ) SI_UNIT ( $, .RADIAN. ) );
#576 = PRESENTATION_STYLE_ASSIGNMENT (( #328 ) ) ;
#577 = FACE_BOUND ( 'NONE', #382, .T. ) ;
#578 = CIRCLE ( 'NONE', #106, 0.7334495225046856470 ) ;
#579 = VERTEX_POINT ( 'NONE', #888 ) ;
#580 = VERTEX_POINT ( 'NONE', #287 ) ;
#581 = CARTESIAN_POINT ( 'NONE',  ( 0.0000000000000000000, 5.142699677826972682, 0.0000000000000000000 ) ) ;
#582 = ADVANCED_FACE ( 'NONE', ( #772 ), #71, .F. ) ;
#583 =( LENGTH_UNIT ( ) NAMED_UNIT ( * ) SI_UNIT ( .MILLI., .METRE. ) );
#584 = AXIS2_PLACEMENT_3D ( 'NONE', #874, #279, #944 ) ;
#585 = CARTESIAN_POINT ( 'NONE',  ( -1.199999999999998401, 0.0000000000000000000, 1.749999999999999334 ) ) ;
#586 = DIRECTION ( 'NONE',  ( 0.0000000000000000000, 0.0000000000000000000, 1.000000000000000000 ) ) ;
#587 = DIRECTION ( 'NONE',  ( 0.0000000000000000000, 0.0000000000000000000, 1.000000000000000000 ) ) ;
#588 = EDGE_CURVE ( 'NONE', #751, #754, #555, .T. ) ;
#589 = VECTOR ( 'NONE', #257, 1000.000000000000000 ) ;
#590 = VECTOR ( 'NONE', #662, 1000.000000000000000 ) ;
#591 = CARTESIAN_POINT ( 'NONE',  ( -1.199999999999998401, 0.0000000000000000000, 1.749999999999999334 ) ) ;
#592 = ORIENTED_EDGE ( 'NONE', *, *, #817, .T. ) ;
#593 = DIRECTION ( 'NONE',  ( 0.0000000000000000000, -1.000000000000000000, 0.0000000000000000000 ) ) ;
#594 = VERTEX_POINT ( 'NONE', #198 ) ;
#595 = EDGE_LOOP ( 'NONE', ( #667, #733, #784, #114 ) ) ;
#596 = VERTEX_POINT ( 'NONE', #880 ) ;
#597 = EDGE_CURVE ( 'NONE', #859, #811, #353, .T. ) ;
#598 = DIRECTION ( 'NONE',  ( 0.0000000000000000000, 0.0000000000000000000, -1.000000000000000000 ) ) ;
#599 = ADVANCED_FACE ( 'NONE', ( #832, #577 ), #664, .T. ) ;
#600 = AXIS2_PLACEMENT_3D ( 'NONE', #281, #425, #511 ) ;
#601 =( LENGTH_UNIT ( ) NAMED_UNIT ( * ) SI_UNIT ( .MILLI., .METRE. ) );
#602 = DIRECTION ( 'NONE',  ( 0.0000000000000000000, 0.0000000000000000000, 1.000000000000000000 ) ) ;
#603 = PLANE ( 'NONE',  #521 ) ;
#604 = DIRECTION ( 'NONE',  ( 0.0000000000000000000, -1.000000000000000000, 0.0000000000000000000 ) ) ;
#605 =( NAMED_UNIT ( * ) PLANE_ANGLE_UNIT ( ) SI_UNIT ( $, .RADIAN. ) );
#606 = ORIENTED_EDGE ( 'NONE', *, *, #438, .T. ) ;
#607 = DIRECTION ( 'NONE',  ( -0.0000000000000000000, 1.000000000000000000, -0.0000000000000000000 ) ) ;
#608 = DIRECTION ( 'NONE',  ( 0.0000000000000000000, 0.0000000000000000000, -1.000000000000000000 ) ) ;
#609 = ORIENTED_EDGE ( 'NONE', *, *, #334, .T. ) ;
#610 = CARTESIAN_POINT ( 'NONE',  ( 8.982166100715179064E-17, -2.274508524084394079, -0.7334495225046856470 ) ) ;
#611 = DIRECTION ( 'NONE',  ( -0.0000000000000000000, 1.000000000000000000, -0.0000000000000000000 ) ) ;
#612 = CARTESIAN_POINT ( 'NONE',  ( 0.0000000000000000000, 1.500000000000000000, 0.0000000000000000000 ) ) ;
#613 = DIRECTION ( 'NONE',  ( -1.000000000000000000, 0.0000000000000000000, -0.0000000000000000000 ) ) ;
#614 = SURFACE_SIDE_STYLE ('',( #330 ) ) ;
#615 = LINE ( 'NONE', #318, #267 ) ;
#616 = CYLINDRICAL_SURFACE ( 'NONE', #768, 1.287888822008752099 ) ;
#617 = DIRECTION ( 'NONE',  ( -0.0000000000000000000, 1.000000000000000000, -0.0000000000000000000 ) ) ;
#618 = FACE_OUTER_BOUND ( 'NONE', #331, .T. ) ;
#619 = AXIS2_PLACEMENT_3D ( 'NONE', #896, #828, #824 ) ;
#620 = EDGE_LOOP ( 'NONE', ( #848, #5 ) ) ;
#621 = ORIENTED_EDGE ( 'NONE', *, *, #538, .F. ) ;
#622 = FILL_AREA_STYLE ('',( #390 ) ) ;
#623 = EDGE_CURVE ( 'NONE', #909, #244, #865, .T. ) ;
#624 = CARTESIAN_POINT ( 'NONE',  ( 0.0000000000000000000, -0.2000000000000000944, 0.0000000000000000000 ) ) ;
#625 = DIRECTION ( 'NONE',  ( -0.0000000000000000000, -1.000000000000000000, -0.0000000000000000000 ) ) ;
#626 = PRESENTATION_LAYER_ASSIGNMENT (  '', '', ( #416 ) ) ;
#627 = CARTESIAN_POINT ( 'NONE',  ( 0.0000000000000000000, 0.0000000000000000000, 0.0000000000000000000 ) ) ;
#628 = EDGE_CURVE ( 'NONE', #333, #754, #224, .T. ) ;
#629 = VECTOR ( 'NONE', #378, 1000.000000000000000 ) ;
#630 = COLOUR_RGB ( '',1.000000000000000000, 1.000000000000000000, 1.000000000000000000 ) ;
#631 = CARTESIAN_POINT ( 'NONE',  ( 1.200000000000001954, -0.1500000000000000222, 1.749999999999999334 ) ) ;
#632 = VERTEX_POINT ( 'NONE', #440 ) ;
#633 =( GEOMETRIC_REPRESENTATION_CONTEXT ( 3 ) GLOBAL_UNCERTAINTY_ASSIGNED_CONTEXT ( ( #151 ) ) GLOBAL_UNIT_ASSIGNED_CONTEXT ( ( #659, #504, #503 ) ) REPRESENTATION_CONTEXT ( 'NONE', 'WORKASPACE' ) );
#634 = ORIENTED_EDGE ( 'NONE', *, *, #628, .T. ) ;
#635 =( NAMED_UNIT ( * ) SI_UNIT ( $, .STERADIAN. ) SOLID_ANGLE_UNIT ( ) );
#636 = DIRECTION ( 'NONE',  ( 0.0000000000000000000, 0.0000000000000000000, 1.000000000000000000 ) ) ;
#637 = AXIS2_PLACEMENT_3D ( 'NONE', #736, #359, #284 ) ;
#638 = CARTESIAN_POINT ( 'NONE',  ( -1.399999999999998579, 1.500000000000000000, 1.749999999999999334 ) ) ;
#639 = COLOUR_RGB ( '',1.000000000000000000, 1.000000000000000000, 1.000000000000000000 ) ;
#640 = PRESENTATION_STYLE_ASSIGNMENT (( #761 ) ) ;
#641 = CIRCLE ( 'NONE', #881, 0.04999999999999991257 ) ;
#642 = EDGE_CURVE ( 'NONE', #372, #644, #377, .T. ) ;
#643 = CARTESIAN_POINT ( 'NONE',  ( -1.399999999999998579, 1.500000000000000000, -1.750000000000000666 ) ) ;
#644 = VERTEX_POINT ( 'NONE', #661 ) ;
#645 = ORIENTED_EDGE ( 'NONE', *, *, #623, .T. ) ;
#646 = EDGE_LOOP ( 'NONE', ( #123, #241, #411, #32 ) ) ;
#647 = PLANE ( 'NONE',  #798 ) ;
#648 = UNCERTAINTY_MEASURE_WITH_UNIT (LENGTH_MEASURE( 1.000000000000000082E-05 ), #219, 'distance_accuracy_value', 'NONE');
#649 = MECHANICAL_DESIGN_GEOMETRIC_PRESENTATION_REPRESENTATION (  '', ( #712 ), #163 ) ;
#650 = DIRECTION ( 'NONE',  ( -0.0000000000000000000, -1.000000000000000000, -0.0000000000000000000 ) ) ;
#651 = ORIENTED_EDGE ( 'NONE', *, *, #457, .F. ) ;
#652 = AXIS2_PLACEMENT_3D ( 'NONE', #73, #876, #422 ) ;
#653 = ORIENTED_EDGE ( 'NONE', *, *, #348, .T. ) ;
#654 = AXIS2_PLACEMENT_3D ( 'NONE', #935, #715, #409 ) ;
#655 = CARTESIAN_POINT ( 'NONE',  ( 0.0000000000000000000, 1.399999999999999911, 0.0000000000000000000 ) ) ;
#656 =( NAMED_UNIT ( * ) SI_UNIT ( $, .STERADIAN. ) SOLID_ANGLE_UNIT ( ) );
#657 = ADVANCED_FACE ( 'NONE', ( #933 ), #226, .T. ) ;
#658 = DIRECTION ( 'NONE',  ( 1.000000000000000000, -0.0000000000000000000, -2.168404344971008868E-16 ) ) ;
#659 =( LENGTH_UNIT ( ) NAMED_UNIT ( * ) SI_UNIT ( .MILLI., .METRE. ) );
#660 = CIRCLE ( 'NONE', #904, 1.287888822008752099 ) ;
#661 = CARTESIAN_POINT ( 'NONE',  ( 0.0000000000000000000, 1.500000000000000000, 1.287888822008752099 ) ) ;
#662 = DIRECTION ( 'NONE',  ( 2.168404344971008868E-16, 0.0000000000000000000, -1.000000000000000000 ) ) ;
#663 = ADVANCED_FACE ( 'NONE', ( #770 ), #168, .F. ) ;
#664 = PLANE ( 'NONE',  #508 ) ;
#665 = CYLINDRICAL_SURFACE ( 'NONE', #408, 0.04999999999999991257 ) ;
#666 = ORIENTED_EDGE ( 'NONE', *, *, #388, .F. ) ;
#667 = ORIENTED_EDGE ( 'NONE', *, *, #841, .T. ) ;
#668 = DIRECTION ( 'NONE',  ( 0.0000000000000000000, 0.0000000000000000000, 1.000000000000000000 ) ) ;
#669 = ADVANCED_FACE ( 'NONE', ( #40 ), #144, .T. ) ;
#670 = PRESENTATION_LAYER_ASSIGNMENT (  '', '', ( #315 ) ) ;
#671 = CARTESIAN_POINT ( 'NONE',  ( 1.577208923530673487E-16, 5.142699677826972682, 1.287888822008752099 ) ) ;
#672 = MECHANICAL_DESIGN_GEOMETRIC_PRESENTATION_REPRESENTATION (  '', ( #391 ), #540 ) ;
#673 = SURFACE_STYLE_USAGE ( .BOTH. , #446 ) ;
#674 =( NAMED_UNIT ( * ) PLANE_ANGLE_UNIT ( ) SI_UNIT ( $, .RADIAN. ) );
#675 = STYLED_ITEM ( 'NONE', ( #299 ), #2 ) ;
#676 = UNCERTAINTY_MEASURE_WITH_UNIT (LENGTH_MEASURE( 1.000000000000000082E-05 ), #317, 'distance_accuracy_value', 'NONE');
#677 = VECTOR ( 'NONE', #707, 1000.000000000000000 ) ;
#678 = PLANE ( 'NONE',  #154 ) ;
#679 = MECHANICAL_DESIGN_GEOMETRIC_PRESENTATION_REPRESENTATION (  '', ( #416 ), #869 ) ;
#680 = CARTESIAN_POINT ( 'NONE',  ( -1.199999999999998401, -0.1500000000000000222, -1.749999999999999334 ) ) ;
#681 = FACE_OUTER_BOUND ( 'NONE', #414, .T. ) ;
#682 = ORIENTED_EDGE ( 'NONE', *, *, #519, .F. ) ;
#683 = EDGE_LOOP ( 'NONE', ( #898, #548, #911, #138 ) ) ;
#684 =( NAMED_UNIT ( * ) PLANE_ANGLE_UNIT ( ) SI_UNIT ( $, .RADIAN. ) );
#685 =( NAMED_UNIT ( * ) PLANE_ANGLE_UNIT ( ) SI_UNIT ( $, .RADIAN. ) );
#686 = FILL_AREA_STYLE_COLOUR ( '', #250 ) ;
#687 = CARTESIAN_POINT ( 'NONE',  ( 1.400000000000001910, 0.0000000000000000000, 1.749999999999999334 ) ) ;
#688 = CARTESIAN_POINT ( 'NONE',  ( 0.0000000000000000000, 1.500000000000000000, 0.0000000000000000000 ) ) ;
#689 = CARTESIAN_POINT ( 'NONE',  ( -1.399999999999998579, 1.500000000000000000, 1.749999999999999334 ) ) ;
#690 = DIRECTION ( 'NONE',  ( 1.000000000000000000, 0.0000000000000000000, 0.0000000000000000000 ) ) ;
#691 = CARTESIAN_POINT ( 'NONE',  ( 0.0000000000000000000, 0.0000000000000000000, 0.0000000000000000000 ) ) ;
#692 = AXIS2_PLACEMENT_3D ( 'NONE', #294, #889, #383 ) ;
#693 = EDGE_LOOP ( 'NONE', ( #87, #384, #230, #498, #486 ) ) ;
#694 = CARTESIAN_POINT ( 'NONE',  ( -1.199999999999998401, -0.1500000000000000222, -1.749999999999999334 ) ) ;
#695 = DIRECTION ( 'NONE',  ( 0.0000000000000000000, 0.0000000000000000000, 1.000000000000000000 ) ) ;
#696 = ORIENTED_EDGE ( 'NONE', *, *, #220, .T. ) ;
#697 = EDGE_CURVE ( 'NONE', #871, #275, #852, .T. ) ;
#698 = CARTESIAN_POINT ( 'NONE',  ( 0.0000000000000000000, -2.274508524084394079, 0.0000000000000000000 ) ) ;
#699 = DIRECTION ( 'NONE',  ( 0.0000000000000000000, -0.0000000000000000000, -1.000000000000000000 ) ) ;
#700 = DIRECTION ( 'NONE',  ( 1.000000000000000000, 0.0000000000000000000, 2.168404344971008868E-16 ) ) ;
#701 =( NAMED_UNIT ( * ) PLANE_ANGLE_UNIT ( ) SI_UNIT ( $, .RADIAN. ) );
#702 = DIRECTION ( 'NONE',  ( 0.0000000000000000000, 1.000000000000000000, 0.0000000000000000000 ) ) ;
#703 = FACE_OUTER_BOUND ( 'NONE', #466, .T. ) ;
#704 = PLANE ( 'NONE',  #942 ) ;
#705 = COLOUR_RGB ( '',1.000000000000000000, 1.000000000000000000, 1.000000000000000000 ) ;
#706 = EDGE_LOOP ( 'NONE', ( #358, #164, #485, #606 ) ) ;
#707 = DIRECTION ( 'NONE',  ( -0.0000000000000000000, -1.000000000000000000, -0.0000000000000000000 ) ) ;
#708 = CLOSED_SHELL ( 'NONE', ( #807, #350, #514, #427, #362, #502, #142 ) ) ;
#709 = CARTESIAN_POINT ( 'NONE',  ( 0.0000000000000000000, 1.500000000000000000, 0.0000000000000000000 ) ) ;
#710 = VECTOR ( 'NONE', #196, 1000.000000000000000 ) ;
#711 = EDGE_LOOP ( 'NONE', ( #682, #204, #202, #108 ) ) ;
#712 = STYLED_ITEM ( 'NONE', ( #819 ), #797 ) ;
#713 = ORIENTED_EDGE ( 'NONE', *, *, #431, .F. ) ;
#714 = DIRECTION ( 'NONE',  ( 0.0000000000000000000, -1.000000000000000000, 0.0000000000000000000 ) ) ;
#715 = DIRECTION ( 'NONE',  ( -1.000000000000000000, -0.0000000000000000000, -2.168404344971008868E-16 ) ) ;
#716 = AXIS2_PLACEMENT_3D ( 'NONE', #624, #475, #541 ) ;
#717 = PLANE ( 'NONE',  #12 ) ;
#718 = AXIS2_PLACEMENT_3D ( 'NONE', #332, #115, #490 ) ;
#719 = LINE ( 'NONE', #643, #782 ) ;
#720 = FACE_OUTER_BOUND ( 'NONE', #404, .T. ) ;
#721 = FILL_AREA_STYLE ('',( #861 ) ) ;
#722 = ORIENTED_EDGE ( 'NONE', *, *, #571, .F. ) ;
#723 = ORIENTED_EDGE ( 'NONE', *, *, #491, .F. ) ;
#724 = MECHANICAL_DESIGN_GEOMETRIC_PRESENTATION_REPRESENTATION (  '', ( #899 ), #560 ) ;
#725 = CARTESIAN_POINT ( 'NONE',  ( -1.199999999999998179, -0.2000000000000000111, -0.7499999999999993339 ) ) ;
#726 = UNCERTAINTY_MEASURE_WITH_UNIT (LENGTH_MEASURE( 1.000000000000000082E-05 ), #11, 'distance_accuracy_value', 'NONE');
#727 =( NAMED_UNIT ( * ) SI_UNIT ( $, .STERADIAN. ) SOLID_ANGLE_UNIT ( ) );
#728 = SURFACE_STYLE_FILL_AREA ( #79 ) ;
#729 = FACE_OUTER_BOUND ( 'NONE', #683, .T. ) ;
#730 = DIRECTION ( 'NONE',  ( 0.0000000000000000000, 0.0000000000000000000, -1.000000000000000000 ) ) ;
#731 = ORIENTED_EDGE ( 'NONE', *, *, #802, .F. ) ;
#732 = CARTESIAN_POINT ( 'NONE',  ( 1.200000000000001954, 0.0000000000000000000, -1.749999999999999334 ) ) ;
#733 = ORIENTED_EDGE ( 'NONE', *, *, #834, .T. ) ;
#734 = DIRECTION ( 'NONE',  ( 0.0000000000000000000, 0.0000000000000000000, 1.000000000000000000 ) ) ;
#735 = EDGE_CURVE ( 'NONE', #512, #275, #105, .T. ) ;
#736 = CARTESIAN_POINT ( 'NONE',  ( 0.0000000000000000000, 1.399999999999999911, 0.0000000000000000000 ) ) ;
#737 = EDGE_CURVE ( 'NONE', #535, #751, #924, .T. ) ;
#738 = CARTESIAN_POINT ( 'NONE',  ( -1.399999999999998579, 0.0000000000000000000, 1.749999999999999334 ) ) ;
#739 = SURFACE_SIDE_STYLE ('',( #29 ) ) ;
#740 = FACE_OUTER_BOUND ( 'NONE', #706, .T. ) ;
#741 = DIRECTION ( 'NONE',  ( -0.0000000000000000000, 1.000000000000000000, -0.0000000000000000000 ) ) ;
#742 = LINE ( 'NONE', #186, #894 ) ;
#743 = ORIENTED_EDGE ( 'NONE', *, *, #388, .T. ) ;
#744 = CARTESIAN_POINT ( 'NONE',  ( -1.199999999999998401, -0.2000000000000000111, 1.749999999999999334 ) ) ;
#745 = MECHANICAL_DESIGN_GEOMETRIC_PRESENTATION_REPRESENTATION (  '', ( #66 ), #343 ) ;
#746 = DIRECTION ( 'NONE',  ( 0.0000000000000000000, 0.0000000000000000000, -1.000000000000000000 ) ) ;
#747 = CARTESIAN_POINT ( 'NONE',  ( 8.982166100715179064E-17, -0.2000000000000000944, -0.7334495225046856470 ) ) ;
#748 = DIRECTION ( 'NONE',  ( -1.000000000000000000, 0.0000000000000000000, 0.0000000000000000000 ) ) ;
#749 = VECTOR ( 'NONE', #367, 1000.000000000000000 ) ;
#750 = EDGE_CURVE ( 'NONE', #335, #347, #474, .T. ) ;
#751 = VERTEX_POINT ( 'NONE', #680 ) ;
#752 = EDGE_LOOP ( 'NONE', ( #723, #49, #651, #288 ) ) ;
#753 = FILL_AREA_STYLE ('',( #833 ) ) ;
#754 = VERTEX_POINT ( 'NONE', #21 ) ;
#755 = DIRECTION ( 'NONE',  ( -0.0000000000000000000, 1.000000000000000000, -0.0000000000000000000 ) ) ;
#756 = AXIS2_PLACEMENT_3D ( 'NONE', #709, #760, #172 ) ;
#757 = FILL_AREA_STYLE ('',( #686 ) ) ;
#758 = CARTESIAN_POINT ( 'NONE',  ( -1.399999999999998579, 1.500000000000000000, 1.749999999999999334 ) ) ;
#759 = COLOUR_RGB ( '',0.6470588235294117974, 0.6196078431372549211, 0.5882352941176470784 ) ;
#760 = DIRECTION ( 'NONE',  ( 0.0000000000000000000, -1.000000000000000000, 0.0000000000000000000 ) ) ;
#761 = SURFACE_STYLE_USAGE ( .BOTH. , #614 ) ;
#762 = VECTOR ( 'NONE', #90, 1000.000000000000000 ) ;
#763 = VERTEX_POINT ( 'NONE', #23 ) ;
#764 = PLANE ( 'NONE',  #952 ) ;
#765 = EDGE_LOOP ( 'NONE', ( #356, #183 ) ) ;
#766 = ORIENTED_EDGE ( 'NONE', *, *, #268, .T. ) ;
#767 = EDGE_CURVE ( 'NONE', #244, #333, #131, .T. ) ;
#768 = AXIS2_PLACEMENT_3D ( 'NONE', #17, #530, #608 ) ;
#769 = UNCERTAINTY_MEASURE_WITH_UNIT (LENGTH_MEASURE( 1.000000000000000082E-05 ), #583, 'distance_accuracy_value', 'NONE');
#770 = FACE_OUTER_BOUND ( 'NONE', #216, .T. ) ;
#771 = CARTESIAN_POINT ( 'NONE',  ( 0.0000000000000000000, 1.399999999999999911, 0.0000000000000000000 ) ) ;
#772 = FACE_OUTER_BOUND ( 'NONE', #510, .T. ) ;
#773 = CIRCLE ( 'NONE', #692, 0.04999999999999991257 ) ;
#774 = STYLED_ITEM ( 'NONE', ( #906 ), #599 ) ;
#775 = EDGE_LOOP ( 'NONE', ( #927, #799, #609, #645, #436 ) ) ;
#776 = APPLICATION_CONTEXT ( 'automotive_design' ) ;
#777 = ORIENTED_EDGE ( 'NONE', *, *, #597, .T. ) ;
#778 = AXIS2_PLACEMENT_3D ( 'NONE', #886, #458, #22 ) ;
#779 = CARTESIAN_POINT ( 'NONE',  ( 1.400000000000001910, 1.500000000000000000, 1.749999999999999334 ) ) ;
#780 = DIRECTION ( 'NONE',  ( 0.0000000000000000000, 1.000000000000000000, 0.0000000000000000000 ) ) ;
#781 = SHAPE_DEFINITION_REPRESENTATION ( #855, #846 ) ;
#782 = VECTOR ( 'NONE', #650, 1000.000000000000000 ) ;
#783 = VECTOR ( 'NONE', #445, 1000.000000000000000 ) ;
#784 = ORIENTED_EDGE ( 'NONE', *, *, #914, .T. ) ;
#785 = CLOSED_SHELL ( 'NONE', ( #669, #135, #599, #506, #373, #663, #2, #797, #582, #792, #803, #433 ) ) ;
#786 = ORIENTED_EDGE ( 'NONE', *, *, #697, .T. ) ;
#787 = CARTESIAN_POINT ( 'NONE',  ( -1.199999999999998179, -0.2000000000000000111, -0.7499999999999993339 ) ) ;
#788 = VERTEX_POINT ( 'NONE', #86 ) ;
#789 = EDGE_CURVE ( 'NONE', #345, #579, #492, .T. ) ;
#790 = UNCERTAINTY_MEASURE_WITH_UNIT (LENGTH_MEASURE( 1.000000000000000082E-05 ), #601, 'distance_accuracy_value', 'NONE');
#791 = CARTESIAN_POINT ( 'NONE',  ( 1.200000000000001954, 0.0000000000000000000, 0.7499999999999993339 ) ) ;
#792 = ADVANCED_FACE ( 'NONE', ( #93 ), #303, .T. ) ;
#793 = DIRECTION ( 'NONE',  ( -0.0000000000000000000, 1.000000000000000000, -0.0000000000000000000 ) ) ;
#794 = PRESENTATION_STYLE_ASSIGNMENT (( #386 ) ) ;
#795 = LINE ( 'NONE', #671, #919 ) ;
#796 = CARTESIAN_POINT ( 'NONE',  ( 0.0000000000000000000, 1.399999999999999911, 0.0000000000000000000 ) ) ;
#797 = ADVANCED_FACE ( 'NONE', ( #81, #740 ), #165, .F. ) ;
#798 = AXIS2_PLACEMENT_3D ( 'NONE', #561, #714, #51 ) ;
#799 = ORIENTED_EDGE ( 'NONE', *, *, #136, .T. ) ;
#800 = ORIENTED_EDGE ( 'NONE', *, *, #265, .F. ) ;
#801 = DIRECTION ( 'NONE',  ( 0.0000000000000000000, 1.000000000000000000, 0.0000000000000000000 ) ) ;
#802 = EDGE_CURVE ( 'NONE', #811, #859, #280, .T. ) ;
#803 = ADVANCED_FACE ( 'NONE', ( #306 ), #366, .T. ) ;
#804 = PRESENTATION_LAYER_ASSIGNMENT (  '', '', ( #712 ) ) ;
#805 = CIRCLE ( 'NONE', #716, 0.7334495225046856470 ) ;
#806 = DIRECTION ( 'NONE',  ( 0.0000000000000000000, 0.0000000000000000000, 1.000000000000000000 ) ) ;
#807 = ADVANCED_FACE ( 'NONE', ( #877 ), #397, .F. ) ;
#808 = SURFACE_STYLE_FILL_AREA ( #465 ) ;
#809 = CIRCLE ( 'NONE', #619, 1.287888822008752099 ) ;
#810 = PLANE ( 'NONE',  #584 ) ;
#811 = VERTEX_POINT ( 'NONE', #26 ) ;
#812 = FILL_AREA_STYLE ('',( #127 ) ) ;
#813 = EDGE_LOOP ( 'NONE', ( #937, #920, #786, #312 ) ) ;
#814 = CARTESIAN_POINT ( 'NONE',  ( -1.199999999999998179, -0.2000000000000000111, 0.7499999999999993339 ) ) ;
#815 = ADVANCED_FACE ( 'NONE', ( #565 ), #764, .F. ) ;
#816 =( NAMED_UNIT ( * ) SI_UNIT ( $, .STERADIAN. ) SOLID_ANGLE_UNIT ( ) );
#817 = EDGE_CURVE ( 'NONE', #763, #116, #864, .T. ) ;
#818 = SURFACE_STYLE_USAGE ( .BOTH. , #739 ) ;
#819 = PRESENTATION_STYLE_ASSIGNMENT (( #449 ) ) ;
#820 = DIRECTION ( 'NONE',  ( 0.0000000000000000000, -0.0000000000000000000, 1.000000000000000000 ) ) ;
#821 = CARTESIAN_POINT ( 'NONE',  ( 1.577208923530673487E-16, 1.399999999999999911, -1.287888822008752099 ) ) ;
#822 = VERTEX_POINT ( 'NONE', #245 ) ;
#823 = DIRECTION ( 'NONE',  ( 0.0000000000000000000, -1.000000000000000000, 0.0000000000000000000 ) ) ;
#824 = DIRECTION ( 'NONE',  ( 0.0000000000000000000, 0.0000000000000000000, 1.000000000000000000 ) ) ;
#825 = EDGE_LOOP ( 'NONE', ( #558, #858, #263, #125 ) ) ;
#826 = AXIS2_PLACEMENT_3D ( 'NONE', #8, #611, #602 ) ;
#827 = DIRECTION ( 'NONE',  ( 0.0000000000000000000, -0.0000000000000000000, -1.000000000000000000 ) ) ;
#828 = DIRECTION ( 'NONE',  ( 0.0000000000000000000, 1.000000000000000000, 0.0000000000000000000 ) ) ;
#829 =( NAMED_UNIT ( * ) SI_UNIT ( $, .STERADIAN. ) SOLID_ANGLE_UNIT ( ) );
#830 =( NAMED_UNIT ( * ) PLANE_ANGLE_UNIT ( ) SI_UNIT ( $, .RADIAN. ) );
#831 = MECHANICAL_DESIGN_GEOMETRIC_PRESENTATION_REPRESENTATION (  '', ( #315 ), #107 ) ;
#832 = FACE_OUTER_BOUND ( 'NONE', #18, .T. ) ;
#833 = FILL_AREA_STYLE_COLOUR ( '', #269 ) ;
#834 = EDGE_CURVE ( 'NONE', #148, #176, #615, .T. ) ;
#835 = ORIENTED_EDGE ( 'NONE', *, *, #136, .F. ) ;
#836 = ORIENTED_EDGE ( 'NONE', *, *, #265, .T. ) ;
#837 = DIRECTION ( 'NONE',  ( -2.168404344971008868E-16, -0.0000000000000000000, 1.000000000000000000 ) ) ;
#838 = ORIENTED_EDGE ( 'NONE', *, *, #817, .F. ) ;
#839 = DIRECTION ( 'NONE',  ( 0.0000000000000000000, 0.0000000000000000000, 1.000000000000000000 ) ) ;
#840 = CARTESIAN_POINT ( 'NONE',  ( -1.199999999999998179, -0.0000000000000000000, -0.7499999999999993339 ) ) ;
#841 = EDGE_CURVE ( 'NONE', #424, #148, #171, .T. ) ;
#842 = LINE ( 'NONE', #557, #589 ) ;
#843 = CARTESIAN_POINT ( 'NONE',  ( -1.399999999999998579, 0.0000000000000000000, 1.749999999999999334 ) ) ;
#844 = SURFACE_STYLE_FILL_AREA ( #757 ) ;
#845 = FACE_OUTER_BOUND ( 'NONE', #550, .T. ) ;
#846 = ADVANCED_BREP_SHAPE_REPRESENTATION ( 'User Library-3528', ( #545, #371, #194, #568, #718 ), #274 ) ;
#847 = ORIENTED_EDGE ( 'NONE', *, *, #571, .T. ) ;
#848 = ORIENTED_EDGE ( 'NONE', *, *, #348, .F. ) ;
#849 = AXIS2_PLACEMENT_3D ( 'NONE', #400, #27, #699 ) ;
#850 =( NAMED_UNIT ( * ) PLANE_ANGLE_UNIT ( ) SI_UNIT ( $, .RADIAN. ) );
#851 = EDGE_CURVE ( 'NONE', #372, #596, #932, .T. ) ;
#852 = LINE ( 'NONE', #532, #629 ) ;
#853 = COLOUR_RGB ( '',0.6470588235294117974, 0.6196078431372549211, 0.5882352941176470784 ) ;
#854 = PRESENTATION_LAYER_ASSIGNMENT (  '', '', ( #899 ) ) ;
#855 = PRODUCT_DEFINITION_SHAPE ( 'NONE', 'NONE',  #482 ) ;
#856 = LINE ( 'NONE', #591, #61 ) ;
#857 = DIRECTION ( 'NONE',  ( 0.0000000000000000000, -1.000000000000000000, 0.0000000000000000000 ) ) ;
#858 = ORIENTED_EDGE ( 'NONE', *, *, #893, .F. ) ;
#859 = VERTEX_POINT ( 'NONE', #30 ) ;
#860 = CLOSED_SHELL ( 'NONE', ( #208, #68, #221, #815, #657, #60, #78 ) ) ;
#861 = FILL_AREA_STYLE_COLOUR ( '', #630 ) ;
#862 =( NAMED_UNIT ( * ) SI_UNIT ( $, .STERADIAN. ) SOLID_ANGLE_UNIT ( ) );
#863 = CARTESIAN_POINT ( 'NONE',  ( -1.399999999999998579, 0.0000000000000000000, -1.750000000000000666 ) ) ;
#864 = LINE ( 'NONE', #551, #677 ) ;
#865 = LINE ( 'NONE', #732, #542 ) ;
#866 = PRESENTATION_LAYER_ASSIGNMENT (  '', '', ( #675 ) ) ;
#867 =( LENGTH_UNIT ( ) NAMED_UNIT ( * ) SI_UNIT ( .MILLI., .METRE. ) );
#868 = LINE ( 'NONE', #872, #507 ) ;
#869 =( GEOMETRIC_REPRESENTATION_CONTEXT ( 3 ) GLOBAL_UNCERTAINTY_ASSIGNED_CONTEXT ( ( #493 ) ) GLOBAL_UNIT_ASSIGNED_CONTEXT ( ( #867, #575, #656 ) ) REPRESENTATION_CONTEXT ( 'NONE', 'WORKASPACE' ) );
#870 = FACE_OUTER_BOUND ( 'NONE', #765, .T. ) ;
#871 = VERTEX_POINT ( 'NONE', #631 ) ;
#872 = CARTESIAN_POINT ( 'NONE',  ( 0.0000000000000000000, -2.274508524084394079, 0.7334495225046856470 ) ) ;
#873 = EDGE_LOOP ( 'NONE', ( #847, #85, #497, #423 ) ) ;
#874 = CARTESIAN_POINT ( 'NONE',  ( 1.200000000000001954, -0.2000000000000000111, -1.749999999999999334 ) ) ;
#875 = DIRECTION ( 'NONE',  ( 1.000000000000000000, 0.0000000000000000000, 0.0000000000000000000 ) ) ;
#876 = DIRECTION ( 'NONE',  ( 0.0000000000000000000, -1.000000000000000000, 0.0000000000000000000 ) ) ;
#877 = FACE_OUTER_BOUND ( 'NONE', #693, .T. ) ;
#878 = DIRECTION ( 'NONE',  ( 0.0000000000000000000, 0.0000000000000000000, 1.000000000000000000 ) ) ;
#879 = CIRCLE ( 'NONE', #155, 1.287888822008752099 ) ;
#880 = CARTESIAN_POINT ( 'NONE',  ( 1.577208923530673487E-16, 1.399999999999999911, -1.287888822008752099 ) ) ;
#881 = AXIS2_PLACEMENT_3D ( 'NONE', #509, #658, #878 ) ;
#882 = ORIENTED_EDGE ( 'NONE', *, *, #201, .T. ) ;
#883 = DIRECTION ( 'NONE',  ( -0.0000000000000000000, -0.0000000000000000000, 1.000000000000000000 ) ) ;
#884 = ORIENTED_EDGE ( 'NONE', *, *, #334, .F. ) ;
#885 = SURFACE_SIDE_STYLE ('',( #58 ) ) ;
#886 = CARTESIAN_POINT ( 'NONE',  ( -1.199999999999998401, -0.2000000000000000111, -1.749999999999999334 ) ) ;
#887 = EDGE_CURVE ( 'NONE', #811, #788, #212, .T. ) ;
#888 = CARTESIAN_POINT ( 'NONE',  ( 1.400000000000001910, 0.0000000000000000000, 1.749999999999999334 ) ) ;
#889 = DIRECTION ( 'NONE',  ( -1.000000000000000000, -0.0000000000000000000, 2.168404344971008868E-16 ) ) ;
#890 = LINE ( 'NONE', #488, #158 ) ;
#891 = CARTESIAN_POINT ( 'NONE',  ( 0.0000000000000000000, 1.399999999999999911, 1.287888822008752099 ) ) ;
#892 = CARTESIAN_POINT ( 'NONE',  ( -1.399999999999998579, 1.500000000000000000, 1.749999999999999334 ) ) ;
#893 = EDGE_CURVE ( 'NONE', #50, #205, #805, .T. ) ;
#894 = VECTOR ( 'NONE', #349, 1000.000000000000000 ) ;
#895 = LINE ( 'NONE', #687, #762 ) ;
#896 = CARTESIAN_POINT ( 'NONE',  ( 0.0000000000000000000, 1.399999999999999911, 0.0000000000000000000 ) ) ;
#897 = ORIENTED_EDGE ( 'NONE', *, *, #767, .T. ) ;
#898 = ORIENTED_EDGE ( 'NONE', *, *, #930, .T. ) ;
#899 = STYLED_ITEM ( 'NONE', ( #420 ), #568 ) ;
#900 = ORIENTED_EDGE ( 'NONE', *, *, #484, .T. ) ;
#901 = DIRECTION ( 'NONE',  ( -0.0000000000000000000, 1.000000000000000000, -0.0000000000000000000 ) ) ;
#902 =( LENGTH_UNIT ( ) NAMED_UNIT ( * ) SI_UNIT ( .MILLI., .METRE. ) );
#903 = CARTESIAN_POINT ( 'NONE',  ( 1.200000000000001954, -0.2000000000000000111, -0.7499999999999993339 ) ) ;
#904 = AXIS2_PLACEMENT_3D ( 'NONE', #796, #954, #806 ) ;
#905 = DIRECTION ( 'NONE',  ( -2.168404344971008868E-16, -0.0000000000000000000, 1.000000000000000000 ) ) ;
#906 = PRESENTATION_STYLE_ASSIGNMENT (( #673 ) ) ;
#907 = LINE ( 'NONE', #272, #544 ) ;
#908 = EDGE_CURVE ( 'NONE', #570, #534, #473, .T. ) ;
#909 = VERTEX_POINT ( 'NONE', #316 ) ;
#910 = CARTESIAN_POINT ( 'NONE',  ( -1.199999999999998401, -0.2000000000000000111, 1.699999999999999512 ) ) ;
#911 = ORIENTED_EDGE ( 'NONE', *, *, #401, .T. ) ;
#912 = AXIS2_PLACEMENT_3D ( 'NONE', #309, #823, #827 ) ;
#913 = DIRECTION ( 'NONE',  ( 0.0000000000000000000, -1.000000000000000000, 0.0000000000000000000 ) ) ;
#914 = EDGE_CURVE ( 'NONE', #176, #75, #429, .T. ) ;
#915 = FILL_AREA_STYLE_COLOUR ( '', #180 ) ;
#916 = CARTESIAN_POINT ( 'NONE',  ( 0.0000000000000000000, 5.142699677826972682, -1.287888822008752099 ) ) ;
#917 = LINE ( 'NONE', #528, #28 ) ;
#918 = PLANE ( 'NONE',  #849 ) ;
#919 = VECTOR ( 'NONE', #518, 1000.000000000000000 ) ;
#920 = ORIENTED_EDGE ( 'NONE', *, *, #352, .T. ) ;
#921 = ORIENTED_EDGE ( 'NONE', *, *, #735, .T. ) ;
#922 = ORIENTED_EDGE ( 'NONE', *, *, #841, .F. ) ;
#923 = DIRECTION ( 'NONE',  ( 0.0000000000000000000, 1.000000000000000000, 0.0000000000000000000 ) ) ;
#924 = LINE ( 'NONE', #694, #327 ) ;
#925 = ORIENTED_EDGE ( 'NONE', *, *, #418, .F. ) ;
#926 = VERTEX_POINT ( 'NONE', #843 ) ;
#927 = ORIENTED_EDGE ( 'NONE', *, *, #914, .F. ) ;
#928 = PRODUCT_CONTEXT ( 'NONE', #479, 'mechanical' ) ;
#929 = MECHANICAL_DESIGN_GEOMETRIC_PRESENTATION_REPRESENTATION (  '', ( #472 ), #385 ) ;
#930 = EDGE_CURVE ( 'NONE', #264, #335, #25, .T. ) ;
#931 = DIRECTION ( 'NONE',  ( 0.0000000000000000000, 0.0000000000000000000, 1.000000000000000000 ) ) ;
#932 = CIRCLE ( 'NONE', #307, 1.287888822008752099 ) ;
#933 = FACE_OUTER_BOUND ( 'NONE', #595, .T. ) ;
#934 = FACE_OUTER_BOUND ( 'NONE', #775, .T. ) ;
#935 = CARTESIAN_POINT ( 'NONE',  ( -1.199999999999998401, -0.1500000000000000222, 1.699999999999999512 ) ) ;
#936 = EDGE_CURVE ( 'NONE', #763, #632, #842, .T. ) ;
#937 = ORIENTED_EDGE ( 'NONE', *, *, #256, .F. ) ;
#938 = DIRECTION ( 'NONE',  ( -0.0000000000000000000, 1.000000000000000000, -0.0000000000000000000 ) ) ;
#939 = PRODUCT ( 'User Library-3528', 'User Library-3528', '', ( #928 ) ) ;
#940 = DIRECTION ( 'NONE',  ( -0.0000000000000000000, 1.000000000000000000, -0.0000000000000000000 ) ) ;
#941 = LINE ( 'NONE', #738, #749 ) ;
#942 = AXIS2_PLACEMENT_3D ( 'NONE', #246, #100, #690 ) ;
#943 = LINE ( 'NONE', #572, #710 ) ;
#944 = DIRECTION ( 'NONE',  ( 2.168404344971008868E-16, 0.0000000000000000000, 1.000000000000000000 ) ) ;
#945 = ORIENTED_EDGE ( 'NONE', *, *, #623, .F. ) ;
#946 = CARTESIAN_POINT ( 'NONE',  ( 1.400000000000001910, 1.500000000000000000, 1.749999999999999334 ) ) ;
#947 = ORIENTED_EDGE ( 'NONE', *, *, #336, .T. ) ;
#948 = EDGE_CURVE ( 'NONE', #822, #644, #249, .T. ) ;
#949 = ORIENTED_EDGE ( 'NONE', *, *, #268, .F. ) ;
#950 = EDGE_CURVE ( 'NONE', #453, #264, #890, .T. ) ;
#951 = DIRECTION ( 'NONE',  ( -1.000000000000000000, 0.0000000000000000000, 0.0000000000000000000 ) ) ;
#952 = AXIS2_PLACEMENT_3D ( 'NONE', #254, #177, #539 ) ;
#953 = FILL_AREA_STYLE ('',( #211 ) ) ;
#954 = DIRECTION ( 'NONE',  ( 0.0000000000000000000, 1.000000000000000000, 0.0000000000000000000 ) ) ;
#955 = SURFACE_STYLE_FILL_AREA ( #213 ) ;
ENDSEC;
END-ISO-10303-21;
