ISO-10303-21;
HEADER;
FILE_DESCRIPTION (( 'STEP AP203' ),
    '1' );
FILE_NAME ('M2X6-0726-00-7.STEP',
    '2019-07-27T03:55:13',
    ( '' ),
    ( '' ),
    'SwSTEP 2.0',
    'SolidWorks 2018',
    '' );
FILE_SCHEMA (( 'CONFIG_CONTROL_DESIGN' ));
ENDSEC;

DATA;
#1 = DIRECTION ( 'NONE',  ( 0.6063751245828343794, -0.7071067812870330815, 0.3637433272859367794 ) ) ;
#2 = CARTESIAN_POINT ( 'NONE',  ( -16.99100240840133225, 11.87984271951953552, 53.72510911322449090 ) ) ;
#3 = CARTESIAN_POINT ( 'NONE',  ( -16.93421021791733239, 11.87984257256578680, 54.00871315316022958 ) ) ;
#4 = DATE_TIME_ROLE ( 'classification_date' ) ;
#5 = ORIENTED_EDGE ( 'NONE', *, *, #181, .F. ) ;
#6 = CARTESIAN_POINT ( 'NONE',  ( -18.43913533817068640, 11.87984272218389670, 52.61238544171518328 ) ) ;
#7 = CARTESIAN_POINT ( 'NONE',  ( -17.27982107358498709, 11.87984277504089903, 53.18892910894259529 ) ) ;
#8 = CARTESIAN_POINT ( 'NONE',  ( -19.45992300860856261, 11.07984277981418053, 52.40200679271614348 ) ) ;
#9 = AXIS2_PLACEMENT_3D ( 'NONE', #86, #74, #493 ) ;
#10 = ORIENTED_EDGE ( 'NONE', *, *, #80, .F. ) ;
#11 = VERTEX_POINT ( 'NONE', #400 ) ;
#12 = CARTESIAN_POINT ( 'NONE',  ( -19.45992300860856261, 10.96268549228880040, 52.40200679271614348 ) ) ;
#13 = DIRECTION ( 'NONE',  ( 0.0000000000000000000, -1.000000000000000000, 0.0000000000000000000 ) ) ;
#14 = DIRECTION ( 'NONE',  ( -0.0000000000000000000, 1.000000000000000000, -0.0000000000000000000 ) ) ;
#15 = LOCAL_TIME ( 11, 55, 13.00000000000000000, #638 ) ;
#16 = DIRECTION ( 'NONE',  ( -0.6063751245828341574, -0.7071067812870333036, -0.3637433272859367794 ) ) ;
#17 = ORIENTED_EDGE ( 'NONE', *, *, #577, .F. ) ;
#18 = DIRECTION ( 'NONE',  ( -0.8529935924825594595, 0.0000000000000000000, -0.5219213841027185996 ) ) ;
#19 = CARTESIAN_POINT ( 'NONE',  ( -18.48376061834327189, 10.87984277981418124, 56.10738600294870793 ) ) ;
#20 = CARTESIAN_POINT ( 'NONE',  ( -19.96831527385611338, 11.79789183319989299, 53.26190289462144989 ) ) ;
#21 = CONICAL_SURFACE ( 'NONE', #502, 0.9999999999763543590, 0.7853981632553403980 ) ;
#22 = ORIENTED_EDGE ( 'NONE', *, *, #133, .T. ) ;
#23 = CARTESIAN_POINT ( 'NONE',  ( -19.37579529381293142, 11.07984277981418231, 55.67596718588821147 ) ) ;
#24 = ORIENTED_EDGE ( 'NONE', *, *, #133, .F. ) ;
#25 = CARTESIAN_POINT ( 'NONE',  ( -18.73125181734433653, 10.87984277981418124, 57.61464296889811010 ) ) ;
#26 = CARTESIAN_POINT ( 'NONE',  ( -19.33312041209712717, 17.67984277981420149, 53.66085457012185600 ) ) ;
#27 = DIRECTION ( 'NONE',  ( 0.0000000000000000000, -1.000000000000000000, 0.0000000000000000000 ) ) ;
#28 = PLANE ( 'NONE',  #491 ) ;
#29 = COORDINATED_UNIVERSAL_TIME_OFFSET ( 8, 0, .AHEAD. ) ;
#30 = ORIENTED_EDGE ( 'NONE', *, *, #261, .T. ) ;
#31 = DIRECTION ( 'NONE',  ( 0.5219213841027213752, 0.0000000000000000000, -0.8529935924825575722 ) ) ;
#32 = ORIENTED_EDGE ( 'NONE', *, *, #608, .F. ) ;
#33 = CARTESIAN_POINT ( 'NONE',  ( -19.70064156603078942, 10.87984277981417947, 53.20425741438846501 ) ) ;
#34 = CARTESIAN_POINT ( 'NONE',  ( -20.26336504542236838, 11.67984277981418018, 55.13296878420901947 ) ) ;
#35 = ADVANCED_FACE ( 'NONE', ( #223 ), #633, .T. ) ;
#36 = B_SPLINE_CURVE_WITH_KNOTS ( 'NONE', 3,
 ( #470, #260, #97, #365, #371, #617, #6, #424, #315, #199, #146, #571, #374, #623, #614, #103, #466, #663, #306, #7, #144, #420, #419, #471, #311, #516, #517, #317, #150, #522, #259, #524, #202, #49, #255, #566, #2, #102, #570, #368, #619, #615, #3, #54, #370, #149, #426, #518, #256, #105, #472, #154, #207, #625, #628, #434, #624, #61 ),
 .UNSPECIFIED., .F., .F.,
 ( 4, 2, 2, 2, 2, 2, 2, 2, 2, 1, 2, 2, 2, 2, 2, 1, 1, 2, 2, 2, 2, 2, 2, 1, 2, 2, 2, 2, 2, 2, 4 ),
 ( 0.002883911132814000536, 0.1275234222412679475, 0.2521629333497218961, 0.3768024444581759003, 0.4391222000124032077, 0.4702820777895175275, 0.5014419555666319583, 0.5637617111208566012, 0.5949215888979687561, 0.6105015277865232237, 0.6143965125086622292, 0.6182914972308012347, 0.6260814666750681434, 0.6572413444521427728, 0.6611363291742760051, 0.6650313138964092374, 0.6728212833406800319, 0.6884012222292181793, 0.7039811611177563266, 0.7195611000062944740, 0.7507209777833706577, 0.7818808555604469523, 0.7896708250047163036, 0.7974607944489855438, 0.8130407333375240242, 0.8442006111146012071, 0.8753604888916782789, 0.8909404277802167593, 0.9065203666687552397, 0.9376802444458365304, 1.000000000000000000 ),
 .UNSPECIFIED. ) ;
#37 = CARTESIAN_POINT ( 'NONE',  ( -18.47557648701165078, 11.87984277981417947, 54.17526531680119461 ) ) ;
#38 = APPROVAL_PERSON_ORGANIZATION ( #385, #464, #205 ) ;
#39 = CIRCLE ( 'NONE', #174, 1.750000000000000888 ) ;
#40 = CARTESIAN_POINT ( 'NONE',  ( -17.14477042934441542, 10.87984277981418124, 54.96991308072459503 ) ) ;
#41 = ORIENTED_EDGE ( 'NONE', *, *, #47, .T. ) ;
#42 = DIRECTION ( 'NONE',  ( -0.0000000000000000000, 1.000000000000000000, -0.0000000000000000000 ) ) ;
#43 = ADVANCED_FACE ( 'NONE', ( #640 ), #530, .T. ) ;
#44 = DIRECTION ( 'NONE',  ( 0.5144107467435862224, 0.0000000000000000000, -0.8575439251925850437 ) ) ;
#45 = CARTESIAN_POINT ( 'NONE',  ( -19.96831527385612404, 11.67984277981418195, 53.26190289462145699 ) ) ;
#46 = DIRECTION ( 'NONE',  ( 1.859501973435059789E-16, -1.000000000000000000, 1.115450498364955730E-16 ) ) ;
#47 = EDGE_CURVE ( 'NONE', #595, #403, #152, .T. ) ;
#48 = CIRCLE ( 'NONE', #369, 1.000000000000001554 ) ;
#49 = CARTESIAN_POINT ( 'NONE',  ( -17.05614449660500753, 11.87984254068997458, 53.55098628173512765 ) ) ;
#50 = VERTEX_POINT ( 'NONE', #642 ) ;
#51 = APPROVAL_STATUS ( 'not_yet_approved' ) ;
#52 = CARTESIAN_POINT ( 'NONE',  ( -19.80641255874106932, 10.87984277981418124, 53.38066758755699937 ) ) ;
#53 = CARTESIAN_POINT ( 'NONE',  ( -19.80967355320721524, 10.87984277981418124, 53.38616034386809872 ) ) ;
#54 = CARTESIAN_POINT ( 'NONE',  ( -16.93026687025398402, 11.87984251722392948, 54.04624623367417513 ) ) ;
#55 = FACE_OUTER_BOUND ( 'NONE', #131, .T. ) ;
#56 = EDGE_CURVE ( 'NONE', #76, #11, #632, .T. ) ;
#57 = CARTESIAN_POINT ( 'NONE',  ( -17.14871736215005171, 11.87984277981418302, 54.97649278045295063 ) ) ;
#58 = VERTEX_POINT ( 'NONE', #344 ) ;
#59 = APPROVAL_ROLE ( '' ) ;
#60 = CARTESIAN_POINT ( 'NONE',  ( -16.54345579931609933, 10.87984277981418124, 54.18344946130829243 ) ) ;
#61 = CARTESIAN_POINT ( 'NONE',  ( -17.14638340296314922, 11.87984277981417947, 54.97260197425379857 ) ) ;
#62 = CARTESIAN_POINT ( 'NONE',  ( -16.90497607635987265, 10.87984277981417947, 53.30341554702392415 ) ) ;
#63 = FACE_OUTER_BOUND ( 'NONE', #462, .T. ) ;
#64 = VERTEX_POINT ( 'NONE', #281 ) ;
#65 = DIRECTION ( 'NONE',  ( 0.5144107467435894421, 0.0000000000000000000, -0.8575439251925831563 ) ) ;
#66 = CARTESIAN_POINT ( 'NONE',  ( -18.47557648701165078, 11.87984277981417947, 54.17526531680119461 ) ) ;
#67 = AXIS2_PLACEMENT_3D ( 'NONE', #106, #581, #269 ) ;
#68 = CARTESIAN_POINT ( 'NONE',  ( -17.04064172114987130, 10.87984277981417947, 55.02401477280700703 ) ) ;
#69 = CALENDAR_DATE ( 2019, 27, 7 ) ;
#70 = DIRECTION ( 'NONE',  ( -0.0000000000000000000, 1.000000000000000000, -0.0000000000000000000 ) ) ;
#71 = FACE_OUTER_BOUND ( 'NONE', #381, .T. ) ;
#72 = CARTESIAN_POINT ( 'NONE',  ( -20.40769717315887277, 10.87984277981418124, 54.16708118539784778 ) ) ;
#73 = CARTESIAN_POINT ( 'NONE',  ( -18.14159042949662748, 11.67984277981418018, 50.27642532093253180 ) ) ;
#74 = DIRECTION ( 'NONE',  ( 0.0000000000000000000, -1.000000000000000000, 0.0000000000000000000 ) ) ;
#75 = CIRCLE ( 'NONE', #120, 1.749999999999998446 ) ;
#76 = VERTEX_POINT ( 'NONE', #284 ) ;
#77 = CARTESIAN_POINT ( 'NONE',  ( -16.97969672772292071, 10.87984279571930024, 54.59401345926008986 ) ) ;
#78 = ORIENTED_EDGE ( 'NONE', *, *, #47, .F. ) ;
#79 = CARTESIAN_POINT ( 'NONE',  ( -17.15507054738777981, 11.87983360428837187, 54.98324358744505247 ) ) ;
#80 = EDGE_CURVE ( 'NONE', #513, #333, #494, .T. ) ;
#81 = CARTESIAN_POINT ( 'NONE',  ( -17.50821729276353622, 10.87984295459389728, 52.94703315021270384 ) ) ;
#82 = CARTESIAN_POINT ( 'NONE',  ( -19.89677289312036024, 11.88096437098279878, 53.30567754744966891 ) ) ;
#83 = DIRECTION ( 'NONE',  ( 0.0000000000000000000, -1.000000000000000000, 0.0000000000000000000 ) ) ;
#84 = AXIS2_PLACEMENT_3D ( 'NONE', #547, #237, #599 ) ;
#85 = PRODUCT ( 'M2X6-0726-00-7', 'M2X6-0726-00-7', '', ( #193 ) ) ;
#86 = CARTESIAN_POINT ( 'NONE',  ( -18.47557648701165078, 11.87984277981417947, 54.17526531680119461 ) ) ;
#87 = CARTESIAN_POINT ( 'NONE',  ( -18.47557648701165078, 17.67984277971294915, 54.17526531680119461 ) ) ;
#88 = ADVANCED_FACE ( 'NONE', ( #392 ), #379, .T. ) ;
#89 = CARTESIAN_POINT ( 'NONE',  ( -19.38893890906626183, 11.79700006733956208, 55.66800410372223951 ) ) ;
#90 = CARTESIAN_POINT ( 'NONE',  ( -19.34570152591460257, 11.87984277981418302, 55.59733980079388260 ) ) ;
#91 = CARTESIAN_POINT ( 'NONE',  ( -18.47557648701165078, 11.67984277981418195, 54.17526531680119461 ) ) ;
#92 = CARTESIAN_POINT ( 'NONE',  ( -20.40735841786403526, 11.87984277981418124, 54.13817222380987459 ) ) ;
#93 = COORDINATED_UNIVERSAL_TIME_OFFSET ( 8, 0, .AHEAD. ) ;
#94 = AXIS2_PLACEMENT_3D ( 'NONE', #246, #459, #604 ) ;
#95 = DIRECTION ( 'NONE',  ( -0.0000000000000000000, 1.000000000000000000, -0.0000000000000000000 ) ) ;
#96 = ORIENTED_EDGE ( 'NONE', *, *, #655, .T. ) ;
#97 = CARTESIAN_POINT ( 'NONE',  ( -19.55241374251041364, 11.87984275739185058, 53.04205286282270038 ) ) ;
#98 = ORIENTED_EDGE ( 'NONE', *, *, #360, .F. ) ;
#99 = CARTESIAN_POINT ( 'NONE',  ( -18.47557648701165078, 10.87984277981418124, 54.17526531680119461 ) ) ;
#100 = CARTESIAN_POINT ( 'NONE',  ( -19.80804707286937827, 10.87984277981418124, 53.38341158096346106 ) ) ;
#101 =( BOUNDED_CURVE ( )  B_SPLINE_CURVE ( 3, ( #610, #185, #132, #556 ),
 .UNSPECIFIED., .F., .F. ) 
 B_SPLINE_CURVE_WITH_KNOTS ( ( 4, 4 ),
 ( 0.002795255513717920595, 1.000000000000000000 ),
 .UNSPECIFIED. ) 
 CURVE ( )  GEOMETRIC_REPRESENTATION_ITEM ( )  RATIONAL_B_SPLINE_CURVE ( ( 1.000000000000000000, 0.3362605086567816981, 0.3362605086567816981, 1.000000000000000000 ) ) 
 REPRESENTATION_ITEM ( '' )  );
#102 = CARTESIAN_POINT ( 'NONE',  ( -16.97621667122562528, 11.87984272906860994, 53.77849857210510720 ) ) ;
#103 = CARTESIAN_POINT ( 'NONE',  ( -17.40274633040799657, 11.87984245071561951, 53.05498101428588598 ) ) ;
#104 = CIRCLE ( 'NONE', #358, 1.749999999999999778 ) ;
#105 = CARTESIAN_POINT ( 'NONE',  ( -16.95198806166554562, 11.87984277668803301, 54.46136619424657255 ) ) ;
#106 = CARTESIAN_POINT ( 'NONE',  ( -17.15343641866369850, 11.67984277981418195, 54.98424346216039282 ) ) ;
#107 = CARTESIAN_POINT ( 'NONE',  ( -19.34742626328320014, 10.87984277981417947, 52.60466490975442611 ) ) ;
#108 = CIRCLE ( 'NONE', #236, 1.000000000000001554 ) ;
#109 = CARTESIAN_POINT ( 'NONE',  ( -16.70231795885641901, 10.96268549228880040, 53.19091880253653670 ) ) ;
#110 = EDGE_LOOP ( 'NONE', ( #643, #422, #394, #452, #376 ) ) ;
#111 = ORIENTED_EDGE ( 'NONE', *, *, #523, .F. ) ;
#112 = DIRECTION ( 'NONE',  ( 0.5144107467435896641, 0.0000000000000000000, -0.8575439251925831563 ) ) ;
#113 = UNCERTAINTY_MEASURE_WITH_UNIT (LENGTH_MEASURE( 1.000000000000000082E-05 ), #142, 'distance_accuracy_value', 'NONE');
#114 = CARTESIAN_POINT ( 'NONE',  ( -18.46698567256744994, 11.07984277981418053, 52.14713562032528671 ) ) ;
#115 = DIRECTION ( 'NONE',  ( 0.0000000000000000000, -1.000000000000000000, 0.0000000000000000000 ) ) ;
#116 = VERTEX_POINT ( 'NONE', #340 ) ;
#117 = AXIS2_PLACEMENT_3D ( 'NONE', #99, #410, #143 ) ;
#118 = CARTESIAN_POINT ( 'NONE',  ( -20.16489126779818264, 10.87984277981418124, 55.11301416231421513 ) ) ;
#119 = CARTESIAN_POINT ( 'NONE',  ( -19.98181459599967980, 11.07984277981418231, 53.28434065161781774 ) ) ;
#120 = AXIS2_PLACEMENT_3D ( 'NONE', #245, #660, #505 ) ;
#121 = CARTESIAN_POINT ( 'NONE',  ( -20.24883500826645033, 11.07984277981418231, 55.15961184002797779 ) ) ;
#122 = DIRECTION ( 'NONE',  ( 1.859501973435059789E-16, -1.000000000000000000, 1.115450498364955730E-16 ) ) ;
#123 = LOCAL_TIME ( 11, 55, 13.00000000000000000, #402 ) ;
#124 = LINE ( 'NONE', #170, #473 ) ;
#125 = ORIENTED_EDGE ( 'NONE', *, *, #444, .F. ) ;
#126 = DIRECTION ( 'NONE',  ( 0.5144107467435892200, 0.0000000000000000000, -0.8575439251925833783 ) ) ;
#127 = CARTESIAN_POINT ( 'NONE',  ( -17.57535768021037015, 11.87984277981417947, 52.67456344771417776 ) ) ;
#128 = AXIS2_PLACEMENT_3D ( 'NONE', #176, #46, #506 ) ;
#129 = DIRECTION ( 'NONE',  ( 0.0000000000000000000, -1.000000000000000000, 0.0000000000000000000 ) ) ;
#130 = LOCAL_TIME ( 11, 55, 13.00000000000000000, #413 ) ;
#131 = EDGE_LOOP ( 'NONE', ( #141, #289, #568, #641, #475, #661 ) ) ;
#132 = CARTESIAN_POINT ( 'NONE',  ( -21.38554588593513017, 11.87984277981418124, 56.01314795538932145 ) ) ;
#133 = EDGE_CURVE ( 'NONE', #50, #521, #178, .T. ) ;
#134 = DIRECTION ( 'NONE',  ( -0.8575439251925828232, 0.0000000000000000000, -0.5144107467435901082 ) ) ;
#135 = PLANE ( 'NONE',  #117 ) ;
#136 = CARTESIAN_POINT ( 'NONE',  ( -19.89765097093139445, 11.87984277981418302, 53.30514027777903863 ) ) ;
#137 = DIRECTION ( 'NONE',  ( -0.0000000000000000000, 1.000000000000000000, -0.0000000000000000000 ) ) ;
#138 = PERSON_AND_ORGANIZATION ( #455, #147 ) ;
#139 = VECTOR ( 'NONE', #533, 1000.000000000000000 ) ;
#140 = CARTESIAN_POINT ( 'NONE',  ( -17.51787301945396180, 11.79700006733956030, 55.96305387513161378 ) ) ;
#141 = ORIENTED_EDGE ( 'NONE', *, *, #655, .F. ) ;
#142 =( LENGTH_UNIT ( ) NAMED_UNIT ( * ) SI_UNIT ( .MILLI., .METRE. ) );
#143 = DIRECTION ( 'NONE',  ( 0.5144107467435892200, 0.0000000000000000000, -0.8575439251925833783 ) ) ;
#144 = CARTESIAN_POINT ( 'NONE',  ( -17.27218143259739236, 11.87984278113926528, 53.19833825348121792 ) ) ;
#145 = EDGE_CURVE ( 'NONE', #179, #380, #75, .T. ) ;
#146 = CARTESIAN_POINT ( 'NONE',  ( -17.85142817078235211, 11.87984277299794833, 52.75552461025254303 ) ) ;
#147 = ORGANIZATION ( '未指定', '未指定', '' ) ;
#148 = VERTEX_POINT ( 'NONE', #235 ) ;
#149 = CARTESIAN_POINT ( 'NONE',  ( -16.92441916356753495, 11.87984252083251668, 54.16320270930972214 ) ) ;
#150 = CARTESIAN_POINT ( 'NONE',  ( -17.13797480574392651, 11.87984261189567903, 53.39157285645901396 ) ) ;
#151 = CC_DESIGN_SECURITY_CLASSIFICATION ( #454, ( #164 ) ) ;
#152 =( BOUNDED_CURVE ( )  B_SPLINE_CURVE ( 3, ( #499, #226, #25, #453 ),
 .UNSPECIFIED., .F., .T. ) 
 B_SPLINE_CURVE_WITH_KNOTS ( ( 4, 4 ),
 ( 0.001967719848730646245, 1.000000000000000000 ),
 .UNSPECIFIED. ) 
 CURVE ( )  GEOMETRIC_REPRESENTATION_ITEM ( )  RATIONAL_B_SPLINE_CURVE ( ( 1.000000000000000000, 0.3353939214593603113, 0.3353939214593603113, 1.000000000000000000 ) ) 
 REPRESENTATION_ITEM ( '' )  );
#153 = PRODUCT_DEFINITION_SHAPE ( 'NONE', 'NONE',  #389 ) ;
#154 = CARTESIAN_POINT ( 'NONE',  ( -16.96479175515535331, 11.87984275869727924, 54.52273693236130470 ) ) ;
#155 = PERSON_AND_ORGANIZATION_ROLE ( 'creator' ) ;
#156 = AXIS2_PLACEMENT_3D ( 'NONE', #37, #509, #600 ) ;
#157 = CARTESIAN_POINT ( 'NONE',  ( -17.58465181571193270, 10.96268549228879685, 52.66902721143091526 ) ) ;
#158 = CIRCLE ( 'NONE', #407, 1.750000000000000666 ) ;
#159 = VERTEX_POINT ( 'NONE', #504 ) ;
#160 = ADVANCED_FACE ( 'NONE', ( #198 ), #216, .T. ) ;
#161 = CARTESIAN_POINT ( 'NONE',  ( -18.46739235049369654, 10.87984277981418124, 52.24314462907181422 ) ) ;
#162 =( GEOMETRIC_REPRESENTATION_CONTEXT ( 3 ) GLOBAL_UNCERTAINTY_ASSIGNED_CONTEXT ( ( #113 ) ) GLOBAL_UNIT_ASSIGNED_CONTEXT ( ( #142, #514, #511 ) ) REPRESENTATION_CONTEXT ( 'NONE', 'WORKASPACE' ) );
#163 = CIRCLE ( 'NONE', #538, 1.749999999999999778 ) ;
#164 = PRODUCT_DEFINITION_FORMATION_WITH_SPECIFIED_SOURCE ( '任何', '', #85, .NOT_KNOWN. ) ;
#165 = ORIENTED_EDGE ( 'NONE', *, *, #56, .T. ) ;
#166 = ORIENTED_EDGE ( 'NONE', *, *, #477, .F. ) ;
#167 = CARTESIAN_POINT ( 'NONE',  ( -19.80476957106014524, 11.87984277981417947, 53.37792865934860487 ) ) ;
#168 = EDGE_CURVE ( 'NONE', #159, #148, #48, .T. ) ;
#169 = CARTESIAN_POINT ( 'NONE',  ( -18.48416729601178332, 10.96268549228880040, 56.20339501161662099 ) ) ;
#170 = CARTESIAN_POINT ( 'NONE',  ( -17.96116574026806134, 11.87984277981417947, 53.31772139160861457 ) ) ;
#171 = APPROVAL_DATE_TIME ( #573, #323 ) ;
#172 = LINE ( 'NONE', #543, #601 ) ;
#173 = VERTEX_POINT ( 'NONE', #298 ) ;
#174 = AXIS2_PLACEMENT_3D ( 'NONE', #417, #301, #44 ) ;
#175 = CARTESIAN_POINT ( 'NONE',  ( -15.31520454219989880, 11.88096437098279878, 52.20246027393530142 ) ) ;
#176 = CARTESIAN_POINT ( 'NONE',  ( -18.47557648701165078, 17.87984277977645320, 54.17526531680119461 ) ) ;
#177 = DIRECTION ( 'NONE',  ( 0.0000000000000000000, -1.000000000000000000, 0.0000000000000000000 ) ) ;
#178 = CIRCLE ( 'NONE', #510, 0.1999999999999989009 ) ;
#179 = VERTEX_POINT ( 'NONE', #240 ) ;
#180 = CARTESIAN_POINT ( 'NONE',  ( -15.15611285580770762, 11.67984277981418018, 52.10315016529202836 ) ) ;
#181 = EDGE_CURVE ( 'NONE', #148, #159, #578, .T. ) ;
#182 = VERTEX_POINT ( 'NONE', #512 ) ;
#183 = DIRECTION ( 'NONE',  ( 0.5144107467435896641, 0.0000000000000000000, -0.8575439251925831563 ) ) ;
#184 = CARTESIAN_POINT ( 'NONE',  ( -19.96831527385612048, 11.67984277981418195, 53.26190289462144278 ) ) ;
#185 = CARTESIAN_POINT ( 'NONE',  ( -18.75729280608043581, 11.87984277981418124, 57.60547965579885243 ) ) ;
#186 = AXIS2_PLACEMENT_3D ( 'NONE', #500, #27, #290 ) ;
#187 = CARTESIAN_POINT ( 'NONE',  ( -18.47557648701165078, 17.67984277981420149, 54.17526531680119461 ) ) ;
#188 = CARTESIAN_POINT ( 'NONE',  ( -18.51451277271015172, 11.67984277981418018, 56.20303942323545243 ) ) ;
#189 = VECTOR ( 'NONE', #1, 999.9999999999998863 ) ;
#190 = DIRECTION ( 'NONE',  ( -0.8529935924825495785, 0.0000000000000000000, -0.5219213841027344758 ) ) ;
#191 = ORIENTED_EDGE ( 'NONE', *, *, #168, .F. ) ;
#192 = EDGE_CURVE ( 'NONE', #182, #293, #101, .T. ) ;
#193 = MECHANICAL_CONTEXT ( 'NONE', #296, 'mechanical' ) ;
#194 = CARTESIAN_POINT ( 'NONE',  ( -17.14147987613510082, 11.07984277981418231, 54.96437002015029805 ) ) ;
#195 = CARTESIAN_POINT ( 'NONE',  ( -18.51006291148746641, 11.87984277981418124, 55.97129381107153989 ) ) ;
#196 = CC_DESIGN_PERSON_AND_ORGANIZATION_ASSIGNMENT ( #372, #356, ( #85 ) ) ;
#197 = ADVANCED_FACE ( 'NONE', ( #71 ), #21, .T. ) ;
#198 = FACE_OUTER_BOUND ( 'NONE', #436, .T. ) ;
#199 = CARTESIAN_POINT ( 'NONE',  ( -17.89811250749649574, 11.87984276958781926, 52.73589220034429559 ) ) ;
#200 = ORIENTED_EDGE ( 'NONE', *, *, #645, .T. ) ;
#201 = APPLICATION_PROTOCOL_DEFINITION ( 'international standard', 'config_control_design', 1994, #606 ) ;
#202 = CARTESIAN_POINT ( 'NONE',  ( -17.06500410192585448, 11.87984250749255644, 53.53148543172266471 ) ) ;
#203 = PERSON_AND_ORGANIZATION_ROLE ( 'design_supplier' ) ;
#204 = AXIS2_PLACEMENT_3D ( 'NONE', #646, #122, #490 ) ;
#205 = APPROVAL_ROLE ( '' ) ;
#206 = FACE_OUTER_BOUND ( 'NONE', #430, .T. ) ;
#207 = CARTESIAN_POINT ( 'NONE',  ( -16.97083671056114085, 11.87984273824896242, 54.54843109824540903 ) ) ;
#208 = ORIENTED_EDGE ( 'NONE', *, *, #282, .F. ) ;
#209 = CARTESIAN_POINT ( 'NONE',  ( -17.62682702507252586, 10.87984277981417947, 52.74033055444892426 ) ) ;
#210 = CC_DESIGN_APPROVAL ( #464, ( #164 ) ) ;
#211 = CARTESIAN_POINT ( 'NONE',  ( -19.98181459606582067, 10.96268549228879685, 53.28434065172963585 ) ) ;
#212 = FACE_OUTER_BOUND ( 'NONE', #300, .T. ) ;
#213 = ORIENTED_EDGE ( 'NONE', *, *, #299, .T. ) ;
#214 = VERTEX_POINT ( 'NONE', #406 ) ;
#215 = CARTESIAN_POINT ( 'NONE',  ( -18.47557648701165078, 17.67984277981420149, 54.17526531680119461 ) ) ;
#216 =( BOUNDED_SURFACE ( )  B_SPLINE_SURFACE ( 3, 3, ( 
 ( #338, #304, #188, #607, #34, #302, #45 ),
 ( #657, #140, #653, #89, #350, #251, #409 ),
 ( #411, #416, #561, #90, #243, #92, #136 ),
 ( #461, #605, #195, #295, #507, #602, #355 ) ),
 .UNSPECIFIED., .F., .F., .T. ) 
 B_SPLINE_SURFACE_WITH_KNOTS ( ( 4, 4 ),
 ( 4, 3, 4 ),
 ( 0.0000000000000000000, 1.000000000000000000 ),
 ( 0.0000000000000000000, 0.5000000000000000000, 1.000000000000000000 ),
 .UNSPECIFIED. ) 
 GEOMETRIC_REPRESENTATION_ITEM ( )  RATIONAL_B_SPLINE_SURFACE ( (
 ( 1.000000000000000000, 0.8047378541046059652, 0.8047378541046059652, 1.000000000000000000, 0.8047378541046059652, 0.8047378541046059652, 1.000000000000000000),
 ( 0.8047378541243658256, 0.6476030138447875784, 0.6476030138447875784, 0.8047378541243658256, 0.6476030138447875784, 0.6476030138447875784, 0.8047378541243658256),
 ( 0.8047378541243658256, 0.6476030138447875784, 0.6476030138447875784, 0.8047378541243658256, 0.6476030138447875784, 0.6476030138447875784, 0.8047378541243658256),
 ( 1.000000000000000000, 0.8047378541046059652, 0.8047378541046059652, 1.000000000000000000, 0.8047378541046059652, 0.8047378541046059652, 1.000000000000000000) ) ) 
 REPRESENTATION_ITEM ( '' )  SURFACE ( )  );
#217 = AXIS2_PLACEMENT_3D ( 'NONE', #345, #31, #501 ) ;
#218 = CARTESIAN_POINT ( 'NONE',  ( -18.47557648701165078, 11.67984277981418195, 54.17526531680119461 ) ) ;
#219 = APPROVAL_PERSON_ORGANIZATION ( #557, #323, #423 ) ;
#220 = CARTESIAN_POINT ( 'NONE',  ( -20.50370618182674320, 10.96268549228880040, 54.16667450772578718 ) ) ;
#221 = CIRCLE ( 'NONE', #598, 1.000000000000001554 ) ;
#222 = ORIENTED_EDGE ( 'NONE', *, *, #316, .T. ) ;
#223 = FACE_OUTER_BOUND ( 'NONE', #629, .T. ) ;
#224 = EDGE_CURVE ( 'NONE', #58, #595, #627, .T. ) ;
#225 = CARTESIAN_POINT ( 'NONE',  ( -16.96933837795747735, 10.96268549228879685, 55.06618998187275338 ) ) ;
#226 = CARTESIAN_POINT ( 'NONE',  ( -21.37817883307358002, 10.87984277981418124, 56.03794836255003986 ) ) ;
#227 = CARTESIAN_POINT ( 'NONE',  ( -17.05438008090294488, 11.88096437098279878, 55.04485308615272032 ) ) ;
#228 = ORIENTED_EDGE ( 'NONE', *, *, #637, .F. ) ;
#229 = CC_DESIGN_DATE_AND_TIME_ASSIGNMENT ( #585, #474, ( #389 ) ) ;
#230 = CARTESIAN_POINT ( 'NONE',  ( -18.05071742700024728, 10.87984294692697418, 52.67066752575230737 ) ) ;
#231 = EDGE_LOOP ( 'NONE', ( #271, #343, #291, #78 ) ) ;
#232 = CARTESIAN_POINT ( 'NONE',  ( -15.15611285580770762, 11.79789183319989121, 52.10315016529201415 ) ) ;
#233 =( BOUNDED_SURFACE ( )  B_SPLINE_SURFACE ( 3, 3, ( 
 ( #331, #439, #636, #635, #337, #386, #536 ),
 ( #68, #445, #19, #272, #118, #72, #534 ),
 ( #225, #486, #169, #586, #590, #220, #588 ),
 ( #278, #390, #274, #441, #121, #583, #119 ) ),
 .UNSPECIFIED., .F., .F., .T. ) 
 B_SPLINE_SURFACE_WITH_KNOTS ( ( 4, 4 ),
 ( 4, 3, 4 ),
 ( 0.0000000000000000000, 1.000000000000000000 ),
 ( 0.0000000000000000000, 0.5000000000000000000, 1.000000000000000000 ),
 .UNSPECIFIED. ) 
 GEOMETRIC_REPRESENTATION_ITEM ( )  RATIONAL_B_SPLINE_SURFACE ( (
 ( 1.000000000000000000, 0.8047378541156154919, 0.8047378541156154919, 1.000000000000000000, 0.8047378541156154919, 0.8047378541156154919, 1.000000000000000000),
 ( 0.8047378541243649375, 0.6476030138536466030, 0.6476030138536466030, 0.8047378541243649375, 0.6476030138536466030, 0.6476030138536466030, 0.8047378541243649375),
 ( 0.8047378541243649375, 0.6476030138536466030, 0.6476030138536466030, 0.8047378541243649375, 0.6476030138536466030, 0.6476030138536466030, 0.8047378541243649375),
 ( 1.000000000000000000, 0.8047378541156154919, 0.8047378541156154919, 1.000000000000000000, 0.8047378541156154919, 0.8047378541156154919, 1.000000000000000000) ) ) 
 REPRESENTATION_ITEM ( '' )  SURFACE ( )  );
#234 = CARTESIAN_POINT ( 'NONE',  ( -19.05041552535818283, 10.87984285613828028, 52.72143558841315780 ) ) ;
#235 = CARTESIAN_POINT ( 'NONE',  ( -17.96116574026806134, 11.87984277981417947, 53.31772139160861457 ) ) ;
#236 = AXIS2_PLACEMENT_3D ( 'NONE', #339, #129, #183 ) ;
#237 = DIRECTION ( 'NONE',  ( -0.0000000000000000000, 1.000000000000000000, -0.0000000000000000000 ) ) ;
#238 = CARTESIAN_POINT ( 'NONE',  ( -19.96831527385611338, 11.67984277981418195, 53.26190289462144989 ) ) ;
#239 = ORIENTED_EDGE ( 'NONE', *, *, #523, .T. ) ;
#240 = CARTESIAN_POINT ( 'NONE',  ( -19.98181459606582422, 11.07984277981418231, 53.28434065172962875 ) ) ;
#241 = EDGE_CURVE ( 'NONE', #333, #443, #36, .T. ) ;
#242 = CARTESIAN_POINT ( 'NONE',  ( -17.02348735644817879, 10.87984290028510870, 53.59592434884601175 ) ) ;
#243 = CARTESIAN_POINT ( 'NONE',  ( -20.17873347198817058, 11.87984277981418124, 55.08763235393107749 ) ) ;
#244 = CARTESIAN_POINT ( 'NONE',  ( -19.80016044442400158, 11.87984277981729164, 53.37028010127050948 ) ) ;
#245 = CARTESIAN_POINT ( 'NONE',  ( -18.47557648701165078, 11.07984277981418231, 54.17526531680119461 ) ) ;
#246 = CARTESIAN_POINT ( 'NONE',  ( 0.0000000000000000000, 0.0000000000000000000, 0.0000000000000000000 ) ) ;
#247 = ADVANCED_FACE ( 'NONE', ( #63 ), #310, .T. ) ;
#248 = EDGE_CURVE ( 'NONE', #437, #380, #620, .T. ) ;
#249 = FACE_BOUND ( 'NONE', #542, .T. ) ;
#250 = ORIENTED_EDGE ( 'NONE', *, *, #545, .T. ) ;
#251 = CARTESIAN_POINT ( 'NONE',  ( -20.50335059344263655, 11.79700006733956030, 54.13632903093272120 ) ) ;
#252 = ORIENTED_EDGE ( 'NONE', *, *, #282, .T. ) ;
#253 = DIRECTION ( 'NONE',  ( -0.8529935924825594595, 0.0000000000000000000, -0.5219213841027185996 ) ) ;
#254 = EDGE_CURVE ( 'NONE', #396, #548, #221, .T. ) ;
#255 = CARTESIAN_POINT ( 'NONE',  ( -17.03138404430433539, 11.87984262913025546, 53.61079808094640953 ) ) ;
#256 = CARTESIAN_POINT ( 'NONE',  ( -16.93989929077363854, 11.87984277717134951, 54.39104175485014281 ) ) ;
#257 = ORIENTED_EDGE ( 'NONE', *, *, #545, .F. ) ;
#258 = PERSON_AND_ORGANIZATION_ROLE ( 'creator' ) ;
#259 = CARTESIAN_POINT ( 'NONE',  ( -17.10446925588477640, 11.87984250869941327, 53.45080163972933462 ) ) ;
#260 = CARTESIAN_POINT ( 'NONE',  ( -19.69216618769746674, 11.87984277927845156, 53.19367310197878140 ) ) ;
#261 = EDGE_CURVE ( 'NONE', #11, #179, #342, .T. ) ;
#262 = CARTESIAN_POINT ( 'NONE',  ( -17.15343560667471934, 11.87984277981417947, 54.98424395838297585 ) ) ;
#263 = CALENDAR_DATE ( 2019, 27, 7 ) ;
#264 = FACE_OUTER_BOUND ( 'NONE', #497, .T. ) ;
#265 = CARTESIAN_POINT ( 'NONE',  ( -18.46698567256745349, 10.96268549228880040, 52.14713562032530092 ) ) ;
#266 = EDGE_LOOP ( 'NONE', ( #495, #222, #387, #482, #239 ) ) ;
#267 = CARTESIAN_POINT ( 'NONE',  ( -19.41332533097196489, 10.87984277981418124, 52.48595053331839466 ) ) ;
#268 = AXIS2_PLACEMENT_3D ( 'NONE', #187, #551, #283 ) ;
#269 = DIRECTION ( 'NONE',  ( 0.8529935924825543525, 0.0000000000000000000, 0.5219213841027267042 ) ) ;
#270 = DATE_AND_TIME ( #631, #352 ) ;
#271 = ORIENTED_EDGE ( 'NONE', *, *, #224, .F. ) ;
#272 = CARTESIAN_POINT ( 'NONE',  ( -19.32432594307072904, 10.87984277981417947, 55.61020008263147218 ) ) ;
#273 = AXIS2_PLACEMENT_3D ( 'NONE', #485, #330, #388 ) ;
#274 = CARTESIAN_POINT ( 'NONE',  ( -18.48416729601179398, 11.07984277981418231, 56.20339501161662810 ) ) ;
#275 = MANIFOLD_SOLID_BREP ( '输入1', #314 ) ;
#276 = APPROVAL_DATE_TIME ( #377, #464 ) ;
#277 = AXIS2_PLACEMENT_3D ( 'NONE', #564, #609, #363 ) ;
#278 = CARTESIAN_POINT ( 'NONE',  ( -16.96933837795747735, 11.07984277981418231, 55.06618998187276048 ) ) ;
#279 = ORIENTED_EDGE ( 'NONE', *, *, #80, .T. ) ;
#280 = ORIENTED_EDGE ( 'NONE', *, *, #412, .T. ) ;
#281 = CARTESIAN_POINT ( 'NONE',  ( -16.98283770016717753, 11.67984277981418195, 55.08862773898094645 ) ) ;
#282 = EDGE_CURVE ( 'NONE', #64, #182, #558, .T. ) ;
#283 = DIRECTION ( 'NONE',  ( 0.5144107467435896641, 0.0000000000000000000, -0.8575439251925831563 ) ) ;
#284 = CARTESIAN_POINT ( 'NONE',  ( -17.57535768021037015, 11.67984277981418195, 52.67456344771417776 ) ) ;
#285 = CARTESIAN_POINT ( 'NONE',  ( -19.37579529381293142, 11.67984277981418195, 55.67596718588821147 ) ) ;
#286 = DIRECTION ( 'NONE',  ( 0.0000000000000000000, -1.000000000000000000, 0.0000000000000000000 ) ) ;
#287 = EDGE_CURVE ( 'NONE', #443, #182, #457, .T. ) ;
#288 = APPROVAL_PERSON_ORGANIZATION ( #527, #529, #59 ) ;
#289 = ORIENTED_EDGE ( 'NONE', *, *, #248, .T. ) ;
#290 = DIRECTION ( 'NONE',  ( 0.5144107467435896641, 0.0000000000000000000, -0.8575439251925831563 ) ) ;
#291 = ORIENTED_EDGE ( 'NONE', *, *, #554, .F. ) ;
#292 = CARTESIAN_POINT ( 'NONE',  ( -18.47557648701165078, 11.87984277981417947, 54.17526531680119461 ) ) ;
#293 = VERTEX_POINT ( 'NONE', #167 ) ;
#294 = CARTESIAN_POINT ( 'NONE',  ( -16.96933837795747380, 11.07984277981418231, 55.06618998187276759 ) ) ;
#295 = CARTESIAN_POINT ( 'NONE',  ( -19.28455463226001854, 11.87984277981418124, 55.49740538521697886 ) ) ;
#296 = APPLICATION_CONTEXT ( 'configuration controlled 3d designs of mechanical parts and assemblies' ) ;
#297 = ORIENTED_EDGE ( 'NONE', *, *, #645, .F. ) ;
#298 = CARTESIAN_POINT ( 'NONE',  ( -19.16161162713972743, 17.87984277977645320, 53.76373671942191379 ) ) ;
#299 = EDGE_CURVE ( 'NONE', #531, #173, #308, .T. ) ;
#300 = EDGE_LOOP ( 'NONE', ( #257, #366 ) ) ;
#301 = DIRECTION ( 'NONE',  ( -0.0000000000000000000, 1.000000000000000000, -0.0000000000000000000 ) ) ;
#302 = CARTESIAN_POINT ( 'NONE',  ( -20.50335059344263655, 11.67984277981418018, 54.13632903093272120 ) ) ;
#303 = CARTESIAN_POINT ( 'NONE',  ( -17.61803256183934607, 17.67984277971294915, 54.68967606353262312 ) ) ;
#304 = CARTESIAN_POINT ( 'NONE',  ( -17.51787301945395825, 11.67984277981418018, 55.96305387513160667 ) ) ;
#305 = CARTESIAN_POINT ( 'NONE',  ( -17.14147897178576585, 10.87984277981558101, 54.96437056995646486 ) ) ;
#306 = CARTESIAN_POINT ( 'NONE',  ( -17.29906361103701329, 11.87984273974630334, 53.16552142065656739 ) ) ;
#307 = ADVANCED_FACE ( 'NONE', ( #55 ), #428, .T. ) ;
#308 = CIRCLE ( 'NONE', #273, 0.7999999999697142705 ) ;
#309 = ORIENTED_EDGE ( 'NONE', *, *, #637, .T. ) ;
#310 =( BOUNDED_SURFACE ( )  B_SPLINE_SURFACE ( 3, 3, ( 
 ( #382, #107, #324, #383, #62, #483, #574 ),
 ( #576, #267, #161, #209, #532, #60, #435 ),
 ( #211, #12, #265, #157, #109, #429, #478 ),
 ( #481, #8, #114, #528, #378, #433, #479 ) ),
 .UNSPECIFIED., .F., .F., .F. ) 
 B_SPLINE_SURFACE_WITH_KNOTS ( ( 4, 4 ),
 ( 4, 3, 4 ),
 ( 0.0000000000000000000, 1.000000000000000000 ),
 ( 0.0000000000000000000, 0.5000000000000000000, 1.000000000000000000 ),
 .UNSPECIFIED. ) 
 GEOMETRIC_REPRESENTATION_ITEM ( )  RATIONAL_B_SPLINE_SURFACE ( (
 ( 1.000000000000000000, 0.8047378531497585419, 0.8047378531497585419, 1.000000000000000000, 0.8047378531497585419, 0.8047378531497585419, 1.000000000000000000),
 ( 0.8047378541243649375, 0.6476030130763850146, 0.6476030130763850146, 0.8047378541243649375, 0.6476030130763850146, 0.6476030130763850146, 0.8047378541243649375),
 ( 0.8047378541243649375, 0.6476030130763850146, 0.6476030130763850146, 0.8047378541243649375, 0.6476030130763850146, 0.6476030130763850146, 0.8047378541243649375),
 ( 1.000000000000000000, 0.8047378531497585419, 0.8047378531497585419, 1.000000000000000000, 0.8047378531497585419, 0.8047378531497585419, 1.000000000000000000) ) ) 
 REPRESENTATION_ITEM ( '' )  SURFACE ( )  );
#311 = CARTESIAN_POINT ( 'NONE',  ( -17.24099819583782889, 11.87984277996248927, 53.23757447194362413 ) ) ;
#312 = ORIENTED_EDGE ( 'NONE', *, *, #192, .F. ) ;
#313 = CC_DESIGN_APPROVAL ( #529, ( #389 ) ) ;
#314 = CLOSED_SHELL ( 'NONE', ( #160, #247, #43, #197, #307, #476, #88, #508, #460, #35, #552, #362, #565 ) ) ;
#315 = CARTESIAN_POINT ( 'NONE',  ( -18.04071106673402269, 11.87984275794346622, 52.68398261039856578 ) ) ;
#316 = EDGE_CURVE ( 'NONE', #396, #159, #353, .T. ) ;
#317 = CARTESIAN_POINT ( 'NONE',  ( -17.14505720504187991, 11.87984263558293385, 53.37964494020015849 ) ) ;
#318 = PERSON_AND_ORGANIZATION ( #455, #147 ) ;
#319 = CARTESIAN_POINT ( 'NONE',  ( -19.37579529381293142, 11.87984277981417947, 55.67596718588821147 ) ) ;
#320 = FACE_OUTER_BOUND ( 'NONE', #110, .T. ) ;
#321 = ORIENTED_EDGE ( 'NONE', *, *, #613, .T. ) ;
#322 = ORIENTED_EDGE ( 'NONE', *, *, #287, .F. ) ;
#323 = APPROVAL ( #51, '未指定' ) ;
#324 = CARTESIAN_POINT ( 'NONE',  ( -18.46796747993250420, 10.87984277981417947, 52.37892187135110333 ) ) ;
#325 = CIRCLE ( 'NONE', #277, 0.1999999999999989009 ) ;
#326 = CARTESIAN_POINT ( 'NONE',  ( -17.14638340296314922, 11.87984277981417947, 54.97260197425379857 ) ) ;
#327 = ORIENTED_EDGE ( 'NONE', *, *, #360, .T. ) ;
#328 = EDGE_LOOP ( 'NONE', ( #228, #213, #469, #562, #166 ) ) ;
#329 = AXIS2_PLACEMENT_3D ( 'NONE', #292, #648, #541 ) ;
#330 = DIRECTION ( 'NONE',  ( 1.859501973435059789E-16, -1.000000000000000000, 1.115450498364955730E-16 ) ) ;
#331 = CARTESIAN_POINT ( 'NONE',  ( -17.14147987613510082, 10.87984277981418124, 54.96437002015029805 ) ) ;
#332 = CIRCLE ( 'NONE', #128, 0.7999999999697142705 ) ;
#333 = VERTEX_POINT ( 'NONE', #334 ) ;
#334 = CARTESIAN_POINT ( 'NONE',  ( -19.79771817970372538, 11.87984277980964265, 53.36628617755383175 ) ) ;
#335 = EDGE_LOOP ( 'NONE', ( #593, #98, #32, #165, #30, #450 ) ) ;
#336 = EDGE_CURVE ( 'NONE', #173, #548, #172, .T. ) ;
#337 = CARTESIAN_POINT ( 'NONE',  ( -20.04617689155161742, 10.87984277981417947, 55.04711509451635010 ) ) ;
#338 = CARTESIAN_POINT ( 'NONE',  ( -16.98283770001405202, 11.67984277981418195, 55.08862773873066487 ) ) ;
#339 = CARTESIAN_POINT ( 'NONE',  ( -18.47557648701165078, 17.67984277981420149, 54.17526531680119461 ) ) ;
#340 = CARTESIAN_POINT ( 'NONE',  ( -17.96116574026806134, 17.67984277981420149, 53.31772139160861457 ) ) ;
#341 = CARTESIAN_POINT ( 'NONE',  ( -18.45150747932306956, 10.87984291958306216, 52.61204045299199805 ) ) ;
#342 = CIRCLE ( 'NONE', #584, 1.749999999999996669 ) ;
#343 = ORIENTED_EDGE ( 'NONE', *, *, #412, .F. ) ;
#344 = CARTESIAN_POINT ( 'NONE',  ( -19.80476957106014524, 10.87984277981418124, 53.37792865934860487 ) ) ;
#345 = CARTESIAN_POINT ( 'NONE',  ( -19.79771655535960306, 11.67984277981418195, 53.36628717144199641 ) ) ;
#346 = CC_DESIGN_PERSON_AND_ORGANIZATION_ASSIGNMENT ( #318, #155, ( #164 ) ) ;
#347 = B_SPLINE_CURVE_WITH_KNOTS ( 'NONE', 3,
 ( #465, #354, #244, #468 ),
 .UNSPECIFIED., .F., .F.,
 ( 4, 4 ),
 ( 0.0000000000000000000, 0.002883911132814000536 ),
 .UNSPECIFIED. ) ;
#348 = DIRECTION ( 'NONE',  ( 0.0000000000000000000, -1.000000000000000000, 0.0000000000000000000 ) ) ;
#349 = CARTESIAN_POINT ( 'NONE',  ( -19.56208239216526223, 10.87984279411858246, 53.05131191740314023 ) ) ;
#350 = CARTESIAN_POINT ( 'NONE',  ( -20.26336504542236838, 11.79700006733956030, 55.13296878420901237 ) ) ;
#351 = AXIS2_PLACEMENT_3D ( 'NONE', #218, #70, #18 ) ;
#352 = LOCAL_TIME ( 11, 55, 13.00000000000000000, #93 ) ;
#353 = LINE ( 'NONE', #438, #414 ) ;
#354 = CARTESIAN_POINT ( 'NONE',  ( -19.80249316402117898, 11.87984277981418124, 53.37413379495306742 ) ) ;
#355 = CARTESIAN_POINT ( 'NONE',  ( -19.79771655535961372, 11.87984277981418124, 53.36628717144200351 ) ) ;
#356 = PERSON_AND_ORGANIZATION_ROLE ( 'design_owner' ) ;
#357 = DIRECTION ( 'NONE',  ( 1.859501973435059789E-16, -1.000000000000000000, 1.115450498364955730E-16 ) ) ;
#358 = AXIS2_PLACEMENT_3D ( 'NONE', #408, #137, #253 ) ;
#359 = CARTESIAN_POINT ( 'NONE',  ( -17.14638340296314922, 10.87984277981418124, 54.97260197425379857 ) ) ;
#360 = EDGE_CURVE ( 'NONE', #513, #437, #659, .T. ) ;
#361 = DIRECTION ( 'NONE',  ( 0.8607074908881113817, 0.0000000000000000000, 0.5090998086123108557 ) ) ;
#362 = ADVANCED_FACE ( 'NONE', ( #264 ), #233, .T. ) ;
#363 = DIRECTION ( 'NONE',  ( -0.8607074908881113817, 0.0000000000000000000, -0.5090998086123108557 ) ) ;
#364 = CIRCLE ( 'NONE', #268, 1.000000000000001554 ) ;
#365 = CARTESIAN_POINT ( 'NONE',  ( -19.22546958192330280, 11.87984272242468720, 52.80355802463654413 ) ) ;
#366 = ORIENTED_EDGE ( 'NONE', *, *, #299, .F. ) ;
#367 = ORIENTED_EDGE ( 'NONE', *, *, #224, .T. ) ;
#368 = CARTESIAN_POINT ( 'NONE',  ( -16.94560198990956223, 11.87984270569435630, 53.92241770139834500 ) ) ;
#369 = AXIS2_PLACEMENT_3D ( 'NONE', #404, #42, #553 ) ;
#370 = CARTESIAN_POINT ( 'NONE',  ( -16.92766134136814316, 11.87984249842669549, 54.08480534170236353 ) ) ;
#371 = CARTESIAN_POINT ( 'NONE',  ( -19.03840546724442007, 11.87984270934413011, 52.71677661223237976 ) ) ;
#372 = PERSON_AND_ORGANIZATION ( #455, #147 ) ;
#373 = VECTOR ( 'NONE', #286, 1000.000000000000000 ) ;
#374 = CARTESIAN_POINT ( 'NONE',  ( -17.71389538255656149, 11.87984277961225033, 52.82443406746874359 ) ) ;
#375 = PRODUCT_RELATED_PRODUCT_CATEGORY ( 'detail', '', ( #85 ) ) ;
#376 = ORIENTED_EDGE ( 'NONE', *, *, #181, .T. ) ;
#377 = DATE_AND_TIME ( #263, #520 ) ;
#378 = CARTESIAN_POINT ( 'NONE',  ( -16.70231795885641901, 11.07984277981418053, 53.19091880253654381 ) ) ;
#379 = CONICAL_SURFACE ( 'NONE', #204, 0.9999999999763543590, 0.7853981632553403980 ) ;
#380 = VERTEX_POINT ( 'NONE', #23 ) ;
#381 = EDGE_LOOP ( 'NONE', ( #250, #309, #111, #125, #549 ) ) ;
#382 = CARTESIAN_POINT ( 'NONE',  ( -19.80967309788820074, 10.87984277981418124, 53.38616061345209829 ) ) ;
#383 = CARTESIAN_POINT ( 'NONE',  ( -17.68647177814618843, 10.87984277981418124, 52.84116870918752085 ) ) ;
#384 = CARTESIAN_POINT ( 'NONE',  ( -17.14638340296314922, 10.87984277981418124, 54.97260197425379857 ) ) ;
#385 = PERSON_AND_ORGANIZATION ( #455, #147 ) ;
#386 = CARTESIAN_POINT ( 'NONE',  ( -20.27191993099074807, 10.87984277981417947, 54.16765631447726292 ) ) ;
#387 = ORIENTED_EDGE ( 'NONE', *, *, #168, .T. ) ;
#388 = DIRECTION ( 'NONE',  ( -0.8575439251925824902, 0.0000000000000000000, -0.5144107467435905523 ) ) ;
#389 = PRODUCT_DEFINITION ( '未知', '', #164, #537 ) ;
#390 = CARTESIAN_POINT ( 'NONE',  ( -17.49122996371905359, 11.07984277981418231, 55.94852383801946161 ) ) ;
#391 = CALENDAR_DATE ( 2019, 27, 7 ) ;
#392 = FACE_OUTER_BOUND ( 'NONE', #328, .T. ) ;
#393 = EDGE_CURVE ( 'NONE', #116, #148, #124, .T. ) ;
#394 = ORIENTED_EDGE ( 'NONE', *, *, #444, .T. ) ;
#395 = CARTESIAN_POINT ( 'NONE',  ( -17.04691683978393968, 10.87984278364619861, 54.78503472383762585 ) ) ;
#396 = VERTEX_POINT ( 'NONE', #634 ) ;
#397 = CARTESIAN_POINT ( 'NONE',  ( -18.47557648701165078, 17.87984277981420433, 54.17526531680119461 ) ) ;
#398 = CARTESIAN_POINT ( 'NONE',  ( -18.14159042949662393, 11.79789183319989121, 50.27642532093253891 ) ) ;
#399 = CARTESIAN_POINT ( 'NONE',  ( -17.78954134688357414, 17.87984277977645320, 54.58679391418047544 ) ) ;
#400 = CARTESIAN_POINT ( 'NONE',  ( -17.57535768021037015, 11.07984277981418231, 52.67456344771417776 ) ) ;
#401 = B_SPLINE_CURVE_WITH_KNOTS ( 'NONE', 3,
 ( #359, #40, #662, #305 ),
 .UNSPECIFIED., .F., .F.,
 ( 4, 4 ),
 ( 0.0000000000000000000, 0.002029416279109398386 ),
 .UNSPECIFIED. ) ;
#402 = COORDINATED_UNIVERSAL_TIME_OFFSET ( 8, 0, .AHEAD. ) ;
#403 = VERTEX_POINT ( 'NONE', #384 ) ;
#404 = CARTESIAN_POINT ( 'NONE',  ( -18.47557648701165078, 11.87984277981417947, 54.17526531680119461 ) ) ;
#405 = CARTESIAN_POINT ( 'NONE',  ( -18.65763958000839651, 10.87984289978949981, 52.62250956168939098 ) ) ;
#406 = CARTESIAN_POINT ( 'NONE',  ( -17.61803256192617440, 17.67984277981420149, 54.68967606348054034 ) ) ;
#407 = AXIS2_PLACEMENT_3D ( 'NONE', #91, #559, #555 ) ;
#408 = CARTESIAN_POINT ( 'NONE',  ( -18.47557648701165078, 11.67984277981418195, 54.17526531680119461 ) ) ;
#409 = CARTESIAN_POINT ( 'NONE',  ( -19.96831527385612404, 11.79700006733956208, 53.26190289462146410 ) ) ;
#410 = DIRECTION ( 'NONE',  ( 0.0000000000000000000, -1.000000000000000000, 0.0000000000000000000 ) ) ;
#411 = CARTESIAN_POINT ( 'NONE',  ( -17.05350200294602558, 11.87984277981418302, 55.04539035558494220 ) ) ;
#412 = EDGE_CURVE ( 'NONE', #50, #58, #550, .T. ) ;
#413 = COORDINATED_UNIVERSAL_TIME_OFFSET ( 8, 0, .AHEAD. ) ;
#414 = VECTOR ( 'NONE', #489, 1000.000000000000000 ) ;
#415 = ORIENTED_EDGE ( 'NONE', *, *, #241, .T. ) ;
#416 = CARTESIAN_POINT ( 'NONE',  ( -17.56320944973900566, 11.87984277981418124, 55.87842230170123514 ) ) ;
#417 = CARTESIAN_POINT ( 'NONE',  ( -18.47557648701165078, 11.07984277981418231, 54.17526531680119461 ) ) ;
#418 = APPLICATION_PROTOCOL_DEFINITION ( 'international standard', 'config_control_design', 1994, #296 ) ;
#419 = CARTESIAN_POINT ( 'NONE',  ( -17.26848173105823037, 11.87984277979131953, 53.20294072922480666 ) ) ;
#420 = CARTESIAN_POINT ( 'NONE',  ( -17.27208581121242048, 11.87984277982385706, 53.19847385103358306 ) ) ;
#421 = CC_DESIGN_PERSON_AND_ORGANIZATION_ASSIGNMENT ( #540, #258, ( #389 ) ) ;
#422 = ORIENTED_EDGE ( 'NONE', *, *, #254, .T. ) ;
#423 = APPROVAL_ROLE ( '' ) ;
#424 = CARTESIAN_POINT ( 'NONE',  ( -18.13917632399284585, 11.87984274836223619, 52.65871626270566708 ) ) ;
#425 = AXIS2_PLACEMENT_3D ( 'NONE', #66, #539, #488 ) ;
#426 = CARTESIAN_POINT ( 'NONE',  ( -16.92459697582265576, 11.87984263851990363, 54.21431337758820490 ) ) ;
#427 = APPROVAL_DATE_TIME ( #270, #529 ) ;
#428 = CYLINDRICAL_SURFACE ( 'NONE', #425, 1.749999999999996669 ) ;
#429 = CARTESIAN_POINT ( 'NONE',  ( -16.44744679057127712, 10.96268549228880040, 54.18385613963150860 ) ) ;
#430 = EDGE_LOOP ( 'NONE', ( #297, #312, #322, #560 ) ) ;
#431 = CC_DESIGN_APPROVAL ( #323, ( #454 ) ) ;
#432 = ORIENTED_EDGE ( 'NONE', *, *, #145, .F. ) ;
#433 = CARTESIAN_POINT ( 'NONE',  ( -16.44744679057127712, 11.07984277981418053, 54.18385613963152281 ) ) ;
#434 = CARTESIAN_POINT ( 'NONE',  ( -17.05420713035937297, 11.87984263511773619, 54.80165634763875460 ) ) ;
#435 = CARTESIAN_POINT ( 'NONE',  ( -17.04064172816887179, 10.87984277981417947, 55.02401478467365337 ) ) ;
#436 = EDGE_LOOP ( 'NONE', ( #96, #252, #603, #200, #10, #327 ) ) ;
#437 = VERTEX_POINT ( 'NONE', #285 ) ;
#438 = CARTESIAN_POINT ( 'NONE',  ( -18.98998723375524023, 11.87984277981417947, 55.03280924199378177 ) ) ;
#439 = CARTESIAN_POINT ( 'NONE',  ( -17.60372670923821303, 10.87984277981417947, 55.74586572130880313 ) ) ;
#440 = CALENDAR_DATE ( 2019, 27, 7 ) ;
#441 = CARTESIAN_POINT ( 'NONE',  ( -19.36650115213912215, 11.07984277981418231, 55.68150342582229939 ) ) ;
#442 = LINE ( 'NONE', #303, #189 ) ;
#443 = VERTEX_POINT ( 'NONE', #639 ) ;
#444 = EDGE_CURVE ( 'NONE', #548, #116, #467, .T. ) ;
#445 = CARTESIAN_POINT ( 'NONE',  ( -17.53782764143592487, 10.87984277981418124, 55.86458009755292409 ) ) ;
#446 = CARTESIAN_POINT ( 'NONE',  ( -16.95547630604599476, 10.87984280407940751, 54.49519925021132138 ) ) ;
#447 = CARTESIAN_POINT ( 'NONE',  ( -18.18012588534781671, 11.87983360428837187, 50.72627516690958771 ) ) ;
#448 = CARTESIAN_POINT ( 'NONE',  ( -17.35485573923737235, 10.87984294716011924, 53.08517114646385693 ) ) ;
#449 = FACE_OUTER_BOUND ( 'NONE', #231, .T. ) ;
#450 = ORIENTED_EDGE ( 'NONE', *, *, #145, .T. ) ;
#451 = CARTESIAN_POINT ( 'NONE',  ( -19.23690584388779357, 10.87984283228063376, 52.80985376810112797 ) ) ;
#452 = ORIENTED_EDGE ( 'NONE', *, *, #393, .T. ) ;
#453 = CARTESIAN_POINT ( 'NONE',  ( -17.14638340296314922, 10.87984277981418124, 54.97260197425379857 ) ) ;
#454 = SECURITY_CLASSIFICATION ( '', '', #525 ) ;
#455 = PERSON ( '未指定', '未指定', '未指定', ('未指定'), ('未指定'), ('未指定') ) ;
#456 = CARTESIAN_POINT ( 'NONE',  ( -17.09057250230186398, 10.87984277993172810, 54.87834835198339789 ) ) ;
#457 =( BOUNDED_CURVE ( )  B_SPLINE_CURVE ( 3, ( #326, #57, #526, #262 ),
 .UNSPECIFIED., .F., .F. ) 
 B_SPLINE_CURVE_WITH_KNOTS ( ( 4, 4 ),
 ( 0.0000000000000000000, 0.002795255513717920595 ),
 .UNSPECIFIED. ) 
 CURVE ( )  GEOMETRIC_REPRESENTATION_ITEM ( )  RATIONAL_B_SPLINE_CURVE ( ( 1.000000000000000000, 0.9999935737024963078, 0.9999935737024963078, 1.000000000000000000 ) ) 
 REPRESENTATION_ITEM ( '' )  );
#458 = CARTESIAN_POINT ( 'NONE',  ( -16.92343296256514407, 10.87984285669253204, 53.98841451839189176 ) ) ;
#459 = DIRECTION ( 'NONE',  ( 0.0000000000000000000, 0.0000000000000000000, 1.000000000000000000 ) ) ;
#460 = ADVANCED_FACE ( 'NONE', ( #212 ), #28, .F. ) ;
#461 = CARTESIAN_POINT ( 'NONE',  ( -17.15343641852806300, 11.87984277981418124, 54.98424346193872481 ) ) ;
#462 = EDGE_LOOP ( 'NONE', ( #367, #321, #580, #535, #24, #280 ) ) ;
#463 = CARTESIAN_POINT ( 'NONE',  ( -19.80967355320721524, 10.87984277981418124, 53.38616034386809872 ) ) ;
#464 = APPROVAL ( #621, '未指定' ) ;
#465 = CARTESIAN_POINT ( 'NONE',  ( -19.80476957106014524, 11.87984277981417947, 53.37792865934860487 ) ) ;
#466 = CARTESIAN_POINT ( 'NONE',  ( -17.36820891807624534, 11.87984246369141594, 53.08911504050271191 ) ) ;
#467 = CIRCLE ( 'NONE', #563, 1.000000000000001554 ) ;
#468 = CARTESIAN_POINT ( 'NONE',  ( -19.79771817970372538, 11.87984277980964265, 53.36628617755383175 ) ) ;
#469 = ORIENTED_EDGE ( 'NONE', *, *, #336, .T. ) ;
#470 = CARTESIAN_POINT ( 'NONE',  ( -19.79771817970372538, 11.87984277980964265, 53.36628617755383175 ) ) ;
#471 = CARTESIAN_POINT ( 'NONE',  ( -17.26486808415218732, 11.87984277961019686, 53.20742458508577499 ) ) ;
#472 = CARTESIAN_POINT ( 'NONE',  ( -16.95624920480283748, 11.87984277553215051, 54.48300739388034231 ) ) ;
#473 = VECTOR ( 'NONE', #115, 1000.000000000000000 ) ;
#474 = DATE_TIME_ROLE ( 'creation_date' ) ;
#475 = ORIENTED_EDGE ( 'NONE', *, *, #56, .F. ) ;
#476 = ADVANCED_FACE ( 'NONE', ( #320 ), #611, .T. ) ;
#477 = EDGE_CURVE ( 'NONE', #214, #396, #108, .T. ) ;
#478 = CARTESIAN_POINT ( 'NONE',  ( -16.96933838532526551, 10.96268549228879685, 55.06618999432906492 ) ) ;
#479 = CARTESIAN_POINT ( 'NONE',  ( -16.96933838532526551, 11.07984277981418231, 55.06618999432906492 ) ) ;
#480 = FACE_OUTER_BOUND ( 'NONE', #335, .T. ) ;
#481 = CARTESIAN_POINT ( 'NONE',  ( -19.98181459606582067, 11.07984277981418231, 53.28434065172963585 ) ) ;
#482 = ORIENTED_EDGE ( 'NONE', *, *, #393, .F. ) ;
#483 = CARTESIAN_POINT ( 'NONE',  ( -16.67923304159302589, 10.87984277981417947, 54.18287433130806363 ) ) ;
#484 = CC_DESIGN_PERSON_AND_ORGANIZATION_ASSIGNMENT ( #138, #203, ( #164 ) ) ;
#485 = CARTESIAN_POINT ( 'NONE',  ( -18.47557648701165078, 17.87984277977645320, 54.17526531680119461 ) ) ;
#486 = CARTESIAN_POINT ( 'NONE',  ( -17.49122996371905003, 10.96268549228880040, 55.94852383801946161 ) ) ;
#487 = ORIENTED_EDGE ( 'NONE', *, *, #554, .T. ) ;
#488 = DIRECTION ( 'NONE',  ( 0.5144107467435894421, 0.0000000000000000000, -0.8575439251925831563 ) ) ;
#489 = DIRECTION ( 'NONE',  ( 0.0000000000000000000, -1.000000000000000000, 0.0000000000000000000 ) ) ;
#490 = DIRECTION ( 'NONE',  ( -0.8575439251925828232, 0.0000000000000000000, -0.5144107467435901082 ) ) ;
#491 = AXIS2_PLACEMENT_3D ( 'NONE', #397, #83, #594 ) ;
#492 = CARTESIAN_POINT ( 'NONE',  ( -15.53911400610006943, 11.87983360428837187, 52.34223170819731052 ) ) ;
#493 = DIRECTION ( 'NONE',  ( 0.5144107467435894421, 0.0000000000000000000, -0.8575439251925831563 ) ) ;
#494 = CIRCLE ( 'NONE', #217, 0.1999999999999987343 ) ;
#495 = ORIENTED_EDGE ( 'NONE', *, *, #477, .T. ) ;
#496 = CARTESIAN_POINT ( 'NONE',  ( -16.98283770016719174, 11.67984277981418195, 55.08862773898093934 ) ) ;
#497 = EDGE_LOOP ( 'NONE', ( #575, #41, #487, #22, #17, #432 ) ) ;
#498 = CARTESIAN_POINT ( 'NONE',  ( -17.85621615604392787, 10.87984295447733096, 52.73974082285344878 ) ) ;
#499 = CARTESIAN_POINT ( 'NONE',  ( -19.80967355320721524, 10.87984277981418124, 53.38616034386809872 ) ) ;
#500 = CARTESIAN_POINT ( 'NONE',  ( -18.47557648701165078, 11.87984277981417947, 54.17526531680119461 ) ) ;
#501 = DIRECTION ( 'NONE',  ( -0.8529935924825543525, 0.0000000000000000000, -0.5219213841027267042 ) ) ;
#502 = AXIS2_PLACEMENT_3D ( 'NONE', #87, #357, #134 ) ;
#503 = PLANE ( 'NONE',  #650 ) ;
#504 = CARTESIAN_POINT ( 'NONE',  ( -18.98998723375524023, 11.87984277981417947, 55.03280924199378177 ) ) ;
#505 = DIRECTION ( 'NONE',  ( 0.5144107467435908854, 0.0000000000000000000, -0.8575439251925823791 ) ) ;
#506 = DIRECTION ( 'NONE',  ( -0.8575439251925824902, 0.0000000000000000000, -0.5144107467435905523 ) ) ;
#507 = CARTESIAN_POINT ( 'NONE',  ( -20.05904635303257066, 11.87984277981418124, 55.02351695936240361 ) ) ;
#508 = ADVANCED_FACE ( 'NONE', ( #249, #206 ), #503, .F. ) ;
#509 = DIRECTION ( 'NONE',  ( -0.0000000000000000000, 1.000000000000000000, -0.0000000000000000000 ) ) ;
#510 = AXIS2_PLACEMENT_3D ( 'NONE', #194, #654, #361 ) ;
#511 =( NAMED_UNIT ( * ) SI_UNIT ( $, .STERADIAN. ) SOLID_ANGLE_UNIT ( ) );
#512 = CARTESIAN_POINT ( 'NONE',  ( -17.15343560667471934, 11.87984277981417947, 54.98424395838297585 ) ) ;
#513 = VERTEX_POINT ( 'NONE', #184 ) ;
#514 =( NAMED_UNIT ( * ) PLANE_ANGLE_UNIT ( ) SI_UNIT ( $, .RADIAN. ) );
#515 = EDGE_CURVE ( 'NONE', #521, #11, #626, .T. ) ;
#516 = CARTESIAN_POINT ( 'NONE',  ( -17.20253346634916269, 11.87984281506587791, 53.28606976099304404 ) ) ;
#517 = CARTESIAN_POINT ( 'NONE',  ( -17.14793863249941452, 11.87984264615749197, 53.37480880347055034 ) ) ;
#518 = CARTESIAN_POINT ( 'NONE',  ( -16.93273005432041600, 11.87984278509294711, 54.33693176623635424 ) ) ;
#519 = CC_DESIGN_DATE_AND_TIME_ASSIGNMENT ( #658, #4, ( #454 ) ) ;
#520 = LOCAL_TIME ( 11, 55, 13.00000000000000000, #29 ) ;
#521 = VERTEX_POINT ( 'NONE', #294 ) ;
#522 = CARTESIAN_POINT ( 'NONE',  ( -17.12753801348296179, 11.87984257722374259, 53.40942784907043261 ) ) ;
#523 = EDGE_CURVE ( 'NONE', #116, #214, #364, .T. ) ;
#524 = CARTESIAN_POINT ( 'NONE',  ( -17.08681372775560803, 11.87984248962008671, 53.48567265725210262 ) ) ;
#525 = SECURITY_CLASSIFICATION_LEVEL ( 'unclassified' ) ;
#526 = CARTESIAN_POINT ( 'NONE',  ( -17.15106838244670939, 11.87984277981418302, 54.98037330128531863 ) ) ;
#527 = PERSON_AND_ORGANIZATION ( #455, #147 ) ;
#528 = CARTESIAN_POINT ( 'NONE',  ( -17.58465181571193625, 11.07984277981418231, 52.66902721143092236 ) ) ;
#529 = APPROVAL ( #567, '未指定' ) ;
#530 = CYLINDRICAL_SURFACE ( 'NONE', #329, 1.000000000000001554 ) ;
#531 = VERTEX_POINT ( 'NONE', #399 ) ;
#532 = CARTESIAN_POINT ( 'NONE',  ( -16.78626169965135517, 10.87984277981418124, 53.23751647982603430 ) ) ;
#533 = DIRECTION ( 'NONE',  ( 0.0000000000000000000, -1.000000000000000000, 0.0000000000000000000 ) ) ;
#534 = CARTESIAN_POINT ( 'NONE',  ( -19.91051125281041934, 10.87984277981417947, 53.32651586068885052 ) ) ;
#535 = ORIENTED_EDGE ( 'NONE', *, *, #515, .F. ) ;
#536 = CARTESIAN_POINT ( 'NONE',  ( -19.80967309782962715, 10.87984277981418124, 53.38616061335306284 ) ) ;
#537 = DESIGN_CONTEXT ( 'detailed design', #606, 'design' ) ;
#538 = AXIS2_PLACEMENT_3D ( 'NONE', #656, #95, #190 ) ;
#539 = DIRECTION ( 'NONE',  ( 0.0000000000000000000, -1.000000000000000000, 0.0000000000000000000 ) ) ;
#540 = PERSON_AND_ORGANIZATION ( #455, #147 ) ;
#541 = DIRECTION ( 'NONE',  ( 0.5144107467435896641, 0.0000000000000000000, -0.8575439251925831563 ) ) ;
#542 = EDGE_LOOP ( 'NONE', ( #5, #191 ) ) ;
#543 = CARTESIAN_POINT ( 'NONE',  ( -19.33312041218395549, 17.67984277971294915, 53.66085457006977322 ) ) ;
#544 = DIRECTION ( 'NONE',  ( 0.5144107467435896641, 0.0000000000000000000, -0.8575439251925831563 ) ) ;
#545 = EDGE_CURVE ( 'NONE', #173, #531, #332, .T. ) ;
#546 = CARTESIAN_POINT ( 'NONE',  ( -18.47557648701165078, 11.87984277981417947, 54.17526531680119461 ) ) ;
#547 = CARTESIAN_POINT ( 'NONE',  ( -18.47557648701165078, 11.07984277981418231, 54.17526531680119461 ) ) ;
#548 = VERTEX_POINT ( 'NONE', #26 ) ;
#549 = ORIENTED_EDGE ( 'NONE', *, *, #336, .F. ) ;
#550 = B_SPLINE_CURVE_WITH_KNOTS ( 'NONE', 3,
 ( #582, #456, #395, #77, #446, #652, #458, #242, #647, #448, #81, #498, #230, #341, #405, #234, #451, #349, #33, #591 ),
 .UNSPECIFIED., .F., .F.,
 ( 4, 2, 2, 2, 2, 2, 2, 2, 2, 4 ),
 ( 0.002029416279109398386, 0.06440257776166495585, 0.1267757392442205033, 0.2515220622093318759, 0.3762683851744432761, 0.5010147081395547319, 0.6257610311046659657, 0.7505073540697773105, 0.8752536770348886552, 1.000000000000000000 ),
 .UNSPECIFIED. ) ;
#551 = DIRECTION ( 'NONE',  ( 0.0000000000000000000, -1.000000000000000000, 0.0000000000000000000 ) ) ;
#552 = ADVANCED_FACE ( 'NONE', ( #480 ), #587, .T. ) ;
#553 = DIRECTION ( 'NONE',  ( 0.5144107467435896641, 0.0000000000000000000, -0.8575439251925831563 ) ) ;
#554 = EDGE_CURVE ( 'NONE', #403, #50, #401, .T. ) ;
#555 = DIRECTION ( 'NONE',  ( -0.8529935924825571281, 0.0000000000000000000, -0.5219213841027222633 ) ) ;
#556 = CARTESIAN_POINT ( 'NONE',  ( -19.80476957106014524, 11.87984277981417947, 53.37792865934860487 ) ) ;
#557 = PERSON_AND_ORGANIZATION ( #455, #147 ) ;
#558 = CIRCLE ( 'NONE', #67, 0.1999999999999987343 ) ;
#559 = DIRECTION ( 'NONE',  ( -0.0000000000000000000, 1.000000000000000000, -0.0000000000000000000 ) ) ;
#560 = ORIENTED_EDGE ( 'NONE', *, *, #241, .F. ) ;
#561 = CARTESIAN_POINT ( 'NONE',  ( -18.51266957984103811, 11.87984277981418124, 56.10704724765669482 ) ) ;
#562 = ORIENTED_EDGE ( 'NONE', *, *, #254, .F. ) ;
#563 = AXIS2_PLACEMENT_3D ( 'NONE', #644, #177, #544 ) ;
#564 = CARTESIAN_POINT ( 'NONE',  ( -19.80967309788820074, 11.07984277981418231, 53.38616061345209829 ) ) ;
#565 = ADVANCED_FACE ( 'NONE', ( #449 ), #135, .T. ) ;
#566 = CARTESIAN_POINT ( 'NONE',  ( -17.02038633041780713, 11.87984265815078899, 53.63999977327721780 ) ) ;
#567 = APPROVAL_STATUS ( 'not_yet_approved' ) ;
#568 = ORIENTED_EDGE ( 'NONE', *, *, #577, .T. ) ;
#569 = PERSON_AND_ORGANIZATION_ROLE ( 'classification_officer' ) ;
#570 = CARTESIAN_POINT ( 'NONE',  ( -16.95351880457095817, 11.87984272215601678, 53.87714918534663866 ) ) ;
#571 = CARTESIAN_POINT ( 'NONE',  ( -17.76020371618857752, 11.87984277800626565, 52.79925956675221954 ) ) ;
#572 = CARTESIAN_POINT ( 'NONE',  ( -19.80476957106014524, 10.87984277981418124, 53.37792865934860487 ) ) ;
#573 = DATE_AND_TIME ( #440, #15 ) ;
#574 = CARTESIAN_POINT ( 'NONE',  ( -17.14147988266084965, 10.87984277981418124, 54.96437003118303011 ) ) ;
#575 = ORIENTED_EDGE ( 'NONE', *, *, #613, .F. ) ;
#576 = CARTESIAN_POINT ( 'NONE',  ( -19.91051125287342671, 10.87984277981417947, 53.32651586079538930 ) ) ;
#577 = EDGE_CURVE ( 'NONE', #380, #521, #39, .T. ) ;
#578 = CIRCLE ( 'NONE', #156, 1.000000000000001554 ) ;
#579 = ORIENTED_EDGE ( 'NONE', *, *, #608, .T. ) ;
#580 = ORIENTED_EDGE ( 'NONE', *, *, #261, .F. ) ;
#581 = DIRECTION ( 'NONE',  ( -0.5219213841027212641, 0.0000000000000000000, 0.8529935924825576832 ) ) ;
#582 = CARTESIAN_POINT ( 'NONE',  ( -17.14147897178576585, 10.87984277981558101, 54.96437056995646486 ) ) ;
#583 = CARTESIAN_POINT ( 'NONE',  ( -20.50370618182676097, 11.07984277981418231, 54.16667450772576586 ) ) ;
#584 = AXIS2_PLACEMENT_3D ( 'NONE', #630, #14, #65 ) ;
#585 = DATE_AND_TIME ( #391, #130 ) ;
#586 = CARTESIAN_POINT ( 'NONE',  ( -19.36650115213911505, 10.96268549228879685, 55.68150342582230650 ) ) ;
#587 = CYLINDRICAL_SURFACE ( 'NONE', #9, 1.749999999999996669 ) ;
#588 = CARTESIAN_POINT ( 'NONE',  ( -19.98181459599968335, 10.96268549228879685, 53.28434065161781774 ) ) ;
#589 = CC_DESIGN_PERSON_AND_ORGANIZATION_ASSIGNMENT ( #618, #569, ( #454 ) ) ;
#590 = CARTESIAN_POINT ( 'NONE',  ( -20.24883500826644323, 10.96268549228880040, 55.15961184002799200 ) ) ;
#591 = CARTESIAN_POINT ( 'NONE',  ( -19.80476957106014524, 10.87984277981418124, 53.37792865934860487 ) ) ;
#592 = CARTESIAN_POINT ( 'NONE',  ( -18.15759735441731237, 11.88096437098279878, 50.46328473523225711 ) ) ;
#593 = ORIENTED_EDGE ( 'NONE', *, *, #248, .F. ) ;
#594 = DIRECTION ( 'NONE',  ( 0.5144107467435892200, 0.0000000000000000000, -0.8575439251925833783 ) ) ;
#595 = VERTEX_POINT ( 'NONE', #463 ) ;
#596 = CARTESIAN_POINT ( 'NONE',  ( -16.98283770016719174, 11.79789183319989299, 55.08862773898093934 ) ) ;
#597 = CARTESIAN_POINT ( 'NONE',  ( -19.79608242663552531, 11.87983360428837187, 53.36728704615734387 ) ) ;
#598 = AXIS2_PLACEMENT_3D ( 'NONE', #215, #13, #112 ) ;
#599 = DIRECTION ( 'NONE',  ( 0.5144107467435923287, 0.0000000000000000000, -0.8575439251925814910 ) ) ;
#600 = DIRECTION ( 'NONE',  ( 0.5144107467435896641, 0.0000000000000000000, -0.8575439251925831563 ) ) ;
#601 = VECTOR ( 'NONE', #16, 999.9999999999998863 ) ;
#602 = CARTESIAN_POINT ( 'NONE',  ( -20.27160498127908994, 11.87984277981418124, 54.14077889217482920 ) ) ;
#603 = ORIENTED_EDGE ( 'NONE', *, *, #192, .T. ) ;
#604 = DIRECTION ( 'NONE',  ( 1.000000000000000000, 0.0000000000000000000, 0.0000000000000000000 ) ) ;
#605 = CARTESIAN_POINT ( 'NONE',  ( -17.62732484431769464, 11.87984277981418124, 55.75873518275100338 ) ) ;
#606 = APPLICATION_CONTEXT ( 'configuration controlled 3d designs of mechanical parts and assemblies' ) ;
#607 = CARTESIAN_POINT ( 'NONE',  ( -19.38893890906626183, 11.67984277981418195, 55.66800410372223951 ) ) ;
#608 = EDGE_CURVE ( 'NONE', #76, #513, #163, .T. ) ;
#609 = DIRECTION ( 'NONE',  ( 0.5090998086123221800, 0.0000000000000000000, -0.8607074908881047204 ) ) ;
#610 = CARTESIAN_POINT ( 'NONE',  ( -17.15343560667471934, 11.87984277981417947, 54.98424395838297585 ) ) ;
#611 = CYLINDRICAL_SURFACE ( 'NONE', #186, 1.000000000000001554 ) ;
#612 = ORIENTED_EDGE ( 'NONE', *, *, #287, .T. ) ;
#613 = EDGE_CURVE ( 'NONE', #595, #179, #325, .T. ) ;
#614 = CARTESIAN_POINT ( 'NONE',  ( -17.51108446134800189, 11.87984278483944500, 52.95784508958634973 ) ) ;
#615 = CARTESIAN_POINT ( 'NONE',  ( -16.93712112480610088, 11.87984261381817674, 53.98392512423941980 ) ) ;
#616 = ADVANCED_BREP_SHAPE_REPRESENTATION ( 'M2X6-0726-00-7', ( #275, #94 ), #162 ) ;
#617 = CARTESIAN_POINT ( 'NONE',  ( -18.64516157682387743, 11.87984270922373220, 52.62117165678040465 ) ) ;
#618 = PERSON_AND_ORGANIZATION ( #455, #147 ) ;
#619 = CARTESIAN_POINT ( 'NONE',  ( -16.93849490287833248, 11.87984263393394713, 53.97343313142611265 ) ) ;
#620 = LINE ( 'NONE', #319, #139 ) ;
#621 = APPROVAL_STATUS ( 'not_yet_approved' ) ;
#622 = EDGE_CURVE ( 'NONE', #64, #76, #104, .T. ) ;
#623 = CARTESIAN_POINT ( 'NONE',  ( -17.58943717522629058, 11.87984278016068274, 52.89988373985784165 ) ) ;
#624 = CARTESIAN_POINT ( 'NONE',  ( -17.09635053347929201, 11.87984277981417236, 54.88951267915489041 ) ) ;
#625 = CARTESIAN_POINT ( 'NONE',  ( -16.98938206437058440, 11.87984268336460580, 54.61877951065616088 ) ) ;
#626 = CIRCLE ( 'NONE', #84, 1.750000000000000222 ) ;
#627 =( BOUNDED_CURVE ( )  B_SPLINE_CURVE ( 3, ( #572, #52, #100, #53 ),
 .UNSPECIFIED., .F., .T. ) 
 B_SPLINE_CURVE_WITH_KNOTS ( ( 4, 4 ),
 ( 0.0000000000000000000, 0.001967719848730646245 ),
 .UNSPECIFIED. ) 
 CURVE ( )  GEOMETRIC_REPRESENTATION_ITEM ( )  RATIONAL_B_SPLINE_CURVE ( ( 1.000000000000000000, 0.9999968154748251070, 0.9999968154748251070, 1.000000000000000000 ) ) 
 REPRESENTATION_ITEM ( '' )  );
#628 = CARTESIAN_POINT ( 'NONE',  ( -17.00396967556490324, 11.87984265009683327, 54.66509413389010774 ) ) ;
#629 = EDGE_LOOP ( 'NONE', ( #208, #651, #579, #279, #415, #612 ) ) ;
#630 = CARTESIAN_POINT ( 'NONE',  ( -18.47557648701165078, 11.07984277981418231, 54.17526531680119461 ) ) ;
#631 = CALENDAR_DATE ( 2019, 27, 7 ) ;
#632 = LINE ( 'NONE', #127, #373 ) ;
#633 =( BOUNDED_SURFACE ( )  B_SPLINE_SURFACE ( 3, 3, ( 
 ( #238, #73, #180, #496 ),
 ( #20, #398, #232, #596 ),
 ( #82, #592, #175, #227 ),
 ( #597, #447, #492, #79 ) ),
 .UNSPECIFIED., .F., .F., .F. ) 
 B_SPLINE_SURFACE_WITH_KNOTS ( ( 4, 4 ),
 ( 4, 4 ),
 ( 0.0000000000000000000, 1.000000000000000000 ),
 ( 0.0000000000000000000, 1.000000000000000000 ),
 .UNSPECIFIED. ) 
 GEOMETRIC_REPRESENTATION_ITEM ( )  RATIONAL_B_SPLINE_SURFACE ( (
 ( 1.000000000000000000, 0.3333333333333335369, 0.3333333333333335369, 1.000000000000000000),
 ( 0.8024746798066410003, 0.2674915599355471851, 0.2674915599355471851, 0.8024746798066410003),
 ( 0.8024746798066410003, 0.2674915599355471851, 0.2674915599355471851, 0.8024746798066410003),
 ( 1.000000000000000000, 0.3333333333333335369, 0.3333333333333335369, 1.000000000000000000) ) ) 
 REPRESENTATION_ITEM ( '' )  SURFACE ( )  );
#634 = CARTESIAN_POINT ( 'NONE',  ( -18.98998723375524023, 17.67984277981420149, 55.03280924199378177 ) ) ;
#635 = CARTESIAN_POINT ( 'NONE',  ( -19.26468119041026839, 10.87984277981418124, 55.50936192764846311 ) ) ;
#636 = CARTESIAN_POINT ( 'NONE',  ( -18.48318548926891935, 10.87984277981417947, 55.97160876078059033 ) ) ;
#637 = EDGE_CURVE ( 'NONE', #531, #214, #442, .T. ) ;
#638 = COORDINATED_UNIVERSAL_TIME_OFFSET ( 8, 0, .AHEAD. ) ;
#639 = CARTESIAN_POINT ( 'NONE',  ( -17.14638340296314922, 11.87984277981417947, 54.97260197425379857 ) ) ;
#640 = FACE_OUTER_BOUND ( 'NONE', #266, .T. ) ;
#641 = ORIENTED_EDGE ( 'NONE', *, *, #515, .T. ) ;
#642 = CARTESIAN_POINT ( 'NONE',  ( -17.14147897178576585, 10.87984277981558101, 54.96437056995646486 ) ) ;
#643 = ORIENTED_EDGE ( 'NONE', *, *, #316, .F. ) ;
#644 = CARTESIAN_POINT ( 'NONE',  ( -18.47557648701165078, 17.67984277981420149, 54.17526531680119461 ) ) ;
#645 = EDGE_CURVE ( 'NONE', #293, #333, #347, .T. ) ;
#646 = CARTESIAN_POINT ( 'NONE',  ( -18.47557648701165078, 17.67984277971294915, 54.17526531680119461 ) ) ;
#647 = CARTESIAN_POINT ( 'NONE',  ( -17.11244340314883772, 10.87984292000572495, 53.40968018404777951 ) ) ;
#648 = DIRECTION ( 'NONE',  ( 0.0000000000000000000, -1.000000000000000000, 0.0000000000000000000 ) ) ;
#649 = SHAPE_DEFINITION_REPRESENTATION ( #153, #616 ) ;
#650 = AXIS2_PLACEMENT_3D ( 'NONE', #546, #348, #126 ) ;
#651 = ORIENTED_EDGE ( 'NONE', *, *, #622, .T. ) ;
#652 = CARTESIAN_POINT ( 'NONE',  ( -16.91237366223297300, 10.87984283282056630, 54.19450707512174858 ) ) ;
#653 = CARTESIAN_POINT ( 'NONE',  ( -18.51451277271015883, 11.79700006733956030, 56.20303942323546664 ) ) ;
#654 = DIRECTION ( 'NONE',  ( -0.5090998086123222910, 0.0000000000000000000, 0.8607074908881046094 ) ) ;
#655 = EDGE_CURVE ( 'NONE', #437, #64, #158, .T. ) ;
#656 = CARTESIAN_POINT ( 'NONE',  ( -18.47557648701165078, 11.67984277981418195, 54.17526531680119461 ) ) ;
#657 = CARTESIAN_POINT ( 'NONE',  ( -16.98283770001405202, 11.79700006733956208, 55.08862773873066487 ) ) ;
#658 = DATE_AND_TIME ( #69, #123 ) ;
#659 = CIRCLE ( 'NONE', #351, 1.749999999999999778 ) ;
#660 = DIRECTION ( 'NONE',  ( -0.0000000000000000000, 1.000000000000000000, -0.0000000000000000000 ) ) ;
#661 = ORIENTED_EDGE ( 'NONE', *, *, #622, .F. ) ;
#662 = CARTESIAN_POINT ( 'NONE',  ( -17.14313529984580242, 10.87984277981324865, 54.96716944828109774 ) ) ;
#663 = CARTESIAN_POINT ( 'NONE',  ( -17.31901635514272542, 11.87984264305687532, 53.14269879506218075 ) ) ;
ENDSEC;
END-ISO-10303-21;
