ISO-10303-21;
HEADER;
FILE_DESCRIPTION (( 'STEP AP214' ),
    '1' );
FILE_NAME ('Coilcraft-ME3215.STEP',
    '2018-12-29T10:48:25',
    ( '' ),
    ( '' ),
    'SwSTEP 2.0',
    'SolidWorks 2018',
    '' );
FILE_SCHEMA (( 'AUTOMOTIVE_DESIGN' ));
ENDSEC;

DATA;
#1 = ORIENTED_EDGE ( 'NONE', *, *, #834, .F. ) ;
#2 = VECTOR ( 'NONE', #317, 1000.000000000000000 ) ;
#3 = VECTOR ( 'NONE', #184, 1000.000000000000000 ) ;
#4 = MECHANICAL_DESIGN_GEOMETRIC_PRESENTATION_REPRESENTATION (  '', ( #32 ), #466 ) ;
#5 =( NAMED_UNIT ( * ) SI_UNIT ( $, .STERADIAN. ) SOLID_ANGLE_UNIT ( ) );
#6 =( GEOMETRIC_REPRESENTATION_CONTEXT ( 3 ) GLOBAL_UNCERTAINTY_ASSIGNED_CONTEXT ( ( #423 ) ) GLOBAL_UNIT_ASSIGNED_CONTEXT ( ( #736, #728, #319 ) ) REPRESENTATION_CONTEXT ( 'NONE', 'WORKASPACE' ) );
#7 = CLOSED_SHELL ( 'NONE', ( #195, #553, #398, #113, #754, #612, #262, #192, #118, #821, #832, #188, #609, #214, #283, #461, #825, #264, #627, #341 ) ) ;
#8 = SURFACE_STYLE_USAGE ( .BOTH. , #722 ) ;
#9 = DIRECTION ( 'NONE',  ( 1.734723475976807094E-16, 0.0000000000000000000, -1.000000000000000000 ) ) ;
#10 = EDGE_CURVE ( 'NONE', #550, #296, #818, .T. ) ;
#11 = SURFACE_STYLE_FILL_AREA ( #434 ) ;
#12 = CARTESIAN_POINT ( 'NONE',  ( -1.250000000000000222, 0.5999999999999999778, 1.749999999999999778 ) ) ;
#13 = EDGE_CURVE ( 'NONE', #594, #365, #649, .T. ) ;
#14 = FILL_AREA_STYLE ('',( #372 ) ) ;
#15 =( GEOMETRIC_REPRESENTATION_CONTEXT ( 3 ) GLOBAL_UNCERTAINTY_ASSIGNED_CONTEXT ( ( #720 ) ) GLOBAL_UNIT_ASSIGNED_CONTEXT ( ( #425, #521, #153 ) ) REPRESENTATION_CONTEXT ( 'NONE', 'WORKASPACE' ) );
#16 = SURFACE_SIDE_STYLE ('',( #360 ) ) ;
#17 = DIRECTION ( 'NONE',  ( -0.0000000000000000000, 0.0000000000000000000, -1.000000000000000000 ) ) ;
#18 = UNCERTAINTY_MEASURE_WITH_UNIT (LENGTH_MEASURE( 1.000000000000000082E-05 ), #210, 'distance_accuracy_value', 'NONE');
#19 = COLOUR_RGB ( '',0.09803921568627450844, 0.09803921568627450844, 0.09803921568627450844 ) ;
#20 = FILL_AREA_STYLE_COLOUR ( '', #157 ) ;
#21 = ORIENTED_EDGE ( 'NONE', *, *, #731, .F. ) ;
#22 = DIRECTION ( 'NONE',  ( 1.000000000000000000, 0.0000000000000000000, 0.0000000000000000000 ) ) ;
#23 = FILL_AREA_STYLE ('',( #443 ) ) ;
#24 = FILL_AREA_STYLE_COLOUR ( '', #895 ) ;
#25 = ORIENTED_EDGE ( 'NONE', *, *, #799, .F. ) ;
#26 = STYLED_ITEM ( 'NONE', ( #109 ), #264 ) ;
#27 = SURFACE_SIDE_STYLE ('',( #462 ) ) ;
#28 =( NAMED_UNIT ( * ) PLANE_ANGLE_UNIT ( ) SI_UNIT ( $, .RADIAN. ) );
#29 = CARTESIAN_POINT ( 'NONE',  ( -1.149999999999999689, 0.9499999999999998446, 1.149999999999999911 ) ) ;
#30 = VECTOR ( 'NONE', #826, 1000.000000000000000 ) ;
#31 = CARTESIAN_POINT ( 'NONE',  ( -1.249999999999999778, 1.500000000000000000, 1.250000000000000000 ) ) ;
#32 = STYLED_ITEM ( 'NONE', ( #108 ), #821 ) ;
#33 = DIRECTION ( 'NONE',  ( 0.0000000000000000000, 0.0000000000000000000, 1.000000000000000000 ) ) ;
#34 = VECTOR ( 'NONE', #17, 1000.000000000000000 ) ;
#35 = SURFACE_STYLE_USAGE ( .BOTH. , #469 ) ;
#36 = UNCERTAINTY_MEASURE_WITH_UNIT (LENGTH_MEASURE( 1.000000000000000082E-05 ), #508, 'distance_accuracy_value', 'NONE');
#37 = CARTESIAN_POINT ( 'NONE',  ( -1.249999999999999334, 0.0000000000000000000, 1.749999999999999556 ) ) ;
#38 = PRESENTATION_LAYER_ASSIGNMENT (  '', '', ( #831 ) ) ;
#39 =( GEOMETRIC_REPRESENTATION_CONTEXT ( 3 ) GLOBAL_UNCERTAINTY_ASSIGNED_CONTEXT ( ( #631 ) ) GLOBAL_UNIT_ASSIGNED_CONTEXT ( ( #535, #578, #507 ) ) REPRESENTATION_CONTEXT ( 'NONE', 'WORKASPACE' ) );
#40 = VECTOR ( 'NONE', #569, 1000.000000000000000 ) ;
#41 = SURFACE_SIDE_STYLE ('',( #504 ) ) ;
#42 = VERTEX_POINT ( 'NONE', #602 ) ;
#43 = EDGE_CURVE ( 'NONE', #492, #42, #78, .T. ) ;
#44 = FILL_AREA_STYLE ('',( #478 ) ) ;
#45 = FILL_AREA_STYLE ('',( #473 ) ) ;
#46 = EDGE_LOOP ( 'NONE', ( #783, #552, #68, #723 ) ) ;
#47 = ORIENTED_EDGE ( 'NONE', *, *, #155, .F. ) ;
#48 =( NAMED_UNIT ( * ) PLANE_ANGLE_UNIT ( ) SI_UNIT ( $, .RADIAN. ) );
#49 = PRESENTATION_STYLE_ASSIGNMENT (( #35 ) ) ;
#50 = FACE_OUTER_BOUND ( 'NONE', #913, .T. ) ;
#51 = CARTESIAN_POINT ( 'NONE',  ( -1.249999999999999334, -0.05000000000000000278, -0.8500000000000006439 ) ) ;
#52 = VERTEX_POINT ( 'NONE', #747 ) ;
#53 =( GEOMETRIC_REPRESENTATION_CONTEXT ( 3 ) GLOBAL_UNCERTAINTY_ASSIGNED_CONTEXT ( ( #152 ) ) GLOBAL_UNIT_ASSIGNED_CONTEXT ( ( #620, #472, #898 ) ) REPRESENTATION_CONTEXT ( 'NONE', 'WORKASPACE' ) );
#54 = SURFACE_STYLE_FILL_AREA ( #790 ) ;
#55 = ORIENTED_EDGE ( 'NONE', *, *, #902, .T. ) ;
#56 =( NAMED_UNIT ( * ) SI_UNIT ( $, .STERADIAN. ) SOLID_ANGLE_UNIT ( ) );
#57 =( GEOMETRIC_REPRESENTATION_CONTEXT ( 3 ) GLOBAL_UNCERTAINTY_ASSIGNED_CONTEXT ( ( #672 ) ) GLOBAL_UNIT_ASSIGNED_CONTEXT ( ( #454, #28, #362 ) ) REPRESENTATION_CONTEXT ( 'NONE', 'WORKASPACE' ) );
#58 = SHAPE_DEFINITION_REPRESENTATION ( #279, #558 ) ;
#59 = UNCERTAINTY_MEASURE_WITH_UNIT (LENGTH_MEASURE( 1.000000000000000082E-05 ), #479, 'distance_accuracy_value', 'NONE');
#60 = FILL_AREA_STYLE_COLOUR ( '', #94 ) ;
#61 = PRESENTATION_LAYER_ASSIGNMENT (  '', '', ( #378 ) ) ;
#62 = EDGE_CURVE ( 'NONE', #52, #296, #493, .T. ) ;
#63 = EDGE_CURVE ( 'NONE', #93, #853, #329, .T. ) ;
#64 = AXIS2_PLACEMENT_3D ( 'NONE', #450, #781, #22 ) ;
#65 = VECTOR ( 'NONE', #67, 1000.000000000000000 ) ;
#66 = VERTEX_POINT ( 'NONE', #682 ) ;
#67 = DIRECTION ( 'NONE',  ( -1.000000000000000000, -0.0000000000000000000, 0.0000000000000000000 ) ) ;
#68 = ORIENTED_EDGE ( 'NONE', *, *, #203, .F. ) ;
#69 = ORIENTED_EDGE ( 'NONE', *, *, #657, .F. ) ;
#70 = VECTOR ( 'NONE', #392, 1000.000000000000000 ) ;
#71 = CARTESIAN_POINT ( 'NONE',  ( 1.250000000000000000, -0.05000000000000000278, 0.8500000000000000888 ) ) ;
#72 = PRESENTATION_STYLE_ASSIGNMENT (( #903 ) ) ;
#73 = LINE ( 'NONE', #576, #339 ) ;
#74 = ORIENTED_EDGE ( 'NONE', *, *, #902, .F. ) ;
#75 = AXIS2_PLACEMENT_3D ( 'NONE', #881, #173, #800 ) ;
#76 = ORIENTED_EDGE ( 'NONE', *, *, #799, .T. ) ;
#77 = FILL_AREA_STYLE ('',( #20 ) ) ;
#78 = LINE ( 'NONE', #111, #171 ) ;
#79 = DIRECTION ( 'NONE',  ( -1.000000000000000000, 0.0000000000000000000, -0.0000000000000000000 ) ) ;
#80 = STYLED_ITEM ( 'NONE', ( #334 ), #825 ) ;
#81 = LINE ( 'NONE', #505, #697 ) ;
#82 = CARTESIAN_POINT ( 'NONE',  ( -1.149999999999999911, 0.9499999999999998446, -1.149999999999999911 ) ) ;
#83 =( LENGTH_UNIT ( ) NAMED_UNIT ( * ) SI_UNIT ( .MILLI., .METRE. ) );
#84 = SURFACE_STYLE_USAGE ( .BOTH. , #97 ) ;
#85 = UNCERTAINTY_MEASURE_WITH_UNIT (LENGTH_MEASURE( 1.000000000000000082E-05 ), #444, 'distance_accuracy_value', 'NONE');
#86 = APPLICATION_CONTEXT ( 'automotive_design' ) ;
#87 = ORIENTED_EDGE ( 'NONE', *, *, #491, .T. ) ;
#88 = DIRECTION ( 'NONE',  ( -9.427844978134822666E-17, 0.0000000000000000000, -1.000000000000000000 ) ) ;
#89 = FILL_AREA_STYLE_COLOUR ( '', #483 ) ;
#90 = AXIS2_PLACEMENT_3D ( 'NONE', #244, #523, #513 ) ;
#91 = VERTEX_POINT ( 'NONE', #194 ) ;
#92 = SURFACE_STYLE_FILL_AREA ( #44 ) ;
#93 = VERTEX_POINT ( 'NONE', #269 ) ;
#94 = COLOUR_RGB ( '',0.8274509803921568096, 0.8392156862745098200, 0.8274509803921568096 ) ;
#95 = VECTOR ( 'NONE', #33, 1000.000000000000000 ) ;
#96 = EDGE_CURVE ( 'NONE', #247, #537, #379, .T. ) ;
#97 = SURFACE_SIDE_STYLE ('',( #497 ) ) ;
#98 = LINE ( 'NONE', #656, #636 ) ;
#99 =( NAMED_UNIT ( * ) PLANE_ANGLE_UNIT ( ) SI_UNIT ( $, .RADIAN. ) );
#100 =( LENGTH_UNIT ( ) NAMED_UNIT ( * ) SI_UNIT ( .MILLI., .METRE. ) );
#101 = CARTESIAN_POINT ( 'NONE',  ( 1.149999999999999911, 0.5999999999999999778, -1.149999999999999911 ) ) ;
#102 = DIRECTION ( 'NONE',  ( 0.0000000000000000000, -0.0000000000000000000, -1.000000000000000000 ) ) ;
#103 = ORIENTED_EDGE ( 'NONE', *, *, #641, .T. ) ;
#104 = ORIENTED_EDGE ( 'NONE', *, *, #120, .F. ) ;
#105 = DIRECTION ( 'NONE',  ( 0.0000000000000000000, -0.0000000000000000000, 1.000000000000000000 ) ) ;
#106 = FILL_AREA_STYLE ('',( #678 ) ) ;
#107 = EDGE_CURVE ( 'NONE', #853, #156, #614, .T. ) ;
#108 = PRESENTATION_STYLE_ASSIGNMENT (( #178 ) ) ;
#109 = PRESENTATION_STYLE_ASSIGNMENT (( #681 ) ) ;
#110 = AXIS2_PLACEMENT_3D ( 'NONE', #525, #741, #613 ) ;
#111 = CARTESIAN_POINT ( 'NONE',  ( -1.250000000000000222, -0.05000000000000002359, 1.749999999999999556 ) ) ;
#112 = DIRECTION ( 'NONE',  ( 0.0000000000000000000, 1.000000000000000000, 0.0000000000000000000 ) ) ;
#113 = ADVANCED_FACE ( 'NONE', ( #271 ), #327, .F. ) ;
#114 = COLOUR_RGB ( '',0.09803921568627450844, 0.09803921568627450844, 0.09803921568627450844 ) ;
#115 = CARTESIAN_POINT ( 'NONE',  ( 1.249999999999999778, 0.0000000000000000000, 0.8499999999999993117 ) ) ;
#116 =( GEOMETRIC_REPRESENTATION_CONTEXT ( 3 ) GLOBAL_UNCERTAINTY_ASSIGNED_CONTEXT ( ( #18 ) ) GLOBAL_UNIT_ASSIGNED_CONTEXT ( ( #210, #705, #845 ) ) REPRESENTATION_CONTEXT ( 'NONE', 'WORKASPACE' ) );
#117 = EDGE_CURVE ( 'NONE', #605, #742, #162, .T. ) ;
#118 = ADVANCED_FACE ( 'NONE', ( #520 ), #121, .F. ) ;
#119 = LINE ( 'NONE', #154, #709 ) ;
#120 = EDGE_CURVE ( 'NONE', #207, #137, #216, .T. ) ;
#121 = PLANE ( 'NONE',  #608 ) ;
#122 = DIRECTION ( 'NONE',  ( 0.0000000000000000000, 1.000000000000000000, 0.0000000000000000000 ) ) ;
#123 = ORIENTED_EDGE ( 'NONE', *, *, #203, .T. ) ;
#124 =( NAMED_UNIT ( * ) SI_UNIT ( $, .STERADIAN. ) SOLID_ANGLE_UNIT ( ) );
#125 = CARTESIAN_POINT ( 'NONE',  ( 1.249999999999999778, 0.9499999999999998446, -1.250000000000000000 ) ) ;
#126 = EDGE_LOOP ( 'NONE', ( #446, #703, #226, #621 ) ) ;
#127 = EDGE_LOOP ( 'NONE', ( #182, #785, #562, #665 ) ) ;
#128 = DIRECTION ( 'NONE',  ( 0.0000000000000000000, 0.0000000000000000000, -1.000000000000000000 ) ) ;
#129 = VECTOR ( 'NONE', #744, 1000.000000000000000 ) ;
#130 = PRESENTATION_STYLE_ASSIGNMENT (( #618 ) ) ;
#131 = DIRECTION ( 'NONE',  ( -1.000000000000000000, 0.0000000000000000000, -0.0000000000000000000 ) ) ;
#132 = DIRECTION ( 'NONE',  ( -1.000000000000000000, 0.0000000000000000000, 0.0000000000000000000 ) ) ;
#133 = FILL_AREA_STYLE_COLOUR ( '', #907 ) ;
#134 = DIRECTION ( 'NONE',  ( 1.000000000000000000, 0.0000000000000000000, -0.0000000000000000000 ) ) ;
#135 = EDGE_CURVE ( 'NONE', #661, #66, #191, .T. ) ;
#136 = FILL_AREA_STYLE ('',( #206 ) ) ;
#137 = VERTEX_POINT ( 'NONE', #575 ) ;
#138 = MECHANICAL_DESIGN_GEOMETRIC_PRESENTATION_REPRESENTATION (  '', ( #26 ), #57 ) ;
#139 = ORIENTED_EDGE ( 'NONE', *, *, #305, .T. ) ;
#140 = SURFACE_SIDE_STYLE ('',( #250 ) ) ;
#141 = VECTOR ( 'NONE', #266, 1000.000000000000000 ) ;
#142 = LINE ( 'NONE', #452, #515 ) ;
#143 = FACE_OUTER_BOUND ( 'NONE', #890, .T. ) ;
#144 = UNCERTAINTY_MEASURE_WITH_UNIT (LENGTH_MEASURE( 1.000000000000000082E-05 ), #522, 'distance_accuracy_value', 'NONE');
#145 = DIRECTION ( 'NONE',  ( -1.000000000000000000, 0.0000000000000000000, 0.0000000000000000000 ) ) ;
#146 = CARTESIAN_POINT ( 'NONE',  ( 1.249999999999999778, -0.05000000000000000278, -1.749999999999999778 ) ) ;
#147 = EDGE_LOOP ( 'NONE', ( #858, #76, #1, #570 ) ) ;
#148 = ORIENTED_EDGE ( 'NONE', *, *, #543, .T. ) ;
#149 = LINE ( 'NONE', #101, #95 ) ;
#150 = MECHANICAL_DESIGN_GEOMETRIC_PRESENTATION_REPRESENTATION (  '', ( #435 ), #914 ) ;
#151 = VECTOR ( 'NONE', #88, 1000.000000000000000 ) ;
#152 = UNCERTAINTY_MEASURE_WITH_UNIT (LENGTH_MEASURE( 1.000000000000000082E-05 ), #620, 'distance_accuracy_value', 'NONE');
#153 =( NAMED_UNIT ( * ) SI_UNIT ( $, .STERADIAN. ) SOLID_ANGLE_UNIT ( ) );
#154 = CARTESIAN_POINT ( 'NONE',  ( 1.249999999999999778, -0.05000000000000000278, -0.8499999999999987566 ) ) ;
#155 = EDGE_CURVE ( 'NONE', #365, #207, #119, .T. ) ;
#156 = VERTEX_POINT ( 'NONE', #647 ) ;
#157 = COLOUR_RGB ( '',0.8274509803921568096, 0.8392156862745098200, 0.8274509803921568096 ) ;
#158 = PRODUCT_DEFINITION_FORMATION_WITH_SPECIFIED_SOURCE ( 'ANY', '', #527, .NOT_KNOWN. ) ;
#159 = DIRECTION ( 'NONE',  ( 0.0000000000000000000, 0.0000000000000000000, 1.000000000000000000 ) ) ;
#160 = CARTESIAN_POINT ( 'NONE',  ( -1.249999999999999778, 0.9499999999999998446, 1.250000000000000000 ) ) ;
#161 = MECHANICAL_DESIGN_GEOMETRIC_PRESENTATION_REPRESENTATION (  '', ( #915 ), #217 ) ;
#162 = LINE ( 'NONE', #197, #862 ) ;
#163 = FILL_AREA_STYLE ('',( #375 ) ) ;
#164 = CARTESIAN_POINT ( 'NONE',  ( -1.249999999999999778, 0.0000000000000000000, -0.8500000000000005329 ) ) ;
#165 = PRESENTATION_LAYER_ASSIGNMENT (  '', '', ( #420 ) ) ;
#166 = MECHANICAL_DESIGN_GEOMETRIC_PRESENTATION_REPRESENTATION (  '', ( #889 ), #309 ) ;
#167 = ORIENTED_EDGE ( 'NONE', *, *, #489, .T. ) ;
#168 = CARTESIAN_POINT ( 'NONE',  ( -1.149999999999999911, 0.9499999999999998446, -1.149999999999999911 ) ) ;
#169 = EDGE_CURVE ( 'NONE', #475, #257, #509, .T. ) ;
#170 = SURFACE_STYLE_USAGE ( .BOTH. , #176 ) ;
#171 = VECTOR ( 'NONE', #606, 1000.000000000000000 ) ;
#172 =( NAMED_UNIT ( * ) SI_UNIT ( $, .STERADIAN. ) SOLID_ANGLE_UNIT ( ) );
#173 = DIRECTION ( 'NONE',  ( 0.0000000000000000000, 1.000000000000000000, 0.0000000000000000000 ) ) ;
#174 = FILL_AREA_STYLE_COLOUR ( '', #912 ) ;
#175 =( NAMED_UNIT ( * ) SI_UNIT ( $, .STERADIAN. ) SOLID_ANGLE_UNIT ( ) );
#176 = SURFACE_SIDE_STYLE ('',( #564 ) ) ;
#177 = FACE_OUTER_BOUND ( 'NONE', #314, .T. ) ;
#178 = SURFACE_STYLE_USAGE ( .BOTH. , #595 ) ;
#179 = ORIENTED_EDGE ( 'NONE', *, *, #587, .F. ) ;
#180 = SURFACE_SIDE_STYLE ('',( #872 ) ) ;
#181 = CARTESIAN_POINT ( 'NONE',  ( -1.250000000000000222, 0.5999999999999999778, -1.750000000000000000 ) ) ;
#182 = ORIENTED_EDGE ( 'NONE', *, *, #155, .T. ) ;
#183 = STYLED_ITEM ( 'NONE', ( #130 ), #283 ) ;
#184 = DIRECTION ( 'NONE',  ( 0.0000000000000000000, 1.000000000000000000, -0.0000000000000000000 ) ) ;
#185 =( NAMED_UNIT ( * ) SI_UNIT ( $, .STERADIAN. ) SOLID_ANGLE_UNIT ( ) );
#186 = CARTESIAN_POINT ( 'NONE',  ( 1.149999999999999911, 0.5999999999999999778, 1.149999999999999911 ) ) ;
#187 = CARTESIAN_POINT ( 'NONE',  ( -1.149999999999999911, 0.9499999999999998446, -1.149999999999999911 ) ) ;
#188 = ADVANCED_FACE ( 'NONE', ( #177 ), #254, .F. ) ;
#189 = CARTESIAN_POINT ( 'NONE',  ( 1.149999999999999467, 0.9499999999999998446, -1.149999999999999911 ) ) ;
#190 =( NAMED_UNIT ( * ) SI_UNIT ( $, .STERADIAN. ) SOLID_ANGLE_UNIT ( ) );
#191 = LINE ( 'NONE', #856, #65 ) ;
#192 = ADVANCED_FACE ( 'NONE', ( #828 ), #806, .F. ) ;
#193 = VERTEX_POINT ( 'NONE', #243 ) ;
#194 = CARTESIAN_POINT ( 'NONE',  ( 1.249999999999999778, 0.5999999999999999778, -1.749999999999999778 ) ) ;
#195 = ADVANCED_FACE ( 'NONE', ( #494 ), #812, .T. ) ;
#196 = ORIENTED_EDGE ( 'NONE', *, *, #891, .F. ) ;
#197 = CARTESIAN_POINT ( 'NONE',  ( 1.150000000000000133, 0.9499999999999998446, 1.149999999999999911 ) ) ;
#198 = DIRECTION ( 'NONE',  ( -0.0000000000000000000, 0.0000000000000000000, -1.000000000000000000 ) ) ;
#199 = COLOUR_RGB ( '',0.09803921568627450844, 0.09803921568627450844, 0.09803921568627450844 ) ;
#200 = CARTESIAN_POINT ( 'NONE',  ( 1.249999999999999778, 0.5999999999999999778, -1.749999999999999778 ) ) ;
#201 = CARTESIAN_POINT ( 'NONE',  ( -1.149999999999999911, 0.5999999999999999778, -1.149999999999999911 ) ) ;
#202 = AXIS2_PLACEMENT_3D ( 'NONE', #413, #405, #760 ) ;
#203 = EDGE_CURVE ( 'NONE', #296, #605, #142, .T. ) ;
#204 = SURFACE_STYLE_USAGE ( .BOTH. , #280 ) ;
#205 = DIRECTION ( 'NONE',  ( 0.0000000000000000000, 1.000000000000000000, 0.0000000000000000000 ) ) ;
#206 = FILL_AREA_STYLE_COLOUR ( '', #304 ) ;
#207 = VERTEX_POINT ( 'NONE', #313 ) ;
#208 = ORIENTED_EDGE ( 'NONE', *, *, #849, .F. ) ;
#209 = LINE ( 'NONE', #759, #230 ) ;
#210 =( LENGTH_UNIT ( ) NAMED_UNIT ( * ) SI_UNIT ( .MILLI., .METRE. ) );
#211 = PRESENTATION_STYLE_ASSIGNMENT (( #753 ) ) ;
#212 =( NAMED_UNIT ( * ) SI_UNIT ( $, .STERADIAN. ) SOLID_ANGLE_UNIT ( ) );
#213 =( GEOMETRIC_REPRESENTATION_CONTEXT ( 3 ) GLOBAL_UNCERTAINTY_ASSIGNED_CONTEXT ( ( #639 ) ) GLOBAL_UNIT_ASSIGNED_CONTEXT ( ( #830, #48, #545 ) ) REPRESENTATION_CONTEXT ( 'NONE', 'WORKASPACE' ) );
#214 = ADVANCED_FACE ( 'NONE', ( #768 ), #802, .F. ) ;
#215 = CARTESIAN_POINT ( 'NONE',  ( -1.249999999999999778, 1.500000000000000000, -1.250000000000000000 ) ) ;
#216 = LINE ( 'NONE', #718, #40 ) ;
#217 =( GEOMETRIC_REPRESENTATION_CONTEXT ( 3 ) GLOBAL_UNCERTAINTY_ASSIGNED_CONTEXT ( ( #441 ) ) GLOBAL_UNIT_ASSIGNED_CONTEXT ( ( #100, #671, #660 ) ) REPRESENTATION_CONTEXT ( 'NONE', 'WORKASPACE' ) );
#218 =( LENGTH_UNIT ( ) NAMED_UNIT ( * ) SI_UNIT ( .MILLI., .METRE. ) );
#219 = AXIS2_PLACEMENT_3D ( 'NONE', #337, #145, #772 ) ;
#220 = FACE_OUTER_BOUND ( 'NONE', #905, .T. ) ;
#221 = PRESENTATION_LAYER_ASSIGNMENT (  '', '', ( #889 ) ) ;
#222 = COLOUR_RGB ( '',0.5372549019607842924, 0.3490196078431372362, 0.3372549019607843368 ) ;
#223 = VECTOR ( 'NONE', #353, 1000.000000000000000 ) ;
#224 = EDGE_CURVE ( 'NONE', #480, #91, #358, .T. ) ;
#225 = PRODUCT_DEFINITION ( 'UNKNOWN', '', #158, #667 ) ;
#226 = ORIENTED_EDGE ( 'NONE', *, *, #260, .T. ) ;
#227 = DIRECTION ( 'NONE',  ( -0.0000000000000000000, 0.0000000000000000000, -1.000000000000000000 ) ) ;
#228 = APPLICATION_PROTOCOL_DEFINITION ( 'draft international standard', 'automotive_design', 1998, #86 ) ;
#229 = ORIENTED_EDGE ( 'NONE', *, *, #638, .F. ) ;
#230 = VECTOR ( 'NONE', #787, 1000.000000000000000 ) ;
#231 = ORIENTED_EDGE ( 'NONE', *, *, #438, .F. ) ;
#232 = LINE ( 'NONE', #31, #666 ) ;
#233 = EDGE_CURVE ( 'NONE', #91, #540, #774, .T. ) ;
#234 = STYLED_ITEM ( 'NONE', ( #542 ), #195 ) ;
#235 = PLANE ( 'NONE',  #442 ) ;
#236 = LINE ( 'NONE', #700, #500 ) ;
#237 = PRESENTATION_LAYER_ASSIGNMENT (  '', '', ( #773 ) ) ;
#238 = VECTOR ( 'NONE', #288, 1000.000000000000000 ) ;
#239 = CARTESIAN_POINT ( 'NONE',  ( 1.249999999999999778, 0.0000000000000000000, -0.8499999999999992006 ) ) ;
#240 =( NAMED_UNIT ( * ) SI_UNIT ( $, .STERADIAN. ) SOLID_ANGLE_UNIT ( ) );
#241 = VECTOR ( 'NONE', #579, 1000.000000000000000 ) ;
#242 = CARTESIAN_POINT ( 'NONE',  ( -1.149999999999999911, 0.5999999999999999778, -1.149999999999999911 ) ) ;
#243 = CARTESIAN_POINT ( 'NONE',  ( -1.149999999999999689, 0.5999999999999999778, 1.149999999999999911 ) ) ;
#244 = CARTESIAN_POINT ( 'NONE',  ( -1.250000000000000222, 0.5999999999999999778, -1.749999999999999778 ) ) ;
#245 = MECHANICAL_DESIGN_GEOMETRIC_PRESENTATION_REPRESENTATION (  '', ( #420 ), #868 ) ;
#246 = ORIENTED_EDGE ( 'NONE', *, *, #224, .T. ) ;
#247 = VERTEX_POINT ( 'NONE', #164 ) ;
#248 = VECTOR ( 'NONE', #134, 1000.000000000000000 ) ;
#249 = VECTOR ( 'NONE', #105, 1000.000000000000000 ) ;
#250 = SURFACE_STYLE_FILL_AREA ( #351 ) ;
#251 = PRESENTATION_STYLE_ASSIGNMENT (( #908 ) ) ;
#252 =( LENGTH_UNIT ( ) NAMED_UNIT ( * ) SI_UNIT ( .MILLI., .METRE. ) );
#253 = SURFACE_STYLE_USAGE ( .BOTH. , #180 ) ;
#254 = PLANE ( 'NONE',  #90 ) ;
#255 = CARTESIAN_POINT ( 'NONE',  ( 1.250000000000000000, 1.500000000000000000, 1.250000000000000000 ) ) ;
#256 = PLANE ( 'NONE',  #534 ) ;
#257 = VERTEX_POINT ( 'NONE', #864 ) ;
#258 = DIRECTION ( 'NONE',  ( 0.0000000000000000000, 0.0000000000000000000, 1.000000000000000000 ) ) ;
#259 = CARTESIAN_POINT ( 'NONE',  ( 1.249999999999999778, -0.05000000000000000971, 0.8499999999999994227 ) ) ;
#260 = EDGE_CURVE ( 'NONE', #550, #287, #581, .T. ) ;
#261 = STYLED_ITEM ( 'NONE', ( #336 ), #214 ) ;
#262 = ADVANCED_FACE ( 'NONE', ( #572 ), #256, .F. ) ;
#263 = LINE ( 'NONE', #906, #320 ) ;
#264 = ADVANCED_FACE ( 'NONE', ( #680 ), #883, .F. ) ;
#265 = FILL_AREA_STYLE_COLOUR ( '', #19 ) ;
#266 = DIRECTION ( 'NONE',  ( 1.000000000000000000, -0.0000000000000000000, 6.938893903907227392E-16 ) ) ;
#267 = MECHANICAL_DESIGN_GEOMETRIC_PRESENTATION_REPRESENTATION (  '', ( #378 ), #308 ) ;
#268 = EDGE_CURVE ( 'NONE', #524, #480, #291, .T. ) ;
#269 = CARTESIAN_POINT ( 'NONE',  ( -1.250000000000000000, 0.9499999999999998446, -1.250000000000000000 ) ) ;
#270 = CARTESIAN_POINT ( 'NONE',  ( -1.250000000000000222, 0.5999999999999999778, 1.749999999999999556 ) ) ;
#271 = FACE_OUTER_BOUND ( 'NONE', #302, .T. ) ;
#272 = DIRECTION ( 'NONE',  ( 1.000000000000000000, -0.0000000000000000000, 0.0000000000000000000 ) ) ;
#273 = ORIENTED_EDGE ( 'NONE', *, *, #638, .T. ) ;
#274 = DIRECTION ( 'NONE',  ( -1.000000000000000000, 0.0000000000000000000, -0.0000000000000000000 ) ) ;
#275 = CARTESIAN_POINT ( 'NONE',  ( -1.249999999999999778, 1.500000000000000000, 1.250000000000000000 ) ) ;
#276 =( NAMED_UNIT ( * ) PLANE_ANGLE_UNIT ( ) SI_UNIT ( $, .RADIAN. ) );
#277 = ORIENTED_EDGE ( 'NONE', *, *, #107, .F. ) ;
#278 = ORIENTED_EDGE ( 'NONE', *, *, #489, .F. ) ;
#279 = PRODUCT_DEFINITION_SHAPE ( 'NONE', 'NONE',  #225 ) ;
#280 = SURFACE_SIDE_STYLE ('',( #54 ) ) ;
#281 = SURFACE_STYLE_FILL_AREA ( #23 ) ;
#282 = CARTESIAN_POINT ( 'NONE',  ( -1.250000000000000222, 0.5999999999999999778, -1.749999999999999778 ) ) ;
#283 = ADVANCED_FACE ( 'NONE', ( #143 ), #345, .F. ) ;
#284 = UNCERTAINTY_MEASURE_WITH_UNIT (LENGTH_MEASURE( 1.000000000000000082E-05 ), #389, 'distance_accuracy_value', 'NONE');
#285 = PLANE ( 'NONE',  #202 ) ;
#286 = PRESENTATION_LAYER_ASSIGNMENT (  '', '', ( #183 ) ) ;
#287 = VERTEX_POINT ( 'NONE', #698 ) ;
#288 = DIRECTION ( 'NONE',  ( 0.0000000000000000000, 1.000000000000000000, 0.0000000000000000000 ) ) ;
#289 = DIRECTION ( 'NONE',  ( -1.734723475976807094E-16, 0.0000000000000000000, 1.000000000000000000 ) ) ;
#290 = LINE ( 'NONE', #820, #70 ) ;
#291 = LINE ( 'NONE', #701, #884 ) ;
#292 = AXIS2_PLACEMENT_3D ( 'NONE', #270, #901, #402 ) ;
#293 = ORIENTED_EDGE ( 'NONE', *, *, #438, .T. ) ;
#294 = MANIFOLD_SOLID_BREP ( 'NONE', #7 ) ;
#295 = STYLED_ITEM ( 'NONE', ( #251 ), #461 ) ;
#296 = VERTEX_POINT ( 'NONE', #702 ) ;
#297 = VECTOR ( 'NONE', #301, 1000.000000000000000 ) ;
#298 = ORIENTED_EDGE ( 'NONE', *, *, #43, .T. ) ;
#299 = SURFACE_STYLE_FILL_AREA ( #623 ) ;
#300 = PRODUCT_CONTEXT ( 'NONE', #86, 'mechanical' ) ;
#301 = DIRECTION ( 'NONE',  ( 0.0000000000000000000, 0.0000000000000000000, -1.000000000000000000 ) ) ;
#302 = EDGE_LOOP ( 'NONE', ( #273, #231, #793, #499 ) ) ;
#303 = SURFACE_STYLE_FILL_AREA ( #459 ) ;
#304 = COLOUR_RGB ( '',0.09803921568627450844, 0.09803921568627450844, 0.09803921568627450844 ) ;
#305 = EDGE_CURVE ( 'NONE', #540, #137, #263, .T. ) ;
#306 = PRESENTATION_LAYER_ASSIGNMENT (  '', '', ( #261 ) ) ;
#307 = DIRECTION ( 'NONE',  ( 0.0000000000000000000, -1.000000000000000000, -0.0000000000000000000 ) ) ;
#308 =( GEOMETRIC_REPRESENTATION_CONTEXT ( 3 ) GLOBAL_UNCERTAINTY_ASSIGNED_CONTEXT ( ( #36 ) ) GLOBAL_UNIT_ASSIGNED_CONTEXT ( ( #508, #798, #5 ) ) REPRESENTATION_CONTEXT ( 'NONE', 'WORKASPACE' ) );
#309 =( GEOMETRIC_REPRESENTATION_CONTEXT ( 3 ) GLOBAL_UNCERTAINTY_ASSIGNED_CONTEXT ( ( #418 ) ) GLOBAL_UNIT_ASSIGNED_CONTEXT ( ( #464, #460, #819 ) ) REPRESENTATION_CONTEXT ( 'NONE', 'WORKASPACE' ) );
#310 = EDGE_LOOP ( 'NONE', ( #316, #364, #854, #179 ) ) ;
#311 = CARTESIAN_POINT ( 'NONE',  ( -1.149999999999999689, 0.9499999999999998446, 1.250000000000000000 ) ) ;
#312 = EDGE_CURVE ( 'NONE', #207, #247, #477, .T. ) ;
#313 = CARTESIAN_POINT ( 'NONE',  ( -1.249999999999999556, -0.05000000000000000971, -0.8500000000000000888 ) ) ;
#314 = EDGE_LOOP ( 'NONE', ( #69, #619, #904, #855 ) ) ;
#315 = PRODUCT_RELATED_PRODUCT_CATEGORY ( 'part', '', ( #527 ) ) ;
#316 = ORIENTED_EDGE ( 'NONE', *, *, #916, .F. ) ;
#317 = DIRECTION ( 'NONE',  ( 0.0000000000000000000, -0.0000000000000000000, 1.000000000000000000 ) ) ;
#318 = FILL_AREA_STYLE ('',( #861 ) ) ;
#319 =( NAMED_UNIT ( * ) SI_UNIT ( $, .STERADIAN. ) SOLID_ANGLE_UNIT ( ) );
#320 = VECTOR ( 'NONE', #842, 1000.000000000000000 ) ;
#321 =( NAMED_UNIT ( * ) SI_UNIT ( $, .STERADIAN. ) SOLID_ANGLE_UNIT ( ) );
#322 = ORIENTED_EDGE ( 'NONE', *, *, #916, .T. ) ;
#323 = STYLED_ITEM ( 'NONE', ( #755 ), #262 ) ;
#324 = DIRECTION ( 'NONE',  ( 0.0000000000000000000, 0.0000000000000000000, 1.000000000000000000 ) ) ;
#325 = VECTOR ( 'NONE', #827, 1000.000000000000000 ) ;
#326 = SURFACE_STYLE_USAGE ( .BOTH. , #896 ) ;
#327 = PLANE ( 'NONE',  #689 ) ;
#328 = AXIS2_PLACEMENT_3D ( 'NONE', #823, #886, #673 ) ;
#329 = LINE ( 'NONE', #611, #30 ) ;
#330 = FILL_AREA_STYLE ('',( #265 ) ) ;
#331 = CARTESIAN_POINT ( 'NONE',  ( 1.149999999999999911, 0.9499999999999998446, -1.149999999999999911 ) ) ;
#332 = VERTEX_POINT ( 'NONE', #548 ) ;
#333 = CARTESIAN_POINT ( 'NONE',  ( -1.250000000000000222, -0.05000000000000002359, -1.749999999999999778 ) ) ;
#334 = PRESENTATION_STYLE_ASSIGNMENT (( #765 ) ) ;
#335 = ORIENTED_EDGE ( 'NONE', *, *, #62, .T. ) ;
#336 = PRESENTATION_STYLE_ASSIGNMENT (( #876 ) ) ;
#337 = CARTESIAN_POINT ( 'NONE',  ( 1.250000000000000000, 1.500000000000000000, 1.250000000000000000 ) ) ;
#338 = LINE ( 'NONE', #888, #325 ) ;
#339 = VECTOR ( 'NONE', #159, 1000.000000000000000 ) ;
#340 =( GEOMETRIC_REPRESENTATION_CONTEXT ( 3 ) GLOBAL_UNCERTAINTY_ASSIGNED_CONTEXT ( ( #374 ) ) GLOBAL_UNIT_ASSIGNED_CONTEXT ( ( #218, #481, #56 ) ) REPRESENTATION_CONTEXT ( 'NONE', 'WORKASPACE' ) );
#341 = ADVANCED_FACE ( 'NONE', ( #448 ), #285, .F. ) ;
#342 = FILL_AREA_STYLE_COLOUR ( '', #484 ) ;
#343 = PLANE ( 'NONE',  #292 ) ;
#344 = COLOUR_RGB ( '',0.5372549019607842924, 0.3490196078431372362, 0.3372549019607843368 ) ;
#345 = PLANE ( 'NONE',  #637 ) ;
#346 = ORIENTED_EDGE ( 'NONE', *, *, #654, .F. ) ;
#347 =( NAMED_UNIT ( * ) PLANE_ANGLE_UNIT ( ) SI_UNIT ( $, .RADIAN. ) );
#348 = FACE_BOUND ( 'NONE', #470, .T. ) ;
#349 = FACE_OUTER_BOUND ( 'NONE', #726, .T. ) ;
#350 = FACE_OUTER_BOUND ( 'NONE', #738, .T. ) ;
#351 = FILL_AREA_STYLE ('',( #133 ) ) ;
#352 = AXIS2_PLACEMENT_3D ( 'NONE', #801, #650, #874 ) ;
#353 = DIRECTION ( 'NONE',  ( -1.000000000000000000, -0.0000000000000000000, 0.0000000000000000000 ) ) ;
#354 = EDGE_LOOP ( 'NONE', ( #408, #686, #407, #383 ) ) ;
#355 =( GEOMETRIC_REPRESENTATION_CONTEXT ( 3 ) GLOBAL_UNCERTAINTY_ASSIGNED_CONTEXT ( ( #368 ) ) GLOBAL_UNIT_ASSIGNED_CONTEXT ( ( #770, #276, #763 ) ) REPRESENTATION_CONTEXT ( 'NONE', 'WORKASPACE' ) );
#356 = MECHANICAL_DESIGN_GEOMETRIC_PRESENTATION_REPRESENTATION (  '', ( #708 ), #750 ) ;
#357 = ORIENTED_EDGE ( 'NONE', *, *, #797, .F. ) ;
#358 = LINE ( 'NONE', #674, #34 ) ;
#359 = EDGE_CURVE ( 'NONE', #332, #91, #386, .T. ) ;
#360 = SURFACE_STYLE_FILL_AREA ( #163 ) ;
#361 =( LENGTH_UNIT ( ) NAMED_UNIT ( * ) SI_UNIT ( .MILLI., .METRE. ) );
#362 =( NAMED_UNIT ( * ) SI_UNIT ( $, .STERADIAN. ) SOLID_ANGLE_UNIT ( ) );
#363 = EDGE_LOOP ( 'NONE', ( #911, #47, #567, #25 ) ) ;
#364 = ORIENTED_EDGE ( 'NONE', *, *, #135, .T. ) ;
#365 = VERTEX_POINT ( 'NONE', #841 ) ;
#366 = SURFACE_STYLE_FILL_AREA ( #106 ) ;
#367 = PRESENTATION_LAYER_ASSIGNMENT (  '', '', ( #323 ) ) ;
#368 = UNCERTAINTY_MEASURE_WITH_UNIT (LENGTH_MEASURE( 1.000000000000000082E-05 ), #770, 'distance_accuracy_value', 'NONE');
#369 = ORIENTED_EDGE ( 'NONE', *, *, #135, .F. ) ;
#370 = PRESENTATION_LAYER_ASSIGNMENT (  '', '', ( #704 ) ) ;
#371 = SURFACE_STYLE_USAGE ( .BOTH. , #16 ) ;
#372 = FILL_AREA_STYLE_COLOUR ( '', #344 ) ;
#373 = FACE_OUTER_BOUND ( 'NONE', #127, .T. ) ;
#374 = UNCERTAINTY_MEASURE_WITH_UNIT (LENGTH_MEASURE( 1.000000000000000082E-05 ), #218, 'distance_accuracy_value', 'NONE');
#375 = FILL_AREA_STYLE_COLOUR ( '', #114 ) ;
#376 = DIRECTION ( 'NONE',  ( -1.000000000000000000, 0.0000000000000000000, -1.734723475976807094E-16 ) ) ;
#377 = DIRECTION ( 'NONE',  ( 0.0000000000000000000, -0.0000000000000000000, 1.000000000000000000 ) ) ;
#378 = STYLED_ITEM ( 'NONE', ( #714 ), #553 ) ;
#379 = LINE ( 'NONE', #37, #910 ) ;
#380 =( NAMED_UNIT ( * ) PLANE_ANGLE_UNIT ( ) SI_UNIT ( $, .RADIAN. ) );
#381 = ORIENTED_EDGE ( 'NONE', *, *, #268, .F. ) ;
#382 = CARTESIAN_POINT ( 'NONE',  ( -1.250000000000000222, 0.5999999999999999778, 1.749999999999999556 ) ) ;
#383 = ORIENTED_EDGE ( 'NONE', *, *, #710, .T. ) ;
#384 = FILL_AREA_STYLE_COLOUR ( '', #624 ) ;
#385 = LINE ( 'NONE', #749, #694 ) ;
#386 = LINE ( 'NONE', #200, #652 ) ;
#387 = DIRECTION ( 'NONE',  ( -0.0000000000000000000, -1.000000000000000000, -0.0000000000000000000 ) ) ;
#388 = DIRECTION ( 'NONE',  ( -8.673617379884034239E-17, 0.0000000000000000000, -1.000000000000000000 ) ) ;
#389 =( LENGTH_UNIT ( ) NAMED_UNIT ( * ) SI_UNIT ( .MILLI., .METRE. ) );
#390 = PRESENTATION_LAYER_ASSIGNMENT (  '', '', ( #80 ) ) ;
#391 = DIRECTION ( 'NONE',  ( 0.0000000000000000000, 0.0000000000000000000, -1.000000000000000000 ) ) ;
#392 = DIRECTION ( 'NONE',  ( 0.0000000000000000000, -1.000000000000000000, -0.0000000000000000000 ) ) ;
#393 = PRESENTATION_LAYER_ASSIGNMENT (  '', '', ( #234 ) ) ;
#394 =( NAMED_UNIT ( * ) PLANE_ANGLE_UNIT ( ) SI_UNIT ( $, .RADIAN. ) );
#395 = LINE ( 'NONE', #835, #643 ) ;
#396 = CARTESIAN_POINT ( 'NONE',  ( -1.249999999999999778, 1.500000000000000000, 1.250000000000000000 ) ) ;
#397 = FILL_AREA_STYLE ('',( #384 ) ) ;
#398 = ADVANCED_FACE ( 'NONE', ( #350 ), #690, .F. ) ;
#399 = STYLED_ITEM ( 'NONE', ( #851 ), #188 ) ;
#400 = EDGE_CURVE ( 'NONE', #257, #406, #565, .T. ) ;
#401 = FILL_AREA_STYLE_COLOUR ( '', #734 ) ;
#402 = DIRECTION ( 'NONE',  ( 0.0000000000000000000, -0.0000000000000000000, 1.000000000000000000 ) ) ;
#403 = SURFACE_SIDE_STYLE ('',( #873 ) ) ;
#404 = CARTESIAN_POINT ( 'NONE',  ( 1.249999999999999778, -0.05000000000000000278, 1.750000000000000000 ) ) ;
#405 = DIRECTION ( 'NONE',  ( 0.0000000000000000000, 1.000000000000000000, 0.0000000000000000000 ) ) ;
#406 = VERTEX_POINT ( 'NONE', #416 ) ;
#407 = ORIENTED_EDGE ( 'NONE', *, *, #585, .T. ) ;
#408 = ORIENTED_EDGE ( 'NONE', *, *, #63, .T. ) ;
#409 = VECTOR ( 'NONE', #457, 1000.000000000000000 ) ;
#410 = COLOUR_RGB ( '',0.09803921568627450844, 0.09803921568627450844, 0.09803921568627450844 ) ;
#411 =( NAMED_UNIT ( * ) SI_UNIT ( $, .STERADIAN. ) SOLID_ANGLE_UNIT ( ) );
#412 = MECHANICAL_DESIGN_GEOMETRIC_PRESENTATION_REPRESENTATION (  '', ( #323 ), #746 ) ;
#413 = CARTESIAN_POINT ( 'NONE',  ( -1.250000000000000222, 0.0000000000000000000, 1.749999999999999556 ) ) ;
#414 = VECTOR ( 'NONE', #679, 1000.000000000000000 ) ;
#415 = EDGE_LOOP ( 'NONE', ( #549, #148, #381, #918 ) ) ;
#416 = CARTESIAN_POINT ( 'NONE',  ( -1.250000000000000000, 1.500000000000000000, -1.250000000000000000 ) ) ;
#417 = MECHANICAL_DESIGN_GEOMETRIC_PRESENTATION_REPRESENTATION (  '', ( #704 ), #563 ) ;
#418 = UNCERTAINTY_MEASURE_WITH_UNIT (LENGTH_MEASURE( 1.000000000000000082E-05 ), #464, 'distance_accuracy_value', 'NONE');
#419 = ORIENTED_EDGE ( 'NONE', *, *, #359, .T. ) ;
#420 = STYLED_ITEM ( 'NONE', ( #49 ), #294 ) ;
#421 = ORIENTED_EDGE ( 'NONE', *, *, #875, .F. ) ;
#422 = FACE_BOUND ( 'NONE', #46, .T. ) ;
#423 = UNCERTAINTY_MEASURE_WITH_UNIT (LENGTH_MEASURE( 1.000000000000000082E-05 ), #736, 'distance_accuracy_value', 'NONE');
#424 = DIRECTION ( 'NONE',  ( -1.000000000000000000, -0.0000000000000000000, -0.0000000000000000000 ) ) ;
#425 =( LENGTH_UNIT ( ) NAMED_UNIT ( * ) SI_UNIT ( .MILLI., .METRE. ) );
#426 = DIRECTION ( 'NONE',  ( 0.0000000000000000000, -1.000000000000000000, 0.0000000000000000000 ) ) ;
#427 = ORIENTED_EDGE ( 'NONE', *, *, #96, .T. ) ;
#428 =( GEOMETRIC_REPRESENTATION_CONTEXT ( 3 ) GLOBAL_UNCERTAINTY_ASSIGNED_CONTEXT ( ( #144 ) ) GLOBAL_UNIT_ASSIGNED_CONTEXT ( ( #522, #99, #321 ) ) REPRESENTATION_CONTEXT ( 'NONE', 'WORKASPACE' ) );
#429 = DIRECTION ( 'NONE',  ( 0.0000000000000000000, 0.0000000000000000000, 1.000000000000000000 ) ) ;
#430 = LINE ( 'NONE', #255, #3 ) ;
#431 = DIRECTION ( 'NONE',  ( 1.000000000000000000, 0.0000000000000000000, -0.0000000000000000000 ) ) ;
#432 = VECTOR ( 'NONE', #79, 1000.000000000000000 ) ;
#433 = CARTESIAN_POINT ( 'NONE',  ( 1.250000000000000000, 1.500000000000000000, -1.250000000000000000 ) ) ;
#434 = FILL_AREA_STYLE ('',( #662 ) ) ;
#435 = STYLED_ITEM ( 'NONE', ( #72 ), #341 ) ;
#436 = MECHANICAL_DESIGN_GEOMETRIC_PRESENTATION_REPRESENTATION (  '', ( #399 ), #39 ) ;
#437 = CARTESIAN_POINT ( 'NONE',  ( 1.249999999999999778, 0.5999999999999999778, 1.749999999999999778 ) ) ;
#438 = EDGE_CURVE ( 'NONE', #833, #475, #756, .T. ) ;
#439 =( NAMED_UNIT ( * ) PLANE_ANGLE_UNIT ( ) SI_UNIT ( $, .RADIAN. ) );
#440 = EDGE_LOOP ( 'NONE', ( #335, #123, #514, #357 ) ) ;
#441 = UNCERTAINTY_MEASURE_WITH_UNIT (LENGTH_MEASURE( 1.000000000000000082E-05 ), #100, 'distance_accuracy_value', 'NONE');
#442 = AXIS2_PLACEMENT_3D ( 'NONE', #433, #429, #431 ) ;
#443 = FILL_AREA_STYLE_COLOUR ( '', #789 ) ;
#444 =( LENGTH_UNIT ( ) NAMED_UNIT ( * ) SI_UNIT ( .MILLI., .METRE. ) );
#445 = ORIENTED_EDGE ( 'NONE', *, *, #834, .T. ) ;
#446 = ORIENTED_EDGE ( 'NONE', *, *, #641, .F. ) ;
#447 = LINE ( 'NONE', #892, #129 ) ;
#448 = FACE_OUTER_BOUND ( 'NONE', #147, .T. ) ;
#449 = FACE_OUTER_BOUND ( 'NONE', #354, .T. ) ;
#450 = CARTESIAN_POINT ( 'NONE',  ( 0.0000000000000000000, 0.0000000000000000000, 0.0000000000000000000 ) ) ;
#451 = SURFACE_SIDE_STYLE ('',( #281 ) ) ;
#452 = CARTESIAN_POINT ( 'NONE',  ( 1.149999999999999911, 0.9499999999999998446, 1.250000000000000000 ) ) ;
#453 = CARTESIAN_POINT ( 'NONE',  ( 1.249999999999999778, -0.05000000000000000278, 1.750000000000000000 ) ) ;
#454 =( LENGTH_UNIT ( ) NAMED_UNIT ( * ) SI_UNIT ( .MILLI., .METRE. ) );
#455 = ORIENTED_EDGE ( 'NONE', *, *, #13, .T. ) ;
#456 = AXIS2_PLACEMENT_3D ( 'NONE', #382, #9, #376 ) ;
#457 = DIRECTION ( 'NONE',  ( -0.0000000000000000000, 0.0000000000000000000, -1.000000000000000000 ) ) ;
#458 = VECTOR ( 'NONE', #387, 1000.000000000000000 ) ;
#459 = FILL_AREA_STYLE ('',( #89 ) ) ;
#460 =( NAMED_UNIT ( * ) PLANE_ANGLE_UNIT ( ) SI_UNIT ( $, .RADIAN. ) );
#461 = ADVANCED_FACE ( 'NONE', ( #373 ), #561, .T. ) ;
#462 = SURFACE_STYLE_FILL_AREA ( #815 ) ;
#463 = VECTOR ( 'NONE', #516, 1000.000000000000000 ) ;
#464 =( LENGTH_UNIT ( ) NAMED_UNIT ( * ) SI_UNIT ( .MILLI., .METRE. ) );
#465 = CARTESIAN_POINT ( 'NONE',  ( -1.249999999999999334, 0.0000000000000000000, -0.8500000000000006439 ) ) ;
#466 =( GEOMETRIC_REPRESENTATION_CONTEXT ( 3 ) GLOBAL_UNCERTAINTY_ASSIGNED_CONTEXT ( ( #803 ) ) GLOBAL_UNIT_ASSIGNED_CONTEXT ( ( #252, #739, #813 ) ) REPRESENTATION_CONTEXT ( 'NONE', 'WORKASPACE' ) );
#467 = CARTESIAN_POINT ( 'NONE',  ( -1.250000000000000222, -0.05000000000000002359, -1.749999999999999778 ) ) ;
#468 = VECTOR ( 'NONE', #258, 1000.000000000000000 ) ;
#469 = SURFACE_SIDE_STYLE ('',( #299 ) ) ;
#470 = EDGE_LOOP ( 'NONE', ( #642, #717, #167, #87 ) ) ;
#471 = FILL_AREA_STYLE ('',( #401 ) ) ;
#472 =( NAMED_UNIT ( * ) PLANE_ANGLE_UNIT ( ) SI_UNIT ( $, .RADIAN. ) );
#473 = FILL_AREA_STYLE_COLOUR ( '', #788 ) ;
#474 = ORIENTED_EDGE ( 'NONE', *, *, #695, .F. ) ;
#475 = VERTEX_POINT ( 'NONE', #653 ) ;
#476 = SURFACE_STYLE_FILL_AREA ( #486 ) ;
#477 = LINE ( 'NONE', #51, #238 ) ;
#478 = FILL_AREA_STYLE_COLOUR ( '', #539 ) ;
#479 =( LENGTH_UNIT ( ) NAMED_UNIT ( * ) SI_UNIT ( .MILLI., .METRE. ) );
#480 = VERTEX_POINT ( 'NONE', #437 ) ;
#481 =( NAMED_UNIT ( * ) PLANE_ANGLE_UNIT ( ) SI_UNIT ( $, .RADIAN. ) );
#482 = AXIS2_PLACEMENT_3D ( 'NONE', #404, #205, #551 ) ;
#483 = COLOUR_RGB ( '',0.8274509803921568096, 0.8392156862745098200, 0.8274509803921568096 ) ;
#484 = COLOUR_RGB ( '',0.7960784313725489669, 0.8235294117647058432, 0.9372549019607843146 ) ;
#485 = VECTOR ( 'NONE', #727, 1000.000000000000000 ) ;
#486 = FILL_AREA_STYLE ('',( #60 ) ) ;
#487 = MECHANICAL_DESIGN_GEOMETRIC_PRESENTATION_REPRESENTATION (  '', ( #261 ), #885 ) ;
#488 = PRESENTATION_LAYER_ASSIGNMENT (  '', '', ( #295 ) ) ;
#489 = EDGE_CURVE ( 'NONE', #742, #193, #848, .T. ) ;
#490 = ORIENTED_EDGE ( 'NONE', *, *, #400, .F. ) ;
#491 = EDGE_CURVE ( 'NONE', #193, #287, #769, .T. ) ;
#492 = VERTEX_POINT ( 'NONE', #863 ) ;
#493 = LINE ( 'NONE', #189, #414 ) ;
#494 = FACE_OUTER_BOUND ( 'NONE', #808, .T. ) ;
#495 = MECHANICAL_DESIGN_GEOMETRIC_PRESENTATION_REPRESENTATION (  '', ( #80 ), #213 ) ;
#496 = UNCERTAINTY_MEASURE_WITH_UNIT (LENGTH_MEASURE( 1.000000000000000082E-05 ), #899, 'distance_accuracy_value', 'NONE');
#497 = SURFACE_STYLE_FILL_AREA ( #14 ) ;
#498 = APPLICATION_CONTEXT ( 'automotive_design' ) ;
#499 = ORIENTED_EDGE ( 'NONE', *, *, #585, .F. ) ;
#500 = VECTOR ( 'NONE', #198, 1000.000000000000000 ) ;
#501 = FACE_OUTER_BOUND ( 'NONE', #310, .T. ) ;
#502 = UNCERTAINTY_MEASURE_WITH_UNIT (LENGTH_MEASURE( 1.000000000000000082E-05 ), #361, 'distance_accuracy_value', 'NONE');
#503 = VECTOR ( 'NONE', #580, 1000.000000000000000 ) ;
#504 = SURFACE_STYLE_FILL_AREA ( #45 ) ;
#505 = CARTESIAN_POINT ( 'NONE',  ( 1.249999999999999778, 0.5999999999999999778, 1.749999999999999778 ) ) ;
#506 = PRESENTATION_LAYER_ASSIGNMENT (  '', '', ( #915 ) ) ;
#507 =( NAMED_UNIT ( * ) SI_UNIT ( $, .STERADIAN. ) SOLID_ANGLE_UNIT ( ) );
#508 =( LENGTH_UNIT ( ) NAMED_UNIT ( * ) SI_UNIT ( .MILLI., .METRE. ) );
#509 = LINE ( 'NONE', #645, #778 ) ;
#510 = STYLED_ITEM ( 'NONE', ( #692 ), #832 ) ;
#511 = ORIENTED_EDGE ( 'NONE', *, *, #400, .T. ) ;
#512 = CARTESIAN_POINT ( 'NONE',  ( -1.250000000000000000, -0.05000000000000000278, 0.8499999999999996447 ) ) ;
#513 = DIRECTION ( 'NONE',  ( 1.000000000000000000, 0.0000000000000000000, -0.0000000000000000000 ) ) ;
#514 = ORIENTED_EDGE ( 'NONE', *, *, #117, .T. ) ;
#515 = VECTOR ( 'NONE', #377, 1000.000000000000000 ) ;
#516 = DIRECTION ( 'NONE',  ( -0.0000000000000000000, -1.000000000000000000, 0.0000000000000000000 ) ) ;
#517 = LINE ( 'NONE', #512, #463 ) ;
#518 = SURFACE_STYLE_USAGE ( .BOTH. , #451 ) ;
#519 = MECHANICAL_DESIGN_GEOMETRIC_PRESENTATION_REPRESENTATION (  '', ( #295 ), #340 ) ;
#520 = FACE_OUTER_BOUND ( 'NONE', #711, .T. ) ;
#521 =( NAMED_UNIT ( * ) PLANE_ANGLE_UNIT ( ) SI_UNIT ( $, .RADIAN. ) );
#522 =( LENGTH_UNIT ( ) NAMED_UNIT ( * ) SI_UNIT ( .MILLI., .METRE. ) );
#523 = DIRECTION ( 'NONE',  ( 0.0000000000000000000, 0.0000000000000000000, 1.000000000000000000 ) ) ;
#524 = VERTEX_POINT ( 'NONE', #12 ) ;
#525 = CARTESIAN_POINT ( 'NONE',  ( -1.249999999999999334, -0.05000000000000000278, -0.8500000000000006439 ) ) ;
#526 = FACE_OUTER_BOUND ( 'NONE', #766, .T. ) ;
#527 = PRODUCT ( 'Coilcraft-ME3215', 'Coilcraft-ME3215', '', ( #300 ) ) ;
#528 = VECTOR ( 'NONE', #533, 1000.000000000000000 ) ;
#529 = DIRECTION ( 'NONE',  ( 1.000000000000000000, 0.0000000000000000000, -0.0000000000000000000 ) ) ;
#530 = DIRECTION ( 'NONE',  ( 1.000000000000000000, 0.0000000000000000000, 1.734723475976807094E-16 ) ) ;
#531 = SURFACE_SIDE_STYLE ('',( #303 ) ) ;
#532 =( GEOMETRIC_REPRESENTATION_CONTEXT ( 3 ) GLOBAL_UNCERTAINTY_ASSIGNED_CONTEXT ( ( #887 ) ) GLOBAL_UNIT_ASSIGNED_CONTEXT ( ( #607, #685, #190 ) ) REPRESENTATION_CONTEXT ( 'NONE', 'WORKASPACE' ) );
#533 = DIRECTION ( 'NONE',  ( 1.000000000000000000, 0.0000000000000000000, -0.0000000000000000000 ) ) ;
#534 = AXIS2_PLACEMENT_3D ( 'NONE', #187, #324, #816 ) ;
#535 =( LENGTH_UNIT ( ) NAMED_UNIT ( * ) SI_UNIT ( .MILLI., .METRE. ) );
#536 = PLANE ( 'NONE',  #646 ) ;
#537 = VERTEX_POINT ( 'NONE', #794 ) ;
#538 = DIRECTION ( 'NONE',  ( 0.0000000000000000000, 0.0000000000000000000, -1.000000000000000000 ) ) ;
#539 = COLOUR_RGB ( '',0.09803921568627450844, 0.09803921568627450844, 0.09803921568627450844 ) ;
#540 = VERTEX_POINT ( 'NONE', #866 ) ;
#541 = EDGE_CURVE ( 'NONE', #648, #550, #574, .T. ) ;
#542 = PRESENTATION_STYLE_ASSIGNMENT (( #170 ) ) ;
#543 = EDGE_CURVE ( 'NONE', #492, #480, #81, .T. ) ;
#544 =( LENGTH_UNIT ( ) NAMED_UNIT ( * ) SI_UNIT ( .MILLI., .METRE. ) );
#545 =( NAMED_UNIT ( * ) SI_UNIT ( $, .STERADIAN. ) SOLID_ANGLE_UNIT ( ) );
#546 =( GEOMETRIC_REPRESENTATION_CONTEXT ( 3 ) GLOBAL_UNCERTAINTY_ASSIGNED_CONTEXT ( ( #777 ) ) GLOBAL_UNIT_ASSIGNED_CONTEXT ( ( #83, #586, #172 ) ) REPRESENTATION_CONTEXT ( 'NONE', 'WORKASPACE' ) );
#547 = SURFACE_STYLE_USAGE ( .BOTH. , #626 ) ;
#548 = CARTESIAN_POINT ( 'NONE',  ( 1.249999999999999778, -0.05000000000000000971, -1.749999999999999778 ) ) ;
#549 = ORIENTED_EDGE ( 'NONE', *, *, #43, .F. ) ;
#550 = VERTEX_POINT ( 'NONE', #168 ) ;
#551 = DIRECTION ( 'NONE',  ( 0.0000000000000000000, -0.0000000000000000000, 1.000000000000000000 ) ) ;
#552 = ORIENTED_EDGE ( 'NONE', *, *, #779, .F. ) ;
#553 = ADVANCED_FACE ( 'NONE', ( #50 ), #235, .F. ) ;
#554 = VECTOR ( 'NONE', #857, 1000.000000000000000 ) ;
#555 = DIRECTION ( 'NONE',  ( -0.0000000000000000000, 1.000000000000000000, 0.0000000000000000000 ) ) ;
#556 = ORIENTED_EDGE ( 'NONE', *, *, #63, .F. ) ;
#557 = PRESENTATION_LAYER_ASSIGNMENT (  '', '', ( #26 ) ) ;
#558 = ADVANCED_BREP_SHAPE_REPRESENTATION ( 'Coilcraft-ME3215', ( #294, #64 ), #15 ) ;
#559 = EDGE_CURVE ( 'NONE', #537, #66, #517, .T. ) ;
#560 = PRESENTATION_STYLE_ASSIGNMENT (( #326 ) ) ;
#561 = PLANE ( 'NONE',  #688 ) ;
#562 = ORIENTED_EDGE ( 'NONE', *, *, #657, .T. ) ;
#563 =( GEOMETRIC_REPRESENTATION_CONTEXT ( 3 ) GLOBAL_UNCERTAINTY_ASSIGNED_CONTEXT ( ( #502 ) ) GLOBAL_UNIT_ASSIGNED_CONTEXT ( ( #361, #380, #809 ) ) REPRESENTATION_CONTEXT ( 'NONE', 'WORKASPACE' ) );
#564 = SURFACE_STYLE_FILL_AREA ( #596 ) ;
#565 = LINE ( 'NONE', #215, #223 ) ;
#566 = MECHANICAL_DESIGN_GEOMETRIC_PRESENTATION_REPRESENTATION (  '', ( #831 ), #116 ) ;
#567 = ORIENTED_EDGE ( 'NONE', *, *, #13, .F. ) ;
#568 = FILL_AREA_STYLE ('',( #174 ) ) ;
#569 = DIRECTION ( 'NONE',  ( 0.0000000000000000000, 0.0000000000000000000, -1.000000000000000000 ) ) ;
#570 = ORIENTED_EDGE ( 'NONE', *, *, #587, .T. ) ;
#571 = PRESENTATION_STYLE_ASSIGNMENT (( #253 ) ) ;
#572 = FACE_OUTER_BOUND ( 'NONE', #838, .T. ) ;
#573 = PRESENTATION_STYLE_ASSIGNMENT (( #628 ) ) ;
#574 = LINE ( 'NONE', #311, #485 ) ;
#575 = CARTESIAN_POINT ( 'NONE',  ( -1.250000000000000000, -0.05000000000000001665, -1.749999999999999778 ) ) ;
#576 = CARTESIAN_POINT ( 'NONE',  ( 1.249999999999999778, -0.05000000000000002359, -1.749999999999999778 ) ) ;
#577 = DIRECTION ( 'NONE',  ( 0.0000000000000000000, 1.000000000000000000, -0.0000000000000000000 ) ) ;
#578 =( NAMED_UNIT ( * ) PLANE_ANGLE_UNIT ( ) SI_UNIT ( $, .RADIAN. ) );
#579 = DIRECTION ( 'NONE',  ( -1.000000000000000000, 0.0000000000000000000, -0.0000000000000000000 ) ) ;
#580 = DIRECTION ( 'NONE',  ( -1.000000000000000000, -0.0000000000000000000, 0.0000000000000000000 ) ) ;
#581 = LINE ( 'NONE', #82, #693 ) ;
#582 = VECTOR ( 'NONE', #707, 1000.000000000000000 ) ;
#583 = CARTESIAN_POINT ( 'NONE',  ( 1.149999999999999911, 0.9499999999999998446, 1.149999999999999911 ) ) ;
#584 = DIRECTION ( 'NONE',  ( -9.427844978134822666E-17, 0.0000000000000000000, -1.000000000000000000 ) ) ;
#585 = EDGE_CURVE ( 'NONE', #156, #865, #668, .T. ) ;
#586 =( NAMED_UNIT ( * ) PLANE_ANGLE_UNIT ( ) SI_UNIT ( $, .RADIAN. ) );
#587 = EDGE_CURVE ( 'NONE', #807, #537, #98, .T. ) ;
#588 = SURFACE_STYLE_FILL_AREA ( #471 ) ;
#589 = MECHANICAL_DESIGN_GEOMETRIC_PRESENTATION_REPRESENTATION (  '', ( #860 ), #428 ) ;
#590 = ORIENTED_EDGE ( 'NONE', *, *, #224, .F. ) ;
#591 =( LENGTH_UNIT ( ) NAMED_UNIT ( * ) SI_UNIT ( .MILLI., .METRE. ) );
#592 = ORIENTED_EDGE ( 'NONE', *, *, #62, .F. ) ;
#593 = COLOUR_RGB ( '',0.8274509803921568096, 0.8392156862745098200, 0.8274509803921568096 ) ;
#594 = VERTEX_POINT ( 'NONE', #239 ) ;
#595 = SURFACE_SIDE_STYLE ('',( #810 ) ) ;
#596 = FILL_AREA_STYLE ('',( #24 ) ) ;
#597 = UNCERTAINTY_MEASURE_WITH_UNIT (LENGTH_MEASURE( 1.000000000000000082E-05 ), #544, 'distance_accuracy_value', 'NONE');
#598 =( GEOMETRIC_REPRESENTATION_CONTEXT ( 3 ) GLOBAL_UNCERTAINTY_ASSIGNED_CONTEXT ( ( #617 ) ) GLOBAL_UNIT_ASSIGNED_CONTEXT ( ( #591, #670, #175 ) ) REPRESENTATION_CONTEXT ( 'NONE', 'WORKASPACE' ) );
#599 = FILL_AREA_STYLE_COLOUR ( '', #593 ) ;
#600 = SURFACE_SIDE_STYLE ('',( #366 ) ) ;
#601 = AXIS2_PLACEMENT_3D ( 'NONE', #732, #724, #584 ) ;
#602 = CARTESIAN_POINT ( 'NONE',  ( -1.250000000000000000, -0.05000000000000000971, 1.749999999999999778 ) ) ;
#603 = PLANE ( 'NONE',  #328 ) ;
#604 =( NAMED_UNIT ( * ) PLANE_ANGLE_UNIT ( ) SI_UNIT ( $, .RADIAN. ) );
#605 = VERTEX_POINT ( 'NONE', #583 ) ;
#606 = DIRECTION ( 'NONE',  ( -1.000000000000000000, 0.0000000000000000000, -1.734723475976807094E-16 ) ) ;
#607 =( LENGTH_UNIT ( ) NAMED_UNIT ( * ) SI_UNIT ( .MILLI., .METRE. ) );
#608 = AXIS2_PLACEMENT_3D ( 'NONE', #814, #391, #131 ) ;
#609 = ADVANCED_FACE ( 'NONE', ( #775 ), #659, .F. ) ;
#610 = EDGE_CURVE ( 'NONE', #332, #365, #73, .T. ) ;
#611 = CARTESIAN_POINT ( 'NONE',  ( 1.250000000000000000, 0.9499999999999998446, -1.250000000000000000 ) ) ;
#612 = ADVANCED_FACE ( 'NONE', ( #422, #449 ), #719, .F. ) ;
#613 = DIRECTION ( 'NONE',  ( -1.000000000000000000, 0.0000000000000000000, -6.938893903907227392E-16 ) ) ;
#614 = LINE ( 'NONE', #748, #468 ) ;
#615 = CARTESIAN_POINT ( 'NONE',  ( -1.249999999999999778, 0.9499999999999998446, -1.150000000000000133 ) ) ;
#616 = FILL_AREA_STYLE ('',( #599 ) ) ;
#617 = UNCERTAINTY_MEASURE_WITH_UNIT (LENGTH_MEASURE( 1.000000000000000082E-05 ), #591, 'distance_accuracy_value', 'NONE');
#618 = SURFACE_STYLE_USAGE ( .BOTH. , #41 ) ;
#619 = ORIENTED_EDGE ( 'NONE', *, *, #305, .F. ) ;
#620 =( LENGTH_UNIT ( ) NAMED_UNIT ( * ) SI_UNIT ( .MILLI., .METRE. ) );
#621 = ORIENTED_EDGE ( 'NONE', *, *, #491, .F. ) ;
#622 = ORIENTED_EDGE ( 'NONE', *, *, #779, .T. ) ;
#623 = FILL_AREA_STYLE ('',( #342 ) ) ;
#624 = COLOUR_RGB ( '',0.5372549019607842924, 0.3490196078431372362, 0.3372549019607843368 ) ;
#625 = PRESENTATION_STYLE_ASSIGNMENT (( #518 ) ) ;
#626 = SURFACE_SIDE_STYLE ('',( #92 ) ) ;
#627 = ADVANCED_FACE ( 'NONE', ( #501 ), #878, .F. ) ;
#628 = SURFACE_STYLE_USAGE ( .BOTH. , #403 ) ;
#629 = CARTESIAN_POINT ( 'NONE',  ( -1.249999999999999778, 1.500000000000000000, 1.250000000000000000 ) ) ;
#630 = ORIENTED_EDGE ( 'NONE', *, *, #260, .F. ) ;
#631 = UNCERTAINTY_MEASURE_WITH_UNIT (LENGTH_MEASURE( 1.000000000000000082E-05 ), #535, 'distance_accuracy_value', 'NONE');
#632 = VECTOR ( 'NONE', #529, 1000.000000000000000 ) ;
#633 = CARTESIAN_POINT ( 'NONE',  ( -1.250000000000000000, -0.05000000000000000278, 0.8499999999999996447 ) ) ;
#634 = MECHANICAL_DESIGN_GEOMETRIC_PRESENTATION_REPRESENTATION (  '', ( #510 ), #53 ) ;
#635 = SURFACE_SIDE_STYLE ('',( #476 ) ) ;
#636 = VECTOR ( 'NONE', #730, 1000.000000000000000 ) ;
#637 = AXIS2_PLACEMENT_3D ( 'NONE', #282, #272, #128 ) ;
#638 = EDGE_CURVE ( 'NONE', #156, #475, #430, .T. ) ;
#639 = UNCERTAINTY_MEASURE_WITH_UNIT (LENGTH_MEASURE( 1.000000000000000082E-05 ), #830, 'distance_accuracy_value', 'NONE');
#640 = ORIENTED_EDGE ( 'NONE', *, *, #169, .F. ) ;
#641 = EDGE_CURVE ( 'NONE', #648, #193, #447, .T. ) ;
#642 = ORIENTED_EDGE ( 'NONE', *, *, #849, .T. ) ;
#643 = VECTOR ( 'NONE', #122, 1000.000000000000000 ) ;
#644 = MECHANICAL_DESIGN_GEOMETRIC_PRESENTATION_REPRESENTATION (  '', ( #893 ), #598 ) ;
#645 = CARTESIAN_POINT ( 'NONE',  ( 1.249999999999999778, 1.500000000000000000, 1.250000000000000000 ) ) ;
#646 = AXIS2_PLACEMENT_3D ( 'NONE', #331, #132, #761 ) ;
#647 = CARTESIAN_POINT ( 'NONE',  ( 1.249999999999999778, 0.9499999999999998446, 1.250000000000000000 ) ) ;
#648 = VERTEX_POINT ( 'NONE', #29 ) ;
#649 = LINE ( 'NONE', #829, #458 ) ;
#650 = DIRECTION ( 'NONE',  ( -1.000000000000000000, 0.0000000000000000000, 0.0000000000000000000 ) ) ;
#651 = COLOUR_RGB ( '',0.09803921568627450844, 0.09803921568627450844, 0.09803921568627450844 ) ;
#652 = VECTOR ( 'NONE', #555, 1000.000000000000000 ) ;
#653 = CARTESIAN_POINT ( 'NONE',  ( 1.249999999999999778, 1.500000000000000000, 1.250000000000000000 ) ) ;
#654 = EDGE_CURVE ( 'NONE', #492, #661, #847, .T. ) ;
#655 = SURFACE_STYLE_FILL_AREA ( #318 ) ;
#656 = CARTESIAN_POINT ( 'NONE',  ( -1.250000000000000000, 0.0000000000000000000, 0.8499999999999996447 ) ) ;
#657 = EDGE_CURVE ( 'NONE', #137, #332, #767, .T. ) ;
#658 = PRESENTATION_LAYER_ASSIGNMENT (  '', '', ( #860 ) ) ;
#659 = PLANE ( 'NONE',  #352 ) ;
#660 =( NAMED_UNIT ( * ) SI_UNIT ( $, .STERADIAN. ) SOLID_ANGLE_UNIT ( ) );
#661 = VERTEX_POINT ( 'NONE', #259 ) ;
#662 = FILL_AREA_STYLE_COLOUR ( '', #410 ) ;
#663 = ORIENTED_EDGE ( 'NONE', *, *, #312, .T. ) ;
#664 = LINE ( 'NONE', #333, #297 ) ;
#665 = ORIENTED_EDGE ( 'NONE', *, *, #610, .T. ) ;
#666 = VECTOR ( 'NONE', #112, 1000.000000000000000 ) ;
#667 = PRODUCT_DEFINITION_CONTEXT ( 'detailed design', #498, 'design' ) ;
#668 = LINE ( 'NONE', #160, #241 ) ;
#669 = APPLICATION_PROTOCOL_DEFINITION ( 'draft international standard', 'automotive_design', 1998, #498 ) ;
#670 =( NAMED_UNIT ( * ) PLANE_ANGLE_UNIT ( ) SI_UNIT ( $, .RADIAN. ) );
#671 =( NAMED_UNIT ( * ) PLANE_ANGLE_UNIT ( ) SI_UNIT ( $, .RADIAN. ) );
#672 = UNCERTAINTY_MEASURE_WITH_UNIT (LENGTH_MEASURE( 1.000000000000000082E-05 ), #454, 'distance_accuracy_value', 'NONE');
#673 = DIRECTION ( 'NONE',  ( -8.673617379884034239E-17, 0.0000000000000000000, -1.000000000000000000 ) ) ;
#674 = CARTESIAN_POINT ( 'NONE',  ( 1.249999999999999778, 0.5999999999999999778, 1.749999999999999556 ) ) ;
#675 = ORIENTED_EDGE ( 'NONE', *, *, #891, .T. ) ;
#676 = CARTESIAN_POINT ( 'NONE',  ( -1.250000000000000222, 0.5999999999999999778, 1.749999999999999556 ) ) ;
#677 = EDGE_LOOP ( 'NONE', ( #780, #322, #445, #455, #737, #419, #590, #805 ) ) ;
#678 = FILL_AREA_STYLE_COLOUR ( '', #222 ) ;
#679 = DIRECTION ( 'NONE',  ( -0.0000000000000000000, 1.000000000000000000, 0.0000000000000000000 ) ) ;
#680 = FACE_OUTER_BOUND ( 'NONE', #363, .T. ) ;
#681 = SURFACE_STYLE_USAGE ( .BOTH. , #531 ) ;
#682 = CARTESIAN_POINT ( 'NONE',  ( -1.250000000000000000, -0.05000000000000000971, 0.8499999999999997558 ) ) ;
#683 = FILL_AREA_STYLE_COLOUR ( '', #651 ) ;
#684 = DIRECTION ( 'NONE',  ( 0.0000000000000000000, -0.0000000000000000000, 1.000000000000000000 ) ) ;
#685 =( NAMED_UNIT ( * ) PLANE_ANGLE_UNIT ( ) SI_UNIT ( $, .RADIAN. ) );
#686 = ORIENTED_EDGE ( 'NONE', *, *, #107, .T. ) ;
#687 = DIRECTION ( 'NONE',  ( -0.0000000000000000000, -1.000000000000000000, -0.0000000000000000000 ) ) ;
#688 = AXIS2_PLACEMENT_3D ( 'NONE', #146, #426, #102 ) ;
#689 = AXIS2_PLACEMENT_3D ( 'NONE', #396, #538, #274 ) ;
#690 = PLANE ( 'NONE',  #219 ) ;
#691 = ORIENTED_EDGE ( 'NONE', *, *, #695, .T. ) ;
#692 = PRESENTATION_STYLE_ASSIGNMENT (( #547 ) ) ;
#693 = VECTOR ( 'NONE', #307, 1000.000000000000000 ) ;
#694 = VECTOR ( 'NONE', #388, 1000.000000000000000 ) ;
#695 = EDGE_CURVE ( 'NONE', #540, #524, #786, .T. ) ;
#696 = CARTESIAN_POINT ( 'NONE',  ( -1.249999999999999778, 0.9499999999999998446, 1.250000000000000000 ) ) ;
#697 = VECTOR ( 'NONE', #577, 1000.000000000000000 ) ;
#698 = CARTESIAN_POINT ( 'NONE',  ( -1.149999999999999911, 0.5999999999999999778, -1.149999999999999911 ) ) ;
#699 = PRESENTATION_LAYER_ASSIGNMENT (  '', '', ( #721 ) ) ;
#700 = CARTESIAN_POINT ( 'NONE',  ( 1.249999999999999778, 0.0000000000000000000, 1.749999999999999556 ) ) ;
#701 = CARTESIAN_POINT ( 'NONE',  ( -1.250000000000000222, 0.5999999999999999778, 1.749999999999999556 ) ) ;
#702 = CARTESIAN_POINT ( 'NONE',  ( 1.149999999999999911, 0.9499999999999998446, -1.149999999999999911 ) ) ;
#703 = ORIENTED_EDGE ( 'NONE', *, *, #541, .T. ) ;
#704 = STYLED_ITEM ( 'NONE', ( #846 ), #558 ) ;
#705 =( NAMED_UNIT ( * ) PLANE_ANGLE_UNIT ( ) SI_UNIT ( $, .RADIAN. ) );
#706 = MECHANICAL_DESIGN_GEOMETRIC_PRESENTATION_REPRESENTATION (  '', ( #183 ), #355 ) ;
#707 = DIRECTION ( 'NONE',  ( 1.000000000000000000, 0.0000000000000000000, -0.0000000000000000000 ) ) ;
#708 = STYLED_ITEM ( 'NONE', ( #762 ), #118 ) ;
#709 = VECTOR ( 'NONE', #424, 1000.000000000000000 ) ;
#710 = EDGE_CURVE ( 'NONE', #865, #93, #385, .T. ) ;
#711 = EDGE_LOOP ( 'NONE', ( #817, #622, #103, #278 ) ) ;
#712 = PRESENTATION_LAYER_ASSIGNMENT (  '', '', ( #32 ) ) ;
#713 = ORIENTED_EDGE ( 'NONE', *, *, #559, .T. ) ;
#714 = PRESENTATION_STYLE_ASSIGNMENT (( #8 ) ) ;
#715 = SURFACE_SIDE_STYLE ('',( #725 ) ) ;
#716 = ORIENTED_EDGE ( 'NONE', *, *, #268, .T. ) ;
#717 = ORIENTED_EDGE ( 'NONE', *, *, #797, .T. ) ;
#718 = CARTESIAN_POINT ( 'NONE',  ( -1.250000000000000222, -0.05000000000000002359, -1.749999999999999778 ) ) ;
#719 = PLANE ( 'NONE',  #782 ) ;
#720 = UNCERTAINTY_MEASURE_WITH_UNIT (LENGTH_MEASURE( 1.000000000000000082E-05 ), #425, 'distance_accuracy_value', 'NONE');
#721 = STYLED_ITEM ( 'NONE', ( #211 ), #754 ) ;
#722 = SURFACE_SIDE_STYLE ('',( #655 ) ) ;
#723 = ORIENTED_EDGE ( 'NONE', *, *, #10, .F. ) ;
#724 = DIRECTION ( 'NONE',  ( 1.000000000000000000, 0.0000000000000000000, -9.427844978134822666E-17 ) ) ;
#725 = SURFACE_STYLE_FILL_AREA ( #568 ) ;
#726 = EDGE_LOOP ( 'NONE', ( #880, #74, #751, #852 ) ) ;
#727 = DIRECTION ( 'NONE',  ( -0.0000000000000000000, 0.0000000000000000000, -1.000000000000000000 ) ) ;
#728 =( NAMED_UNIT ( * ) PLANE_ANGLE_UNIT ( ) SI_UNIT ( $, .RADIAN. ) );
#729 = PRESENTATION_LAYER_ASSIGNMENT (  '', '', ( #399 ) ) ;
#730 = DIRECTION ( 'NONE',  ( -1.000000000000000000, -0.0000000000000000000, -1.734723475976807094E-16 ) ) ;
#731 = EDGE_CURVE ( 'NONE', #406, #93, #290, .T. ) ;
#732 = CARTESIAN_POINT ( 'NONE',  ( -1.149999999999999911, 0.9499999999999998446, -1.149999999999999911 ) ) ;
#733 = MECHANICAL_DESIGN_GEOMETRIC_PRESENTATION_REPRESENTATION (  '', ( #721 ), #532 ) ;
#734 = COLOUR_RGB ( '',0.5372549019607842924, 0.3490196078431372362, 0.3372549019607843368 ) ;
#735 = CARTESIAN_POINT ( 'NONE',  ( -1.249999999999999778, 0.9499999999999998446, 1.250000000000000000 ) ) ;
#736 =( LENGTH_UNIT ( ) NAMED_UNIT ( * ) SI_UNIT ( .MILLI., .METRE. ) );
#737 = ORIENTED_EDGE ( 'NONE', *, *, #610, .F. ) ;
#738 = EDGE_LOOP ( 'NONE', ( #675, #640, #229, #277 ) ) ;
#739 =( NAMED_UNIT ( * ) PLANE_ANGLE_UNIT ( ) SI_UNIT ( $, .RADIAN. ) );
#740 = DIRECTION ( 'NONE',  ( 0.0000000000000000000, 1.000000000000000000, 0.0000000000000000000 ) ) ;
#741 = DIRECTION ( 'NONE',  ( 6.938893903907227392E-16, 0.0000000000000000000, -1.000000000000000000 ) ) ;
#742 = VERTEX_POINT ( 'NONE', #186 ) ;
#743 = LINE ( 'NONE', #71, #554 ) ;
#744 = DIRECTION ( 'NONE',  ( -0.0000000000000000000, -1.000000000000000000, -0.0000000000000000000 ) ) ;
#745 = SURFACE_STYLE_USAGE ( .BOTH. , #600 ) ;
#746 =( GEOMETRIC_REPRESENTATION_CONTEXT ( 3 ) GLOBAL_UNCERTAINTY_ASSIGNED_CONTEXT ( ( #284 ) ) GLOBAL_UNIT_ASSIGNED_CONTEXT ( ( #389, #604, #185 ) ) REPRESENTATION_CONTEXT ( 'NONE', 'WORKASPACE' ) );
#747 = CARTESIAN_POINT ( 'NONE',  ( 1.149999999999999689, 0.5999999999999999778, -1.149999999999999911 ) ) ;
#748 = CARTESIAN_POINT ( 'NONE',  ( 1.250000000000000000, 0.9499999999999998446, 1.250000000000000000 ) ) ;
#749 = CARTESIAN_POINT ( 'NONE',  ( -1.250000000000000000, 0.9499999999999998446, -1.250000000000000000 ) ) ;
#750 =( GEOMETRIC_REPRESENTATION_CONTEXT ( 3 ) GLOBAL_UNCERTAINTY_ASSIGNED_CONTEXT ( ( #597 ) ) GLOBAL_UNIT_ASSIGNED_CONTEXT ( ( #544, #394, #124 ) ) REPRESENTATION_CONTEXT ( 'NONE', 'WORKASPACE' ) );
#751 = ORIENTED_EDGE ( 'NONE', *, *, #731, .T. ) ;
#752 = EDGE_CURVE ( 'NONE', #865, #833, #232, .T. ) ;
#753 = SURFACE_STYLE_USAGE ( .BOTH. , #27 ) ;
#754 = ADVANCED_FACE ( 'NONE', ( #349 ), #603, .F. ) ;
#755 = PRESENTATION_STYLE_ASSIGNMENT (( #745 ) ) ;
#756 = LINE ( 'NONE', #629, #582 ) ;
#757 = MECHANICAL_DESIGN_GEOMETRIC_PRESENTATION_REPRESENTATION (  '', ( #773 ), #546 ) ;
#758 = SURFACE_SIDE_STYLE ('',( #588 ) ) ;
#759 = CARTESIAN_POINT ( 'NONE',  ( 1.250000000000000000, 1.500000000000000000, -1.250000000000000000 ) ) ;
#760 = DIRECTION ( 'NONE',  ( 0.0000000000000000000, -0.0000000000000000000, 1.000000000000000000 ) ) ;
#761 = DIRECTION ( 'NONE',  ( 0.0000000000000000000, 0.0000000000000000000, 1.000000000000000000 ) ) ;
#762 = PRESENTATION_STYLE_ASSIGNMENT (( #822 ) ) ;
#763 =( NAMED_UNIT ( * ) SI_UNIT ( $, .STERADIAN. ) SOLID_ANGLE_UNIT ( ) );
#764 = ORIENTED_EDGE ( 'NONE', *, *, #233, .T. ) ;
#765 = SURFACE_STYLE_USAGE ( .BOTH. , #897 ) ;
#766 = EDGE_LOOP ( 'NONE', ( #870, #369, #346, #298 ) ) ;
#767 = LINE ( 'NONE', #467, #528 ) ;
#768 = FACE_OUTER_BOUND ( 'NONE', #415, .T. ) ;
#769 = LINE ( 'NONE', #242, #151 ) ;
#770 =( LENGTH_UNIT ( ) NAMED_UNIT ( * ) SI_UNIT ( .MILLI., .METRE. ) );
#771 = DIRECTION ( 'NONE',  ( 1.000000000000000000, 0.0000000000000000000, -0.0000000000000000000 ) ) ;
#772 = DIRECTION ( 'NONE',  ( 0.0000000000000000000, 0.0000000000000000000, 1.000000000000000000 ) ) ;
#773 = STYLED_ITEM ( 'NONE', ( #824 ), #609 ) ;
#774 = LINE ( 'NONE', #181, #503 ) ;
#775 = FACE_OUTER_BOUND ( 'NONE', #677, .T. ) ;
#776 = PRESENTATION_LAYER_ASSIGNMENT (  '', '', ( #435 ) ) ;
#777 = UNCERTAINTY_MEASURE_WITH_UNIT (LENGTH_MEASURE( 1.000000000000000082E-05 ), #83, 'distance_accuracy_value', 'NONE');
#778 = VECTOR ( 'NONE', #227, 1000.000000000000000 ) ;
#779 = EDGE_CURVE ( 'NONE', #605, #648, #338, .T. ) ;
#780 = ORIENTED_EDGE ( 'NONE', *, *, #654, .T. ) ;
#781 = DIRECTION ( 'NONE',  ( 0.0000000000000000000, 0.0000000000000000000, 1.000000000000000000 ) ) ;
#782 = AXIS2_PLACEMENT_3D ( 'NONE', #735, #740, #811 ) ;
#783 = ORIENTED_EDGE ( 'NONE', *, *, #541, .F. ) ;
#784 = LINE ( 'NONE', #877, #2 ) ;
#785 = ORIENTED_EDGE ( 'NONE', *, *, #120, .T. ) ;
#786 = LINE ( 'NONE', #676, #249 ) ;
#787 = DIRECTION ( 'NONE',  ( -0.0000000000000000000, 1.000000000000000000, 0.0000000000000000000 ) ) ;
#788 = COLOUR_RGB ( '',0.09803921568627450844, 0.09803921568627450844, 0.09803921568627450844 ) ;
#789 = COLOUR_RGB ( '',0.09803921568627450844, 0.09803921568627450844, 0.09803921568627450844 ) ;
#790 = FILL_AREA_STYLE ('',( #792 ) ) ;
#791 = AXIS2_PLACEMENT_3D ( 'NONE', #633, #289, #530 ) ;
#792 = FILL_AREA_STYLE_COLOUR ( '', #900 ) ;
#793 = ORIENTED_EDGE ( 'NONE', *, *, #752, .F. ) ;
#794 = CARTESIAN_POINT ( 'NONE',  ( -1.250000000000000000, 0.0000000000000000000, 0.8499999999999996447 ) ) ;
#795 = MECHANICAL_DESIGN_GEOMETRIC_PRESENTATION_REPRESENTATION (  '', ( #234 ), #6 ) ;
#796 = CARTESIAN_POINT ( 'NONE',  ( -1.149999999999999689, 0.5999999999999999778, 1.149999999999999911 ) ) ;
#797 = EDGE_CURVE ( 'NONE', #52, #742, #149, .T. ) ;
#798 =( NAMED_UNIT ( * ) PLANE_ANGLE_UNIT ( ) SI_UNIT ( $, .RADIAN. ) );
#799 = EDGE_CURVE ( 'NONE', #247, #594, #882, .T. ) ;
#800 = DIRECTION ( 'NONE',  ( 0.0000000000000000000, -0.0000000000000000000, 1.000000000000000000 ) ) ;
#801 = CARTESIAN_POINT ( 'NONE',  ( 1.249999999999999778, 0.5999999999999999778, -1.749999999999999778 ) ) ;
#802 = PLANE ( 'NONE',  #456 ) ;
#803 = UNCERTAINTY_MEASURE_WITH_UNIT (LENGTH_MEASURE( 1.000000000000000082E-05 ), #252, 'distance_accuracy_value', 'NONE');
#804 = SURFACE_STYLE_USAGE ( .BOTH. , #715 ) ;
#805 = ORIENTED_EDGE ( 'NONE', *, *, #543, .F. ) ;
#806 = PLANE ( 'NONE',  #601 ) ;
#807 = VERTEX_POINT ( 'NONE', #115 ) ;
#808 = EDGE_LOOP ( 'NONE', ( #894, #511, #55, #293 ) ) ;
#809 =( NAMED_UNIT ( * ) SI_UNIT ( $, .STERADIAN. ) SOLID_ANGLE_UNIT ( ) );
#810 = SURFACE_STYLE_FILL_AREA ( #397 ) ;
#811 = DIRECTION ( 'NONE',  ( 0.0000000000000000000, -0.0000000000000000000, 1.000000000000000000 ) ) ;
#812 = PLANE ( 'NONE',  #75 ) ;
#813 =( NAMED_UNIT ( * ) SI_UNIT ( $, .STERADIAN. ) SOLID_ANGLE_UNIT ( ) );
#814 = CARTESIAN_POINT ( 'NONE',  ( -1.149999999999999689, 0.9499999999999998446, 1.149999999999999911 ) ) ;
#815 = FILL_AREA_STYLE ('',( #683 ) ) ;
#816 = DIRECTION ( 'NONE',  ( 1.000000000000000000, 0.0000000000000000000, -0.0000000000000000000 ) ) ;
#817 = ORIENTED_EDGE ( 'NONE', *, *, #117, .F. ) ;
#818 = LINE ( 'NONE', #615, #632 ) ;
#819 =( NAMED_UNIT ( * ) SI_UNIT ( $, .STERADIAN. ) SOLID_ANGLE_UNIT ( ) );
#820 = CARTESIAN_POINT ( 'NONE',  ( -1.250000000000000000, 1.500000000000000000, -1.250000000000000000 ) ) ;
#821 = ADVANCED_FACE ( 'NONE', ( #859 ), #536, .F. ) ;
#822 = SURFACE_STYLE_USAGE ( .BOTH. , #758 ) ;
#823 = CARTESIAN_POINT ( 'NONE',  ( -1.250000000000000000, 1.500000000000000000, -1.250000000000000000 ) ) ;
#824 = PRESENTATION_STYLE_ASSIGNMENT (( #371 ) ) ;
#825 = ADVANCED_FACE ( 'NONE', ( #526 ), #840, .F. ) ;
#826 = DIRECTION ( 'NONE',  ( 1.000000000000000000, 0.0000000000000000000, -0.0000000000000000000 ) ) ;
#827 = DIRECTION ( 'NONE',  ( -1.000000000000000000, -0.0000000000000000000, 0.0000000000000000000 ) ) ;
#828 = FACE_OUTER_BOUND ( 'NONE', #126, .T. ) ;
#829 = CARTESIAN_POINT ( 'NONE',  ( 1.249999999999999778, -0.05000000000000000278, -0.8499999999999988676 ) ) ;
#830 =( LENGTH_UNIT ( ) NAMED_UNIT ( * ) SI_UNIT ( .MILLI., .METRE. ) );
#831 = STYLED_ITEM ( 'NONE', ( #573 ), #398 ) ;
#832 = ADVANCED_FACE ( 'NONE', ( #348, #220 ), #343, .T. ) ;
#833 = VERTEX_POINT ( 'NONE', #275 ) ;
#834 = EDGE_CURVE ( 'NONE', #807, #594, #236, .T. ) ;
#835 = CARTESIAN_POINT ( 'NONE',  ( -1.250000000000000222, 0.5999999999999999778, 1.749999999999999556 ) ) ;
#836 = ORIENTED_EDGE ( 'NONE', *, *, #850, .T. ) ;
#837 = LINE ( 'NONE', #201, #248 ) ;
#838 = EDGE_LOOP ( 'NONE', ( #630, #844, #592, #208 ) ) ;
#839 =( NAMED_UNIT ( * ) PLANE_ANGLE_UNIT ( ) SI_UNIT ( $, .RADIAN. ) );
#840 = PLANE ( 'NONE',  #482 ) ;
#841 = CARTESIAN_POINT ( 'NONE',  ( 1.249999999999999778, -0.05000000000000000971, -0.8499999999999987566 ) ) ;
#842 = DIRECTION ( 'NONE',  ( 0.0000000000000000000, -1.000000000000000000, -0.0000000000000000000 ) ) ;
#843 = PRESENTATION_LAYER_ASSIGNMENT (  '', '', ( #510 ) ) ;
#844 = ORIENTED_EDGE ( 'NONE', *, *, #10, .T. ) ;
#845 =( NAMED_UNIT ( * ) SI_UNIT ( $, .STERADIAN. ) SOLID_ANGLE_UNIT ( ) );
#846 = PRESENTATION_STYLE_ASSIGNMENT (( #804 ) ) ;
#847 = LINE ( 'NONE', #453, #409 ) ;
#848 = LINE ( 'NONE', #796, #432 ) ;
#849 = EDGE_CURVE ( 'NONE', #287, #52, #837, .T. ) ;
#850 = EDGE_CURVE ( 'NONE', #42, #524, #395, .T. ) ;
#851 = PRESENTATION_STYLE_ASSIGNMENT (( #204 ) ) ;
#852 = ORIENTED_EDGE ( 'NONE', *, *, #710, .F. ) ;
#853 = VERTEX_POINT ( 'NONE', #125 ) ;
#854 = ORIENTED_EDGE ( 'NONE', *, *, #559, .F. ) ;
#855 = ORIENTED_EDGE ( 'NONE', *, *, #359, .F. ) ;
#856 = CARTESIAN_POINT ( 'NONE',  ( 1.249999999999999778, -0.05000000000000000278, 0.8500000000000000888 ) ) ;
#857 = DIRECTION ( 'NONE',  ( 0.0000000000000000000, 1.000000000000000000, -0.0000000000000000000 ) ) ;
#858 = ORIENTED_EDGE ( 'NONE', *, *, #96, .F. ) ;
#859 = FACE_OUTER_BOUND ( 'NONE', #440, .T. ) ;
#860 = STYLED_ITEM ( 'NONE', ( #625 ), #612 ) ;
#861 = FILL_AREA_STYLE_COLOUR ( '', #199 ) ;
#862 = VECTOR ( 'NONE', #687, 1000.000000000000000 ) ;
#863 = CARTESIAN_POINT ( 'NONE',  ( 1.249999999999999778, -0.05000000000000000971, 1.749999999999999778 ) ) ;
#864 = CARTESIAN_POINT ( 'NONE',  ( 1.249999999999999778, 1.500000000000000000, -1.250000000000000000 ) ) ;
#865 = VERTEX_POINT ( 'NONE', #696 ) ;
#866 = CARTESIAN_POINT ( 'NONE',  ( -1.250000000000000222, 0.5999999999999999778, -1.749999999999999778 ) ) ;
#867 = SURFACE_SIDE_STYLE ('',( #11 ) ) ;
#868 =( GEOMETRIC_REPRESENTATION_CONTEXT ( 3 ) GLOBAL_UNCERTAINTY_ASSIGNED_CONTEXT ( ( #496 ) ) GLOBAL_UNIT_ASSIGNED_CONTEXT ( ( #899, #347, #411 ) ) REPRESENTATION_CONTEXT ( 'NONE', 'WORKASPACE' ) );
#869 = SURFACE_STYLE_FILL_AREA ( #616 ) ;
#870 = ORIENTED_EDGE ( 'NONE', *, *, #875, .T. ) ;
#871 = PRESENTATION_LAYER_ASSIGNMENT (  '', '', ( #708 ) ) ;
#872 = SURFACE_STYLE_FILL_AREA ( #77 ) ;
#873 = SURFACE_STYLE_FILL_AREA ( #136 ) ;
#874 = DIRECTION ( 'NONE',  ( 0.0000000000000000000, 0.0000000000000000000, 1.000000000000000000 ) ) ;
#875 = EDGE_CURVE ( 'NONE', #42, #66, #664, .T. ) ;
#876 = SURFACE_STYLE_USAGE ( .BOTH. , #867 ) ;
#877 = CARTESIAN_POINT ( 'NONE',  ( -1.250000000000000000, 1.500000000000000000, 1.250000000000000000 ) ) ;
#878 = PLANE ( 'NONE',  #791 ) ;
#879 = PRESENTATION_STYLE_ASSIGNMENT (( #84 ) ) ;
#880 = ORIENTED_EDGE ( 'NONE', *, *, #752, .T. ) ;
#881 = CARTESIAN_POINT ( 'NONE',  ( -1.249999999999999778, 1.500000000000000000, 1.250000000000000000 ) ) ;
#882 = LINE ( 'NONE', #465, #141 ) ;
#883 = PLANE ( 'NONE',  #110 ) ;
#884 = VECTOR ( 'NONE', #771, 1000.000000000000000 ) ;
#885 =( GEOMETRIC_REPRESENTATION_CONTEXT ( 3 ) GLOBAL_UNCERTAINTY_ASSIGNED_CONTEXT ( ( #85 ) ) GLOBAL_UNIT_ASSIGNED_CONTEXT ( ( #444, #439, #240 ) ) REPRESENTATION_CONTEXT ( 'NONE', 'WORKASPACE' ) );
#886 = DIRECTION ( 'NONE',  ( 1.000000000000000000, 0.0000000000000000000, -8.673617379884034239E-17 ) ) ;
#887 = UNCERTAINTY_MEASURE_WITH_UNIT (LENGTH_MEASURE( 1.000000000000000082E-05 ), #607, 'distance_accuracy_value', 'NONE');
#888 = CARTESIAN_POINT ( 'NONE',  ( -1.249999999999999778, 0.9499999999999998446, 1.149999999999999911 ) ) ;
#889 = STYLED_ITEM ( 'NONE', ( #560 ), #113 ) ;
#890 = EDGE_LOOP ( 'NONE', ( #104, #663, #427, #713, #421, #836, #474, #139 ) ) ;
#891 = EDGE_CURVE ( 'NONE', #853, #257, #209, .T. ) ;
#892 = CARTESIAN_POINT ( 'NONE',  ( -1.149999999999999689, 0.9499999999999998446, 1.149999999999999911 ) ) ;
#893 = STYLED_ITEM ( 'NONE', ( #571 ), #627 ) ;
#894 = ORIENTED_EDGE ( 'NONE', *, *, #169, .T. ) ;
#895 = COLOUR_RGB ( '',0.09803921568627450844, 0.09803921568627450844, 0.09803921568627450844 ) ;
#896 = SURFACE_SIDE_STYLE ('',( #917 ) ) ;
#897 = SURFACE_SIDE_STYLE ('',( #869 ) ) ;
#898 =( NAMED_UNIT ( * ) SI_UNIT ( $, .STERADIAN. ) SOLID_ANGLE_UNIT ( ) );
#899 =( LENGTH_UNIT ( ) NAMED_UNIT ( * ) SI_UNIT ( .MILLI., .METRE. ) );
#900 = COLOUR_RGB ( '',0.09803921568627450844, 0.09803921568627450844, 0.09803921568627450844 ) ;
#901 = DIRECTION ( 'NONE',  ( 0.0000000000000000000, 1.000000000000000000, 0.0000000000000000000 ) ) ;
#902 = EDGE_CURVE ( 'NONE', #406, #833, #784, .T. ) ;
#903 = SURFACE_STYLE_USAGE ( .BOTH. , #140 ) ;
#904 = ORIENTED_EDGE ( 'NONE', *, *, #233, .F. ) ;
#905 = EDGE_LOOP ( 'NONE', ( #246, #764, #691, #716 ) ) ;
#906 = CARTESIAN_POINT ( 'NONE',  ( -1.250000000000000222, 0.5999999999999999778, -1.749999999999999778 ) ) ;
#907 = COLOUR_RGB ( '',0.09803921568627450844, 0.09803921568627450844, 0.09803921568627450844 ) ;
#908 = SURFACE_STYLE_USAGE ( .BOTH. , #635 ) ;
#909 = PRESENTATION_LAYER_ASSIGNMENT (  '', '', ( #893 ) ) ;
#910 = VECTOR ( 'NONE', #684, 1000.000000000000000 ) ;
#911 = ORIENTED_EDGE ( 'NONE', *, *, #312, .F. ) ;
#912 = COLOUR_RGB ( '',0.7921568627450980005, 0.8196078431372548767, 0.9333333333333333481 ) ;
#913 = EDGE_LOOP ( 'NONE', ( #21, #490, #196, #556 ) ) ;
#914 =( GEOMETRIC_REPRESENTATION_CONTEXT ( 3 ) GLOBAL_UNCERTAINTY_ASSIGNED_CONTEXT ( ( #59 ) ) GLOBAL_UNIT_ASSIGNED_CONTEXT ( ( #479, #839, #212 ) ) REPRESENTATION_CONTEXT ( 'NONE', 'WORKASPACE' ) );
#915 = STYLED_ITEM ( 'NONE', ( #879 ), #192 ) ;
#916 = EDGE_CURVE ( 'NONE', #661, #807, #743, .T. ) ;
#917 = SURFACE_STYLE_FILL_AREA ( #330 ) ;
#918 = ORIENTED_EDGE ( 'NONE', *, *, #850, .F. ) ;
ENDSEC;
END-ISO-10303-21;
