ISO-10303-21;
HEADER;
FILE_DESCRIPTION (( 'STEP AP203' ),
    '1' );
FILE_NAME ('天线弹针模拟.STEP',
    '2020-02-17T14:19:33',
    ( 'sdh123' ),
    ( 'Microsoft' ),
    'SwSTEP 2.0',
    'SolidWorks 2016',
    '' );
FILE_SCHEMA (( 'CONFIG_CONTROL_DESIGN' ));
ENDSEC;

DATA;
#1 = EDGE_CURVE ( 'NONE', #374, #107, #57, .T. ) ;
#2 = CARTESIAN_POINT ( 'NONE',  ( 7.347880794884117800E-017, 6.000000000000000000, 0.5999999999999999800 ) ) ;
#3 = LOCAL_TIME ( 22, 19, 33.00000000000000000, #860 ) ;
#4 = CIRCLE ( 'NONE', #78, 0.5999999999999998700 ) ;
#5 = CIRCLE ( 'NONE', #218, 0.7500000000000000000 ) ;
#6 = ORIENTED_EDGE ( 'NONE', *, *, #1, .T. ) ;
#7 = ORIENTED_EDGE ( 'NONE', *, *, #289, .F. ) ;
#8 = VERTEX_POINT ( 'NONE', #178 ) ;
#9 = DIRECTION ( 'NONE',  ( 0.0000000000000000000, 0.0000000000000000000, -1.000000000000000000 ) ) ;
#10 = CARTESIAN_POINT ( 'NONE',  ( 7.347880794884117800E-017, 8.899999999999998600, 0.5999999999999998700 ) ) ;
#11 = AXIS2_PLACEMENT_3D ( 'NONE', #729, #273, #438 ) ;
#12 = SECURITY_CLASSIFICATION ( '', '', #717 ) ;
#13 = VECTOR ( 'NONE', #967, 1000.000000000000000 ) ;
#14 = EDGE_CURVE ( 'NONE', #804, #964, #74, .T. ) ;
#15 = FACE_BOUND ( 'NONE', #89, .T. ) ;
#16 = LINE ( 'NONE', #975, #248 ) ;
#17 = ORIENTED_EDGE ( 'NONE', *, *, #82, .T. ) ;
#18 = VERTEX_POINT ( 'NONE', #598 ) ;
#19 = EDGE_LOOP ( 'NONE', ( #130, #389 ) ) ;
#20 = APPROVAL_ROLE ( '' ) ;
#21 = DIRECTION ( 'NONE',  ( -0.7071067811865473500, 0.0000000000000000000, 0.7071067811865477900 ) ) ;
#22 = CIRCLE ( 'NONE', #124, 0.6000000000000015300 ) ;
#23 = AXIS2_PLACEMENT_3D ( 'NONE', #681, #754, #223 ) ;
#24 = ORIENTED_EDGE ( 'NONE', *, *, #588, .F. ) ;
#25 = VERTEX_POINT ( 'NONE', #958 ) ;
#26 = ORIENTED_EDGE ( 'NONE', *, *, #103, .T. ) ;
#27 = CARTESIAN_POINT ( 'NONE',  ( -0.6000000000000007500, 8.899999999999998600, 7.347880794884127600E-017 ) ) ;
#28 = ORIENTED_EDGE ( 'NONE', *, *, #682, .T. ) ;
#29 = EDGE_CURVE ( 'NONE', #941, #954, #838, .T. ) ;
#30 = FACE_OUTER_BOUND ( 'NONE', #665, .T. ) ;
#31 = VECTOR ( 'NONE', #694, 1000.000000000000100 ) ;
#32 = EDGE_CURVE ( 'NONE', #238, #685, #948, .T. ) ;
#33 = FACE_OUTER_BOUND ( 'NONE', #147, .T. ) ;
#34 = AXIS2_PLACEMENT_3D ( 'NONE', #661, #278, #814 ) ;
#35 = VERTEX_POINT ( 'NONE', #274 ) ;
#36 = DIRECTION ( 'NONE',  ( 0.0000000000000000000, 0.0000000000000000000, -1.000000000000000000 ) ) ;
#37 = EDGE_LOOP ( 'NONE', ( #192, #519, #295, #152 ) ) ;
#38 = CLOSED_SHELL ( 'NONE', ( #892, #858, #316, #486, #693, #850, #243, #635, #455, #480, #811, #71, #727, #250, #212, #763, #462, #490, #818, #203, #686, #708, #398, #957, #150, #113, #857, #335, #353, #751, #541, #269 ) ) ;
#39 = DIRECTION ( 'NONE',  ( 0.0000000000000000000, 0.0000000000000000000, -1.000000000000000000 ) ) ;
#40 = AXIS2_PLACEMENT_3D ( 'NONE', #397, #84, #583 ) ;
#41 = CALENDAR_DATE ( 2020, 17, 2 ) ;
#42 = VECTOR ( 'NONE', #72, 1000.000000000000000 ) ;
#43 = DIRECTION ( 'NONE',  ( 0.0000000000000000000, 0.0000000000000000000, -1.000000000000000000 ) ) ;
#44 = ORIENTED_EDGE ( 'NONE', *, *, #537, .T. ) ;
#45 = EDGE_CURVE ( 'NONE', #166, #190, #432, .T. ) ;
#46 = DIRECTION ( 'NONE',  ( -0.0000000000000000000, -1.000000000000000000, -0.0000000000000000000 ) ) ;
#47 = EDGE_LOOP ( 'NONE', ( #226, #413, #75, #517, #495, #267, #579, #373 ) ) ;
#48 = CARTESIAN_POINT ( 'NONE',  ( 0.0000000000000000000, 6.000000000000000000, 0.0000000000000000000 ) ) ;
#49 = CC_DESIGN_PERSON_AND_ORGANIZATION_ASSIGNMENT ( #525, #330, ( #935 ) ) ;
#50 = DIRECTION ( 'NONE',  ( -0.0000000000000000000, -1.000000000000000000, -0.0000000000000000000 ) ) ;
#51 = CARTESIAN_POINT ( 'NONE',  ( -1.300000000000000000, 2.000000000000000000, -0.9500000000000018400 ) ) ;
#52 = CARTESIAN_POINT ( 'NONE',  ( 1.224646799147353200E-016, -1.224646799147353500E-016, 1.000000000000000000 ) ) ;
#53 = AXIS2_PLACEMENT_3D ( 'NONE', #136, #64, #59 ) ;
#54 = DIRECTION ( 'NONE',  ( -0.0000000000000000000, -1.000000000000000000, -0.0000000000000000000 ) ) ;
#55 = FACE_OUTER_BOUND ( 'NONE', #37, .T. ) ;
#56 = CYLINDRICAL_SURFACE ( 'NONE', #922, 1.000000000000000000 ) ;
#57 = LINE ( 'NONE', #924, #386 ) ;
#58 = ORIENTED_EDGE ( 'NONE', *, *, #934, .T. ) ;
#59 = DIRECTION ( 'NONE',  ( -1.445602896647339200E-016, 1.000000000000000000, 0.0000000000000000000 ) ) ;
#60 = CARTESIAN_POINT ( 'NONE',  ( 0.0000000000000000000, 0.0000000000000000000, 0.0000000000000000000 ) ) ;
#61 = VERTEX_POINT ( 'NONE', #121 ) ;
#62 = EDGE_CURVE ( 'NONE', #954, #624, #540, .T. ) ;
#63 = DIRECTION ( 'NONE',  ( 1.445602896647339200E-016, -1.000000000000000000, 0.0000000000000000000 ) ) ;
#64 = DIRECTION ( 'NONE',  ( 1.000000000000000000, 1.445602896647339200E-016, -0.0000000000000000000 ) ) ;
#65 = DIRECTION ( 'NONE',  ( 1.000000000000000000, 0.0000000000000000000, -1.224646799147353200E-016 ) ) ;
#66 = DIRECTION ( 'NONE',  ( 8.659560562354961200E-017, -0.7071067811865452400, 0.7071067811865499000 ) ) ;
#67 = CARTESIAN_POINT ( 'NONE',  ( 0.0000000000000000000, 8.899999999999998600, 0.0000000000000000000 ) ) ;
#68 = DATE_AND_TIME ( #719, #3 ) ;
#69 = AXIS2_PLACEMENT_3D ( 'NONE', #469, #544, #236 ) ;
#70 = CYLINDRICAL_SURFACE ( 'NONE', #746, 0.5999999999999998700 ) ;
#71 = ADVANCED_FACE ( 'NONE', ( #146 ), #98, .T. ) ;
#72 = DIRECTION ( 'NONE',  ( -0.0000000000000000000, -0.0000000000000000000, -1.000000000000000000 ) ) ;
#73 = CARTESIAN_POINT ( 'NONE',  ( 2.540000000000000000, 6.000000000000000000, 0.5999999999999999800 ) ) ;
#74 = LINE ( 'NONE', #966, #493 ) ;
#75 = ORIENTED_EDGE ( 'NONE', *, *, #899, .T. ) ;
#76 = ORIENTED_EDGE ( 'NONE', *, *, #718, .T. ) ;
#77 = DIRECTION ( 'NONE',  ( -0.0000000000000000000, -1.000000000000000000, -0.0000000000000000000 ) ) ;
#78 = AXIS2_PLACEMENT_3D ( 'NONE', #388, #961, #125 ) ;
#79 = CARTESIAN_POINT ( 'NONE',  ( 2.540000000000000000, 9.499999999999998200, 0.0000000000000000000 ) ) ;
#80 = CARTESIAN_POINT ( 'NONE',  ( 3.840000000000000700, 2.000000000000000000, 1.250000000000000000 ) ) ;
#81 = DIRECTION ( 'NONE',  ( 0.0000000000000000000, 0.0000000000000000000, -1.000000000000000000 ) ) ;
#82 = EDGE_CURVE ( 'NONE', #260, #483, #277, .T. ) ;
#83 = CIRCLE ( 'NONE', #202, 1.000000000000000000 ) ;
#84 = DIRECTION ( 'NONE',  ( -0.0000000000000000000, -1.000000000000000000, -0.0000000000000000000 ) ) ;
#85 = CIRCLE ( 'NONE', #940, 0.7500000000000000000 ) ;
#86 = DIRECTION ( 'NONE',  ( -1.000000000000000000, 0.0000000000000000000, 0.0000000000000000000 ) ) ;
#87 = ORIENTED_EDGE ( 'NONE', *, *, #704, .F. ) ;
#88 = CARTESIAN_POINT ( 'NONE',  ( -1.000000000000000000, 2.000000000000000000, 1.250000000000000000 ) ) ;
#89 = EDGE_LOOP ( 'NONE', ( #657, #794 ) ) ;
#90 = EDGE_CURVE ( 'NONE', #8, #702, #785, .T. ) ;
#91 = AXIS2_PLACEMENT_3D ( 'NONE', #155, #909, #774 ) ;
#92 = APPROVAL ( #921, '未指定' ) ;
#93 = DATE_TIME_ROLE ( 'classification_date' ) ;
#94 = DESIGN_CONTEXT ( 'detailed design', #180, 'design' ) ;
#95 = COORDINATED_UNIVERSAL_TIME_OFFSET ( 8, 0, .AHEAD. ) ;
#96 = MECHANICAL_CONTEXT ( 'NONE', #343, 'mechanical' ) ;
#97 = FACE_OUTER_BOUND ( 'NONE', #47, .T. ) ;
#98 = SPHERICAL_SURFACE ( 'NONE', #825, 0.6000000000000015300 ) ;
#99 = EDGE_LOOP ( 'NONE', ( #179, #402, #570, #917, #918 ) ) ;
#100 = VERTEX_POINT ( 'NONE', #272 ) ;
#101 = DIRECTION ( 'NONE',  ( 0.0000000000000000000, 0.0000000000000000000, 1.000000000000000000 ) ) ;
#102 = ORIENTED_EDGE ( 'NONE', *, *, #138, .F. ) ;
#103 = EDGE_CURVE ( 'NONE', #18, #100, #5, .T. ) ;
#104 = CIRCLE ( 'NONE', #827, 0.5999999999999998700 ) ;
#105 = LINE ( 'NONE', #176, #974 ) ;
#106 = AXIS2_PLACEMENT_3D ( 'NONE', #217, #885, #280 ) ;
#107 = VERTEX_POINT ( 'NONE', #51 ) ;
#108 = DIRECTION ( 'NONE',  ( 1.224646799147353200E-016, -0.0000000000000000000, 1.000000000000000000 ) ) ;
#109 = EDGE_LOOP ( 'NONE', ( #102, #58, #659, #951 ) ) ;
#110 = ORIENTED_EDGE ( 'NONE', *, *, #854, .T. ) ;
#111 = CARTESIAN_POINT ( 'NONE',  ( 3.840000000000000300, 0.5000000000000000000, 1.250000000000000000 ) ) ;
#112 = EDGE_CURVE ( 'NONE', #841, #773, #568, .T. ) ;
#113 = ADVANCED_FACE ( 'NONE', ( #927 ), #224, .T. ) ;
#114 = DIRECTION ( 'NONE',  ( -0.0000000000000000000, -1.000000000000000000, -0.0000000000000000000 ) ) ;
#115 = CARTESIAN_POINT ( 'NONE',  ( 0.0000000000000000000, 8.899999999999996800, 0.0000000000000000000 ) ) ;
#116 = VECTOR ( 'NONE', #859, 1000.000000000000000 ) ;
#117 = LINE ( 'NONE', #297, #42 ) ;
#118 = DIRECTION ( 'NONE',  ( 0.0000000000000000000, 0.0000000000000000000, -1.000000000000000000 ) ) ;
#119 = ORIENTED_EDGE ( 'NONE', *, *, #175, .T. ) ;
#120 = ORIENTED_EDGE ( 'NONE', *, *, #487, .F. ) ;
#121 = CARTESIAN_POINT ( 'NONE',  ( 2.540000000000000000, 6.000000000000000000, -0.5999999999999999800 ) ) ;
#122 = AXIS2_PLACEMENT_3D ( 'NONE', #405, #472, #698 ) ;
#123 = CARTESIAN_POINT ( 'NONE',  ( 0.0000000000000000000, 2.000000000000000000, 0.0000000000000000000 ) ) ;
#124 = AXIS2_PLACEMENT_3D ( 'NONE', #463, #286, #387 ) ;
#125 = DIRECTION ( 'NONE',  ( 0.0000000000000000000, 0.0000000000000000000, -1.000000000000000000 ) ) ;
#126 = PERSON_AND_ORGANIZATION ( #169, #619 ) ;
#127 = FACE_OUTER_BOUND ( 'NONE', #942, .T. ) ;
#128 = LINE ( 'NONE', #503, #915 ) ;
#129 = CARTESIAN_POINT ( 'NONE',  ( 3.840000000000000700, 2.000000000000000000, -0.9500000000000018400 ) ) ;
#130 = ORIENTED_EDGE ( 'NONE', *, *, #112, .T. ) ;
#131 = EDGE_CURVE ( 'NONE', #249, #816, #622, .T. ) ;
#132 = PLANE ( 'NONE',  #106 ) ;
#133 = VERTEX_POINT ( 'NONE', #365 ) ;
#134 = ORIENTED_EDGE ( 'NONE', *, *, #772, .T. ) ;
#135 = EDGE_LOOP ( 'NONE', ( #201, #416, #427, #580 ) ) ;
#136 = CARTESIAN_POINT ( 'NONE',  ( -1.300000000000000000, 2.000000000000000000, 1.250000000000000000 ) ) ;
#137 = CARTESIAN_POINT ( 'NONE',  ( 2.540000000000000000, -1.224646799147353500E-016, 1.000000000000000000 ) ) ;
#138 = EDGE_CURVE ( 'NONE', #880, #189, #877, .T. ) ;
#139 = CARTESIAN_POINT ( 'NONE',  ( -1.300000000000000000, 2.000000000000000000, -0.9500000000000018400 ) ) ;
#140 = AXIS2_PLACEMENT_3D ( 'NONE', #777, #910, #313 ) ;
#141 = AXIS2_PLACEMENT_3D ( 'NONE', #392, #695, #474 ) ;
#142 = CARTESIAN_POINT ( 'NONE',  ( 0.0000000000000000000, 6.000000000000000000, 0.0000000000000000000 ) ) ;
#143 = CARTESIAN_POINT ( 'NONE',  ( 2.540000000000000000, 0.5000000000000000000, 0.0000000000000000000 ) ) ;
#144 = APPROVAL_PERSON_ORGANIZATION ( #465, #378, #20 ) ;
#145 = CIRCLE ( 'NONE', #256, 1.000000000000000000 ) ;
#146 = FACE_OUTER_BOUND ( 'NONE', #679, .T. ) ;
#147 = EDGE_LOOP ( 'NONE', ( #415, #28, #776, #530 ) ) ;
#148 = CARTESIAN_POINT ( 'NONE',  ( 2.540000000000000000, 0.0000000000000000000, 0.0000000000000000000 ) ) ;
#149 = ORIENTED_EDGE ( 'NONE', *, *, #512, .T. ) ;
#150 = ADVANCED_FACE ( 'NONE', ( #459 ), #196, .T. ) ;
#151 = DIRECTION ( 'NONE',  ( 0.0000000000000000000, 0.0000000000000000000, 1.000000000000000000 ) ) ;
#152 = ORIENTED_EDGE ( 'NONE', *, *, #524, .T. ) ;
#153 = DIRECTION ( 'NONE',  ( -0.0000000000000000000, -1.000000000000000000, -0.0000000000000000000 ) ) ;
#154 = CARTESIAN_POINT ( 'NONE',  ( 3.540000000000000500, 2.000000000000000000, -1.250000000000000000 ) ) ;
#155 = CARTESIAN_POINT ( 'NONE',  ( 0.0000000000000000000, 8.899999999999998600, 0.0000000000000000000 ) ) ;
#156 = EDGE_CURVE ( 'NONE', #25, #979, #22, .T. ) ;
#157 = DIRECTION ( 'NONE',  ( 0.0000000000000000000, 0.0000000000000000000, -1.000000000000000000 ) ) ;
#158 = CARTESIAN_POINT ( 'NONE',  ( 2.540000000000000000, 8.899999999999998600, 0.0000000000000000000 ) ) ;
#159 = AXIS2_PLACEMENT_3D ( 'NONE', #375, #532, #604 ) ;
#160 = FACE_OUTER_BOUND ( 'NONE', #919, .T. ) ;
#161 = CARTESIAN_POINT ( 'NONE',  ( 1.939999999999999500, 8.899999999999998600, 7.347880794884127600E-017 ) ) ;
#162 = LINE ( 'NONE', #933, #866 ) ;
#163 = DIRECTION ( 'NONE',  ( 0.0000000000000000000, 0.0000000000000000000, 1.000000000000000000 ) ) ;
#164 = ORIENTED_EDGE ( 'NONE', *, *, #944, .T. ) ;
#165 = ORIENTED_EDGE ( 'NONE', *, *, #914, .T. ) ;
#166 = VERTEX_POINT ( 'NONE', #452 ) ;
#167 = DIRECTION ( 'NONE',  ( 0.0000000000000000000, 0.0000000000000000000, -1.000000000000000000 ) ) ;
#168 = CARTESIAN_POINT ( 'NONE',  ( 3.140000000000001000, 8.899999999999998600, 0.0000000000000000000 ) ) ;
#169 = PERSON ( '未指定', '未指定', '未指定', ('未指定'), ('未指定'), ('未指定') ) ;
#170 = AXIS2_PLACEMENT_3D ( 'NONE', #158, #488, #247 ) ;
#171 = DIRECTION ( 'NONE',  ( 0.7071067811865455700, 1.022195611122246500E-016, 0.7071067811865495700 ) ) ;
#172 = CARTESIAN_POINT ( 'NONE',  ( 2.540000000000000000, 5.850000000000001400, 0.0000000000000000000 ) ) ;
#173 = APPROVAL_STATUS ( 'not_yet_approved' ) ;
#174 = DIRECTION ( 'NONE',  ( 0.0000000000000000000, 0.0000000000000000000, -1.000000000000000000 ) ) ;
#175 = EDGE_CURVE ( 'NONE', #863, #804, #977, .T. ) ;
#176 = CARTESIAN_POINT ( 'NONE',  ( -1.299999999999999800, 0.5000000000000000000, -1.250000000000000000 ) ) ;
#177 = LINE ( 'NONE', #364, #290 ) ;
#178 = CARTESIAN_POINT ( 'NONE',  ( -0.9999999999999997800, 0.5000000000000000000, -1.250000000000000000 ) ) ;
#179 = ORIENTED_EDGE ( 'NONE', *, *, #731, .F. ) ;
#180 = APPLICATION_CONTEXT ( 'configuration controlled 3d designs of mechanical parts and assemblies' ) ;
#181 = CARTESIAN_POINT ( 'NONE',  ( 3.540000000000000500, 2.000000000000000000, 1.250000000000000000 ) ) ;
#182 = EDGE_LOOP ( 'NONE', ( #706, #840 ) ) ;
#183 = PRODUCT_RELATED_PRODUCT_CATEGORY ( 'detail', '', ( #545 ) ) ;
#184 = CARTESIAN_POINT ( 'NONE',  ( 2.540000000000000000, 0.0000000000000000000, 0.7500000000000000000 ) ) ;
#185 = CALENDAR_DATE ( 2020, 17, 2 ) ;
#186 = AXIS2_PLACEMENT_3D ( 'NONE', #142, #391, #891 ) ;
#187 = CIRCLE ( 'NONE', #664, 0.5999999999999998700 ) ;
#188 = ORIENTED_EDGE ( 'NONE', *, *, #641, .F. ) ;
#189 = VERTEX_POINT ( 'NONE', #829 ) ;
#190 = VERTEX_POINT ( 'NONE', #831 ) ;
#191 = EDGE_CURVE ( 'NONE', #374, #614, #468, .T. ) ;
#192 = ORIENTED_EDGE ( 'NONE', *, *, #704, .T. ) ;
#193 = VECTOR ( 'NONE', #621, 1000.000000000000000 ) ;
#194 = CIRCLE ( 'NONE', #170, 0.5999999999999998700 ) ;
#195 = AXIS2_PLACEMENT_3D ( 'NONE', #782, #566, #953 ) ;
#196 = CONICAL_SURFACE ( 'NONE', #326, 0.5999999999999999800, 0.7853981633974516100 ) ;
#197 = EDGE_LOOP ( 'NONE', ( #322, #805, #406, #736 ) ) ;
#198 = ORIENTED_EDGE ( 'NONE', *, *, #112, .F. ) ;
#199 = CARTESIAN_POINT ( 'NONE',  ( 2.540000000000000000, -1.224646799147353500E-016, 0.0000000000000000000 ) ) ;
#200 = DIRECTION ( 'NONE',  ( 0.0000000000000000000, 1.000000000000000000, 0.0000000000000000000 ) ) ;
#201 = ORIENTED_EDGE ( 'NONE', *, *, #738, .T. ) ;
#202 = AXIS2_PLACEMENT_3D ( 'NONE', #385, #839, #151 ) ;
#203 = ADVANCED_FACE ( 'NONE', ( #33 ), #906, .F. ) ;
#204 = PERSON_AND_ORGANIZATION ( #169, #619 ) ;
#205 = DIRECTION ( 'NONE',  ( -0.0000000000000000000, -1.000000000000000000, -0.0000000000000000000 ) ) ;
#206 = CARTESIAN_POINT ( 'NONE',  ( 2.540000000000000000, 6.000000000000000000, 0.0000000000000000000 ) ) ;
#207 = LINE ( 'NONE', #833, #651 ) ;
#208 = EDGE_CURVE ( 'NONE', #483, #372, #117, .T. ) ;
#209 = FACE_OUTER_BOUND ( 'NONE', #533, .T. ) ;
#210 = VERTEX_POINT ( 'NONE', #757 ) ;
#211 = ORIENTED_EDGE ( 'NONE', *, *, #836, .T. ) ;
#212 = ADVANCED_FACE ( 'NONE', ( #826 ), #898, .F. ) ;
#213 = DIRECTION ( 'NONE',  ( -0.0000000000000000000, -1.000000000000000000, -0.0000000000000000000 ) ) ;
#214 = ORIENTED_EDGE ( 'NONE', *, *, #524, .F. ) ;
#215 = DIRECTION ( 'NONE',  ( 0.0000000000000000000, 0.0000000000000000000, -1.000000000000000000 ) ) ;
#216 = CARTESIAN_POINT ( 'NONE',  ( 0.0000000000000000000, -1.224646799147353500E-016, 0.0000000000000000000 ) ) ;
#217 = CARTESIAN_POINT ( 'NONE',  ( -1.300000000000000000, 2.000000000000000000, 1.250000000000000000 ) ) ;
#218 = AXIS2_PLACEMENT_3D ( 'NONE', #123, #360, #734 ) ;
#219 = DIRECTION ( 'NONE',  ( 0.0000000000000000000, 0.0000000000000000000, -1.000000000000000000 ) ) ;
#220 = CIRCLE ( 'NONE', #122, 0.7500000000000000000 ) ;
#221 = FACE_OUTER_BOUND ( 'NONE', #749, .T. ) ;
#222 = DIRECTION ( 'NONE',  ( 1.445602896647339200E-016, -1.000000000000000000, 0.0000000000000000000 ) ) ;
#223 = DIRECTION ( 'NONE',  ( 0.0000000000000000000, -0.0000000000000000000, 1.000000000000000000 ) ) ;
#224 = CYLINDRICAL_SURFACE ( 'NONE', #973, 0.7500000000000000000 ) ;
#225 = EDGE_CURVE ( 'NONE', #309, #773, #813, .T. ) ;
#226 = ORIENTED_EDGE ( 'NONE', *, *, #425, .T. ) ;
#227 = EDGE_LOOP ( 'NONE', ( #663, #426, #830, #237 ) ) ;
#228 = CARTESIAN_POINT ( 'NONE',  ( 0.0000000000000000000, 0.0000000000000000000, 1.250000000000000000 ) ) ;
#229 = CARTESIAN_POINT ( 'NONE',  ( 2.540000000000000000, 8.899999999999998600, 0.0000000000000000000 ) ) ;
#230 = CARTESIAN_POINT ( 'NONE',  ( -1.300000000000000000, 2.000000000000000000, -0.9500000000000018400 ) ) ;
#231 = CC_DESIGN_PERSON_AND_ORGANIZATION_ASSIGNMENT ( #565, #489, ( #780 ) ) ;
#232 = CARTESIAN_POINT ( 'NONE',  ( 2.540000000000000000, -1.224646799147353500E-016, 0.0000000000000000000 ) ) ;
#233 = VECTOR ( 'NONE', #705, 1000.000000000000000 ) ;
#234 = FACE_OUTER_BOUND ( 'NONE', #135, .T. ) ;
#235 = ORIENTED_EDGE ( 'NONE', *, *, #914, .F. ) ;
#236 = DIRECTION ( 'NONE',  ( 0.0000000000000000000, 0.0000000000000000000, -1.000000000000000000 ) ) ;
#237 = ORIENTED_EDGE ( 'NONE', *, *, #271, .F. ) ;
#238 = VERTEX_POINT ( 'NONE', #980 ) ;
#239 = CARTESIAN_POINT ( 'NONE',  ( 0.0000000000000000000, 5.850000000000001400, 0.0000000000000000000 ) ) ;
#240 = DIRECTION ( 'NONE',  ( 0.0000000000000000000, -0.0000000000000000000, 1.000000000000000000 ) ) ;
#241 = EDGE_CURVE ( 'NONE', #941, #35, #16, .T. ) ;
#242 = CARTESIAN_POINT ( 'NONE',  ( 2.540000000000000000, 0.0000000000000000000, 0.0000000000000000000 ) ) ;
#243 = ADVANCED_FACE ( 'NONE', ( #234 ), #423, .T. ) ;
#244 = LINE ( 'NONE', #511, #633 ) ;
#245 =( LENGTH_UNIT ( ) NAMED_UNIT ( * ) SI_UNIT ( .MILLI., .METRE. ) );
#246 = LINE ( 'NONE', #703, #31 ) ;
#247 = DIRECTION ( 'NONE',  ( 0.0000000000000000000, 0.0000000000000000000, -1.000000000000000000 ) ) ;
#248 = VECTOR ( 'NONE', #66, 1000.000000000000100 ) ;
#249 = VERTEX_POINT ( 'NONE', #301 ) ;
#250 = ADVANCED_FACE ( 'NONE', ( #894 ), #733, .T. ) ;
#251 = ORIENTED_EDGE ( 'NONE', *, *, #289, .T. ) ;
#252 = DIRECTION ( 'NONE',  ( 0.0000000000000000000, 1.000000000000000000, 0.0000000000000000000 ) ) ;
#253 = CC_DESIGN_DATE_AND_TIME_ASSIGNMENT ( #925, #93, ( #12 ) ) ;
#254 = DATE_TIME_ROLE ( 'creation_date' ) ;
#255 = CARTESIAN_POINT ( 'NONE',  ( 2.540000000000000000, 8.899999999999998600, -0.5999999999999998700 ) ) ;
#256 = AXIS2_PLACEMENT_3D ( 'NONE', #789, #252, #163 ) ;
#257 = VECTOR ( 'NONE', #114, 1000.000000000000000 ) ;
#258 = VECTOR ( 'NONE', #809, 1000.000000000000100 ) ;
#259 = ORIENTED_EDGE ( 'NONE', *, *, #854, .F. ) ;
#260 = VERTEX_POINT ( 'NONE', #683 ) ;
#261 = EDGE_CURVE ( 'NONE', #685, #238, #713, .T. ) ;
#262 = CIRCLE ( 'NONE', #11, 0.5999999999999999800 ) ;
#263 = AXIS2_PLACEMENT_3D ( 'NONE', #911, #762, #324 ) ;
#264 = FACE_OUTER_BOUND ( 'NONE', #227, .T. ) ;
#265 = LINE ( 'NONE', #920, #636 ) ;
#266 = CARTESIAN_POINT ( 'NONE',  ( 2.540000000000000000, 0.0000000000000000000, 0.0000000000000000000 ) ) ;
#267 = ORIENTED_EDGE ( 'NONE', *, *, #191, .T. ) ;
#268 = EDGE_LOOP ( 'NONE', ( #120, #726, #341, #555 ) ) ;
#269 = ADVANCED_FACE ( 'NONE', ( #904 ), #835, .T. ) ;
#270 = DIRECTION ( 'NONE',  ( -0.0000000000000000000, -1.000000000000000000, -0.0000000000000000000 ) ) ;
#271 = EDGE_CURVE ( 'NONE', #952, #589, #291, .T. ) ;
#272 = CARTESIAN_POINT ( 'NONE',  ( 0.0000000000000000000, 2.000000000000000000, -0.7500000000000000000 ) ) ;
#273 = DIRECTION ( 'NONE',  ( -0.0000000000000000000, -1.000000000000000000, -0.0000000000000000000 ) ) ;
#274 = CARTESIAN_POINT ( 'NONE',  ( 9.184850993605149700E-017, 5.850000000000001400, 0.7500000000000000000 ) ) ;
#275 = DIRECTION ( 'NONE',  ( 0.0000000000000000000, 0.0000000000000000000, 1.000000000000000000 ) ) ;
#276 = CYLINDRICAL_SURFACE ( 'NONE', #376, 1.000000000000000000 ) ;
#277 = LINE ( 'NONE', #807, #852 ) ;
#278 = DIRECTION ( 'NONE',  ( -0.0000000000000000000, -1.000000000000000000, -0.0000000000000000000 ) ) ;
#279 = ORIENTED_EDGE ( 'NONE', *, *, #45, .F. ) ;
#280 = DIRECTION ( 'NONE',  ( 0.0000000000000000000, -0.0000000000000000000, -1.000000000000000000 ) ) ;
#281 = ORIENTED_EDGE ( 'NONE', *, *, #471, .T. ) ;
#282 = DIRECTION ( 'NONE',  ( -0.0000000000000000000, -1.000000000000000000, -0.0000000000000000000 ) ) ;
#283 = AXIS2_PLACEMENT_3D ( 'NONE', #949, #883, #437 ) ;
#284 = CARTESIAN_POINT ( 'NONE',  ( 0.0000000000000000000, 6.000000000000000000, -0.5999999999999999800 ) ) ;
#285 = SHAPE_DEFINITION_REPRESENTATION ( #618, #654 ) ;
#286 = DIRECTION ( 'NONE',  ( 0.0000000000000000000, 0.0000000000000000000, -1.000000000000000000 ) ) ;
#287 = CARTESIAN_POINT ( 'NONE',  ( 3.840000000000000700, 2.000000000000000000, -0.9500000000000018400 ) ) ;
#288 = FACE_OUTER_BOUND ( 'NONE', #99, .T. ) ;
#289 = EDGE_CURVE ( 'NONE', #107, #372, #700, .T. ) ;
#290 = VECTOR ( 'NONE', #882, 1000.000000000000100 ) ;
#291 = CIRCLE ( 'NONE', #649, 0.5999999999999998700 ) ;
#292 = ORIENTED_EDGE ( 'NONE', *, *, #605, .T. ) ;
#293 = DIRECTION ( 'NONE',  ( -1.445602896647339200E-016, 1.000000000000000000, 0.0000000000000000000 ) ) ;
#294 = CARTESIAN_POINT ( 'NONE',  ( 0.0000000000000000000, 8.899999999999996800, 0.0000000000000000000 ) ) ;
#295 = ORIENTED_EDGE ( 'NONE', *, *, #436, .T. ) ;
#296 = VERTEX_POINT ( 'NONE', #853 ) ;
#297 = CARTESIAN_POINT ( 'NONE',  ( -1.299999999999999800, 0.5000000000000000000, 1.250000000000000000 ) ) ;
#298 = EDGE_CURVE ( 'NONE', #916, #865, #867, .T. ) ;
#299 = DIRECTION ( 'NONE',  ( 0.0000000000000000000, 0.0000000000000000000, -1.000000000000000000 ) ) ;
#300 = CC_DESIGN_APPROVAL ( #923, ( #12 ) ) ;
#301 = CARTESIAN_POINT ( 'NONE',  ( 0.0000000000000000000, -1.224646799147353500E-016, -1.000000000000000000 ) ) ;
#302 = DIRECTION ( 'NONE',  ( 1.000000000000000000, 0.0000000000000000000, 0.0000000000000000000 ) ) ;
#303 = CALENDAR_DATE ( 2020, 17, 2 ) ;
#304 = FACE_OUTER_BOUND ( 'NONE', #508, .T. ) ;
#305 = DIRECTION ( 'NONE',  ( -0.0000000000000000000, 1.000000000000000000, -0.0000000000000000000 ) ) ;
#306 = DIRECTION ( 'NONE',  ( 0.0000000000000000000, 0.0000000000000000000, -1.000000000000000000 ) ) ;
#307 = ORIENTED_EDGE ( 'NONE', *, *, #669, .F. ) ;
#308 = AXIS2_PLACEMENT_3D ( 'NONE', #458, #680, #293 ) ;
#309 = VERTEX_POINT ( 'NONE', #535 ) ;
#310 = EDGE_LOOP ( 'NONE', ( #591, #350, #895, #439 ) ) ;
#311 = EDGE_LOOP ( 'NONE', ( #149, #930, #198, #188 ) ) ;
#312 = DIRECTION ( 'NONE',  ( -0.0000000000000000000, -1.000000000000000000, -0.0000000000000000000 ) ) ;
#313 = DIRECTION ( 'NONE',  ( 1.000000000000000000, 0.0000000000000000000, 0.0000000000000000000 ) ) ;
#314 = EDGE_CURVE ( 'NONE', #189, #871, #85, .T. ) ;
#315 = DIRECTION ( 'NONE',  ( -0.0000000000000000000, -1.000000000000000000, -0.0000000000000000000 ) ) ;
#316 = ADVANCED_FACE ( 'NONE', ( #209 ), #653, .T. ) ;
#317 = DIRECTION ( 'NONE',  ( -0.0000000000000000000, -1.000000000000000000, -0.0000000000000000000 ) ) ;
#318 = DIRECTION ( 'NONE',  ( 0.0000000000000000000, 1.000000000000000000, 0.0000000000000000000 ) ) ;
#319 = CYLINDRICAL_SURFACE ( 'NONE', #159, 1.000000000000000000 ) ;
#320 = CARTESIAN_POINT ( 'NONE',  ( 9.184850993605149700E-017, 0.0000000000000000000, 0.7500000000000000000 ) ) ;
#321 = VECTOR ( 'NONE', #582, 1000.000000000000000 ) ;
#322 = ORIENTED_EDGE ( 'NONE', *, *, #800, .F. ) ;
#323 = DIRECTION ( 'NONE',  ( -0.0000000000000000000, -1.000000000000000000, -0.0000000000000000000 ) ) ;
#324 = DIRECTION ( 'NONE',  ( 0.0000000000000000000, 0.0000000000000000000, -1.000000000000000000 ) ) ;
#325 = ORIENTED_EDGE ( 'NONE', *, *, #208, .F. ) ;
#326 = AXIS2_PLACEMENT_3D ( 'NONE', #742, #737, #43 ) ;
#327 = ORIENTED_EDGE ( 'NONE', *, *, #487, .T. ) ;
#328 = CC_DESIGN_SECURITY_CLASSIFICATION ( #12, ( #935 ) ) ;
#329 = CARTESIAN_POINT ( 'NONE',  ( 2.540000000000000000, 0.0000000000000000000, -0.7500000000000000000 ) ) ;
#330 = PERSON_AND_ORGANIZATION_ROLE ( 'design_supplier' ) ;
#331 = DIRECTION ( 'NONE',  ( 0.0000000000000000000, 0.0000000000000000000, -1.000000000000000000 ) ) ;
#332 = EDGE_CURVE ( 'NONE', #644, #210, #265, .T. ) ;
#333 = DIRECTION ( 'NONE',  ( -0.0000000000000000000, -1.000000000000000000, -0.0000000000000000000 ) ) ;
#334 = CALENDAR_DATE ( 2020, 17, 2 ) ;
#335 = ADVANCED_FACE ( 'NONE', ( #610 ), #56, .T. ) ;
#336 = CARTESIAN_POINT ( 'NONE',  ( 0.6000000000000007500, 8.899999999999998600, 0.0000000000000000000 ) ) ;
#337 = LINE ( 'NONE', #699, #116 ) ;
#338 = CARTESIAN_POINT ( 'NONE',  ( 0.0000000000000000000, 5.850000000000001400, -0.7500000000000000000 ) ) ;
#339 = VECTOR ( 'NONE', #670, 1000.000000000000000 ) ;
#340 = ORIENTED_EDGE ( 'NONE', *, *, #561, .T. ) ;
#341 = ORIENTED_EDGE ( 'NONE', *, *, #14, .F. ) ;
#342 =( NAMED_UNIT ( * ) SI_UNIT ( $, .STERADIAN. ) SOLID_ANGLE_UNIT ( ) );
#343 = APPLICATION_CONTEXT ( 'configuration controlled 3d designs of mechanical parts and assemblies' ) ;
#344 = CARTESIAN_POINT ( 'NONE',  ( 2.540000000000000000, 2.000000000000000000, -0.7500000000000000000 ) ) ;
#345 = CARTESIAN_POINT ( 'NONE',  ( 0.0000000000000000000, 8.899999999999998600, 0.0000000000000000000 ) ) ;
#346 = APPROVAL_DATE_TIME ( #368, #378 ) ;
#347 = LINE ( 'NONE', #893, #672 ) ;
#348 = SPHERICAL_SURFACE ( 'NONE', #195, 0.6000000000000015300 ) ;
#349 = ORIENTED_EDGE ( 'NONE', *, *, #407, .F. ) ;
#350 = ORIENTED_EDGE ( 'NONE', *, *, #627, .T. ) ;
#351 = EDGE_LOOP ( 'NONE', ( #938, #611, #482, #7 ) ) ;
#352 = EDGE_CURVE ( 'NONE', #871, #685, #803, .T. ) ;
#353 = ADVANCED_FACE ( 'NONE', ( #745 ), #404, .F. ) ;
#354 = EDGE_CURVE ( 'NONE', #750, #979, #514, .T. ) ;
#355 = PERSON_AND_ORGANIZATION ( #169, #619 ) ;
#356 = FACE_OUTER_BOUND ( 'NONE', #351, .T. ) ;
#357 = ORIENTED_EDGE ( 'NONE', *, *, #787, .F. ) ;
#358 = EDGE_LOOP ( 'NONE', ( #445, #362, #460, #214 ) ) ;
#359 = ORIENTED_EDGE ( 'NONE', *, *, #156, .T. ) ;
#360 = DIRECTION ( 'NONE',  ( 0.0000000000000000000, -1.000000000000000000, 0.0000000000000000000 ) ) ;
#361 = CARTESIAN_POINT ( 'NONE',  ( -1.000000000000000000, 2.000000000000000000, -1.250000000000000000 ) ) ;
#362 = ORIENTED_EDGE ( 'NONE', *, *, #836, .F. ) ;
#363 = AXIS2_PLACEMENT_3D ( 'NONE', #875, #275, #808 ) ;
#364 = CARTESIAN_POINT ( 'NONE',  ( 3.840000000000000700, 0.5000000000000000000, -0.9500000000000016200 ) ) ;
#365 = CARTESIAN_POINT ( 'NONE',  ( 3.840000000000000300, 0.5000000000000000000, 0.9500000000000000700 ) ) ;
#366 = DIRECTION ( 'NONE',  ( 0.0000000000000000000, 0.0000000000000000000, -1.000000000000000000 ) ) ;
#367 = EDGE_CURVE ( 'NONE', #624, #35, #457, .T. ) ;
#368 = DATE_AND_TIME ( #41, #538 ) ;
#369 = CIRCLE ( 'NONE', #479, 0.6000000000000015300 ) ;
#370 = CYLINDRICAL_SURFACE ( 'NONE', #418, 0.5999999999999998700 ) ;
#371 = DIRECTION ( 'NONE',  ( 0.0000000000000000000, -0.7071067811865452400, -0.7071067811865499000 ) ) ;
#372 = VERTEX_POINT ( 'NONE', #548 ) ;
#373 = ORIENTED_EDGE ( 'NONE', *, *, #332, .T. ) ;
#374 = VERTEX_POINT ( 'NONE', #691 ) ;
#375 = CARTESIAN_POINT ( 'NONE',  ( 0.0000000000000000000, 0.0000000000000000000, 0.0000000000000000000 ) ) ;
#376 = AXIS2_PLACEMENT_3D ( 'NONE', #585, #943, #36 ) ;
#377 = ORIENTED_EDGE ( 'NONE', *, *, #612, .F. ) ;
#378 = APPROVAL ( #173, '未指定' ) ;
#379 = CARTESIAN_POINT ( 'NONE',  ( 0.0000000000000000000, 6.000000000000000000, 0.0000000000000000000 ) ) ;
#380 = PLANE ( 'NONE',  #740 ) ;
#381 = CARTESIAN_POINT ( 'NONE',  ( 2.540000000000000000, 0.0000000000000000000, 1.000000000000000000 ) ) ;
#382 = DIRECTION ( 'NONE',  ( 0.7071067811865477900, -2.044391222244499300E-016, 0.7071067811865473500 ) ) ;
#383 = EDGE_CURVE ( 'NONE', #372, #8, #246, .T. ) ;
#384 = LINE ( 'NONE', #320, #597 ) ;
#385 = CARTESIAN_POINT ( 'NONE',  ( 2.540000000000000000, 0.5000000000000000000, 0.0000000000000000000 ) ) ;
#386 = VECTOR ( 'NONE', #640, 1000.000000000000000 ) ;
#387 = DIRECTION ( 'NONE',  ( -1.000000000000000000, 0.0000000000000000000, 0.0000000000000000000 ) ) ;
#388 = CARTESIAN_POINT ( 'NONE',  ( 0.0000000000000000000, 8.899999999999998600, 0.0000000000000000000 ) ) ;
#389 = ORIENTED_EDGE ( 'NONE', *, *, #412, .T. ) ;
#390 = ORIENTED_EDGE ( 'NONE', *, *, #471, .F. ) ;
#391 = DIRECTION ( 'NONE',  ( -0.0000000000000000000, -1.000000000000000000, -0.0000000000000000000 ) ) ;
#392 = CARTESIAN_POINT ( 'NONE',  ( 2.540000000000000000, 0.0000000000000000000, 0.0000000000000000000 ) ) ;
#393 = CARTESIAN_POINT ( 'NONE',  ( 2.540000000000000000, 0.0000000000000000000, 0.0000000000000000000 ) ) ;
#394 = CARTESIAN_POINT ( 'NONE',  ( 2.540000000000000000, 6.000000000000000000, -0.5999999999999999800 ) ) ;
#395 = CARTESIAN_POINT ( 'NONE',  ( -0.9999999999999997800, 0.5000000000000000000, 1.250000000000000000 ) ) ;
#396 = APPROVAL_DATE_TIME ( #68, #923 ) ;
#397 = CARTESIAN_POINT ( 'NONE',  ( 0.0000000000000000000, 0.0000000000000000000, 0.0000000000000000000 ) ) ;
#398 = ADVANCED_FACE ( 'NONE', ( #264 ), #784, .T. ) ;
#399 = DIRECTION ( 'NONE',  ( -0.0000000000000000000, -1.000000000000000000, -0.0000000000000000000 ) ) ;
#400 = CIRCLE ( 'NONE', #716, 0.6000000000000015300 ) ;
#401 = AXIS2_PLACEMENT_3D ( 'NONE', #764, #843, #86 ) ;
#402 = ORIENTED_EDGE ( 'NONE', *, *, #576, .T. ) ;
#403 = ORIENTED_EDGE ( 'NONE', *, *, #32, .T. ) ;
#404 = PLANE ( 'NONE',  #551 ) ;
#405 = CARTESIAN_POINT ( 'NONE',  ( 0.0000000000000000000, 2.000000000000000000, 0.0000000000000000000 ) ) ;
#406 = ORIENTED_EDGE ( 'NONE', *, *, #820, .T. ) ;
#407 = EDGE_CURVE ( 'NONE', #589, #61, #802, .T. ) ;
#408 = CARTESIAN_POINT ( 'NONE',  ( 0.0000000000000000000, 5.850000000000001400, 0.0000000000000000000 ) ) ;
#409 = DIRECTION ( 'NONE',  ( -0.0000000000000000000, -1.000000000000000000, -0.0000000000000000000 ) ) ;
#410 = FACE_OUTER_BOUND ( 'NONE', #908, .T. ) ;
#411 = VECTOR ( 'NONE', #63, 1000.000000000000000 ) ;
#412 = EDGE_CURVE ( 'NONE', #773, #841, #876, .T. ) ;
#413 = ORIENTED_EDGE ( 'NONE', *, *, #14, .T. ) ;
#414 = APPLICATION_PROTOCOL_DEFINITION ( 'international standard', 'config_control_design', 1994, #343 ) ;
#415 = ORIENTED_EDGE ( 'NONE', *, *, #899, .F. ) ;
#416 = ORIENTED_EDGE ( 'NONE', *, *, #241, .T. ) ;
#417 = DIRECTION ( 'NONE',  ( -1.000000000000000000, -0.0000000000000000000, -0.0000000000000000000 ) ) ;
#418 = AXIS2_PLACEMENT_3D ( 'NONE', #574, #419, #491 ) ;
#419 = DIRECTION ( 'NONE',  ( -0.0000000000000000000, -1.000000000000000000, -0.0000000000000000000 ) ) ;
#420 = APPROVAL_DATE_TIME ( #643, #92 ) ;
#421 = FACE_OUTER_BOUND ( 'NONE', #197, .T. ) ;
#422 = PLANE ( 'NONE',  #765 ) ;
#423 = CONICAL_SURFACE ( 'NONE', #779, 0.5999999999999999800, 0.7853981633974516100 ) ;
#424 = EDGE_LOOP ( 'NONE', ( #602, #134 ) ) ;
#425 = EDGE_CURVE ( 'NONE', #210, #804, #793, .T. ) ;
#426 = ORIENTED_EDGE ( 'NONE', *, *, #298, .T. ) ;
#427 = ORIENTED_EDGE ( 'NONE', *, *, #367, .F. ) ;
#428 = EDGE_CURVE ( 'NONE', #750, #954, #539, .T. ) ;
#429 = AXIS2_PLACEMENT_3D ( 'NONE', #408, #333, #174 ) ;
#430 = FACE_BOUND ( 'NONE', #182, .T. ) ;
#431 = VECTOR ( 'NONE', #728, 1000.000000000000000 ) ;
#432 = CIRCLE ( 'NONE', #283, 1.000000000000000000 ) ;
#433 = ORIENTED_EDGE ( 'NONE', *, *, #131, .F. ) ;
#434 = DIRECTION ( 'NONE',  ( -0.0000000000000000000, -1.000000000000000000, -0.0000000000000000000 ) ) ;
#435 = ORIENTED_EDGE ( 'NONE', *, *, #507, .F. ) ;
#436 = EDGE_CURVE ( 'NONE', #644, #614, #673, .T. ) ;
#437 = DIRECTION ( 'NONE',  ( 0.0000000000000000000, 0.0000000000000000000, 1.000000000000000000 ) ) ;
#438 = DIRECTION ( 'NONE',  ( 0.0000000000000000000, 0.0000000000000000000, -1.000000000000000000 ) ) ;
#439 = ORIENTED_EDGE ( 'NONE', *, *, #537, .F. ) ;
#440 = CARTESIAN_POINT ( 'NONE',  ( 0.0000000000000000000, 0.0000000000000000000, 0.0000000000000000000 ) ) ;
#441 = DIRECTION ( 'NONE',  ( -0.0000000000000000000, -1.000000000000000000, -0.0000000000000000000 ) ) ;
#442 = AXIS2_PLACEMENT_3D ( 'NONE', #242, #775, #630 ) ;
#443 = CIRCLE ( 'NONE', #263, 0.5999999999999999800 ) ;
#444 = VECTOR ( 'NONE', #371, 1000.000000000000100 ) ;
#445 = ORIENTED_EDGE ( 'NONE', *, *, #191, .F. ) ;
#446 = ORIENTED_EDGE ( 'NONE', *, *, #969, .F. ) ;
#447 = DIRECTION ( 'NONE',  ( -0.7071067811865493500, -0.0000000000000000000, -0.7071067811865456900 ) ) ;
#448 = ORIENTED_EDGE ( 'NONE', *, *, #225, .F. ) ;
#449 = DIRECTION ( 'NONE',  ( 0.0000000000000000000, 0.0000000000000000000, -1.000000000000000000 ) ) ;
#450 = ORIENTED_EDGE ( 'NONE', *, *, #612, .T. ) ;
#451 = CARTESIAN_POINT ( 'NONE',  ( 2.540000000000000000, -1.224646799147353500E-016, -1.000000000000000000 ) ) ;
#452 = CARTESIAN_POINT ( 'NONE',  ( 1.224646799147353200E-016, 0.5000000000000000000, 1.000000000000000000 ) ) ;
#453 = PLANE ( 'NONE',  #23 ) ;
#454 = EDGE_CURVE ( 'NONE', #690, #750, #732, .T. ) ;
#455 = ADVANCED_FACE ( 'NONE', ( #577 ), #348, .T. ) ;
#456 = LINE ( 'NONE', #945, #492 ) ;
#457 = CIRCLE ( 'NONE', #632, 0.7500000000000000000 ) ;
#458 = CARTESIAN_POINT ( 'NONE',  ( -0.9999999999999997800, -1.445602896647338900E-016, 1.250000000000000000 ) ) ;
#459 = FACE_OUTER_BOUND ( 'NONE', #109, .T. ) ;
#460 = ORIENTED_EDGE ( 'NONE', *, *, #82, .F. ) ;
#461 = ORIENTED_EDGE ( 'NONE', *, *, #208, .T. ) ;
#462 = ADVANCED_FACE ( 'NONE', ( #304 ), #554, .F. ) ;
#463 = CARTESIAN_POINT ( 'NONE',  ( 0.0000000000000000000, 8.899999999999996800, 0.0000000000000000000 ) ) ;
#464 = CARTESIAN_POINT ( 'NONE',  ( -1.300000000000000000, 2.000000000000000000, -0.9500000000000018400 ) ) ;
#465 = PERSON_AND_ORGANIZATION ( #169, #619 ) ;
#466 = AXIS2_PLACEMENT_3D ( 'NONE', #206, #282, #815 ) ;
#467 = CYLINDRICAL_SURFACE ( 'NONE', #584, 0.7500000000000000000 ) ;
#468 = LINE ( 'NONE', #970, #655 ) ;
#469 = CARTESIAN_POINT ( 'NONE',  ( 2.540000000000000000, 8.899999999999998600, 0.0000000000000000000 ) ) ;
#470 = DIRECTION ( 'NONE',  ( -0.0000000000000000000, -0.0000000000000000000, -1.000000000000000000 ) ) ;
#471 = EDGE_CURVE ( 'NONE', #133, #863, #634, .T. ) ;
#472 = DIRECTION ( 'NONE',  ( 0.0000000000000000000, -1.000000000000000000, 0.0000000000000000000 ) ) ;
#473 = ORIENTED_EDGE ( 'NONE', *, *, #834, .T. ) ;
#474 = DIRECTION ( 'NONE',  ( 0.0000000000000000000, 0.0000000000000000000, -1.000000000000000000 ) ) ;
#475 = LINE ( 'NONE', #139, #575 ) ;
#476 = DIRECTION ( 'NONE',  ( -0.0000000000000000000, -1.000000000000000000, -0.0000000000000000000 ) ) ;
#477 = CARTESIAN_POINT ( 'NONE',  ( 0.0000000000000000000, 0.0000000000000000000, 0.0000000000000000000 ) ) ;
#478 = VECTOR ( 'NONE', #417, 1000.000000000000000 ) ;
#479 = AXIS2_PLACEMENT_3D ( 'NONE', #294, #976, #65 ) ;
#480 = ADVANCED_FACE ( 'NONE', ( #221 ), #586, .T. ) ;
#481 = CC_DESIGN_APPROVAL ( #92, ( #935 ) ) ;
#482 = ORIENTED_EDGE ( 'NONE', *, *, #383, .F. ) ;
#483 = VERTEX_POINT ( 'NONE', #518 ) ;
#484 = DIRECTION ( 'NONE',  ( 0.7071067811865473500, 0.0000000000000000000, -0.7071067811865477900 ) ) ;
#485 =( NAMED_UNIT ( * ) PLANE_ANGLE_UNIT ( ) SI_UNIT ( $, .RADIAN. ) );
#486 = ADVANCED_FACE ( 'NONE', ( #947 ), #567, .T. ) ;
#487 = EDGE_CURVE ( 'NONE', #701, #863, #177, .T. ) ;
#488 = DIRECTION ( 'NONE',  ( -0.0000000000000000000, -1.000000000000000000, -0.0000000000000000000 ) ) ;
#489 = PERSON_AND_ORGANIZATION_ROLE ( 'creator' ) ;
#490 = ADVANCED_FACE ( 'NONE', ( #15, #721, #97 ), #132, .F. ) ;
#491 = DIRECTION ( 'NONE',  ( 0.0000000000000000000, 0.0000000000000000000, -1.000000000000000000 ) ) ;
#492 = VECTOR ( 'NONE', #667, 1000.000000000000000 ) ;
#493 = VECTOR ( 'NONE', #447, 1000.000000000000100 ) ;
#494 = APPROVAL_ROLE ( '' ) ;
#495 = ORIENTED_EDGE ( 'NONE', *, *, #1, .F. ) ;
#496 = CARTESIAN_POINT ( 'NONE',  ( 2.540000000000000000, 8.899999999999996800, 0.0000000000000000000 ) ) ;
#497 = ORIENTED_EDGE ( 'NONE', *, *, #29, .F. ) ;
#498 = CC_DESIGN_PERSON_AND_ORGANIZATION_ASSIGNMENT ( #901, #564, ( #12 ) ) ;
#499 = MANIFOLD_SOLID_BREP ( '倒角1', #38 ) ;
#500 = CARTESIAN_POINT ( 'NONE',  ( -1.300000000000000000, 2.000000000000000000, 1.250000000000000000 ) ) ;
#501 = CARTESIAN_POINT ( 'NONE',  ( 0.0000000000000000000, -6.123233995736767300E-017, 0.0000000000000000000 ) ) ;
#502 = AXIS2_PLACEMENT_3D ( 'NONE', #232, #844, #167 ) ;
#503 = CARTESIAN_POINT ( 'NONE',  ( 3.540000000000000000, 0.5000000000000000000, 1.250000000000000000 ) ) ;
#504 = LOCAL_TIME ( 22, 19, 33.00000000000000000, #95 ) ;
#505 = FACE_OUTER_BOUND ( 'NONE', #424, .T. ) ;
#506 = VECTOR ( 'NONE', #222, 1000.000000000000000 ) ;
#507 = EDGE_CURVE ( 'NONE', #905, #941, #963, .T. ) ;
#508 = EDGE_LOOP ( 'NONE', ( #281, #119, #639, #292 ) ) ;
#509 = EDGE_LOOP ( 'NONE', ( #446, #828, #600, #862 ) ) ;
#510 = ORIENTED_EDGE ( 'NONE', *, *, #969, .T. ) ;
#511 = CARTESIAN_POINT ( 'NONE',  ( 2.540000000000000000, 0.0000000000000000000, 0.5999999999999998700 ) ) ;
#512 = EDGE_CURVE ( 'NONE', #296, #309, #83, .T. ) ;
#513 = DIRECTION ( 'NONE',  ( -0.7071067811865454600, 0.0000000000000000000, -0.7071067811865496800 ) ) ;
#514 = CIRCLE ( 'NONE', #91, 0.5999999999999998700 ) ;
#515 = ORIENTED_EDGE ( 'NONE', *, *, #800, .T. ) ;
#516 = CARTESIAN_POINT ( 'NONE',  ( 0.0000000000000000000, 0.0000000000000000000, -0.7500000000000000000 ) ) ;
#517 = ORIENTED_EDGE ( 'NONE', *, *, #752, .T. ) ;
#518 = CARTESIAN_POINT ( 'NONE',  ( -1.299999999999999800, 0.5000000000000000000, 0.9499999999999984000 ) ) ;
#519 = ORIENTED_EDGE ( 'NONE', *, *, #972, .T. ) ;
#520 = AXIS2_PLACEMENT_3D ( 'NONE', #80, #629, #847 ) ;
#521 = DIRECTION ( 'NONE',  ( -0.0000000000000000000, -1.000000000000000000, -0.0000000000000000000 ) ) ;
#522 = DIRECTION ( 'NONE',  ( -0.0000000000000000000, -1.000000000000000000, -0.0000000000000000000 ) ) ;
#523 = DIRECTION ( 'NONE',  ( 0.0000000000000000000, 0.0000000000000000000, -1.000000000000000000 ) ) ;
#524 = EDGE_CURVE ( 'NONE', #614, #260, #756, .T. ) ;
#525 = PERSON_AND_ORGANIZATION ( #169, #619 ) ;
#526 = DIRECTION ( 'NONE',  ( 0.0000000000000000000, 0.0000000000000000000, -1.000000000000000000 ) ) ;
#527 = FACE_OUTER_BOUND ( 'NONE', #311, .T. ) ;
#528 = FACE_OUTER_BOUND ( 'NONE', #310, .T. ) ;
#529 = ORIENTED_EDGE ( 'NONE', *, *, #787, .T. ) ;
#530 = ORIENTED_EDGE ( 'NONE', *, *, #90, .T. ) ;
#531 = CARTESIAN_POINT ( 'NONE',  ( 0.0000000000000000000, 0.0000000000000000000, -1.250000000000000000 ) ) ;
#532 = DIRECTION ( 'NONE',  ( -0.0000000000000000000, -1.000000000000000000, -0.0000000000000000000 ) ) ;
#533 = EDGE_LOOP ( 'NONE', ( #748, #677, #259, #666 ) ) ;
#534 = CC_DESIGN_APPROVAL ( #378, ( #780 ) ) ;
#535 = CARTESIAN_POINT ( 'NONE',  ( 2.540000000000000000, 0.5000000000000000000, 1.000000000000000000 ) ) ;
#536 = DIRECTION ( 'NONE',  ( -0.0000000000000000000, -1.000000000000000000, -0.0000000000000000000 ) ) ;
#537 = EDGE_CURVE ( 'NONE', #865, #929, #194, .T. ) ;
#538 = LOCAL_TIME ( 22, 19, 33.00000000000000000, #946 ) ;
#539 = LINE ( 'NONE', #626, #712 ) ;
#540 = LINE ( 'NONE', #284, #444 ) ;
#541 = ADVANCED_FACE ( 'NONE', ( #356 ), #903, .F. ) ;
#542 = ORIENTED_EDGE ( 'NONE', *, *, #103, .F. ) ;
#543 = DIRECTION ( 'NONE',  ( -0.0000000000000000000, 0.0000000000000000000, 1.000000000000000000 ) ) ;
#544 = DIRECTION ( 'NONE',  ( -0.0000000000000000000, -1.000000000000000000, -0.0000000000000000000 ) ) ;
#545 = PRODUCT ( '天线弹针模拟', '天线弹针模拟', '', ( #96 ) ) ;
#546 = AXIS2_PLACEMENT_3D ( 'NONE', #148, #312, #157 ) ;
#547 = CARTESIAN_POINT ( 'NONE',  ( 2.540000000000000000, 0.0000000000000000000, -0.5999999999999998700 ) ) ;
#548 = CARTESIAN_POINT ( 'NONE',  ( -1.299999999999999800, 0.5000000000000000000, -0.9500000000000018400 ) ) ;
#549 = CARTESIAN_POINT ( 'NONE',  ( 2.540000000000000000, -6.123233995736767300E-017, 0.0000000000000000000 ) ) ;
#550 = LOCAL_TIME ( 22, 19, 33.00000000000000000, #710 ) ;
#551 = AXIS2_PLACEMENT_3D ( 'NONE', #563, #560, #631 ) ;
#552 = CIRCLE ( 'NONE', #791, 0.7500000000000000000 ) ;
#553 = VECTOR ( 'NONE', #323, 1000.000000000000000 ) ;
#554 = PLANE ( 'NONE',  #520 ) ;
#555 = ORIENTED_EDGE ( 'NONE', *, *, #175, .F. ) ;
#556 = DIRECTION ( 'NONE',  ( 0.0000000000000000000, 0.0000000000000000000, -1.000000000000000000 ) ) ;
#557 = ORIENTED_EDGE ( 'NONE', *, *, #669, .T. ) ;
#558 = CARTESIAN_POINT ( 'NONE',  ( 2.540000000000000000, 8.899999999999998600, 0.0000000000000000000 ) ) ;
#559 = ORIENTED_EDGE ( 'NONE', *, *, #588, .T. ) ;
#560 = DIRECTION ( 'NONE',  ( -0.7071067811865456900, 2.044391222244493400E-016, 0.7071067811865493500 ) ) ;
#561 = EDGE_CURVE ( 'NONE', #190, #166, #145, .T. ) ;
#562 = DIRECTION ( 'NONE',  ( 0.0000000000000000000, 0.0000000000000000000, -1.000000000000000000 ) ) ;
#563 = CARTESIAN_POINT ( 'NONE',  ( 3.840000000000000700, 2.000000000000000000, -0.9500000000000018400 ) ) ;
#564 = PERSON_AND_ORGANIZATION_ROLE ( 'classification_officer' ) ;
#565 = PERSON_AND_ORGANIZATION ( #169, #619 ) ;
#566 = DIRECTION ( 'NONE',  ( 0.0000000000000000000, 0.0000000000000000000, 1.000000000000000000 ) ) ;
#567 = CYLINDRICAL_SURFACE ( 'NONE', #617, 0.5999999999999998700 ) ;
#568 = CIRCLE ( 'NONE', #798, 1.000000000000000000 ) ;
#569 = ORIENTED_EDGE ( 'NONE', *, *, #428, .T. ) ;
#570 = ORIENTED_EDGE ( 'NONE', *, *, #271, .T. ) ;
#571 = APPROVAL_ROLE ( '' ) ;
#572 = AXIS2_PLACEMENT_3D ( 'NONE', #531, #543, #607 ) ;
#573 = DIRECTION ( 'NONE',  ( -0.0000000000000000000, -1.000000000000000000, -0.0000000000000000000 ) ) ;
#574 = CARTESIAN_POINT ( 'NONE',  ( 0.0000000000000000000, 0.0000000000000000000, 0.0000000000000000000 ) ) ;
#575 = VECTOR ( 'NONE', #678, 1000.000000000000100 ) ;
#576 = EDGE_CURVE ( 'NONE', #929, #952, #187, .T. ) ;
#577 = FACE_OUTER_BOUND ( 'NONE', #939, .T. ) ;
#578 = DIRECTION ( 'NONE',  ( -0.0000000000000000000, -1.000000000000000000, -0.0000000000000000000 ) ) ;
#579 = ORIENTED_EDGE ( 'NONE', *, *, #436, .F. ) ;
#580 = ORIENTED_EDGE ( 'NONE', *, *, #62, .F. ) ;
#581 = ORIENTED_EDGE ( 'NONE', *, *, #354, .T. ) ;
#582 = DIRECTION ( 'NONE',  ( -2.891205793294678300E-016, -1.000000000000000000, 0.0000000000000000000 ) ) ;
#583 = DIRECTION ( 'NONE',  ( 0.0000000000000000000, 0.0000000000000000000, -1.000000000000000000 ) ) ;
#584 = AXIS2_PLACEMENT_3D ( 'NONE', #60, #50, #971 ) ;
#585 = CARTESIAN_POINT ( 'NONE',  ( 0.0000000000000000000, 0.0000000000000000000, 0.0000000000000000000 ) ) ;
#586 = CYLINDRICAL_SURFACE ( 'NONE', #40, 0.7500000000000000000 ) ;
#587 = VECTOR ( 'NONE', #660, 1000.000000000000000 ) ;
#588 = EDGE_CURVE ( 'NONE', #35, #18, #384, .T. ) ;
#589 = VERTEX_POINT ( 'NONE', #255 ) ;
#590 = CARTESIAN_POINT ( 'NONE',  ( 2.540000000000000000, 6.000000000000000000, 0.5999999999999999800 ) ) ;
#591 = ORIENTED_EDGE ( 'NONE', *, *, #298, .F. ) ;
#592 = DIRECTION ( 'NONE',  ( 1.000000000000000000, 0.0000000000000000000, 0.0000000000000000000 ) ) ;
#593 = CARTESIAN_POINT ( 'NONE',  ( 3.539999999999999600, 0.5000000000000000000, -1.250000000000000000 ) ) ;
#594 = CARTESIAN_POINT ( 'NONE',  ( 0.0000000000000000000, 8.899999999999998600, -0.5999999999999998700 ) ) ;
#595 = LOCAL_TIME ( 22, 19, 33.00000000000000000, #741 ) ;
#596 = LINE ( 'NONE', #184, #662 ) ;
#597 = VECTOR ( 'NONE', #638, 1000.000000000000000 ) ;
#598 = CARTESIAN_POINT ( 'NONE',  ( 9.184850993605149700E-017, 2.000000000000000000, 0.7500000000000000000 ) ) ;
#599 = ORIENTED_EDGE ( 'NONE', *, *, #944, .F. ) ;
#600 = ORIENTED_EDGE ( 'NONE', *, *, #352, .T. ) ;
#601 = AXIS2_PLACEMENT_3D ( 'NONE', #230, #171, #926 ) ;
#602 = ORIENTED_EDGE ( 'NONE', *, *, #131, .T. ) ;
#603 = DIRECTION ( 'NONE',  ( -0.0000000000000000000, -1.000000000000000000, -0.0000000000000000000 ) ) ;
#604 = DIRECTION ( 'NONE',  ( 0.0000000000000000000, 0.0000000000000000000, -1.000000000000000000 ) ) ;
#605 = EDGE_CURVE ( 'NONE', #210, #133, #337, .T. ) ;
#606 = CARTESIAN_POINT ( 'NONE',  ( 7.347880794884117800E-017, 0.0000000000000000000, 0.5999999999999998700 ) ) ;
#607 = DIRECTION ( 'NONE',  ( 1.000000000000000000, 0.0000000000000000000, 0.0000000000000000000 ) ) ;
#608 = CYLINDRICAL_SURFACE ( 'NONE', #546, 0.7500000000000000000 ) ;
#609 = FACE_OUTER_BOUND ( 'NONE', #786, .T. ) ;
#610 = FACE_OUTER_BOUND ( 'NONE', #715, .T. ) ;
#611 = ORIENTED_EDGE ( 'NONE', *, *, #90, .F. ) ;
#612 = EDGE_CURVE ( 'NONE', #35, #624, #902, .T. ) ;
#613 = DIRECTION ( 'NONE',  ( -0.0000000000000000000, -1.000000000000000000, -0.0000000000000000000 ) ) ;
#614 = VERTEX_POINT ( 'NONE', #88 ) ;
#615 = DIRECTION ( 'NONE',  ( -0.0000000000000000000, -1.000000000000000000, -0.0000000000000000000 ) ) ;
#616 = CARTESIAN_POINT ( 'NONE',  ( 3.539999999999999600, 0.5000000000000000000, 1.250000000000000000 ) ) ;
#617 = AXIS2_PLACEMENT_3D ( 'NONE', #266, #434, #118 ) ;
#618 = PRODUCT_DEFINITION_SHAPE ( 'NONE', 'NONE',  #780 ) ;
#619 = ORGANIZATION ( '未指定', '未指定', '' ) ;
#620 = LINE ( 'NONE', #394, #801 ) ;
#621 = DIRECTION ( 'NONE',  ( -1.000000000000000000, -0.0000000000000000000, -0.0000000000000000000 ) ) ;
#622 = CIRCLE ( 'NONE', #34, 1.000000000000000000 ) ;
#623 = ORIENTED_EDGE ( 'NONE', *, *, #874, .T. ) ;
#624 = VERTEX_POINT ( 'NONE', #338 ) ;
#625 = EDGE_LOOP ( 'NONE', ( #165, #26 ) ) ;
#626 = CARTESIAN_POINT ( 'NONE',  ( 0.0000000000000000000, 0.0000000000000000000, -0.5999999999999998700 ) ) ;
#627 = EDGE_CURVE ( 'NONE', #916, #952, #400, .T. ) ;
#628 = DIRECTION ( 'NONE',  ( 0.0000000000000000000, 0.0000000000000000000, -1.000000000000000000 ) ) ;
#629 = DIRECTION ( 'NONE',  ( -1.000000000000000000, 2.891205793294678300E-016, 0.0000000000000000000 ) ) ;
#630 = DIRECTION ( 'NONE',  ( 0.0000000000000000000, 0.0000000000000000000, -1.000000000000000000 ) ) ;
#631 = DIRECTION ( 'NONE',  ( 2.891205793294678300E-016, 1.000000000000000000, 0.0000000000000000000 ) ) ;
#632 = AXIS2_PLACEMENT_3D ( 'NONE', #239, #399, #9 ) ;
#633 = VECTOR ( 'NONE', #270, 1000.000000000000000 ) ;
#634 = LINE ( 'NONE', #111, #431 ) ;
#635 = ADVANCED_FACE ( 'NONE', ( #609 ), #370, .T. ) ;
#636 = VECTOR ( 'NONE', #484, 1000.000000000000000 ) ;
#637 = ORIENTED_EDGE ( 'NONE', *, *, #605, .F. ) ;
#638 = DIRECTION ( 'NONE',  ( -0.0000000000000000000, -1.000000000000000000, -0.0000000000000000000 ) ) ;
#639 = ORIENTED_EDGE ( 'NONE', *, *, #425, .F. ) ;
#640 = DIRECTION ( 'NONE',  ( -0.0000000000000000000, -0.0000000000000000000, -1.000000000000000000 ) ) ;
#641 = EDGE_CURVE ( 'NONE', #296, #841, #162, .T. ) ;
#642 = DIRECTION ( 'NONE',  ( -0.0000000000000000000, -1.000000000000000000, -0.0000000000000000000 ) ) ;
#643 = DATE_AND_TIME ( #185, #595 ) ;
#644 = VERTEX_POINT ( 'NONE', #181 ) ;
#645 = AXIS2_PLACEMENT_3D ( 'NONE', #228, #758, #302 ) ;
#646 = EDGE_LOOP ( 'NONE', ( #879, #897, #722, #377 ) ) ;
#647 = ORIENTED_EDGE ( 'NONE', *, *, #820, .F. ) ;
#648 = ORIENTED_EDGE ( 'NONE', *, *, #454, .T. ) ;
#649 = AXIS2_PLACEMENT_3D ( 'NONE', #229, #153, #215 ) ;
#650 = DIRECTION ( 'NONE',  ( 1.000000000000000000, 0.0000000000000000000, 0.0000000000000000000 ) ) ;
#651 = VECTOR ( 'NONE', #54, 1000.000000000000000 ) ;
#652 = EDGE_CURVE ( 'NONE', #8, #701, #105, .T. ) ;
#653 = CONICAL_SURFACE ( 'NONE', #870, 0.5999999999999999800, 0.7853981633974516100 ) ;
#654 = ADVANCED_BREP_SHAPE_REPRESENTATION ( '天线弹针模拟', ( #499, #842 ), #956 ) ;
#655 = VECTOR ( 'NONE', #753, 1000.000000000000100 ) ;
#656 = CARTESIAN_POINT ( 'NONE',  ( 3.540000000000000000, -1.023486850826316200E-015, 1.250000000000000000 ) ) ;
#657 = ORIENTED_EDGE ( 'NONE', *, *, #261, .F. ) ;
#658 = ORIENTED_EDGE ( 'NONE', *, *, #156, .F. ) ;
#659 = ORIENTED_EDGE ( 'NONE', *, *, #881, .T. ) ;
#660 = DIRECTION ( 'NONE',  ( -1.445602896647339200E-016, 1.000000000000000000, 0.0000000000000000000 ) ) ;
#661 = CARTESIAN_POINT ( 'NONE',  ( 0.0000000000000000000, -1.224646799147353500E-016, 0.0000000000000000000 ) ) ;
#662 = VECTOR ( 'NONE', #642, 1000.000000000000000 ) ;
#663 = ORIENTED_EDGE ( 'NONE', *, *, #627, .F. ) ;
#664 = AXIS2_PLACEMENT_3D ( 'NONE', #558, #711, #562 ) ;
#665 = EDGE_LOOP ( 'NONE', ( #307, #637, #817, #965 ) ) ;
#666 = ORIENTED_EDGE ( 'NONE', *, *, #881, .F. ) ;
#667 = DIRECTION ( 'NONE',  ( 1.000000000000000000, 0.0000000000000000000, 0.0000000000000000000 ) ) ;
#668 = CARTESIAN_POINT ( 'NONE',  ( 2.540000000000000000, 2.000000000000000000, 0.0000000000000000000 ) ) ;
#669 = EDGE_CURVE ( 'NONE', #133, #932, #128, .T. ) ;
#670 = DIRECTION ( 'NONE',  ( 2.891205793294678300E-016, 1.000000000000000000, 0.0000000000000000000 ) ) ;
#671 = DIRECTION ( 'NONE',  ( -2.891205793294678300E-016, -1.000000000000000000, 0.0000000000000000000 ) ) ;
#672 = VECTOR ( 'NONE', #613, 1000.000000000000000 ) ;
#673 = LINE ( 'NONE', #500, #478 ) ;
#674 = DIRECTION ( 'NONE',  ( -0.0000000000000000000, -1.000000000000000000, -0.0000000000000000000 ) ) ;
#675 = ORIENTED_EDGE ( 'NONE', *, *, #834, .F. ) ;
#676 = ORIENTED_EDGE ( 'NONE', *, *, #790, .T. ) ;
#677 = ORIENTED_EDGE ( 'NONE', *, *, #138, .T. ) ;
#678 = DIRECTION ( 'NONE',  ( -0.7071067811865495700, -0.0000000000000000000, 0.7071067811865455700 ) ) ;
#679 = EDGE_LOOP ( 'NONE', ( #357, #359, #864, #806 ) ) ;
#680 = DIRECTION ( 'NONE',  ( -0.7071067811865496800, -1.022195611122252500E-016, 0.7071067811865454600 ) ) ;
#681 = CARTESIAN_POINT ( 'NONE',  ( -1.299999999999999800, 0.5000000000000000000, 1.250000000000000000 ) ) ;
#682 = EDGE_CURVE ( 'NONE', #964, #701, #937, .T. ) ;
#683 = CARTESIAN_POINT ( 'NONE',  ( -0.9999999999999997800, 0.5000000000000000000, 1.250000000000000000 ) ) ;
#684 = CIRCLE ( 'NONE', #69, 0.5999999999999998700 ) ;
#685 = VERTEX_POINT ( 'NONE', #344 ) ;
#686 = ADVANCED_FACE ( 'NONE', ( #505 ), #422, .F. ) ;
#687 = ORIENTED_EDGE ( 'NONE', *, *, #45, .T. ) ;
#688 = DIRECTION ( 'NONE',  ( -0.0000000000000000000, -1.000000000000000000, -0.0000000000000000000 ) ) ;
#689 = CARTESIAN_POINT ( 'NONE',  ( 3.840000000000000300, 0.5000000000000000000, -0.9500000000000018400 ) ) ;
#690 = VERTEX_POINT ( 'NONE', #27 ) ;
#691 = CARTESIAN_POINT ( 'NONE',  ( -1.300000000000000000, 2.000000000000000000, 0.9499999999999984000 ) ) ;
#692 = CARTESIAN_POINT ( 'NONE',  ( -1.300000000000000000, 2.000000000000000000, -1.250000000000000000 ) ) ;
#693 = ADVANCED_FACE ( 'NONE', ( #528 ), #890, .T. ) ;
#694 = DIRECTION ( 'NONE',  ( 0.7071067811865495700, -0.0000000000000000000, -0.7071067811865455700 ) ) ;
#695 = DIRECTION ( 'NONE',  ( -0.0000000000000000000, -1.000000000000000000, -0.0000000000000000000 ) ) ;
#696 = AXIS2_PLACEMENT_3D ( 'NONE', #656, #382, #671 ) ;
#697 = APPROVAL_PERSON_ORGANIZATION ( #126, #92, #494 ) ;
#698 = DIRECTION ( 'NONE',  ( 0.0000000000000000000, 0.0000000000000000000, -1.000000000000000000 ) ) ;
#699 = CARTESIAN_POINT ( 'NONE',  ( 3.840000000000000300, 0.5000000000000000000, 0.9500000000000000700 ) ) ;
#700 = LINE ( 'NONE', #464, #506 ) ;
#701 = VERTEX_POINT ( 'NONE', #593 ) ;
#702 = VERTEX_POINT ( 'NONE', #361 ) ;
#703 = CARTESIAN_POINT ( 'NONE',  ( -1.300000000000000000, 0.5000000000000000000, -0.9500000000000017300 ) ) ;
#704 = EDGE_CURVE ( 'NONE', #260, #932, #456, .T. ) ;
#705 = DIRECTION ( 'NONE',  ( 2.891205793294678300E-016, 1.000000000000000000, 0.0000000000000000000 ) ) ;
#706 = ORIENTED_EDGE ( 'NONE', *, *, #512, .F. ) ;
#707 = EDGE_CURVE ( 'NONE', #61, #880, #823, .T. ) ;
#708 = ADVANCED_FACE ( 'NONE', ( #421 ), #276, .T. ) ;
#709 = APPLICATION_PROTOCOL_DEFINITION ( 'international standard', 'config_control_design', 1994, #180 ) ;
#710 = COORDINATED_UNIVERSAL_TIME_OFFSET ( 8, 0, .AHEAD. ) ;
#711 = DIRECTION ( 'NONE',  ( -0.0000000000000000000, -1.000000000000000000, -0.0000000000000000000 ) ) ;
#712 = VECTOR ( 'NONE', #317, 1000.000000000000000 ) ;
#713 = CIRCLE ( 'NONE', #846, 0.7500000000000000000 ) ;
#714 = ORIENTED_EDGE ( 'NONE', *, *, #507, .T. ) ;
#715 = EDGE_LOOP ( 'NONE', ( #448, #676, #770, #968 ) ) ;
#716 = AXIS2_PLACEMENT_3D ( 'NONE', #496, #108, #799 ) ;
#717 = SECURITY_CLASSIFICATION_LEVEL ( 'unclassified' ) ;
#718 = EDGE_CURVE ( 'NONE', #624, #100, #744, .T. ) ;
#719 = CALENDAR_DATE ( 2020, 17, 2 ) ;
#720 = CIRCLE ( 'NONE', #887, 1.000000000000000000 ) ;
#721 = FACE_BOUND ( 'NONE', #625, .T. ) ;
#722 = ORIENTED_EDGE ( 'NONE', *, *, #62, .T. ) ;
#723 = EDGE_LOOP ( 'NONE', ( #279, #515, #433, #647 ) ) ;
#724 = ORIENTED_EDGE ( 'NONE', *, *, #738, .F. ) ;
#725 = EDGE_LOOP ( 'NONE', ( #44, #978, #868, #349, #623 ) ) ;
#726 = ORIENTED_EDGE ( 'NONE', *, *, #682, .F. ) ;
#727 = ADVANCED_FACE ( 'NONE', ( #812 ), #70, .T. ) ;
#728 = DIRECTION ( 'NONE',  ( -0.0000000000000000000, -0.0000000000000000000, -1.000000000000000000 ) ) ;
#729 = CARTESIAN_POINT ( 'NONE',  ( 0.0000000000000000000, 6.000000000000000000, 0.0000000000000000000 ) ) ;
#730 = APPROVAL_PERSON_ORGANIZATION ( #912, #923, #571 ) ;
#731 = EDGE_CURVE ( 'NONE', #929, #880, #244, .T. ) ;
#732 = CIRCLE ( 'NONE', #810, 0.5999999999999998700 ) ;
#733 = CONICAL_SURFACE ( 'NONE', #186, 0.5999999999999999800, 0.7853981633974516100 ) ;
#734 = DIRECTION ( 'NONE',  ( 0.0000000000000000000, 0.0000000000000000000, -1.000000000000000000 ) ) ;
#735 = ORIENTED_EDGE ( 'NONE', *, *, #652, .T. ) ;
#736 = ORIENTED_EDGE ( 'NONE', *, *, #772, .F. ) ;
#737 = DIRECTION ( 'NONE',  ( -0.0000000000000000000, -1.000000000000000000, -0.0000000000000000000 ) ) ;
#738 = EDGE_CURVE ( 'NONE', #954, #941, #262, .T. ) ;
#739 = CARTESIAN_POINT ( 'NONE',  ( -0.9999999999999997800, -1.445602896647338900E-016, -1.250000000000000000 ) ) ;
#740 = AXIS2_PLACEMENT_3D ( 'NONE', #549, #318, #240 ) ;
#741 = COORDINATED_UNIVERSAL_TIME_OFFSET ( 8, 0, .AHEAD. ) ;
#742 = CARTESIAN_POINT ( 'NONE',  ( 2.540000000000000000, 6.000000000000000000, 0.0000000000000000000 ) ) ;
#743 = CARTESIAN_POINT ( 'NONE',  ( -1.300000000000000000, 2.000000000000000000, 0.9499999999999984000 ) ) ;
#744 = LINE ( 'NONE', #516, #257 ) ;
#745 = FACE_OUTER_BOUND ( 'NONE', #268, .T. ) ;
#746 = AXIS2_PLACEMENT_3D ( 'NONE', #440, #522, #366 ) ;
#747 = ORIENTED_EDGE ( 'NONE', *, *, #367, .T. ) ;
#748 = ORIENTED_EDGE ( 'NONE', *, *, #707, .T. ) ;
#749 = EDGE_LOOP ( 'NONE', ( #747, #559, #235, #869 ) ) ;
#750 = VERTEX_POINT ( 'NONE', #594 ) ;
#751 = ADVANCED_FACE ( 'NONE', ( #30 ), #950, .T. ) ;
#752 = EDGE_CURVE ( 'NONE', #702, #107, #475, .T. ) ;
#753 = DIRECTION ( 'NONE',  ( 0.7071067811865454600, 0.0000000000000000000, 0.7071067811865496800 ) ) ;
#754 = DIRECTION ( 'NONE',  ( 0.0000000000000000000, 1.000000000000000000, 0.0000000000000000000 ) ) ;
#755 = DATE_AND_TIME ( #303, #504 ) ;
#756 = LINE ( 'NONE', #395, #411 ) ;
#757 = CARTESIAN_POINT ( 'NONE',  ( 3.840000000000000700, 2.000000000000000000, 0.9500000000000000700 ) ) ;
#758 = DIRECTION ( 'NONE',  ( -0.0000000000000000000, 0.0000000000000000000, 1.000000000000000000 ) ) ;
#759 = VECTOR ( 'NONE', #603, 1000.000000000000000 ) ;
#760 = ORIENTED_EDGE ( 'NONE', *, *, #428, .F. ) ;
#761 = CARTESIAN_POINT ( 'NONE',  ( 2.540000000000000000, 2.000000000000000000, 0.0000000000000000000 ) ) ;
#762 = DIRECTION ( 'NONE',  ( -0.0000000000000000000, -1.000000000000000000, -0.0000000000000000000 ) ) ;
#763 = ADVANCED_FACE ( 'NONE', ( #430, #962, #410 ), #453, .F. ) ;
#764 = CARTESIAN_POINT ( 'NONE',  ( 2.540000000000000000, 8.899999999999996800, 0.0000000000000000000 ) ) ;
#765 = AXIS2_PLACEMENT_3D ( 'NONE', #501, #200, #873 ) ;
#766 = CARTESIAN_POINT ( 'NONE',  ( 2.540000000000000000, 6.000000000000000000, 0.0000000000000000000 ) ) ;
#767 = CARTESIAN_POINT ( 'NONE',  ( 2.540000000000000000, 8.899999999999998600, 0.5999999999999998700 ) ) ;
#768 = CIRCLE ( 'NONE', #959, 1.000000000000000000 ) ;
#769 = VECTOR ( 'NONE', #46, 1000.000000000000000 ) ;
#770 = ORIENTED_EDGE ( 'NONE', *, *, #641, .T. ) ;
#771 = DIRECTION ( 'NONE',  ( 0.0000000000000000000, 0.0000000000000000000, -1.000000000000000000 ) ) ;
#772 = EDGE_CURVE ( 'NONE', #816, #249, #720, .T. ) ;
#773 = VERTEX_POINT ( 'NONE', #137 ) ;
#774 = DIRECTION ( 'NONE',  ( 0.0000000000000000000, 0.0000000000000000000, -1.000000000000000000 ) ) ;
#775 = DIRECTION ( 'NONE',  ( -0.0000000000000000000, -1.000000000000000000, -0.0000000000000000000 ) ) ;
#776 = ORIENTED_EDGE ( 'NONE', *, *, #652, .F. ) ;
#777 = CARTESIAN_POINT ( 'NONE',  ( 2.540000000000000000, 8.899999999999996800, 0.0000000000000000000 ) ) ;
#778 = CARTESIAN_POINT ( 'NONE',  ( 3.540000000000000500, 2.000000000000000000, 1.250000000000000000 ) ) ;
#779 = AXIS2_PLACEMENT_3D ( 'NONE', #379, #674, #219 ) ;
#780 = PRODUCT_DEFINITION ( '未知', '', #935, #94 ) ;
#781 = LINE ( 'NONE', #778, #233 ) ;
#782 = CARTESIAN_POINT ( 'NONE',  ( 0.0000000000000000000, 8.899999999999996800, 0.0000000000000000000 ) ) ;
#783 = PERSON_AND_ORGANIZATION_ROLE ( 'design_owner' ) ;
#784 = SPHERICAL_SURFACE ( 'NONE', #140, 0.6000000000000015300 ) ;
#785 = LINE ( 'NONE', #739, #587 ) ;
#786 = EDGE_LOOP ( 'NONE', ( #473, #714, #724, #760, #581 ) ) ;
#787 = EDGE_CURVE ( 'NONE', #25, #690, #369, .T. ) ;
#788 = DIRECTION ( 'NONE',  ( 1.000000000000000000, 0.0000000000000000000, 0.0000000000000000000 ) ) ;
#789 = CARTESIAN_POINT ( 'NONE',  ( 0.0000000000000000000, 0.5000000000000000000, 0.0000000000000000000 ) ) ;
#790 = EDGE_CURVE ( 'NONE', #309, #296, #768, .T. ) ;
#791 = AXIS2_PLACEMENT_3D ( 'NONE', #900, #315, #628 ) ;
#792 = CYLINDRICAL_SURFACE ( 'NONE', #141, 0.5999999999999998700 ) ;
#793 = LINE ( 'NONE', #848, #824 ) ;
#794 = ORIENTED_EDGE ( 'NONE', *, *, #32, .F. ) ;
#795 = CARTESIAN_POINT ( 'NONE',  ( 3.540000000000000000, -1.023486850826316200E-015, -1.250000000000000000 ) ) ;
#796 = EDGE_LOOP ( 'NONE', ( #435, #164, #648, #569, #497 ) ) ;
#797 = ORIENTED_EDGE ( 'NONE', *, *, #383, .T. ) ;
#798 = AXIS2_PLACEMENT_3D ( 'NONE', #199, #205, #526 ) ;
#799 = DIRECTION ( 'NONE',  ( 1.000000000000000000, 0.0000000000000000000, -1.224646799147353200E-016 ) ) ;
#800 = EDGE_CURVE ( 'NONE', #166, #816, #347, .T. ) ;
#801 = VECTOR ( 'NONE', #845, 1000.000000000000100 ) ;
#802 = LINE ( 'NONE', #547, #553 ) ;
#803 = LINE ( 'NONE', #329, #851 ) ;
#804 = VERTEX_POINT ( 'NONE', #287 ) ;
#805 = ORIENTED_EDGE ( 'NONE', *, *, #561, .F. ) ;
#806 = ORIENTED_EDGE ( 'NONE', *, *, #454, .F. ) ;
#807 = CARTESIAN_POINT ( 'NONE',  ( -0.9999999999999997800, 0.5000000000000000000, 1.250000000000000000 ) ) ;
#808 = DIRECTION ( 'NONE',  ( 1.000000000000000000, 0.0000000000000000000, 0.0000000000000000000 ) ) ;
#809 = DIRECTION ( 'NONE',  ( 8.659560562354961200E-017, -0.7071067811865452400, 0.7071067811865499000 ) ) ;
#810 = AXIS2_PLACEMENT_3D ( 'NONE', #345, #578, #331 ) ;
#811 = ADVANCED_FACE ( 'NONE', ( #160 ), #467, .T. ) ;
#812 = FACE_OUTER_BOUND ( 'NONE', #796, .T. ) ;
#813 = LINE ( 'NONE', #381, #759 ) ;
#814 = DIRECTION ( 'NONE',  ( 0.0000000000000000000, 0.0000000000000000000, -1.000000000000000000 ) ) ;
#815 = DIRECTION ( 'NONE',  ( 0.0000000000000000000, 0.0000000000000000000, -1.000000000000000000 ) ) ;
#816 = VERTEX_POINT ( 'NONE', #52 ) ;
#817 = ORIENTED_EDGE ( 'NONE', *, *, #332, .F. ) ;
#818 = ADVANCED_FACE ( 'NONE', ( #55 ), #822, .T. ) ;
#819 = DIRECTION ( 'NONE',  ( 0.0000000000000000000, 0.0000000000000000000, 1.000000000000000000 ) ) ;
#820 = EDGE_CURVE ( 'NONE', #190, #249, #207, .T. ) ;
#821 = DIRECTION ( 'NONE',  ( 0.0000000000000000000, 0.0000000000000000000, -1.000000000000000000 ) ) ;
#822 = PLANE ( 'NONE',  #645 ) ;
#823 = CIRCLE ( 'NONE', #466, 0.5999999999999999800 ) ;
#824 = VECTOR ( 'NONE', #470, 1000.000000000000000 ) ;
#825 = AXIS2_PLACEMENT_3D ( 'NONE', #115, #960, #592 ) ;
#826 = FACE_OUTER_BOUND ( 'NONE', #832, .T. ) ;
#827 = AXIS2_PLACEMENT_3D ( 'NONE', #67, #615, #306 ) ;
#828 = ORIENTED_EDGE ( 'NONE', *, *, #314, .T. ) ;
#829 = CARTESIAN_POINT ( 'NONE',  ( 2.540000000000000000, 5.850000000000001400, 0.7500000000000000000 ) ) ;
#830 = ORIENTED_EDGE ( 'NONE', *, *, #874, .F. ) ;
#831 = CARTESIAN_POINT ( 'NONE',  ( 0.0000000000000000000, 0.5000000000000000000, -1.000000000000000000 ) ) ;
#832 = EDGE_LOOP ( 'NONE', ( #6, #251, #325, #211 ) ) ;
#833 = CARTESIAN_POINT ( 'NONE',  ( 0.0000000000000000000, 0.0000000000000000000, -1.000000000000000000 ) ) ;
#834 = EDGE_CURVE ( 'NONE', #979, #905, #4, .T. ) ;
#835 = PLANE ( 'NONE',  #308 ) ;
#836 = EDGE_CURVE ( 'NONE', #483, #374, #849, .T. ) ;
#837 = CARTESIAN_POINT ( 'NONE',  ( 2.540000000000000000, 5.850000000000001400, -0.7500000000000000000 ) ) ;
#838 = CIRCLE ( 'NONE', #928, 0.5999999999999999800 ) ;
#839 = DIRECTION ( 'NONE',  ( -0.0000000000000000000, -1.000000000000000000, -0.0000000000000000000 ) ) ;
#840 = ORIENTED_EDGE ( 'NONE', *, *, #790, .F. ) ;
#841 = VERTEX_POINT ( 'NONE', #451 ) ;
#842 = AXIS2_PLACEMENT_3D ( 'NONE', #477, #101, #788 ) ;
#843 = DIRECTION ( 'NONE',  ( 0.0000000000000000000, 0.0000000000000000000, -1.000000000000000000 ) ) ;
#844 = DIRECTION ( 'NONE',  ( -0.0000000000000000000, -1.000000000000000000, -0.0000000000000000000 ) ) ;
#845 = DIRECTION ( 'NONE',  ( 0.0000000000000000000, -0.7071067811865452400, -0.7071067811865499000 ) ) ;
#846 = AXIS2_PLACEMENT_3D ( 'NONE', #761, #305, #821 ) ;
#847 = DIRECTION ( 'NONE',  ( -2.891205793294678300E-016, -1.000000000000000000, 0.0000000000000000000 ) ) ;
#848 = CARTESIAN_POINT ( 'NONE',  ( 3.840000000000000700, 2.000000000000000000, 1.250000000000000000 ) ) ;
#849 = LINE ( 'NONE', #743, #13 ) ;
#850 = ADVANCED_FACE ( 'NONE', ( #936 ), #319, .T. ) ;
#851 = VECTOR ( 'NONE', #476, 1000.000000000000000 ) ;
#852 = VECTOR ( 'NONE', #513, 1000.000000000000100 ) ;
#853 = CARTESIAN_POINT ( 'NONE',  ( 2.540000000000000000, 0.5000000000000000000, -1.000000000000000000 ) ) ;
#854 = EDGE_CURVE ( 'NONE', #871, #189, #552, .T. ) ;
#855 = APPROVAL_STATUS ( 'not_yet_approved' ) ;
#856 = ORIENTED_EDGE ( 'NONE', *, *, #352, .F. ) ;
#857 = ADVANCED_FACE ( 'NONE', ( #913 ), #380, .F. ) ;
#858 = ADVANCED_FACE ( 'NONE', ( #127 ), #608, .T. ) ;
#859 = DIRECTION ( 'NONE',  ( -2.891205793294678300E-016, -1.000000000000000000, -0.0000000000000000000 ) ) ;
#860 = COORDINATED_UNIVERSAL_TIME_OFFSET ( 8, 0, .AHEAD. ) ;
#861 = LINE ( 'NONE', #692, #193 ) ;
#862 = ORIENTED_EDGE ( 'NONE', *, *, #261, .T. ) ;
#863 = VERTEX_POINT ( 'NONE', #689 ) ;
#864 = ORIENTED_EDGE ( 'NONE', *, *, #354, .F. ) ;
#865 = VERTEX_POINT ( 'NONE', #168 ) ;
#866 = VECTOR ( 'NONE', #573, 1000.000000000000000 ) ;
#867 = CIRCLE ( 'NONE', #401, 0.6000000000000015300 ) ;
#868 = ORIENTED_EDGE ( 'NONE', *, *, #707, .F. ) ;
#869 = ORIENTED_EDGE ( 'NONE', *, *, #718, .F. ) ;
#870 = AXIS2_PLACEMENT_3D ( 'NONE', #766, #688, #556 ) ;
#871 = VERTEX_POINT ( 'NONE', #837 ) ;
#872 = CC_DESIGN_DATE_AND_TIME_ASSIGNMENT ( #755, #254, ( #780 ) ) ;
#873 = DIRECTION ( 'NONE',  ( 0.0000000000000000000, -0.0000000000000000000, 1.000000000000000000 ) ) ;
#874 = EDGE_CURVE ( 'NONE', #589, #865, #684, .T. ) ;
#875 = CARTESIAN_POINT ( 'NONE',  ( 2.540000000000000000, 8.899999999999996800, 0.0000000000000000000 ) ) ;
#876 = CIRCLE ( 'NONE', #502, 1.000000000000000000 ) ;
#877 = LINE ( 'NONE', #590, #258 ) ;
#878 = EDGE_LOOP ( 'NONE', ( #340, #687 ) ) ;
#879 = ORIENTED_EDGE ( 'NONE', *, *, #241, .F. ) ;
#880 = VERTEX_POINT ( 'NONE', #73 ) ;
#881 = EDGE_CURVE ( 'NONE', #61, #871, #620, .T. ) ;
#882 = DIRECTION ( 'NONE',  ( 0.7071067811865493500, -0.0000000000000000000, 0.7071067811865456900 ) ) ;
#883 = DIRECTION ( 'NONE',  ( 0.0000000000000000000, 1.000000000000000000, 0.0000000000000000000 ) ) ;
#884 = CC_DESIGN_PERSON_AND_ORGANIZATION_ASSIGNMENT ( #204, #931, ( #935 ) ) ;
#885 = DIRECTION ( 'NONE',  ( 0.0000000000000000000, -1.000000000000000000, 0.0000000000000000000 ) ) ;
#886 = DIRECTION ( 'NONE',  ( -0.0000000000000000000, 1.000000000000000000, -0.0000000000000000000 ) ) ;
#887 = AXIS2_PLACEMENT_3D ( 'NONE', #216, #213, #299 ) ;
#888 = CYLINDRICAL_SURFACE ( 'NONE', #442, 1.000000000000000000 ) ;
#889 = CC_DESIGN_PERSON_AND_ORGANIZATION_ASSIGNMENT ( #355, #783, ( #545 ) ) ;
#890 = SPHERICAL_SURFACE ( 'NONE', #363, 0.6000000000000015300 ) ;
#891 = DIRECTION ( 'NONE',  ( 0.0000000000000000000, 0.0000000000000000000, -1.000000000000000000 ) ) ;
#892 = ADVANCED_FACE ( 'NONE', ( #527 ), #888, .T. ) ;
#893 = CARTESIAN_POINT ( 'NONE',  ( 1.224646799147353200E-016, 0.0000000000000000000, 1.000000000000000000 ) ) ;
#894 = FACE_OUTER_BOUND ( 'NONE', #646, .T. ) ;
#895 = ORIENTED_EDGE ( 'NONE', *, *, #576, .F. ) ;
#896 = UNCERTAINTY_MEASURE_WITH_UNIT (LENGTH_MEASURE( 1.000000000000000100E-005 ), #245, 'distance_accuracy_value', 'NONE');
#897 = ORIENTED_EDGE ( 'NONE', *, *, #29, .T. ) ;
#898 = PLANE ( 'NONE',  #53 ) ;
#899 = EDGE_CURVE ( 'NONE', #964, #702, #861, .T. ) ;
#900 = CARTESIAN_POINT ( 'NONE',  ( 2.540000000000000000, 5.850000000000001400, 0.0000000000000000000 ) ) ;
#901 = PERSON_AND_ORGANIZATION ( #169, #619 ) ;
#902 = CIRCLE ( 'NONE', #429, 0.7500000000000000000 ) ;
#903 = PLANE ( 'NONE',  #601 ) ;
#904 = FACE_OUTER_BOUND ( 'NONE', #358, .T. ) ;
#905 = VERTEX_POINT ( 'NONE', #10 ) ;
#906 = PLANE ( 'NONE',  #572 ) ;
#907 = CARTESIAN_POINT ( 'NONE',  ( 0.0000000000000000000, 6.000000000000000000, -0.5999999999999999800 ) ) ;
#908 = EDGE_LOOP ( 'NONE', ( #735, #327, #390, #557, #87, #17, #461, #797 ) ) ;
#909 = DIRECTION ( 'NONE',  ( -0.0000000000000000000, -1.000000000000000000, -0.0000000000000000000 ) ) ;
#910 = DIRECTION ( 'NONE',  ( 0.0000000000000000000, 0.0000000000000000000, 1.000000000000000000 ) ) ;
#911 = CARTESIAN_POINT ( 'NONE',  ( 2.540000000000000000, 6.000000000000000000, 0.0000000000000000000 ) ) ;
#912 = PERSON_AND_ORGANIZATION ( #169, #619 ) ;
#913 = FACE_OUTER_BOUND ( 'NONE', #19, .T. ) ;
#914 = EDGE_CURVE ( 'NONE', #100, #18, #220, .T. ) ;
#915 = VECTOR ( 'NONE', #21, 1000.000000000000000 ) ;
#916 = VERTEX_POINT ( 'NONE', #79 ) ;
#917 = ORIENTED_EDGE ( 'NONE', *, *, #407, .T. ) ;
#918 = ORIENTED_EDGE ( 'NONE', *, *, #934, .F. ) ;
#919 = EDGE_LOOP ( 'NONE', ( #24, #450, #76, #542 ) ) ;
#920 = CARTESIAN_POINT ( 'NONE',  ( 3.540000000000000500, 2.000000000000000000, 1.250000000000000200 ) ) ;
#921 = APPROVAL_STATUS ( 'not_yet_approved' ) ;
#922 = AXIS2_PLACEMENT_3D ( 'NONE', #393, #409, #81 ) ;
#923 = APPROVAL ( #855, '未指定' ) ;
#924 = CARTESIAN_POINT ( 'NONE',  ( -1.300000000000000000, 2.000000000000000000, 1.250000000000000000 ) ) ;
#925 = DATE_AND_TIME ( #334, #550 ) ;
#926 = DIRECTION ( 'NONE',  ( 1.445602896647339200E-016, -1.000000000000000000, 0.0000000000000000000 ) ) ;
#927 = FACE_OUTER_BOUND ( 'NONE', #509, .T. ) ;
#928 = AXIS2_PLACEMENT_3D ( 'NONE', #48, #441, #39 ) ;
#929 = VERTEX_POINT ( 'NONE', #767 ) ;
#930 = ORIENTED_EDGE ( 'NONE', *, *, #225, .T. ) ;
#931 = PERSON_AND_ORGANIZATION_ROLE ( 'creator' ) ;
#932 = VERTEX_POINT ( 'NONE', #616 ) ;
#933 = CARTESIAN_POINT ( 'NONE',  ( 2.540000000000000000, 0.0000000000000000000, -1.000000000000000000 ) ) ;
#934 = EDGE_CURVE ( 'NONE', #880, #61, #443, .T. ) ;
#935 = PRODUCT_DEFINITION_FORMATION_WITH_SPECIFIED_SOURCE ( '任何', '', #545, .NOT_KNOWN. ) ;
#936 = FACE_OUTER_BOUND ( 'NONE', #723, .T. ) ;
#937 = LINE ( 'NONE', #795, #321 ) ;
#938 = ORIENTED_EDGE ( 'NONE', *, *, #752, .F. ) ;
#939 = EDGE_LOOP ( 'NONE', ( #658, #529, #599, #675 ) ) ;
#940 = AXIS2_PLACEMENT_3D ( 'NONE', #172, #77, #771 ) ;
#941 = VERTEX_POINT ( 'NONE', #2 ) ;
#942 = EDGE_LOOP ( 'NONE', ( #110, #510, #403, #856 ) ) ;
#943 = DIRECTION ( 'NONE',  ( -0.0000000000000000000, -1.000000000000000000, -0.0000000000000000000 ) ) ;
#944 = EDGE_CURVE ( 'NONE', #905, #690, #104, .T. ) ;
#945 = CARTESIAN_POINT ( 'NONE',  ( -1.299999999999999800, 0.5000000000000000000, 1.250000000000000000 ) ) ;
#946 = COORDINATED_UNIVERSAL_TIME_OFFSET ( 8, 0, .AHEAD. ) ;
#947 = FACE_OUTER_BOUND ( 'NONE', #725, .T. ) ;
#948 = CIRCLE ( 'NONE', #981, 0.7500000000000000000 ) ;
#949 = CARTESIAN_POINT ( 'NONE',  ( 0.0000000000000000000, 0.5000000000000000000, 0.0000000000000000000 ) ) ;
#950 = PLANE ( 'NONE',  #696 ) ;
#951 = ORIENTED_EDGE ( 'NONE', *, *, #314, .F. ) ;
#952 = VERTEX_POINT ( 'NONE', #161 ) ;
#953 = DIRECTION ( 'NONE',  ( 1.000000000000000000, 0.0000000000000000000, 0.0000000000000000000 ) ) ;
#954 = VERTEX_POINT ( 'NONE', #907 ) ;
#955 = CARTESIAN_POINT ( 'NONE',  ( 2.540000000000000000, 0.0000000000000000000, 0.0000000000000000000 ) ) ;
#956 =( GEOMETRIC_REPRESENTATION_CONTEXT ( 3 ) GLOBAL_UNCERTAINTY_ASSIGNED_CONTEXT ( ( #896 ) ) GLOBAL_UNIT_ASSIGNED_CONTEXT ( ( #245, #485, #342 ) ) REPRESENTATION_CONTEXT ( 'NONE', 'WORKASPACE' ) );
#957 = ADVANCED_FACE ( 'NONE', ( #288 ), #792, .T. ) ;
#958 = CARTESIAN_POINT ( 'NONE',  ( 3.673940397442069400E-017, 9.499999999999998200, 0.0000000000000000000 ) ) ;
#959 = AXIS2_PLACEMENT_3D ( 'NONE', #143, #536, #819 ) ;
#960 = DIRECTION ( 'NONE',  ( 0.0000000000000000000, 0.0000000000000000000, 1.000000000000000000 ) ) ;
#961 = DIRECTION ( 'NONE',  ( -0.0000000000000000000, -1.000000000000000000, -0.0000000000000000000 ) ) ;
#962 = FACE_BOUND ( 'NONE', #878, .T. ) ;
#963 = LINE ( 'NONE', #606, #769 ) ;
#964 = VERTEX_POINT ( 'NONE', #154 ) ;
#965 = ORIENTED_EDGE ( 'NONE', *, *, #972, .F. ) ;
#966 = CARTESIAN_POINT ( 'NONE',  ( 3.840000000000000700, 2.000000000000000000, -0.9500000000000018400 ) ) ;
#967 = DIRECTION ( 'NONE',  ( -1.445602896647339200E-016, 1.000000000000000000, 0.0000000000000000000 ) ) ;
#968 = ORIENTED_EDGE ( 'NONE', *, *, #412, .F. ) ;
#969 = EDGE_CURVE ( 'NONE', #189, #238, #596, .T. ) ;
#970 = CARTESIAN_POINT ( 'NONE',  ( -1.000000000000000000, 2.000000000000000000, 1.250000000000000200 ) ) ;
#971 = DIRECTION ( 'NONE',  ( 0.0000000000000000000, 0.0000000000000000000, -1.000000000000000000 ) ) ;
#972 = EDGE_CURVE ( 'NONE', #932, #644, #781, .T. ) ;
#973 = AXIS2_PLACEMENT_3D ( 'NONE', #955, #521, #523 ) ;
#974 = VECTOR ( 'NONE', #650, 1000.000000000000000 ) ;
#975 = CARTESIAN_POINT ( 'NONE',  ( 7.347880794884117800E-017, 6.000000000000000000, 0.5999999999999999800 ) ) ;
#976 = DIRECTION ( 'NONE',  ( 1.224646799147353200E-016, -0.0000000000000000000, 1.000000000000000000 ) ) ;
#977 = LINE ( 'NONE', #129, #339 ) ;
#978 = ORIENTED_EDGE ( 'NONE', *, *, #731, .T. ) ;
#979 = VERTEX_POINT ( 'NONE', #336 ) ;
#980 = CARTESIAN_POINT ( 'NONE',  ( 2.540000000000000000, 2.000000000000000000, 0.7500000000000000000 ) ) ;
#981 = AXIS2_PLACEMENT_3D ( 'NONE', #668, #886, #449 ) ;
ENDSEC;
END-ISO-10303-21;
