ISO-10303-21;
HEADER;
FILE_DESCRIPTION (( 'STEP AP203' ),
    '1' );
FILE_NAME ('2PIN-6.STEP',
    '2020-11-09T03:48:30',
    ( 'adu' ),
    ( '' ),
    'SwSTEP 2.0',
    'SolidWorks 2018',
    '' );
FILE_SCHEMA (( 'CONFIG_CONTROL_DESIGN' ));
ENDSEC;

DATA;
#1 = CYLINDRICAL_SURFACE ( 'NONE', #221, 0.6500000000000000222 ) ;
#2 = ORIENTED_EDGE ( 'NONE', *, *, #369, .F. ) ;
#3 = DIRECTION ( 'NONE',  ( -1.000000000000000000, 1.338521200599388187E-16, 0.0000000000000000000 ) ) ;
#4 = ADVANCED_FACE ( 'NONE', ( #147 ), #812, .T. ) ;
#5 = EDGE_LOOP ( 'NONE', ( #469, #364, #43, #482 ) ) ;
#6 = CARTESIAN_POINT ( 'NONE',  ( -4.049999999999999822, -0.9999999999999993339, 0.5000000000000000000 ) ) ;
#7 = DIRECTION ( 'NONE',  ( -1.000000000000000000, 0.0000000000000000000, 0.0000000000000000000 ) ) ;
#8 = CC_DESIGN_DATE_AND_TIME_ASSIGNMENT ( #225, #362, ( #473 ) ) ;
#9 = CARTESIAN_POINT ( 'NONE',  ( 2.250000000000000444, 0.0000000000000000000, 0.4999999999999995559 ) ) ;
#10 = CARTESIAN_POINT ( 'NONE',  ( 3.000000000000000000, 0.0000000000000000000, 6.850000000000000533 ) ) ;
#11 = EDGE_LOOP ( 'NONE', ( #785, #45, #805, #796, #245, #570, #737, #539 ) ) ;
#12 = VERTEX_POINT ( 'NONE', #228 ) ;
#13 = VECTOR ( 'NONE', #324, 1000.000000000000000 ) ;
#14 = AXIS2_PLACEMENT_3D ( 'NONE', #46, #195, #130 ) ;
#15 = DIRECTION ( 'NONE',  ( 0.0000000000000000000, 0.0000000000000000000, 1.000000000000000000 ) ) ;
#16 = DIRECTION ( 'NONE',  ( 0.0000000000000000000, 1.000000000000000000, 0.0000000000000000000 ) ) ;
#17 = ORIENTED_EDGE ( 'NONE', *, *, #619, .T. ) ;
#18 = VERTEX_POINT ( 'NONE', #528 ) ;
#19 = DIRECTION ( 'NONE',  ( -0.0000000000000000000, -0.0000000000000000000, -1.000000000000000000 ) ) ;
#20 = EDGE_CURVE ( 'NONE', #879, #89, #662, .T. ) ;
#21 = CC_DESIGN_PERSON_AND_ORGANIZATION_ASSIGNMENT ( #667, #423, ( #300 ) ) ;
#22 = CARTESIAN_POINT ( 'NONE',  ( -4.249999999999999112, -0.7999999999999993783, 0.5000000000000000000 ) ) ;
#23 = DIRECTION ( 'NONE',  ( 1.000000000000000000, 0.0000000000000000000, -0.0000000000000000000 ) ) ;
#24 = CIRCLE ( 'NONE', #622, 0.7499999999999997780 ) ;
#25 = FACE_BOUND ( 'NONE', #510, .T. ) ;
#26 = CC_DESIGN_PERSON_AND_ORGANIZATION_ASSIGNMENT ( #328, #758, ( #473 ) ) ;
#27 = VERTEX_POINT ( 'NONE', #6 ) ;
#28 = CARTESIAN_POINT ( 'NONE',  ( -3.000000000000000000, 0.0000000000000000000, 6.850000000000000533 ) ) ;
#29 = ORIENTED_EDGE ( 'NONE', *, *, #800, .T. ) ;
#30 = DIRECTION ( 'NONE',  ( 0.0000000000000000000, 0.0000000000000000000, 1.000000000000000000 ) ) ;
#31 = PERSON_AND_ORGANIZATION ( #575, #862 ) ;
#32 = EDGE_CURVE ( 'NONE', #777, #264, #191, .T. ) ;
#33 = DIRECTION ( 'NONE',  ( -0.0000000000000000000, -0.0000000000000000000, -1.000000000000000000 ) ) ;
#34 = DIRECTION ( 'NONE',  ( 1.000000000000000000, 0.0000000000000000000, 0.0000000000000000000 ) ) ;
#35 = DIRECTION ( 'NONE',  ( -0.0000000000000000000, -0.0000000000000000000, -1.000000000000000000 ) ) ;
#36 = EDGE_CURVE ( 'NONE', #340, #347, #554, .T. ) ;
#37 = DIRECTION ( 'NONE',  ( 0.0000000000000000000, 0.0000000000000000000, -1.000000000000000000 ) ) ;
#38 = ORIENTED_EDGE ( 'NONE', *, *, #746, .T. ) ;
#39 = COORDINATED_UNIVERSAL_TIME_OFFSET ( 8, 0, .AHEAD. ) ;
#40 = DIRECTION ( 'NONE',  ( 0.0000000000000000000, 0.0000000000000000000, 1.000000000000000000 ) ) ;
#41 = VECTOR ( 'NONE', #464, 1000.000000000000000 ) ;
#42 = DIRECTION ( 'NONE',  ( -1.000000000000000000, 0.0000000000000000000, 0.0000000000000000000 ) ) ;
#43 = ORIENTED_EDGE ( 'NONE', *, *, #91, .T. ) ;
#44 = EDGE_LOOP ( 'NONE', ( #376, #232, #405, #418 ) ) ;
#45 = ORIENTED_EDGE ( 'NONE', *, *, #383, .F. ) ;
#46 = CARTESIAN_POINT ( 'NONE',  ( 3.000000000000000000, 0.0000000000000000000, 0.0000000000000000000 ) ) ;
#47 = CARTESIAN_POINT ( 'NONE',  ( 4.250000000000000888, 0.8000000000000000444, 2.000000000000000000 ) ) ;
#48 = DATE_AND_TIME ( #188, #378 ) ;
#49 = APPROVAL_DATE_TIME ( #81, #635 ) ;
#50 = EDGE_CURVE ( 'NONE', #148, #509, #285, .T. ) ;
#51 = CARTESIAN_POINT ( 'NONE',  ( -4.249999999999999112, -0.7999999999999993783, 2.000000000000000000 ) ) ;
#52 = CARTESIAN_POINT ( 'NONE',  ( 3.750000000000000000, 9.184850993605147205E-17, 0.4999999999999995559 ) ) ;
#53 = CC_DESIGN_PERSON_AND_ORGANIZATION_ASSIGNMENT ( #236, #280, ( #79 ) ) ;
#54 = DIRECTION ( 'NONE',  ( 0.0000000000000000000, 1.000000000000000000, 0.0000000000000000000 ) ) ;
#55 = DIRECTION ( 'NONE',  ( -0.7071067811865482389, 0.7071067811865469066, 0.0000000000000000000 ) ) ;
#56 = LINE ( 'NONE', #773, #282 ) ;
#57 = CYLINDRICAL_SURFACE ( 'NONE', #513, 0.7499999999999997780 ) ;
#58 = PLANE ( 'NONE',  #310 ) ;
#59 = ORIENTED_EDGE ( 'NONE', *, *, #701, .T. ) ;
#60 = CARTESIAN_POINT ( 'NONE',  ( -3.000000000000000000, 0.0000000000000000000, 6.850000000000000533 ) ) ;
#61 = ADVANCED_FACE ( 'NONE', ( #356 ), #868, .T. ) ;
#62 = AXIS2_PLACEMENT_3D ( 'NONE', #60, #762, #353 ) ;
#63 = ORIENTED_EDGE ( 'NONE', *, *, #50, .F. ) ;
#64 = APPROVAL_ROLE ( '' ) ;
#65 = DIRECTION ( 'NONE',  ( -0.0000000000000000000, -0.0000000000000000000, -1.000000000000000000 ) ) ;
#66 = DIRECTION ( 'NONE',  ( 1.000000000000000000, 0.0000000000000000000, -0.0000000000000000000 ) ) ;
#67 = ORIENTED_EDGE ( 'NONE', *, *, #878, .F. ) ;
#68 = EDGE_CURVE ( 'NONE', #347, #571, #640, .T. ) ;
#69 = APPROVAL_ROLE ( '' ) ;
#70 = FACE_OUTER_BOUND ( 'NONE', #276, .T. ) ;
#71 = VECTOR ( 'NONE', #713, 1000.000000000000000 ) ;
#72 = DIRECTION ( 'NONE',  ( 0.0000000000000000000, 0.0000000000000000000, 1.000000000000000000 ) ) ;
#73 = ADVANCED_FACE ( 'NONE', ( #524 ), #683, .T. ) ;
#74 = LINE ( 'NONE', #515, #653 ) ;
#75 = DIRECTION ( 'NONE',  ( -0.7071067811865469066, -0.7071067811865482389, -0.0000000000000000000 ) ) ;
#76 = ORIENTED_EDGE ( 'NONE', *, *, #742, .T. ) ;
#77 = VERTEX_POINT ( 'NONE', #412 ) ;
#78 = CARTESIAN_POINT ( 'NONE',  ( -3.000000000000000000, 0.0000000000000000000, 7.500000000000000000 ) ) ;
#79 = PRODUCT_DEFINITION_FORMATION_WITH_SPECIFIED_SOURCE ( '任何', '', #582, .NOT_KNOWN. ) ;
#80 = ADVANCED_FACE ( 'NONE', ( #325 ), #58, .T. ) ;
#81 = DATE_AND_TIME ( #127, #140 ) ;
#82 = DIRECTION ( 'NONE',  ( -1.338521200599388187E-16, -1.000000000000000000, 0.0000000000000000000 ) ) ;
#83 = VECTOR ( 'NONE', #408, 1000.000000000000000 ) ;
#84 = EDGE_CURVE ( 'NONE', #138, #27, #309, .T. ) ;
#85 = CARTESIAN_POINT ( 'NONE',  ( 2.250000000000000444, 0.0000000000000000000, 2.000000000000000000 ) ) ;
#86 = FACE_OUTER_BOUND ( 'NONE', #836, .T. ) ;
#87 = CYLINDRICAL_SURFACE ( 'NONE', #734, 0.7499999999999997780 ) ;
#88 = DIRECTION ( 'NONE',  ( -0.0000000000000000000, -0.0000000000000000000, -1.000000000000000000 ) ) ;
#89 = VERTEX_POINT ( 'NONE', #377 ) ;
#90 = DIRECTION ( 'NONE',  ( 0.0000000000000000000, 0.0000000000000000000, 1.000000000000000000 ) ) ;
#91 = EDGE_CURVE ( 'NONE', #509, #148, #262, .T. ) ;
#92 = DIRECTION ( 'NONE',  ( 1.000000000000000000, 0.0000000000000000000, 0.0000000000000000000 ) ) ;
#93 = DIRECTION ( 'NONE',  ( 1.000000000000000000, 0.0000000000000000000, 0.0000000000000000000 ) ) ;
#94 = CARTESIAN_POINT ( 'NONE',  ( 3.649999999999999911, 7.960204194457795477E-17, 7.500000000000000000 ) ) ;
#95 = CARTESIAN_POINT ( 'NONE',  ( 0.0000000000000000000, 0.0000000000000000000, 0.5000000000000000000 ) ) ;
#96 = FACE_BOUND ( 'NONE', #150, .T. ) ;
#97 = ORIENTED_EDGE ( 'NONE', *, *, #369, .T. ) ;
#98 = CARTESIAN_POINT ( 'NONE',  ( -3.000000000000000000, 0.0000000000000000000, 0.4999999999999995559 ) ) ;
#99 = VERTEX_POINT ( 'NONE', #428 ) ;
#100 = COORDINATED_UNIVERSAL_TIME_OFFSET ( 8, 0, .AHEAD. ) ;
#101 = EDGE_CURVE ( 'NONE', #602, #886, #112, .T. ) ;
#102 = DIRECTION ( 'NONE',  ( 0.7071067811865482389, -0.7071067811865469066, 0.0000000000000000000 ) ) ;
#103 = PRODUCT_RELATED_PRODUCT_CATEGORY ( 'detail', '', ( #582 ) ) ;
#104 = DIRECTION ( 'NONE',  ( -0.0000000000000000000, -0.0000000000000000000, 1.000000000000000000 ) ) ;
#105 = DIRECTION ( 'NONE',  ( 1.000000000000000000, 0.0000000000000000000, 0.0000000000000000000 ) ) ;
#106 = ORIENTED_EDGE ( 'NONE', *, *, #549, .F. ) ;
#107 = EDGE_CURVE ( 'NONE', #527, #615, #255, .T. ) ;
#108 = FACE_OUTER_BOUND ( 'NONE', #438, .T. ) ;
#109 = AXIS2_PLACEMENT_3D ( 'NONE', #730, #247, #611 ) ;
#110 = CARTESIAN_POINT ( 'NONE',  ( 3.000000000000000000, 0.0000000000000000000, 5.000000000000000000 ) ) ;
#111 = ORIENTED_EDGE ( 'NONE', *, *, #20, .T. ) ;
#112 = LINE ( 'NONE', #845, #846 ) ;
#113 = ORIENTED_EDGE ( 'NONE', *, *, #558, .T. ) ;
#114 = VERTEX_POINT ( 'NONE', #287 ) ;
#115 = DIRECTION ( 'NONE',  ( 0.0000000000000000000, 0.0000000000000000000, -1.000000000000000000 ) ) ;
#116 = EDGE_LOOP ( 'NONE', ( #877, #794, #536, #500 ) ) ;
#117 = LOCAL_TIME ( 11, 48, 30.00000000000000000, #100 ) ;
#118 = AXIS2_PLACEMENT_3D ( 'NONE', #638, #227, #897 ) ;
#119 = DIRECTION ( 'NONE',  ( 1.000000000000000000, 0.0000000000000000000, 0.0000000000000000000 ) ) ;
#120 = CARTESIAN_POINT ( 'NONE',  ( -3.000000000000000000, 0.0000000000000000000, 6.850000000000000533 ) ) ;
#121 = DIRECTION ( 'NONE',  ( -0.0000000000000000000, -0.0000000000000000000, -1.000000000000000000 ) ) ;
#122 = CIRCLE ( 'NONE', #555, 0.7499999999999997780 ) ;
#123 = ORIENTED_EDGE ( 'NONE', *, *, #36, .T. ) ;
#124 = VERTEX_POINT ( 'NONE', #9 ) ;
#125 = ORIENTED_EDGE ( 'NONE', *, *, #576, .T. ) ;
#126 = EDGE_LOOP ( 'NONE', ( #357, #432, #29, #654 ) ) ;
#127 = CALENDAR_DATE ( 2020, 9, 11 ) ;
#128 = EDGE_CURVE ( 'NONE', #223, #114, #495, .T. ) ;
#129 = AXIS2_PLACEMENT_3D ( 'NONE', #735, #462, #314 ) ;
#130 = DIRECTION ( 'NONE',  ( 1.000000000000000000, 0.0000000000000000000, 0.0000000000000000000 ) ) ;
#131 = DIRECTION ( 'NONE',  ( 0.0000000000000000000, 0.0000000000000000000, 1.000000000000000000 ) ) ;
#132 = VECTOR ( 'NONE', #518, 1000.000000000000000 ) ;
#133 = LINE ( 'NONE', #421, #834 ) ;
#134 = CARTESIAN_POINT ( 'NONE',  ( 3.000000000000000000, 0.0000000000000000000, 6.850000000000000533 ) ) ;
#135 = PLANE ( 'NONE',  #239 ) ;
#136 = EDGE_CURVE ( 'NONE', #872, #594, #74, .T. ) ;
#137 = LINE ( 'NONE', #22, #430 ) ;
#138 = VERTEX_POINT ( 'NONE', #596 ) ;
#139 = APPLICATION_PROTOCOL_DEFINITION ( 'international standard', 'config_control_design', 1994, #270 ) ;
#140 = LOCAL_TIME ( 11, 48, 30.00000000000000000, #530 ) ;
#141 = ADVANCED_FACE ( 'NONE', ( #856 ), #87, .T. ) ;
#142 = CARTESIAN_POINT ( 'NONE',  ( -3.649999999999999911, 0.0000000000000000000, 6.850000000000000533 ) ) ;
#143 = CIRCLE ( 'NONE', #780, 0.7499999999999997780 ) ;
#144 = CARTESIAN_POINT ( 'NONE',  ( -4.249999999999999112, 0.8000000000000004885, 2.000000000000000000 ) ) ;
#145 = ADVANCED_FACE ( 'NONE', ( #824 ), #57, .T. ) ;
#146 = CIRCLE ( 'NONE', #487, 0.6499999999999995781 ) ;
#147 = FACE_OUTER_BOUND ( 'NONE', #44, .T. ) ;
#148 = VERTEX_POINT ( 'NONE', #861 ) ;
#149 = CC_DESIGN_APPROVAL ( #635, ( #473 ) ) ;
#150 = EDGE_LOOP ( 'NONE', ( #896, #174 ) ) ;
#151 = CARTESIAN_POINT ( 'NONE',  ( -3.000000000000000000, 0.0000000000000000000, 2.000000000000000000 ) ) ;
#152 = ADVANCED_FACE ( 'NONE', ( #784 ), #302, .T. ) ;
#153 = APPROVAL_DATE_TIME ( #48, #607 ) ;
#154 = SHAPE_DEFINITION_REPRESENTATION ( #901, #398 ) ;
#155 = CARTESIAN_POINT ( 'NONE',  ( 2.250000000000000444, 0.0000000000000000000, 5.000000000000000000 ) ) ;
#156 = ADVANCED_FACE ( 'NONE', ( #274 ), #230, .T. ) ;
#157 = PLANE ( 'NONE',  #681 ) ;
#158 = DIRECTION ( 'NONE',  ( -1.000000000000000000, 0.0000000000000000000, 0.0000000000000000000 ) ) ;
#159 = VECTOR ( 'NONE', #379, 1000.000000000000000 ) ;
#160 = DIRECTION ( 'NONE',  ( -0.7071067811865469066, 0.7071067811865482389, 0.0000000000000000000 ) ) ;
#161 = CIRCLE ( 'NONE', #361, 0.7499999999999997780 ) ;
#162 = ORIENTED_EDGE ( 'NONE', *, *, #342, .F. ) ;
#163 = ORIENTED_EDGE ( 'NONE', *, *, #831, .T. ) ;
#164 = EDGE_CURVE ( 'NONE', #89, #114, #137, .T. ) ;
#165 = VERTEX_POINT ( 'NONE', #807 ) ;
#166 = ORIENTED_EDGE ( 'NONE', *, *, #415, .T. ) ;
#167 = CARTESIAN_POINT ( 'NONE',  ( -4.249999999999999112, -0.7999999999999993783, 2.000000000000000000 ) ) ;
#168 = EDGE_LOOP ( 'NONE', ( #825, #335, #166, #813 ) ) ;
#169 = AXIS2_PLACEMENT_3D ( 'NONE', #647, #833, #160 ) ;
#170 = DIRECTION ( 'NONE',  ( -0.0000000000000000000, -0.0000000000000000000, -1.000000000000000000 ) ) ;
#171 = LINE ( 'NONE', #381, #294 ) ;
#172 = CARTESIAN_POINT ( 'NONE',  ( -3.000000000000000000, 0.0000000000000000000, 7.500000000000000000 ) ) ;
#173 = LINE ( 'NONE', #476, #475 ) ;
#174 = ORIENTED_EDGE ( 'NONE', *, *, #453, .F. ) ;
#175 = ORIENTED_EDGE ( 'NONE', *, *, #250, .F. ) ;
#176 = DIRECTION ( 'NONE',  ( 1.000000000000000000, -5.421010862427520198E-16, 0.0000000000000000000 ) ) ;
#177 = CLOSED_SHELL ( 'NONE', ( #703, #61, #574, #569, #141, #714, #708, #898, #637, #756, #4, #152, #359, #649, #327, #80, #776, #397, #698, #366, #517, #891, #695, #511, #145, #73, #219, #492, #830, #156 ) ) ;
#178 = EDGE_CURVE ( 'NONE', #340, #777, #457, .T. ) ;
#179 = EDGE_CURVE ( 'NONE', #336, #718, #161, .T. ) ;
#180 = AXIS2_PLACEMENT_3D ( 'NONE', #706, #769, #644 ) ;
#181 = CARTESIAN_POINT ( 'NONE',  ( 3.000000000000000000, 0.0000000000000000000, 0.4999999999999995559 ) ) ;
#182 = FACE_BOUND ( 'NONE', #880, .T. ) ;
#183 = CARTESIAN_POINT ( 'NONE',  ( -3.000000000000000000, 0.0000000000000000000, 6.850000000000000533 ) ) ;
#184 = VERTEX_POINT ( 'NONE', #481 ) ;
#185 = DIRECTION ( 'NONE',  ( 0.0000000000000000000, 1.000000000000000000, 0.0000000000000000000 ) ) ;
#186 = ORIENTED_EDGE ( 'NONE', *, *, #32, .T. ) ;
#187 = EDGE_CURVE ( 'NONE', #609, #486, #749, .T. ) ;
#188 = CALENDAR_DATE ( 2020, 9, 11 ) ;
#189 = DIRECTION ( 'NONE',  ( -1.000000000000000000, 0.0000000000000000000, 0.0000000000000000000 ) ) ;
#190 = CARTESIAN_POINT ( 'NONE',  ( 4.250000000000000000, -0.8000000000000004885, 2.000000000000000000 ) ) ;
#191 = CIRCLE ( 'NONE', #787, 0.6500000000000000222 ) ;
#192 = ORIENTED_EDGE ( 'NONE', *, *, #472, .T. ) ;
#193 = ORIENTED_EDGE ( 'NONE', *, *, #839, .F. ) ;
#194 = AXIS2_PLACEMENT_3D ( 'NONE', #738, #678, #620 ) ;
#195 = DIRECTION ( 'NONE',  ( 0.0000000000000000000, 0.0000000000000000000, 1.000000000000000000 ) ) ;
#196 = ORIENTED_EDGE ( 'NONE', *, *, #231, .T. ) ;
#197 = DIRECTION ( 'NONE',  ( 0.0000000000000000000, 0.0000000000000000000, 1.000000000000000000 ) ) ;
#198 = VECTOR ( 'NONE', #3, 1000.000000000000000 ) ;
#199 = EDGE_CURVE ( 'NONE', #480, #605, #122, .T. ) ;
#200 = EDGE_LOOP ( 'NONE', ( #835, #59, #719, #192, #744, #592, #97, #847 ) ) ;
#201 = DIRECTION ( 'NONE',  ( 0.7071067811865469066, 0.7071067811865482389, 0.0000000000000000000 ) ) ;
#202 = ORIENTED_EDGE ( 'NONE', *, *, #20, .F. ) ;
#203 = VERTEX_POINT ( 'NONE', #893 ) ;
#204 = CYLINDRICAL_SURFACE ( 'NONE', #208, 0.7499999999999997780 ) ;
#205 = AXIS2_PLACEMENT_3D ( 'NONE', #853, #242, #23 ) ;
#206 = DIRECTION ( 'NONE',  ( -1.000000000000000000, 0.0000000000000000000, 0.0000000000000000000 ) ) ;
#207 = CARTESIAN_POINT ( 'NONE',  ( -3.750000000000000000, 0.0000000000000000000, 5.000000000000000000 ) ) ;
#208 = AXIS2_PLACEMENT_3D ( 'NONE', #332, #121, #214 ) ;
#209 = ORIENTED_EDGE ( 'NONE', *, *, #107, .T. ) ;
#210 = ORIENTED_EDGE ( 'NONE', *, *, #742, .F. ) ;
#211 = ORIENTED_EDGE ( 'NONE', *, *, #472, .F. ) ;
#212 = APPROVAL_STATUS ( 'not_yet_approved' ) ;
#213 = AXIS2_PLACEMENT_3D ( 'NONE', #292, #588, #720 ) ;
#214 = DIRECTION ( 'NONE',  ( -1.000000000000000000, 0.0000000000000000000, 0.0000000000000000000 ) ) ;
#215 = DIRECTION ( 'NONE',  ( 1.000000000000000000, -5.354084802397551886E-17, 0.0000000000000000000 ) ) ;
#216 = DIRECTION ( 'NONE',  ( 1.000000000000000000, 0.0000000000000000000, 0.0000000000000000000 ) ) ;
#217 = CARTESIAN_POINT ( 'NONE',  ( -2.250000000000000444, 9.184850993605147205E-17, 5.000000000000000000 ) ) ;
#218 = LINE ( 'NONE', #650, #198 ) ;
#219 = ADVANCED_FACE ( 'NONE', ( #182, #600 ), #502, .T. ) ;
#220 = ORIENTED_EDGE ( 'NONE', *, *, #641, .T. ) ;
#221 = AXIS2_PLACEMENT_3D ( 'NONE', #78, #375, #7 ) ;
#222 = ORIENTED_EDGE ( 'NONE', *, *, #478, .T. ) ;
#223 = VERTEX_POINT ( 'NONE', #144 ) ;
#224 = LOCAL_TIME ( 11, 48, 30.00000000000000000, #39 ) ;
#225 = DATE_AND_TIME ( #248, #446 ) ;
#226 = AXIS2_PLACEMENT_3D ( 'NONE', #699, #814, #206 ) ;
#227 = DIRECTION ( 'NONE',  ( 0.0000000000000000000, 0.0000000000000000000, -1.000000000000000000 ) ) ;
#228 = CARTESIAN_POINT ( 'NONE',  ( 4.250000000000000888, 0.8000000000000000444, 0.5000000000000000000 ) ) ;
#229 = DIRECTION ( 'NONE',  ( -1.000000000000000000, 0.0000000000000000000, 0.0000000000000000000 ) ) ;
#230 = SPHERICAL_SURFACE ( 'NONE', #564, 0.6500000000000000222 ) ;
#231 = EDGE_CURVE ( 'NONE', #99, #360, #885, .T. ) ;
#232 = ORIENTED_EDGE ( 'NONE', *, *, #296, .T. ) ;
#233 = CARTESIAN_POINT ( 'NONE',  ( 4.250000000000000000, -0.8000000000000004885, 0.5000000000000000000 ) ) ;
#234 = EDGE_LOOP ( 'NONE', ( #581, #792 ) ) ;
#235 = DIRECTION ( 'NONE',  ( -1.000000000000000000, 0.0000000000000000000, 0.0000000000000000000 ) ) ;
#236 = PERSON_AND_ORGANIZATION ( #575, #862 ) ;
#237 = CARTESIAN_POINT ( 'NONE',  ( 4.050000000000000711, -1.000000000000000444, 2.000000000000000000 ) ) ;
#238 = DIRECTION ( 'NONE',  ( 0.0000000000000000000, 1.000000000000000000, 0.0000000000000000000 ) ) ;
#239 = AXIS2_PLACEMENT_3D ( 'NONE', #626, #55, #271 ) ;
#240 = PLANE ( 'NONE',  #553 ) ;
#241 = LINE ( 'NONE', #94, #772 ) ;
#242 = DIRECTION ( 'NONE',  ( 0.0000000000000000000, 0.0000000000000000000, 1.000000000000000000 ) ) ;
#243 = ORIENTED_EDGE ( 'NONE', *, *, #747, .F. ) ;
#244 = CARTESIAN_POINT ( 'NONE',  ( 3.000000000000000000, 0.0000000000000000000, 0.0000000000000000000 ) ) ;
#245 = ORIENTED_EDGE ( 'NONE', *, *, #831, .F. ) ;
#246 = EDGE_CURVE ( 'NONE', #605, #480, #253, .T. ) ;
#247 = DIRECTION ( 'NONE',  ( 5.354084802397551269E-17, 1.000000000000000000, 0.0000000000000000000 ) ) ;
#248 = CALENDAR_DATE ( 2020, 9, 11 ) ;
#249 = DIRECTION ( 'NONE',  ( -0.0000000000000000000, -0.0000000000000000000, -1.000000000000000000 ) ) ;
#250 = EDGE_CURVE ( 'NONE', #527, #18, #672, .T. ) ;
#251 = AXIS2_PLACEMENT_3D ( 'NONE', #874, #483, #66 ) ;
#252 = DIRECTION ( 'NONE',  ( 0.0000000000000000000, 0.0000000000000000000, 1.000000000000000000 ) ) ;
#253 = CIRCLE ( 'NONE', #613, 0.7499999999999997780 ) ;
#254 = CARTESIAN_POINT ( 'NONE',  ( 2.350000000000000089, 0.0000000000000000000, 7.500000000000000000 ) ) ;
#255 = CIRCLE ( 'NONE', #697, 0.7499999999999997780 ) ;
#256 = PLANE ( 'NONE',  #251 ) ;
#257 = ORIENTED_EDGE ( 'NONE', *, *, #496, .F. ) ;
#258 = EDGE_LOOP ( 'NONE', ( #2, #685, #731, #38 ) ) ;
#259 = DIRECTION ( 'NONE',  ( -1.000000000000000000, 0.0000000000000000000, 0.0000000000000000000 ) ) ;
#260 = AXIS2_PLACEMENT_3D ( 'NONE', #151, #723, #158 ) ;
#261 = VECTOR ( 'NONE', #721, 999.9999999999998863 ) ;
#262 = CIRCLE ( 'NONE', #260, 0.7499999999999997780 ) ;
#263 = CARTESIAN_POINT ( 'NONE',  ( 2.250000000000000444, 0.0000000000000000000, 5.000000000000000000 ) ) ;
#264 = VERTEX_POINT ( 'NONE', #429 ) ;
#265 = ORIENTED_EDGE ( 'NONE', *, *, #558, .F. ) ;
#266 = EDGE_CURVE ( 'NONE', #336, #99, #535, .T. ) ;
#267 = DIRECTION ( 'NONE',  ( 0.0000000000000000000, 0.0000000000000000000, -1.000000000000000000 ) ) ;
#268 = CIRCLE ( 'NONE', #461, 0.6500000000000000222 ) ;
#269 = CARTESIAN_POINT ( 'NONE',  ( -3.000000000000000000, 0.0000000000000000000, 5.000000000000000000 ) ) ;
#270 = APPLICATION_CONTEXT ( 'configuration controlled 3d designs of mechanical parts and assemblies' ) ;
#271 = DIRECTION ( 'NONE',  ( -0.7071067811865469066, -0.7071067811865482389, 0.0000000000000000000 ) ) ;
#272 = FACE_OUTER_BOUND ( 'NONE', #116, .T. ) ;
#273 = AXIS2_PLACEMENT_3D ( 'NONE', #269, #757, #497 ) ;
#274 = FACE_OUTER_BOUND ( 'NONE', #414, .T. ) ;
#275 = VERTEX_POINT ( 'NONE', #52 ) ;
#276 = EDGE_LOOP ( 'NONE', ( #633, #125, #631, #386 ) ) ;
#277 = ORIENTED_EDGE ( 'NONE', *, *, #348, .T. ) ;
#278 = EDGE_CURVE ( 'NONE', #806, #12, #866, .T. ) ;
#279 = DIRECTION ( 'NONE',  ( 1.000000000000000000, 0.0000000000000000000, 0.0000000000000000000 ) ) ;
#280 = PERSON_AND_ORGANIZATION_ROLE ( 'design_supplier' ) ;
#281 = LINE ( 'NONE', #401, #13 ) ;
#282 = VECTOR ( 'NONE', #215, 1000.000000000000000 ) ;
#283 =( NAMED_UNIT ( * ) PLANE_ANGLE_UNIT ( ) SI_UNIT ( $, .RADIAN. ) );
#284 = CARTESIAN_POINT ( 'NONE',  ( -4.049999999999999822, -0.9999999999999993339, 2.000000000000000000 ) ) ;
#285 = CIRCLE ( 'NONE', #226, 0.7499999999999997780 ) ;
#286 = CARTESIAN_POINT ( 'NONE',  ( 4.050000000000000711, -1.000000000000000444, 2.000000000000000000 ) ) ;
#287 = CARTESIAN_POINT ( 'NONE',  ( -4.249999999999999112, 0.8000000000000004885, 0.5000000000000000000 ) ) ;
#288 = ORIENTED_EDGE ( 'NONE', *, *, #36, .F. ) ;
#289 = PLANE ( 'NONE',  #118 ) ;
#290 = DATE_AND_TIME ( #404, #117 ) ;
#291 = AXIS2_PLACEMENT_3D ( 'NONE', #120, #407, #882 ) ;
#292 = CARTESIAN_POINT ( 'NONE',  ( 3.000000000000000000, 0.0000000000000000000, 7.500000000000000000 ) ) ;
#293 = CARTESIAN_POINT ( 'NONE',  ( 3.000000000000000000, 0.0000000000000000000, 6.850000000000000533 ) ) ;
#294 = VECTOR ( 'NONE', #668, 1000.000000000000000 ) ;
#295 = VECTOR ( 'NONE', #267, 1000.000000000000000 ) ;
#296 = EDGE_CURVE ( 'NONE', #77, #609, #523, .T. ) ;
#297 = VECTOR ( 'NONE', #652, 1000.000000000000000 ) ;
#298 = CARTESIAN_POINT ( 'NONE',  ( -3.000000000000000000, 0.0000000000000000000, 5.000000000000000000 ) ) ;
#299 = CARTESIAN_POINT ( 'NONE',  ( -2.250000000000000444, 9.184850993605147205E-17, 2.000000000000000000 ) ) ;
#300 = SECURITY_CLASSIFICATION ( '', '', #572 ) ;
#301 = ORIENTED_EDGE ( 'NONE', *, *, #91, .F. ) ;
#302 = PLANE ( 'NONE',  #670 ) ;
#303 = ORIENTED_EDGE ( 'NONE', *, *, #709, .T. ) ;
#304 = AXIS2_PLACEMENT_3D ( 'NONE', #391, #252, #105 ) ;
#305 = DIRECTION ( 'NONE',  ( -1.000000000000000000, 0.0000000000000000000, 0.0000000000000000000 ) ) ;
#306 = VECTOR ( 'NONE', #201, 999.9999999999998863 ) ;
#307 = CARTESIAN_POINT ( 'NONE',  ( 3.000000000000000000, 0.0000000000000000000, 6.850000000000000533 ) ) ;
#308 = VECTOR ( 'NONE', #514, 1000.000000000000000 ) ;
#309 = LINE ( 'NONE', #775, #467 ) ;
#310 = AXIS2_PLACEMENT_3D ( 'NONE', #567, #42, #197 ) ;
#311 = ORIENTED_EDGE ( 'NONE', *, *, #889, .T. ) ;
#312 = DIRECTION ( 'NONE',  ( -0.0000000000000000000, -0.0000000000000000000, -1.000000000000000000 ) ) ;
#313 = VERTEX_POINT ( 'NONE', #753 ) ;
#314 = DIRECTION ( 'NONE',  ( 1.000000000000000000, 0.0000000000000000000, 0.0000000000000000000 ) ) ;
#315 = CARTESIAN_POINT ( 'NONE',  ( -4.249999999999999112, -0.7999999999999993783, 2.000000000000000000 ) ) ;
#316 = DIRECTION ( 'NONE',  ( -1.000000000000000000, 0.0000000000000000000, 0.0000000000000000000 ) ) ;
#317 = EDGE_CURVE ( 'NONE', #165, #12, #477, .T. ) ;
#318 = LINE ( 'NONE', #344, #306 ) ;
#319 = AXIS2_PLACEMENT_3D ( 'NONE', #608, #393, #741 ) ;
#320 = DIRECTION ( 'NONE',  ( 1.000000000000000000, 0.0000000000000000000, 0.0000000000000000000 ) ) ;
#321 = LINE ( 'NONE', #286, #532 ) ;
#322 = LINE ( 'NONE', #577, #782 ) ;
#323 = ORIENTED_EDGE ( 'NONE', *, *, #496, .T. ) ;
#324 = DIRECTION ( 'NONE',  ( -0.0000000000000000000, -0.0000000000000000000, -1.000000000000000000 ) ) ;
#325 = FACE_OUTER_BOUND ( 'NONE', #346, .T. ) ;
#326 = ORIENTED_EDGE ( 'NONE', *, *, #348, .F. ) ;
#327 = ADVANCED_FACE ( 'NONE', ( #556 ), #135, .T. ) ;
#328 = PERSON_AND_ORGANIZATION ( #575, #862 ) ;
#329 = ORIENTED_EDGE ( 'NONE', *, *, #32, .F. ) ;
#330 = CARTESIAN_POINT ( 'NONE',  ( 3.000000000000000000, 0.0000000000000000000, 5.000000000000000000 ) ) ;
#331 = EDGE_CURVE ( 'NONE', #340, #571, #802, .T. ) ;
#332 = CARTESIAN_POINT ( 'NONE',  ( 3.000000000000000000, 0.0000000000000000000, 5.000000000000000000 ) ) ;
#333 = CARTESIAN_POINT ( 'NONE',  ( -2.350000000000000089, 7.960204194457795477E-17, 7.500000000000000000 ) ) ;
#334 = VECTOR ( 'NONE', #629, 999.9999999999998863 ) ;
#335 = ORIENTED_EDGE ( 'NONE', *, *, #101, .F. ) ;
#336 = VERTEX_POINT ( 'NONE', #764 ) ;
#337 = CARTESIAN_POINT ( 'NONE',  ( 4.050000000000000711, -1.000000000000000444, 0.5000000000000000000 ) ) ;
#338 = VERTEX_POINT ( 'NONE', #563 ) ;
#339 = AXIS2_PLACEMENT_3D ( 'NONE', #330, #30, #119 ) ;
#340 = VERTEX_POINT ( 'NONE', #759 ) ;
#341 = DIRECTION ( 'NONE',  ( 1.000000000000000000, 0.0000000000000000000, 0.0000000000000000000 ) ) ;
#342 = EDGE_CURVE ( 'NONE', #114, #594, #133, .T. ) ;
#343 = FACE_BOUND ( 'NONE', #722, .T. ) ;
#344 = CARTESIAN_POINT ( 'NONE',  ( -4.249999999999999112, 0.8000000000000004885, 2.000000000000000000 ) ) ;
#345 = ORIENTED_EDGE ( 'NONE', *, *, #296, .F. ) ;
#346 = EDGE_LOOP ( 'NONE', ( #351, #202, #163, #402 ) ) ;
#347 = VERTEX_POINT ( 'NONE', #142 ) ;
#348 = EDGE_CURVE ( 'NONE', #77, #184, #146, .T. ) ;
#349 = APPROVAL_STATUS ( 'not_yet_approved' ) ;
#350 = APPROVAL_PERSON_ORGANIZATION ( #516, #635, #64 ) ;
#351 = ORIENTED_EDGE ( 'NONE', *, *, #164, .F. ) ;
#352 = EDGE_LOOP ( 'NONE', ( #222, #303 ) ) ;
#353 = DIRECTION ( 'NONE',  ( 0.0000000000000000000, 0.0000000000000000000, -1.000000000000000000 ) ) ;
#354 = FACE_OUTER_BOUND ( 'NONE', #258, .T. ) ;
#355 = AXIS2_PLACEMENT_3D ( 'NONE', #778, #371, #445 ) ;
#356 = FACE_OUTER_BOUND ( 'NONE', #384, .T. ) ;
#357 = ORIENTED_EDGE ( 'NONE', *, *, #701, .F. ) ;
#358 = DIRECTION ( 'NONE',  ( 0.0000000000000000000, 0.0000000000000000000, 1.000000000000000000 ) ) ;
#359 = ADVANCED_FACE ( 'NONE', ( #272 ), #519, .T. ) ;
#360 = VERTEX_POINT ( 'NONE', #367 ) ;
#361 = AXIS2_PLACEMENT_3D ( 'NONE', #403, #104, #259 ) ;
#362 = DATE_TIME_ROLE ( 'creation_date' ) ;
#363 = DIRECTION ( 'NONE',  ( 1.000000000000000000, -1.338521200599388187E-16, 0.0000000000000000000 ) ) ;
#364 = ORIENTED_EDGE ( 'NONE', *, *, #793, .T. ) ;
#365 = CARTESIAN_POINT ( 'NONE',  ( 4.250000000000000000, -0.8000000000000004885, 0.5000000000000000000 ) ) ;
#366 = ADVANCED_FACE ( 'NONE', ( #25, #466, #413 ), #289, .F. ) ;
#367 = CARTESIAN_POINT ( 'NONE',  ( -2.250000000000000444, 9.184850993605147205E-17, 0.0000000000000000000 ) ) ;
#368 = SPHERICAL_SURFACE ( 'NONE', #436, 0.6500000000000000222 ) ;
#369 = EDGE_CURVE ( 'NONE', #594, #165, #56, .T. ) ;
#370 = FACE_OUTER_BOUND ( 'NONE', #168, .T. ) ;
#371 = DIRECTION ( 'NONE',  ( 0.0000000000000000000, 0.0000000000000000000, -1.000000000000000000 ) ) ;
#372 = AXIS2_PLACEMENT_3D ( 'NONE', #307, #601, #93 ) ;
#373 = EDGE_LOOP ( 'NONE', ( #869, #692, #494, #196 ) ) ;
#374 = EDGE_LOOP ( 'NONE', ( #727, #485, #186, #210 ) ) ;
#375 = DIRECTION ( 'NONE',  ( -0.0000000000000000000, -0.0000000000000000000, -1.000000000000000000 ) ) ;
#376 = ORIENTED_EDGE ( 'NONE', *, *, #576, .F. ) ;
#377 = CARTESIAN_POINT ( 'NONE',  ( -4.249999999999999112, -0.7999999999999993783, 0.5000000000000000000 ) ) ;
#378 = LOCAL_TIME ( 11, 48, 30.00000000000000000, #395 ) ;
#379 = DIRECTION ( 'NONE',  ( -1.000000000000000000, 1.338521200599388187E-16, 0.0000000000000000000 ) ) ;
#380 = CARTESIAN_POINT ( 'NONE',  ( 2.350000000000000089, 0.0000000000000000000, 6.850000000000000533 ) ) ;
#381 = CARTESIAN_POINT ( 'NONE',  ( -4.049999999999999822, 1.000000000000000444, 2.000000000000000000 ) ) ;
#382 = CARTESIAN_POINT ( 'NONE',  ( 4.250000000000000000, -0.8000000000000004885, 2.000000000000000000 ) ) ;
#383 = EDGE_CURVE ( 'NONE', #623, #806, #322, .T. ) ;
#384 = EDGE_LOOP ( 'NONE', ( #537, #739, #326 ) ) ;
#385 = CARTESIAN_POINT ( 'NONE',  ( -4.249999999999999112, -0.7999999999999993783, 2.000000000000000000 ) ) ;
#386 = ORIENTED_EDGE ( 'NONE', *, *, #187, .F. ) ;
#387 = DIRECTION ( 'NONE',  ( -0.0000000000000000000, -0.0000000000000000000, -1.000000000000000000 ) ) ;
#388 = EDGE_CURVE ( 'NONE', #138, #879, #651, .T. ) ;
#389 = AXIS2_PLACEMENT_3D ( 'NONE', #710, #72, #837 ) ;
#390 = CARTESIAN_POINT ( 'NONE',  ( -4.049999999999999822, -0.9999999999999993339, 0.5000000000000000000 ) ) ;
#391 = CARTESIAN_POINT ( 'NONE',  ( -3.000000000000000000, 0.0000000000000000000, 0.0000000000000000000 ) ) ;
#392 = ORIENTED_EDGE ( 'NONE', *, *, #250, .T. ) ;
#393 = DIRECTION ( 'NONE',  ( -0.0000000000000000000, -0.0000000000000000000, -1.000000000000000000 ) ) ;
#394 = ORIENTED_EDGE ( 'NONE', *, *, #687, .F. ) ;
#395 = COORDINATED_UNIVERSAL_TIME_OFFSET ( 8, 0, .AHEAD. ) ;
#396 = PLANE ( 'NONE',  #665 ) ;
#397 = ADVANCED_FACE ( 'NONE', ( #370 ), #724, .T. ) ;
#398 = ADVANCED_BREP_SHAPE_REPRESENTATION ( '2PIN-6', ( #618, #840 ), #899 ) ;
#399 = FACE_OUTER_BOUND ( 'NONE', #676, .T. ) ;
#400 = DIRECTION ( 'NONE',  ( 1.000000000000000000, 0.0000000000000000000, 0.0000000000000000000 ) ) ;
#401 = CARTESIAN_POINT ( 'NONE',  ( 3.750000000000000000, 9.184850993605147205E-17, 5.000000000000000000 ) ) ;
#402 = ORIENTED_EDGE ( 'NONE', *, *, #128, .T. ) ;
#403 = CARTESIAN_POINT ( 'NONE',  ( -3.000000000000000000, 0.0000000000000000000, 0.4999999999999995559 ) ) ;
#404 = CALENDAR_DATE ( 2020, 9, 11 ) ;
#405 = ORIENTED_EDGE ( 'NONE', *, *, #187, .T. ) ;
#406 = FACE_OUTER_BOUND ( 'NONE', #704, .T. ) ;
#407 = DIRECTION ( 'NONE',  ( -0.0000000000000000000, -0.0000000000000000000, -1.000000000000000000 ) ) ;
#408 = DIRECTION ( 'NONE',  ( -5.421010862427520198E-16, -1.000000000000000000, -0.0000000000000000000 ) ) ;
#409 = LINE ( 'NONE', #190, #83 ) ;
#410 = DESIGN_CONTEXT ( 'detailed design', #832, 'design' ) ;
#411 = FACE_OUTER_BOUND ( 'NONE', #479, .T. ) ;
#412 = CARTESIAN_POINT ( 'NONE',  ( 3.649999999999999911, 7.960204194457795477E-17, 6.850000000000000533 ) ) ;
#413 = FACE_OUTER_BOUND ( 'NONE', #11, .T. ) ;
#414 = EDGE_LOOP ( 'NONE', ( #664, #288, #858 ) ) ;
#415 = EDGE_CURVE ( 'NONE', #602, #138, #218, .T. ) ;
#416 = EDGE_LOOP ( 'NONE', ( #458, #583, #876, #657 ) ) ;
#417 = CARTESIAN_POINT ( 'NONE',  ( 3.750000000000000000, 9.184850993605147205E-17, 5.000000000000000000 ) ) ;
#418 = ORIENTED_EDGE ( 'NONE', *, *, #658, .T. ) ;
#419 = APPROVAL_PERSON_ORGANIZATION ( #817, #677, #69 ) ;
#420 = ORIENTED_EDGE ( 'NONE', *, *, #779, .F. ) ;
#421 = CARTESIAN_POINT ( 'NONE',  ( -4.249999999999999112, 0.8000000000000004885, 0.5000000000000000000 ) ) ;
#422 = DIRECTION ( 'NONE',  ( 1.224646799147353207E-16, 1.000000000000000000, -0.0000000000000000000 ) ) ;
#423 = PERSON_AND_ORGANIZATION_ROLE ( 'classification_officer' ) ;
#424 = DIRECTION ( 'NONE',  ( 0.7071067811865469066, 0.7071067811865482389, 0.0000000000000000000 ) ) ;
#425 = LINE ( 'NONE', #586, #132 ) ;
#426 = EDGE_CURVE ( 'NONE', #338, #636, #506, .T. ) ;
#427 = CYLINDRICAL_SURFACE ( 'NONE', #319, 0.7499999999999997780 ) ;
#428 = CARTESIAN_POINT ( 'NONE',  ( -3.750000000000000000, 0.0000000000000000000, 0.0000000000000000000 ) ) ;
#429 = CARTESIAN_POINT ( 'NONE',  ( -3.649999999999999911, 0.0000000000000000000, 5.000000000000000000 ) ) ;
#430 = VECTOR ( 'NONE', #238, 1000.000000000000000 ) ;
#431 = ORIENTED_EDGE ( 'NONE', *, *, #231, .F. ) ;
#432 = ORIENTED_EDGE ( 'NONE', *, *, #426, .F. ) ;
#433 = CARTESIAN_POINT ( 'NONE',  ( 0.0000000000000000000, 0.0000000000000000000, 0.0000000000000000000 ) ) ;
#434 = DIRECTION ( 'NONE',  ( 0.0000000000000000000, 0.0000000000000000000, 1.000000000000000000 ) ) ;
#435 = DIRECTION ( 'NONE',  ( 0.0000000000000000000, -1.000000000000000000, 0.0000000000000000000 ) ) ;
#436 = AXIS2_PLACEMENT_3D ( 'NONE', #183, #547, #320 ) ;
#437 = VECTOR ( 'NONE', #449, 1000.000000000000000 ) ;
#438 = EDGE_LOOP ( 'NONE', ( #175, #887, #873, #763 ) ) ;
#439 = ORIENTED_EDGE ( 'NONE', *, *, #687, .T. ) ;
#440 = CARTESIAN_POINT ( 'NONE',  ( 4.250000000000000000, -0.8000000000000004885, 2.000000000000000000 ) ) ;
#441 = EDGE_LOOP ( 'NONE', ( #728, #674, #548, #526 ) ) ;
#442 = ORIENTED_EDGE ( 'NONE', *, *, #839, .T. ) ;
#443 = APPROVAL_DATE_TIME ( #798, #677 ) ;
#444 = EDGE_CURVE ( 'NONE', #615, #527, #821, .T. ) ;
#445 = DIRECTION ( 'NONE',  ( -1.000000000000000000, 0.0000000000000000000, 0.0000000000000000000 ) ) ;
#446 = LOCAL_TIME ( 11, 48, 30.00000000000000000, #669 ) ;
#447 = CARTESIAN_POINT ( 'NONE',  ( 3.000000000000000000, 0.0000000000000000000, 6.850000000000000533 ) ) ;
#448 = CARTESIAN_POINT ( 'NONE',  ( -4.249999999999999112, 0.8000000000000004885, 2.000000000000000000 ) ) ;
#449 = DIRECTION ( 'NONE',  ( -0.0000000000000000000, -0.0000000000000000000, -1.000000000000000000 ) ) ;
#450 = DIRECTION ( 'NONE',  ( 0.0000000000000000000, 0.0000000000000000000, -1.000000000000000000 ) ) ;
#451 = SPHERICAL_SURFACE ( 'NONE', #372, 0.6500000000000000222 ) ;
#452 = FACE_OUTER_BOUND ( 'NONE', #895, .T. ) ;
#453 = EDGE_CURVE ( 'NONE', #275, #124, #682, .T. ) ;
#454 = CIRCLE ( 'NONE', #521, 0.6500000000000000222 ) ;
#455 = CARTESIAN_POINT ( 'NONE',  ( -3.000000000000000000, 0.0000000000000000000, 7.500000000000000000 ) ) ;
#456 = CARTESIAN_POINT ( 'NONE',  ( 3.000000000000000000, 0.0000000000000000000, 5.000000000000000000 ) ) ;
#457 = LINE ( 'NONE', #333, #557 ) ;
#458 = ORIENTED_EDGE ( 'NONE', *, *, #783, .F. ) ;
#459 = CARTESIAN_POINT ( 'NONE',  ( -3.000000000000000000, 0.0000000000000000000, 5.000000000000000000 ) ) ;
#460 = DIRECTION ( 'NONE',  ( 5.421010862427520198E-16, 1.000000000000000000, 0.0000000000000000000 ) ) ;
#461 = AXIS2_PLACEMENT_3D ( 'NONE', #447, #771, #716 ) ;
#462 = DIRECTION ( 'NONE',  ( 0.0000000000000000000, 0.0000000000000000000, 1.000000000000000000 ) ) ;
#463 = ORIENTED_EDGE ( 'NONE', *, *, #478, .F. ) ;
#464 = DIRECTION ( 'NONE',  ( -0.0000000000000000000, -0.0000000000000000000, -1.000000000000000000 ) ) ;
#465 = VECTOR ( 'NONE', #712, 1000.000000000000000 ) ;
#466 = FACE_BOUND ( 'NONE', #352, .T. ) ;
#467 = VECTOR ( 'NONE', #842, 1000.000000000000000 ) ;
#468 = ORIENTED_EDGE ( 'NONE', *, *, #849, .F. ) ;
#469 = ORIENTED_EDGE ( 'NONE', *, *, #199, .F. ) ;
#470 = DIRECTION ( 'NONE',  ( -1.000000000000000000, 0.0000000000000000000, 0.0000000000000000000 ) ) ;
#471 = CARTESIAN_POINT ( 'NONE',  ( -3.750000000000000000, 0.0000000000000000000, 5.000000000000000000 ) ) ;
#472 = EDGE_CURVE ( 'NONE', #27, #89, #579, .T. ) ;
#473 = PRODUCT_DEFINITION ( '未知', '', #79, #410 ) ;
#474 = CARTESIAN_POINT ( 'NONE',  ( 4.050000000000000711, -1.000000000000000444, 0.5000000000000000000 ) ) ;
#475 = VECTOR ( 'NONE', #115, 1000.000000000000000 ) ;
#476 = CARTESIAN_POINT ( 'NONE',  ( 4.050000000000001599, 1.000000000000000000, 2.000000000000000000 ) ) ;
#477 = LINE ( 'NONE', #696, #334 ) ;
#478 = EDGE_CURVE ( 'NONE', #499, #18, #628, .T. ) ;
#479 = EDGE_LOOP ( 'NONE', ( #243, #512, #323, #752 ) ) ;
#480 = VERTEX_POINT ( 'NONE', #217 ) ;
#481 = CARTESIAN_POINT ( 'NONE',  ( 3.000000000000000000, 0.0000000000000000000, 7.500000000000000000 ) ) ;
#482 = ORIENTED_EDGE ( 'NONE', *, *, #844, .F. ) ;
#483 = DIRECTION ( 'NONE',  ( 0.0000000000000000000, 0.0000000000000000000, 1.000000000000000000 ) ) ;
#484 = VECTOR ( 'NONE', #65, 1000.000000000000000 ) ;
#485 = ORIENTED_EDGE ( 'NONE', *, *, #178, .T. ) ;
#486 = VERTEX_POINT ( 'NONE', #580 ) ;
#487 = AXIS2_PLACEMENT_3D ( 'NONE', #293, #435, #450 ) ;
#488 = ORIENTED_EDGE ( 'NONE', *, *, #388, .T. ) ;
#489 = CIRCLE ( 'NONE', #595, 0.7499999999999997780 ) ;
#490 = CYLINDRICAL_SURFACE ( 'NONE', #810, 0.7499999999999997780 ) ;
#491 = CARTESIAN_POINT ( 'NONE',  ( -3.000000000000000000, 0.0000000000000000000, 0.0000000000000000000 ) ) ;
#492 = ADVANCED_FACE ( 'NONE', ( #621 ), #1, .T. ) ;
#493 = FACE_OUTER_BOUND ( 'NONE', #5, .T. ) ;
#494 = ORIENTED_EDGE ( 'NONE', *, *, #266, .T. ) ;
#495 = LINE ( 'NONE', #448, #297 ) ;
#496 = EDGE_CURVE ( 'NONE', #124, #859, #736, .T. ) ;
#497 = DIRECTION ( 'NONE',  ( -1.000000000000000000, 0.0000000000000000000, 0.0000000000000000000 ) ) ;
#498 = DATE_TIME_ROLE ( 'classification_date' ) ;
#499 = VERTEX_POINT ( 'NONE', #85 ) ;
#500 = ORIENTED_EDGE ( 'NONE', *, *, #278, .T. ) ;
#501 = CC_DESIGN_APPROVAL ( #677, ( #300 ) ) ;
#502 = PLANE ( 'NONE',  #816 ) ;
#503 = DIRECTION ( 'NONE',  ( -0.0000000000000000000, -0.0000000000000000000, -1.000000000000000000 ) ) ;
#504 = AXIS2_PLACEMENT_3D ( 'NONE', #284, #82, #363 ) ;
#505 = VECTOR ( 'NONE', #544, 1000.000000000000000 ) ;
#506 = LINE ( 'NONE', #440, #308 ) ;
#507 = DIRECTION ( 'NONE',  ( -0.0000000000000000000, -0.0000000000000000000, -1.000000000000000000 ) ) ;
#508 = CARTESIAN_POINT ( 'NONE',  ( -4.249999999999999112, -0.7999999999999993783, 0.5000000000000000000 ) ) ;
#509 = VERTEX_POINT ( 'NONE', #299 ) ;
#510 = EDGE_LOOP ( 'NONE', ( #63, #301 ) ) ;
#511 = ADVANCED_FACE ( 'NONE', ( #86 ), #666, .F. ) ;
#512 = ORIENTED_EDGE ( 'NONE', *, *, #453, .T. ) ;
#513 = AXIS2_PLACEMENT_3D ( 'NONE', #733, #19, #316 ) ;
#514 = DIRECTION ( 'NONE',  ( 0.0000000000000000000, 0.0000000000000000000, -1.000000000000000000 ) ) ;
#515 = CARTESIAN_POINT ( 'NONE',  ( -4.049999999999999822, 1.000000000000000444, 2.000000000000000000 ) ) ;
#516 = PERSON_AND_ORGANIZATION ( #575, #862 ) ;
#517 = ADVANCED_FACE ( 'NONE', ( #343, #96, #661 ), #240, .T. ) ;
#518 = DIRECTION ( 'NONE',  ( -0.0000000000000000000, -0.0000000000000000000, -1.000000000000000000 ) ) ;
#519 = PLANE ( 'NONE',  #169 ) ;
#520 = CIRCLE ( 'NONE', #304, 0.7499999999999997780 ) ;
#521 = AXIS2_PLACEMENT_3D ( 'NONE', #10, #88, #589 ) ;
#522 = CARTESIAN_POINT ( 'NONE',  ( -4.249999999999999112, -0.7999999999999993783, 2.000000000000000000 ) ) ;
#523 = CIRCLE ( 'NONE', #655, 0.6500000000000000222 ) ;
#524 = FACE_OUTER_BOUND ( 'NONE', #441, .T. ) ;
#525 = CARTESIAN_POINT ( 'NONE',  ( 3.750000000000000000, 9.184850993605147205E-17, 5.000000000000000000 ) ) ;
#526 = ORIENTED_EDGE ( 'NONE', *, *, #50, .T. ) ;
#527 = VERTEX_POINT ( 'NONE', #525 ) ;
#528 = CARTESIAN_POINT ( 'NONE',  ( 3.750000000000000000, 9.184850993605147205E-17, 2.000000000000000000 ) ) ;
#529 = CARTESIAN_POINT ( 'NONE',  ( -4.049999999999999822, 1.000000000000000444, 0.5000000000000000000 ) ) ;
#530 = COORDINATED_UNIVERSAL_TIME_OFFSET ( 8, 0, .AHEAD. ) ;
#531 = EDGE_LOOP ( 'NONE', ( #468, #616, #686 ) ) ;
#532 = VECTOR ( 'NONE', #75, 999.9999999999998863 ) ;
#533 = FACE_BOUND ( 'NONE', #750, .T. ) ;
#534 = CARTESIAN_POINT ( 'NONE',  ( -3.750000000000000000, 0.0000000000000000000, 5.000000000000000000 ) ) ;
#535 = LINE ( 'NONE', #207, #484 ) ;
#536 = ORIENTED_EDGE ( 'NONE', *, *, #383, .T. ) ;
#537 = ORIENTED_EDGE ( 'NONE', *, *, #597, .F. ) ;
#538 = DIRECTION ( 'NONE',  ( 0.0000000000000000000, 0.0000000000000000000, -1.000000000000000000 ) ) ;
#539 = ORIENTED_EDGE ( 'NONE', *, *, #800, .F. ) ;
#540 = ORIENTED_EDGE ( 'NONE', *, *, #444, .T. ) ;
#541 = CARTESIAN_POINT ( 'NONE',  ( 4.250000000000000888, 0.8000000000000000444, 2.000000000000000000 ) ) ;
#542 = AXIS2_PLACEMENT_3D ( 'NONE', #593, #599, #850 ) ;
#543 = DIRECTION ( 'NONE',  ( -0.0000000000000000000, -0.0000000000000000000, -1.000000000000000000 ) ) ;
#544 = DIRECTION ( 'NONE',  ( -0.0000000000000000000, -0.0000000000000000000, -1.000000000000000000 ) ) ;
#545 = CIRCLE ( 'NONE', #870, 0.6500000000000000222 ) ;
#546 = AXIS2_PLACEMENT_3D ( 'NONE', #134, #54, #341 ) ;
#547 = DIRECTION ( 'NONE',  ( 0.0000000000000000000, 1.000000000000000000, 0.0000000000000000000 ) ) ;
#548 = ORIENTED_EDGE ( 'NONE', *, *, #844, .T. ) ;
#549 = EDGE_CURVE ( 'NONE', #203, #486, #811, .T. ) ;
#550 = CARTESIAN_POINT ( 'NONE',  ( -3.649999999999999911, 0.0000000000000000000, 7.500000000000000000 ) ) ;
#551 = FACE_OUTER_BOUND ( 'NONE', #531, .T. ) ;
#552 = DIRECTION ( 'NONE',  ( 0.0000000000000000000, 0.0000000000000000000, -1.000000000000000000 ) ) ;
#553 = AXIS2_PLACEMENT_3D ( 'NONE', #95, #538, #860 ) ;
#554 = CIRCLE ( 'NONE', #291, 0.6500000000000000222 ) ;
#555 = AXIS2_PLACEMENT_3D ( 'NONE', #568, #819, #279 ) ;
#556 = FACE_OUTER_BOUND ( 'NONE', #624, .T. ) ;
#557 = VECTOR ( 'NONE', #809, 1000.000000000000000 ) ;
#558 = EDGE_CURVE ( 'NONE', #718, #336, #639, .T. ) ;
#559 = CARTESIAN_POINT ( 'NONE',  ( -3.000000000000000000, 0.0000000000000000000, 5.000000000000000000 ) ) ;
#560 = EDGE_LOOP ( 'NONE', ( #684, #123, #76, #17 ) ) ;
#561 = EDGE_LOOP ( 'NONE', ( #211, #604, #488, #111 ) ) ;
#562 = DIRECTION ( 'NONE',  ( 1.000000000000000000, 0.0000000000000000000, -0.0000000000000000000 ) ) ;
#563 = CARTESIAN_POINT ( 'NONE',  ( 4.250000000000000000, -0.8000000000000004885, 2.000000000000000000 ) ) ;
#564 = AXIS2_PLACEMENT_3D ( 'NONE', #28, #16, #660 ) ;
#565 = FACE_OUTER_BOUND ( 'NONE', #694, .T. ) ;
#566 = FACE_OUTER_BOUND ( 'NONE', #561, .T. ) ;
#567 = CARTESIAN_POINT ( 'NONE',  ( -4.249999999999999112, -0.7999999999999993783, 2.000000000000000000 ) ) ;
#568 = CARTESIAN_POINT ( 'NONE',  ( -3.000000000000000000, 0.0000000000000000000, 5.000000000000000000 ) ) ;
#569 = ADVANCED_FACE ( 'NONE', ( #493 ), #791, .T. ) ;
#570 = ORIENTED_EDGE ( 'NONE', *, *, #388, .F. ) ;
#571 = VERTEX_POINT ( 'NONE', #455 ) ;
#572 = SECURITY_CLASSIFICATION_LEVEL ( 'unclassified' ) ;
#573 = DIRECTION ( 'NONE',  ( -0.7071067811865469066, 0.7071067811865482389, -0.0000000000000000000 ) ) ;
#574 = ADVANCED_FACE ( 'NONE', ( #717 ), #843, .T. ) ;
#575 = PERSON ( '未指定', '未指定', '未指定', ('未指定'), ('未指定'), ('未指定') ) ;
#576 = EDGE_CURVE ( 'NONE', #77, #203, #241, .T. ) ;
#577 = CARTESIAN_POINT ( 'NONE',  ( 4.250000000000000888, 0.8000000000000000444, 2.000000000000000000 ) ) ;
#578 = DIRECTION ( 'NONE',  ( 0.0000000000000000000, 0.0000000000000000000, -1.000000000000000000 ) ) ;
#579 = LINE ( 'NONE', #508, #261 ) ;
#580 = CARTESIAN_POINT ( 'NONE',  ( 2.350000000000000089, 0.0000000000000000000, 5.000000000000000000 ) ) ;
#581 = ORIENTED_EDGE ( 'NONE', *, *, #246, .T. ) ;
#582 = PRODUCT ( '2PIN-6', '2PIN-6', '', ( #890 ) ) ;
#583 = ORIENTED_EDGE ( 'NONE', *, *, #278, .F. ) ;
#584 = AXIS2_PLACEMENT_3D ( 'NONE', #688, #422, #818 ) ;
#585 = ORIENTED_EDGE ( 'NONE', *, *, #747, .T. ) ;
#586 = CARTESIAN_POINT ( 'NONE',  ( -2.250000000000000444, 9.184850993605147205E-17, 5.000000000000000000 ) ) ;
#587 = PERSON_AND_ORGANIZATION ( #575, #862 ) ;
#588 = DIRECTION ( 'NONE',  ( -0.0000000000000000000, -0.0000000000000000000, -1.000000000000000000 ) ) ;
#589 = DIRECTION ( 'NONE',  ( -1.000000000000000000, 0.0000000000000000000, 0.0000000000000000000 ) ) ;
#590 = LINE ( 'NONE', #365, #465 ) ;
#591 = FACE_OUTER_BOUND ( 'NONE', #126, .T. ) ;
#592 = ORIENTED_EDGE ( 'NONE', *, *, #342, .T. ) ;
#593 = CARTESIAN_POINT ( 'NONE',  ( -3.000000000000000000, 0.0000000000000000000, 5.000000000000000000 ) ) ;
#594 = VERTEX_POINT ( 'NONE', #529 ) ;
#595 = AXIS2_PLACEMENT_3D ( 'NONE', #244, #875, #34 ) ;
#596 = CARTESIAN_POINT ( 'NONE',  ( -4.049999999999999822, -0.9999999999999993339, 2.000000000000000000 ) ) ;
#597 = EDGE_CURVE ( 'NONE', #609, #77, #454, .T. ) ;
#598 = CYLINDRICAL_SURFACE ( 'NONE', #729, 0.7499999999999997780 ) ;
#599 = DIRECTION ( 'NONE',  ( -0.0000000000000000000, -0.0000000000000000000, -1.000000000000000000 ) ) ;
#600 = FACE_OUTER_BOUND ( 'NONE', #234, .T. ) ;
#601 = DIRECTION ( 'NONE',  ( 0.0000000000000000000, 1.000000000000000000, 0.0000000000000000000 ) ) ;
#602 = VERTEX_POINT ( 'NONE', #237 ) ;
#603 = DIRECTION ( 'NONE',  ( -1.000000000000000000, 0.0000000000000000000, 0.0000000000000000000 ) ) ;
#604 = ORIENTED_EDGE ( 'NONE', *, *, #84, .F. ) ;
#605 = VERTEX_POINT ( 'NONE', #534 ) ;
#606 = PERSON_AND_ORGANIZATION ( #575, #862 ) ;
#607 = APPROVAL ( #349, '未指定' ) ;
#608 = CARTESIAN_POINT ( 'NONE',  ( 3.000000000000000000, 0.0000000000000000000, 5.000000000000000000 ) ) ;
#609 = VERTEX_POINT ( 'NONE', #380 ) ;
#610 = LINE ( 'NONE', #471, #883 ) ;
#611 = DIRECTION ( 'NONE',  ( -1.000000000000000000, 5.354084802397551269E-17, 0.0000000000000000000 ) ) ;
#612 = VECTOR ( 'NONE', #503, 1000.000000000000000 ) ;
#613 = AXIS2_PLACEMENT_3D ( 'NONE', #559, #131, #625 ) ;
#614 = CARTESIAN_POINT ( 'NONE',  ( 3.000000000000000000, 0.0000000000000000000, 2.000000000000000000 ) ) ;
#615 = VERTEX_POINT ( 'NONE', #790 ) ;
#616 = ORIENTED_EDGE ( 'NONE', *, *, #68, .T. ) ;
#617 = EDGE_CURVE ( 'NONE', #886, #27, #748, .T. ) ;
#618 = MANIFOLD_SOLID_BREP ( '圆角2', #177 ) ;
#619 = EDGE_CURVE ( 'NONE', #264, #777, #545, .T. ) ;
#620 = DIRECTION ( 'NONE',  ( -1.000000000000000000, 0.0000000000000000000, 0.0000000000000000000 ) ) ;
#621 = FACE_OUTER_BOUND ( 'NONE', #560, .T. ) ;
#622 = AXIS2_PLACEMENT_3D ( 'NONE', #181, #552, #603 ) ;
#623 = VERTEX_POINT ( 'NONE', #656 ) ;
#624 = EDGE_LOOP ( 'NONE', ( #162, #679, #311, #630 ) ) ;
#625 = DIRECTION ( 'NONE',  ( 1.000000000000000000, 0.0000000000000000000, 0.0000000000000000000 ) ) ;
#626 = CARTESIAN_POINT ( 'NONE',  ( -4.249999999999999112, 0.8000000000000004885, 2.000000000000000000 ) ) ;
#627 = FACE_OUTER_BOUND ( 'NONE', #646, .T. ) ;
#628 = CIRCLE ( 'NONE', #355, 0.7499999999999997780 ) ;
#629 = DIRECTION ( 'NONE',  ( 0.7071067811865469066, -0.7071067811865482389, -0.0000000000000000000 ) ) ;
#630 = ORIENTED_EDGE ( 'NONE', *, *, #136, .T. ) ;
#631 = ORIENTED_EDGE ( 'NONE', *, *, #549, .T. ) ;
#632 = DIRECTION ( 'NONE',  ( -1.000000000000000000, 0.0000000000000000000, 0.0000000000000000000 ) ) ;
#633 = ORIENTED_EDGE ( 'NONE', *, *, #597, .T. ) ;
#634 = DIRECTION ( 'NONE',  ( 0.0000000000000000000, 0.0000000000000000000, 1.000000000000000000 ) ) ;
#635 = APPROVAL ( #212, '未指定' ) ;
#636 = VERTEX_POINT ( 'NONE', #233 ) ;
#637 = ADVANCED_FACE ( 'NONE', ( #108 ), #598, .T. ) ;
#638 = CARTESIAN_POINT ( 'NONE',  ( 0.0000000000000000000, 0.0000000000000000000, 2.000000000000000000 ) ) ;
#639 = CIRCLE ( 'NONE', #884, 0.7499999999999997780 ) ;
#640 = CIRCLE ( 'NONE', #584, 0.6500000000000000222 ) ;
#641 = EDGE_CURVE ( 'NONE', #718, #360, #689, .T. ) ;
#642 = UNCERTAINTY_MEASURE_WITH_UNIT (LENGTH_MEASURE( 1.000000000000000082E-05 ), #761, 'distance_accuracy_value', 'NONE');
#643 = ORIENTED_EDGE ( 'NONE', *, *, #619, .F. ) ;
#644 = DIRECTION ( 'NONE',  ( -1.000000000000000000, 0.0000000000000000000, 0.0000000000000000000 ) ) ;
#645 = ORIENTED_EDGE ( 'NONE', *, *, #658, .F. ) ;
#646 = EDGE_LOOP ( 'NONE', ( #420, #345, #277 ) ) ;
#647 = CARTESIAN_POINT ( 'NONE',  ( 4.250000000000000888, 0.8000000000000000444, 2.000000000000000000 ) ) ;
#648 = CARTESIAN_POINT ( 'NONE',  ( -3.000000000000000000, 0.0000000000000000000, 5.000000000000000000 ) ) ;
#649 = ADVANCED_FACE ( 'NONE', ( #354 ), #726, .T. ) ;
#650 = CARTESIAN_POINT ( 'NONE',  ( -4.049999999999999822, -0.9999999999999993339, 2.000000000000000000 ) ) ;
#651 = LINE ( 'NONE', #167, #854 ) ;
#652 = DIRECTION ( 'NONE',  ( 0.0000000000000000000, 0.0000000000000000000, -1.000000000000000000 ) ) ;
#653 = VECTOR ( 'NONE', #578, 1000.000000000000000 ) ;
#654 = ORIENTED_EDGE ( 'NONE', *, *, #101, .T. ) ;
#655 = AXIS2_PLACEMENT_3D ( 'NONE', #823, #829, #632 ) ;
#656 = CARTESIAN_POINT ( 'NONE',  ( 4.050000000000001599, 1.000000000000000000, 2.000000000000000000 ) ) ;
#657 = ORIENTED_EDGE ( 'NONE', *, *, #426, .T. ) ;
#658 = EDGE_CURVE ( 'NONE', #486, #203, #715, .T. ) ;
#659 = CC_DESIGN_SECURITY_CLASSIFICATION ( #300, ( #79 ) ) ;
#660 = DIRECTION ( 'NONE',  ( 1.000000000000000000, 0.0000000000000000000, 0.0000000000000000000 ) ) ;
#661 = FACE_OUTER_BOUND ( 'NONE', #200, .T. ) ;
#662 = LINE ( 'NONE', #385, #691 ) ;
#663 = EDGE_CURVE ( 'NONE', #124, #275, #24, .T. ) ;
#664 = ORIENTED_EDGE ( 'NONE', *, *, #68, .F. ) ;
#665 = AXIS2_PLACEMENT_3D ( 'NONE', #865, #102, #671 ) ;
#666 = PLANE ( 'NONE',  #205 ) ;
#667 = PERSON_AND_ORGANIZATION ( #575, #862 ) ;
#668 = DIRECTION ( 'NONE',  ( 1.000000000000000000, -5.354084802397551886E-17, 0.0000000000000000000 ) ) ;
#669 = COORDINATED_UNIVERSAL_TIME_OFFSET ( 8, 0, .AHEAD. ) ;
#670 = AXIS2_PLACEMENT_3D ( 'NONE', #382, #176, #460 ) ;
#671 = DIRECTION ( 'NONE',  ( 0.7071067811865469066, 0.7071067811865482389, 0.0000000000000000000 ) ) ;
#672 = LINE ( 'NONE', #417, #612 ) ;
#673 = CARTESIAN_POINT ( 'NONE',  ( -4.049999999999999822, 1.000000000000000444, 2.000000000000000000 ) ) ;
#674 = ORIENTED_EDGE ( 'NONE', *, *, #246, .F. ) ;
#675 = DIRECTION ( 'NONE',  ( -0.7071067811865469066, -0.7071067811865482389, -0.0000000000000000000 ) ) ;
#676 = EDGE_LOOP ( 'NONE', ( #540, #209 ) ) ;
#677 = APPROVAL ( #768, '未指定' ) ;
#678 = DIRECTION ( 'NONE',  ( -0.0000000000000000000, -0.0000000000000000000, -1.000000000000000000 ) ) ;
#679 = ORIENTED_EDGE ( 'NONE', *, *, #128, .F. ) ;
#680 = PLANE ( 'NONE',  #795 ) ;
#681 = AXIS2_PLACEMENT_3D ( 'NONE', #522, #707, #767 ) ;
#682 = CIRCLE ( 'NONE', #180, 0.7499999999999997780 ) ;
#683 = CYLINDRICAL_SURFACE ( 'NONE', #273, 0.7499999999999997780 ) ;
#684 = ORIENTED_EDGE ( 'NONE', *, *, #178, .F. ) ;
#685 = ORIENTED_EDGE ( 'NONE', *, *, #136, .F. ) ;
#686 = ORIENTED_EDGE ( 'NONE', *, *, #331, .F. ) ;
#687 = EDGE_CURVE ( 'NONE', #360, #99, #520, .T. ) ;
#688 = CARTESIAN_POINT ( 'NONE',  ( -3.000000000000000000, 0.0000000000000000000, 6.850000000000000533 ) ) ;
#689 = LINE ( 'NONE', #788, #41 ) ;
#690 = CC_DESIGN_PERSON_AND_ORGANIZATION_ASSIGNMENT ( #587, #765, ( #582 ) ) ;
#691 = VECTOR ( 'NONE', #852, 1000.000000000000000 ) ;
#692 = ORIENTED_EDGE ( 'NONE', *, *, #179, .F. ) ;
#693 = DIRECTION ( 'NONE',  ( 1.000000000000000000, 0.0000000000000000000, 0.0000000000000000000 ) ) ;
#694 = EDGE_LOOP ( 'NONE', ( #67, #193 ) ) ;
#695 = ADVANCED_FACE ( 'NONE', ( #411 ), #490, .T. ) ;
#696 = CARTESIAN_POINT ( 'NONE',  ( 4.250000000000000888, 0.8000000000000000444, 0.5000000000000000000 ) ) ;
#697 = AXIS2_PLACEMENT_3D ( 'NONE', #456, #90, #216 ) ;
#698 = ADVANCED_FACE ( 'NONE', ( #591 ), #396, .T. ) ;
#699 = CARTESIAN_POINT ( 'NONE',  ( -3.000000000000000000, 0.0000000000000000000, 2.000000000000000000 ) ) ;
#700 = APPROVAL_ROLE ( '' ) ;
#701 = EDGE_CURVE ( 'NONE', #636, #886, #770, .T. ) ;
#702 =( NAMED_UNIT ( * ) SI_UNIT ( $, .STERADIAN. ) SOLID_ANGLE_UNIT ( ) );
#703 = ADVANCED_FACE ( 'NONE', ( #551 ), #368, .T. ) ;
#704 = EDGE_LOOP ( 'NONE', ( #751, #392, #463, #826 ) ) ;
#705 = APPLICATION_PROTOCOL_DEFINITION ( 'international standard', 'config_control_design', 1994, #832 ) ;
#706 = CARTESIAN_POINT ( 'NONE',  ( 3.000000000000000000, 0.0000000000000000000, 0.4999999999999995559 ) ) ;
#707 = DIRECTION ( 'NONE',  ( -0.7071067811865482389, -0.7071067811865469066, 0.0000000000000000000 ) ) ;
#708 = ADVANCED_FACE ( 'NONE', ( #70 ), #781, .T. ) ;
#709 = EDGE_CURVE ( 'NONE', #18, #499, #143, .T. ) ;
#710 = CARTESIAN_POINT ( 'NONE',  ( 3.000000000000000000, 0.0000000000000000000, 5.000000000000000000 ) ) ;
#711 = AXIS2_PLACEMENT_3D ( 'NONE', #863, #249, #470 ) ;
#712 = DIRECTION ( 'NONE',  ( -5.421010862427520198E-16, -1.000000000000000000, -0.0000000000000000000 ) ) ;
#713 = DIRECTION ( 'NONE',  ( -0.0000000000000000000, -0.0000000000000000000, -1.000000000000000000 ) ) ;
#714 = ADVANCED_FACE ( 'NONE', ( #452 ), #427, .T. ) ;
#715 = CIRCLE ( 'NONE', #339, 0.6500000000000000222 ) ;
#716 = DIRECTION ( 'NONE',  ( -1.000000000000000000, 1.224646799147353207E-16, 0.0000000000000000000 ) ) ;
#717 = FACE_OUTER_BOUND ( 'NONE', #374, .T. ) ;
#718 = VERTEX_POINT ( 'NONE', #803 ) ;
#719 = ORIENTED_EDGE ( 'NONE', *, *, #617, .T. ) ;
#720 = DIRECTION ( 'NONE',  ( -1.000000000000000000, 0.0000000000000000000, 0.0000000000000000000 ) ) ;
#721 = DIRECTION ( 'NONE',  ( -0.7071067811865469066, 0.7071067811865482389, -0.0000000000000000000 ) ) ;
#722 = EDGE_LOOP ( 'NONE', ( #838, #113 ) ) ;
#723 = DIRECTION ( 'NONE',  ( -0.0000000000000000000, -0.0000000000000000000, 1.000000000000000000 ) ) ;
#724 = PLANE ( 'NONE',  #504 ) ;
#725 = LINE ( 'NONE', #550, #505 ) ;
#726 = PLANE ( 'NONE',  #109 ) ;
#727 = ORIENTED_EDGE ( 'NONE', *, *, #849, .T. ) ;
#728 = ORIENTED_EDGE ( 'NONE', *, *, #793, .F. ) ;
#729 = AXIS2_PLACEMENT_3D ( 'NONE', #857, #543, #229 ) ;
#730 = CARTESIAN_POINT ( 'NONE',  ( -4.049999999999999822, 1.000000000000000444, 2.000000000000000000 ) ) ;
#731 = ORIENTED_EDGE ( 'NONE', *, *, #804, .T. ) ;
#732 = DIRECTION ( 'NONE',  ( -1.000000000000000000, 0.0000000000000000000, 0.0000000000000000000 ) ) ;
#733 = CARTESIAN_POINT ( 'NONE',  ( -3.000000000000000000, 0.0000000000000000000, 5.000000000000000000 ) ) ;
#734 = AXIS2_PLACEMENT_3D ( 'NONE', #648, #170, #235 ) ;
#735 = CARTESIAN_POINT ( 'NONE',  ( 3.000000000000000000, 0.0000000000000000000, 5.000000000000000000 ) ) ;
#736 = LINE ( 'NONE', #155, #71 ) ;
#737 = ORIENTED_EDGE ( 'NONE', *, *, #415, .F. ) ;
#738 = CARTESIAN_POINT ( 'NONE',  ( -3.000000000000000000, 0.0000000000000000000, 6.850000000000000533 ) ) ;
#739 = ORIENTED_EDGE ( 'NONE', *, *, #779, .T. ) ;
#740 = CC_DESIGN_APPROVAL ( #607, ( #79 ) ) ;
#741 = DIRECTION ( 'NONE',  ( -1.000000000000000000, 0.0000000000000000000, 0.0000000000000000000 ) ) ;
#742 = EDGE_CURVE ( 'NONE', #347, #264, #725, .T. ) ;
#743 = DIRECTION ( 'NONE',  ( -1.000000000000000000, 0.0000000000000000000, 0.0000000000000000000 ) ) ;
#744 = ORIENTED_EDGE ( 'NONE', *, *, #164, .T. ) ;
#745 = CARTESIAN_POINT ( 'NONE',  ( 3.000000000000000000, 0.0000000000000000000, 0.0000000000000000000 ) ) ;
#746 = EDGE_CURVE ( 'NONE', #623, #165, #173, .T. ) ;
#747 = EDGE_CURVE ( 'NONE', #275, #313, #281, .T. ) ;
#748 = LINE ( 'NONE', #390, #159 ) ;
#749 = LINE ( 'NONE', #254, #437 ) ;
#750 = EDGE_LOOP ( 'NONE', ( #645, #106 ) ) ;
#751 = ORIENTED_EDGE ( 'NONE', *, *, #107, .F. ) ;
#752 = ORIENTED_EDGE ( 'NONE', *, *, #878, .T. ) ;
#753 = CARTESIAN_POINT ( 'NONE',  ( 3.750000000000000000, 9.184850993605147205E-17, 0.0000000000000000000 ) ) ;
#754 = AXIS2_PLACEMENT_3D ( 'NONE', #491, #434, #827 ) ;
#755 = APPROVAL_PERSON_ORGANIZATION ( #31, #607, #700 ) ;
#756 = ADVANCED_FACE ( 'NONE', ( #533, #399 ), #256, .T. ) ;
#757 = DIRECTION ( 'NONE',  ( -0.0000000000000000000, -0.0000000000000000000, -1.000000000000000000 ) ) ;
#758 = PERSON_AND_ORGANIZATION_ROLE ( 'creator' ) ;
#759 = CARTESIAN_POINT ( 'NONE',  ( -2.350000000000000089, 7.960204194457795477E-17, 6.850000000000000533 ) ) ;
#760 = LINE ( 'NONE', #315, #894 ) ;
#761 =( LENGTH_UNIT ( ) NAMED_UNIT ( * ) SI_UNIT ( .MILLI., .METRE. ) );
#762 = DIRECTION ( 'NONE',  ( 0.0000000000000000000, -1.000000000000000000, 0.0000000000000000000 ) ) ;
#763 = ORIENTED_EDGE ( 'NONE', *, *, #709, .F. ) ;
#764 = CARTESIAN_POINT ( 'NONE',  ( -3.750000000000000000, 0.0000000000000000000, 0.4999999999999995559 ) ) ;
#765 = PERSON_AND_ORGANIZATION_ROLE ( 'design_owner' ) ;
#766 = CARTESIAN_POINT ( 'NONE',  ( -3.000000000000000000, 0.0000000000000000000, 5.000000000000000000 ) ) ;
#767 = DIRECTION ( 'NONE',  ( 0.7071067811865469066, -0.7071067811865482389, 0.0000000000000000000 ) ) ;
#768 = APPROVAL_STATUS ( 'not_yet_approved' ) ;
#769 = DIRECTION ( 'NONE',  ( 0.0000000000000000000, 0.0000000000000000000, -1.000000000000000000 ) ) ;
#770 = LINE ( 'NONE', #474, #789 ) ;
#771 = DIRECTION ( 'NONE',  ( 1.224646799147353207E-16, 1.000000000000000000, -0.0000000000000000000 ) ) ;
#772 = VECTOR ( 'NONE', #312, 1000.000000000000000 ) ;
#773 = CARTESIAN_POINT ( 'NONE',  ( -4.049999999999999822, 1.000000000000000444, 0.5000000000000000000 ) ) ;
#774 = CARTESIAN_POINT ( 'NONE',  ( -2.350000000000000089, 7.960204194457795477E-17, 5.000000000000000000 ) ) ;
#775 = CARTESIAN_POINT ( 'NONE',  ( -4.049999999999999822, -0.9999999999999993339, 2.000000000000000000 ) ) ;
#776 = ADVANCED_FACE ( 'NONE', ( #566 ), #157, .T. ) ;
#777 = VERTEX_POINT ( 'NONE', #774 ) ;
#778 = CARTESIAN_POINT ( 'NONE',  ( 3.000000000000000000, 0.0000000000000000000, 2.000000000000000000 ) ) ;
#779 = EDGE_CURVE ( 'NONE', #609, #184, #268, .T. ) ;
#780 = AXIS2_PLACEMENT_3D ( 'NONE', #614, #37, #743 ) ;
#781 = CYLINDRICAL_SURFACE ( 'NONE', #711, 0.6500000000000000222 ) ;
#782 = VECTOR ( 'NONE', #841, 999.9999999999998863 ) ;
#783 = EDGE_CURVE ( 'NONE', #12, #636, #590, .T. ) ;
#784 = FACE_OUTER_BOUND ( 'NONE', #416, .T. ) ;
#785 = ORIENTED_EDGE ( 'NONE', *, *, #867, .F. ) ;
#786 = DIRECTION ( 'NONE',  ( -0.0000000000000000000, -0.0000000000000000000, 1.000000000000000000 ) ) ;
#787 = AXIS2_PLACEMENT_3D ( 'NONE', #298, #871, #400 ) ;
#788 = CARTESIAN_POINT ( 'NONE',  ( -2.250000000000000444, 9.184850993605147205E-17, 5.000000000000000000 ) ) ;
#789 = VECTOR ( 'NONE', #675, 999.9999999999998863 ) ;
#790 = CARTESIAN_POINT ( 'NONE',  ( 2.250000000000000444, 0.0000000000000000000, 5.000000000000000000 ) ) ;
#791 = CYLINDRICAL_SURFACE ( 'NONE', #542, 0.7499999999999997780 ) ;
#792 = ORIENTED_EDGE ( 'NONE', *, *, #199, .T. ) ;
#793 = EDGE_CURVE ( 'NONE', #480, #509, #425, .T. ) ;
#794 = ORIENTED_EDGE ( 'NONE', *, *, #746, .F. ) ;
#795 = AXIS2_PLACEMENT_3D ( 'NONE', #745, #40, #562 ) ;
#796 = ORIENTED_EDGE ( 'NONE', *, *, #889, .F. ) ;
#797 = CARTESIAN_POINT ( 'NONE',  ( 2.250000000000000444, 0.0000000000000000000, 0.0000000000000000000 ) ) ;
#798 = DATE_AND_TIME ( #808, #224 ) ;
#799 = LINE ( 'NONE', #263, #851 ) ;
#800 = EDGE_CURVE ( 'NONE', #338, #602, #321, .T. ) ;
#801 = CIRCLE ( 'NONE', #14, 0.7499999999999997780 ) ;
#802 = CIRCLE ( 'NONE', #62, 0.6499999999999995781 ) ;
#803 = CARTESIAN_POINT ( 'NONE',  ( -2.250000000000000444, 9.184850993605147205E-17, 0.4999999999999995559 ) ) ;
#804 = EDGE_CURVE ( 'NONE', #872, #623, #171, .T. ) ;
#805 = ORIENTED_EDGE ( 'NONE', *, *, #804, .F. ) ;
#806 = VERTEX_POINT ( 'NONE', #541 ) ;
#807 = CARTESIAN_POINT ( 'NONE',  ( 4.050000000000001599, 1.000000000000000000, 0.5000000000000000000 ) ) ;
#808 = CALENDAR_DATE ( 2020, 9, 11 ) ;
#809 = DIRECTION ( 'NONE',  ( -0.0000000000000000000, -0.0000000000000000000, -1.000000000000000000 ) ) ;
#810 = AXIS2_PLACEMENT_3D ( 'NONE', #110, #33, #189 ) ;
#811 = CIRCLE ( 'NONE', #129, 0.6500000000000000222 ) ;
#812 = CYLINDRICAL_SURFACE ( 'NONE', #213, 0.6500000000000000222 ) ;
#813 = ORIENTED_EDGE ( 'NONE', *, *, #84, .T. ) ;
#814 = DIRECTION ( 'NONE',  ( -0.0000000000000000000, -0.0000000000000000000, 1.000000000000000000 ) ) ;
#815 = ORIENTED_EDGE ( 'NONE', *, *, #663, .T. ) ;
#816 = AXIS2_PLACEMENT_3D ( 'NONE', #766, #358, #888 ) ;
#817 = PERSON_AND_ORGANIZATION ( #575, #862 ) ;
#818 = DIRECTION ( 'NONE',  ( -1.000000000000000000, 1.224646799147353207E-16, 0.0000000000000000000 ) ) ;
#819 = DIRECTION ( 'NONE',  ( 0.0000000000000000000, 0.0000000000000000000, 1.000000000000000000 ) ) ;
#820 = CC_DESIGN_PERSON_AND_ORGANIZATION_ASSIGNMENT ( #606, #822, ( #79 ) ) ;
#821 = CIRCLE ( 'NONE', #389, 0.7499999999999997780 ) ;
#822 = PERSON_AND_ORGANIZATION_ROLE ( 'creator' ) ;
#823 = CARTESIAN_POINT ( 'NONE',  ( 3.000000000000000000, 0.0000000000000000000, 6.850000000000000533 ) ) ;
#824 = FACE_OUTER_BOUND ( 'NONE', #373, .T. ) ;
#825 = ORIENTED_EDGE ( 'NONE', *, *, #617, .F. ) ;
#826 = ORIENTED_EDGE ( 'NONE', *, *, #892, .F. ) ;
#827 = DIRECTION ( 'NONE',  ( 1.000000000000000000, 0.0000000000000000000, 0.0000000000000000000 ) ) ;
#828 = ORIENTED_EDGE ( 'NONE', *, *, #266, .F. ) ;
#829 = DIRECTION ( 'NONE',  ( -0.0000000000000000000, -0.0000000000000000000, -1.000000000000000000 ) ) ;
#830 = ADVANCED_FACE ( 'NONE', ( #627 ), #451, .T. ) ;
#831 = EDGE_CURVE ( 'NONE', #879, #223, #760, .T. ) ;
#832 = APPLICATION_CONTEXT ( 'configuration controlled 3d designs of mechanical parts and assemblies' ) ;
#833 = DIRECTION ( 'NONE',  ( 0.7071067811865482389, 0.7071067811865469066, 0.0000000000000000000 ) ) ;
#834 = VECTOR ( 'NONE', #424, 999.9999999999998863 ) ;
#835 = ORIENTED_EDGE ( 'NONE', *, *, #783, .T. ) ;
#836 = EDGE_LOOP ( 'NONE', ( #431, #394 ) ) ;
#837 = DIRECTION ( 'NONE',  ( 1.000000000000000000, 0.0000000000000000000, 0.0000000000000000000 ) ) ;
#838 = ORIENTED_EDGE ( 'NONE', *, *, #179, .T. ) ;
#839 = EDGE_CURVE ( 'NONE', #313, #859, #489, .T. ) ;
#840 = AXIS2_PLACEMENT_3D ( 'NONE', #433, #634, #693 ) ;
#841 = DIRECTION ( 'NONE',  ( 0.7071067811865469066, -0.7071067811865482389, -0.0000000000000000000 ) ) ;
#842 = DIRECTION ( 'NONE',  ( 0.0000000000000000000, 0.0000000000000000000, -1.000000000000000000 ) ) ;
#843 = CYLINDRICAL_SURFACE ( 'NONE', #855, 0.6500000000000000222 ) ;
#844 = EDGE_CURVE ( 'NONE', #605, #148, #610, .T. ) ;
#845 = CARTESIAN_POINT ( 'NONE',  ( 4.050000000000000711, -1.000000000000000444, 2.000000000000000000 ) ) ;
#846 = VECTOR ( 'NONE', #900, 1000.000000000000000 ) ;
#847 = ORIENTED_EDGE ( 'NONE', *, *, #317, .T. ) ;
#848 = EDGE_LOOP ( 'NONE', ( #265, #220, #439, #828 ) ) ;
#849 = EDGE_CURVE ( 'NONE', #347, #340, #864, .T. ) ;
#850 = DIRECTION ( 'NONE',  ( -1.000000000000000000, 0.0000000000000000000, 0.0000000000000000000 ) ) ;
#851 = VECTOR ( 'NONE', #507, 1000.000000000000000 ) ;
#852 = DIRECTION ( 'NONE',  ( 0.0000000000000000000, 0.0000000000000000000, -1.000000000000000000 ) ) ;
#853 = CARTESIAN_POINT ( 'NONE',  ( -3.000000000000000000, 0.0000000000000000000, 0.0000000000000000000 ) ) ;
#854 = VECTOR ( 'NONE', #573, 999.9999999999998863 ) ;
#855 = AXIS2_PLACEMENT_3D ( 'NONE', #172, #387, #305 ) ;
#856 = FACE_OUTER_BOUND ( 'NONE', #848, .T. ) ;
#857 = CARTESIAN_POINT ( 'NONE',  ( 3.000000000000000000, 0.0000000000000000000, 5.000000000000000000 ) ) ;
#858 = ORIENTED_EDGE ( 'NONE', *, *, #331, .T. ) ;
#859 = VERTEX_POINT ( 'NONE', #797 ) ;
#860 = DIRECTION ( 'NONE',  ( -1.000000000000000000, 0.0000000000000000000, -0.0000000000000000000 ) ) ;
#861 = CARTESIAN_POINT ( 'NONE',  ( -3.750000000000000000, 0.0000000000000000000, 2.000000000000000000 ) ) ;
#862 = ORGANIZATION ( '未指定', '未指定', '' ) ;
#863 = CARTESIAN_POINT ( 'NONE',  ( 3.000000000000000000, 0.0000000000000000000, 7.500000000000000000 ) ) ;
#864 = CIRCLE ( 'NONE', #194, 0.6500000000000000222 ) ;
#865 = CARTESIAN_POINT ( 'NONE',  ( 4.050000000000000711, -1.000000000000000444, 2.000000000000000000 ) ) ;
#866 = LINE ( 'NONE', #47, #295 ) ;
#867 = EDGE_CURVE ( 'NONE', #806, #338, #409, .T. ) ;
#868 = SPHERICAL_SURFACE ( 'NONE', #546, 0.6500000000000000222 ) ;
#869 = ORIENTED_EDGE ( 'NONE', *, *, #641, .F. ) ;
#870 = AXIS2_PLACEMENT_3D ( 'NONE', #459, #15, #92 ) ;
#871 = DIRECTION ( 'NONE',  ( 0.0000000000000000000, 0.0000000000000000000, 1.000000000000000000 ) ) ;
#872 = VERTEX_POINT ( 'NONE', #673 ) ;
#873 = ORIENTED_EDGE ( 'NONE', *, *, #892, .T. ) ;
#874 = CARTESIAN_POINT ( 'NONE',  ( 3.000000000000000000, 0.0000000000000000000, 5.000000000000000000 ) ) ;
#875 = DIRECTION ( 'NONE',  ( 0.0000000000000000000, 0.0000000000000000000, 1.000000000000000000 ) ) ;
#876 = ORIENTED_EDGE ( 'NONE', *, *, #867, .T. ) ;
#877 = ORIENTED_EDGE ( 'NONE', *, *, #317, .F. ) ;
#878 = EDGE_CURVE ( 'NONE', #859, #313, #801, .T. ) ;
#879 = VERTEX_POINT ( 'NONE', #51 ) ;
#880 = EDGE_LOOP ( 'NONE', ( #643, #329 ) ) ;
#881 = CC_DESIGN_DATE_AND_TIME_ASSIGNMENT ( #290, #498, ( #300 ) ) ;
#882 = DIRECTION ( 'NONE',  ( -1.000000000000000000, 0.0000000000000000000, 0.0000000000000000000 ) ) ;
#883 = VECTOR ( 'NONE', #35, 1000.000000000000000 ) ;
#884 = AXIS2_PLACEMENT_3D ( 'NONE', #98, #786, #732 ) ;
#885 = CIRCLE ( 'NONE', #754, 0.7499999999999997780 ) ;
#886 = VERTEX_POINT ( 'NONE', #337 ) ;
#887 = ORIENTED_EDGE ( 'NONE', *, *, #444, .F. ) ;
#888 = DIRECTION ( 'NONE',  ( 1.000000000000000000, 0.0000000000000000000, -0.0000000000000000000 ) ) ;
#889 = EDGE_CURVE ( 'NONE', #223, #872, #318, .T. ) ;
#890 = MECHANICAL_CONTEXT ( 'NONE', #270, 'mechanical' ) ;
#891 = ADVANCED_FACE ( 'NONE', ( #565 ), #680, .F. ) ;
#892 = EDGE_CURVE ( 'NONE', #615, #499, #799, .T. ) ;
#893 = CARTESIAN_POINT ( 'NONE',  ( 3.649999999999999911, 7.960204194457795477E-17, 5.000000000000000000 ) ) ;
#894 = VECTOR ( 'NONE', #185, 1000.000000000000000 ) ;
#895 = EDGE_LOOP ( 'NONE', ( #815, #585, #442, #257 ) ) ;
#896 = ORIENTED_EDGE ( 'NONE', *, *, #663, .F. ) ;
#897 = DIRECTION ( 'NONE',  ( -1.000000000000000000, 0.0000000000000000000, -0.0000000000000000000 ) ) ;
#898 = ADVANCED_FACE ( 'NONE', ( #406 ), #204, .T. ) ;
#899 =( GEOMETRIC_REPRESENTATION_CONTEXT ( 3 ) GLOBAL_UNCERTAINTY_ASSIGNED_CONTEXT ( ( #642 ) ) GLOBAL_UNIT_ASSIGNED_CONTEXT ( ( #761, #283, #702 ) ) REPRESENTATION_CONTEXT ( 'NONE', 'WORKASPACE' ) );
#900 = DIRECTION ( 'NONE',  ( 0.0000000000000000000, 0.0000000000000000000, -1.000000000000000000 ) ) ;
#901 = PRODUCT_DEFINITION_SHAPE ( 'NONE', 'NONE',  #473 ) ;
ENDSEC;
END-ISO-10303-21;
