ISO-10303-21;
HEADER;
FILE_DESCRIPTION (( 'STEP AP214' ),
    '1' );
FILE_NAME ('pogopin 2P-2.54PH-7.2H²àº¸.STEP',
    '2019-08-23T03:59:00',
    ( '' ),
    ( '' ),
    'SwSTEP 2.0',
    'SolidWorks 2018',
    '' );
FILE_SCHEMA (( 'AUTOMOTIVE_DESIGN' ));
ENDSEC;

DATA;
#1 = VECTOR ( 'NONE', #634, 1000.000000000000000 ) ;
#2 = ORIENTED_EDGE ( 'NONE', *, *, #1289, .T. ) ;
#3 = ORIENTED_EDGE ( 'NONE', *, *, #385, .F. ) ;
#4 = LINE ( 'NONE', #503, #811 ) ;
#5 = EDGE_CURVE ( 'NONE', #734, #1062, #716, .T. ) ;
#6 = DIRECTION ( 'NONE',  ( 1.000000000000000000, 0.0000000000000000000, 0.0000000000000000000 ) ) ;
#7 = DIRECTION ( 'NONE',  ( 0.0000000000000000000, 1.000000000000000000, 0.0000000000000000000 ) ) ;
#8 = ORIENTED_EDGE ( 'NONE', *, *, #869, .F. ) ;
#9 = CARTESIAN_POINT ( 'NONE',  ( 2.299999999999999822, 0.09999999999999982514, 2.050000000000000266 ) ) ;
#10 = CARTESIAN_POINT ( 'NONE',  ( 0.5000000000000000000, 0.3999999999999997446, -0.6500000000000000222 ) ) ;
#11 = AXIS2_PLACEMENT_3D ( 'NONE', #566, #368, #983 ) ;
#12 = EDGE_LOOP ( 'NONE', ( #8, #1033, #763, #16 ) ) ;
#13 = AXIS2_PLACEMENT_3D ( 'NONE', #445, #1060, #886 ) ;
#14 = DIRECTION ( 'NONE',  ( 0.0000000000000000000, -1.000000000000000000, 0.0000000000000000000 ) ) ;
#15 = VERTEX_POINT ( 'NONE', #1297 ) ;
#16 = ORIENTED_EDGE ( 'NONE', *, *, #227, .T. ) ;
#17 = CYLINDRICAL_SURFACE ( 'NONE', #1069, 0.2000000000000000944 ) ;
#18 = MANIFOLD_SOLID_BREP ( 'Ô²½Ç5', #901 ) ;
#19 =( LENGTH_UNIT ( ) NAMED_UNIT ( * ) SI_UNIT ( .MILLI., .METRE. ) );
#20 = FACE_OUTER_BOUND ( 'NONE', #941, .T. ) ;
#21 = PRESENTATION_LAYER_ASSIGNMENT (  '', '', ( #737 ) ) ;
#22 = DIRECTION ( 'NONE',  ( -0.0000000000000000000, 1.000000000000000000, 0.0000000000000000000 ) ) ;
#23 = AXIS2_PLACEMENT_3D ( 'NONE', #1094, #697, #802 ) ;
#24 =( NAMED_UNIT ( * ) SI_UNIT ( $, .STERADIAN. ) SOLID_ANGLE_UNIT ( ) );
#25 = EDGE_LOOP ( 'NONE', ( #283, #898 ) ) ;
#26 = FACE_OUTER_BOUND ( 'NONE', #260, .T. ) ;
#27 = CARTESIAN_POINT ( 'NONE',  ( -0.5000000000000000000, -1.600000000000000311, 1.450000000000000178 ) ) ;
#28 = ORIENTED_EDGE ( 'NONE', *, *, #930, .T. ) ;
#29 = ORIENTED_EDGE ( 'NONE', *, *, #842, .T. ) ;
#30 = CARTESIAN_POINT ( 'NONE',  ( -2.000000000000000000, -1.600000000000000311, -0.6500000000000000222 ) ) ;
#31 = CIRCLE ( 'NONE', #805, 0.7500000000000001110 ) ;
#32 = EDGE_LOOP ( 'NONE', ( #159, #684, #609, #157 ) ) ;
#33 = EDGE_CURVE ( 'NONE', #957, #714, #1095, .T. ) ;
#34 = CARTESIAN_POINT ( 'NONE',  ( 2.500000000000000000, 0.09999999999999982514, 1.850000000000000089 ) ) ;
#35 = EDGE_CURVE ( 'NONE', #531, #672, #456, .T. ) ;
#36 = EDGE_LOOP ( 'NONE', ( #306, #647 ) ) ;
#37 = CARTESIAN_POINT ( 'NONE',  ( 1.250000000000000000, 5.399999999999998579, 0.1400000000000001521 ) ) ;
#38 = ORIENTED_EDGE ( 'NONE', *, *, #988, .F. ) ;
#39 = VERTEX_POINT ( 'NONE', #48 ) ;
#40 = CIRCLE ( 'NONE', #23, 0.4000000000000000222 ) ;
#41 = EDGE_CURVE ( 'NONE', #542, #960, #185, .T. ) ;
#42 = VECTOR ( 'NONE', #1006, 1000.000000000000000 ) ;
#43 = ORIENTED_EDGE ( 'NONE', *, *, #282, .F. ) ;
#44 = ORIENTED_EDGE ( 'NONE', *, *, #988, .T. ) ;
#45 = CIRCLE ( 'NONE', #587, 0.2000000000000000944 ) ;
#46 = PLANE ( 'NONE',  #1177 ) ;
#47 = EDGE_LOOP ( 'NONE', ( #1218, #1078, #416, #38 ) ) ;
#48 = CARTESIAN_POINT ( 'NONE',  ( 2.000000000000000000, 0.3999999999999997446, 1.450000000000000178 ) ) ;
#49 = ORIENTED_EDGE ( 'NONE', *, *, #132, .T. ) ;
#50 = EDGE_CURVE ( 'NONE', #1149, #1161, #952, .T. ) ;
#51 = DIRECTION ( 'NONE',  ( 0.0000000000000000000, -0.0000000000000000000, 1.000000000000000000 ) ) ;
#52 = DIRECTION ( 'NONE',  ( -1.000000000000000000, 0.0000000000000000000, 0.0000000000000000000 ) ) ;
#53 = ADVANCED_FACE ( 'NONE', ( #851 ), #591, .T. ) ;
#54 = VECTOR ( 'NONE', #727, 1000.000000000000000 ) ;
#55 =( GEOMETRIC_REPRESENTATION_CONTEXT ( 3 ) GLOBAL_UNCERTAINTY_ASSIGNED_CONTEXT ( ( #473 ) ) GLOBAL_UNIT_ASSIGNED_CONTEXT ( ( #791, #1079, #160 ) ) REPRESENTATION_CONTEXT ( 'NONE', 'WORKASPACE' ) );
#56 = FACE_OUTER_BOUND ( 'NONE', #277, .T. ) ;
#57 = CARTESIAN_POINT ( 'NONE',  ( 1.250000000000000000, 3.600000000000000089, 0.1400000000000001521 ) ) ;
#58 = ORIENTED_EDGE ( 'NONE', *, *, #913, .F. ) ;
#59 = LINE ( 'NONE', #717, #141 ) ;
#60 = ORIENTED_EDGE ( 'NONE', *, *, #1266, .F. ) ;
#61 = VERTEX_POINT ( 'NONE', #396 ) ;
#62 = SPHERICAL_SURFACE ( 'NONE', #249, 0.2000000000000000111 ) ;
#63 = ORIENTED_EDGE ( 'NONE', *, *, #247, .T. ) ;
#64 = AXIS2_PLACEMENT_3D ( 'NONE', #732, #534, #1268 ) ;
#65 = DIRECTION ( 'NONE',  ( -0.0000000000000000000, -0.0000000000000000000, -1.000000000000000000 ) ) ;
#66 = PLANE ( 'NONE',  #1246 ) ;
#67 = ORIENTED_EDGE ( 'NONE', *, *, #1067, .F. ) ;
#68 = PLANE ( 'NONE',  #558 ) ;
#69 = EDGE_LOOP ( 'NONE', ( #870, #880, #1127, #308, #296 ) ) ;
#70 = AXIS2_PLACEMENT_3D ( 'NONE', #576, #1300, #370 ) ;
#71 = DIRECTION ( 'NONE',  ( -1.000000000000000000, 0.0000000000000000000, 0.0000000000000000000 ) ) ;
#72 = CARTESIAN_POINT ( 'NONE',  ( 0.0000000000000000000, 0.0000000000000000000, -0.6500000000000000222 ) ) ;
#73 = CARTESIAN_POINT ( 'NONE',  ( 1.250000000000000000, 5.799999999999998934, 0.1400000000000001521 ) ) ;
#74 = EDGE_LOOP ( 'NONE', ( #781, #660, #359, #878 ) ) ;
#75 = CARTESIAN_POINT ( 'NONE',  ( 2.750000000000000000, 1.399999999999999689, 1.350000000000000089 ) ) ;
#76 = ORIENTED_EDGE ( 'NONE', *, *, #267, .T. ) ;
#77 = VECTOR ( 'NONE', #1111, 1000.000000000000000 ) ;
#78 = DIRECTION ( 'NONE',  ( -0.0000000000000000000, -1.000000000000000000, -0.0000000000000000000 ) ) ;
#79 = CARTESIAN_POINT ( 'NONE',  ( 1.250000000000000000, 14.41421356237309048, 0.1400000000000001521 ) ) ;
#80 = CARTESIAN_POINT ( 'NONE',  ( -0.5000000000000000000, -1.600000000000000311, 1.450000000000000178 ) ) ;
#81 = CIRCLE ( 'NONE', #887, 0.7500000000000001110 ) ;
#82 = CIRCLE ( 'NONE', #1102, 0.2000000000000000944 ) ;
#83 = DIRECTION ( 'NONE',  ( -5.421010862427522170E-17, 1.000000000000000000, -0.0000000000000000000 ) ) ;
#84 = ORIENTED_EDGE ( 'NONE', *, *, #807, .T. ) ;
#85 = CYLINDRICAL_SURFACE ( 'NONE', #234, 0.7500000000000001110 ) ;
#86 = DIRECTION ( 'NONE',  ( -1.000000000000000000, -5.421010862427522170E-17, 0.0000000000000000000 ) ) ;
#87 = CARTESIAN_POINT ( 'NONE',  ( 1.250000000000000000, 3.399999999999999911, 0.1400000000000001521 ) ) ;
#88 = LINE ( 'NONE', #1346, #1171 ) ;
#89 = DIRECTION ( 'NONE',  ( -1.000000000000000000, 0.0000000000000000000, 0.0000000000000000000 ) ) ;
#90 = ADVANCED_FACE ( 'NONE', ( #613 ), #1166, .T. ) ;
#91 = PLANE ( 'NONE',  #379 ) ;
#92 = DIRECTION ( 'NONE',  ( -1.000000000000000000, 0.0000000000000000000, 0.0000000000000000000 ) ) ;
#93 = AXIS2_PLACEMENT_3D ( 'NONE', #321, #852, #438 ) ;
#94 =( NAMED_UNIT ( * ) SI_UNIT ( $, .STERADIAN. ) SOLID_ANGLE_UNIT ( ) );
#95 = AXIS2_PLACEMENT_3D ( 'NONE', #713, #1221, #303 ) ;
#96 = DIRECTION ( 'NONE',  ( 0.0000000000000000000, -1.000000000000000000, 0.0000000000000000000 ) ) ;
#97 = EDGE_CURVE ( 'NONE', #784, #570, #481, .T. ) ;
#98 = VERTEX_POINT ( 'NONE', #491 ) ;
#99 = ADVANCED_FACE ( 'NONE', ( #980, #203, #497 ), #1103, .F. ) ;
#100 = DIRECTION ( 'NONE',  ( 0.0000000000000000000, 0.0000000000000000000, -1.000000000000000000 ) ) ;
#101 = CARTESIAN_POINT ( 'NONE',  ( -2.750000000000000000, -1.400000000000000133, 1.350000000000000089 ) ) ;
#102 = ORIENTED_EDGE ( 'NONE', *, *, #35, .T. ) ;
#103 = PRESENTATION_STYLE_ASSIGNMENT (( #248 ) ) ;
#104 = FACE_OUTER_BOUND ( 'NONE', #327, .T. ) ;
#105 = TOROIDAL_SURFACE ( 'NONE', #148, 0.1000000000000001027, 0.4000000000000000222 ) ;
#106 = CARTESIAN_POINT ( 'NONE',  ( -1.250000000000000000, 3.399999999999999911, 0.1400000000000001521 ) ) ;
#107 = DIRECTION ( 'NONE',  ( 0.0000000000000000000, -0.0000000000000000000, 1.000000000000000000 ) ) ;
#108 = ORIENTED_EDGE ( 'NONE', *, *, #169, .F. ) ;
#109 = CARTESIAN_POINT ( 'NONE',  ( 1.250000000000000000, 5.399999999999998579, 0.6400000000000002354 ) ) ;
#110 = FACE_OUTER_BOUND ( 'NONE', #861, .T. ) ;
#111 = ORIENTED_EDGE ( 'NONE', *, *, #216, .F. ) ;
#112 = VECTOR ( 'NONE', #130, 1000.000000000000000 ) ;
#113 = DIRECTION ( 'NONE',  ( -1.000000000000000000, 0.0000000000000000000, 0.0000000000000000000 ) ) ;
#114 = DIRECTION ( 'NONE',  ( 0.0000000000000000000, 0.0000000000000000000, -1.000000000000000000 ) ) ;
#115 = CARTESIAN_POINT ( 'NONE',  ( 0.5000000000000000000, 0.3999999999999997446, 0.1400000000000001521 ) ) ;
#116 = PLANE ( 'NONE',  #437 ) ;
#117 = AXIS2_PLACEMENT_3D ( 'NONE', #1211, #589, #803 ) ;
#118 = CARTESIAN_POINT ( 'NONE',  ( 1.250000000000000000, 5.399999999999998579, 0.1400000000000001521 ) ) ;
#119 = VERTEX_POINT ( 'NONE', #599 ) ;
#120 = CARTESIAN_POINT ( 'NONE',  ( -1.250000000000000000, 3.599999999999999201, 0.1400000000000001521 ) ) ;
#121 = ORIENTED_EDGE ( 'NONE', *, *, #146, .T. ) ;
#122 = VECTOR ( 'NONE', #1023, 1000.000000000000000 ) ;
#123 = AXIS2_PLACEMENT_3D ( 'NONE', #1122, #200, #607 ) ;
#124 = DIRECTION ( 'NONE',  ( -0.0000000000000000000, -0.0000000000000000000, -1.000000000000000000 ) ) ;
#125 = CYLINDRICAL_SURFACE ( 'NONE', #1175, 0.7500000000000001110 ) ;
#126 = ADVANCED_FACE ( 'NONE', ( #351 ), #68, .F. ) ;
#127 = FILL_AREA_STYLE_COLOUR ( '', #729 ) ;
#128 = VERTEX_POINT ( 'NONE', #700 ) ;
#129 = VECTOR ( 'NONE', #738, 1000.000000000000000 ) ;
#130 = DIRECTION ( 'NONE',  ( -0.0000000000000000000, -0.0000000000000000000, -1.000000000000000000 ) ) ;
#131 = VECTOR ( 'NONE', #231, 1000.000000000000000 ) ;
#132 = EDGE_CURVE ( 'NONE', #372, #501, #666, .T. ) ;
#133 = VERTEX_POINT ( 'NONE', #1112 ) ;
#134 = SURFACE_SIDE_STYLE ('',( #390 ) ) ;
#135 = PLANE ( 'NONE',  #799 ) ;
#136 = ORIENTED_EDGE ( 'NONE', *, *, #216, .T. ) ;
#137 = VECTOR ( 'NONE', #1208, 1000.000000000000000 ) ;
#138 = FILL_AREA_STYLE ('',( #127 ) ) ;
#139 = DIRECTION ( 'NONE',  ( -0.0000000000000000000, -0.0000000000000000000, -1.000000000000000000 ) ) ;
#140 = VECTOR ( 'NONE', #476, 1000.000000000000000 ) ;
#141 = VECTOR ( 'NONE', #78, 1000.000000000000000 ) ;
#142 = AXIS2_PLACEMENT_3D ( 'NONE', #590, #710, #279 ) ;
#143 = PLANE ( 'NONE',  #13 ) ;
#144 = FACE_OUTER_BOUND ( 'NONE', #795, .T. ) ;
#145 = DIRECTION ( 'NONE',  ( 0.0000000000000000000, 1.000000000000000000, 0.0000000000000000000 ) ) ;
#146 = EDGE_CURVE ( 'NONE', #728, #369, #1209, .T. ) ;
#147 = UNCERTAINTY_MEASURE_WITH_UNIT (LENGTH_MEASURE( 1.000000000000000082E-05 ), #178, 'distance_accuracy_value', 'NONE');
#148 = AXIS2_PLACEMENT_3D ( 'NONE', #518, #428, #207 ) ;
#149 = DIRECTION ( 'NONE',  ( 0.0000000000000000000, 0.0000000000000000000, -1.000000000000000000 ) ) ;
#150 = EDGE_LOOP ( 'NONE', ( #639, #593 ) ) ;
#151 = EDGE_CURVE ( 'NONE', #820, #61, #82, .T. ) ;
#152 = ORIENTED_EDGE ( 'NONE', *, *, #1178, .F. ) ;
#153 = CARTESIAN_POINT ( 'NONE',  ( -2.750000000000000000, -1.400000000000000133, 1.350000000000000089 ) ) ;
#154 = CIRCLE ( 'NONE', #451, 0.7500000000000001110 ) ;
#155 = ORIENTED_EDGE ( 'NONE', *, *, #974, .F. ) ;
#156 = ORIENTED_EDGE ( 'NONE', *, *, #319, .F. ) ;
#157 = ORIENTED_EDGE ( 'NONE', *, *, #357, .T. ) ;
#158 = DIRECTION ( 'NONE',  ( -0.0000000000000000000, -0.0000000000000000000, -1.000000000000000000 ) ) ;
#159 = ORIENTED_EDGE ( 'NONE', *, *, #300, .T. ) ;
#160 =( NAMED_UNIT ( * ) SI_UNIT ( $, .STERADIAN. ) SOLID_ANGLE_UNIT ( ) );
#161 = DIRECTION ( 'NONE',  ( 0.0000000000000000000, -1.000000000000000000, 0.0000000000000000000 ) ) ;
#162 = ORIENTED_EDGE ( 'NONE', *, *, #904, .F. ) ;
#163 = AXIS2_PLACEMENT_3D ( 'NONE', #745, #752, #961 ) ;
#165 = EDGE_LOOP ( 'NONE', ( #313, #1324 ) ) ;
#164 = AXIS2_PLACEMENT_3D ( 'NONE', #1262, #1140, #1253 ) ;
#166 = DIRECTION ( 'NONE',  ( 0.0000000000000000000, 0.0000000000000000000, -1.000000000000000000 ) ) ;
#167 = COLOUR_RGB ( '',1.000000000000000000, 1.000000000000000000, 0.0000000000000000000 ) ;
#168 = AXIS2_PLACEMENT_3D ( 'NONE', #608, #395, #603 ) ;
#169 = EDGE_CURVE ( 'NONE', #734, #918, #611, .T. ) ;
#170 = DIRECTION ( 'NONE',  ( -0.0000000000000000000, -1.000000000000000000, -0.0000000000000000000 ) ) ;
#171 = PLANE ( 'NONE',  #117 ) ;
#172 = CIRCLE ( 'NONE', #64, 0.7500000000000001110 ) ;
#173 = VECTOR ( 'NONE', #124, 1000.000000000000000 ) ;
#174 = SURFACE_SIDE_STYLE ('',( #1164 ) ) ;
#175 = ORIENTED_EDGE ( 'NONE', *, *, #817, .T. ) ;
#176 = AXIS2_PLACEMENT_3D ( 'NONE', #453, #780, #987 ) ;
#177 = ORIENTED_EDGE ( 'NONE', *, *, #982, .T. ) ;
#178 =( LENGTH_UNIT ( ) NAMED_UNIT ( * ) SI_UNIT ( .MILLI., .METRE. ) );
#179 = DIRECTION ( 'NONE',  ( 0.0000000000000000000, -0.0000000000000000000, -1.000000000000000000 ) ) ;
#180 = VECTOR ( 'NONE', #628, 1000.000000000000000 ) ;
#181 = PRESENTATION_LAYER_ASSIGNMENT (  '', '', ( #678 ) ) ;
#182 = LINE ( 'NONE', #381, #137 ) ;
#183 = DIRECTION ( 'NONE',  ( -1.000000000000000000, 0.0000000000000000000, 0.0000000000000000000 ) ) ;
#184 = AXIS2_PLACEMENT_3D ( 'NONE', #614, #192, #399 ) ;
#185 = CIRCLE ( 'NONE', #1301, 0.5500000000000001554 ) ;
#186 = CARTESIAN_POINT ( 'NONE',  ( 1.250000000000000000, 5.799999999999998934, 0.2400000000000002409 ) ) ;
#187 = DIRECTION ( 'NONE',  ( 0.0000000000000000000, 0.0000000000000000000, 1.000000000000000000 ) ) ;
#188 = ORIENTED_EDGE ( 'NONE', *, *, #1195, .F. ) ;
#189 = DIRECTION ( 'NONE',  ( -0.0000000000000000000, -1.000000000000000000, -0.0000000000000000000 ) ) ;
#190 = EDGE_LOOP ( 'NONE', ( #553, #998, #448, #687 ) ) ;
#191 = DIRECTION ( 'NONE',  ( -1.000000000000000000, 0.0000000000000000000, 0.0000000000000000000 ) ) ;
#192 = DIRECTION ( 'NONE',  ( -0.0000000000000000000, 1.000000000000000000, -0.0000000000000000000 ) ) ;
#193 = FILL_AREA_STYLE_COLOUR ( '', #167 ) ;
#194 = DIRECTION ( 'NONE',  ( 1.000000000000000000, 0.0000000000000000000, 0.0000000000000000000 ) ) ;
#195 = CARTESIAN_POINT ( 'NONE',  ( -0.5000000000000001110, 0.3999999999999997446, -0.6500000000000000222 ) ) ;
#196 = PLANE ( 'NONE',  #1190 ) ;
#197 = DIRECTION ( 'NONE',  ( -0.0000000000000000000, 1.000000000000000000, -0.0000000000000000000 ) ) ;
#198 = EDGE_LOOP ( 'NONE', ( #1148, #1226 ) ) ;
#199 = CARTESIAN_POINT ( 'NONE',  ( -2.000000000000000000, 0.3999999999999997446, 0.1400000000000001521 ) ) ;
#200 = DIRECTION ( 'NONE',  ( -1.000000000000000000, 0.0000000000000000000, 0.0000000000000000000 ) ) ;
#201 = CARTESIAN_POINT ( 'NONE',  ( -1.250000000000000000, 3.399999999999999911, 0.6900000000000002798 ) ) ;
#202 = DIRECTION ( 'NONE',  ( 0.0000000000000000000, -1.000000000000000000, 0.0000000000000000000 ) ) ;
#203 = FACE_BOUND ( 'NONE', #150, .T. ) ;
#204 = ORIENTED_EDGE ( 'NONE', *, *, #974, .T. ) ;
#205 = DIRECTION ( 'NONE',  ( -1.000000000000000000, 0.0000000000000000000, 0.0000000000000000000 ) ) ;
#206 = LINE ( 'NONE', #945, #1 ) ;
#207 = DIRECTION ( 'NONE',  ( 0.0000000000000000000, 0.0000000000000000000, 1.000000000000000000 ) ) ;
#208 = DIRECTION ( 'NONE',  ( 0.0000000000000000000, -1.000000000000000000, 0.0000000000000000000 ) ) ;
#209 = LINE ( 'NONE', #986, #293 ) ;
#210 =( LENGTH_UNIT ( ) NAMED_UNIT ( * ) SI_UNIT ( .MILLI., .METRE. ) );
#211 = ORIENTED_EDGE ( 'NONE', *, *, #1195, .T. ) ;
#212 = ORIENTED_EDGE ( 'NONE', *, *, #665, .T. ) ;
#213 = ORIENTED_EDGE ( 'NONE', *, *, #50, .T. ) ;
#214 = CARTESIAN_POINT ( 'NONE',  ( -1.250000000000000000, 0.3999999999999997446, 0.8900000000000002354 ) ) ;
#215 = ADVANCED_FACE ( 'NONE', ( #1225 ), #171, .T. ) ;
#216 = EDGE_CURVE ( 'NONE', #1077, #506, #1024, .T. ) ;
#217 = EDGE_CURVE ( 'NONE', #1051, #1149, #346, .T. ) ;
#218 = CARTESIAN_POINT ( 'NONE',  ( 0.5000000000000000000, -1.600000000000000311, 1.450000000000000178 ) ) ;
#219 = ADVANCED_FACE ( 'NONE', ( #1191 ), #1308, .F. ) ;
#220 = FACE_OUTER_BOUND ( 'NONE', #190, .T. ) ;
#221 = CARTESIAN_POINT ( 'NONE',  ( 2.750000000000000000, 1.399999999999999689, -1.350000000000000089 ) ) ;
#222 = TOROIDAL_SURFACE ( 'NONE', #1017, 0.1000000000000001027, 0.4000000000000000222 ) ;
#223 = DIRECTION ( 'NONE',  ( -0.0000000000000000000, 0.0000000000000000000, -1.000000000000000000 ) ) ;
#224 = DIRECTION ( 'NONE',  ( -0.0000000000000000000, -0.0000000000000000000, -1.000000000000000000 ) ) ;
#225 = AXIS2_PLACEMENT_3D ( 'NONE', #731, #612, #813 ) ;
#226 = EDGE_LOOP ( 'NONE', ( #471, #401, #58 ) ) ;
#227 = EDGE_CURVE ( 'NONE', #235, #540, #1156, .T. ) ;
#228 = CARTESIAN_POINT ( 'NONE',  ( -2.000000000000000000, 0.3999999999999997446, 1.450000000000000178 ) ) ;
#229 = ORIENTED_EDGE ( 'NONE', *, *, #5, .T. ) ;
#230 = DIRECTION ( 'NONE',  ( -1.000000000000000000, 0.0000000000000000000, 0.0000000000000000000 ) ) ;
#231 = DIRECTION ( 'NONE',  ( -0.0000000000000000000, -0.0000000000000000000, -1.000000000000000000 ) ) ;
#232 = CARTESIAN_POINT ( 'NONE',  ( 1.250000000000000000, 14.41421356237309048, 0.1400000000000001521 ) ) ;
#233 = EDGE_LOOP ( 'NONE', ( #517, #2, #240, #1063 ) ) ;
#234 = AXIS2_PLACEMENT_3D ( 'NONE', #623, #96, #725 ) ;
#235 = VERTEX_POINT ( 'NONE', #635 ) ;
#236 = CARTESIAN_POINT ( 'NONE',  ( 0.5000000000000000000, 0.3999999999999997446, 1.450000000000000178 ) ) ;
#237 = VECTOR ( 'NONE', #1090, 1000.000000000000000 ) ;
#238 = EDGE_CURVE ( 'NONE', #845, #742, #882, .T. ) ;
#239 = ORIENTED_EDGE ( 'NONE', *, *, #365, .F. ) ;
#240 = ORIENTED_EDGE ( 'NONE', *, *, #1031, .T. ) ;
#241 = VECTOR ( 'NONE', #423, 1000.000000000000000 ) ;
#242 = DIRECTION ( 'NONE',  ( 0.0000000000000000000, -0.0000000000000000000, 1.000000000000000000 ) ) ;
#243 = PRESENTATION_LAYER_ASSIGNMENT (  '', '', ( #977 ) ) ;
#244 = FACE_OUTER_BOUND ( 'NONE', #74, .T. ) ;
#245 = ORIENTED_EDGE ( 'NONE', *, *, #665, .F. ) ;
#246 = DIRECTION ( 'NONE',  ( 0.0000000000000000000, 1.000000000000000000, 0.0000000000000000000 ) ) ;
#247 = EDGE_CURVE ( 'NONE', #1066, #1051, #367, .T. ) ;
#248 = SURFACE_STYLE_USAGE ( .BOTH. , #134 ) ;
#249 = AXIS2_PLACEMENT_3D ( 'NONE', #877, #1176, #555 ) ;
#250 = AXIS2_PLACEMENT_3D ( 'NONE', #1240, #723, #1027 ) ;
#251 = EDGE_CURVE ( 'NONE', #531, #993, #1341, .T. ) ;
#252 = LINE ( 'NONE', #410, #825 ) ;
#253 = LINE ( 'NONE', #963, #1310 ) ;
#254 = CARTESIAN_POINT ( 'NONE',  ( -2.750000000000000000, -1.400000000000000133, -1.350000000000000089 ) ) ;
#255 = MANIFOLD_SOLID_BREP ( 'Ô²½Ç3', #544 ) ;
#256 = ORIENTED_EDGE ( 'NONE', *, *, #807, .F. ) ;
#257 = VERTEX_POINT ( 'NONE', #505 ) ;
#258 = EDGE_CURVE ( 'NONE', #509, #501, #472, .T. ) ;
#259 = VECTOR ( 'NONE', #1165, 1000.000000000000000 ) ;
#260 = EDGE_LOOP ( 'NONE', ( #44, #1204, #1059, #1113 ) ) ;
#261 = AXIS2_PLACEMENT_3D ( 'NONE', #292, #404, #183 ) ;
#262 = ORIENTED_EDGE ( 'NONE', *, *, #1155, .T. ) ;
#263 = DIRECTION ( 'NONE',  ( 0.0000000000000000000, -1.000000000000000000, 0.0000000000000000000 ) ) ;
#264 = ORIENTED_EDGE ( 'NONE', *, *, #352, .F. ) ;
#265 = ORIENTED_EDGE ( 'NONE', *, *, #1031, .F. ) ;
#266 = AXIS2_PLACEMENT_3D ( 'NONE', #572, #170, #689 ) ;
#267 = EDGE_CURVE ( 'NONE', #460, #838, #1106, .T. ) ;
#268 = VECTOR ( 'NONE', #483, 1000.000000000000000 ) ;
#269 = ORIENTED_EDGE ( 'NONE', *, *, #382, .T. ) ;
#270 = ORIENTED_EDGE ( 'NONE', *, *, #688, .F. ) ;
#271 = CARTESIAN_POINT ( 'NONE',  ( -2.750000000000000000, 5.799999999999998934, 1.350000000000000089 ) ) ;
#272 = VECTOR ( 'NONE', #1311, 1000.000000000000000 ) ;
#273 = CARTESIAN_POINT ( 'NONE',  ( 0.0000000000000000000, 0.0000000000000000000, 1.350000000000000089 ) ) ;
#274 = ADVANCED_FACE ( 'NONE', ( #894 ), #654, .T. ) ;
#275 = ORIENTED_EDGE ( 'NONE', *, *, #842, .F. ) ;
#276 = EDGE_CURVE ( 'NONE', #290, #918, #565, .T. ) ;
#277 = EDGE_LOOP ( 'NONE', ( #1000, #482, #162, #384 ) ) ;
#278 = CARTESIAN_POINT ( 'NONE',  ( -1.250000000000000000, 0.3999999999999997446, -0.6099999999999999867 ) ) ;
#279 = DIRECTION ( 'NONE',  ( 1.000000000000000000, 0.0000000000000000000, 0.0000000000000000000 ) ) ;
#280 = VECTOR ( 'NONE', #1138, 1000.000000000000000 ) ;
#281 = CARTESIAN_POINT ( 'NONE',  ( -1.250000000000000000, 5.399999999999998579, 0.1400000000000001521 ) ) ;
#282 = EDGE_CURVE ( 'NONE', #1203, #570, #4, .T. ) ;
#283 = ORIENTED_EDGE ( 'NONE', *, *, #41, .T. ) ;
#284 = CARTESIAN_POINT ( 'NONE',  ( 1.250000000000000000, 0.3999999999999997446, 0.1400000000000001521 ) ) ;
#285 = TOROIDAL_SURFACE ( 'NONE', #806, 0.5500000000000001554, 0.2000000000000000111 ) ;
#286 = FACE_OUTER_BOUND ( 'NONE', #985, .T. ) ;
#287 = CARTESIAN_POINT ( 'NONE',  ( 1.250000000000000000, 5.399999999999998579, 0.2400000000000002409 ) ) ;
#288 = DIRECTION ( 'NONE',  ( -0.0000000000000000000, -1.000000000000000000, -0.0000000000000000000 ) ) ;
#289 = LINE ( 'NONE', #10, #129 ) ;
#290 = VERTEX_POINT ( 'NONE', #1337 ) ;
#291 = SPHERICAL_SURFACE ( 'NONE', #1217, 0.2000000000000000111 ) ;
#292 = CARTESIAN_POINT ( 'NONE',  ( -2.500000000000000000, 0.09999999999999982514, 1.850000000000000089 ) ) ;
#293 = VECTOR ( 'NONE', #1286, 1000.000000000000000 ) ;
#294 = CARTESIAN_POINT ( 'NONE',  ( 2.000000000000000000, -1.600000000000000311, -0.6500000000000000222 ) ) ;
#295 = DIRECTION ( 'NONE',  ( -0.0000000000000000000, 0.0000000000000000000, 1.000000000000000000 ) ) ;
#296 = ORIENTED_EDGE ( 'NONE', *, *, #1201, .F. ) ;
#297 = EDGE_CURVE ( 'NONE', #714, #1151, #459, .T. ) ;
#298 = AXIS2_PLACEMENT_3D ( 'NONE', #507, #305, #826 ) ;
#299 = DIRECTION ( 'NONE',  ( 0.0000000000000000000, -1.000000000000000000, 0.0000000000000000000 ) ) ;
#300 = EDGE_CURVE ( 'NONE', #671, #993, #939, .T. ) ;
#301 = ORIENTED_EDGE ( 'NONE', *, *, #146, .F. ) ;
#302 = CARTESIAN_POINT ( 'NONE',  ( 2.000000000000000000, 0.3999999999999997446, 1.450000000000000178 ) ) ;
#303 = DIRECTION ( 'NONE',  ( 0.0000000000000000000, -0.0000000000000000000, -1.000000000000000000 ) ) ;
#304 = CARTESIAN_POINT ( 'NONE',  ( 0.5000000000000000000, -1.600000000000000311, 1.450000000000000178 ) ) ;
#305 = DIRECTION ( 'NONE',  ( 0.0000000000000000000, -1.000000000000000000, 0.0000000000000000000 ) ) ;
#306 = ORIENTED_EDGE ( 'NONE', *, *, #904, .T. ) ;
#307 = CARTESIAN_POINT ( 'NONE',  ( -0.5000000000000001110, 0.3999999999999997446, 1.450000000000000178 ) ) ;
#308 = ORIENTED_EDGE ( 'NONE', *, *, #217, .F. ) ;
#309 = CIRCLE ( 'NONE', #580, 0.2000000000000000944 ) ;
#310 = AXIS2_PLACEMENT_3D ( 'NONE', #1048, #528, #1185 ) ;
#311 = CARTESIAN_POINT ( 'NONE',  ( 0.5000000000000000000, 0.3999999999999997446, -0.6500000000000000222 ) ) ;
#312 = DIRECTION ( 'NONE',  ( 0.0000000000000000000, 0.0000000000000000000, -1.000000000000000000 ) ) ;
#313 = ORIENTED_EDGE ( 'NONE', *, *, #586, .T. ) ;
#314 = DIRECTION ( 'NONE',  ( 0.0000000000000000000, 1.000000000000000000, 0.0000000000000000000 ) ) ;
#315 = LINE ( 'NONE', #254, #1037 ) ;
#316 = VECTOR ( 'NONE', #139, 1000.000000000000000 ) ;
#317 = DIRECTION ( 'NONE',  ( 0.0000000000000000000, -1.000000000000000000, 0.0000000000000000000 ) ) ;
#318 = CARTESIAN_POINT ( 'NONE',  ( 2.000000000000000000, 0.3999999999999997446, 0.1400000000000001521 ) ) ;
#319 = EDGE_CURVE ( 'NONE', #702, #944, #797, .T. ) ;
#320 = ORIENTED_EDGE ( 'NONE', *, *, #547, .T. ) ;
#321 = CARTESIAN_POINT ( 'NONE',  ( -1.250000000000000000, 5.399999999999998579, 0.04000000000000004940 ) ) ;
#322 = EDGE_CURVE ( 'NONE', #98, #15, #1038, .T. ) ;
#323 = MECHANICAL_DESIGN_GEOMETRIC_PRESENTATION_REPRESENTATION (  '', ( #977 ), #1029 ) ;
#324 = EDGE_CURVE ( 'NONE', #15, #412, #1004, .T. ) ;
#325 = CARTESIAN_POINT ( 'NONE',  ( -2.500000000000000000, 0.09999999999999982514, 1.850000000000000089 ) ) ;
#326 = ADVANCED_FACE ( 'NONE', ( #1132 ), #1198, .T. ) ;
#327 = EDGE_LOOP ( 'NONE', ( #656, #633, #177, #1163 ) ) ;
#328 = DIRECTION ( 'NONE',  ( 0.0000000000000000000, 0.0000000000000000000, -1.000000000000000000 ) ) ;
#329 = EDGE_CURVE ( 'NONE', #98, #583, #552, .T. ) ;
#330 = CARTESIAN_POINT ( 'NONE',  ( 1.250000000000000000, 0.3999999999999997446, 0.1400000000000001521 ) ) ;
#331 = CIRCLE ( 'NONE', #868, 0.4000000000000000222 ) ;
#332 = CARTESIAN_POINT ( 'NONE',  ( 1.250000000000000000, 3.399999999999999911, 0.1400000000000001521 ) ) ;
#333 = CIRCLE ( 'NONE', #455, 0.1000000000000001027 ) ;
#334 = DIRECTION ( 'NONE',  ( -1.000000000000000000, 0.0000000000000000000, 0.0000000000000000000 ) ) ;
#335 = EDGE_LOOP ( 'NONE', ( #1034, #1108, #366, #916 ) ) ;
#336 = VECTOR ( 'NONE', #347, 1000.000000000000000 ) ;
#337 = ORIENTED_EDGE ( 'NONE', *, *, #169, .T. ) ;
#338 = CIRCLE ( 'NONE', #70, 0.2000000000000000944 ) ;
#339 = EDGE_LOOP ( 'NONE', ( #568, #76, #362, #910, #1307 ) ) ;
#340 = ORIENTED_EDGE ( 'NONE', *, *, #906, .F. ) ;
#341 = DIRECTION ( 'NONE',  ( 1.000000000000000000, -0.0000000000000000000, 1.224646799147352961E-16 ) ) ;
#342 = AXIS2_PLACEMENT_3D ( 'NONE', #1022, #1035, #89 ) ;
#343 = CLOSED_SHELL ( 'NONE', ( #648, #326, #1054, #440, #1160, #1343, #789, #1252, #435, #215, #126, #1327, #619, #831, #1091, #1212, #477 ) ) ;
#344 = CARTESIAN_POINT ( 'NONE',  ( -2.000000000000000000, 0.3999999999999997446, 1.450000000000000178 ) ) ;
#345 = APPLICATION_CONTEXT ( 'automotive_design' ) ;
#346 = CIRCLE ( 'NONE', #361, 0.7500000000000001110 ) ;
#347 = DIRECTION ( 'NONE',  ( -0.0000000000000000000, -0.0000000000000000000, -1.000000000000000000 ) ) ;
#348 = ORIENTED_EDGE ( 'NONE', *, *, #688, .T. ) ;
#349 = LINE ( 'NONE', #1193, #804 ) ;
#350 = AXIS2_PLACEMENT_3D ( 'NONE', #967, #1137, #1349 ) ;
#351 = FACE_OUTER_BOUND ( 'NONE', #1039, .T. ) ;
#352 = EDGE_CURVE ( 'NONE', #728, #1019, #364, .T. ) ;
#353 = FACE_OUTER_BOUND ( 'NONE', #32, .T. ) ;
#354 = TOROIDAL_SURFACE ( 'NONE', #1336, 0.5500000000000001554, 0.2000000000000000111 ) ;
#355 = CIRCLE ( 'NONE', #176, 0.1000000000000001027 ) ;
#356 = ORIENTED_EDGE ( 'NONE', *, *, #1178, .T. ) ;
#357 = EDGE_CURVE ( 'NONE', #944, #671, #856, .T. ) ;
#358 = CARTESIAN_POINT ( 'NONE',  ( -1.250000000000000000, 3.599999999999999201, -0.3599999999999999867 ) ) ;
#359 = ORIENTED_EDGE ( 'NONE', *, *, #1028, .T. ) ;
#360 =( NAMED_UNIT ( * ) PLANE_ANGLE_UNIT ( ) SI_UNIT ( $, .RADIAN. ) );
#361 = AXIS2_PLACEMENT_3D ( 'NONE', #1040, #1142, #1250 ) ;
#362 = ORIENTED_EDGE ( 'NONE', *, *, #1201, .T. ) ;
#363 = DIRECTION ( 'NONE',  ( 0.0000000000000000000, 1.000000000000000000, 0.0000000000000000000 ) ) ;
#364 = CIRCLE ( 'NONE', #640, 0.5500000000000001554 ) ;
#365 = EDGE_CURVE ( 'NONE', #785, #1077, #88, .T. ) ;
#366 = ORIENTED_EDGE ( 'NONE', *, *, #41, .F. ) ;
#367 = CIRCLE ( 'NONE', #1263, 0.7500000000000001110 ) ;
#368 = DIRECTION ( 'NONE',  ( 0.0000000000000000000, -1.000000000000000000, 0.0000000000000000000 ) ) ;
#369 = VERTEX_POINT ( 'NONE', #743 ) ;
#370 = DIRECTION ( 'NONE',  ( -1.000000000000000000, -1.355252715606879803E-16, 0.0000000000000000000 ) ) ;
#371 = EDGE_LOOP ( 'NONE', ( #504, #245, #1084, #823 ) ) ;
#372 = VERTEX_POINT ( 'NONE', #109 ) ;
#373 = CIRCLE ( 'NONE', #225, 0.1000000000000001027 ) ;
#374 = CARTESIAN_POINT ( 'NONE',  ( -2.750000000000000000, 1.399999999999999689, 1.350000000000000089 ) ) ;
#375 = SURFACE_STYLE_USAGE ( .BOTH. , #788 ) ;
#376 =( GEOMETRIC_REPRESENTATION_CONTEXT ( 3 ) GLOBAL_UNCERTAINTY_ASSIGNED_CONTEXT ( ( #951 ) ) GLOBAL_UNIT_ASSIGNED_CONTEXT ( ( #452, #1274, #24 ) ) REPRESENTATION_CONTEXT ( 'NONE', 'WORKASPACE' ) );
#377 = VECTOR ( 'NONE', #1157, 1000.000000000000000 ) ;
#378 = VECTOR ( 'NONE', #83, 1000.000000000000000 ) ;
#379 = AXIS2_PLACEMENT_3D ( 'NONE', #601, #299, #421 ) ;
#380 = ADVANCED_FACE ( 'NONE', ( #905 ), #863, .T. ) ;
#381 = CARTESIAN_POINT ( 'NONE',  ( 1.250000000000000000, 3.600000000000000089, 0.8900000000000002354 ) ) ;
#382 = EDGE_CURVE ( 'NONE', #573, #1066, #701, .T. ) ;
#383 = CARTESIAN_POINT ( 'NONE',  ( 0.0000000000000000000, 0.0000000000000000000, -0.6500000000000000222 ) ) ;
#384 = ORIENTED_EDGE ( 'NONE', *, *, #777, .F. ) ;
#385 = EDGE_CURVE ( 'NONE', #845, #785, #1064, .T. ) ;
#386 = ORIENTED_EDGE ( 'NONE', *, *, #319, .T. ) ;
#387 = AXIS2_PLACEMENT_3D ( 'NONE', #637, #1348, #526 ) ;
#388 = EDGE_CURVE ( 'NONE', #672, #702, #513, .T. ) ;
#389 = DIRECTION ( 'NONE',  ( 0.0000000000000000000, 0.0000000000000000000, -1.000000000000000000 ) ) ;
#390 = SURFACE_STYLE_FILL_AREA ( #138 ) ;
#391 = CIRCLE ( 'NONE', #463, 0.5500000000000001554 ) ;
#392 = DIRECTION ( 'NONE',  ( 0.0000000000000000000, 0.0000000000000000000, 1.000000000000000000 ) ) ;
#393 = ADVANCED_FACE ( 'NONE', ( #144 ), #867, .F. ) ;
#394 = VERTEX_POINT ( 'NONE', #1271 ) ;
#395 = DIRECTION ( 'NONE',  ( 1.000000000000000000, 0.0000000000000000000, 1.224646799147353207E-16 ) ) ;
#396 = CARTESIAN_POINT ( 'NONE',  ( -2.700000000000000178, 0.09999999999999982514, 1.850000000000000089 ) ) ;
#397 = AXIS2_PLACEMENT_3D ( 'NONE', #839, #208, #827 ) ;
#398 = EDGE_CURVE ( 'NONE', #570, #290, #984, .T. ) ;
#399 = DIRECTION ( 'NONE',  ( 0.0000000000000000000, 0.0000000000000000000, -1.000000000000000000 ) ) ;
#400 = CARTESIAN_POINT ( 'NONE',  ( -1.250000000000000000, 5.399999999999998579, 0.1400000000000001521 ) ) ;
#401 = ORIENTED_EDGE ( 'NONE', *, *, #709, .T. ) ;
#402 = DIRECTION ( 'NONE',  ( -1.000000000000000000, 0.0000000000000000000, 0.0000000000000000000 ) ) ;
#403 = ORIENTED_EDGE ( 'NONE', *, *, #747, .T. ) ;
#404 = DIRECTION ( 'NONE',  ( -0.0000000000000000000, -0.0000000000000000000, -1.000000000000000000 ) ) ;
#405 = DIRECTION ( 'NONE',  ( -1.000000000000000000, 0.0000000000000000000, 0.0000000000000000000 ) ) ;
#406 = DIRECTION ( 'NONE',  ( 0.0000000000000000000, 0.0000000000000000000, 1.000000000000000000 ) ) ;
#407 = AXIS2_PLACEMENT_3D ( 'NONE', #1117, #618, #719 ) ;
#408 = CARTESIAN_POINT ( 'NONE',  ( -1.250000000000000000, 3.399999999999999911, -0.4099999999999999756 ) ) ;
#409 = VECTOR ( 'NONE', #1107, 1000.000000000000000 ) ;
#410 = CARTESIAN_POINT ( 'NONE',  ( 1.250000000000000000, 14.41421356237309048, -0.3599999999999999867 ) ) ;
#411 = DIRECTION ( 'NONE',  ( -0.0000000000000000000, -1.000000000000000000, -0.0000000000000000000 ) ) ;
#412 = VERTEX_POINT ( 'NONE', #1057 ) ;
#413 = FILL_AREA_STYLE ('',( #514 ) ) ;
#414 = ORIENTED_EDGE ( 'NONE', *, *, #258, .F. ) ;
#415 = ORIENTED_EDGE ( 'NONE', *, *, #1067, .T. ) ;
#416 = ORIENTED_EDGE ( 'NONE', *, *, #876, .F. ) ;
#417 = LINE ( 'NONE', #153, #879 ) ;
#418 = DIRECTION ( 'NONE',  ( 0.0000000000000000000, -1.000000000000000000, 0.0000000000000000000 ) ) ;
#419 = ORIENTED_EDGE ( 'NONE', *, *, #953, .T. ) ;
#420 = CARTESIAN_POINT ( 'NONE',  ( 1.250000000000000000, 0.3999999999999997446, 0.1400000000000001521 ) ) ;
#421 = DIRECTION ( 'NONE',  ( 0.0000000000000000000, -0.0000000000000000000, -1.000000000000000000 ) ) ;
#422 = ORIENTED_EDGE ( 'NONE', *, *, #724, .F. ) ;
#423 = DIRECTION ( 'NONE',  ( 0.0000000000000000000, -1.000000000000000000, 0.0000000000000000000 ) ) ;
#424 = CARTESIAN_POINT ( 'NONE',  ( 2.000000000000000000, 0.3999999999999997446, 1.450000000000000178 ) ) ;
#425 = ORIENTED_EDGE ( 'NONE', *, *, #524, .F. ) ;
#426 = LINE ( 'NONE', #1306, #928 ) ;
#427 = ADVANCED_FACE ( 'NONE', ( #244 ), #917, .T. ) ;
#428 = DIRECTION ( 'NONE',  ( 0.0000000000000000000, 1.000000000000000000, 0.0000000000000000000 ) ) ;
#429 = LINE ( 'NONE', #683, #1303 ) ;
#430 = ORIENTED_EDGE ( 'NONE', *, *, #923, .T. ) ;
#431 = DIRECTION ( 'NONE',  ( -0.0000000000000000000, 1.000000000000000000, -0.0000000000000000000 ) ) ;
#432 = CARTESIAN_POINT ( 'NONE',  ( -0.5000000000000001110, 0.3999999999999997446, -0.6500000000000000222 ) ) ;
#433 = MECHANICAL_DESIGN_GEOMETRIC_PRESENTATION_REPRESENTATION (  '', ( #678 ), #490 ) ;
#434 = CARTESIAN_POINT ( 'NONE',  ( 0.5000000000000000000, 0.3999999999999997446, 1.450000000000000178 ) ) ;
#435 = ADVANCED_FACE ( 'NONE', ( #891 ), #135, .F. ) ;
#436 = PRODUCT_DEFINITION_CONTEXT ( 'detailed design', #345, 'design' ) ;
#437 = AXIS2_PLACEMENT_3D ( 'NONE', #946, #1032, #223 ) ;
#438 = DIRECTION ( 'NONE',  ( 0.0000000000000000000, 0.0000000000000000000, -1.000000000000000000 ) ) ;
#439 = DIRECTION ( 'NONE',  ( -1.000000000000000000, 0.0000000000000000000, 0.0000000000000000000 ) ) ;
#440 = ADVANCED_FACE ( 'NONE', ( #582 ), #595, .T. ) ;
#441 = ADVANCED_BREP_SHAPE_REPRESENTATION ( 'pogopin 2P-2.54PH-7.2H²àº¸', ( #18, #255, #779, #833 ), #969 ) ;
#442 = FACE_BOUND ( 'NONE', #642, .T. ) ;
#443 = CARTESIAN_POINT ( 'NONE',  ( -0.5000000000000000000, -1.600000000000000311, -0.6500000000000000222 ) ) ;
#444 = DIRECTION ( 'NONE',  ( 0.0000000000000000000, 0.0000000000000000000, -1.000000000000000000 ) ) ;
#445 = CARTESIAN_POINT ( 'NONE',  ( 2.000000000000000000, 0.3999999999999997446, 1.450000000000000178 ) ) ;
#446 = DIRECTION ( 'NONE',  ( 0.0000000000000000000, 1.000000000000000000, -0.0000000000000000000 ) ) ;
#447 = CARTESIAN_POINT ( 'NONE',  ( 1.250000000000000000, 5.799999999999998934, 0.04000000000000004940 ) ) ;
#448 = ORIENTED_EDGE ( 'NONE', *, *, #777, .T. ) ;
#449 = CIRCLE ( 'NONE', #168, 0.1999999999999999833 ) ;
#450 = AXIS2_PLACEMENT_3D ( 'NONE', #1290, #692, #675 ) ;
#451 = AXIS2_PLACEMENT_3D ( 'NONE', #760, #975, #1167 ) ;
#452 =( LENGTH_UNIT ( ) NAMED_UNIT ( * ) SI_UNIT ( .MILLI., .METRE. ) );
#453 = CARTESIAN_POINT ( 'NONE',  ( 1.250000000000000000, 5.799999999999998934, 0.1400000000000001521 ) ) ;
#454 = ORIENTED_EDGE ( 'NONE', *, *, #324, .F. ) ;
#455 = AXIS2_PLACEMENT_3D ( 'NONE', #1219, #1227, #1096 ) ;
#456 = LINE ( 'NONE', #996, #140 ) ;
#457 = EDGE_CURVE ( 'NONE', #1066, #1234, #772, .T. ) ;
#458 = CIRCLE ( 'NONE', #1296, 0.2000000000000000944 ) ;
#459 = CIRCLE ( 'NONE', #93, 0.4000000000000000222 ) ;
#460 = VERTEX_POINT ( 'NONE', #1068 ) ;
#461 = ORIENTED_EDGE ( 'NONE', *, *, #1318, .F. ) ;
#462 = AXIS2_PLACEMENT_3D ( 'NONE', #34, #1295, #1093 ) ;
#463 = AXIS2_PLACEMENT_3D ( 'NONE', #519, #197, #1243 ) ;
#464 = CARTESIAN_POINT ( 'NONE',  ( -2.500000000000000000, 0.09999999999999982514, 2.050000000000000266 ) ) ;
#465 = LINE ( 'NONE', #80, #77 ) ;
#466 = CARTESIAN_POINT ( 'NONE',  ( 0.5000000000000000000, -1.600000000000000311, 1.450000000000000178 ) ) ;
#467 = AXIS2_PLACEMENT_3D ( 'NONE', #1053, #652, #1259 ) ;
#468 = ORIENTED_EDGE ( 'NONE', *, *, #764, .F. ) ;
#469 = DIRECTION ( 'NONE',  ( 0.0000000000000000000, 0.0000000000000000000, 1.000000000000000000 ) ) ;
#470 = AXIS2_PLACEMENT_3D ( 'NONE', #344, #1162, #1045 ) ;
#471 = ORIENTED_EDGE ( 'NONE', *, *, #858, .F. ) ;
#472 = CIRCLE ( 'NONE', #616, 0.5000000000000001110 ) ;
#473 = UNCERTAINTY_MEASURE_WITH_UNIT (LENGTH_MEASURE( 1.000000000000000082E-05 ), #791, 'distance_accuracy_value', 'NONE');
#474 = VERTEX_POINT ( 'NONE', #464 ) ;
#475 = VERTEX_POINT ( 'NONE', #976 ) ;
#476 = DIRECTION ( 'NONE',  ( -1.000000000000000000, -0.0000000000000000000, -0.0000000000000000000 ) ) ;
#477 = ADVANCED_FACE ( 'NONE', ( #532 ), #486, .T. ) ;
#478 = VECTOR ( 'NONE', #520, 1000.000000000000000 ) ;
#479 = DIRECTION ( 'NONE',  ( 0.0000000000000000000, 1.000000000000000000, 0.0000000000000000000 ) ) ;
#480 = PRODUCT_DEFINITION ( 'Î´Öª', '', #569, #436 ) ;
#481 = LINE ( 'NONE', #924, #237 ) ;
#482 = ORIENTED_EDGE ( 'NONE', *, *, #297, .T. ) ;
#483 = DIRECTION ( 'NONE',  ( -0.0000000000000000000, -0.0000000000000000000, -1.000000000000000000 ) ) ;
#484 = FACE_OUTER_BOUND ( 'NONE', #567, .T. ) ;
#485 = ADVANCED_FACE ( 'NONE', ( #1187 ), #1281, .T. ) ;
#486 = TOROIDAL_SURFACE ( 'NONE', #949, 0.1000000000000001027, 0.4000000000000000222 ) ;
#487 = PRESENTATION_STYLE_ASSIGNMENT (( #631 ) ) ;
#488 = DIRECTION ( 'NONE',  ( 0.0000000000000000000, 0.0000000000000000000, 1.000000000000000000 ) ) ;
#489 = SURFACE_STYLE_USAGE ( .BOTH. , #174 ) ;
#490 =( GEOMETRIC_REPRESENTATION_CONTEXT ( 3 ) GLOBAL_UNCERTAINTY_ASSIGNED_CONTEXT ( ( #1183 ) ) GLOBAL_UNIT_ASSIGNED_CONTEXT ( ( #210, #1124, #94 ) ) REPRESENTATION_CONTEXT ( 'NONE', 'WORKASPACE' ) );
#491 = CARTESIAN_POINT ( 'NONE',  ( 2.700000000000000178, 0.09999999999999985290, 1.850000000000000089 ) ) ;
#492 = ORIENTED_EDGE ( 'NONE', *, *, #718, .F. ) ;
#493 = CARTESIAN_POINT ( 'NONE',  ( 1.250000000000000000, 0.3999999999999997446, 0.8900000000000002354 ) ) ;
#494 =( NAMED_UNIT ( * ) PLANE_ANGLE_UNIT ( ) SI_UNIT ( $, .RADIAN. ) );
#495 = LINE ( 'NONE', #741, #873 ) ;
#496 = AXIS2_PLACEMENT_3D ( 'NONE', #1043, #341, #1249 ) ;
#497 = FACE_OUTER_BOUND ( 'NONE', #1109, .T. ) ;
#498 = CARTESIAN_POINT ( 'NONE',  ( -2.000000000000000000, 0.3999999999999997446, 1.450000000000000178 ) ) ;
#499 = PLANE ( 'NONE',  #862 ) ;
#500 = EDGE_LOOP ( 'NONE', ( #1186, #761, #588 ) ) ;
#501 = VERTEX_POINT ( 'NONE', #888 ) ;
#502 = DIRECTION ( 'NONE',  ( 1.000000000000000000, -0.0000000000000000000, -0.0000000000000000000 ) ) ;
#503 = CARTESIAN_POINT ( 'NONE',  ( -2.000000000000000000, 0.3999999999999997446, -0.6500000000000000222 ) ) ;
#504 = ORIENTED_EDGE ( 'NONE', *, *, #876, .T. ) ;
#505 = CARTESIAN_POINT ( 'NONE',  ( -2.750000000000000000, 1.399999999999999689, -1.350000000000000089 ) ) ;
#506 = VERTEX_POINT ( 'NONE', #1277 ) ;
#507 = CARTESIAN_POINT ( 'NONE',  ( -1.250000000000000000, 0.3999999999999997446, 0.1400000000000001521 ) ) ;
#508 = DIRECTION ( 'NONE',  ( 1.000000000000000000, 0.0000000000000000000, 0.0000000000000000000 ) ) ;
#509 = VERTEX_POINT ( 'NONE', #765 ) ;
#510 = CARTESIAN_POINT ( 'NONE',  ( -2.750000000000000000, 1.399999999999999689, -1.350000000000000089 ) ) ;
#511 = CARTESIAN_POINT ( 'NONE',  ( 1.250000000000000000, 3.399999999999999911, -0.6099999999999999867 ) ) ;
#512 = STYLED_ITEM ( 'NONE', ( #564 ), #18 ) ;
#513 = LINE ( 'NONE', #959, #1073 ) ;
#514 = FILL_AREA_STYLE_COLOUR ( '', #1294 ) ;
#515 = EDGE_LOOP ( 'NONE', ( #971, #175 ) ) ;
#516 = ORIENTED_EDGE ( 'NONE', *, *, #718, .T. ) ;
#517 = ORIENTED_EDGE ( 'NONE', *, *, #895, .T. ) ;
#518 = CARTESIAN_POINT ( 'NONE',  ( -1.250000000000000000, 5.399999999999998579, 0.1400000000000001521 ) ) ;
#519 = CARTESIAN_POINT ( 'NONE',  ( -1.250000000000000000, 3.600000000000000089, 0.1400000000000001521 ) ) ;
#520 = DIRECTION ( 'NONE',  ( -0.0000000000000000000, -0.0000000000000000000, -1.000000000000000000 ) ) ;
#521 = CARTESIAN_POINT ( 'NONE',  ( -1.250000000000000000, 3.600000000000000089, 0.1400000000000001521 ) ) ;
#522 = AXIS2_PLACEMENT_3D ( 'NONE', #73, #1233, #187 ) ;
#523 = FACE_OUTER_BOUND ( 'NONE', #371, .T. ) ;
#524 = EDGE_CURVE ( 'NONE', #39, #573, #209, .T. ) ;
#525 = FACE_OUTER_BOUND ( 'NONE', #339, .T. ) ;
#526 = DIRECTION ( 'NONE',  ( 0.0000000000000000000, 0.0000000000000000000, 1.000000000000000000 ) ) ;
#527 = DIRECTION ( 'NONE',  ( 0.0000000000000000000, 1.000000000000000000, 0.0000000000000000000 ) ) ;
#528 = DIRECTION ( 'NONE',  ( -0.0000000000000000000, -0.0000000000000000000, -1.000000000000000000 ) ) ;
#529 = ADVANCED_FACE ( 'NONE', ( #1150 ), #1285, .F. ) ;
#530 = EDGE_LOOP ( 'NONE', ( #1134, #1264, #348, #337, #557 ) ) ;
#531 = VERTEX_POINT ( 'NONE', #655 ) ;
#532 = FACE_OUTER_BOUND ( 'NONE', #1315, .T. ) ;
#533 = ORIENTED_EDGE ( 'NONE', *, *, #398, .T. ) ;
#534 = DIRECTION ( 'NONE',  ( 0.0000000000000000000, -1.000000000000000000, 0.0000000000000000000 ) ) ;
#535 = AXIS2_PLACEMENT_3D ( 'NONE', #1331, #189, #950 ) ;
#536 = EDGE_LOOP ( 'NONE', ( #626, #49, #699, #964 ) ) ;
#537 = VERTEX_POINT ( 'NONE', #27 ) ;
#538 = AXIS2_PLACEMENT_3D ( 'NONE', #120, #431, #444 ) ;
#539 = DIRECTION ( 'NONE',  ( -0.0000000000000000000, -0.0000000000000000000, 1.000000000000000000 ) ) ;
#540 = VERTEX_POINT ( 'NONE', #1072 ) ;
#541 = DIRECTION ( 'NONE',  ( 0.0000000000000000000, 0.0000000000000000000, 1.000000000000000000 ) ) ;
#542 = VERTEX_POINT ( 'NONE', #668 ) ;
#543 = AXIS2_PLACEMENT_3D ( 'NONE', #408, #1321, #392 ) ;
#544 = CLOSED_SHELL ( 'NONE', ( #1260, #274, #644, #636, #1267, #1125, #942, #962, #393, #219, #1104, #933, #740, #1042, #427, #722, #746 ) ) ;
#545 = LINE ( 'NONE', #1316, #575 ) ;
#546 = DIRECTION ( 'NONE',  ( -0.0000000000000000000, 1.000000000000000000, -0.0000000000000000000 ) ) ;
#547 = EDGE_CURVE ( 'NONE', #885, #1203, #669, .T. ) ;
#548 =( NAMED_UNIT ( * ) SI_UNIT ( $, .STERADIAN. ) SOLID_ANGLE_UNIT ( ) );
#549 = ORIENTED_EDGE ( 'NONE', *, *, #151, .F. ) ;
#550 = VECTOR ( 'NONE', #602, 1000.000000000000000 ) ;
#551 = CARTESIAN_POINT ( 'NONE',  ( 1.250000000000000000, 3.600000000000000089, 0.1400000000000001521 ) ) ;
#552 = LINE ( 'NONE', #646, #1255 ) ;
#553 = ORIENTED_EDGE ( 'NONE', *, *, #297, .F. ) ;
#554 = ORIENTED_EDGE ( 'NONE', *, *, #276, .T. ) ;
#555 = DIRECTION ( 'NONE',  ( 1.000000000000000000, 0.0000000000000000000, 0.0000000000000000000 ) ) ;
#556 = CARTESIAN_POINT ( 'NONE',  ( -2.750000000000000000, -1.400000000000000133, 1.350000000000000089 ) ) ;
#557 = ORIENTED_EDGE ( 'NONE', *, *, #1318, .T. ) ;
#558 = AXIS2_PLACEMENT_3D ( 'NONE', #383, #295, #909 ) ;
#559 = VECTOR ( 'NONE', #334, 1000.000000000000000 ) ;
#560 = DIRECTION ( 'NONE',  ( -0.0000000000000000000, -0.0000000000000000000, -1.000000000000000000 ) ) ;
#561 = AXIS2_PLACEMENT_3D ( 'NONE', #307, #86, #815 ) ;
#562 = EDGE_CURVE ( 'NONE', #369, #1299, #31, .T. ) ;
#563 = VECTOR ( 'NONE', #1049, 1000.000000000000000 ) ;
#564 = PRESENTATION_STYLE_ASSIGNMENT (( #375 ) ) ;
#565 = LINE ( 'NONE', #1326, #378 ) ;
#566 = CARTESIAN_POINT ( 'NONE',  ( 1.250000000000000000, 3.600000000000000089, 0.1400000000000001521 ) ) ;
#567 = EDGE_LOOP ( 'NONE', ( #1074, #516, #1292, #816 ) ) ;
#568 = ORIENTED_EDGE ( 'NONE', *, *, #674, .F. ) ;
#569 = PRODUCT_DEFINITION_FORMATION_WITH_SPECIFIED_SOURCE ( 'ÈÎºÎ', '', #938, .NOT_KNOWN. ) ;
#570 = VERTEX_POINT ( 'NONE', #30 ) ;
#571 = AXIS2_PLACEMENT_3D ( 'NONE', #721, #1013, #71 ) ;
#572 = CARTESIAN_POINT ( 'NONE',  ( 1.250000000000000000, 5.399999999999998579, 0.1400000000000001521 ) ) ;
#573 = VERTEX_POINT ( 'NONE', #236 ) ;
#574 = ORIENTED_EDGE ( 'NONE', *, *, #1041, .F. ) ;
#575 = VECTOR ( 'NONE', #1128, 1000.000000000000000 ) ;
#576 = CARTESIAN_POINT ( 'NONE',  ( -2.500000000000000000, 0.09999999999999982514, 1.850000000000000089 ) ) ;
#577 = FACE_OUTER_BOUND ( 'NONE', #968, .T. ) ;
#578 = ORIENTED_EDGE ( 'NONE', *, *, #632, .T. ) ;
#579 = EDGE_LOOP ( 'NONE', ( #926, #892, #808, #748 ) ) ;
#580 = AXIS2_PLACEMENT_3D ( 'NONE', #1030, #1114, #191 ) ;
#581 = LINE ( 'NONE', #750, #771 ) ;
#582 = FACE_OUTER_BOUND ( 'NONE', #69, .T. ) ;
#583 = VERTEX_POINT ( 'NONE', #896 ) ;
#584 = DIRECTION ( 'NONE',  ( 0.0000000000000000000, -1.000000000000000000, 0.0000000000000000000 ) ) ;
#585 = VECTOR ( 'NONE', #194, 1000.000000000000000 ) ;
#586 = EDGE_CURVE ( 'NONE', #1194, #1345, #355, .T. ) ;
#587 = AXIS2_PLACEMENT_3D ( 'NONE', #809, #1317, #405 ) ;
#588 = ORIENTED_EDGE ( 'NONE', *, *, #696, .T. ) ;
#589 = DIRECTION ( 'NONE',  ( -0.0000000000000000000, 0.0000000000000000000, 1.000000000000000000 ) ) ;
#590 = CARTESIAN_POINT ( 'NONE',  ( 2.500000000000000000, 0.09999999999999982514, 1.850000000000000089 ) ) ;
#591 = SPHERICAL_SURFACE ( 'NONE', #705, 0.2000000000000000111 ) ;
#592 = FACE_OUTER_BOUND ( 'NONE', #1335, .T. ) ;
#593 = ORIENTED_EDGE ( 'NONE', *, *, #923, .F. ) ;
#594 = EDGE_LOOP ( 'NONE', ( #269, #775, #1245, #3, #152 ) ) ;
#595 = CYLINDRICAL_SURFACE ( 'NONE', #11, 0.7500000000000001110 ) ;
#596 = CARTESIAN_POINT ( 'NONE',  ( -2.000000000000000000, -1.600000000000000311, 1.450000000000000178 ) ) ;
#597 = ORIENTED_EDGE ( 'NONE', *, *, #817, .F. ) ;
#598 = VERTEX_POINT ( 'NONE', #358 ) ;
#599 = CARTESIAN_POINT ( 'NONE',  ( -1.250000000000000000, 3.599999999999999201, 0.6400000000000002354 ) ) ;
#600 = EDGE_LOOP ( 'NONE', ( #617, #680, #356, #1173 ) ) ;
#601 = CARTESIAN_POINT ( 'NONE',  ( -0.5000000000000001110, 0.3999999999999997446, 1.450000000000000178 ) ) ;
#602 = DIRECTION ( 'NONE',  ( -1.000000000000000000, -0.0000000000000000000, -0.0000000000000000000 ) ) ;
#603 = DIRECTION ( 'NONE',  ( 0.0000000000000000000, 0.0000000000000000000, -1.000000000000000000 ) ) ;
#604 = CARTESIAN_POINT ( 'NONE',  ( -2.299999999999999822, 0.09999999999999985290, 2.050000000000000266 ) ) ;
#605 = AXIS2_PLACEMENT_3D ( 'NONE', #106, #843, #328 ) ;
#606 = ADVANCED_FACE ( 'NONE', ( #20 ), #62, .T. ) ;
#607 = DIRECTION ( 'NONE',  ( 0.0000000000000000000, 0.0000000000000000000, 1.000000000000000000 ) ) ;
#608 = CARTESIAN_POINT ( 'NONE',  ( 1.250000000000000000, 3.399999999999999911, -0.4099999999999999756 ) ) ;
#609 = ORIENTED_EDGE ( 'NONE', *, *, #650, .F. ) ;
#610 = SURFACE_SIDE_STYLE ('',( #686 ) ) ;
#611 = LINE ( 'NONE', #1314, #268 ) ;
#612 = DIRECTION ( 'NONE',  ( 0.0000000000000000000, 1.000000000000000000, 0.0000000000000000000 ) ) ;
#613 = FACE_OUTER_BOUND ( 'NONE', #500, .T. ) ;
#614 = CARTESIAN_POINT ( 'NONE',  ( -1.250000000000000000, 3.599999999999999201, 0.1400000000000001521 ) ) ;
#615 = CARTESIAN_POINT ( 'NONE',  ( -2.299999999999999822, 0.09999999999999985290, 1.850000000000000089 ) ) ;
#616 = AXIS2_PLACEMENT_3D ( 'NONE', #1342, #1018, #836 ) ;
#617 = ORIENTED_EDGE ( 'NONE', *, *, #792, .T. ) ;
#618 = DIRECTION ( 'NONE',  ( 0.0000000000000000000, -1.000000000000000000, 0.0000000000000000000 ) ) ;
#619 = ADVANCED_FACE ( 'NONE', ( #622, #835 ), #1280, .T. ) ;
#620 = FACE_OUTER_BOUND ( 'NONE', #1180, .T. ) ;
#621 = EDGE_CURVE ( 'NONE', #1149, #506, #429, .T. ) ;
#622 = FACE_BOUND ( 'NONE', #981, .T. ) ;
#623 = CARTESIAN_POINT ( 'NONE',  ( -1.250000000000000000, 3.600000000000000089, 0.1400000000000001521 ) ) ;
#624 = EDGE_CURVE ( 'NONE', #128, #671, #315, .T. ) ;
#625 = CARTESIAN_POINT ( 'NONE',  ( -1.250000000000000000, 3.600000000000000089, 0.8900000000000002354 ) ) ;
#626 = ORIENTED_EDGE ( 'NONE', *, *, #724, .T. ) ;
#627 = CARTESIAN_POINT ( 'NONE',  ( 2.000000000000000000, 0.3999999999999997446, -0.6500000000000000222 ) ) ;
#628 = DIRECTION ( 'NONE',  ( -0.0000000000000000000, -0.0000000000000000000, -1.000000000000000000 ) ) ;
#629 = PRODUCT_DEFINITION_SHAPE ( 'NONE', 'NONE',  #480 ) ;
#630 = DIRECTION ( 'NONE',  ( 0.0000000000000000000, 0.0000000000000000000, -1.000000000000000000 ) ) ;
#631 = SURFACE_STYLE_USAGE ( .BOTH. , #610 ) ;
#632 = EDGE_CURVE ( 'NONE', #15, #133, #1130, .T. ) ;
#633 = ORIENTED_EDGE ( 'NONE', *, *, #267, .F. ) ;
#634 = DIRECTION ( 'NONE',  ( 0.0000000000000000000, -1.000000000000000000, 0.0000000000000000000 ) ) ;
#635 = CARTESIAN_POINT ( 'NONE',  ( -2.700000000000000178, 0.09999999999999982514, 1.350000000000000089 ) ) ;
#636 = ADVANCED_FACE ( 'NONE', ( #1001 ), #1251, .T. ) ;
#637 = CARTESIAN_POINT ( 'NONE',  ( 1.250000000000000000, 3.600000000000000089, 0.1400000000000001521 ) ) ;
#638 = CARTESIAN_POINT ( 'NONE',  ( -2.750000000000000000, 1.399999999999999689, 1.350000000000000089 ) ) ;
#639 = ORIENTED_EDGE ( 'NONE', *, *, #1121, .F. ) ;
#640 = AXIS2_PLACEMENT_3D ( 'NONE', #521, #546, #965 ) ;
#641 = ORIENTED_EDGE ( 'NONE', *, *, #388, .T. ) ;
#642 = EDGE_LOOP ( 'NONE', ( #1116, #67 ) ) ;
#643 = DIRECTION ( 'NONE',  ( -0.0000000000000000000, 1.000000000000000000, -0.0000000000000000000 ) ) ;
#644 = ADVANCED_FACE ( 'NONE', ( #890 ), #354, .T. ) ;
#645 = VERTEX_POINT ( 'NONE', #790 ) ;
#646 = CARTESIAN_POINT ( 'NONE',  ( 2.700000000000000178, 0.09999999999999985290, 2.050000000000000266 ) ) ;
#647 = ORIENTED_EDGE ( 'NONE', *, *, #1070, .T. ) ;
#648 = ADVANCED_FACE ( 'NONE', ( #736 ), #222, .T. ) ;
#649 = ORIENTED_EDGE ( 'NONE', *, *, #1087, .T. ) ;
#650 = EDGE_CURVE ( 'NONE', #944, #531, #925, .T. ) ;
#651 = DIRECTION ( 'NONE',  ( 0.0000000000000000000, 0.0000000000000000000, 1.000000000000000000 ) ) ;
#652 = DIRECTION ( 'NONE',  ( 0.0000000000000000000, 0.0000000000000000000, -1.000000000000000000 ) ) ;
#653 = CYLINDRICAL_SURFACE ( 'NONE', #664, 0.5000000000000001110 ) ;
#654 = CYLINDRICAL_SURFACE ( 'NONE', #535, 0.5000000000000001110 ) ;
#655 = CARTESIAN_POINT ( 'NONE',  ( 2.750000000000000000, 1.399999999999999689, 1.350000000000000089 ) ) ;
#656 = ORIENTED_EDGE ( 'NONE', *, *, #773, .F. ) ;
#657 = AXIS2_PLACEMENT_3D ( 'NONE', #857, #113, #651 ) ;
#658 = APPLICATION_CONTEXT ( 'automotive_design' ) ;
#659 = MECHANICAL_DESIGN_GEOMETRIC_PRESENTATION_REPRESENTATION (  '', ( #512 ), #55 ) ;
#660 = ORIENTED_EDGE ( 'NONE', *, *, #33, .T. ) ;
#661 = DIRECTION ( 'NONE',  ( 0.0000000000000000000, 0.0000000000000000000, 1.000000000000000000 ) ) ;
#662 = CIRCLE ( 'NONE', #828, 0.5000000000000001110 ) ;
#663 = DIRECTION ( 'NONE',  ( 0.0000000000000000000, -1.000000000000000000, 0.0000000000000000000 ) ) ;
#664 = AXIS2_PLACEMENT_3D ( 'NONE', #79, #1026, #922 ) ;
#665 = EDGE_CURVE ( 'NONE', #702, #128, #417, .T. ) ;
#666 = LINE ( 'NONE', #1230, #42 ) ;
#667 = FACE_OUTER_BOUND ( 'NONE', #1126, .T. ) ;
#668 = CARTESIAN_POINT ( 'NONE',  ( 1.250000000000000000, 3.600000000000000089, 0.6900000000000002798 ) ) ;
#669 = LINE ( 'NONE', #1189, #1086 ) ;
#670 = ORIENTED_EDGE ( 'NONE', *, *, #919, .T. ) ;
#671 = VERTEX_POINT ( 'NONE', #1293 ) ;
#672 = VERTEX_POINT ( 'NONE', #374 ) ;
#673 = AXIS2_PLACEMENT_3D ( 'NONE', #201, #943, #630 ) ;
#674 = EDGE_CURVE ( 'NONE', #460, #1161, #182, .T. ) ;
#675 = DIRECTION ( 'NONE',  ( 0.0000000000000000000, 0.0000000000000000000, -1.000000000000000000 ) ) ;
#676 = EDGE_LOOP ( 'NONE', ( #1320, #1146, #156, #212 ) ) ;
#677 = LINE ( 'NONE', #1236, #409 ) ;
#678 = STYLED_ITEM ( 'NONE', ( #487 ), #255 ) ;
#679 = CARTESIAN_POINT ( 'NONE',  ( -1.250000000000000000, 3.600000000000000089, -0.4099999999999999756 ) ) ;
#680 = ORIENTED_EDGE ( 'NONE', *, *, #524, .T. ) ;
#681 = ORIENTED_EDGE ( 'NONE', *, *, #457, .F. ) ;
#682 = TOROIDAL_SURFACE ( 'NONE', #605, 0.5500000000000001554, 0.2000000000000000111 ) ;
#683 = CARTESIAN_POINT ( 'NONE',  ( 2.000000000000000000, 0.3999999999999997446, 1.450000000000000178 ) ) ;
#684 = ORIENTED_EDGE ( 'NONE', *, *, #251, .F. ) ;
#685 = AXIS2_PLACEMENT_3D ( 'NONE', #900, #263, #776 ) ;
#686 = SURFACE_STYLE_FILL_AREA ( #413 ) ;
#687 = ORIENTED_EDGE ( 'NONE', *, *, #1070, .F. ) ;
#688 = EDGE_CURVE ( 'NONE', #690, #734, #1136, .T. ) ;
#689 = DIRECTION ( 'NONE',  ( 0.0000000000000000000, 0.0000000000000000000, 1.000000000000000000 ) ) ;
#690 = VERTEX_POINT ( 'NONE', #278 ) ;
#691 = ORIENTED_EDGE ( 'NONE', *, *, #322, .T. ) ;
#692 = DIRECTION ( 'NONE',  ( 0.0000000000000000000, -1.000000000000000000, 0.0000000000000000000 ) ) ;
#693 = FACE_OUTER_BOUND ( 'NONE', #12, .T. ) ;
#694 = LINE ( 'NONE', #638, #478 ) ;
#695 = DIRECTION ( 'NONE',  ( 0.0000000000000000000, -1.000000000000000000, 0.0000000000000000000 ) ) ;
#696 = EDGE_CURVE ( 'NONE', #98, #133, #841, .T. ) ;
#697 = DIRECTION ( 'NONE',  ( -1.000000000000000000, 0.0000000000000000000, 0.0000000000000000000 ) ) ;
#698 = CIRCLE ( 'NONE', #538, 0.5000000000000001110 ) ;
#699 = ORIENTED_EDGE ( 'NONE', *, *, #1050, .T. ) ;
#700 = CARTESIAN_POINT ( 'NONE',  ( -2.750000000000000000, -1.400000000000000133, -1.350000000000000089 ) ) ;
#701 = LINE ( 'NONE', #434, #336 ) ;
#702 = VERTEX_POINT ( 'NONE', #1076 ) ;
#703 = ORIENTED_EDGE ( 'NONE', *, *, #747, .F. ) ;
#704 = CARTESIAN_POINT ( 'NONE',  ( 0.5000000000000000000, 0.3999999999999997446, 1.450000000000000178 ) ) ;
#705 = AXIS2_PLACEMENT_3D ( 'NONE', #1008, #1003, #402 ) ;
#706 = CARTESIAN_POINT ( 'NONE',  ( -1.250000000000000000, 5.399999999999998579, 0.1400000000000001521 ) ) ;
#707 = EDGE_LOOP ( 'NONE', ( #188, #84, #670, #991, #340 ) ) ;
#708 = DIRECTION ( 'NONE',  ( 0.0000000000000000000, -0.0000000000000000000, -1.000000000000000000 ) ) ;
#709 = EDGE_CURVE ( 'NONE', #474, #820, #338, .T. ) ;
#710 = DIRECTION ( 'NONE',  ( 0.0000000000000000000, 1.000000000000000000, 0.0000000000000000000 ) ) ;
#711 = LINE ( 'NONE', #1020, #1192 ) ;
#712 = CARTESIAN_POINT ( 'NONE',  ( -2.500000000000000000, 0.09999999999999982514, 1.850000000000000089 ) ) ;
#713 = CARTESIAN_POINT ( 'NONE',  ( -1.250000000000000000, 3.600000000000000089, 0.1400000000000001521 ) ) ;
#714 = VERTEX_POINT ( 'NONE', #782 ) ;
#715 = DIRECTION ( 'NONE',  ( 0.0000000000000000000, -1.000000000000000000, 0.0000000000000000000 ) ) ;
#716 = CIRCLE ( 'NONE', #685, 0.7500000000000001110 ) ;
#717 = CARTESIAN_POINT ( 'NONE',  ( -1.250000000000000000, 14.41421356237309048, 0.6400000000000002354 ) ) ;
#718 = EDGE_CURVE ( 'NONE', #372, #394, #1339, .T. ) ;
#719 = DIRECTION ( 'NONE',  ( 0.0000000000000000000, 0.0000000000000000000, 1.000000000000000000 ) ) ;
#720 = EDGE_LOOP ( 'NONE', ( #854, #829, #43, #461 ) ) ;
#721 = CARTESIAN_POINT ( 'NONE',  ( 2.500000000000000000, 0.09999999999999982514, 2.050000000000000266 ) ) ;
#722 = ADVANCED_FACE ( 'NONE', ( #912 ), #46, .T. ) ;
#723 = DIRECTION ( 'NONE',  ( 0.0000000000000000000, -1.000000000000000000, 0.0000000000000000000 ) ) ;
#724 = EDGE_CURVE ( 'NONE', #394, #372, #751, .T. ) ;
#725 = DIRECTION ( 'NONE',  ( 0.0000000000000000000, 0.0000000000000000000, -1.000000000000000000 ) ) ;
#726 = ORIENTED_EDGE ( 'NONE', *, *, #930, .F. ) ;
#727 = DIRECTION ( 'NONE',  ( -0.0000000000000000000, 1.000000000000000000, -0.0000000000000000000 ) ) ;
#728 = VERTEX_POINT ( 'NONE', #679 ) ;
#729 = COLOUR_RGB ( '',1.000000000000000000, 1.000000000000000000, 1.000000000000000000 ) ;
#730 = CYLINDRICAL_SURFACE ( 'NONE', #893, 0.2000000000000000944 ) ;
#731 = CARTESIAN_POINT ( 'NONE',  ( -1.250000000000000000, 5.799999999999998934, 0.1400000000000001521 ) ) ;
#732 = CARTESIAN_POINT ( 'NONE',  ( -1.250000000000000000, 0.3999999999999997446, 0.1400000000000001521 ) ) ;
#733 = AXIS2_PLACEMENT_3D ( 'NONE', #232, #1272, #1265 ) ;
#734 = VERTEX_POINT ( 'NONE', #798 ) ;
#735 = CIRCLE ( 'NONE', #657, 0.1999999999999999833 ) ;
#736 = FACE_OUTER_BOUND ( 'NONE', #1269, .T. ) ;
#737 = STYLED_ITEM ( 'NONE', ( #103 ), #441 ) ;
#738 = DIRECTION ( 'NONE',  ( 0.0000000000000000000, -1.000000000000000000, 0.0000000000000000000 ) ) ;
#739 = EDGE_CURVE ( 'NONE', #61, #235, #349, .T. ) ;
#740 = ADVANCED_FACE ( 'NONE', ( #442, #947 ), #1319, .F. ) ;
#741 = CARTESIAN_POINT ( 'NONE',  ( 2.000000000000000000, -1.600000000000000311, 1.450000000000000178 ) ) ;
#742 = VERTEX_POINT ( 'NONE', #914 ) ;
#743 = CARTESIAN_POINT ( 'NONE',  ( -1.250000000000000000, 3.399999999999999911, -0.6099999999999999867 ) ) ;
#744 = CARTESIAN_POINT ( 'NONE',  ( 2.500000000000000000, 0.09999999999999982514, 1.850000000000000089 ) ) ;
#745 = CARTESIAN_POINT ( 'NONE',  ( -1.250000000000000000, 14.41421356237309048, 0.1400000000000001521 ) ) ;
#746 = ADVANCED_FACE ( 'NONE', ( #220 ), #1046, .T. ) ;
#747 = EDGE_CURVE ( 'NONE', #537, #290, #465, .T. ) ;
#748 = ORIENTED_EDGE ( 'NONE', *, *, #238, .F. ) ;
#749 = DIRECTION ( 'NONE',  ( -0.0000000000000000000, -0.0000000000000000000, -1.000000000000000000 ) ) ;
#750 = CARTESIAN_POINT ( 'NONE',  ( 1.250000000000000000, 3.600000000000000089, -0.6099999999999999867 ) ) ;
#751 = CIRCLE ( 'NONE', #1119, 0.5000000000000001110 ) ;
#752 = DIRECTION ( 'NONE',  ( -0.0000000000000000000, -1.000000000000000000, -0.0000000000000000000 ) ) ;
#753 = CARTESIAN_POINT ( 'NONE',  ( -2.500000000000000000, 0.09999999999999982514, 1.350000000000000089 ) ) ;
#754 = DIRECTION ( 'NONE',  ( 0.0000000000000000000, -1.000000000000000000, 0.0000000000000000000 ) ) ;
#755 = AXIS2_PLACEMENT_3D ( 'NONE', #1170, #224, #1044 ) ;
#756 = ORIENTED_EDGE ( 'NONE', *, *, #97, .F. ) ;
#757 = DIRECTION ( 'NONE',  ( -0.0000000000000000000, -1.000000000000000000, -0.0000000000000000000 ) ) ;
#758 = AXIS2_PLACEMENT_3D ( 'NONE', #744, #749, #205 ) ;
#759 = ORIENTED_EDGE ( 'NONE', *, *, #709, .F. ) ;
#760 = CARTESIAN_POINT ( 'NONE',  ( 1.250000000000000000, 3.399999999999999911, 0.1400000000000001521 ) ) ;
#761 = ORIENTED_EDGE ( 'NONE', *, *, #322, .F. ) ;
#762 = EDGE_CURVE ( 'NONE', #784, #537, #426, .T. ) ;
#763 = ORIENTED_EDGE ( 'NONE', *, *, #739, .T. ) ;
#764 = EDGE_CURVE ( 'NONE', #1345, #1194, #989, .T. ) ;
#765 = CARTESIAN_POINT ( 'NONE',  ( 1.250000000000000000, 3.600000000000000089, -0.3599999999999999867 ) ) ;
#766 = ORIENTED_EDGE ( 'NONE', *, *, #282, .T. ) ;
#767 = AXIS2_PLACEMENT_3D ( 'NONE', #400, #1015, #1115 ) ;
#768 = EDGE_CURVE ( 'NONE', #714, #957, #662, .T. ) ;
#769 = PRODUCT_CONTEXT ( 'NONE', #658, 'mechanical' ) ;
#770 = DIRECTION ( 'NONE',  ( 0.0000000000000000000, 0.0000000000000000000, 1.000000000000000000 ) ) ;
#771 = VECTOR ( 'NONE', #754, 1000.000000000000000 ) ;
#772 = LINE ( 'NONE', #884, #316 ) ;
#773 = EDGE_CURVE ( 'NONE', #838, #960, #449, .T. ) ;
#774 = EDGE_LOOP ( 'NONE', ( #972, #691, #1283, #794 ) ) ;
#775 = ORIENTED_EDGE ( 'NONE', *, *, #457, .T. ) ;
#776 = DIRECTION ( 'NONE',  ( 0.0000000000000000000, 0.0000000000000000000, -1.000000000000000000 ) ) ;
#777 = EDGE_CURVE ( 'NONE', #957, #475, #40, .T. ) ;
#778 = ORIENTED_EDGE ( 'NONE', *, *, #1248, .T. ) ;
#779 = MANIFOLD_SOLID_BREP ( 'Ô²½Ç4', #343 ) ;
#780 = DIRECTION ( 'NONE',  ( 0.0000000000000000000, 1.000000000000000000, 0.0000000000000000000 ) ) ;
#781 = ORIENTED_EDGE ( 'NONE', *, *, #953, .F. ) ;
#782 = CARTESIAN_POINT ( 'NONE',  ( -1.250000000000000000, 5.399999999999998579, -0.3599999999999999867 ) ) ;
#783 = VECTOR ( 'NONE', #936, 1000.000000000000000 ) ;
#784 = VERTEX_POINT ( 'NONE', #596 ) ;
#785 = VERTEX_POINT ( 'NONE', #1097 ) ;
#786 = EDGE_CURVE ( 'NONE', #372, #1194, #331, .T. ) ;
#787 = CARTESIAN_POINT ( 'NONE',  ( 2.750000000000000000, -1.400000000000000133, 1.350000000000000089 ) ) ;
#788 = SURFACE_SIDE_STYLE ('',( #855 ) ) ;
#789 = ADVANCED_FACE ( 'NONE', ( #1071 ), #66, .F. ) ;
#790 = CARTESIAN_POINT ( 'NONE',  ( -0.5000000000000001110, 0.3999999999999997446, 1.450000000000000178 ) ) ;
#791 =( LENGTH_UNIT ( ) NAMED_UNIT ( * ) SI_UNIT ( .MILLI., .METRE. ) );
#792 = EDGE_CURVE ( 'NONE', #742, #39, #899, .T. ) ;
#793 = DIRECTION ( 'NONE',  ( 0.0000000000000000000, 0.0000000000000000000, -1.000000000000000000 ) ) ;
#794 = ORIENTED_EDGE ( 'NONE', *, *, #1121, .T. ) ;
#795 = EDGE_LOOP ( 'NONE', ( #1330, #533, #703, #1199 ) ) ;
#796 = LINE ( 'NONE', #625, #241 ) ;
#797 = LINE ( 'NONE', #872, #259 ) ;
#798 = CARTESIAN_POINT ( 'NONE',  ( -0.5000000000000001110, 0.3999999999999997446, 0.1400000000000001521 ) ) ;
#799 = AXIS2_PLACEMENT_3D ( 'NONE', #466, #145, #242 ) ;
#800 = UNCERTAINTY_MEASURE_WITH_UNIT (LENGTH_MEASURE( 1.000000000000000082E-05 ), #19, 'distance_accuracy_value', 'NONE');
#801 = ADVANCED_FACE ( 'NONE', ( #26 ), #927, .F. ) ;
#802 = DIRECTION ( 'NONE',  ( 0.0000000000000000000, 0.0000000000000000000, 1.000000000000000000 ) ) ;
#803 = DIRECTION ( 'NONE',  ( 1.000000000000000000, 0.0000000000000000000, 0.0000000000000000000 ) ) ;
#804 = VECTOR ( 'NONE', #1228, 1000.000000000000000 ) ;
#805 = AXIS2_PLACEMENT_3D ( 'NONE', #1061, #14, #149 ) ;
#806 = AXIS2_PLACEMENT_3D ( 'NONE', #87, #834, #1333 ) ;
#807 = EDGE_CURVE ( 'NONE', #1299, #369, #846, .T. ) ;
#808 = ORIENTED_EDGE ( 'NONE', *, *, #1313, .F. ) ;
#809 = CARTESIAN_POINT ( 'NONE',  ( 2.500000000000000000, 0.09999999999999982514, 1.350000000000000089 ) ) ;
#810 = DIRECTION ( 'NONE',  ( 0.0000000000000000000, -1.000000000000000000, 0.0000000000000000000 ) ) ;
#811 = VECTOR ( 'NONE', #202, 1000.000000000000000 ) ;
#812 = ORIENTED_EDGE ( 'NONE', *, *, #696, .F. ) ;
#813 = DIRECTION ( 'NONE',  ( 0.0000000000000000000, 0.0000000000000000000, 1.000000000000000000 ) ) ;
#814 = ADVANCED_FACE ( 'NONE', ( #693 ), #730, .T. ) ;
#815 = DIRECTION ( 'NONE',  ( 5.421010862427522170E-17, -1.000000000000000000, 0.0000000000000000000 ) ) ;
#816 = ORIENTED_EDGE ( 'NONE', *, *, #258, .T. ) ;
#817 = EDGE_CURVE ( 'NONE', #1019, #728, #391, .T. ) ;
#818 = DIRECTION ( 'NONE',  ( 0.0000000000000000000, 0.0000000000000000000, -1.000000000000000000 ) ) ;
#819 = ORIENTED_EDGE ( 'NONE', *, *, #1266, .T. ) ;
#820 = VERTEX_POINT ( 'NONE', #615 ) ;
#821 = DIRECTION ( 'NONE',  ( -0.0000000000000000000, -0.0000000000000000000, -1.000000000000000000 ) ) ;
#822 = DIRECTION ( 'NONE',  ( 0.0000000000000000000, 0.0000000000000000000, 1.000000000000000000 ) ) ;
#823 = ORIENTED_EDGE ( 'NONE', *, *, #1276, .T. ) ;
#824 = DIRECTION ( 'NONE',  ( -1.000000000000000000, 0.0000000000000000000, 0.0000000000000000000 ) ) ;
#825 = VECTOR ( 'NONE', #1223, 1000.000000000000000 ) ;
#826 = DIRECTION ( 'NONE',  ( 0.0000000000000000000, 0.0000000000000000000, -1.000000000000000000 ) ) ;
#827 = DIRECTION ( 'NONE',  ( 0.0000000000000000000, 0.0000000000000000000, -1.000000000000000000 ) ) ;
#828 = AXIS2_PLACEMENT_3D ( 'NONE', #281, #1325, #822 ) ;
#829 = ORIENTED_EDGE ( 'NONE', *, *, #398, .F. ) ;
#830 = CARTESIAN_POINT ( 'NONE',  ( -1.250000000000000000, 5.399999999999998579, 0.6400000000000002354 ) ) ;
#831 = ADVANCED_FACE ( 'NONE', ( #104 ), #285, .T. ) ;
#832 = LINE ( 'NONE', #311, #550 ) ;
#833 = AXIS2_PLACEMENT_3D ( 'NONE', #1278, #661, #1174 ) ;
#834 = DIRECTION ( 'NONE',  ( -0.0000000000000000000, 1.000000000000000000, -0.0000000000000000000 ) ) ;
#835 = FACE_OUTER_BOUND ( 'NONE', #25, .T. ) ;
#836 = DIRECTION ( 'NONE',  ( 0.0000000000000000000, 0.0000000000000000000, 1.000000000000000000 ) ) ;
#837 = ORIENTED_EDGE ( 'NONE', *, *, #906, .T. ) ;
#838 = VERTEX_POINT ( 'NONE', #511 ) ;
#839 = CARTESIAN_POINT ( 'NONE',  ( -1.250000000000000000, 3.399999999999999911, 0.1400000000000001521 ) ) ;
#840 = CARTESIAN_POINT ( 'NONE',  ( 2.750000000000000000, -1.400000000000000133, -1.350000000000000089 ) ) ;
#841 = CIRCLE ( 'NONE', #450, 0.2000000000000000944 ) ;
#842 = EDGE_CURVE ( 'NONE', #1019, #1299, #1181, .T. ) ;
#843 = DIRECTION ( 'NONE',  ( 0.0000000000000000000, -1.000000000000000000, 0.0000000000000000000 ) ) ;
#844 = DIRECTION ( 'NONE',  ( -1.000000000000000000, 0.0000000000000000000, 0.0000000000000000000 ) ) ;
#845 = VERTEX_POINT ( 'NONE', #1131 ) ;
#846 = CIRCLE ( 'NONE', #397, 0.7500000000000001110 ) ;
#847 = CIRCLE ( 'NONE', #164, 0.5500000000000001554 ) ;
#848 = ADVANCED_FACE ( 'NONE', ( #523 ), #1329, .F. ) ;
#849 = DIRECTION ( 'NONE',  ( -0.0000000000000000000, -0.0000000000000000000, -1.000000000000000000 ) ) ;
#850 = PRODUCT_RELATED_PRODUCT_CATEGORY ( 'part', '', ( #938 ) ) ;
#851 = FACE_OUTER_BOUND ( 'NONE', #226, .T. ) ;
#852 = DIRECTION ( 'NONE',  ( 1.000000000000000000, -0.0000000000000000000, 1.224646799147352961E-16 ) ) ;
#853 = LINE ( 'NONE', #228, #377 ) ;
#854 = ORIENTED_EDGE ( 'NONE', *, *, #276, .F. ) ;
#855 = SURFACE_STYLE_FILL_AREA ( #992 ) ;
#856 = LINE ( 'NONE', #1147, #131 ) ;
#857 = CARTESIAN_POINT ( 'NONE',  ( 1.250000000000000000, 3.399999999999999911, 0.6900000000000002798 ) ) ;
#858 = EDGE_CURVE ( 'NONE', #474, #61, #1229, .T. ) ;
#859 = CARTESIAN_POINT ( 'NONE',  ( -2.750000000000000000, 5.799999999999998934, 1.350000000000000089 ) ) ;
#860 = EDGE_LOOP ( 'NONE', ( #759, #1241, #549 ) ) ;
#861 = EDGE_LOOP ( 'NONE', ( #275, #264, #121, #256 ) ) ;
#862 = AXIS2_PLACEMENT_3D ( 'NONE', #940, #418, #708 ) ;
#863 = PLANE ( 'NONE',  #467 ) ;
#864 = ADVANCED_FACE ( 'NONE', ( #966 ), #1010, .T. ) ;
#865 = ORIENTED_EDGE ( 'NONE', *, *, #621, .F. ) ;
#866 = PLANE ( 'NONE',  #470 ) ;
#867 = PLANE ( 'NONE',  #1172 ) ;
#868 = AXIS2_PLACEMENT_3D ( 'NONE', #287, #1312, #1007 ) ;
#869 = EDGE_CURVE ( 'NONE', #820, #540, #1350, .T. ) ;
#870 = ORIENTED_EDGE ( 'NONE', *, *, #1338, .T. ) ;
#871 = LINE ( 'NONE', #1231, #122 ) ;
#872 = CARTESIAN_POINT ( 'NONE',  ( -2.750000000000000000, -1.400000000000000133, 1.350000000000000089 ) ) ;
#873 = VECTOR ( 'NONE', #849, 1000.000000000000000 ) ;
#874 = VERTEX_POINT ( 'NONE', #498 ) ;
#875 = AXIS2_PLACEMENT_3D ( 'NONE', #1202, #584, #990 ) ;
#876 = EDGE_CURVE ( 'NONE', #257, #128, #677, .T. ) ;
#877 = CARTESIAN_POINT ( 'NONE',  ( 2.500000000000000000, 0.09999999999999982514, 1.850000000000000089 ) ) ;
#878 = ORIENTED_EDGE ( 'NONE', *, *, #1005, .T. ) ;
#879 = VECTOR ( 'NONE', #902, 1000.000000000000000 ) ;
#880 = ORIENTED_EDGE ( 'NONE', *, *, #674, .T. ) ;
#881 = ORIENTED_EDGE ( 'NONE', *, *, #913, .T. ) ;
#882 = LINE ( 'NONE', #304, #585 ) ;
#883 = CARTESIAN_POINT ( 'NONE',  ( -1.250000000000000000, 3.600000000000000089, 0.1400000000000001521 ) ) ;
#884 = CARTESIAN_POINT ( 'NONE',  ( 0.5000000000000000000, 0.3999999999999997446, 1.450000000000000178 ) ) ;
#885 = VERTEX_POINT ( 'NONE', #199 ) ;
#886 = DIRECTION ( 'NONE',  ( 0.0000000000000000000, 0.0000000000000000000, 1.000000000000000000 ) ) ;
#887 = AXIS2_PLACEMENT_3D ( 'NONE', #330, #1152, #100 ) ;
#888 = CARTESIAN_POINT ( 'NONE',  ( 1.250000000000000000, 3.600000000000000089, 0.6400000000000002354 ) ) ;
#889 = LINE ( 'NONE', #302, #1197 ) ;
#890 = FACE_OUTER_BOUND ( 'NONE', #1291, .T. ) ;
#891 = FACE_OUTER_BOUND ( 'NONE', #579, .T. ) ;
#892 = ORIENTED_EDGE ( 'NONE', *, *, #365, .T. ) ;
#893 = AXIS2_PLACEMENT_3D ( 'NONE', #1254, #948, #92 ) ;
#894 = FACE_OUTER_BOUND ( 'NONE', #995, .T. ) ;
#895 = EDGE_CURVE ( 'NONE', #537, #645, #711, .T. ) ;
#896 = CARTESIAN_POINT ( 'NONE',  ( 2.700000000000000178, 0.09999999999999985290, 1.350000000000000089 ) ) ;
#897 = FILL_AREA_STYLE_COLOUR ( '', #1101 ) ;
#898 = ORIENTED_EDGE ( 'NONE', *, *, #1288, .T. ) ;
#899 = LINE ( 'NONE', #424, #54 ) ;
#900 = CARTESIAN_POINT ( 'NONE',  ( -1.250000000000000000, 0.3999999999999997446, 0.1400000000000001521 ) ) ;
#901 = CLOSED_SHELL ( 'NONE', ( #53, #606, #485, #1082, #1143, #801, #848, #529, #99, #380, #864, #814, #90, #1238 ) ) ;
#902 = DIRECTION ( 'NONE',  ( -0.0000000000000000000, -0.0000000000000000000, -1.000000000000000000 ) ) ;
#903 = FACE_OUTER_BOUND ( 'NONE', #720, .T. ) ;
#904 = EDGE_CURVE ( 'NONE', #475, #1151, #373, .T. ) ;
#905 = FACE_OUTER_BOUND ( 'NONE', #47, .T. ) ;
#906 = EDGE_CURVE ( 'NONE', #1062, #885, #1287, .T. ) ;
#907 = ORIENTED_EDGE ( 'NONE', *, *, #5, .F. ) ;
#908 = EDGE_CURVE ( 'NONE', #394, #509, #252, .T. ) ;
#909 = DIRECTION ( 'NONE',  ( 1.000000000000000000, 0.0000000000000000000, 0.0000000000000000000 ) ) ;
#910 = ORIENTED_EDGE ( 'NONE', *, *, #247, .F. ) ;
#911 = DIRECTION ( 'NONE',  ( -0.0000000000000000000, 1.000000000000000000, -0.0000000000000000000 ) ) ;
#912 = FACE_OUTER_BOUND ( 'NONE', #36, .T. ) ;
#913 = EDGE_CURVE ( 'NONE', #61, #820, #1080, .T. ) ;
#914 = CARTESIAN_POINT ( 'NONE',  ( 2.000000000000000000, -1.600000000000000311, 1.450000000000000178 ) ) ;
#915 = CIRCLE ( 'NONE', #184, 0.5000000000000001110 ) ;
#916 = ORIENTED_EDGE ( 'NONE', *, *, #982, .F. ) ;
#917 = CYLINDRICAL_SURFACE ( 'NONE', #163, 0.5000000000000001110 ) ;
#918 = VERTEX_POINT ( 'NONE', #195 ) ;
#919 = EDGE_CURVE ( 'NONE', #369, #690, #545, .T. ) ;
#920 = DIRECTION ( 'NONE',  ( 0.0000000000000000000, 0.0000000000000000000, -1.000000000000000000 ) ) ;
#921 = EDGE_LOOP ( 'NONE', ( #649, #213, #778, #973, #425 ) ) ;
#922 = DIRECTION ( 'NONE',  ( 0.0000000000000000000, 0.0000000000000000000, -1.000000000000000000 ) ) ;
#923 = EDGE_CURVE ( 'NONE', #583, #412, #309, .T. ) ;
#924 = CARTESIAN_POINT ( 'NONE',  ( -2.000000000000000000, -1.600000000000000311, 1.450000000000000178 ) ) ;
#925 = LINE ( 'NONE', #787, #1298 ) ;
#926 = ORIENTED_EDGE ( 'NONE', *, *, #385, .T. ) ;
#927 = PLANE ( 'NONE',  #250 ) ;
#928 = VECTOR ( 'NONE', #502, 1000.000000000000000 ) ;
#929 = CARTESIAN_POINT ( 'NONE',  ( -2.500000000000000000, 0.09999999999999982514, 1.350000000000000089 ) ) ;
#930 = EDGE_CURVE ( 'NONE', #645, #734, #871, .T. ) ;
#931 = AXIS2_PLACEMENT_3D ( 'NONE', #101, #508, #312 ) ;
#932 = DIRECTION ( 'NONE',  ( -1.000000000000000000, -0.0000000000000000000, -0.0000000000000000000 ) ) ;
#933 = ADVANCED_FACE ( 'NONE', ( #1036 ), #85, .T. ) ;
#934 = CARTESIAN_POINT ( 'NONE',  ( 1.250000000000000000, 5.399999999999998579, 0.1400000000000001521 ) ) ;
#935 = ORIENTED_EDGE ( 'NONE', *, *, #768, .T. ) ;
#936 = DIRECTION ( 'NONE',  ( -0.0000000000000000000, -0.0000000000000000000, -1.000000000000000000 ) ) ;
#937 = FACE_OUTER_BOUND ( 'NONE', #530, .T. ) ;
#938 = PRODUCT ( 'pogopin 2P-2.54PH-7.2H²àº¸', 'pogopin 2P-2.54PH-7.2H²àº¸', '', ( #769 ) ) ;
#939 = LINE ( 'NONE', #840, #1105 ) ;
#940 = CARTESIAN_POINT ( 'NONE',  ( 0.5000000000000000000, 0.3999999999999997446, 1.450000000000000178 ) ) ;
#941 = EDGE_LOOP ( 'NONE', ( #155, #578, #812 ) ) ;
#942 = ADVANCED_FACE ( 'NONE', ( #937 ), #91, .F. ) ;
#943 = DIRECTION ( 'NONE',  ( 1.000000000000000000, 0.0000000000000000000, -1.224646799147353207E-16 ) ) ;
#944 = VERTEX_POINT ( 'NONE', #1322 ) ;
#945 = CARTESIAN_POINT ( 'NONE',  ( -2.000000000000000000, 0.3999999999999997446, 1.450000000000000178 ) ) ;
#946 = CARTESIAN_POINT ( 'NONE',  ( 0.5000000000000000000, 0.3999999999999997446, 1.450000000000000178 ) ) ;
#947 = FACE_OUTER_BOUND ( 'NONE', #515, .T. ) ;
#948 = DIRECTION ( 'NONE',  ( -0.0000000000000000000, -0.0000000000000000000, -1.000000000000000000 ) ) ;
#949 = AXIS2_PLACEMENT_3D ( 'NONE', #118, #246, #1065 ) ;
#950 = DIRECTION ( 'NONE',  ( 0.0000000000000000000, 0.0000000000000000000, -1.000000000000000000 ) ) ;
#951 = UNCERTAINTY_MEASURE_WITH_UNIT (LENGTH_MEASURE( 1.000000000000000082E-05 ), #452, 'distance_accuracy_value', 'NONE');
#952 = CIRCLE ( 'NONE', #1002, 0.7500000000000001110 ) ;
#953 = EDGE_CURVE ( 'NONE', #957, #119, #59, .T. ) ;
#954 = CIRCLE ( 'NONE', #387, 0.5000000000000001110 ) ;
#955 = CARTESIAN_POINT ( 'NONE',  ( 1.250000000000000000, 3.600000000000000089, 0.1400000000000001521 ) ) ;
#956 = VECTOR ( 'NONE', #1351, 1000.000000000000000 ) ;
#957 = VERTEX_POINT ( 'NONE', #830 ) ;
#958 = AXIS2_PLACEMENT_3D ( 'NONE', #859, #7, #107 ) ;
#959 = CARTESIAN_POINT ( 'NONE',  ( -2.750000000000000000, -1.400000000000000133, 1.350000000000000089 ) ) ;
#960 = VERTEX_POINT ( 'NONE', #1135 ) ;
#961 = DIRECTION ( 'NONE',  ( 0.0000000000000000000, 0.0000000000000000000, -1.000000000000000000 ) ) ;
#962 = ADVANCED_FACE ( 'NONE', ( #667 ), #866, .F. ) ;
#963 = CARTESIAN_POINT ( 'NONE',  ( -0.5000000000000001110, 0.3999999999999997446, 1.450000000000000178 ) ) ;
#964 = ORIENTED_EDGE ( 'NONE', *, *, #908, .F. ) ;
#965 = DIRECTION ( 'NONE',  ( 0.0000000000000000000, 0.0000000000000000000, -1.000000000000000000 ) ) ;
#966 = FACE_OUTER_BOUND ( 'NONE', #774, .T. ) ;
#967 = CARTESIAN_POINT ( 'NONE',  ( -0.5000000000000001110, 0.3999999999999997446, 1.450000000000000178 ) ) ;
#968 = EDGE_LOOP ( 'NONE', ( #1075, #136, #865, #1092, #1158 ) ) ;
#969 =( GEOMETRIC_REPRESENTATION_CONTEXT ( 3 ) GLOBAL_UNCERTAINTY_ASSIGNED_CONTEXT ( ( #800 ) ) GLOBAL_UNIT_ASSIGNED_CONTEXT ( ( #19, #360, #548 ) ) REPRESENTATION_CONTEXT ( 'NONE', 'WORKASPACE' ) );
#970 = TOROIDAL_SURFACE ( 'NONE', #1144, 0.5500000000000001554, 0.2000000000000000111 ) ;
#971 = ORIENTED_EDGE ( 'NONE', *, *, #352, .T. ) ;
#972 = ORIENTED_EDGE ( 'NONE', *, *, #329, .F. ) ;
#973 = ORIENTED_EDGE ( 'NONE', *, *, #382, .F. ) ;
#974 = EDGE_CURVE ( 'NONE', #15, #98, #1279, .T. ) ;
#975 = DIRECTION ( 'NONE',  ( 0.0000000000000000000, -1.000000000000000000, 0.0000000000000000000 ) ) ;
#976 = CARTESIAN_POINT ( 'NONE',  ( -1.250000000000000000, 5.799999999999998934, 0.2400000000000002409 ) ) ;
#977 = STYLED_ITEM ( 'NONE', ( #1206 ), #779 ) ;
#978 = ORIENTED_EDGE ( 'NONE', *, *, #650, .T. ) ;
#979 = DIRECTION ( 'NONE',  ( 0.0000000000000000000, -0.0000000000000000000, 1.000000000000000000 ) ) ;
#980 = FACE_BOUND ( 'NONE', #198, .T. ) ;
#981 = EDGE_LOOP ( 'NONE', ( #414, #1302 ) ) ;
#982 = EDGE_CURVE ( 'NONE', #460, #542, #735, .T. ) ;
#983 = DIRECTION ( 'NONE',  ( 0.0000000000000000000, 0.0000000000000000000, -1.000000000000000000 ) ) ;
#984 = LINE ( 'NONE', #443, #956 ) ;
#985 = EDGE_LOOP ( 'NONE', ( #28, #229, #837, #1016, #1089 ) ) ;
#986 = CARTESIAN_POINT ( 'NONE',  ( 0.5000000000000000000, 0.3999999999999997446, 1.450000000000000178 ) ) ;
#987 = DIRECTION ( 'NONE',  ( 0.0000000000000000000, 0.0000000000000000000, 1.000000000000000000 ) ) ;
#988 = EDGE_CURVE ( 'NONE', #993, #257, #1169, .T. ) ;
#989 = CIRCLE ( 'NONE', #522, 0.1000000000000001027 ) ;
#990 = DIRECTION ( 'NONE',  ( 0.0000000000000000000, 0.0000000000000000000, -1.000000000000000000 ) ) ;
#991 = ORIENTED_EDGE ( 'NONE', *, *, #1224, .F. ) ;
#992 = FILL_AREA_STYLE ('',( #897 ) ) ;
#993 = VERTEX_POINT ( 'NONE', #221 ) ;
#994 = CARTESIAN_POINT ( 'NONE',  ( -1.250000000000000000, 3.399999999999999911, 0.1400000000000001521 ) ) ;
#995 = EDGE_LOOP ( 'NONE', ( #935, #419, #415, #1305 ) ) ;
#996 = CARTESIAN_POINT ( 'NONE',  ( -2.750000000000000000, 1.399999999999999689, 1.350000000000000089 ) ) ;
#997 = EDGE_CURVE ( 'NONE', #540, #235, #458, .T. ) ;
#998 = ORIENTED_EDGE ( 'NONE', *, *, #33, .F. ) ;
#999 = DIRECTION ( 'NONE',  ( 0.0000000000000000000, 1.000000000000000000, 0.0000000000000000000 ) ) ;
#1000 = ORIENTED_EDGE ( 'NONE', *, *, #768, .F. ) ;
#1001 = FACE_OUTER_BOUND ( 'NONE', #1168, .T. ) ;
#1002 = AXIS2_PLACEMENT_3D ( 'NONE', #284, #695, #920 ) ;
#1003 = DIRECTION ( 'NONE',  ( 0.0000000000000000000, 1.000000000000000000, 0.0000000000000000000 ) ) ;
#1004 = LINE ( 'NONE', #9, #112 ) ;
#1005 = EDGE_CURVE ( 'NONE', #598, #119, #698, .T. ) ;
#1006 = DIRECTION ( 'NONE',  ( -0.0000000000000000000, -1.000000000000000000, -0.0000000000000000000 ) ) ;
#1007 = DIRECTION ( 'NONE',  ( 0.0000000000000000000, 0.0000000000000000000, 1.000000000000000000 ) ) ;
#1008 = CARTESIAN_POINT ( 'NONE',  ( -2.500000000000000000, 0.09999999999999982514, 1.850000000000000089 ) ) ;
#1009 = AXIS2_PLACEMENT_3D ( 'NONE', #551, #22, #770 ) ;
#1010 = CYLINDRICAL_SURFACE ( 'NONE', #571, 0.2000000000000000944 ) ;
#1011 = EDGE_CURVE ( 'NONE', #874, #885, #853, .T. ) ;
#1012 = CARTESIAN_POINT ( 'NONE',  ( -1.250000000000000000, 5.799999999999998934, 0.04000000000000004940 ) ) ;
#1013 = DIRECTION ( 'NONE',  ( -0.0000000000000000000, -0.0000000000000000000, -1.000000000000000000 ) ) ;
#1014 = CARTESIAN_POINT ( 'NONE',  ( -2.000000000000000000, 0.3999999999999997446, -0.6500000000000000222 ) ) ;
#1015 = DIRECTION ( 'NONE',  ( 0.0000000000000000000, 1.000000000000000000, 0.0000000000000000000 ) ) ;
#1016 = ORIENTED_EDGE ( 'NONE', *, *, #1011, .F. ) ;
#1017 = AXIS2_PLACEMENT_3D ( 'NONE', #37, #1088, #469 ) ;
#1018 = DIRECTION ( 'NONE',  ( 0.0000000000000000000, 1.000000000000000000, 0.0000000000000000000 ) ) ;
#1019 = VERTEX_POINT ( 'NONE', #1261 ) ;
#1020 = CARTESIAN_POINT ( 'NONE',  ( -0.5000000000000001110, 0.3999999999999997446, 1.450000000000000178 ) ) ;
#1021 = PLANE ( 'NONE',  #561 ) ;
#1022 = CARTESIAN_POINT ( 'NONE',  ( 0.0000000000000000000, 0.0000000000000000000, 1.450000000000000178 ) ) ;
#1023 = DIRECTION ( 'NONE',  ( -0.0000000000000000000, -0.0000000000000000000, -1.000000000000000000 ) ) ;
#1024 = LINE ( 'NONE', #627, #280 ) ;
#1025 = ORIENTED_EDGE ( 'NONE', *, *, #739, .F. ) ;
#1026 = DIRECTION ( 'NONE',  ( -0.0000000000000000000, -1.000000000000000000, -0.0000000000000000000 ) ) ;
#1027 = DIRECTION ( 'NONE',  ( 0.0000000000000000000, -0.0000000000000000000, -1.000000000000000000 ) ) ;
#1028 = EDGE_CURVE ( 'NONE', #714, #598, #1098, .T. ) ;
#1029 =( GEOMETRIC_REPRESENTATION_CONTEXT ( 3 ) GLOBAL_UNCERTAINTY_ASSIGNED_CONTEXT ( ( #147 ) ) GLOBAL_UNIT_ASSIGNED_CONTEXT ( ( #178, #494, #1215 ) ) REPRESENTATION_CONTEXT ( 'NONE', 'WORKASPACE' ) );
#1030 = CARTESIAN_POINT ( 'NONE',  ( 2.500000000000000000, 0.09999999999999982514, 1.350000000000000089 ) ) ;
#1031 = EDGE_CURVE ( 'NONE', #874, #784, #206, .T. ) ;
#1032 = DIRECTION ( 'NONE',  ( 1.000000000000000000, 0.0000000000000000000, -0.0000000000000000000 ) ) ;
#1033 = ORIENTED_EDGE ( 'NONE', *, *, #151, .T. ) ;
#1034 = ORIENTED_EDGE ( 'NONE', *, *, #1338, .F. ) ;
#1035 = DIRECTION ( 'NONE',  ( -0.0000000000000000000, 0.0000000000000000000, -1.000000000000000000 ) ) ;
#1036 = FACE_OUTER_BOUND ( 'NONE', #707, .T. ) ;
#1037 = VECTOR ( 'NONE', #1196, 1000.000000000000000 ) ;
#1038 = CIRCLE ( 'NONE', #755, 0.2000000000000000944 ) ;
#1039 = EDGE_LOOP ( 'NONE', ( #111, #239, #574, #1188 ) ) ;
#1040 = CARTESIAN_POINT ( 'NONE',  ( 1.250000000000000000, 0.3999999999999997446, 0.1400000000000001521 ) ) ;
#1041 = EDGE_CURVE ( 'NONE', #1234, #785, #289, .T. ) ;
#1042 = ADVANCED_FACE ( 'NONE', ( #110 ), #682, .T. ) ;
#1043 = CARTESIAN_POINT ( 'NONE',  ( 1.250000000000000000, 5.399999999999998579, 0.04000000000000004940 ) ) ;
#1044 = DIRECTION ( 'NONE',  ( -1.000000000000000000, 0.0000000000000000000, 0.0000000000000000000 ) ) ;
#1045 = DIRECTION ( 'NONE',  ( -0.0000000000000000000, 0.0000000000000000000, -1.000000000000000000 ) ) ;
#1046 = TOROIDAL_SURFACE ( 'NONE', #767, 0.1000000000000001027, 0.4000000000000000222 ) ;
#1047 = AXIS2_PLACEMENT_3D ( 'NONE', #929, #1256, #824 ) ;
#1048 = CARTESIAN_POINT ( 'NONE',  ( -2.500000000000000000, 0.09999999999999982514, 2.050000000000000266 ) ) ;
#1049 = DIRECTION ( 'NONE',  ( -0.0000000000000000000, -1.000000000000000000, -0.0000000000000000000 ) ) ;
#1050 = EDGE_CURVE ( 'NONE', #501, #509, #954, .T. ) ;
#1051 = VERTEX_POINT ( 'NONE', #1257 ) ;
#1052 = PLANE ( 'NONE',  #350 ) ;
#1053 = CARTESIAN_POINT ( 'NONE',  ( 0.0000000000000000000, 0.0000000000000000000, -1.350000000000000089 ) ) ;
#1054 = ADVANCED_FACE ( 'NONE', ( #1235 ), #970, .T. ) ;
#1055 = ORIENTED_EDGE ( 'NONE', *, *, #895, .F. ) ;
#1056 = ORIENTED_EDGE ( 'NONE', *, *, #562, .F. ) ;
#1057 = CARTESIAN_POINT ( 'NONE',  ( 2.299999999999999822, 0.09999999999999982514, 1.350000000000000089 ) ) ;
#1058 = DIRECTION ( 'NONE',  ( -0.0000000000000000000, -0.0000000000000000000, -1.000000000000000000 ) ) ;
#1059 = ORIENTED_EDGE ( 'NONE', *, *, #35, .F. ) ;
#1060 = DIRECTION ( 'NONE',  ( -1.000000000000000000, 0.0000000000000000000, 0.0000000000000000000 ) ) ;
#1061 = CARTESIAN_POINT ( 'NONE',  ( -1.250000000000000000, 3.399999999999999911, 0.1400000000000001521 ) ) ;
#1062 = VERTEX_POINT ( 'NONE', #214 ) ;
#1063 = ORIENTED_EDGE ( 'NONE', *, *, #762, .T. ) ;
#1064 = LINE ( 'NONE', #218, #173 ) ;
#1065 = DIRECTION ( 'NONE',  ( 0.0000000000000000000, 0.0000000000000000000, 1.000000000000000000 ) ) ;
#1066 = VERTEX_POINT ( 'NONE', #115 ) ;
#1067 = EDGE_CURVE ( 'NONE', #119, #598, #915, .T. ) ;
#1068 = CARTESIAN_POINT ( 'NONE',  ( 1.250000000000000000, 3.399999999999999911, 0.8900000000000002354 ) ) ;
#1069 = AXIS2_PLACEMENT_3D ( 'NONE', #1323, #65, #1232 ) ;
#1070 = EDGE_CURVE ( 'NONE', #1151, #475, #333, .T. ) ;
#1071 = FACE_OUTER_BOUND ( 'NONE', #1344, .T. ) ;
#1072 = CARTESIAN_POINT ( 'NONE',  ( -2.299999999999999822, 0.09999999999999985290, 1.350000000000000089 ) ) ;
#1073 = VECTOR ( 'NONE', #757, 1000.000000000000000 ) ;
#1074 = ORIENTED_EDGE ( 'NONE', *, *, #132, .F. ) ;
#1075 = ORIENTED_EDGE ( 'NONE', *, *, #1313, .T. ) ;
#1076 = CARTESIAN_POINT ( 'NONE',  ( -2.750000000000000000, -1.400000000000000133, 1.350000000000000089 ) ) ;
#1077 = VERTEX_POINT ( 'NONE', #294 ) ;
#1078 = ORIENTED_EDGE ( 'NONE', *, *, #624, .F. ) ;
#1079 =( NAMED_UNIT ( * ) PLANE_ANGLE_UNIT ( ) SI_UNIT ( $, .RADIAN. ) );
#1080 = CIRCLE ( 'NONE', #261, 0.2000000000000000944 ) ;
#1081 = LINE ( 'NONE', #432, #559 ) ;
#1082 = ADVANCED_FACE ( 'NONE', ( #592 ), #17, .T. ) ;
#1083 = AXIS2_PLACEMENT_3D ( 'NONE', #273, #166, #1222 ) ;
#1084 = ORIENTED_EDGE ( 'NONE', *, *, #388, .F. ) ;
#1085 = LINE ( 'NONE', #1332, #272 ) ;
#1086 = VECTOR ( 'NONE', #560, 1000.000000000000000 ) ;
#1087 = EDGE_CURVE ( 'NONE', #39, #1149, #889, .T. ) ;
#1088 = DIRECTION ( 'NONE',  ( 0.0000000000000000000, 1.000000000000000000, 0.0000000000000000000 ) ) ;
#1089 = ORIENTED_EDGE ( 'NONE', *, *, #1289, .F. ) ;
#1090 = DIRECTION ( 'NONE',  ( -0.0000000000000000000, -0.0000000000000000000, -1.000000000000000000 ) ) ;
#1091 = ADVANCED_FACE ( 'NONE', ( #484 ), #653, .T. ) ;
#1092 = ORIENTED_EDGE ( 'NONE', *, *, #1087, .F. ) ;
#1093 = DIRECTION ( 'NONE',  ( -1.000000000000000000, 1.355252715606879803E-16, 0.0000000000000000000 ) ) ;
#1094 = CARTESIAN_POINT ( 'NONE',  ( -1.250000000000000000, 5.399999999999998579, 0.2400000000000002409 ) ) ;
#1095 = CIRCLE ( 'NONE', #1282, 0.5000000000000001110 ) ;
#1096 = DIRECTION ( 'NONE',  ( 0.0000000000000000000, 0.0000000000000000000, 1.000000000000000000 ) ) ;
#1097 = CARTESIAN_POINT ( 'NONE',  ( 0.5000000000000000000, -1.600000000000000311, -0.6500000000000000222 ) ) ;
#1098 = LINE ( 'NONE', #1139, #563 ) ;
#1099 = ORIENTED_EDGE ( 'NONE', *, *, #786, .F. ) ;
#1100 = FACE_OUTER_BOUND ( 'NONE', #860, .T. ) ;
#1101 = COLOUR_RGB ( '',1.000000000000000000, 1.000000000000000000, 1.000000000000000000 ) ;
#1102 = AXIS2_PLACEMENT_3D ( 'NONE', #1205, #1304, #52 ) ;
#1103 = PLANE ( 'NONE',  #1083 ) ;
#1104 = ADVANCED_FACE ( 'NONE', ( #903 ), #196, .T. ) ;
#1105 = VECTOR ( 'NONE', #314, 1000.000000000000000 ) ;
#1106 = CIRCLE ( 'NONE', #407, 0.7500000000000001110 ) ;
#1107 = DIRECTION ( 'NONE',  ( -0.0000000000000000000, -1.000000000000000000, -0.0000000000000000000 ) ) ;
#1108 = ORIENTED_EDGE ( 'NONE', *, *, #773, .T. ) ;
#1109 = EDGE_LOOP ( 'NONE', ( #978, #102, #641, #386 ) ) ;
#1110 = PLANE ( 'NONE',  #123 ) ;
#1111 = DIRECTION ( 'NONE',  ( -0.0000000000000000000, -0.0000000000000000000, -1.000000000000000000 ) ) ;
#1112 = CARTESIAN_POINT ( 'NONE',  ( 2.500000000000000000, 0.09999999999999982514, 2.050000000000000266 ) ) ;
#1113 = ORIENTED_EDGE ( 'NONE', *, *, #251, .T. ) ;
#1114 = DIRECTION ( 'NONE',  ( -0.0000000000000000000, -0.0000000000000000000, 1.000000000000000000 ) ) ;
#1115 = DIRECTION ( 'NONE',  ( 0.0000000000000000000, 0.0000000000000000000, 1.000000000000000000 ) ) ;
#1116 = ORIENTED_EDGE ( 'NONE', *, *, #1005, .F. ) ;
#1117 = CARTESIAN_POINT ( 'NONE',  ( 1.250000000000000000, 3.399999999999999911, 0.1400000000000001521 ) ) ;
#1118 = ORIENTED_EDGE ( 'NONE', *, *, #621, .T. ) ;
#1119 = AXIS2_PLACEMENT_3D ( 'NONE', #934, #411, #406 ) ;
#1120 = DIRECTION ( 'NONE',  ( 0.0000000000000000000, 0.0000000000000000000, -1.000000000000000000 ) ) ;
#1121 = EDGE_CURVE ( 'NONE', #412, #583, #45, .T. ) ;
#1122 = CARTESIAN_POINT ( 'NONE',  ( 2.750000000000000000, -1.400000000000000133, 1.350000000000000089 ) ) ;
#1123 = FILL_AREA_STYLE ('',( #193 ) ) ;
#1124 =( NAMED_UNIT ( * ) PLANE_ANGLE_UNIT ( ) SI_UNIT ( $, .RADIAN. ) );
#1125 = ADVANCED_FACE ( 'NONE', ( #620 ), #1021, .F. ) ;
#1126 = EDGE_LOOP ( 'NONE', ( #1242, #320, #766, #756, #265 ) ) ;
#1127 = ORIENTED_EDGE ( 'NONE', *, *, #50, .F. ) ;
#1128 = DIRECTION ( 'NONE',  ( 0.0000000000000000000, -1.000000000000000000, 0.0000000000000000000 ) ) ;
#1129 = FACE_OUTER_BOUND ( 'NONE', #921, .T. ) ;
#1130 = CIRCLE ( 'NONE', #462, 0.2000000000000000944 ) ;
#1131 = CARTESIAN_POINT ( 'NONE',  ( 0.5000000000000000000, -1.600000000000000311, 1.450000000000000178 ) ) ;
#1132 = FACE_OUTER_BOUND ( 'NONE', #536, .T. ) ;
#1133 = ORIENTED_EDGE ( 'NONE', *, *, #919, .F. ) ;
#1134 = ORIENTED_EDGE ( 'NONE', *, *, #547, .F. ) ;
#1135 = CARTESIAN_POINT ( 'NONE',  ( 1.250000000000000000, 3.600000000000000089, -0.4099999999999999756 ) ) ;
#1136 = CIRCLE ( 'NONE', #875, 0.7500000000000001110 ) ;
#1137 = DIRECTION ( 'NONE',  ( 0.0000000000000000000, -1.000000000000000000, 0.0000000000000000000 ) ) ;
#1138 = DIRECTION ( 'NONE',  ( -0.0000000000000000000, 1.000000000000000000, -0.0000000000000000000 ) ) ;
#1139 = CARTESIAN_POINT ( 'NONE',  ( -1.250000000000000000, 14.41421356237309048, -0.3599999999999999867 ) ) ;
#1140 = DIRECTION ( 'NONE',  ( -0.0000000000000000000, 1.000000000000000000, -0.0000000000000000000 ) ) ;
#1141 = ORIENTED_EDGE ( 'NONE', *, *, #329, .T. ) ;
#1142 = DIRECTION ( 'NONE',  ( 0.0000000000000000000, -1.000000000000000000, 0.0000000000000000000 ) ) ;
#1143 = ADVANCED_FACE ( 'NONE', ( #353 ), #1110, .F. ) ;
#1144 = AXIS2_PLACEMENT_3D ( 'NONE', #332, #643, #1352 ) ;
#1145 = DIRECTION ( 'NONE',  ( 0.0000000000000000000, -1.000000000000000000, 0.0000000000000000000 ) ) ;
#1146 = ORIENTED_EDGE ( 'NONE', *, *, #357, .F. ) ;
#1147 = CARTESIAN_POINT ( 'NONE',  ( 2.750000000000000000, -1.400000000000000133, 1.350000000000000089 ) ) ;
#1148 = ORIENTED_EDGE ( 'NONE', *, *, #227, .F. ) ;
#1149 = VERTEX_POINT ( 'NONE', #318 ) ;
#1150 = FACE_OUTER_BOUND ( 'NONE', #676, .T. ) ;
#1151 = VERTEX_POINT ( 'NONE', #1012 ) ;
#1152 = DIRECTION ( 'NONE',  ( 0.0000000000000000000, -1.000000000000000000, 0.0000000000000000000 ) ) ;
#1153 = CARTESIAN_POINT ( 'NONE',  ( -0.5000000000000000000, -1.600000000000000311, 1.450000000000000178 ) ) ;
#1154 = AXIS2_PLACEMENT_3D ( 'NONE', #712, #317, #1120 ) ;
#1155 = EDGE_CURVE ( 'NONE', #506, #1234, #832, .T. ) ;
#1156 = CIRCLE ( 'NONE', #1047, 0.2000000000000000944 ) ;
#1157 = DIRECTION ( 'NONE',  ( -0.0000000000000000000, -0.0000000000000000000, -1.000000000000000000 ) ) ;
#1158 = ORIENTED_EDGE ( 'NONE', *, *, #792, .F. ) ;
#1159 = PLANE ( 'NONE',  #958 ) ;
#1160 = ADVANCED_FACE ( 'NONE', ( #1129 ), #499, .F. ) ;
#1161 = VERTEX_POINT ( 'NONE', #493 ) ;
#1162 = DIRECTION ( 'NONE',  ( 1.000000000000000000, 0.0000000000000000000, -0.0000000000000000000 ) ) ;
#1163 = ORIENTED_EDGE ( 'NONE', *, *, #1288, .F. ) ;
#1164 = SURFACE_STYLE_FILL_AREA ( #1123 ) ;
#1165 = DIRECTION ( 'NONE',  ( 1.000000000000000000, 0.0000000000000000000, 0.0000000000000000000 ) ) ;
#1166 = SPHERICAL_SURFACE ( 'NONE', #142, 0.2000000000000000111 ) ;
#1167 = DIRECTION ( 'NONE',  ( 0.0000000000000000000, 0.0000000000000000000, 1.000000000000000000 ) ) ;
#1168 = EDGE_LOOP ( 'NONE', ( #1273, #211, #907, #270, #1133 ) ) ;
#1169 = LINE ( 'NONE', #510, #1213 ) ;
#1170 = CARTESIAN_POINT ( 'NONE',  ( 2.500000000000000000, 0.09999999999999982514, 1.850000000000000089 ) ) ;
#1171 = VECTOR ( 'NONE', #6, 1000.000000000000000 ) ;
#1172 = AXIS2_PLACEMENT_3D ( 'NONE', #1153, #446, #541 ) ;
#1173 = ORIENTED_EDGE ( 'NONE', *, *, #238, .T. ) ;
#1174 = DIRECTION ( 'NONE',  ( 1.000000000000000000, 0.0000000000000000000, 0.0000000000000000000 ) ) ;
#1175 = AXIS2_PLACEMENT_3D ( 'NONE', #955, #1145, #114 ) ;
#1176 = DIRECTION ( 'NONE',  ( 0.0000000000000000000, 1.000000000000000000, 0.0000000000000000000 ) ) ;
#1177 = AXIS2_PLACEMENT_3D ( 'NONE', #271, #999, #51 ) ;
#1178 = EDGE_CURVE ( 'NONE', #573, #845, #1085, .T. ) ;
#1179 = APPLICATION_PROTOCOL_DEFINITION ( 'draft international standard', 'automotive_design', 1998, #658 ) ;
#1180 = EDGE_LOOP ( 'NONE', ( #403, #554, #108, #726, #1055 ) ) ;
#1181 = CIRCLE ( 'NONE', #673, 0.1999999999999999833 ) ;
#1182 = CIRCLE ( 'NONE', #496, 0.4000000000000000222 ) ;
#1183 = UNCERTAINTY_MEASURE_WITH_UNIT (LENGTH_MEASURE( 1.000000000000000082E-05 ), #210, 'distance_accuracy_value', 'NONE');
#1184 = APPLICATION_PROTOCOL_DEFINITION ( 'draft international standard', 'automotive_design', 1998, #345 ) ;
#1185 = DIRECTION ( 'NONE',  ( -1.000000000000000000, 0.0000000000000000000, 0.0000000000000000000 ) ) ;
#1186 = ORIENTED_EDGE ( 'NONE', *, *, #632, .F. ) ;
#1187 = FACE_OUTER_BOUND ( 'NONE', #1244, .T. ) ;
#1188 = ORIENTED_EDGE ( 'NONE', *, *, #1155, .F. ) ;
#1189 = CARTESIAN_POINT ( 'NONE',  ( -2.000000000000000000, 0.3999999999999997446, 1.450000000000000178 ) ) ;
#1190 = AXIS2_PLACEMENT_3D ( 'NONE', #72, #1328, #1239 ) ;
#1191 = FACE_OUTER_BOUND ( 'NONE', #233, .T. ) ;
#1192 = VECTOR ( 'NONE', #1247, 1000.000000000000000 ) ;
#1193 = CARTESIAN_POINT ( 'NONE',  ( -2.700000000000000178, 0.09999999999999982514, 2.050000000000000266 ) ) ;
#1194 = VERTEX_POINT ( 'NONE', #186 ) ;
#1195 = EDGE_CURVE ( 'NONE', #1299, #1062, #796, .T. ) ;
#1196 = DIRECTION ( 'NONE',  ( 1.000000000000000000, 0.0000000000000000000, 0.0000000000000000000 ) ) ;
#1197 = VECTOR ( 'NONE', #821, 1000.000000000000000 ) ;
#1198 = CYLINDRICAL_SURFACE ( 'NONE', #733, 0.5000000000000001110 ) ;
#1199 = ORIENTED_EDGE ( 'NONE', *, *, #762, .F. ) ;
#1200 = SHAPE_DEFINITION_REPRESENTATION ( #629, #441 ) ;
#1201 = EDGE_CURVE ( 'NONE', #838, #1051, #581, .T. ) ;
#1202 = CARTESIAN_POINT ( 'NONE',  ( -1.250000000000000000, 0.3999999999999997446, 0.1400000000000001521 ) ) ;
#1203 = VERTEX_POINT ( 'NONE', #1014 ) ;
#1204 = ORIENTED_EDGE ( 'NONE', *, *, #1276, .F. ) ;
#1205 = CARTESIAN_POINT ( 'NONE',  ( -2.500000000000000000, 0.09999999999999982514, 1.850000000000000089 ) ) ;
#1206 = PRESENTATION_STYLE_ASSIGNMENT (( #489 ) ) ;
#1207 = FACE_OUTER_BOUND ( 'NONE', #594, .T. ) ;
#1208 = DIRECTION ( 'NONE',  ( 0.0000000000000000000, -1.000000000000000000, 0.0000000000000000000 ) ) ;
#1209 = CIRCLE ( 'NONE', #543, 0.2000000000000000111 ) ;
#1210 = PRESENTATION_LAYER_ASSIGNMENT (  '', '', ( #512 ) ) ;
#1211 = CARTESIAN_POINT ( 'NONE',  ( 0.0000000000000000000, 0.0000000000000000000, 1.450000000000000178 ) ) ;
#1212 = ADVANCED_FACE ( 'NONE', ( #1214 ), #1159, .T. ) ;
#1213 = VECTOR ( 'NONE', #932, 1000.000000000000000 ) ;
#1214 = FACE_OUTER_BOUND ( 'NONE', #165, .T. ) ;
#1215 =( NAMED_UNIT ( * ) SI_UNIT ( $, .STERADIAN. ) SOLID_ANGLE_UNIT ( ) );
#1216 = DIRECTION ( 'NONE',  ( 0.0000000000000000000, 0.0000000000000000000, 1.000000000000000000 ) ) ;
#1217 = AXIS2_PLACEMENT_3D ( 'NONE', #325, #527, #230 ) ;
#1218 = ORIENTED_EDGE ( 'NONE', *, *, #300, .F. ) ;
#1219 = CARTESIAN_POINT ( 'NONE',  ( -1.250000000000000000, 5.799999999999998934, 0.1400000000000001521 ) ) ;
#1220 = ORIENTED_EDGE ( 'NONE', *, *, #586, .F. ) ;
#1221 = DIRECTION ( 'NONE',  ( 0.0000000000000000000, -1.000000000000000000, 0.0000000000000000000 ) ) ;
#1222 = DIRECTION ( 'NONE',  ( -1.000000000000000000, 0.0000000000000000000, -0.0000000000000000000 ) ) ;
#1223 = DIRECTION ( 'NONE',  ( -0.0000000000000000000, -1.000000000000000000, -0.0000000000000000000 ) ) ;
#1224 = EDGE_CURVE ( 'NONE', #885, #690, #172, .T. ) ;
#1225 = FACE_OUTER_BOUND ( 'NONE', #600, .T. ) ;
#1226 = ORIENTED_EDGE ( 'NONE', *, *, #997, .F. ) ;
#1227 = DIRECTION ( 'NONE',  ( 0.0000000000000000000, 1.000000000000000000, 0.0000000000000000000 ) ) ;
#1228 = DIRECTION ( 'NONE',  ( -0.0000000000000000000, -0.0000000000000000000, -1.000000000000000000 ) ) ;
#1229 = CIRCLE ( 'NONE', #1154, 0.2000000000000000944 ) ;
#1230 = CARTESIAN_POINT ( 'NONE',  ( 1.250000000000000000, 14.41421356237309048, 0.6400000000000002354 ) ) ;
#1231 = CARTESIAN_POINT ( 'NONE',  ( -0.5000000000000001110, 0.3999999999999997446, 1.450000000000000178 ) ) ;
#1232 = DIRECTION ( 'NONE',  ( -1.000000000000000000, 0.0000000000000000000, 0.0000000000000000000 ) ) ;
#1233 = DIRECTION ( 'NONE',  ( 0.0000000000000000000, 1.000000000000000000, 0.0000000000000000000 ) ) ;
#1234 = VERTEX_POINT ( 'NONE', #1340 ) ;
#1235 = FACE_OUTER_BOUND ( 'NONE', #335, .T. ) ;
#1236 = CARTESIAN_POINT ( 'NONE',  ( -2.750000000000000000, -1.400000000000000133, -1.350000000000000089 ) ) ;
#1237 = ORIENTED_EDGE ( 'NONE', *, *, #997, .T. ) ;
#1238 = ADVANCED_FACE ( 'NONE', ( #1100 ), #291, .T. ) ;
#1239 = DIRECTION ( 'NONE',  ( -1.000000000000000000, 0.0000000000000000000, 0.0000000000000000000 ) ) ;
#1240 = CARTESIAN_POINT ( 'NONE',  ( -2.750000000000000000, 1.399999999999999689, 1.350000000000000089 ) ) ;
#1241 = ORIENTED_EDGE ( 'NONE', *, *, #858, .T. ) ;
#1242 = ORIENTED_EDGE ( 'NONE', *, *, #1011, .T. ) ;
#1243 = DIRECTION ( 'NONE',  ( 0.0000000000000000000, 0.0000000000000000000, -1.000000000000000000 ) ) ;
#1244 = EDGE_LOOP ( 'NONE', ( #881, #1347, #1237, #1025 ) ) ;
#1245 = ORIENTED_EDGE ( 'NONE', *, *, #1041, .T. ) ;
#1246 = AXIS2_PLACEMENT_3D ( 'NONE', #704, #810, #179 ) ;
#1247 = DIRECTION ( 'NONE',  ( -5.421010862427522170E-17, 1.000000000000000000, -0.0000000000000000000 ) ) ;
#1248 = EDGE_CURVE ( 'NONE', #1161, #1066, #81, .T. ) ;
#1249 = DIRECTION ( 'NONE',  ( 0.0000000000000000000, 0.0000000000000000000, -1.000000000000000000 ) ) ;
#1250 = DIRECTION ( 'NONE',  ( 0.0000000000000000000, 0.0000000000000000000, -1.000000000000000000 ) ) ;
#1251 = CYLINDRICAL_SURFACE ( 'NONE', #1275, 0.7500000000000001110 ) ;
#1252 = ADVANCED_FACE ( 'NONE', ( #1207 ), #116, .F. ) ;
#1253 = DIRECTION ( 'NONE',  ( 0.0000000000000000000, 0.0000000000000000000, 1.000000000000000000 ) ) ;
#1254 = CARTESIAN_POINT ( 'NONE',  ( -2.500000000000000000, 0.09999999999999982514, 2.050000000000000266 ) ) ;
#1255 = VECTOR ( 'NONE', #1058, 1000.000000000000000 ) ;
#1256 = DIRECTION ( 'NONE',  ( -0.0000000000000000000, -0.0000000000000000000, 1.000000000000000000 ) ) ;
#1257 = CARTESIAN_POINT ( 'NONE',  ( 1.250000000000000000, 0.3999999999999997446, -0.6099999999999999867 ) ) ;
#1258 = CARTESIAN_POINT ( 'NONE',  ( -1.250000000000000000, 3.399999999999999911, 0.8900000000000002354 ) ) ;
#1259 = DIRECTION ( 'NONE',  ( -1.000000000000000000, 0.0000000000000000000, -0.0000000000000000000 ) ) ;
#1260 = ADVANCED_FACE ( 'NONE', ( #56 ), #105, .T. ) ;
#1261 = CARTESIAN_POINT ( 'NONE',  ( -1.250000000000000000, 3.600000000000000089, 0.6900000000000002798 ) ) ;
#1262 = CARTESIAN_POINT ( 'NONE',  ( 1.250000000000000000, 3.600000000000000089, 0.1400000000000001521 ) ) ;
#1263 = AXIS2_PLACEMENT_3D ( 'NONE', #420, #715, #818 ) ;
#1264 = ORIENTED_EDGE ( 'NONE', *, *, #1224, .T. ) ;
#1265 = DIRECTION ( 'NONE',  ( 0.0000000000000000000, 0.0000000000000000000, -1.000000000000000000 ) ) ;
#1266 = EDGE_CURVE ( 'NONE', #394, #1345, #1182, .T. ) ;
#1267 = ADVANCED_FACE ( 'NONE', ( #286 ), #1052, .F. ) ;
#1268 = DIRECTION ( 'NONE',  ( 0.0000000000000000000, 0.0000000000000000000, -1.000000000000000000 ) ) ;
#1269 = EDGE_LOOP ( 'NONE', ( #422, #819, #1220, #1099 ) ) ;
#1270 = ORIENTED_EDGE ( 'NONE', *, *, #786, .T. ) ;
#1271 = CARTESIAN_POINT ( 'NONE',  ( 1.250000000000000000, 5.399999999999998579, -0.3599999999999999867 ) ) ;
#1272 = DIRECTION ( 'NONE',  ( -0.0000000000000000000, -1.000000000000000000, -0.0000000000000000000 ) ) ;
#1273 = ORIENTED_EDGE ( 'NONE', *, *, #562, .T. ) ;
#1274 =( NAMED_UNIT ( * ) PLANE_ANGLE_UNIT ( ) SI_UNIT ( $, .RADIAN. ) );
#1275 = AXIS2_PLACEMENT_3D ( 'NONE', #883, #663, #389 ) ;
#1276 = EDGE_CURVE ( 'NONE', #672, #257, #694, .T. ) ;
#1277 = CARTESIAN_POINT ( 'NONE',  ( 2.000000000000000000, 0.3999999999999997446, -0.6500000000000000222 ) ) ;
#1278 = CARTESIAN_POINT ( 'NONE',  ( 0.0000000000000000000, 0.0000000000000000000, 0.0000000000000000000 ) ) ;
#1279 = CIRCLE ( 'NONE', #758, 0.2000000000000000944 ) ;
#1280 = PLANE ( 'NONE',  #1009 ) ;
#1281 = CYLINDRICAL_SURFACE ( 'NONE', #310, 0.2000000000000000944 ) ;
#1282 = AXIS2_PLACEMENT_3D ( 'NONE', #706, #288, #1216 ) ;
#1283 = ORIENTED_EDGE ( 'NONE', *, *, #324, .T. ) ;
#1284 = MECHANICAL_DESIGN_GEOMETRIC_PRESENTATION_REPRESENTATION (  '', ( #737 ), #376 ) ;
#1285 = PLANE ( 'NONE',  #1309 ) ;
#1286 = DIRECTION ( 'NONE',  ( -1.000000000000000000, -0.0000000000000000000, -0.0000000000000000000 ) ) ;
#1287 = CIRCLE ( 'NONE', #298, 0.7500000000000001110 ) ;
#1288 = EDGE_CURVE ( 'NONE', #960, #542, #847, .T. ) ;
#1289 = EDGE_CURVE ( 'NONE', #645, #874, #253, .T. ) ;
#1290 = CARTESIAN_POINT ( 'NONE',  ( 2.500000000000000000, 0.09999999999999982514, 1.850000000000000089 ) ) ;
#1291 = EDGE_LOOP ( 'NONE', ( #597, #29, #1056, #301 ) ) ;
#1292 = ORIENTED_EDGE ( 'NONE', *, *, #908, .T. ) ;
#1293 = CARTESIAN_POINT ( 'NONE',  ( 2.750000000000000000, -1.400000000000000133, -1.350000000000000089 ) ) ;
#1294 = COLOUR_RGB ( '',1.000000000000000000, 1.000000000000000000, 0.0000000000000000000 ) ;
#1295 = DIRECTION ( 'NONE',  ( 1.224646799147353207E-16, 1.000000000000000000, -0.0000000000000000000 ) ) ;
#1296 = AXIS2_PLACEMENT_3D ( 'NONE', #753, #539, #439 ) ;
#1297 = CARTESIAN_POINT ( 'NONE',  ( 2.299999999999999822, 0.09999999999999982514, 1.850000000000000089 ) ) ;
#1298 = VECTOR ( 'NONE', #479, 1000.000000000000000 ) ;
#1299 = VERTEX_POINT ( 'NONE', #1258 ) ;
#1300 = DIRECTION ( 'NONE',  ( -1.224646799147353207E-16, 1.000000000000000000, 0.0000000000000000000 ) ) ;
#1301 = AXIS2_PLACEMENT_3D ( 'NONE', #57, #911, #488 ) ;
#1302 = ORIENTED_EDGE ( 'NONE', *, *, #1050, .F. ) ;
#1303 = VECTOR ( 'NONE', #158, 1000.000000000000000 ) ;
#1304 = DIRECTION ( 'NONE',  ( -0.0000000000000000000, -0.0000000000000000000, -1.000000000000000000 ) ) ;
#1305 = ORIENTED_EDGE ( 'NONE', *, *, #1028, .F. ) ;
#1306 = CARTESIAN_POINT ( 'NONE',  ( -0.5000000000000000000, -1.600000000000000311, 1.450000000000000178 ) ) ;
#1307 = ORIENTED_EDGE ( 'NONE', *, *, #1248, .F. ) ;
#1308 = PLANE ( 'NONE',  #342 ) ;
#1309 = AXIS2_PLACEMENT_3D ( 'NONE', #556, #363, #979 ) ;
#1310 = VECTOR ( 'NONE', #844, 1000.000000000000000 ) ;
#1311 = DIRECTION ( 'NONE',  ( 0.0000000000000000000, -1.000000000000000000, 0.0000000000000000000 ) ) ;
#1312 = DIRECTION ( 'NONE',  ( -1.000000000000000000, 0.0000000000000000000, 0.0000000000000000000 ) ) ;
#1313 = EDGE_CURVE ( 'NONE', #742, #1077, #495, .T. ) ;
#1314 = CARTESIAN_POINT ( 'NONE',  ( -0.5000000000000001110, 0.3999999999999997446, 1.450000000000000178 ) ) ;
#1315 = EDGE_LOOP ( 'NONE', ( #60, #492, #1270, #468 ) ) ;
#1316 = CARTESIAN_POINT ( 'NONE',  ( -1.250000000000000000, 3.600000000000000089, -0.6099999999999999867 ) ) ;
#1317 = DIRECTION ( 'NONE',  ( -0.0000000000000000000, -0.0000000000000000000, 1.000000000000000000 ) ) ;
#1318 = EDGE_CURVE ( 'NONE', #918, #1203, #1081, .T. ) ;
#1319 = PLANE ( 'NONE',  #95 ) ;
#1320 = ORIENTED_EDGE ( 'NONE', *, *, #624, .T. ) ;
#1321 = DIRECTION ( 'NONE',  ( -1.000000000000000000, -0.0000000000000000000, -0.0000000000000000000 ) ) ;
#1322 = CARTESIAN_POINT ( 'NONE',  ( 2.750000000000000000, -1.400000000000000133, 1.350000000000000089 ) ) ;
#1323 = CARTESIAN_POINT ( 'NONE',  ( 2.500000000000000000, 0.09999999999999982514, 2.050000000000000266 ) ) ;
#1324 = ORIENTED_EDGE ( 'NONE', *, *, #764, .T. ) ;
#1325 = DIRECTION ( 'NONE',  ( -0.0000000000000000000, -1.000000000000000000, -0.0000000000000000000 ) ) ;
#1326 = CARTESIAN_POINT ( 'NONE',  ( -0.5000000000000001110, 0.3999999999999997446, -0.6500000000000000222 ) ) ;
#1327 = ADVANCED_FACE ( 'NONE', ( #525 ), #125, .T. ) ;
#1328 = DIRECTION ( 'NONE',  ( -0.0000000000000000000, 0.0000000000000000000, -1.000000000000000000 ) ) ;
#1329 = PLANE ( 'NONE',  #931 ) ;
#1330 = ORIENTED_EDGE ( 'NONE', *, *, #97, .T. ) ;
#1331 = CARTESIAN_POINT ( 'NONE',  ( -1.250000000000000000, 14.41421356237309048, 0.1400000000000001521 ) ) ;
#1332 = CARTESIAN_POINT ( 'NONE',  ( 0.5000000000000000000, 0.3999999999999997446, 1.450000000000000178 ) ) ;
#1333 = DIRECTION ( 'NONE',  ( 0.0000000000000000000, 0.0000000000000000000, 1.000000000000000000 ) ) ;
#1334 = ORIENTED_EDGE ( 'NONE', *, *, #217, .T. ) ;
#1335 = EDGE_LOOP ( 'NONE', ( #204, #1141, #430, #454 ) ) ;
#1336 = AXIS2_PLACEMENT_3D ( 'NONE', #994, #161, #793 ) ;
#1337 = CARTESIAN_POINT ( 'NONE',  ( -0.5000000000000000000, -1.600000000000000311, -0.6500000000000000222 ) ) ;
#1338 = EDGE_CURVE ( 'NONE', #838, #460, #154, .T. ) ;
#1339 = CIRCLE ( 'NONE', #266, 0.5000000000000001110 ) ;
#1340 = CARTESIAN_POINT ( 'NONE',  ( 0.5000000000000000000, 0.3999999999999997446, -0.6500000000000000222 ) ) ;
#1341 = LINE ( 'NONE', #75, #783 ) ;
#1342 = CARTESIAN_POINT ( 'NONE',  ( 1.250000000000000000, 3.600000000000000089, 0.1400000000000001521 ) ) ;
#1343 = ADVANCED_FACE ( 'NONE', ( #577 ), #143, .F. ) ;
#1344 = EDGE_LOOP ( 'NONE', ( #681, #63, #1334, #1118, #262 ) ) ;
#1345 = VERTEX_POINT ( 'NONE', #447 ) ;
#1346 = CARTESIAN_POINT ( 'NONE',  ( 0.5000000000000000000, -1.600000000000000311, -0.6500000000000000222 ) ) ;
#1347 = ORIENTED_EDGE ( 'NONE', *, *, #869, .T. ) ;
#1348 = DIRECTION ( 'NONE',  ( 0.0000000000000000000, 1.000000000000000000, 0.0000000000000000000 ) ) ;
#1349 = DIRECTION ( 'NONE',  ( 0.0000000000000000000, -0.0000000000000000000, -1.000000000000000000 ) ) ;
#1350 = LINE ( 'NONE', #604, #180 ) ;
#1351 = DIRECTION ( 'NONE',  ( 1.000000000000000000, -0.0000000000000000000, -0.0000000000000000000 ) ) ;
#1352 = DIRECTION ( 'NONE',  ( 0.0000000000000000000, 0.0000000000000000000, 1.000000000000000000 ) ) ;
ENDSEC;
END-ISO-10303-21;
