ISO-10303-21;
HEADER;
FILE_DESCRIPTION(('STEP AP214'),'1');
FILE_NAME('AR01BTC0220.stp','2023-04-04T08:04:10',('TraceParts'),('TraceParts S.A.'),'Spatial InterOp 3D',' ',' ');
FILE_SCHEMA(('AUTOMOTIVE_DESIGN { 1 0 10303 214 1 1 1 1 }'));
ENDSEC;
DATA;
#1=MECHANICAL_DESIGN_GEOMETRIC_PRESENTATION_REPRESENTATION(' ',(#10,#11,#12,#13,#14,#15,#16,#17,#18,#19,#20,#21,#22,#23,#24,#25,#26,#27,#28,#29,#30,#31,#32,#33,#34,#35,#36,#37,#38,#39),#6);
#2=PRODUCT_DEFINITION_CONTEXT('',#40,'design');
#3=APPLICATION_PROTOCOL_DEFINITION('INTERNATIONAL STANDARD','automotive_design',1994,#40);
#4=PRODUCT_CATEGORY_RELATIONSHIP('NONE','NONE',#41,#42);
#5=SHAPE_DEFINITION_REPRESENTATION(#43,#44);
#6= (GEOMETRIC_REPRESENTATION_CONTEXT(3)GLOBAL_UNCERTAINTY_ASSIGNED_CONTEXT((#47))GLOBAL_UNIT_ASSIGNED_CONTEXT((#49,#50,#51))REPRESENTATION_CONTEXT('NONE','WORKSPACE'));
#10=STYLED_ITEM('',(#53),#54);
#11=STYLED_ITEM('',(#55),#56);
#12=STYLED_ITEM('',(#57),#58);
#13=STYLED_ITEM('',(#59),#60);
#14=STYLED_ITEM('',(#61),#62);
#15=STYLED_ITEM('',(#63),#64);
#16=STYLED_ITEM('',(#65),#66);
#17=STYLED_ITEM('',(#67),#68);
#18=STYLED_ITEM('',(#69),#70);
#19=STYLED_ITEM('',(#71),#72);
#20=STYLED_ITEM('',(#73),#74);
#21=STYLED_ITEM('',(#75),#76);
#22=STYLED_ITEM('',(#77),#78);
#23=STYLED_ITEM('',(#79),#80);
#24=STYLED_ITEM('',(#81),#82);
#25=STYLED_ITEM('',(#83),#84);
#26=STYLED_ITEM('',(#85),#86);
#27=STYLED_ITEM('',(#87),#88);
#28=STYLED_ITEM('',(#89),#90);
#29=STYLED_ITEM('',(#91),#92);
#30=STYLED_ITEM('',(#93),#94);
#31=STYLED_ITEM('',(#95),#96);
#32=STYLED_ITEM('',(#97),#98);
#33=STYLED_ITEM('',(#99),#100);
#34=STYLED_ITEM('',(#101),#102);
#35=STYLED_ITEM('',(#103),#104);
#36=STYLED_ITEM('',(#105),#106);
#37=STYLED_ITEM('',(#107),#108);
#38=STYLED_ITEM('',(#109),#110);
#39=STYLED_ITEM('',(#111),#112);
#40=APPLICATION_CONTEXT(' ');
#41=PRODUCT_CATEGORY('part','NONE');
#42=PRODUCT_RELATED_PRODUCT_CATEGORY('detail',' ',(#113));
#43=PRODUCT_DEFINITION_SHAPE('NONE','NONE',#114);
#44=ADVANCED_BREP_SHAPE_REPRESENTATION('AR01BTC0220',(#115,#116),#6);
#47=UNCERTAINTY_MEASURE_WITH_UNIT(LENGTH_MEASURE(1.0E-06),#49,'','');
#49= (CONVERSION_BASED_UNIT('MILLIMETRE',#119)LENGTH_UNIT()NAMED_UNIT(#122));
#50= (NAMED_UNIT(#124)PLANE_ANGLE_UNIT()SI_UNIT($,.RADIAN.));
#51= (NAMED_UNIT(#124)SOLID_ANGLE_UNIT()SI_UNIT($,.STERADIAN.));
#53=PRESENTATION_STYLE_ASSIGNMENT((#130));
#54=ADVANCED_FACE('',(#131),#132,.T.);
#55=PRESENTATION_STYLE_ASSIGNMENT((#133));
#56=ADVANCED_FACE('',(#134),#135,.F.);
#57=PRESENTATION_STYLE_ASSIGNMENT((#136));
#58=ADVANCED_FACE('',(#137),#138,.F.);
#59=PRESENTATION_STYLE_ASSIGNMENT((#139));
#60=ADVANCED_FACE('',(#140),#141,.F.);
#61=PRESENTATION_STYLE_ASSIGNMENT((#142));
#62=ADVANCED_FACE('',(#143),#144,.F.);
#63=PRESENTATION_STYLE_ASSIGNMENT((#145));
#64=ADVANCED_FACE('',(#146),#147,.F.);
#65=PRESENTATION_STYLE_ASSIGNMENT((#148));
#66=ADVANCED_FACE('',(#149),#150,.F.);
#67=PRESENTATION_STYLE_ASSIGNMENT((#151));
#68=ADVANCED_FACE('',(#152),#153,.T.);
#69=PRESENTATION_STYLE_ASSIGNMENT((#154));
#70=ADVANCED_FACE('',(#155),#156,.F.);
#71=PRESENTATION_STYLE_ASSIGNMENT((#157));
#72=ADVANCED_FACE('',(#158),#159,.F.);
#73=PRESENTATION_STYLE_ASSIGNMENT((#160));
#74=ADVANCED_FACE('',(#161),#162,.F.);
#75=PRESENTATION_STYLE_ASSIGNMENT((#163));
#76=ADVANCED_FACE('',(#164),#165,.T.);
#77=PRESENTATION_STYLE_ASSIGNMENT((#166));
#78=ADVANCED_FACE('',(#167),#168,.T.);
#79=PRESENTATION_STYLE_ASSIGNMENT((#169));
#80=ADVANCED_FACE('',(#170),#171,.F.);
#81=PRESENTATION_STYLE_ASSIGNMENT((#172));
#82=ADVANCED_FACE('',(#173),#174,.T.);
#83=PRESENTATION_STYLE_ASSIGNMENT((#175));
#84=ADVANCED_FACE('',(#176),#177,.T.);
#85=PRESENTATION_STYLE_ASSIGNMENT((#178));
#86=ADVANCED_FACE('',(#179),#180,.T.);
#87=PRESENTATION_STYLE_ASSIGNMENT((#181));
#88=ADVANCED_FACE('',(#182),#183,.T.);
#89=PRESENTATION_STYLE_ASSIGNMENT((#184));
#90=ADVANCED_FACE('',(#185),#186,.T.);
#91=PRESENTATION_STYLE_ASSIGNMENT((#187));
#92=ADVANCED_FACE('',(#188),#189,.F.);
#93=PRESENTATION_STYLE_ASSIGNMENT((#190));
#94=ADVANCED_FACE('',(#191),#192,.F.);
#95=PRESENTATION_STYLE_ASSIGNMENT((#193));
#96=ADVANCED_FACE('',(#194),#195,.T.);
#97=PRESENTATION_STYLE_ASSIGNMENT((#196));
#98=ADVANCED_FACE('',(#197),#198,.T.);
#99=PRESENTATION_STYLE_ASSIGNMENT((#199));
#100=ADVANCED_FACE('',(#200),#201,.F.);
#101=PRESENTATION_STYLE_ASSIGNMENT((#202));
#102=ADVANCED_FACE('',(#203),#204,.T.);
#103=PRESENTATION_STYLE_ASSIGNMENT((#205));
#104=ADVANCED_FACE('',(#206),#207,.T.);
#105=PRESENTATION_STYLE_ASSIGNMENT((#208));
#106=ADVANCED_FACE('',(#209),#210,.T.);
#107=PRESENTATION_STYLE_ASSIGNMENT((#211));
#108=ADVANCED_FACE('',(#212),#213,.T.);
#109=PRESENTATION_STYLE_ASSIGNMENT((#214));
#110=ADVANCED_FACE('',(#215),#216,.T.);
#111=PRESENTATION_STYLE_ASSIGNMENT((#217));
#112=ADVANCED_FACE('',(#218),#219,.F.);
#113=PRODUCT('AR01BTC0220','AR01BTC0220','PART-AR01BTC0220-DESC',(#220));
#114=PRODUCT_DEFINITION('','NONE',#221,#2);
#115=MANIFOLD_SOLID_BREP('AR01BTC0220',#222);
#116=AXIS2_PLACEMENT_3D('',#223,#224,#225);
#119=LENGTH_MEASURE_WITH_UNIT(LENGTH_MEASURE(1.0),#226);
#122=DIMENSIONAL_EXPONENTS(1.0,0.0,0.0,0.0,0.0,0.0,0.0);
#124=DIMENSIONAL_EXPONENTS(0.0,0.0,0.0,0.0,0.0,0.0,0.0);
#130=SURFACE_STYLE_USAGE(.BOTH.,#227);
#131=FACE_OUTER_BOUND('',#228,.T.);
#132=PLANE('',#229);
#133=SURFACE_STYLE_USAGE(.BOTH.,#230);
#134=FACE_OUTER_BOUND('',#231,.T.);
#135=PLANE('',#232);
#136=SURFACE_STYLE_USAGE(.BOTH.,#233);
#137=FACE_OUTER_BOUND('',#234,.T.);
#138=PLANE('',#235);
#139=SURFACE_STYLE_USAGE(.BOTH.,#236);
#140=FACE_OUTER_BOUND('',#237,.T.);
#141=PLANE('',#238);
#142=SURFACE_STYLE_USAGE(.BOTH.,#239);
#143=FACE_OUTER_BOUND('',#240,.T.);
#144=PLANE('',#241);
#145=SURFACE_STYLE_USAGE(.BOTH.,#242);
#146=FACE_OUTER_BOUND('',#243,.T.);
#147=PLANE('',#244);
#148=SURFACE_STYLE_USAGE(.BOTH.,#245);
#149=FACE_OUTER_BOUND('',#246,.T.);
#150=PLANE('',#247);
#151=SURFACE_STYLE_USAGE(.BOTH.,#248);
#152=FACE_OUTER_BOUND('',#249,.T.);
#153=PLANE('',#250);
#154=SURFACE_STYLE_USAGE(.BOTH.,#251);
#155=FACE_OUTER_BOUND('',#252,.T.);
#156=PLANE('',#253);
#157=SURFACE_STYLE_USAGE(.BOTH.,#254);
#158=FACE_OUTER_BOUND('',#255,.T.);
#159=PLANE('',#256);
#160=SURFACE_STYLE_USAGE(.BOTH.,#257);
#161=FACE_OUTER_BOUND('',#258,.T.);
#162=PLANE('',#259);
#163=SURFACE_STYLE_USAGE(.BOTH.,#260);
#164=FACE_OUTER_BOUND('',#261,.T.);
#165=PLANE('',#262);
#166=SURFACE_STYLE_USAGE(.BOTH.,#263);
#167=FACE_OUTER_BOUND('',#264,.T.);
#168=PLANE('',#265);
#169=SURFACE_STYLE_USAGE(.BOTH.,#266);
#170=FACE_OUTER_BOUND('',#267,.T.);
#171=PLANE('',#268);
#172=SURFACE_STYLE_USAGE(.BOTH.,#269);
#173=FACE_OUTER_BOUND('',#270,.T.);
#174=PLANE('',#271);
#175=SURFACE_STYLE_USAGE(.BOTH.,#272);
#176=FACE_OUTER_BOUND('',#273,.T.);
#177=PLANE('',#274);
#178=SURFACE_STYLE_USAGE(.BOTH.,#275);
#179=FACE_OUTER_BOUND('',#276,.T.);
#180=PLANE('',#277);
#181=SURFACE_STYLE_USAGE(.BOTH.,#278);
#182=FACE_OUTER_BOUND('',#279,.T.);
#183=PLANE('',#280);
#184=SURFACE_STYLE_USAGE(.BOTH.,#281);
#185=FACE_OUTER_BOUND('',#282,.T.);
#186=PLANE('',#283);
#187=SURFACE_STYLE_USAGE(.BOTH.,#284);
#188=FACE_OUTER_BOUND('',#285,.T.);
#189=PLANE('',#286);
#190=SURFACE_STYLE_USAGE(.BOTH.,#287);
#191=FACE_OUTER_BOUND('',#288,.T.);
#192=PLANE('',#289);
#193=SURFACE_STYLE_USAGE(.BOTH.,#290);
#194=FACE_OUTER_BOUND('',#291,.T.);
#195=PLANE('',#292);
#196=SURFACE_STYLE_USAGE(.BOTH.,#293);
#197=FACE_OUTER_BOUND('',#294,.T.);
#198=PLANE('',#295);
#199=SURFACE_STYLE_USAGE(.BOTH.,#296);
#200=FACE_OUTER_BOUND('',#297,.T.);
#201=PLANE('',#298);
#202=SURFACE_STYLE_USAGE(.BOTH.,#299);
#203=FACE_OUTER_BOUND('',#300,.T.);
#204=PLANE('',#301);
#205=SURFACE_STYLE_USAGE(.BOTH.,#302);
#206=FACE_OUTER_BOUND('',#303,.T.);
#207=PLANE('',#304);
#208=SURFACE_STYLE_USAGE(.BOTH.,#305);
#209=FACE_OUTER_BOUND('',#306,.T.);
#210=PLANE('',#307);
#211=SURFACE_STYLE_USAGE(.BOTH.,#308);
#212=FACE_OUTER_BOUND('',#309,.T.);
#213=PLANE('',#310);
#214=SURFACE_STYLE_USAGE(.BOTH.,#311);
#215=FACE_OUTER_BOUND('',#312,.T.);
#216=PLANE('',#313);
#217=SURFACE_STYLE_USAGE(.BOTH.,#314);
#218=FACE_OUTER_BOUND('',#315,.T.);
#219=PLANE('',#316);
#220=PRODUCT_CONTEXT('',#40,'mechanical');
#221=PRODUCT_DEFINITION_FORMATION_WITH_SPECIFIED_SOURCE(' ','NONE',#113,.NOT_KNOWN.);
#222=CLOSED_SHELL('',(#54,#56,#58,#60,#62,#64,#66,#68,#70,#72,#74,#76,#78,#80,#82,#84,#86,#88,#90,#92,#94,#96,#98,#100,#102,#104,#106,#108,#110,#112));
#223=CARTESIAN_POINT('',(0.0,0.0,0.0));
#224=DIRECTION('',(0.0,0.0,1.0));
#225=DIRECTION('',(1.0,0.0,0.0));
#226= (NAMED_UNIT(#122)LENGTH_UNIT()SI_UNIT(.MILLI.,.METRE.));
#227=SURFACE_SIDE_STYLE('',(#318));
#228=EDGE_LOOP('',(#319,#320,#321,#322));
#229=AXIS2_PLACEMENT_3D('',#323,#324,#325);
#230=SURFACE_SIDE_STYLE('',(#326));
#231=EDGE_LOOP('',(#327,#328,#329,#330));
#232=AXIS2_PLACEMENT_3D('',#331,#332,#333);
#233=SURFACE_SIDE_STYLE('',(#334));
#234=EDGE_LOOP('',(#335,#336,#337,#338));
#235=AXIS2_PLACEMENT_3D('',#339,#340,#341);
#236=SURFACE_SIDE_STYLE('',(#342));
#237=EDGE_LOOP('',(#343,#344,#345,#346));
#238=AXIS2_PLACEMENT_3D('',#347,#348,#349);
#239=SURFACE_SIDE_STYLE('',(#350));
#240=EDGE_LOOP('',(#351,#352,#353,#354));
#241=AXIS2_PLACEMENT_3D('',#355,#356,#357);
#242=SURFACE_SIDE_STYLE('',(#358));
#243=EDGE_LOOP('',(#359,#360,#361,#362));
#244=AXIS2_PLACEMENT_3D('',#363,#364,#365);
#245=SURFACE_SIDE_STYLE('',(#366));
#246=EDGE_LOOP('',(#367,#368,#369,#370,#371,#372,#373,#374,#375,#376,#377,#378));
#247=AXIS2_PLACEMENT_3D('',#379,#380,#381);
#248=SURFACE_SIDE_STYLE('',(#382));
#249=EDGE_LOOP('',(#383,#384,#385,#386));
#250=AXIS2_PLACEMENT_3D('',#387,#388,#389);
#251=SURFACE_SIDE_STYLE('',(#390));
#252=EDGE_LOOP('',(#391,#392,#393,#394,#395,#396));
#253=AXIS2_PLACEMENT_3D('',#397,#398,#399);
#254=SURFACE_SIDE_STYLE('',(#400));
#255=EDGE_LOOP('',(#401,#402,#403,#404,#405,#406,#407,#408));
#256=AXIS2_PLACEMENT_3D('',#409,#410,#411);
#257=SURFACE_SIDE_STYLE('',(#412));
#258=EDGE_LOOP('',(#413,#414,#415,#416,#417,#418));
#259=AXIS2_PLACEMENT_3D('',#419,#420,#421);
#260=SURFACE_SIDE_STYLE('',(#422));
#261=EDGE_LOOP('',(#423,#424,#425,#426));
#262=AXIS2_PLACEMENT_3D('',#427,#428,#429);
#263=SURFACE_SIDE_STYLE('',(#430));
#264=EDGE_LOOP('',(#431,#432,#433,#434));
#265=AXIS2_PLACEMENT_3D('',#435,#436,#437);
#266=SURFACE_SIDE_STYLE('',(#438));
#267=EDGE_LOOP('',(#439,#440,#441,#442,#443,#444));
#268=AXIS2_PLACEMENT_3D('',#445,#446,#447);
#269=SURFACE_SIDE_STYLE('',(#448));
#270=EDGE_LOOP('',(#449,#450,#451,#452));
#271=AXIS2_PLACEMENT_3D('',#453,#454,#455);
#272=SURFACE_SIDE_STYLE('',(#456));
#273=EDGE_LOOP('',(#457,#458,#459,#460,#461,#462,#463,#464));
#274=AXIS2_PLACEMENT_3D('',#465,#466,#467);
#275=SURFACE_SIDE_STYLE('',(#468));
#276=EDGE_LOOP('',(#469,#470,#471,#472));
#277=AXIS2_PLACEMENT_3D('',#473,#474,#475);
#278=SURFACE_SIDE_STYLE('',(#476));
#279=EDGE_LOOP('',(#477,#478,#479,#480));
#280=AXIS2_PLACEMENT_3D('',#481,#482,#483);
#281=SURFACE_SIDE_STYLE('',(#484));
#282=EDGE_LOOP('',(#485,#486,#487,#488));
#283=AXIS2_PLACEMENT_3D('',#489,#490,#491);
#284=SURFACE_SIDE_STYLE('',(#492));
#285=EDGE_LOOP('',(#493,#494,#495,#496,#497,#498,#499,#500,#501,#502,#503,#504));
#286=AXIS2_PLACEMENT_3D('',#505,#506,#507);
#287=SURFACE_SIDE_STYLE('',(#508));
#288=EDGE_LOOP('',(#509,#510,#511,#512));
#289=AXIS2_PLACEMENT_3D('',#513,#514,#515);
#290=SURFACE_SIDE_STYLE('',(#516));
#291=EDGE_LOOP('',(#517,#518,#519,#520,#521,#522,#523,#524,#525,#526,#527,#528));
#292=AXIS2_PLACEMENT_3D('',#529,#530,#531);
#293=SURFACE_SIDE_STYLE('',(#532));
#294=EDGE_LOOP('',(#533,#534,#535,#536));
#295=AXIS2_PLACEMENT_3D('',#537,#538,#539);
#296=SURFACE_SIDE_STYLE('',(#540));
#297=EDGE_LOOP('',(#541,#542,#543,#544,#545,#546));
#298=AXIS2_PLACEMENT_3D('',#547,#548,#549);
#299=SURFACE_SIDE_STYLE('',(#550));
#300=EDGE_LOOP('',(#551,#552,#553,#554));
#301=AXIS2_PLACEMENT_3D('',#555,#556,#557);
#302=SURFACE_SIDE_STYLE('',(#558));
#303=EDGE_LOOP('',(#559,#560,#561,#562,#563,#564,#565,#566));
#304=AXIS2_PLACEMENT_3D('',#567,#568,#569);
#305=SURFACE_SIDE_STYLE('',(#570));
#306=EDGE_LOOP('',(#571,#572,#573,#574));
#307=AXIS2_PLACEMENT_3D('',#575,#576,#577);
#308=SURFACE_SIDE_STYLE('',(#578));
#309=EDGE_LOOP('',(#579,#580,#581,#582));
#310=AXIS2_PLACEMENT_3D('',#583,#584,#585);
#311=SURFACE_SIDE_STYLE('',(#586));
#312=EDGE_LOOP('',(#587,#588,#589,#590));
#313=AXIS2_PLACEMENT_3D('',#591,#592,#593);
#314=SURFACE_SIDE_STYLE('',(#594));
#315=EDGE_LOOP('',(#595,#596,#597,#598,#599,#600,#601,#602));
#316=AXIS2_PLACEMENT_3D('',#603,#604,#605);
#318=SURFACE_STYLE_FILL_AREA(#606);
#319=ORIENTED_EDGE('',*,*,#607,.F.);
#320=ORIENTED_EDGE('',*,*,#608,.T.);
#321=ORIENTED_EDGE('',*,*,#609,.T.);
#322=ORIENTED_EDGE('',*,*,#610,.T.);
#323=CARTESIAN_POINT('',(0.0,0.202,0.1218));
#324=DIRECTION('',(0.0,0.0,1.0));
#325=DIRECTION('',(1.0,0.0,0.0));
#326=SURFACE_STYLE_FILL_AREA(#611);
#327=ORIENTED_EDGE('',*,*,#612,.F.);
#328=ORIENTED_EDGE('',*,*,#613,.T.);
#329=ORIENTED_EDGE('',*,*,#614,.F.);
#330=ORIENTED_EDGE('',*,*,#615,.F.);
#331=CARTESIAN_POINT('',(-0.1712,0.202,0.0));
#332=DIRECTION('',(1.0,0.0,0.0));
#333=DIRECTION('',(0.0,0.0,-1.0));
#334=SURFACE_STYLE_FILL_AREA(#616);
#335=ORIENTED_EDGE('',*,*,#617,.F.);
#336=ORIENTED_EDGE('',*,*,#618,.F.);
#337=ORIENTED_EDGE('',*,*,#610,.F.);
#338=ORIENTED_EDGE('',*,*,#619,.T.);
#339=CARTESIAN_POINT('',(-0.1712,0.202,0.0));
#340=DIRECTION('',(1.0,0.0,0.0));
#341=DIRECTION('',(0.0,0.0,-1.0));
#342=SURFACE_STYLE_FILL_AREA(#620);
#343=ORIENTED_EDGE('',*,*,#621,.F.);
#344=ORIENTED_EDGE('',*,*,#622,.F.);
#345=ORIENTED_EDGE('',*,*,#623,.F.);
#346=ORIENTED_EDGE('',*,*,#624,.F.);
#347=CARTESIAN_POINT('',(0.1712,0.202,0.0));
#348=DIRECTION('',(-1.0,0.0,0.0));
#349=DIRECTION('',(0.0,0.0,1.0));
#350=SURFACE_STYLE_FILL_AREA(#625);
#351=ORIENTED_EDGE('',*,*,#626,.F.);
#352=ORIENTED_EDGE('',*,*,#627,.F.);
#353=ORIENTED_EDGE('',*,*,#628,.F.);
#354=ORIENTED_EDGE('',*,*,#608,.F.);
#355=CARTESIAN_POINT('',(0.1712,0.202,0.0));
#356=DIRECTION('',(-1.0,0.0,0.0));
#357=DIRECTION('',(0.0,0.0,1.0));
#358=SURFACE_STYLE_FILL_AREA(#629);
#359=ORIENTED_EDGE('',*,*,#630,.F.);
#360=ORIENTED_EDGE('',*,*,#614,.T.);
#361=ORIENTED_EDGE('',*,*,#631,.T.);
#362=ORIENTED_EDGE('',*,*,#622,.T.);
#363=CARTESIAN_POINT('',(0.0,0.202,-0.1218));
#364=DIRECTION('',(0.0,0.0,1.0));
#365=DIRECTION('',(1.0,0.0,0.0));
#366=SURFACE_STYLE_FILL_AREA(#632);
#367=ORIENTED_EDGE('',*,*,#633,.F.);
#368=ORIENTED_EDGE('',*,*,#619,.F.);
#369=ORIENTED_EDGE('',*,*,#609,.F.);
#370=ORIENTED_EDGE('',*,*,#628,.T.);
#371=ORIENTED_EDGE('',*,*,#634,.F.);
#372=ORIENTED_EDGE('',*,*,#635,.F.);
#373=ORIENTED_EDGE('',*,*,#636,.F.);
#374=ORIENTED_EDGE('',*,*,#623,.T.);
#375=ORIENTED_EDGE('',*,*,#631,.F.);
#376=ORIENTED_EDGE('',*,*,#613,.F.);
#377=ORIENTED_EDGE('',*,*,#637,.F.);
#378=ORIENTED_EDGE('',*,*,#638,.F.);
#379=CARTESIAN_POINT('',(0.0,0.225,0.0));
#380=DIRECTION('',(0.0,-1.0,0.0));
#381=DIRECTION('',(0.0,0.0,-1.0));
#382=SURFACE_STYLE_FILL_AREA(#639);
#383=ORIENTED_EDGE('',*,*,#638,.T.);
#384=ORIENTED_EDGE('',*,*,#640,.T.);
#385=ORIENTED_EDGE('',*,*,#641,.T.);
#386=ORIENTED_EDGE('',*,*,#642,.T.);
#387=CARTESIAN_POINT('',(-0.17,0.207,-0.145));
#388=DIRECTION('',(1.0,-3.01691039300314E-16,0.0));
#389=DIRECTION('',(3.01691039300314E-16,1.0,0.0));
#390=SURFACE_STYLE_FILL_AREA(#643);
#391=ORIENTED_EDGE('',*,*,#637,.T.);
#392=ORIENTED_EDGE('',*,*,#612,.T.);
#393=ORIENTED_EDGE('',*,*,#644,.F.);
#394=ORIENTED_EDGE('',*,*,#645,.F.);
#395=ORIENTED_EDGE('',*,*,#646,.F.);
#396=ORIENTED_EDGE('',*,*,#640,.F.);
#397=CARTESIAN_POINT('',(0.0,0.184,-0.116));
#398=DIRECTION('',(0.0,0.0,1.0));
#399=DIRECTION('',(1.0,0.0,0.0));
#400=SURFACE_STYLE_FILL_AREA(#647);
#401=ORIENTED_EDGE('',*,*,#615,.T.);
#402=ORIENTED_EDGE('',*,*,#630,.T.);
#403=ORIENTED_EDGE('',*,*,#621,.T.);
#404=ORIENTED_EDGE('',*,*,#648,.T.);
#405=ORIENTED_EDGE('',*,*,#649,.T.);
#406=ORIENTED_EDGE('',*,*,#650,.F.);
#407=ORIENTED_EDGE('',*,*,#651,.T.);
#408=ORIENTED_EDGE('',*,*,#644,.T.);
#409=CARTESIAN_POINT('',(0.0,0.209,0.0));
#410=DIRECTION('',(0.0,-1.0,0.0));
#411=DIRECTION('',(0.0,0.0,-1.0));
#412=SURFACE_STYLE_FILL_AREA(#652);
#413=ORIENTED_EDGE('',*,*,#624,.T.);
#414=ORIENTED_EDGE('',*,*,#636,.T.);
#415=ORIENTED_EDGE('',*,*,#653,.F.);
#416=ORIENTED_EDGE('',*,*,#654,.F.);
#417=ORIENTED_EDGE('',*,*,#655,.F.);
#418=ORIENTED_EDGE('',*,*,#648,.F.);
#419=CARTESIAN_POINT('',(2.84108674086792E-17,0.184,-0.116));
#420=DIRECTION('',(-2.44921270764475E-16,0.0,1.0));
#421=DIRECTION('',(1.0,0.0,2.44921270764475E-16));
#422=SURFACE_STYLE_FILL_AREA(#656);
#423=ORIENTED_EDGE('',*,*,#649,.F.);
#424=ORIENTED_EDGE('',*,*,#655,.T.);
#425=ORIENTED_EDGE('',*,*,#657,.F.);
#426=ORIENTED_EDGE('',*,*,#658,.F.);
#427=CARTESIAN_POINT('',(0.242,0.184,-0.145));
#428=DIRECTION('',(-1.0,0.0,-2.44921270764475E-16));
#429=DIRECTION('',(-2.44921270764475E-16,0.0,1.0));
#430=SURFACE_STYLE_FILL_AREA(#659);
#431=ORIENTED_EDGE('',*,*,#635,.T.);
#432=ORIENTED_EDGE('',*,*,#660,.T.);
#433=ORIENTED_EDGE('',*,*,#661,.T.);
#434=ORIENTED_EDGE('',*,*,#653,.T.);
#435=CARTESIAN_POINT('',(0.17,0.207,0.145));
#436=DIRECTION('',(-1.0,-3.01691039300314E-16,-1.22460635382238E-16));
#437=DIRECTION('',(-3.01691039300314E-16,1.0,-3.69452763618441E-32));
#438=SURFACE_STYLE_FILL_AREA(#662);
#439=ORIENTED_EDGE('',*,*,#627,.T.);
#440=ORIENTED_EDGE('',*,*,#663,.F.);
#441=ORIENTED_EDGE('',*,*,#664,.F.);
#442=ORIENTED_EDGE('',*,*,#665,.F.);
#443=ORIENTED_EDGE('',*,*,#660,.F.);
#444=ORIENTED_EDGE('',*,*,#634,.T.);
#445=CARTESIAN_POINT('',(-1.42054337043396E-17,0.184,0.116));
#446=DIRECTION('',(1.22460635382238E-16,0.0,-1.0));
#447=DIRECTION('',(-1.0,0.0,-1.22460635382238E-16));
#448=SURFACE_STYLE_FILL_AREA(#666);
#449=ORIENTED_EDGE('',*,*,#667,.F.);
#450=ORIENTED_EDGE('',*,*,#668,.F.);
#451=ORIENTED_EDGE('',*,*,#669,.F.);
#452=ORIENTED_EDGE('',*,*,#664,.T.);
#453=CARTESIAN_POINT('',(0.242,0.184,0.145));
#454=DIRECTION('',(-1.0,0.0,-1.22460635382238E-16));
#455=DIRECTION('',(-1.22460635382238E-16,0.0,1.0));
#456=SURFACE_STYLE_FILL_AREA(#670);
#457=ORIENTED_EDGE('',*,*,#657,.T.);
#458=ORIENTED_EDGE('',*,*,#654,.T.);
#459=ORIENTED_EDGE('',*,*,#661,.F.);
#460=ORIENTED_EDGE('',*,*,#665,.T.);
#461=ORIENTED_EDGE('',*,*,#669,.T.);
#462=ORIENTED_EDGE('',*,*,#671,.F.);
#463=ORIENTED_EDGE('',*,*,#672,.T.);
#464=ORIENTED_EDGE('',*,*,#673,.T.);
#465=CARTESIAN_POINT('',(0.23,0.23,0.145));
#466=DIRECTION('',(0.0,1.0,0.0));
#467=DIRECTION('',(1.0,-0.0,1.22460635382238E-16));
#468=SURFACE_STYLE_FILL_AREA(#674);
#469=ORIENTED_EDGE('',*,*,#675,.T.);
#470=ORIENTED_EDGE('',*,*,#672,.F.);
#471=ORIENTED_EDGE('',*,*,#676,.F.);
#472=ORIENTED_EDGE('',*,*,#677,.T.);
#473=CARTESIAN_POINT('',(0.29,0.115,0.145));
#474=DIRECTION('',(1.0,6.12303176911189E-17,1.22460635382238E-16));
#475=DIRECTION('',(6.12303176911189E-17,-1.0,7.49830360911069E-33));
#476=SURFACE_STYLE_FILL_AREA(#678);
#477=ORIENTED_EDGE('',*,*,#679,.F.);
#478=ORIENTED_EDGE('',*,*,#680,.T.);
#479=ORIENTED_EDGE('',*,*,#681,.F.);
#480=ORIENTED_EDGE('',*,*,#682,.T.);
#481=CARTESIAN_POINT('',(0.14,0.023,0.145));
#482=DIRECTION('',(-1.0,0.0,-1.22460635382238E-16));
#483=DIRECTION('',(0.0,1.0,0.0));
#484=SURFACE_STYLE_FILL_AREA(#683);
#485=ORIENTED_EDGE('',*,*,#684,.T.);
#486=ORIENTED_EDGE('',*,*,#677,.F.);
#487=ORIENTED_EDGE('',*,*,#685,.T.);
#488=ORIENTED_EDGE('',*,*,#681,.T.);
#489=CARTESIAN_POINT('',(0.215,0.0,0.145));
#490=DIRECTION('',(0.0,-1.0,-0.0));
#491=DIRECTION('',(-1.0,0.0,-1.22460635382238E-16));
#492=SURFACE_STYLE_FILL_AREA(#686);
#493=ORIENTED_EDGE('',*,*,#650,.T.);
#494=ORIENTED_EDGE('',*,*,#658,.T.);
#495=ORIENTED_EDGE('',*,*,#673,.F.);
#496=ORIENTED_EDGE('',*,*,#675,.F.);
#497=ORIENTED_EDGE('',*,*,#684,.F.);
#498=ORIENTED_EDGE('',*,*,#680,.F.);
#499=ORIENTED_EDGE('',*,*,#687,.T.);
#500=ORIENTED_EDGE('',*,*,#688,.F.);
#501=ORIENTED_EDGE('',*,*,#689,.F.);
#502=ORIENTED_EDGE('',*,*,#690,.T.);
#503=ORIENTED_EDGE('',*,*,#691,.T.);
#504=ORIENTED_EDGE('',*,*,#692,.T.);
#505=CARTESIAN_POINT('',(0.0,0.115,-0.145));
#506=DIRECTION('',(0.0,0.0,1.0));
#507=DIRECTION('',(1.0,0.0,0.0));
#508=SURFACE_STYLE_FILL_AREA(#693);
#509=ORIENTED_EDGE('',*,*,#679,.T.);
#510=ORIENTED_EDGE('',*,*,#694,.F.);
#511=ORIENTED_EDGE('',*,*,#695,.T.);
#512=ORIENTED_EDGE('',*,*,#687,.F.);
#513=CARTESIAN_POINT('',(0.0,0.021,0.0));
#514=DIRECTION('',(0.0,1.0,0.0));
#515=DIRECTION('',(0.0,0.0,1.0));
#516=SURFACE_STYLE_FILL_AREA(#696);
#517=ORIENTED_EDGE('',*,*,#694,.T.);
#518=ORIENTED_EDGE('',*,*,#682,.F.);
#519=ORIENTED_EDGE('',*,*,#685,.F.);
#520=ORIENTED_EDGE('',*,*,#676,.T.);
#521=ORIENTED_EDGE('',*,*,#671,.T.);
#522=ORIENTED_EDGE('',*,*,#668,.T.);
#523=ORIENTED_EDGE('',*,*,#697,.T.);
#524=ORIENTED_EDGE('',*,*,#698,.T.);
#525=ORIENTED_EDGE('',*,*,#699,.F.);
#526=ORIENTED_EDGE('',*,*,#700,.F.);
#527=ORIENTED_EDGE('',*,*,#701,.F.);
#528=ORIENTED_EDGE('',*,*,#702,.F.);
#529=CARTESIAN_POINT('',(0.0,0.115,0.145));
#530=DIRECTION('',(0.0,0.0,1.0));
#531=DIRECTION('',(1.0,0.0,0.0));
#532=SURFACE_STYLE_FILL_AREA(#703);
#533=ORIENTED_EDGE('',*,*,#704,.F.);
#534=ORIENTED_EDGE('',*,*,#705,.T.);
#535=ORIENTED_EDGE('',*,*,#706,.F.);
#536=ORIENTED_EDGE('',*,*,#698,.F.);
#537=CARTESIAN_POINT('',(-0.242,0.184,0.145));
#538=DIRECTION('',(1.0,0.0,1.22460635382238E-16));
#539=DIRECTION('',(1.22460635382238E-16,0.0,-1.0));
#540=SURFACE_STYLE_FILL_AREA(#707);
#541=ORIENTED_EDGE('',*,*,#633,.T.);
#542=ORIENTED_EDGE('',*,*,#642,.F.);
#543=ORIENTED_EDGE('',*,*,#708,.F.);
#544=ORIENTED_EDGE('',*,*,#705,.F.);
#545=ORIENTED_EDGE('',*,*,#709,.F.);
#546=ORIENTED_EDGE('',*,*,#617,.T.);
#547=CARTESIAN_POINT('',(-1.42054337043396E-17,0.184,0.116));
#548=DIRECTION('',(1.22460635382238E-16,0.0,-1.0));
#549=DIRECTION('',(-1.0,0.0,-1.22460635382238E-16));
#550=SURFACE_STYLE_FILL_AREA(#710);
#551=ORIENTED_EDGE('',*,*,#651,.F.);
#552=ORIENTED_EDGE('',*,*,#692,.F.);
#553=ORIENTED_EDGE('',*,*,#711,.F.);
#554=ORIENTED_EDGE('',*,*,#645,.T.);
#555=CARTESIAN_POINT('',(-0.242,0.184,-0.145));
#556=DIRECTION('',(1.0,0.0,0.0));
#557=DIRECTION('',(0.0,0.0,-1.0));
#558=SURFACE_STYLE_FILL_AREA(#712);
#559=ORIENTED_EDGE('',*,*,#706,.T.);
#560=ORIENTED_EDGE('',*,*,#708,.T.);
#561=ORIENTED_EDGE('',*,*,#641,.F.);
#562=ORIENTED_EDGE('',*,*,#646,.T.);
#563=ORIENTED_EDGE('',*,*,#711,.T.);
#564=ORIENTED_EDGE('',*,*,#691,.F.);
#565=ORIENTED_EDGE('',*,*,#713,.T.);
#566=ORIENTED_EDGE('',*,*,#699,.T.);
#567=CARTESIAN_POINT('',(-0.23,0.23,-0.145));
#568=DIRECTION('',(0.0,1.0,0.0));
#569=DIRECTION('',(-1.0,0.0,0.0));
#570=SURFACE_STYLE_FILL_AREA(#714);
#571=ORIENTED_EDGE('',*,*,#700,.T.);
#572=ORIENTED_EDGE('',*,*,#713,.F.);
#573=ORIENTED_EDGE('',*,*,#690,.F.);
#574=ORIENTED_EDGE('',*,*,#715,.T.);
#575=CARTESIAN_POINT('',(-0.29,0.115,-0.145));
#576=DIRECTION('',(-1.0,6.12303176911189E-17,0.0));
#577=DIRECTION('',(-6.12303176911189E-17,-1.0,-0.0));
#578=SURFACE_STYLE_FILL_AREA(#716);
#579=ORIENTED_EDGE('',*,*,#695,.F.);
#580=ORIENTED_EDGE('',*,*,#702,.T.);
#581=ORIENTED_EDGE('',*,*,#717,.F.);
#582=ORIENTED_EDGE('',*,*,#688,.T.);
#583=CARTESIAN_POINT('',(-0.14,0.023,-0.145));
#584=DIRECTION('',(1.0,0.0,0.0));
#585=DIRECTION('',(0.0,1.0,0.0));
#586=SURFACE_STYLE_FILL_AREA(#718);
#587=ORIENTED_EDGE('',*,*,#701,.T.);
#588=ORIENTED_EDGE('',*,*,#715,.F.);
#589=ORIENTED_EDGE('',*,*,#689,.T.);
#590=ORIENTED_EDGE('',*,*,#717,.T.);
#591=CARTESIAN_POINT('',(-0.215,0.0,-0.145));
#592=DIRECTION('',(0.0,-1.0,0.0));
#593=DIRECTION('',(1.0,0.0,0.0));
#594=SURFACE_STYLE_FILL_AREA(#719);
#595=ORIENTED_EDGE('',*,*,#618,.T.);
#596=ORIENTED_EDGE('',*,*,#709,.T.);
#597=ORIENTED_EDGE('',*,*,#704,.T.);
#598=ORIENTED_EDGE('',*,*,#697,.F.);
#599=ORIENTED_EDGE('',*,*,#667,.T.);
#600=ORIENTED_EDGE('',*,*,#663,.T.);
#601=ORIENTED_EDGE('',*,*,#626,.T.);
#602=ORIENTED_EDGE('',*,*,#607,.T.);
#603=CARTESIAN_POINT('',(0.0,0.209,0.0));
#604=DIRECTION('',(0.0,-1.0,0.0));
#605=DIRECTION('',(0.0,0.0,-1.0));
#606=FILL_AREA_STYLE('',(#720));
#607=EDGE_CURVE('',#721,#722,#723,.T.);
#608=EDGE_CURVE('',#721,#724,#725,.T.);
#609=EDGE_CURVE('',#724,#726,#727,.T.);
#610=EDGE_CURVE('',#726,#722,#728,.T.);
#611=FILL_AREA_STYLE('',(#729));
#612=EDGE_CURVE('',#730,#731,#732,.T.);
#613=EDGE_CURVE('',#730,#733,#734,.T.);
#614=EDGE_CURVE('',#735,#733,#736,.T.);
#615=EDGE_CURVE('',#731,#735,#737,.T.);
#616=FILL_AREA_STYLE('',(#738));
#617=EDGE_CURVE('',#739,#740,#741,.T.);
#618=EDGE_CURVE('',#722,#739,#742,.T.);
#619=EDGE_CURVE('',#726,#740,#743,.T.);
#620=FILL_AREA_STYLE('',(#744));
#621=EDGE_CURVE('',#745,#746,#747,.T.);
#622=EDGE_CURVE('',#748,#745,#749,.T.);
#623=EDGE_CURVE('',#750,#748,#751,.T.);
#624=EDGE_CURVE('',#746,#750,#752,.T.);
#625=FILL_AREA_STYLE('',(#753));
#626=EDGE_CURVE('',#754,#721,#755,.T.);
#627=EDGE_CURVE('',#756,#754,#757,.T.);
#628=EDGE_CURVE('',#724,#756,#758,.T.);
#629=FILL_AREA_STYLE('',(#759));
#630=EDGE_CURVE('',#735,#745,#760,.T.);
#631=EDGE_CURVE('',#733,#748,#761,.T.);
#632=FILL_AREA_STYLE('',(#762));
#633=EDGE_CURVE('',#740,#763,#764,.T.);
#634=EDGE_CURVE('',#765,#756,#766,.T.);
#635=EDGE_CURVE('',#767,#765,#768,.T.);
#636=EDGE_CURVE('',#750,#767,#769,.T.);
#637=EDGE_CURVE('',#770,#730,#771,.T.);
#638=EDGE_CURVE('',#763,#770,#772,.T.);
#639=FILL_AREA_STYLE('',(#773));
#640=EDGE_CURVE('',#770,#774,#775,.T.);
#641=EDGE_CURVE('',#774,#776,#777,.T.);
#642=EDGE_CURVE('',#776,#763,#778,.T.);
#643=FILL_AREA_STYLE('',(#779));
#644=EDGE_CURVE('',#780,#731,#781,.T.);
#645=EDGE_CURVE('',#782,#780,#783,.T.);
#646=EDGE_CURVE('',#774,#782,#784,.T.);
#647=FILL_AREA_STYLE('',(#785));
#648=EDGE_CURVE('',#746,#786,#787,.T.);
#649=EDGE_CURVE('',#786,#788,#789,.T.);
#650=EDGE_CURVE('',#790,#788,#791,.T.);
#651=EDGE_CURVE('',#790,#780,#792,.T.);
#652=FILL_AREA_STYLE('',(#793));
#653=EDGE_CURVE('',#794,#767,#795,.T.);
#654=EDGE_CURVE('',#796,#794,#797,.T.);
#655=EDGE_CURVE('',#786,#796,#798,.T.);
#656=FILL_AREA_STYLE('',(#799));
#657=EDGE_CURVE('',#800,#796,#801,.T.);
#658=EDGE_CURVE('',#788,#800,#802,.T.);
#659=FILL_AREA_STYLE('',(#803));
#660=EDGE_CURVE('',#765,#804,#805,.T.);
#661=EDGE_CURVE('',#804,#794,#806,.T.);
#662=FILL_AREA_STYLE('',(#807));
#663=EDGE_CURVE('',#808,#754,#809,.T.);
#664=EDGE_CURVE('',#810,#808,#811,.T.);
#665=EDGE_CURVE('',#804,#810,#812,.T.);
#666=FILL_AREA_STYLE('',(#813));
#667=EDGE_CURVE('',#814,#808,#815,.T.);
#668=EDGE_CURVE('',#816,#814,#817,.T.);
#669=EDGE_CURVE('',#810,#816,#818,.T.);
#670=FILL_AREA_STYLE('',(#819));
#671=EDGE_CURVE('',#820,#816,#821,.T.);
#672=EDGE_CURVE('',#820,#822,#823,.T.);
#673=EDGE_CURVE('',#822,#800,#824,.T.);
#674=FILL_AREA_STYLE('',(#825));
#675=EDGE_CURVE('',#826,#822,#827,.T.);
#676=EDGE_CURVE('',#828,#820,#829,.T.);
#677=EDGE_CURVE('',#828,#826,#830,.T.);
#678=FILL_AREA_STYLE('',(#831));
#679=EDGE_CURVE('',#832,#833,#834,.T.);
#680=EDGE_CURVE('',#832,#835,#836,.T.);
#681=EDGE_CURVE('',#837,#835,#838,.T.);
#682=EDGE_CURVE('',#837,#833,#839,.T.);
#683=FILL_AREA_STYLE('',(#840));
#684=EDGE_CURVE('',#835,#826,#841,.T.);
#685=EDGE_CURVE('',#828,#837,#842,.T.);
#686=FILL_AREA_STYLE('',(#843));
#687=EDGE_CURVE('',#832,#844,#845,.T.);
#688=EDGE_CURVE('',#846,#844,#847,.T.);
#689=EDGE_CURVE('',#848,#846,#849,.T.);
#690=EDGE_CURVE('',#848,#850,#851,.T.);
#691=EDGE_CURVE('',#850,#852,#853,.T.);
#692=EDGE_CURVE('',#852,#790,#854,.T.);
#693=FILL_AREA_STYLE('',(#855));
#694=EDGE_CURVE('',#856,#833,#857,.T.);
#695=EDGE_CURVE('',#856,#844,#858,.T.);
#696=FILL_AREA_STYLE('',(#859));
#697=EDGE_CURVE('',#814,#860,#861,.T.);
#698=EDGE_CURVE('',#860,#862,#863,.T.);
#699=EDGE_CURVE('',#864,#862,#865,.T.);
#700=EDGE_CURVE('',#866,#864,#867,.T.);
#701=EDGE_CURVE('',#868,#866,#869,.T.);
#702=EDGE_CURVE('',#856,#868,#870,.T.);
#703=FILL_AREA_STYLE('',(#871));
#704=EDGE_CURVE('',#872,#860,#873,.T.);
#705=EDGE_CURVE('',#872,#874,#875,.T.);
#706=EDGE_CURVE('',#862,#874,#876,.T.);
#707=FILL_AREA_STYLE('',(#877));
#708=EDGE_CURVE('',#874,#776,#878,.T.);
#709=EDGE_CURVE('',#739,#872,#879,.T.);
#710=FILL_AREA_STYLE('',(#880));
#711=EDGE_CURVE('',#782,#852,#881,.T.);
#712=FILL_AREA_STYLE('',(#882));
#713=EDGE_CURVE('',#850,#864,#883,.T.);
#714=FILL_AREA_STYLE('',(#884));
#715=EDGE_CURVE('',#848,#866,#885,.T.);
#716=FILL_AREA_STYLE('',(#886));
#717=EDGE_CURVE('',#846,#868,#887,.T.);
#718=FILL_AREA_STYLE('',(#888));
#719=FILL_AREA_STYLE('',(#889));
#720=FILL_AREA_STYLE_COLOUR('',#890);
#721=VERTEX_POINT('',#891);
#722=VERTEX_POINT('',#892);
#723=LINE('',#893,#894);
#724=VERTEX_POINT('',#895);
#725=LINE('',#896,#897);
#726=VERTEX_POINT('',#898);
#727=LINE('',#899,#900);
#728=LINE('',#901,#902);
#729=FILL_AREA_STYLE_COLOUR('',#903);
#730=VERTEX_POINT('',#904);
#731=VERTEX_POINT('',#905);
#732=LINE('',#906,#907);
#733=VERTEX_POINT('',#908);
#734=LINE('',#909,#910);
#735=VERTEX_POINT('',#911);
#736=LINE('',#912,#913);
#737=LINE('',#914,#915);
#738=FILL_AREA_STYLE_COLOUR('',#916);
#739=VERTEX_POINT('',#917);
#740=VERTEX_POINT('',#918);
#741=LINE('',#919,#920);
#742=LINE('',#921,#922);
#743=LINE('',#923,#924);
#744=FILL_AREA_STYLE_COLOUR('',#925);
#745=VERTEX_POINT('',#926);
#746=VERTEX_POINT('',#927);
#747=LINE('',#928,#929);
#748=VERTEX_POINT('',#930);
#749=LINE('',#931,#932);
#750=VERTEX_POINT('',#933);
#751=LINE('',#934,#935);
#752=LINE('',#936,#937);
#753=FILL_AREA_STYLE_COLOUR('',#938);
#754=VERTEX_POINT('',#939);
#755=LINE('',#940,#941);
#756=VERTEX_POINT('',#942);
#757=LINE('',#943,#944);
#758=LINE('',#945,#946);
#759=FILL_AREA_STYLE_COLOUR('',#947);
#760=LINE('',#948,#949);
#761=LINE('',#950,#951);
#762=FILL_AREA_STYLE_COLOUR('',#952);
#763=VERTEX_POINT('',#953);
#764=LINE('',#954,#955);
#765=VERTEX_POINT('',#956);
#766=LINE('',#957,#958);
#767=VERTEX_POINT('',#959);
#768=LINE('',#960,#961);
#769=LINE('',#962,#963);
#770=VERTEX_POINT('',#964);
#771=LINE('',#965,#966);
#772=LINE('',#967,#968);
#773=FILL_AREA_STYLE_COLOUR('',#969);
#774=VERTEX_POINT('',#970);
#775=LINE('',#971,#972);
#776=VERTEX_POINT('',#973);
#777=LINE('',#974,#975);
#778=LINE('',#976,#977);
#779=FILL_AREA_STYLE_COLOUR('',#978);
#780=VERTEX_POINT('',#979);
#781=LINE('',#980,#981);
#782=VERTEX_POINT('',#982);
#783=LINE('',#983,#984);
#784=LINE('',#985,#986);
#785=FILL_AREA_STYLE_COLOUR('',#987);
#786=VERTEX_POINT('',#988);
#787=LINE('',#989,#990);
#788=VERTEX_POINT('',#991);
#789=LINE('',#992,#993);
#790=VERTEX_POINT('',#994);
#791=LINE('',#995,#996);
#792=LINE('',#997,#998);
#793=FILL_AREA_STYLE_COLOUR('',#999);
#794=VERTEX_POINT('',#1000);
#795=LINE('',#1001,#1002);
#796=VERTEX_POINT('',#1003);
#797=LINE('',#1004,#1005);
#798=LINE('',#1006,#1007);
#799=FILL_AREA_STYLE_COLOUR('',#1008);
#800=VERTEX_POINT('',#1009);
#801=LINE('',#1010,#1011);
#802=LINE('',#1012,#1013);
#803=FILL_AREA_STYLE_COLOUR('',#1014);
#804=VERTEX_POINT('',#1015);
#805=LINE('',#1016,#1017);
#806=LINE('',#1018,#1019);
#807=FILL_AREA_STYLE_COLOUR('',#1020);
#808=VERTEX_POINT('',#1021);
#809=LINE('',#1022,#1023);
#810=VERTEX_POINT('',#1024);
#811=LINE('',#1025,#1026);
#812=LINE('',#1027,#1028);
#813=FILL_AREA_STYLE_COLOUR('',#1029);
#814=VERTEX_POINT('',#1030);
#815=LINE('',#1031,#1032);
#816=VERTEX_POINT('',#1033);
#817=LINE('',#1034,#1035);
#818=LINE('',#1036,#1037);
#819=FILL_AREA_STYLE_COLOUR('',#1038);
#820=VERTEX_POINT('',#1039);
#821=LINE('',#1040,#1041);
#822=VERTEX_POINT('',#1042);
#823=LINE('',#1043,#1044);
#824=LINE('',#1045,#1046);
#825=FILL_AREA_STYLE_COLOUR('',#1047);
#826=VERTEX_POINT('',#1048);
#827=LINE('',#1049,#1050);
#828=VERTEX_POINT('',#1051);
#829=LINE('',#1052,#1053);
#830=LINE('',#1054,#1055);
#831=FILL_AREA_STYLE_COLOUR('',#1056);
#832=VERTEX_POINT('',#1057);
#833=VERTEX_POINT('',#1058);
#834=LINE('',#1059,#1060);
#835=VERTEX_POINT('',#1061);
#836=LINE('',#1062,#1063);
#837=VERTEX_POINT('',#1064);
#838=LINE('',#1065,#1066);
#839=LINE('',#1067,#1068);
#840=FILL_AREA_STYLE_COLOUR('',#1069);
#841=LINE('',#1070,#1071);
#842=LINE('',#1072,#1073);
#843=FILL_AREA_STYLE_COLOUR('',#1074);
#844=VERTEX_POINT('',#1075);
#845=LINE('',#1076,#1077);
#846=VERTEX_POINT('',#1078);
#847=LINE('',#1079,#1080);
#848=VERTEX_POINT('',#1081);
#849=LINE('',#1082,#1083);
#850=VERTEX_POINT('',#1084);
#851=LINE('',#1085,#1086);
#852=VERTEX_POINT('',#1087);
#853=LINE('',#1088,#1089);
#854=LINE('',#1090,#1091);
#855=FILL_AREA_STYLE_COLOUR('',#1092);
#856=VERTEX_POINT('',#1093);
#857=LINE('',#1094,#1095);
#858=LINE('',#1096,#1097);
#859=FILL_AREA_STYLE_COLOUR('',#1098);
#860=VERTEX_POINT('',#1099);
#861=LINE('',#1100,#1101);
#862=VERTEX_POINT('',#1102);
#863=LINE('',#1103,#1104);
#864=VERTEX_POINT('',#1105);
#865=LINE('',#1106,#1107);
#866=VERTEX_POINT('',#1108);
#867=LINE('',#1109,#1110);
#868=VERTEX_POINT('',#1111);
#869=LINE('',#1112,#1113);
#870=LINE('',#1114,#1115);
#871=FILL_AREA_STYLE_COLOUR('',#1116);
#872=VERTEX_POINT('',#1117);
#873=LINE('',#1118,#1119);
#874=VERTEX_POINT('',#1120);
#875=LINE('',#1121,#1122);
#876=LINE('',#1123,#1124);
#877=FILL_AREA_STYLE_COLOUR('',#1125);
#878=LINE('',#1126,#1127);
#879=LINE('',#1128,#1129);
#880=FILL_AREA_STYLE_COLOUR('',#1130);
#881=LINE('',#1131,#1132);
#882=FILL_AREA_STYLE_COLOUR('',#1133);
#883=LINE('',#1134,#1135);
#884=FILL_AREA_STYLE_COLOUR('',#1136);
#885=LINE('',#1137,#1138);
#886=FILL_AREA_STYLE_COLOUR('',#1139);
#887=LINE('',#1140,#1141);
#888=FILL_AREA_STYLE_COLOUR('',#1142);
#889=FILL_AREA_STYLE_COLOUR('',#1143);
#890=COLOUR_RGB('',0.0980392172932625,0.0980392172932625,0.0980392172932625);
#891=CARTESIAN_POINT('',(0.1712,0.209,0.1218));
#892=CARTESIAN_POINT('',(-0.1712,0.209,0.1218));
#893=CARTESIAN_POINT('',(0.0,0.209,0.1218));
#894=VECTOR('',#1144,1.0);
#895=CARTESIAN_POINT('',(0.1712,0.225,0.1218));
#896=CARTESIAN_POINT('',(0.1712,0.202,0.1218));
#897=VECTOR('',#1145,1.0);
#898=CARTESIAN_POINT('',(-0.1712,0.225,0.1218));
#899=CARTESIAN_POINT('',(0.0,0.225,0.1218));
#900=VECTOR('',#1146,1.0);
#901=CARTESIAN_POINT('',(-0.1712,0.202,0.1218));
#902=VECTOR('',#1147,1.0);
#903=COLOUR_RGB('',0.0980392172932625,0.0980392172932625,0.0980392172932625);
#904=CARTESIAN_POINT('',(-0.1712,0.225,-0.116));
#905=CARTESIAN_POINT('',(-0.1712,0.209,-0.116));
#906=CARTESIAN_POINT('',(-0.1712,0.193,-0.116));
#907=VECTOR('',#1148,1.0);
#908=CARTESIAN_POINT('',(-0.1712,0.225,-0.1218));
#909=CARTESIAN_POINT('',(-0.1712,0.225,0.0));
#910=VECTOR('',#1149,1.0);
#911=CARTESIAN_POINT('',(-0.1712,0.209,-0.1218));
#912=CARTESIAN_POINT('',(-0.1712,0.202,-0.1218));
#913=VECTOR('',#1150,1.0);
#914=CARTESIAN_POINT('',(-0.1712,0.209,0.0));
#915=VECTOR('',#1151,1.0);
#916=COLOUR_RGB('',0.0980392172932625,0.0980392172932625,0.0980392172932625);
#917=CARTESIAN_POINT('',(-0.1712,0.209,0.116));
#918=CARTESIAN_POINT('',(-0.1712,0.225,0.116));
#919=CARTESIAN_POINT('',(-0.1712,0.193,0.116));
#920=VECTOR('',#1152,1.0);
#921=CARTESIAN_POINT('',(-0.1712,0.209,0.0));
#922=VECTOR('',#1153,1.0);
#923=CARTESIAN_POINT('',(-0.1712,0.225,0.0));
#924=VECTOR('',#1154,1.0);
#925=COLOUR_RGB('',0.0980392172932625,0.0980392172932625,0.0980392172932625);
#926=CARTESIAN_POINT('',(0.1712,0.209,-0.1218));
#927=CARTESIAN_POINT('',(0.1712,0.209,-0.116));
#928=CARTESIAN_POINT('',(0.1712,0.209,0.0));
#929=VECTOR('',#1155,1.0);
#930=CARTESIAN_POINT('',(0.1712,0.225,-0.1218));
#931=CARTESIAN_POINT('',(0.1712,0.202,-0.1218));
#932=VECTOR('',#1156,1.0);
#933=CARTESIAN_POINT('',(0.1712,0.225,-0.116));
#934=CARTESIAN_POINT('',(0.1712,0.225,0.0));
#935=VECTOR('',#1157,1.0);
#936=CARTESIAN_POINT('',(0.1712,0.193,-0.116));
#937=VECTOR('',#1158,1.0);
#938=COLOUR_RGB('',0.0980392172932625,0.0980392172932625,0.0980392172932625);
#939=CARTESIAN_POINT('',(0.1712,0.209,0.116));
#940=CARTESIAN_POINT('',(0.1712,0.209,0.0));
#941=VECTOR('',#1159,1.0);
#942=CARTESIAN_POINT('',(0.1712,0.225,0.116));
#943=CARTESIAN_POINT('',(0.1712,0.193,0.116));
#944=VECTOR('',#1160,1.0);
#945=CARTESIAN_POINT('',(0.1712,0.225,0.0));
#946=VECTOR('',#1161,1.0);
#947=COLOUR_RGB('',0.0980392172932625,0.0980392172932625,0.0980392172932625);
#948=CARTESIAN_POINT('',(0.0,0.209,-0.1218));
#949=VECTOR('',#1162,1.0);
#950=CARTESIAN_POINT('',(0.0,0.225,-0.1218));
#951=VECTOR('',#1163,1.0);
#952=COLOUR_RGB('',0.0980392172932625,0.0980392172932625,0.0980392172932625);
#953=CARTESIAN_POINT('',(-0.17,0.225,0.116));
#954=CARTESIAN_POINT('',(-1.42054337043396E-17,0.225,0.116));
#955=VECTOR('',#1164,1.0);
#956=CARTESIAN_POINT('',(0.17,0.225,0.116));
#957=CARTESIAN_POINT('',(-1.42054337043396E-17,0.225,0.116));
#958=VECTOR('',#1165,1.0);
#959=CARTESIAN_POINT('',(0.17,0.225,-0.116));
#960=CARTESIAN_POINT('',(0.17,0.225,0.0725));
#961=VECTOR('',#1166,1.0);
#962=CARTESIAN_POINT('',(2.84108674086792E-17,0.225,-0.116));
#963=VECTOR('',#1167,1.0);
#964=CARTESIAN_POINT('',(-0.17,0.225,-0.116));
#965=CARTESIAN_POINT('',(0.0,0.225,-0.116));
#966=VECTOR('',#1168,1.0);
#967=CARTESIAN_POINT('',(-0.17,0.225,-0.0725));
#968=VECTOR('',#1169,1.0);
#969=COLOUR_RGB('',0.749019622802734,0.752941191196442,0.721568644046783);
#970=CARTESIAN_POINT('',(-0.17,0.23,-0.116));
#971=CARTESIAN_POINT('',(-0.17,0.1955,-0.116));
#972=VECTOR('',#1170,1.0);
#973=CARTESIAN_POINT('',(-0.17,0.23,0.116));
#974=CARTESIAN_POINT('',(-0.17,0.23,-0.145));
#975=VECTOR('',#1171,1.0);
#976=CARTESIAN_POINT('',(-0.17,0.1955,0.116));
#977=VECTOR('',#1172,1.0);
#978=COLOUR_RGB('',0.749019622802734,0.752941191196442,0.721568644046783);
#979=CARTESIAN_POINT('',(-0.242,0.209,-0.116));
#980=CARTESIAN_POINT('',(0.0,0.209,-0.116));
#981=VECTOR('',#1173,1.0);
#982=CARTESIAN_POINT('',(-0.242,0.23,-0.116));
#983=CARTESIAN_POINT('',(-0.242,0.184,-0.116));
#984=VECTOR('',#1174,1.0);
#985=CARTESIAN_POINT('',(-0.115,0.23,-0.116));
#986=VECTOR('',#1175,1.0);
#987=COLOUR_RGB('',0.882352948188782,0.890196084976196,0.886274516582489);
#988=CARTESIAN_POINT('',(0.242,0.209,-0.116));
#989=CARTESIAN_POINT('',(2.84108674086792E-17,0.209,-0.116));
#990=VECTOR('',#1176,1.0);
#991=CARTESIAN_POINT('',(0.242,0.209,-0.145));
#992=CARTESIAN_POINT('',(0.242,0.209,-0.0724999999999999));
#993=VECTOR('',#1177,1.0);
#994=CARTESIAN_POINT('',(-0.242,0.209,-0.145));
#995=CARTESIAN_POINT('',(0.0,0.209,-0.145));
#996=VECTOR('',#1178,1.0);
#997=CARTESIAN_POINT('',(-0.242,0.209,-0.0725));
#998=VECTOR('',#1179,1.0);
#999=COLOUR_RGB('',0.749019622802734,0.752941191196442,0.721568644046783);
#1000=CARTESIAN_POINT('',(0.17,0.23,-0.116));
#1001=CARTESIAN_POINT('',(0.17,0.1955,-0.116));
#1002=VECTOR('',#1180,1.0);
#1003=CARTESIAN_POINT('',(0.242,0.23,-0.116));
#1004=CARTESIAN_POINT('',(0.115,0.23,-0.116));
#1005=VECTOR('',#1181,1.0);
#1006=CARTESIAN_POINT('',(0.242,0.184,-0.116));
#1007=VECTOR('',#1182,1.0);
#1008=COLOUR_RGB('',0.749019622802734,0.752941191196442,0.721568644046783);
#1009=CARTESIAN_POINT('',(0.242,0.23,-0.145));
#1010=CARTESIAN_POINT('',(0.242,0.23,4.42480253826094E-17));
#1011=VECTOR('',#1183,1.0);
#1012=CARTESIAN_POINT('',(0.242,0.146460352422908,-0.145));
#1013=VECTOR('',#1184,1.0);
#1014=COLOUR_RGB('',0.749019622802734,0.752941191196442,0.721568644046783);
#1015=CARTESIAN_POINT('',(0.17,0.23,0.116));
#1016=CARTESIAN_POINT('',(0.17,0.1955,0.116));
#1017=VECTOR('',#1185,1.0);
#1018=CARTESIAN_POINT('',(0.17,0.23,0.145));
#1019=VECTOR('',#1186,1.0);
#1020=COLOUR_RGB('',0.749019622802734,0.752941191196442,0.721568644046783);
#1021=CARTESIAN_POINT('',(0.242,0.209,0.116));
#1022=CARTESIAN_POINT('',(-1.42054337043396E-17,0.209,0.116));
#1023=VECTOR('',#1187,1.0);
#1024=CARTESIAN_POINT('',(0.242,0.23,0.116));
#1025=CARTESIAN_POINT('',(0.242,0.184,0.116));
#1026=VECTOR('',#1188,1.0);
#1027=CARTESIAN_POINT('',(0.115,0.23,0.116));
#1028=VECTOR('',#1189,1.0);
#1029=COLOUR_RGB('',0.749019622802734,0.752941191196442,0.721568644046783);
#1030=CARTESIAN_POINT('',(0.242,0.209,0.145));
#1031=CARTESIAN_POINT('',(0.242,0.209,0.0725));
#1032=VECTOR('',#1190,1.0);
#1033=CARTESIAN_POINT('',(0.242,0.23,0.145));
#1034=CARTESIAN_POINT('',(0.242,0.146460352422908,0.145));
#1035=VECTOR('',#1191,1.0);
#1036=CARTESIAN_POINT('',(0.242,0.23,0.145));
#1037=VECTOR('',#1192,1.0);
#1038=COLOUR_RGB('',0.749019622802734,0.752941191196442,0.721568644046783);
#1039=CARTESIAN_POINT('',(0.29,0.23,0.145));
#1040=CARTESIAN_POINT('',(0.29,0.23,0.145));
#1041=VECTOR('',#1193,1.0);
#1042=CARTESIAN_POINT('',(0.29,0.23,-0.145));
#1043=CARTESIAN_POINT('',(0.29,0.23,0.145));
#1044=VECTOR('',#1194,1.0);
#1045=CARTESIAN_POINT('',(0.29,0.23,-0.145));
#1046=VECTOR('',#1195,1.0);
#1047=COLOUR_RGB('',0.749019622802734,0.752941191196442,0.721568644046783);
#1048=CARTESIAN_POINT('',(0.29,0.0,-0.145));
#1049=CARTESIAN_POINT('',(0.29,0.0,-0.145));
#1050=VECTOR('',#1196,1.0);
#1051=CARTESIAN_POINT('',(0.29,0.0,0.145));
#1052=CARTESIAN_POINT('',(0.29,0.0,0.145));
#1053=VECTOR('',#1197,1.0);
#1054=CARTESIAN_POINT('',(0.29,0.0,0.145));
#1055=VECTOR('',#1198,1.0);
#1056=COLOUR_RGB('',0.749019622802734,0.752941191196442,0.721568644046783);
#1057=CARTESIAN_POINT('',(0.14,0.021,-0.145));
#1058=CARTESIAN_POINT('',(0.14,0.021,0.145));
#1059=CARTESIAN_POINT('',(0.14,0.021,0.0725));
#1060=VECTOR('',#1199,1.0);
#1061=CARTESIAN_POINT('',(0.14,0.0,-0.145));
#1062=CARTESIAN_POINT('',(0.14,0.0,-0.145));
#1063=VECTOR('',#1200,1.0);
#1064=CARTESIAN_POINT('',(0.14,0.0,0.145));
#1065=CARTESIAN_POINT('',(0.14,0.0,0.145));
#1066=VECTOR('',#1201,1.0);
#1067=CARTESIAN_POINT('',(0.14,0.0,0.145));
#1068=VECTOR('',#1202,1.0);
#1069=COLOUR_RGB('',0.749019622802734,0.752941191196442,0.721568644046783);
#1070=CARTESIAN_POINT('',(0.29,0.0,-0.145));
#1071=VECTOR('',#1203,1.0);
#1072=CARTESIAN_POINT('',(0.29,0.0,0.145));
#1073=VECTOR('',#1204,1.0);
#1074=COLOUR_RGB('',0.882352948188782,0.890196084976196,0.886274516582489);
#1075=CARTESIAN_POINT('',(-0.14,0.021,-0.145));
#1076=CARTESIAN_POINT('',(0.0,0.021,-0.145));
#1077=VECTOR('',#1205,1.0);
#1078=CARTESIAN_POINT('',(-0.14,0.0,-0.145));
#1079=CARTESIAN_POINT('',(-0.14,0.0,-0.145));
#1080=VECTOR('',#1206,1.0);
#1081=CARTESIAN_POINT('',(-0.29,0.0,-0.145));
#1082=CARTESIAN_POINT('',(-0.29,0.0,-0.145));
#1083=VECTOR('',#1207,1.0);
#1084=CARTESIAN_POINT('',(-0.29,0.23,-0.145));
#1085=CARTESIAN_POINT('',(-0.29,0.0,-0.145));
#1086=VECTOR('',#1208,1.0);
#1087=CARTESIAN_POINT('',(-0.242,0.23,-0.145));
#1088=CARTESIAN_POINT('',(-0.29,0.23,-0.145));
#1089=VECTOR('',#1209,1.0);
#1090=CARTESIAN_POINT('',(-0.242,0.146460352422908,-0.145));
#1091=VECTOR('',#1210,1.0);
#1092=COLOUR_RGB('',0.882352948188782,0.890196084976196,0.886274516582489);
#1093=CARTESIAN_POINT('',(-0.14,0.021,0.145));
#1094=CARTESIAN_POINT('',(0.0,0.021,0.145));
#1095=VECTOR('',#1211,1.0);
#1096=CARTESIAN_POINT('',(-0.14,0.021,-0.0725));
#1097=VECTOR('',#1212,1.0);
#1098=COLOUR_RGB('',0.882352948188782,0.890196084976196,0.886274516582489);
#1099=CARTESIAN_POINT('',(-0.242,0.209,0.145));
#1100=CARTESIAN_POINT('',(0.0,0.209,0.145));
#1101=VECTOR('',#1213,1.0);
#1102=CARTESIAN_POINT('',(-0.242,0.23,0.145));
#1103=CARTESIAN_POINT('',(-0.242,0.146460352422908,0.145));
#1104=VECTOR('',#1214,1.0);
#1105=CARTESIAN_POINT('',(-0.29,0.23,0.145));
#1106=CARTESIAN_POINT('',(-0.29,0.23,0.145));
#1107=VECTOR('',#1215,1.0);
#1108=CARTESIAN_POINT('',(-0.29,0.0,0.145));
#1109=CARTESIAN_POINT('',(-0.29,0.0,0.145));
#1110=VECTOR('',#1216,1.0);
#1111=CARTESIAN_POINT('',(-0.14,0.0,0.145));
#1112=CARTESIAN_POINT('',(-0.29,0.0,0.145));
#1113=VECTOR('',#1217,1.0);
#1114=CARTESIAN_POINT('',(-0.14,0.0,0.145));
#1115=VECTOR('',#1218,1.0);
#1116=COLOUR_RGB('',0.749019622802734,0.752941191196442,0.721568644046783);
#1117=CARTESIAN_POINT('',(-0.242,0.209,0.116));
#1118=CARTESIAN_POINT('',(-0.242,0.209,0.0725));
#1119=VECTOR('',#1219,1.0);
#1120=CARTESIAN_POINT('',(-0.242,0.23,0.116));
#1121=CARTESIAN_POINT('',(-0.242,0.184,0.116));
#1122=VECTOR('',#1220,1.0);
#1123=CARTESIAN_POINT('',(-0.242,0.23,-1.46125516201079E-17));
#1124=VECTOR('',#1221,1.0);
#1125=COLOUR_RGB('',0.749019622802734,0.752941191196442,0.721568644046783);
#1126=CARTESIAN_POINT('',(-0.115,0.23,0.116));
#1127=VECTOR('',#1222,1.0);
#1128=CARTESIAN_POINT('',(-1.42054337043396E-17,0.209,0.116));
#1129=VECTOR('',#1223,1.0);
#1130=COLOUR_RGB('',0.749019622802734,0.752941191196442,0.721568644046783);
#1131=CARTESIAN_POINT('',(-0.242,0.23,-0.145));
#1132=VECTOR('',#1224,1.0);
#1133=COLOUR_RGB('',0.749019622802734,0.752941191196442,0.721568644046783);
#1134=CARTESIAN_POINT('',(-0.29,0.23,-0.145));
#1135=VECTOR('',#1225,1.0);
#1136=COLOUR_RGB('',0.749019622802734,0.752941191196442,0.721568644046783);
#1137=CARTESIAN_POINT('',(-0.29,0.0,-0.145));
#1138=VECTOR('',#1226,1.0);
#1139=COLOUR_RGB('',0.749019622802734,0.752941191196442,0.721568644046783);
#1140=CARTESIAN_POINT('',(-0.14,0.0,-0.145));
#1141=VECTOR('',#1227,1.0);
#1142=COLOUR_RGB('',0.749019622802734,0.752941191196442,0.721568644046783);
#1143=COLOUR_RGB('',0.882352948188782,0.890196084976196,0.886274516582489);
#1144=DIRECTION('',(-1.0,0.0,0.0));
#1145=DIRECTION('',(0.0,1.0,0.0));
#1146=DIRECTION('',(-1.0,0.0,0.0));
#1147=DIRECTION('',(0.0,-1.0,0.0));
#1148=DIRECTION('',(0.0,-1.0,0.0));
#1149=DIRECTION('',(0.0,0.0,-1.0));
#1150=DIRECTION('',(0.0,1.0,0.0));
#1151=DIRECTION('',(0.0,0.0,-1.0));
#1152=DIRECTION('',(-0.0,1.0,0.0));
#1153=DIRECTION('',(0.0,0.0,-1.0));
#1154=DIRECTION('',(0.0,0.0,-1.0));
#1155=DIRECTION('',(0.0,0.0,1.0));
#1156=DIRECTION('',(0.0,-1.0,0.0));
#1157=DIRECTION('',(0.0,0.0,-1.0));
#1158=DIRECTION('',(0.0,1.0,0.0));
#1159=DIRECTION('',(0.0,0.0,1.0));
#1160=DIRECTION('',(-0.0,-1.0,-0.0));
#1161=DIRECTION('',(0.0,0.0,-1.0));
#1162=DIRECTION('',(1.0,0.0,-0.0));
#1163=DIRECTION('',(1.0,0.0,0.0));
#1164=DIRECTION('',(1.0,0.0,1.22460635382238E-16));
#1165=DIRECTION('',(1.0,0.0,1.22460635382238E-16));
#1166=DIRECTION('',(-1.22460635382238E-16,0.0,1.0));
#1167=DIRECTION('',(-1.0,-0.0,-2.44921270764475E-16));
#1168=DIRECTION('',(-1.0,0.0,0.0));
#1169=DIRECTION('',(0.0,0.0,-1.0));
#1170=DIRECTION('',(3.01691039300314E-16,1.0,-0.0));
#1171=DIRECTION('',(0.0,0.0,1.0));
#1172=DIRECTION('',(-3.01691039300314E-16,-1.0,-3.69452763618441E-32));
#1173=DIRECTION('',(1.0,0.0,-0.0));
#1174=DIRECTION('',(0.0,-1.0,0.0));
#1175=DIRECTION('',(-1.0,0.0,0.0));
#1176=DIRECTION('',(1.0,0.0,2.44921270764475E-16));
#1177=DIRECTION('',(2.44921270764475E-16,0.0,-1.0));
#1178=DIRECTION('',(1.0,0.0,0.0));
#1179=DIRECTION('',(-0.0,0.0,1.0));
#1180=DIRECTION('',(3.01691039300314E-16,-1.0,7.38905527236883E-32));
#1181=DIRECTION('',(-1.0,0.0,-2.44921270764475E-16));
#1182=DIRECTION('',(0.0,1.0,0.0));
#1183=DIRECTION('',(-2.44921270764475E-16,0.0,1.0));
#1184=DIRECTION('',(0.0,1.0,0.0));
#1185=DIRECTION('',(-3.01691039300314E-16,1.0,-3.69452763618441E-32));
#1186=DIRECTION('',(1.22460635382238E-16,0.0,-1.0));
#1187=DIRECTION('',(-1.0,-0.0,-1.22460635382238E-16));
#1188=DIRECTION('',(0.0,-1.0,-0.0));
#1189=DIRECTION('',(1.0,0.0,1.22460635382238E-16));
#1190=DIRECTION('',(1.22460635382238E-16,0.0,-1.0));
#1191=DIRECTION('',(0.0,-1.0,-0.0));
#1192=DIRECTION('',(-1.22460635382238E-16,0.0,1.0));
#1193=DIRECTION('',(-1.0,0.0,-1.22460635382238E-16));
#1194=DIRECTION('',(1.22460635382238E-16,0.0,-1.0));
#1195=DIRECTION('',(-1.0,0.0,-1.22460635382238E-16));
#1196=DIRECTION('',(-6.12303176911189E-17,1.0,-7.49830360911069E-33));
#1197=DIRECTION('',(-6.12303176911189E-17,1.0,-7.49830360911069E-33));
#1198=DIRECTION('',(1.22460635382238E-16,0.0,-1.0));
#1199=DIRECTION('',(-1.22460635382238E-16,0.0,1.0));
#1200=DIRECTION('',(0.0,-1.0,0.0));
#1201=DIRECTION('',(1.22460635382238E-16,0.0,-1.0));
#1202=DIRECTION('',(0.0,1.0,0.0));
#1203=DIRECTION('',(1.0,-0.0,1.22460635382238E-16));
#1204=DIRECTION('',(-1.0,0.0,-1.22460635382238E-16));
#1205=DIRECTION('',(-1.0,0.0,0.0));
#1206=DIRECTION('',(0.0,1.0,0.0));
#1207=DIRECTION('',(1.0,0.0,0.0));
#1208=DIRECTION('',(6.12303176911189E-17,1.0,0.0));
#1209=DIRECTION('',(1.0,0.0,0.0));
#1210=DIRECTION('',(0.0,-1.0,0.0));
#1211=DIRECTION('',(1.0,0.0,0.0));
#1212=DIRECTION('',(0.0,0.0,-1.0));
#1213=DIRECTION('',(-1.0,0.0,0.0));
#1214=DIRECTION('',(0.0,1.0,0.0));
#1215=DIRECTION('',(1.0,0.0,0.0));
#1216=DIRECTION('',(6.12303176911189E-17,1.0,0.0));
#1217=DIRECTION('',(-1.0,-0.0,-0.0));
#1218=DIRECTION('',(-0.0,-1.0,-0.0));
#1219=DIRECTION('',(-1.22460635382238E-16,0.0,1.0));
#1220=DIRECTION('',(0.0,1.0,0.0));
#1221=DIRECTION('',(1.22460635382238E-16,0.0,-1.0));
#1222=DIRECTION('',(1.0,-0.0,1.22460635382238E-16));
#1223=DIRECTION('',(-1.0,-0.0,-1.22460635382238E-16));
#1224=DIRECTION('',(0.0,0.0,-1.0));
#1225=DIRECTION('',(0.0,0.0,1.0));
#1226=DIRECTION('',(0.0,0.0,1.0));
#1227=DIRECTION('',(0.0,0.0,1.0));
ENDSEC;
END-ISO-10303-21;
