ISO-10303-21;
HEADER;
FILE_DESCRIPTION((''),'2;1');
FILE_NAME('PRT0001','2022-04-14T12:28:34',('fyq'),(''),
'CREO PARAMETRIC BY PTC INC, 2020033','CREO PARAMETRIC BY PTC INC, 2020033','');
FILE_SCHEMA(('CONFIG_CONTROL_DESIGN'));
ENDSEC;
DATA;
#1=DIRECTION('',(1.E0,0.E0,0.E0));
#2=VECTOR('',#1,5.200000006029E0);
#3=CARTESIAN_POINT('',(-2.600000006053E0,0.E0,-3.7E0));
#4=LINE('',#3,#2);
#5=DIRECTION('',(-1.688085843949E-9,0.E0,-1.E0));
#6=VECTOR('',#5,3.6E0);
#7=CARTESIAN_POINT('',(-2.599999999976E0,0.E0,-1.E-1));
#8=LINE('',#7,#6);
#9=DIRECTION('',(-1.E0,0.E0,0.E0));
#10=VECTOR('',#9,2.999999999759E-1);
#11=CARTESIAN_POINT('',(-2.3E0,0.E0,-1.E-1));
#12=LINE('',#11,#10);
#13=DIRECTION('',(-1.E0,0.E0,0.E0));
#14=VECTOR('',#13,1.2E0);
#15=CARTESIAN_POINT('',(-1.1E0,0.E0,6.5E-1));
#16=LINE('',#15,#14);
#17=DIRECTION('',(0.E0,0.E0,-1.E0));
#18=VECTOR('',#17,1.E0);
#19=CARTESIAN_POINT('',(-1.1E0,0.E0,1.65E0));
#20=LINE('',#19,#18);
#21=DIRECTION('',(-1.E0,0.E0,0.E0));
#22=VECTOR('',#21,2.E-1);
#23=CARTESIAN_POINT('',(-9.E-1,0.E0,1.65E0));
#24=LINE('',#23,#22);
#25=DIRECTION('',(0.E0,0.E0,1.E0));
#26=VECTOR('',#25,1.E0);
#27=CARTESIAN_POINT('',(-9.E-1,0.E0,6.5E-1));
#28=LINE('',#27,#26);
#29=DIRECTION('',(-1.E0,0.E0,0.E0));
#30=VECTOR('',#29,8.E-1);
#31=CARTESIAN_POINT('',(-1.E-1,0.E0,6.5E-1));
#32=LINE('',#31,#30);
#33=DIRECTION('',(0.E0,0.E0,-1.E0));
#34=VECTOR('',#33,1.E0);
#35=CARTESIAN_POINT('',(-1.E-1,0.E0,1.65E0));
#36=LINE('',#35,#34);
#37=DIRECTION('',(-1.E0,0.E0,0.E0));
#38=VECTOR('',#37,2.E-1);
#39=CARTESIAN_POINT('',(1.E-1,0.E0,1.65E0));
#40=LINE('',#39,#38);
#41=DIRECTION('',(0.E0,0.E0,1.E0));
#42=VECTOR('',#41,1.E0);
#43=CARTESIAN_POINT('',(1.E-1,0.E0,6.5E-1));
#44=LINE('',#43,#42);
#45=DIRECTION('',(-1.E0,0.E0,0.E0));
#46=VECTOR('',#45,8.E-1);
#47=CARTESIAN_POINT('',(9.E-1,0.E0,6.5E-1));
#48=LINE('',#47,#46);
#49=DIRECTION('',(0.E0,0.E0,-1.E0));
#50=VECTOR('',#49,1.E0);
#51=CARTESIAN_POINT('',(9.E-1,0.E0,1.65E0));
#52=LINE('',#51,#50);
#53=DIRECTION('',(-1.E0,0.E0,0.E0));
#54=VECTOR('',#53,2.E-1);
#55=CARTESIAN_POINT('',(1.1E0,0.E0,1.65E0));
#56=LINE('',#55,#54);
#57=DIRECTION('',(0.E0,0.E0,1.E0));
#58=VECTOR('',#57,1.E0);
#59=CARTESIAN_POINT('',(1.1E0,0.E0,6.5E-1));
#60=LINE('',#59,#58);
#61=DIRECTION('',(-1.E0,0.E0,0.E0));
#62=VECTOR('',#61,1.2E0);
#63=CARTESIAN_POINT('',(2.3E0,0.E0,6.5E-1));
#64=LINE('',#63,#62);
#65=DIRECTION('',(-1.E0,0.E0,0.E0));
#66=VECTOR('',#65,3.000000060531E-1);
#67=CARTESIAN_POINT('',(2.600000006053E0,0.E0,-1.E-1));
#68=LINE('',#67,#66);
#69=DIRECTION('',(1.688085473875E-9,0.E0,1.E0));
#70=VECTOR('',#69,3.6E0);
#71=CARTESIAN_POINT('',(2.599999999976E0,0.E0,-3.7E0));
#72=LINE('',#71,#70);
#73=CARTESIAN_POINT('',(-2.6E0,1.E-1,-3.7E0));
#74=DIRECTION('',(1.E0,0.E0,0.E0));
#75=DIRECTION('',(0.E0,-1.E0,0.E0));
#76=AXIS2_PLACEMENT_3D('',#73,#74,#75);
#78=CARTESIAN_POINT('',(2.6E0,1.E-1,-3.7E0));
#79=DIRECTION('',(1.E0,0.E0,0.E0));
#80=DIRECTION('',(0.E0,-1.E0,0.E0));
#81=AXIS2_PLACEMENT_3D('',#78,#79,#80);
#83=CARTESIAN_POINT('',(2.6E0,1.E-1,-3.7E0));
#84=DIRECTION('',(0.E0,0.E0,1.E0));
#85=DIRECTION('',(0.E0,-1.E0,0.E0));
#86=AXIS2_PLACEMENT_3D('',#83,#84,#85);
#88=CARTESIAN_POINT('',(2.6E0,1.E-1,-1.E-1));
#89=DIRECTION('',(0.E0,0.E0,-1.E0));
#90=DIRECTION('',(1.E0,0.E0,0.E0));
#91=AXIS2_PLACEMENT_3D('',#88,#89,#90);
#93=CARTESIAN_POINT('',(2.6E0,1.E-1,-1.E-1));
#94=DIRECTION('',(0.E0,-1.E0,0.E0));
#95=DIRECTION('',(1.E0,0.E0,0.E0));
#96=AXIS2_PLACEMENT_3D('',#93,#94,#95);
#98=CARTESIAN_POINT('',(2.6E0,1.E-1,-1.E-1));
#99=DIRECTION('',(-1.E0,0.E0,0.E0));
#100=DIRECTION('',(0.E0,-1.E0,0.E0));
#101=AXIS2_PLACEMENT_3D('',#98,#99,#100);
#103=CARTESIAN_POINT('',(2.3E0,1.E-1,-1.E-1));
#104=DIRECTION('',(-1.E0,0.E0,0.E0));
#105=DIRECTION('',(0.E0,-1.E0,0.E0));
#106=AXIS2_PLACEMENT_3D('',#103,#104,#105);
#108=DIRECTION('',(-1.E0,0.E0,0.E0));
#109=VECTOR('',#108,3.E-1);
#110=CARTESIAN_POINT('',(2.6E0,1.E-1,0.E0));
#111=LINE('',#110,#109);
#112=DIRECTION('',(0.E0,1.E0,0.E0));
#113=VECTOR('',#112,2.6E0);
#114=CARTESIAN_POINT('',(2.3E0,1.E-1,0.E0));
#115=LINE('',#114,#113);
#116=DIRECTION('',(1.E0,0.E0,0.E0));
#117=VECTOR('',#116,4.6E0);
#118=CARTESIAN_POINT('',(-2.3E0,2.7E0,0.E0));
#119=LINE('',#118,#117);
#120=DIRECTION('',(0.E0,1.E0,0.E0));
#121=VECTOR('',#120,2.6E0);
#122=CARTESIAN_POINT('',(-2.3E0,1.E-1,0.E0));
#123=LINE('',#122,#121);
#124=DIRECTION('',(-1.E0,0.E0,0.E0));
#125=VECTOR('',#124,3.E-1);
#126=CARTESIAN_POINT('',(-2.3E0,1.E-1,0.E0));
#127=LINE('',#126,#125);
#128=DIRECTION('',(0.E0,1.E0,0.E0));
#129=VECTOR('',#128,2.95E0);
#130=CARTESIAN_POINT('',(-2.6E0,1.E-1,0.E0));
#131=LINE('',#130,#129);
#132=DIRECTION('',(1.E0,0.E0,0.E0));
#133=VECTOR('',#132,5.2E0);
#134=CARTESIAN_POINT('',(-2.6E0,3.05E0,0.E0));
#135=LINE('',#134,#133);
#136=DIRECTION('',(0.E0,-1.E0,0.E0));
#137=VECTOR('',#136,2.95E0);
#138=CARTESIAN_POINT('',(2.6E0,3.05E0,0.E0));
#139=LINE('',#138,#137);
#140=DIRECTION('',(0.E0,0.E0,1.E0));
#141=VECTOR('',#140,7.5E-1);
#142=CARTESIAN_POINT('',(2.3E0,0.E0,-1.E-1));
#143=LINE('',#142,#141);
#144=DIRECTION('',(1.E0,0.E0,0.E0));
#145=VECTOR('',#144,2.E-1);
#146=CARTESIAN_POINT('',(-1.1E0,2.E-1,6.5E-1));
#147=LINE('',#146,#145);
#148=DIRECTION('',(0.E0,1.E0,0.E0));
#149=VECTOR('',#148,2.E-1);
#150=CARTESIAN_POINT('',(-1.1E0,0.E0,6.5E-1));
#151=LINE('',#150,#149);
#152=DIRECTION('',(0.E0,1.E0,0.E0));
#153=VECTOR('',#152,2.7E0);
#154=CARTESIAN_POINT('',(2.3E0,0.E0,6.5E-1));
#155=LINE('',#154,#153);
#156=DIRECTION('',(0.E0,1.E0,0.E0));
#157=VECTOR('',#156,2.E-1);
#158=CARTESIAN_POINT('',(1.1E0,0.E0,6.5E-1));
#159=LINE('',#158,#157);
#160=DIRECTION('',(1.E0,0.E0,0.E0));
#161=VECTOR('',#160,2.E-1);
#162=CARTESIAN_POINT('',(9.E-1,2.E-1,6.5E-1));
#163=LINE('',#162,#161);
#164=DIRECTION('',(0.E0,1.E0,0.E0));
#165=VECTOR('',#164,2.E-1);
#166=CARTESIAN_POINT('',(9.E-1,0.E0,6.5E-1));
#167=LINE('',#166,#165);
#168=DIRECTION('',(0.E0,1.E0,0.E0));
#169=VECTOR('',#168,2.E-1);
#170=CARTESIAN_POINT('',(1.E-1,0.E0,6.5E-1));
#171=LINE('',#170,#169);
#172=DIRECTION('',(1.E0,0.E0,0.E0));
#173=VECTOR('',#172,2.E-1);
#174=CARTESIAN_POINT('',(-1.E-1,2.E-1,6.5E-1));
#175=LINE('',#174,#173);
#176=DIRECTION('',(0.E0,1.E0,0.E0));
#177=VECTOR('',#176,2.E-1);
#178=CARTESIAN_POINT('',(-1.E-1,0.E0,6.5E-1));
#179=LINE('',#178,#177);
#180=DIRECTION('',(0.E0,1.E0,0.E0));
#181=VECTOR('',#180,2.E-1);
#182=CARTESIAN_POINT('',(-9.E-1,0.E0,6.5E-1));
#183=LINE('',#182,#181);
#184=DIRECTION('',(0.E0,0.E0,1.E0));
#185=VECTOR('',#184,1.E0);
#186=CARTESIAN_POINT('',(-9.E-1,2.E-1,6.5E-1));
#187=LINE('',#186,#185);
#188=DIRECTION('',(-1.E0,0.E0,0.E0));
#189=VECTOR('',#188,2.E-1);
#190=CARTESIAN_POINT('',(-9.E-1,2.E-1,1.65E0));
#191=LINE('',#190,#189);
#192=DIRECTION('',(0.E0,0.E0,-1.E0));
#193=VECTOR('',#192,1.E0);
#194=CARTESIAN_POINT('',(-1.1E0,2.E-1,1.65E0));
#195=LINE('',#194,#193);
#196=DIRECTION('',(0.E0,0.E0,1.E0));
#197=VECTOR('',#196,1.E0);
#198=CARTESIAN_POINT('',(1.E-1,2.E-1,6.5E-1));
#199=LINE('',#198,#197);
#200=DIRECTION('',(-1.E0,0.E0,0.E0));
#201=VECTOR('',#200,2.E-1);
#202=CARTESIAN_POINT('',(1.E-1,2.E-1,1.65E0));
#203=LINE('',#202,#201);
#204=DIRECTION('',(0.E0,0.E0,-1.E0));
#205=VECTOR('',#204,1.E0);
#206=CARTESIAN_POINT('',(-1.E-1,2.E-1,1.65E0));
#207=LINE('',#206,#205);
#208=DIRECTION('',(0.E0,0.E0,1.E0));
#209=VECTOR('',#208,1.E0);
#210=CARTESIAN_POINT('',(1.1E0,2.E-1,6.5E-1));
#211=LINE('',#210,#209);
#212=DIRECTION('',(-1.E0,0.E0,0.E0));
#213=VECTOR('',#212,2.E-1);
#214=CARTESIAN_POINT('',(1.1E0,2.E-1,1.65E0));
#215=LINE('',#214,#213);
#216=DIRECTION('',(0.E0,0.E0,-1.E0));
#217=VECTOR('',#216,1.E0);
#218=CARTESIAN_POINT('',(9.E-1,2.E-1,1.65E0));
#219=LINE('',#218,#217);
#220=DIRECTION('',(0.E0,1.E0,0.E0));
#221=VECTOR('',#220,2.E-1);
#222=CARTESIAN_POINT('',(-9.E-1,0.E0,1.65E0));
#223=LINE('',#222,#221);
#224=DIRECTION('',(0.E0,1.E0,0.E0));
#225=VECTOR('',#224,2.E-1);
#226=CARTESIAN_POINT('',(-1.1E0,0.E0,1.65E0));
#227=LINE('',#226,#225);
#228=DIRECTION('',(0.E0,1.E0,0.E0));
#229=VECTOR('',#228,2.E-1);
#230=CARTESIAN_POINT('',(1.E-1,0.E0,1.65E0));
#231=LINE('',#230,#229);
#232=DIRECTION('',(0.E0,1.E0,0.E0));
#233=VECTOR('',#232,2.E-1);
#234=CARTESIAN_POINT('',(-1.E-1,0.E0,1.65E0));
#235=LINE('',#234,#233);
#236=DIRECTION('',(0.E0,1.E0,0.E0));
#237=VECTOR('',#236,2.E-1);
#238=CARTESIAN_POINT('',(1.1E0,0.E0,1.65E0));
#239=LINE('',#238,#237);
#240=DIRECTION('',(0.E0,1.E0,0.E0));
#241=VECTOR('',#240,2.E-1);
#242=CARTESIAN_POINT('',(9.E-1,0.E0,1.65E0));
#243=LINE('',#242,#241);
#244=DIRECTION('',(0.E0,0.E0,-1.E0));
#245=VECTOR('',#244,7.5E-1);
#246=CARTESIAN_POINT('',(-2.3E0,0.E0,6.5E-1));
#247=LINE('',#246,#245);
#248=DIRECTION('',(0.E0,1.E0,0.E0));
#249=VECTOR('',#248,2.7E0);
#250=CARTESIAN_POINT('',(-2.3E0,0.E0,6.5E-1));
#251=LINE('',#250,#249);
#252=CARTESIAN_POINT('',(-2.3E0,1.E-1,-1.E-1));
#253=DIRECTION('',(1.E0,0.E0,0.E0));
#254=DIRECTION('',(0.E0,0.E0,1.E0));
#255=AXIS2_PLACEMENT_3D('',#252,#253,#254);
#257=CARTESIAN_POINT('',(-2.6E0,1.E-1,-1.E-1));
#258=DIRECTION('',(-1.E0,0.E0,0.E0));
#259=DIRECTION('',(0.E0,-1.E0,0.E0));
#260=AXIS2_PLACEMENT_3D('',#257,#258,#259);
#262=CARTESIAN_POINT('',(-2.6E0,1.E-1,-3.7E0));
#263=DIRECTION('',(0.E0,0.E0,1.E0));
#264=DIRECTION('',(-1.E0,0.E0,0.E0));
#265=AXIS2_PLACEMENT_3D('',#262,#263,#264);
#267=CARTESIAN_POINT('',(-2.6E0,1.E-1,-1.E-1));
#268=DIRECTION('',(0.E0,0.E0,-1.E0));
#269=DIRECTION('',(0.E0,-1.E0,0.E0));
#270=AXIS2_PLACEMENT_3D('',#267,#268,#269);
#272=CARTESIAN_POINT('',(-2.6E0,1.E-1,-3.7E0));
#273=DIRECTION('',(0.E0,-1.E0,0.E0));
#274=DIRECTION('',(-1.E0,0.E0,0.E0));
#275=AXIS2_PLACEMENT_3D('',#272,#273,#274);
#277=CARTESIAN_POINT('',(-2.6E0,3.05E0,-3.7E0));
#278=DIRECTION('',(0.E0,-1.E0,0.E0));
#279=DIRECTION('',(-1.E0,0.E0,0.E0));
#280=AXIS2_PLACEMENT_3D('',#277,#278,#279);
#282=DIRECTION('',(0.E0,-1.E0,0.E0));
#283=VECTOR('',#282,2.950000012543E0);
#284=CARTESIAN_POINT('',(-2.7E0,3.050000012622E0,-3.7E0));
#285=LINE('',#284,#283);
#286=DIRECTION('',(0.E0,-3.528179970402E-9,1.E0));
#287=VECTOR('',#286,3.6E0);
#288=CARTESIAN_POINT('',(-2.7E0,3.050000012622E0,-3.7E0));
#289=LINE('',#288,#287);
#290=DIRECTION('',(0.E0,1.E0,0.E0));
#291=VECTOR('',#290,2.950000012543E0);
#292=CARTESIAN_POINT('',(-2.7E0,9.999998737758E-2,-1.E-1));
#293=LINE('',#292,#291);
#294=DIRECTION('',(0.E0,3.528180101470E-9,-1.E0));
#295=VECTOR('',#294,3.6E0);
#296=CARTESIAN_POINT('',(-2.7E0,9.999998737758E-2,-1.E-1));
#297=LINE('',#296,#295);
#298=CARTESIAN_POINT('',(-2.6E0,3.05E0,-3.7E0));
#299=DIRECTION('',(0.E0,0.E0,1.E0));
#300=DIRECTION('',(0.E0,1.E0,0.E0));
#301=AXIS2_PLACEMENT_3D('',#298,#299,#300);
#303=CARTESIAN_POINT('',(-2.6E0,3.05E0,-1.E-1));
#304=DIRECTION('',(0.E0,0.E0,-1.E0));
#305=DIRECTION('',(-1.E0,0.E0,0.E0));
#306=AXIS2_PLACEMENT_3D('',#303,#304,#305);
#308=CARTESIAN_POINT('',(-2.6E0,3.05E0,-3.7E0));
#309=DIRECTION('',(-1.E0,0.E0,0.E0));
#310=DIRECTION('',(0.E0,1.E0,0.E0));
#311=AXIS2_PLACEMENT_3D('',#308,#309,#310);
#313=CARTESIAN_POINT('',(2.6E0,3.05E0,-3.7E0));
#314=DIRECTION('',(-1.E0,0.E0,0.E0));
#315=DIRECTION('',(0.E0,1.E0,0.E0));
#316=AXIS2_PLACEMENT_3D('',#313,#314,#315);
#318=DIRECTION('',(-1.E0,0.E0,0.E0));
#319=VECTOR('',#318,5.200000006029E0);
#320=CARTESIAN_POINT('',(2.600000006053E0,3.15E0,-3.7E0));
#321=LINE('',#320,#319);
#322=DIRECTION('',(1.688085720591E-9,0.E0,-1.E0));
#323=VECTOR('',#322,3.6E0);
#324=CARTESIAN_POINT('',(2.599999999976E0,3.15E0,-1.E-1));
#325=LINE('',#324,#323);
#326=DIRECTION('',(1.E0,0.E0,0.E0));
#327=VECTOR('',#326,5.200000006029E0);
#328=CARTESIAN_POINT('',(-2.600000006053E0,3.15E0,-1.E-1));
#329=LINE('',#328,#327);
#330=DIRECTION('',(-1.688085720591E-9,0.E0,1.E0));
#331=VECTOR('',#330,3.6E0);
#332=CARTESIAN_POINT('',(-2.599999999976E0,3.15E0,-3.7E0));
#333=LINE('',#332,#331);
#334=CARTESIAN_POINT('',(2.6E0,3.05E0,-3.7E0));
#335=DIRECTION('',(0.E0,0.E0,1.E0));
#336=DIRECTION('',(1.E0,0.E0,0.E0));
#337=AXIS2_PLACEMENT_3D('',#334,#335,#336);
#339=CARTESIAN_POINT('',(2.6E0,3.05E0,-1.E-1));
#340=DIRECTION('',(0.E0,0.E0,-1.E0));
#341=DIRECTION('',(0.E0,1.E0,0.E0));
#342=AXIS2_PLACEMENT_3D('',#339,#340,#341);
#344=CARTESIAN_POINT('',(2.6E0,3.05E0,-3.7E0));
#345=DIRECTION('',(0.E0,1.E0,0.E0));
#346=DIRECTION('',(1.E0,0.E0,0.E0));
#347=AXIS2_PLACEMENT_3D('',#344,#345,#346);
#349=CARTESIAN_POINT('',(2.6E0,1.E-1,-3.7E0));
#350=DIRECTION('',(0.E0,1.E0,0.E0));
#351=DIRECTION('',(1.E0,0.E0,0.E0));
#352=AXIS2_PLACEMENT_3D('',#349,#350,#351);
#354=DIRECTION('',(0.E0,1.E0,0.E0));
#355=VECTOR('',#354,2.950000012543E0);
#356=CARTESIAN_POINT('',(2.7E0,9.999998737758E-2,-3.7E0));
#357=LINE('',#356,#355);
#358=DIRECTION('',(0.E0,3.528180105325E-9,1.E0));
#359=VECTOR('',#358,3.6E0);
#360=CARTESIAN_POINT('',(2.7E0,9.999998737758E-2,-3.7E0));
#361=LINE('',#360,#359);
#362=DIRECTION('',(0.E0,-1.E0,0.E0));
#363=VECTOR('',#362,2.950000012543E0);
#364=CARTESIAN_POINT('',(2.7E0,3.050000012622E0,-1.E-1));
#365=LINE('',#364,#363);
#366=DIRECTION('',(0.E0,-3.528179970402E-9,-1.E0));
#367=VECTOR('',#366,3.6E0);
#368=CARTESIAN_POINT('',(2.7E0,3.050000012622E0,-1.E-1));
#369=LINE('',#368,#367);
#370=CARTESIAN_POINT('',(2.6E0,3.05E0,-1.E-1));
#371=DIRECTION('',(0.E0,-1.E0,0.E0));
#372=DIRECTION('',(1.E0,0.E0,0.E0));
#373=AXIS2_PLACEMENT_3D('',#370,#371,#372);
#375=CARTESIAN_POINT('',(2.6E0,3.05E0,-1.E-1));
#376=DIRECTION('',(1.E0,0.E0,0.E0));
#377=DIRECTION('',(0.E0,1.E0,0.E0));
#378=AXIS2_PLACEMENT_3D('',#375,#376,#377);
#380=CARTESIAN_POINT('',(-2.6E0,3.05E0,-1.E-1));
#381=DIRECTION('',(1.E0,0.E0,0.E0));
#382=DIRECTION('',(0.E0,1.E0,0.E0));
#383=AXIS2_PLACEMENT_3D('',#380,#381,#382);
#385=CARTESIAN_POINT('',(-2.6E0,3.05E0,-1.E-1));
#386=DIRECTION('',(0.E0,1.E0,0.E0));
#387=DIRECTION('',(-1.E0,0.E0,0.E0));
#388=AXIS2_PLACEMENT_3D('',#385,#386,#387);
#390=CARTESIAN_POINT('',(-2.6E0,1.E-1,-1.E-1));
#391=DIRECTION('',(0.E0,1.E0,0.E0));
#392=DIRECTION('',(-1.E0,0.E0,0.E0));
#393=AXIS2_PLACEMENT_3D('',#390,#391,#392);
#395=DIRECTION('',(1.E0,0.E0,0.E0));
#396=VECTOR('',#395,8.E-1);
#397=CARTESIAN_POINT('',(1.7E0,8.75E-1,-3.8E0));
#398=LINE('',#397,#396);
#399=DIRECTION('',(0.E0,-1.E0,0.E0));
#400=VECTOR('',#399,3.75E-1);
#401=CARTESIAN_POINT('',(1.7E0,8.75E-1,-3.8E0));
#402=LINE('',#401,#400);
#403=DIRECTION('',(-1.E0,0.E0,0.E0));
#404=VECTOR('',#403,3.4E0);
#405=CARTESIAN_POINT('',(1.7E0,5.E-1,-3.8E0));
#406=LINE('',#405,#404);
#407=DIRECTION('',(0.E0,1.E0,0.E0));
#408=VECTOR('',#407,3.75E-1);
#409=CARTESIAN_POINT('',(-1.7E0,5.E-1,-3.8E0));
#410=LINE('',#409,#408);
#411=DIRECTION('',(1.E0,0.E0,0.E0));
#412=VECTOR('',#411,8.E-1);
#413=CARTESIAN_POINT('',(-2.5E0,8.75E-1,-3.8E0));
#414=LINE('',#413,#412);
#415=DIRECTION('',(0.E0,-1.E0,0.E0));
#416=VECTOR('',#415,1.4E0);
#417=CARTESIAN_POINT('',(-2.5E0,2.275E0,-3.8E0));
#418=LINE('',#417,#416);
#419=DIRECTION('',(-1.E0,0.E0,0.E0));
#420=VECTOR('',#419,8.E-1);
#421=CARTESIAN_POINT('',(-1.7E0,2.275E0,-3.8E0));
#422=LINE('',#421,#420);
#423=DIRECTION('',(0.E0,1.E0,0.E0));
#424=VECTOR('',#423,3.75E-1);
#425=CARTESIAN_POINT('',(-1.7E0,2.275E0,-3.8E0));
#426=LINE('',#425,#424);
#427=DIRECTION('',(1.E0,0.E0,0.E0));
#428=VECTOR('',#427,3.4E0);
#429=CARTESIAN_POINT('',(-1.7E0,2.65E0,-3.8E0));
#430=LINE('',#429,#428);
#431=DIRECTION('',(0.E0,-1.E0,0.E0));
#432=VECTOR('',#431,3.75E-1);
#433=CARTESIAN_POINT('',(1.7E0,2.65E0,-3.8E0));
#434=LINE('',#433,#432);
#435=DIRECTION('',(-1.E0,0.E0,0.E0));
#436=VECTOR('',#435,8.E-1);
#437=CARTESIAN_POINT('',(2.5E0,2.275E0,-3.8E0));
#438=LINE('',#437,#436);
#439=DIRECTION('',(0.E0,1.E0,0.E0));
#440=VECTOR('',#439,1.4E0);
#441=CARTESIAN_POINT('',(2.5E0,8.75E-1,-3.8E0));
#442=LINE('',#441,#440);
#443=DIRECTION('',(0.E0,-1.E0,0.E0));
#444=VECTOR('',#443,2.95E0);
#445=CARTESIAN_POINT('',(-2.6E0,3.05E0,-3.8E0));
#446=LINE('',#445,#444);
#447=DIRECTION('',(1.E0,0.E0,0.E0));
#448=VECTOR('',#447,5.2E0);
#449=CARTESIAN_POINT('',(-2.6E0,1.E-1,-3.8E0));
#450=LINE('',#449,#448);
#451=DIRECTION('',(0.E0,1.E0,0.E0));
#452=VECTOR('',#451,2.95E0);
#453=CARTESIAN_POINT('',(2.6E0,1.E-1,-3.8E0));
#454=LINE('',#453,#452);
#455=DIRECTION('',(-1.E0,0.E0,0.E0));
#456=VECTOR('',#455,5.2E0);
#457=CARTESIAN_POINT('',(2.6E0,3.05E0,-3.8E0));
#458=LINE('',#457,#456);
#459=DIRECTION('',(5.773502691896E-1,-5.773502691896E-1,-5.773502691896E-1));
#460=VECTOR('',#459,5.196152422707E-1);
#461=CARTESIAN_POINT('',(2.2E0,1.175E0,-3.5E0));
#462=LINE('',#461,#460);
#463=DIRECTION('',(0.E0,-7.071067811865E-1,-7.071067811865E-1));
#464=VECTOR('',#463,4.242640687119E-1);
#465=CARTESIAN_POINT('',(1.7E0,1.175E0,-3.5E0));
#466=LINE('',#465,#464);
#467=DIRECTION('',(0.E0,0.E0,-1.E0));
#468=VECTOR('',#467,2.7E0);
#469=CARTESIAN_POINT('',(1.7E0,1.175E0,-8.E-1));
#470=LINE('',#469,#468);
#471=DIRECTION('',(0.E0,-7.071067811865E-1,7.071067811865E-1));
#472=VECTOR('',#471,4.242640687119E-1);
#473=CARTESIAN_POINT('',(1.7E0,2.275E0,-3.8E0));
#474=LINE('',#473,#472);
#475=DIRECTION('',(0.E0,0.E0,1.E0));
#476=VECTOR('',#475,3.E0);
#477=CARTESIAN_POINT('',(1.7E0,2.65E0,-3.8E0));
#478=LINE('',#477,#476);
#479=DIRECTION('',(0.E0,0.E0,-1.E0));
#480=VECTOR('',#479,2.7E0);
#481=CARTESIAN_POINT('',(1.7E0,1.975E0,-8.E-1));
#482=LINE('',#481,#480);
#483=DIRECTION('',(1.E0,0.E0,0.E0));
#484=VECTOR('',#483,5.E-1);
#485=CARTESIAN_POINT('',(1.7E0,1.175E0,-3.5E0));
#486=LINE('',#485,#484);
#487=DIRECTION('',(0.E0,0.E0,1.E0));
#488=VECTOR('',#487,2.7E0);
#489=CARTESIAN_POINT('',(2.2E0,1.175E0,-3.5E0));
#490=LINE('',#489,#488);
#491=DIRECTION('',(0.E0,1.E0,0.E0));
#492=VECTOR('',#491,8.E-1);
#493=CARTESIAN_POINT('',(2.2E0,1.175E0,-3.5E0));
#494=LINE('',#493,#492);
#495=DIRECTION('',(0.E0,0.E0,1.E0));
#496=VECTOR('',#495,2.7E0);
#497=CARTESIAN_POINT('',(2.2E0,1.975E0,-3.5E0));
#498=LINE('',#497,#496);
#499=DIRECTION('',(5.773502691896E-1,5.773502691896E-1,-5.773502691896E-1));
#500=VECTOR('',#499,5.196152422707E-1);
#501=CARTESIAN_POINT('',(2.2E0,1.975E0,-3.5E0));
#502=LINE('',#501,#500);
#503=DIRECTION('',(-1.E0,0.E0,0.E0));
#504=VECTOR('',#503,5.E-1);
#505=CARTESIAN_POINT('',(2.2E0,1.975E0,-3.5E0));
#506=LINE('',#505,#504);
#507=DIRECTION('',(0.E0,1.E0,0.E0));
#508=VECTOR('',#507,6.75E-1);
#509=CARTESIAN_POINT('',(-1.7E0,1.975E0,-8.E-1));
#510=LINE('',#509,#508);
#511=DIRECTION('',(1.E0,0.E0,0.E0));
#512=VECTOR('',#511,5.E-1);
#513=CARTESIAN_POINT('',(-2.2E0,1.975E0,-8.E-1));
#514=LINE('',#513,#512);
#515=DIRECTION('',(0.E0,1.E0,0.E0));
#516=VECTOR('',#515,8.E-1);
#517=CARTESIAN_POINT('',(-2.2E0,1.175E0,-8.E-1));
#518=LINE('',#517,#516);
#519=DIRECTION('',(-1.E0,0.E0,0.E0));
#520=VECTOR('',#519,5.E-1);
#521=CARTESIAN_POINT('',(-1.7E0,1.175E0,-8.E-1));
#522=LINE('',#521,#520);
#523=DIRECTION('',(0.E0,1.E0,0.E0));
#524=VECTOR('',#523,6.75E-1);
#525=CARTESIAN_POINT('',(-1.7E0,5.E-1,-8.E-1));
#526=LINE('',#525,#524);
#527=DIRECTION('',(-1.E0,0.E0,0.E0));
#528=VECTOR('',#527,3.4E0);
#529=CARTESIAN_POINT('',(1.7E0,5.E-1,-8.E-1));
#530=LINE('',#529,#528);
#531=DIRECTION('',(0.E0,-1.E0,0.E0));
#532=VECTOR('',#531,6.75E-1);
#533=CARTESIAN_POINT('',(1.7E0,1.175E0,-8.E-1));
#534=LINE('',#533,#532);
#535=DIRECTION('',(-1.E0,0.E0,0.E0));
#536=VECTOR('',#535,5.E-1);
#537=CARTESIAN_POINT('',(2.2E0,1.175E0,-8.E-1));
#538=LINE('',#537,#536);
#539=DIRECTION('',(0.E0,-1.E0,0.E0));
#540=VECTOR('',#539,8.E-1);
#541=CARTESIAN_POINT('',(2.2E0,1.975E0,-8.E-1));
#542=LINE('',#541,#540);
#543=DIRECTION('',(1.E0,0.E0,0.E0));
#544=VECTOR('',#543,5.E-1);
#545=CARTESIAN_POINT('',(1.7E0,1.975E0,-8.E-1));
#546=LINE('',#545,#544);
#547=DIRECTION('',(0.E0,-1.E0,0.E0));
#548=VECTOR('',#547,6.75E-1);
#549=CARTESIAN_POINT('',(1.7E0,2.65E0,-8.E-1));
#550=LINE('',#549,#548);
#551=DIRECTION('',(1.E0,0.E0,0.E0));
#552=VECTOR('',#551,3.4E0);
#553=CARTESIAN_POINT('',(-1.7E0,2.65E0,-8.E-1));
#554=LINE('',#553,#552);
#555=DIRECTION('',(0.E0,-1.E0,0.E0));
#556=VECTOR('',#555,2.E-1);
#557=CARTESIAN_POINT('',(1.1E0,1.9E0,-8.E-1));
#558=LINE('',#557,#556);
#559=DIRECTION('',(-1.E0,0.E0,0.E0));
#560=VECTOR('',#559,2.E-1);
#561=CARTESIAN_POINT('',(1.1E0,1.7E0,-8.E-1));
#562=LINE('',#561,#560);
#563=DIRECTION('',(0.E0,1.E0,0.E0));
#564=VECTOR('',#563,2.E-1);
#565=CARTESIAN_POINT('',(9.E-1,1.7E0,-8.E-1));
#566=LINE('',#565,#564);
#567=DIRECTION('',(1.E0,0.E0,0.E0));
#568=VECTOR('',#567,2.E-1);
#569=CARTESIAN_POINT('',(9.E-1,1.9E0,-8.E-1));
#570=LINE('',#569,#568);
#571=DIRECTION('',(0.E0,-1.E0,0.E0));
#572=VECTOR('',#571,2.E-1);
#573=CARTESIAN_POINT('',(1.E-1,1.9E0,-8.E-1));
#574=LINE('',#573,#572);
#575=DIRECTION('',(-1.E0,0.E0,0.E0));
#576=VECTOR('',#575,2.E-1);
#577=CARTESIAN_POINT('',(1.E-1,1.7E0,-8.E-1));
#578=LINE('',#577,#576);
#579=DIRECTION('',(0.E0,1.E0,0.E0));
#580=VECTOR('',#579,2.E-1);
#581=CARTESIAN_POINT('',(-1.E-1,1.7E0,-8.E-1));
#582=LINE('',#581,#580);
#583=DIRECTION('',(1.E0,0.E0,0.E0));
#584=VECTOR('',#583,2.E-1);
#585=CARTESIAN_POINT('',(-1.E-1,1.9E0,-8.E-1));
#586=LINE('',#585,#584);
#587=DIRECTION('',(1.E0,0.E0,0.E0));
#588=VECTOR('',#587,2.E-1);
#589=CARTESIAN_POINT('',(-1.1E0,1.9E0,-8.E-1));
#590=LINE('',#589,#588);
#591=DIRECTION('',(0.E0,-1.E0,0.E0));
#592=VECTOR('',#591,2.E-1);
#593=CARTESIAN_POINT('',(-9.E-1,1.9E0,-8.E-1));
#594=LINE('',#593,#592);
#595=DIRECTION('',(-1.E0,0.E0,0.E0));
#596=VECTOR('',#595,2.E-1);
#597=CARTESIAN_POINT('',(-9.E-1,1.7E0,-8.E-1));
#598=LINE('',#597,#596);
#599=DIRECTION('',(0.E0,1.E0,0.E0));
#600=VECTOR('',#599,2.E-1);
#601=CARTESIAN_POINT('',(-1.1E0,1.7E0,-8.E-1));
#602=LINE('',#601,#600);
#603=DIRECTION('',(0.E0,7.071067811865E-1,-7.071067811865E-1));
#604=VECTOR('',#603,4.242640687119E-1);
#605=CARTESIAN_POINT('',(-1.7E0,1.975E0,-3.5E0));
#606=LINE('',#605,#604);
#607=DIRECTION('',(0.E0,0.E0,-1.E0));
#608=VECTOR('',#607,2.7E0);
#609=CARTESIAN_POINT('',(-1.7E0,1.975E0,-8.E-1));
#610=LINE('',#609,#608);
#611=DIRECTION('',(0.E0,7.071067811865E-1,7.071067811865E-1));
#612=VECTOR('',#611,4.242640687119E-1);
#613=CARTESIAN_POINT('',(-1.7E0,8.75E-1,-3.8E0));
#614=LINE('',#613,#612);
#615=DIRECTION('',(0.E0,0.E0,1.E0));
#616=VECTOR('',#615,3.E0);
#617=CARTESIAN_POINT('',(-1.7E0,5.E-1,-3.8E0));
#618=LINE('',#617,#616);
#619=DIRECTION('',(0.E0,0.E0,-1.E0));
#620=VECTOR('',#619,2.7E0);
#621=CARTESIAN_POINT('',(-1.7E0,1.175E0,-8.E-1));
#622=LINE('',#621,#620);
#623=DIRECTION('',(-5.773502691896E-1,5.773502691896E-1,-5.773502691896E-1));
#624=VECTOR('',#623,5.196152422707E-1);
#625=CARTESIAN_POINT('',(-2.2E0,1.975E0,-3.5E0));
#626=LINE('',#625,#624);
#627=DIRECTION('',(-5.773502691896E-1,-5.773502691896E-1,-5.773502691896E-1));
#628=VECTOR('',#627,5.196152422707E-1);
#629=CARTESIAN_POINT('',(-2.2E0,1.175E0,-3.5E0));
#630=LINE('',#629,#628);
#631=DIRECTION('',(0.E0,-1.E0,0.E0));
#632=VECTOR('',#631,8.E-1);
#633=CARTESIAN_POINT('',(-2.2E0,1.975E0,-3.5E0));
#634=LINE('',#633,#632);
#635=DIRECTION('',(0.E0,0.E0,1.E0));
#636=VECTOR('',#635,2.7E0);
#637=CARTESIAN_POINT('',(-2.2E0,1.175E0,-3.5E0));
#638=LINE('',#637,#636);
#639=DIRECTION('',(1.E0,0.E0,0.E0));
#640=VECTOR('',#639,5.E-1);
#641=CARTESIAN_POINT('',(-2.2E0,1.175E0,-3.5E0));
#642=LINE('',#641,#640);
#643=DIRECTION('',(-1.E0,0.E0,0.E0));
#644=VECTOR('',#643,5.E-1);
#645=CARTESIAN_POINT('',(-1.7E0,1.975E0,-3.5E0));
#646=LINE('',#645,#644);
#647=DIRECTION('',(0.E0,0.E0,1.E0));
#648=VECTOR('',#647,2.7E0);
#649=CARTESIAN_POINT('',(-2.2E0,1.975E0,-3.5E0));
#650=LINE('',#649,#648);
#651=DIRECTION('',(0.E0,0.E0,1.E0));
#652=VECTOR('',#651,3.E0);
#653=CARTESIAN_POINT('',(-1.7E0,2.65E0,-3.8E0));
#654=LINE('',#653,#652);
#655=DIRECTION('',(0.E0,0.E0,1.E0));
#656=VECTOR('',#655,3.E0);
#657=CARTESIAN_POINT('',(1.7E0,5.E-1,-3.8E0));
#658=LINE('',#657,#656);
#659=DIRECTION('',(0.E0,0.E0,-1.E0));
#660=VECTOR('',#659,1.5E0);
#661=CARTESIAN_POINT('',(1.1E0,1.9E0,-8.E-1));
#662=LINE('',#661,#660);
#663=DIRECTION('',(0.E0,0.E0,-1.E0));
#664=VECTOR('',#663,1.5E0);
#665=CARTESIAN_POINT('',(9.E-1,1.9E0,-8.E-1));
#666=LINE('',#665,#664);
#667=DIRECTION('',(0.E0,0.E0,-1.E0));
#668=VECTOR('',#667,1.5E0);
#669=CARTESIAN_POINT('',(9.E-1,1.7E0,-8.E-1));
#670=LINE('',#669,#668);
#671=DIRECTION('',(0.E0,0.E0,-1.E0));
#672=VECTOR('',#671,1.5E0);
#673=CARTESIAN_POINT('',(1.1E0,1.7E0,-8.E-1));
#674=LINE('',#673,#672);
#675=DIRECTION('',(0.E0,-1.E0,0.E0));
#676=VECTOR('',#675,2.E-1);
#677=CARTESIAN_POINT('',(1.1E0,1.9E0,-2.3E0));
#678=LINE('',#677,#676);
#679=DIRECTION('',(1.E0,0.E0,0.E0));
#680=VECTOR('',#679,2.E-1);
#681=CARTESIAN_POINT('',(9.E-1,1.9E0,-2.3E0));
#682=LINE('',#681,#680);
#683=DIRECTION('',(0.E0,1.E0,0.E0));
#684=VECTOR('',#683,2.E-1);
#685=CARTESIAN_POINT('',(9.E-1,1.7E0,-2.3E0));
#686=LINE('',#685,#684);
#687=DIRECTION('',(-1.E0,0.E0,0.E0));
#688=VECTOR('',#687,2.E-1);
#689=CARTESIAN_POINT('',(1.1E0,1.7E0,-2.3E0));
#690=LINE('',#689,#688);
#691=DIRECTION('',(0.E0,-1.E0,0.E0));
#692=VECTOR('',#691,2.E-1);
#693=CARTESIAN_POINT('',(1.E-1,1.9E0,-2.3E0));
#694=LINE('',#693,#692);
#695=DIRECTION('',(1.E0,0.E0,0.E0));
#696=VECTOR('',#695,2.E-1);
#697=CARTESIAN_POINT('',(-1.E-1,1.9E0,-2.3E0));
#698=LINE('',#697,#696);
#699=DIRECTION('',(0.E0,1.E0,0.E0));
#700=VECTOR('',#699,2.E-1);
#701=CARTESIAN_POINT('',(-1.E-1,1.7E0,-2.3E0));
#702=LINE('',#701,#700);
#703=DIRECTION('',(-1.E0,0.E0,0.E0));
#704=VECTOR('',#703,2.E-1);
#705=CARTESIAN_POINT('',(1.E-1,1.7E0,-2.3E0));
#706=LINE('',#705,#704);
#707=DIRECTION('',(1.E0,0.E0,0.E0));
#708=VECTOR('',#707,2.E-1);
#709=CARTESIAN_POINT('',(-1.1E0,1.9E0,-2.3E0));
#710=LINE('',#709,#708);
#711=DIRECTION('',(0.E0,1.E0,0.E0));
#712=VECTOR('',#711,2.E-1);
#713=CARTESIAN_POINT('',(-1.1E0,1.7E0,-2.3E0));
#714=LINE('',#713,#712);
#715=DIRECTION('',(-1.E0,0.E0,0.E0));
#716=VECTOR('',#715,2.E-1);
#717=CARTESIAN_POINT('',(-9.E-1,1.7E0,-2.3E0));
#718=LINE('',#717,#716);
#719=DIRECTION('',(0.E0,-1.E0,0.E0));
#720=VECTOR('',#719,2.E-1);
#721=CARTESIAN_POINT('',(-9.E-1,1.9E0,-2.3E0));
#722=LINE('',#721,#720);
#723=DIRECTION('',(0.E0,0.E0,-1.E0));
#724=VECTOR('',#723,1.5E0);
#725=CARTESIAN_POINT('',(1.E-1,1.9E0,-8.E-1));
#726=LINE('',#725,#724);
#727=DIRECTION('',(0.E0,0.E0,-1.E0));
#728=VECTOR('',#727,1.5E0);
#729=CARTESIAN_POINT('',(-1.E-1,1.9E0,-8.E-1));
#730=LINE('',#729,#728);
#731=DIRECTION('',(0.E0,0.E0,-1.E0));
#732=VECTOR('',#731,1.5E0);
#733=CARTESIAN_POINT('',(-1.E-1,1.7E0,-8.E-1));
#734=LINE('',#733,#732);
#735=DIRECTION('',(0.E0,0.E0,-1.E0));
#736=VECTOR('',#735,1.5E0);
#737=CARTESIAN_POINT('',(1.E-1,1.7E0,-8.E-1));
#738=LINE('',#737,#736);
#739=DIRECTION('',(0.E0,0.E0,-1.E0));
#740=VECTOR('',#739,1.5E0);
#741=CARTESIAN_POINT('',(-1.1E0,1.9E0,-8.E-1));
#742=LINE('',#741,#740);
#743=DIRECTION('',(0.E0,0.E0,-1.E0));
#744=VECTOR('',#743,1.5E0);
#745=CARTESIAN_POINT('',(-1.1E0,1.7E0,-8.E-1));
#746=LINE('',#745,#744);
#747=DIRECTION('',(0.E0,0.E0,-1.E0));
#748=VECTOR('',#747,1.5E0);
#749=CARTESIAN_POINT('',(-9.E-1,1.7E0,-8.E-1));
#750=LINE('',#749,#748);
#751=DIRECTION('',(0.E0,0.E0,-1.E0));
#752=VECTOR('',#751,1.5E0);
#753=CARTESIAN_POINT('',(-9.E-1,1.9E0,-8.E-1));
#754=LINE('',#753,#752);
#755=DIRECTION('',(0.E0,0.E0,1.E0));
#756=VECTOR('',#755,6.5E-1);
#757=CARTESIAN_POINT('',(2.3E0,2.7E0,0.E0));
#758=LINE('',#757,#756);
#759=DIRECTION('',(-1.E0,0.E0,0.E0));
#760=VECTOR('',#759,4.6E0);
#761=CARTESIAN_POINT('',(2.3E0,2.7E0,6.5E-1));
#762=LINE('',#761,#760);
#763=DIRECTION('',(0.E0,0.E0,-1.E0));
#764=VECTOR('',#763,6.5E-1);
#765=CARTESIAN_POINT('',(-2.3E0,2.7E0,6.5E-1));
#766=LINE('',#765,#764);
#767=CARTESIAN_POINT('',(2.3E0,2.7E0,6.5E-1));
#768=CARTESIAN_POINT('',(-2.3E0,2.7E0,6.5E-1));
#769=VERTEX_POINT('',#767);
#770=VERTEX_POINT('',#768);
#771=CARTESIAN_POINT('',(2.3E0,0.E0,6.5E-1));
#772=VERTEX_POINT('',#771);
#773=CARTESIAN_POINT('',(-2.3E0,0.E0,6.5E-1));
#774=VERTEX_POINT('',#773);
#775=CARTESIAN_POINT('',(-2.3E0,2.7E0,0.E0));
#776=CARTESIAN_POINT('',(2.3E0,2.7E0,0.E0));
#777=VERTEX_POINT('',#775);
#778=VERTEX_POINT('',#776);
#779=CARTESIAN_POINT('',(-9.E-1,0.E0,1.65E0));
#780=CARTESIAN_POINT('',(-1.1E0,0.E0,1.65E0));
#781=VERTEX_POINT('',#779);
#782=VERTEX_POINT('',#780);
#783=CARTESIAN_POINT('',(1.E-1,0.E0,1.65E0));
#784=CARTESIAN_POINT('',(-1.E-1,0.E0,1.65E0));
#785=VERTEX_POINT('',#783);
#786=VERTEX_POINT('',#784);
#787=CARTESIAN_POINT('',(1.1E0,0.E0,1.65E0));
#788=CARTESIAN_POINT('',(9.E-1,0.E0,1.65E0));
#789=VERTEX_POINT('',#787);
#790=VERTEX_POINT('',#788);
#791=CARTESIAN_POINT('',(-9.E-1,2.E-1,1.65E0));
#792=CARTESIAN_POINT('',(-1.1E0,2.E-1,1.65E0));
#793=VERTEX_POINT('',#791);
#794=VERTEX_POINT('',#792);
#795=CARTESIAN_POINT('',(1.E-1,2.E-1,1.65E0));
#796=CARTESIAN_POINT('',(-1.E-1,2.E-1,1.65E0));
#797=VERTEX_POINT('',#795);
#798=VERTEX_POINT('',#796);
#799=CARTESIAN_POINT('',(1.1E0,2.E-1,1.65E0));
#800=CARTESIAN_POINT('',(9.E-1,2.E-1,1.65E0));
#801=VERTEX_POINT('',#799);
#802=VERTEX_POINT('',#800);
#803=CARTESIAN_POINT('',(-1.1E0,2.E-1,6.5E-1));
#804=CARTESIAN_POINT('',(-9.E-1,2.E-1,6.5E-1));
#805=VERTEX_POINT('',#803);
#806=VERTEX_POINT('',#804);
#807=CARTESIAN_POINT('',(-1.E-1,2.E-1,6.5E-1));
#808=CARTESIAN_POINT('',(1.E-1,2.E-1,6.5E-1));
#809=VERTEX_POINT('',#807);
#810=VERTEX_POINT('',#808);
#811=CARTESIAN_POINT('',(9.E-1,2.E-1,6.5E-1));
#812=CARTESIAN_POINT('',(1.1E0,2.E-1,6.5E-1));
#813=VERTEX_POINT('',#811);
#814=VERTEX_POINT('',#812);
#815=CARTESIAN_POINT('',(-1.1E0,0.E0,6.5E-1));
#816=VERTEX_POINT('',#815);
#817=CARTESIAN_POINT('',(-9.E-1,0.E0,6.5E-1));
#818=VERTEX_POINT('',#817);
#819=CARTESIAN_POINT('',(-1.E-1,0.E0,6.5E-1));
#820=VERTEX_POINT('',#819);
#821=CARTESIAN_POINT('',(1.E-1,0.E0,6.5E-1));
#822=VERTEX_POINT('',#821);
#823=CARTESIAN_POINT('',(9.E-1,0.E0,6.5E-1));
#824=VERTEX_POINT('',#823);
#825=CARTESIAN_POINT('',(1.1E0,0.E0,6.5E-1));
#826=VERTEX_POINT('',#825);
#827=CARTESIAN_POINT('',(1.7E0,5.E-1,-8.E-1));
#828=CARTESIAN_POINT('',(-1.7E0,5.E-1,-8.E-1));
#829=VERTEX_POINT('',#827);
#830=VERTEX_POINT('',#828);
#831=CARTESIAN_POINT('',(-1.7E0,2.65E0,-8.E-1));
#832=CARTESIAN_POINT('',(1.7E0,2.65E0,-8.E-1));
#833=VERTEX_POINT('',#831);
#834=VERTEX_POINT('',#832);
#835=CARTESIAN_POINT('',(1.7E0,5.E-1,-3.8E0));
#836=CARTESIAN_POINT('',(-1.7E0,5.E-1,-3.8E0));
#837=VERTEX_POINT('',#835);
#838=VERTEX_POINT('',#836);
#839=CARTESIAN_POINT('',(-1.7E0,2.65E0,-3.8E0));
#840=CARTESIAN_POINT('',(1.7E0,2.65E0,-3.8E0));
#841=VERTEX_POINT('',#839);
#842=VERTEX_POINT('',#840);
#843=CARTESIAN_POINT('',(2.2E0,1.975E0,-8.E-1));
#844=CARTESIAN_POINT('',(2.2E0,1.175E0,-8.E-1));
#845=VERTEX_POINT('',#843);
#846=VERTEX_POINT('',#844);
#847=CARTESIAN_POINT('',(-2.2E0,1.175E0,-8.E-1));
#848=CARTESIAN_POINT('',(-2.2E0,1.975E0,-8.E-1));
#849=VERTEX_POINT('',#847);
#850=VERTEX_POINT('',#848);
#851=CARTESIAN_POINT('',(1.7E0,1.975E0,-8.E-1));
#852=VERTEX_POINT('',#851);
#853=CARTESIAN_POINT('',(1.7E0,1.175E0,-8.E-1));
#854=VERTEX_POINT('',#853);
#855=CARTESIAN_POINT('',(-1.7E0,1.175E0,-8.E-1));
#856=VERTEX_POINT('',#855);
#857=CARTESIAN_POINT('',(-1.7E0,1.975E0,-8.E-1));
#858=VERTEX_POINT('',#857);
#859=CARTESIAN_POINT('',(1.1E0,1.9E0,-2.3E0));
#860=CARTESIAN_POINT('',(1.1E0,1.7E0,-2.3E0));
#861=VERTEX_POINT('',#859);
#862=VERTEX_POINT('',#860);
#863=CARTESIAN_POINT('',(9.E-1,1.7E0,-2.3E0));
#864=VERTEX_POINT('',#863);
#865=CARTESIAN_POINT('',(9.E-1,1.9E0,-2.3E0));
#866=VERTEX_POINT('',#865);
#867=CARTESIAN_POINT('',(1.E-1,1.9E0,-2.3E0));
#868=CARTESIAN_POINT('',(1.E-1,1.7E0,-2.3E0));
#869=VERTEX_POINT('',#867);
#870=VERTEX_POINT('',#868);
#871=CARTESIAN_POINT('',(-1.E-1,1.7E0,-2.3E0));
#872=VERTEX_POINT('',#871);
#873=CARTESIAN_POINT('',(-1.E-1,1.9E0,-2.3E0));
#874=VERTEX_POINT('',#873);
#875=CARTESIAN_POINT('',(-1.1E0,1.9E0,-2.3E0));
#876=CARTESIAN_POINT('',(-9.E-1,1.9E0,-2.3E0));
#877=VERTEX_POINT('',#875);
#878=VERTEX_POINT('',#876);
#879=CARTESIAN_POINT('',(-9.E-1,1.7E0,-2.3E0));
#880=VERTEX_POINT('',#879);
#881=CARTESIAN_POINT('',(-1.1E0,1.7E0,-2.3E0));
#882=VERTEX_POINT('',#881);
#883=CARTESIAN_POINT('',(1.1E0,1.9E0,-8.E-1));
#884=CARTESIAN_POINT('',(1.1E0,1.7E0,-8.E-1));
#885=VERTEX_POINT('',#883);
#886=VERTEX_POINT('',#884);
#887=CARTESIAN_POINT('',(9.E-1,1.7E0,-8.E-1));
#888=VERTEX_POINT('',#887);
#889=CARTESIAN_POINT('',(9.E-1,1.9E0,-8.E-1));
#890=VERTEX_POINT('',#889);
#891=CARTESIAN_POINT('',(1.E-1,1.9E0,-8.E-1));
#892=CARTESIAN_POINT('',(1.E-1,1.7E0,-8.E-1));
#893=VERTEX_POINT('',#891);
#894=VERTEX_POINT('',#892);
#895=CARTESIAN_POINT('',(-1.E-1,1.7E0,-8.E-1));
#896=VERTEX_POINT('',#895);
#897=CARTESIAN_POINT('',(-1.E-1,1.9E0,-8.E-1));
#898=VERTEX_POINT('',#897);
#899=CARTESIAN_POINT('',(-1.1E0,1.9E0,-8.E-1));
#900=CARTESIAN_POINT('',(-9.E-1,1.9E0,-8.E-1));
#901=VERTEX_POINT('',#899);
#902=VERTEX_POINT('',#900);
#903=CARTESIAN_POINT('',(-9.E-1,1.7E0,-8.E-1));
#904=VERTEX_POINT('',#903);
#905=CARTESIAN_POINT('',(-1.1E0,1.7E0,-8.E-1));
#906=VERTEX_POINT('',#905);
#907=CARTESIAN_POINT('',(1.7E0,1.175E0,-3.5E0));
#908=CARTESIAN_POINT('',(1.7E0,8.75E-1,-3.8E0));
#909=VERTEX_POINT('',#907);
#910=VERTEX_POINT('',#908);
#911=CARTESIAN_POINT('',(2.5E0,8.75E-1,-3.8E0));
#912=VERTEX_POINT('',#911);
#913=CARTESIAN_POINT('',(2.2E0,1.175E0,-3.5E0));
#914=VERTEX_POINT('',#913);
#915=CARTESIAN_POINT('',(2.2E0,1.975E0,-3.5E0));
#916=VERTEX_POINT('',#915);
#917=CARTESIAN_POINT('',(2.5E0,2.275E0,-3.8E0));
#918=VERTEX_POINT('',#917);
#919=CARTESIAN_POINT('',(1.7E0,2.275E0,-3.8E0));
#920=CARTESIAN_POINT('',(1.7E0,1.975E0,-3.5E0));
#921=VERTEX_POINT('',#919);
#922=VERTEX_POINT('',#920);
#923=CARTESIAN_POINT('',(-1.7E0,1.975E0,-3.5E0));
#924=CARTESIAN_POINT('',(-1.7E0,2.275E0,-3.8E0));
#925=VERTEX_POINT('',#923);
#926=VERTEX_POINT('',#924);
#927=CARTESIAN_POINT('',(-2.5E0,2.275E0,-3.8E0));
#928=VERTEX_POINT('',#927);
#929=CARTESIAN_POINT('',(-2.2E0,1.975E0,-3.5E0));
#930=VERTEX_POINT('',#929);
#931=CARTESIAN_POINT('',(-2.2E0,1.175E0,-3.5E0));
#932=VERTEX_POINT('',#931);
#933=CARTESIAN_POINT('',(-2.5E0,8.75E-1,-3.8E0));
#934=VERTEX_POINT('',#933);
#935=CARTESIAN_POINT('',(-1.7E0,8.75E-1,-3.8E0));
#936=CARTESIAN_POINT('',(-1.7E0,1.175E0,-3.5E0));
#937=VERTEX_POINT('',#935);
#938=VERTEX_POINT('',#936);
#939=CARTESIAN_POINT('',(-2.6E0,3.15E0,-3.7E0));
#940=CARTESIAN_POINT('',(-2.7E0,3.05E0,-3.7E0));
#941=VERTEX_POINT('',#939);
#942=VERTEX_POINT('',#940);
#943=CARTESIAN_POINT('',(-2.7E0,1.000000000790E-1,-3.7E0));
#944=VERTEX_POINT('',#943);
#945=CARTESIAN_POINT('',(-2.6E0,3.05E0,-3.8E0));
#946=CARTESIAN_POINT('',(-2.6E0,1.E-1,-3.8E0));
#947=VERTEX_POINT('',#945);
#948=VERTEX_POINT('',#946);
#949=CARTESIAN_POINT('',(-2.6E0,0.E0,-3.7E0));
#950=VERTEX_POINT('',#949);
#951=CARTESIAN_POINT('',(2.599999999976E0,0.E0,-3.7E0));
#952=VERTEX_POINT('',#951);
#953=CARTESIAN_POINT('',(2.6E0,1.E-1,-3.8E0));
#954=VERTEX_POINT('',#953);
#955=CARTESIAN_POINT('',(2.7E0,1.E-1,-3.7E0));
#956=VERTEX_POINT('',#955);
#957=CARTESIAN_POINT('',(2.7E0,3.049999999921E0,-3.7E0));
#958=VERTEX_POINT('',#957);
#959=CARTESIAN_POINT('',(2.6E0,3.05E0,-3.8E0));
#960=VERTEX_POINT('',#959);
#961=CARTESIAN_POINT('',(2.6E0,3.15E0,-3.7E0));
#962=VERTEX_POINT('',#961);
#963=CARTESIAN_POINT('',(2.6E0,1.E-1,0.E0));
#964=CARTESIAN_POINT('',(2.3E0,1.E-1,0.E0));
#965=VERTEX_POINT('',#963);
#966=VERTEX_POINT('',#964);
#967=CARTESIAN_POINT('',(2.600000006053E0,0.E0,-1.E-1));
#968=CARTESIAN_POINT('',(2.3E0,0.E0,-1.E-1));
#969=VERTEX_POINT('',#967);
#970=VERTEX_POINT('',#968);
#971=CARTESIAN_POINT('',(2.7E0,1.E-1,-1.E-1));
#972=VERTEX_POINT('',#971);
#973=CARTESIAN_POINT('',(2.7E0,3.050000012622E0,-1.E-1));
#974=VERTEX_POINT('',#973);
#975=CARTESIAN_POINT('',(2.6E0,3.05E0,0.E0));
#976=VERTEX_POINT('',#975);
#977=CARTESIAN_POINT('',(2.6E0,3.15E0,-1.E-1));
#978=VERTEX_POINT('',#977);
#979=CARTESIAN_POINT('',(-2.600000006053E0,3.15E0,-1.E-1));
#980=VERTEX_POINT('',#979);
#981=CARTESIAN_POINT('',(-2.6E0,3.05E0,0.E0));
#982=VERTEX_POINT('',#981);
#983=CARTESIAN_POINT('',(-2.7E0,3.05E0,-1.E-1));
#984=VERTEX_POINT('',#983);
#985=CARTESIAN_POINT('',(-2.7E0,9.999998737758E-2,-1.E-1));
#986=VERTEX_POINT('',#985);
#987=CARTESIAN_POINT('',(-2.6E0,1.E-1,0.E0));
#988=VERTEX_POINT('',#987);
#989=CARTESIAN_POINT('',(-2.6E0,0.E0,-1.E-1));
#990=VERTEX_POINT('',#989);
#991=CARTESIAN_POINT('',(-2.3E0,0.E0,-1.E-1));
#992=VERTEX_POINT('',#991);
#993=CARTESIAN_POINT('',(-2.3E0,1.E-1,0.E0));
#994=VERTEX_POINT('',#993);
#995=CARTESIAN_POINT('',(0.E0,0.E0,0.E0));
#996=DIRECTION('',(0.E0,1.E0,0.E0));
#997=DIRECTION('',(1.E0,0.E0,0.E0));
#998=AXIS2_PLACEMENT_3D('',#995,#996,#997);
#999=PLANE('',#998);
#1001=ORIENTED_EDGE('',*,*,#1000,.F.);
#1003=ORIENTED_EDGE('',*,*,#1002,.F.);
#1005=ORIENTED_EDGE('',*,*,#1004,.F.);
#1007=ORIENTED_EDGE('',*,*,#1006,.F.);
#1009=ORIENTED_EDGE('',*,*,#1008,.F.);
#1011=ORIENTED_EDGE('',*,*,#1010,.F.);
#1013=ORIENTED_EDGE('',*,*,#1012,.F.);
#1015=ORIENTED_EDGE('',*,*,#1014,.F.);
#1017=ORIENTED_EDGE('',*,*,#1016,.F.);
#1019=ORIENTED_EDGE('',*,*,#1018,.F.);
#1021=ORIENTED_EDGE('',*,*,#1020,.F.);
#1023=ORIENTED_EDGE('',*,*,#1022,.F.);
#1025=ORIENTED_EDGE('',*,*,#1024,.F.);
#1027=ORIENTED_EDGE('',*,*,#1026,.F.);
#1029=ORIENTED_EDGE('',*,*,#1028,.F.);
#1031=ORIENTED_EDGE('',*,*,#1030,.F.);
#1033=ORIENTED_EDGE('',*,*,#1032,.F.);
#1035=ORIENTED_EDGE('',*,*,#1034,.F.);
#1037=ORIENTED_EDGE('',*,*,#1036,.F.);
#1039=ORIENTED_EDGE('',*,*,#1038,.F.);
#1040=EDGE_LOOP('',(#1001,#1003,#1005,#1007,#1009,#1011,#1013,#1015,#1017,#1019,
#1021,#1023,#1025,#1027,#1029,#1031,#1033,#1035,#1037,#1039));
#1041=FACE_OUTER_BOUND('',#1040,.F.);
#1042=ADVANCED_FACE('',(#1041),#999,.F.);
#1043=CARTESIAN_POINT('',(-2.761184E0,1.E-1,-3.7E0));
#1044=DIRECTION('',(1.E0,0.E0,0.E0));
#1045=DIRECTION('',(0.E0,-1.E0,0.E0));
#1046=AXIS2_PLACEMENT_3D('',#1043,#1044,#1045);
#1047=CYLINDRICAL_SURFACE('',#1046,1.E-1);
#1048=ORIENTED_EDGE('',*,*,#1000,.T.);
#1050=ORIENTED_EDGE('',*,*,#1049,.T.);
#1052=ORIENTED_EDGE('',*,*,#1051,.F.);
#1054=ORIENTED_EDGE('',*,*,#1053,.F.);
#1055=EDGE_LOOP('',(#1048,#1050,#1052,#1054));
#1056=FACE_OUTER_BOUND('',#1055,.F.);
#1057=ADVANCED_FACE('',(#1056),#1047,.T.);
#1058=CARTESIAN_POINT('',(2.6E0,1.E-1,-3.7E0));
#1059=DIRECTION('',(-7.071069600346E-1,-7.071066023384E-1,0.E0));
#1060=DIRECTION('',(7.071066023384E-1,-7.071069600346E-1,0.E0));
#1061=AXIS2_PLACEMENT_3D('',#1058,#1059,#1060);
#1062=SPHERICAL_SURFACE('',#1061,1.E-1);
#1064=ORIENTED_EDGE('',*,*,#1063,.T.);
#1066=ORIENTED_EDGE('',*,*,#1065,.T.);
#1067=ORIENTED_EDGE('',*,*,#1049,.F.);
#1068=EDGE_LOOP('',(#1064,#1066,#1067));
#1069=FACE_OUTER_BOUND('',#1068,.F.);
#1070=ADVANCED_FACE('',(#1069),#1062,.T.);
#1071=CARTESIAN_POINT('',(2.6E0,1.E-1,-1.090462E1));
#1072=DIRECTION('',(0.E0,0.E0,1.E0));
#1073=DIRECTION('',(0.E0,-1.E0,0.E0));
#1074=AXIS2_PLACEMENT_3D('',#1071,#1072,#1073);
#1075=CYLINDRICAL_SURFACE('',#1074,1.E-1);
#1076=ORIENTED_EDGE('',*,*,#1063,.F.);
#1077=ORIENTED_EDGE('',*,*,#1038,.T.);
#1079=ORIENTED_EDGE('',*,*,#1078,.F.);
#1081=ORIENTED_EDGE('',*,*,#1080,.F.);
#1082=EDGE_LOOP('',(#1076,#1077,#1079,#1081));
#1083=FACE_OUTER_BOUND('',#1082,.F.);
#1084=ADVANCED_FACE('',(#1083),#1075,.T.);
#1085=CARTESIAN_POINT('',(2.6E0,1.E-1,-1.E-1));
#1086=DIRECTION('',(7.071066944657E-1,7.071068679074E-1,0.E0));
#1087=DIRECTION('',(7.071068679074E-1,-7.071066944657E-1,0.E0));
#1088=AXIS2_PLACEMENT_3D('',#1085,#1086,#1087);
#1089=SPHERICAL_SURFACE('',#1088,1.E-1);
#1090=ORIENTED_EDGE('',*,*,#1078,.T.);
#1092=ORIENTED_EDGE('',*,*,#1091,.T.);
#1094=ORIENTED_EDGE('',*,*,#1093,.F.);
#1095=EDGE_LOOP('',(#1090,#1092,#1094));
#1096=FACE_OUTER_BOUND('',#1095,.F.);
#1097=ADVANCED_FACE('',(#1096),#1089,.T.);
#1098=CARTESIAN_POINT('',(2.747852E0,1.E-1,-1.E-1));
#1099=DIRECTION('',(-1.E0,0.E0,0.E0));
#1100=DIRECTION('',(0.E0,-1.E0,0.E0));
#1101=AXIS2_PLACEMENT_3D('',#1098,#1099,#1100);
#1102=CYLINDRICAL_SURFACE('',#1101,1.E-1);
#1104=ORIENTED_EDGE('',*,*,#1103,.F.);
#1105=ORIENTED_EDGE('',*,*,#1091,.F.);
#1106=ORIENTED_EDGE('',*,*,#1036,.T.);
#1108=ORIENTED_EDGE('',*,*,#1107,.T.);
#1109=EDGE_LOOP('',(#1104,#1105,#1106,#1108));
#1110=FACE_OUTER_BOUND('',#1109,.F.);
#1111=ADVANCED_FACE('',(#1110),#1102,.T.);
#1112=CARTESIAN_POINT('',(-2.7E0,0.E0,0.E0));
#1113=DIRECTION('',(0.E0,0.E0,1.E0));
#1114=DIRECTION('',(1.E0,0.E0,0.E0));
#1115=AXIS2_PLACEMENT_3D('',#1112,#1113,#1114);
#1116=PLANE('',#1115);
#1117=ORIENTED_EDGE('',*,*,#1103,.T.);
#1119=ORIENTED_EDGE('',*,*,#1118,.T.);
#1121=ORIENTED_EDGE('',*,*,#1120,.F.);
#1123=ORIENTED_EDGE('',*,*,#1122,.F.);
#1125=ORIENTED_EDGE('',*,*,#1124,.T.);
#1127=ORIENTED_EDGE('',*,*,#1126,.T.);
#1129=ORIENTED_EDGE('',*,*,#1128,.T.);
#1131=ORIENTED_EDGE('',*,*,#1130,.T.);
#1132=EDGE_LOOP('',(#1117,#1119,#1121,#1123,#1125,#1127,#1129,#1131));
#1133=FACE_OUTER_BOUND('',#1132,.F.);
#1134=ADVANCED_FACE('',(#1133),#1116,.T.);
#1135=CARTESIAN_POINT('',(2.3E0,0.E0,0.E0));
#1136=DIRECTION('',(1.E0,0.E0,0.E0));
#1137=DIRECTION('',(0.E0,0.E0,1.E0));
#1138=AXIS2_PLACEMENT_3D('',#1135,#1136,#1137);
#1139=PLANE('',#1138);
#1140=ORIENTED_EDGE('',*,*,#1118,.F.);
#1141=ORIENTED_EDGE('',*,*,#1107,.F.);
#1142=ORIENTED_EDGE('',*,*,#1034,.T.);
#1144=ORIENTED_EDGE('',*,*,#1143,.T.);
#1146=ORIENTED_EDGE('',*,*,#1145,.F.);
#1147=EDGE_LOOP('',(#1140,#1141,#1142,#1144,#1146));
#1148=FACE_OUTER_BOUND('',#1147,.F.);
#1149=ADVANCED_FACE('',(#1148),#1139,.T.);
#1150=CARTESIAN_POINT('',(2.3E0,0.E0,6.5E-1));
#1151=DIRECTION('',(0.E0,0.E0,1.E0));
#1152=DIRECTION('',(-1.E0,0.E0,0.E0));
#1153=AXIS2_PLACEMENT_3D('',#1150,#1151,#1152);
#1154=PLANE('',#1153);
#1156=ORIENTED_EDGE('',*,*,#1155,.F.);
#1158=ORIENTED_EDGE('',*,*,#1157,.F.);
#1159=ORIENTED_EDGE('',*,*,#1008,.T.);
#1161=ORIENTED_EDGE('',*,*,#1160,.T.);
#1163=ORIENTED_EDGE('',*,*,#1162,.F.);
#1164=ORIENTED_EDGE('',*,*,#1143,.F.);
#1165=ORIENTED_EDGE('',*,*,#1032,.T.);
#1167=ORIENTED_EDGE('',*,*,#1166,.T.);
#1169=ORIENTED_EDGE('',*,*,#1168,.F.);
#1171=ORIENTED_EDGE('',*,*,#1170,.F.);
#1172=ORIENTED_EDGE('',*,*,#1024,.T.);
#1174=ORIENTED_EDGE('',*,*,#1173,.T.);
#1176=ORIENTED_EDGE('',*,*,#1175,.F.);
#1178=ORIENTED_EDGE('',*,*,#1177,.F.);
#1179=ORIENTED_EDGE('',*,*,#1016,.T.);
#1181=ORIENTED_EDGE('',*,*,#1180,.T.);
#1182=EDGE_LOOP('',(#1156,#1158,#1159,#1161,#1163,#1164,#1165,#1167,#1169,#1171,
#1172,#1174,#1176,#1178,#1179,#1181));
#1183=FACE_OUTER_BOUND('',#1182,.F.);
#1184=ADVANCED_FACE('',(#1183),#1154,.T.);
#1185=CARTESIAN_POINT('',(0.E0,2.E-1,0.E0));
#1186=DIRECTION('',(0.E0,-1.E0,0.E0));
#1187=DIRECTION('',(1.E0,0.E0,0.E0));
#1188=AXIS2_PLACEMENT_3D('',#1185,#1186,#1187);
#1189=PLANE('',#1188);
#1190=ORIENTED_EDGE('',*,*,#1155,.T.);
#1192=ORIENTED_EDGE('',*,*,#1191,.T.);
#1194=ORIENTED_EDGE('',*,*,#1193,.T.);
#1196=ORIENTED_EDGE('',*,*,#1195,.T.);
#1197=EDGE_LOOP('',(#1190,#1192,#1194,#1196));
#1198=FACE_OUTER_BOUND('',#1197,.F.);
#1199=ADVANCED_FACE('',(#1198),#1189,.F.);
#1200=CARTESIAN_POINT('',(0.E0,2.E-1,0.E0));
#1201=DIRECTION('',(0.E0,-1.E0,0.E0));
#1202=DIRECTION('',(1.E0,0.E0,0.E0));
#1203=AXIS2_PLACEMENT_3D('',#1200,#1201,#1202);
#1204=PLANE('',#1203);
#1205=ORIENTED_EDGE('',*,*,#1175,.T.);
#1207=ORIENTED_EDGE('',*,*,#1206,.T.);
#1209=ORIENTED_EDGE('',*,*,#1208,.T.);
#1211=ORIENTED_EDGE('',*,*,#1210,.T.);
#1212=EDGE_LOOP('',(#1205,#1207,#1209,#1211));
#1213=FACE_OUTER_BOUND('',#1212,.F.);
#1214=ADVANCED_FACE('',(#1213),#1204,.F.);
#1215=CARTESIAN_POINT('',(0.E0,2.E-1,0.E0));
#1216=DIRECTION('',(0.E0,-1.E0,0.E0));
#1217=DIRECTION('',(1.E0,0.E0,0.E0));
#1218=AXIS2_PLACEMENT_3D('',#1215,#1216,#1217);
#1219=PLANE('',#1218);
#1220=ORIENTED_EDGE('',*,*,#1168,.T.);
#1222=ORIENTED_EDGE('',*,*,#1221,.T.);
#1224=ORIENTED_EDGE('',*,*,#1223,.T.);
#1226=ORIENTED_EDGE('',*,*,#1225,.T.);
#1227=EDGE_LOOP('',(#1220,#1222,#1224,#1226));
#1228=FACE_OUTER_BOUND('',#1227,.F.);
#1229=ADVANCED_FACE('',(#1228),#1219,.F.);
#1230=CARTESIAN_POINT('',(-9.E-1,0.E0,6.5E-1));
#1231=DIRECTION('',(1.E0,0.E0,0.E0));
#1232=DIRECTION('',(0.E0,0.E0,1.E0));
#1233=AXIS2_PLACEMENT_3D('',#1230,#1231,#1232);
#1234=PLANE('',#1233);
#1235=ORIENTED_EDGE('',*,*,#1180,.F.);
#1236=ORIENTED_EDGE('',*,*,#1014,.T.);
#1238=ORIENTED_EDGE('',*,*,#1237,.T.);
#1239=ORIENTED_EDGE('',*,*,#1191,.F.);
#1240=EDGE_LOOP('',(#1235,#1236,#1238,#1239));
#1241=FACE_OUTER_BOUND('',#1240,.F.);
#1242=ADVANCED_FACE('',(#1241),#1234,.T.);
#1243=CARTESIAN_POINT('',(-9.E-1,0.E0,1.65E0));
#1244=DIRECTION('',(0.E0,0.E0,1.E0));
#1245=DIRECTION('',(-1.E0,0.E0,0.E0));
#1246=AXIS2_PLACEMENT_3D('',#1243,#1244,#1245);
#1247=PLANE('',#1246);
#1248=ORIENTED_EDGE('',*,*,#1012,.T.);
#1250=ORIENTED_EDGE('',*,*,#1249,.T.);
#1251=ORIENTED_EDGE('',*,*,#1193,.F.);
#1252=ORIENTED_EDGE('',*,*,#1237,.F.);
#1253=EDGE_LOOP('',(#1248,#1250,#1251,#1252));
#1254=FACE_OUTER_BOUND('',#1253,.F.);
#1255=ADVANCED_FACE('',(#1254),#1247,.T.);
#1256=CARTESIAN_POINT('',(-1.1E0,0.E0,1.65E0));
#1257=DIRECTION('',(-1.E0,0.E0,0.E0));
#1258=DIRECTION('',(0.E0,0.E0,-1.E0));
#1259=AXIS2_PLACEMENT_3D('',#1256,#1257,#1258);
#1260=PLANE('',#1259);
#1261=ORIENTED_EDGE('',*,*,#1157,.T.);
#1262=ORIENTED_EDGE('',*,*,#1195,.F.);
#1263=ORIENTED_EDGE('',*,*,#1249,.F.);
#1264=ORIENTED_EDGE('',*,*,#1010,.T.);
#1265=EDGE_LOOP('',(#1261,#1262,#1263,#1264));
#1266=FACE_OUTER_BOUND('',#1265,.F.);
#1267=ADVANCED_FACE('',(#1266),#1260,.T.);
#1268=CARTESIAN_POINT('',(1.E-1,0.E0,6.5E-1));
#1269=DIRECTION('',(1.E0,0.E0,0.E0));
#1270=DIRECTION('',(0.E0,0.E0,1.E0));
#1271=AXIS2_PLACEMENT_3D('',#1268,#1269,#1270);
#1272=PLANE('',#1271);
#1273=ORIENTED_EDGE('',*,*,#1173,.F.);
#1274=ORIENTED_EDGE('',*,*,#1022,.T.);
#1276=ORIENTED_EDGE('',*,*,#1275,.T.);
#1277=ORIENTED_EDGE('',*,*,#1206,.F.);
#1278=EDGE_LOOP('',(#1273,#1274,#1276,#1277));
#1279=FACE_OUTER_BOUND('',#1278,.F.);
#1280=ADVANCED_FACE('',(#1279),#1272,.T.);
#1281=CARTESIAN_POINT('',(1.E-1,0.E0,1.65E0));
#1282=DIRECTION('',(0.E0,0.E0,1.E0));
#1283=DIRECTION('',(-1.E0,0.E0,0.E0));
#1284=AXIS2_PLACEMENT_3D('',#1281,#1282,#1283);
#1285=PLANE('',#1284);
#1286=ORIENTED_EDGE('',*,*,#1020,.T.);
#1288=ORIENTED_EDGE('',*,*,#1287,.T.);
#1289=ORIENTED_EDGE('',*,*,#1208,.F.);
#1290=ORIENTED_EDGE('',*,*,#1275,.F.);
#1291=EDGE_LOOP('',(#1286,#1288,#1289,#1290));
#1292=FACE_OUTER_BOUND('',#1291,.F.);
#1293=ADVANCED_FACE('',(#1292),#1285,.T.);
#1294=CARTESIAN_POINT('',(-1.E-1,0.E0,1.65E0));
#1295=DIRECTION('',(-1.E0,0.E0,0.E0));
#1296=DIRECTION('',(0.E0,0.E0,-1.E0));
#1297=AXIS2_PLACEMENT_3D('',#1294,#1295,#1296);
#1298=PLANE('',#1297);
#1299=ORIENTED_EDGE('',*,*,#1177,.T.);
#1300=ORIENTED_EDGE('',*,*,#1210,.F.);
#1301=ORIENTED_EDGE('',*,*,#1287,.F.);
#1302=ORIENTED_EDGE('',*,*,#1018,.T.);
#1303=EDGE_LOOP('',(#1299,#1300,#1301,#1302));
#1304=FACE_OUTER_BOUND('',#1303,.F.);
#1305=ADVANCED_FACE('',(#1304),#1298,.T.);
#1306=CARTESIAN_POINT('',(1.1E0,0.E0,6.5E-1));
#1307=DIRECTION('',(1.E0,0.E0,0.E0));
#1308=DIRECTION('',(0.E0,0.E0,1.E0));
#1309=AXIS2_PLACEMENT_3D('',#1306,#1307,#1308);
#1310=PLANE('',#1309);
#1311=ORIENTED_EDGE('',*,*,#1166,.F.);
#1312=ORIENTED_EDGE('',*,*,#1030,.T.);
#1314=ORIENTED_EDGE('',*,*,#1313,.T.);
#1315=ORIENTED_EDGE('',*,*,#1221,.F.);
#1316=EDGE_LOOP('',(#1311,#1312,#1314,#1315));
#1317=FACE_OUTER_BOUND('',#1316,.F.);
#1318=ADVANCED_FACE('',(#1317),#1310,.T.);
#1319=CARTESIAN_POINT('',(1.1E0,0.E0,1.65E0));
#1320=DIRECTION('',(0.E0,0.E0,1.E0));
#1321=DIRECTION('',(-1.E0,0.E0,0.E0));
#1322=AXIS2_PLACEMENT_3D('',#1319,#1320,#1321);
#1323=PLANE('',#1322);
#1324=ORIENTED_EDGE('',*,*,#1028,.T.);
#1326=ORIENTED_EDGE('',*,*,#1325,.T.);
#1327=ORIENTED_EDGE('',*,*,#1223,.F.);
#1328=ORIENTED_EDGE('',*,*,#1313,.F.);
#1329=EDGE_LOOP('',(#1324,#1326,#1327,#1328));
#1330=FACE_OUTER_BOUND('',#1329,.F.);
#1331=ADVANCED_FACE('',(#1330),#1323,.T.);
#1332=CARTESIAN_POINT('',(9.E-1,0.E0,1.65E0));
#1333=DIRECTION('',(-1.E0,0.E0,0.E0));
#1334=DIRECTION('',(0.E0,0.E0,-1.E0));
#1335=AXIS2_PLACEMENT_3D('',#1332,#1333,#1334);
#1336=PLANE('',#1335);
#1337=ORIENTED_EDGE('',*,*,#1170,.T.);
#1338=ORIENTED_EDGE('',*,*,#1225,.F.);
#1339=ORIENTED_EDGE('',*,*,#1325,.F.);
#1340=ORIENTED_EDGE('',*,*,#1026,.T.);
#1341=EDGE_LOOP('',(#1337,#1338,#1339,#1340));
#1342=FACE_OUTER_BOUND('',#1341,.F.);
#1343=ADVANCED_FACE('',(#1342),#1336,.T.);
#1344=CARTESIAN_POINT('',(-2.3E0,0.E0,6.5E-1));
#1345=DIRECTION('',(-1.E0,0.E0,0.E0));
#1346=DIRECTION('',(0.E0,0.E0,-1.E0));
#1347=AXIS2_PLACEMENT_3D('',#1344,#1345,#1346);
#1348=PLANE('',#1347);
#1349=ORIENTED_EDGE('',*,*,#1006,.T.);
#1351=ORIENTED_EDGE('',*,*,#1350,.F.);
#1352=ORIENTED_EDGE('',*,*,#1122,.T.);
#1354=ORIENTED_EDGE('',*,*,#1353,.F.);
#1355=ORIENTED_EDGE('',*,*,#1160,.F.);
#1356=EDGE_LOOP('',(#1349,#1351,#1352,#1354,#1355));
#1357=FACE_OUTER_BOUND('',#1356,.F.);
#1358=ADVANCED_FACE('',(#1357),#1348,.T.);
#1359=CARTESIAN_POINT('',(9.73944E0,1.E-1,-1.E-1));
#1360=DIRECTION('',(-1.E0,0.E0,0.E0));
#1361=DIRECTION('',(0.E0,-1.E0,0.E0));
#1362=AXIS2_PLACEMENT_3D('',#1359,#1360,#1361);
#1363=CYLINDRICAL_SURFACE('',#1362,1.E-1);
#1364=ORIENTED_EDGE('',*,*,#1004,.T.);
#1366=ORIENTED_EDGE('',*,*,#1365,.T.);
#1367=ORIENTED_EDGE('',*,*,#1124,.F.);
#1368=ORIENTED_EDGE('',*,*,#1350,.T.);
#1369=EDGE_LOOP('',(#1364,#1366,#1367,#1368));
#1370=FACE_OUTER_BOUND('',#1369,.F.);
#1371=ADVANCED_FACE('',(#1370),#1363,.T.);
#1372=CARTESIAN_POINT('',(-2.6E0,1.E-1,-1.E-1));
#1373=DIRECTION('',(7.071069600346E-1,-7.071066023384E-1,0.E0));
#1374=DIRECTION('',(-7.071066023384E-1,-7.071069600346E-1,0.E0));
#1375=AXIS2_PLACEMENT_3D('',#1372,#1373,#1374);
#1376=SPHERICAL_SURFACE('',#1375,1.E-1);
#1378=ORIENTED_EDGE('',*,*,#1377,.T.);
#1380=ORIENTED_EDGE('',*,*,#1379,.T.);
#1381=ORIENTED_EDGE('',*,*,#1365,.F.);
#1382=EDGE_LOOP('',(#1378,#1380,#1381));
#1383=FACE_OUTER_BOUND('',#1382,.F.);
#1384=ADVANCED_FACE('',(#1383),#1376,.T.);
#1385=CARTESIAN_POINT('',(-2.6E0,1.E-1,8.75462E0));
#1386=DIRECTION('',(0.E0,0.E0,-1.E0));
#1387=DIRECTION('',(0.E0,-1.E0,0.E0));
#1388=AXIS2_PLACEMENT_3D('',#1385,#1386,#1387);
#1389=CYLINDRICAL_SURFACE('',#1388,1.E-1);
#1391=ORIENTED_EDGE('',*,*,#1390,.F.);
#1393=ORIENTED_EDGE('',*,*,#1392,.F.);
#1394=ORIENTED_EDGE('',*,*,#1377,.F.);
#1395=ORIENTED_EDGE('',*,*,#1002,.T.);
#1396=EDGE_LOOP('',(#1391,#1393,#1394,#1395));
#1397=FACE_OUTER_BOUND('',#1396,.F.);
#1398=ADVANCED_FACE('',(#1397),#1389,.T.);
#1399=CARTESIAN_POINT('',(-2.6E0,1.E-1,-3.7E0));
#1400=DIRECTION('',(-7.071066944657E-1,7.071068679074E-1,0.E0));
#1401=DIRECTION('',(-7.071068679074E-1,-7.071066944657E-1,-1.256148649424E-14));
#1402=AXIS2_PLACEMENT_3D('',#1399,#1400,#1401);
#1403=SPHERICAL_SURFACE('',#1402,1.E-1);
#1404=ORIENTED_EDGE('',*,*,#1390,.T.);
#1405=ORIENTED_EDGE('',*,*,#1053,.T.);
#1407=ORIENTED_EDGE('',*,*,#1406,.F.);
#1408=EDGE_LOOP('',(#1404,#1405,#1407));
#1409=FACE_OUTER_BOUND('',#1408,.F.);
#1410=ADVANCED_FACE('',(#1409),#1403,.T.);
#1411=CARTESIAN_POINT('',(-2.6E0,3.20648E0,-3.7E0));
#1412=DIRECTION('',(0.E0,-1.E0,0.E0));
#1413=DIRECTION('',(-1.E0,0.E0,0.E0));
#1414=AXIS2_PLACEMENT_3D('',#1411,#1412,#1413);
#1415=CYLINDRICAL_SURFACE('',#1414,1.E-1);
#1417=ORIENTED_EDGE('',*,*,#1416,.T.);
#1418=ORIENTED_EDGE('',*,*,#1406,.T.);
#1420=ORIENTED_EDGE('',*,*,#1419,.F.);
#1422=ORIENTED_EDGE('',*,*,#1421,.F.);
#1423=EDGE_LOOP('',(#1417,#1418,#1420,#1422));
#1424=FACE_OUTER_BOUND('',#1423,.F.);
#1425=ADVANCED_FACE('',(#1424),#1415,.T.);
#1426=CARTESIAN_POINT('',(-2.7E0,0.E0,-3.8E0));
#1427=DIRECTION('',(-1.E0,0.E0,0.E0));
#1428=DIRECTION('',(0.E0,0.E0,1.E0));
#1429=AXIS2_PLACEMENT_3D('',#1426,#1427,#1428);
#1430=PLANE('',#1429);
#1431=ORIENTED_EDGE('',*,*,#1416,.F.);
#1433=ORIENTED_EDGE('',*,*,#1432,.T.);
#1435=ORIENTED_EDGE('',*,*,#1434,.F.);
#1436=ORIENTED_EDGE('',*,*,#1392,.T.);
#1437=EDGE_LOOP('',(#1431,#1433,#1435,#1436));
#1438=FACE_OUTER_BOUND('',#1437,.F.);
#1439=ADVANCED_FACE('',(#1438),#1430,.T.);
#1440=CARTESIAN_POINT('',(-2.6E0,3.05E0,-1.090462E1));
#1441=DIRECTION('',(0.E0,0.E0,1.E0));
#1442=DIRECTION('',(0.E0,1.E0,0.E0));
#1443=AXIS2_PLACEMENT_3D('',#1440,#1441,#1442);
#1444=CYLINDRICAL_SURFACE('',#1443,1.E-1);
#1446=ORIENTED_EDGE('',*,*,#1445,.F.);
#1448=ORIENTED_EDGE('',*,*,#1447,.T.);
#1450=ORIENTED_EDGE('',*,*,#1449,.F.);
#1451=ORIENTED_EDGE('',*,*,#1432,.F.);
#1452=EDGE_LOOP('',(#1446,#1448,#1450,#1451));
#1453=FACE_OUTER_BOUND('',#1452,.F.);
#1454=ADVANCED_FACE('',(#1453),#1444,.T.);
#1455=CARTESIAN_POINT('',(-2.6E0,3.05E0,-3.7E0));
#1456=DIRECTION('',(7.071069600346E-1,7.071066023384E-1,0.E0));
#1457=DIRECTION('',(-7.071066023384E-1,7.071069600346E-1,0.E0));
#1458=AXIS2_PLACEMENT_3D('',#1455,#1456,#1457);
#1459=SPHERICAL_SURFACE('',#1458,1.E-1);
#1460=ORIENTED_EDGE('',*,*,#1445,.T.);
#1461=ORIENTED_EDGE('',*,*,#1421,.T.);
#1463=ORIENTED_EDGE('',*,*,#1462,.F.);
#1464=EDGE_LOOP('',(#1460,#1461,#1463));
#1465=FACE_OUTER_BOUND('',#1464,.F.);
#1466=ADVANCED_FACE('',(#1465),#1459,.T.);
#1467=CARTESIAN_POINT('',(2.747852E0,3.05E0,-3.7E0));
#1468=DIRECTION('',(-1.E0,0.E0,0.E0));
#1469=DIRECTION('',(0.E0,1.E0,0.E0));
#1470=AXIS2_PLACEMENT_3D('',#1467,#1468,#1469);
#1471=CYLINDRICAL_SURFACE('',#1470,1.E-1);
#1473=ORIENTED_EDGE('',*,*,#1472,.T.);
#1474=ORIENTED_EDGE('',*,*,#1462,.T.);
#1476=ORIENTED_EDGE('',*,*,#1475,.F.);
#1478=ORIENTED_EDGE('',*,*,#1477,.F.);
#1479=EDGE_LOOP('',(#1473,#1474,#1476,#1478));
#1480=FACE_OUTER_BOUND('',#1479,.F.);
#1481=ADVANCED_FACE('',(#1480),#1471,.T.);
#1482=CARTESIAN_POINT('',(0.E0,3.15E0,0.E0));
#1483=DIRECTION('',(0.E0,1.E0,0.E0));
#1484=DIRECTION('',(1.E0,0.E0,0.E0));
#1485=AXIS2_PLACEMENT_3D('',#1482,#1483,#1484);
#1486=PLANE('',#1485);
#1487=ORIENTED_EDGE('',*,*,#1472,.F.);
#1489=ORIENTED_EDGE('',*,*,#1488,.F.);
#1491=ORIENTED_EDGE('',*,*,#1490,.F.);
#1492=ORIENTED_EDGE('',*,*,#1447,.F.);
#1493=EDGE_LOOP('',(#1487,#1489,#1491,#1492));
#1494=FACE_OUTER_BOUND('',#1493,.F.);
#1495=ADVANCED_FACE('',(#1494),#1486,.T.);
#1496=CARTESIAN_POINT('',(2.6E0,3.05E0,8.75462E0));
#1497=DIRECTION('',(0.E0,0.E0,-1.E0));
#1498=DIRECTION('',(0.E0,1.E0,0.E0));
#1499=AXIS2_PLACEMENT_3D('',#1496,#1497,#1498);
#1500=CYLINDRICAL_SURFACE('',#1499,1.E-1);
#1502=ORIENTED_EDGE('',*,*,#1501,.F.);
#1504=ORIENTED_EDGE('',*,*,#1503,.F.);
#1506=ORIENTED_EDGE('',*,*,#1505,.F.);
#1507=ORIENTED_EDGE('',*,*,#1488,.T.);
#1508=EDGE_LOOP('',(#1502,#1504,#1506,#1507));
#1509=FACE_OUTER_BOUND('',#1508,.F.);
#1510=ADVANCED_FACE('',(#1509),#1500,.T.);
#1511=CARTESIAN_POINT('',(2.6E0,3.05E0,-3.7E0));
#1512=DIRECTION('',(7.071066944657E-1,-7.071068679074E-1,0.E0));
#1513=DIRECTION('',(7.071068679074E-1,7.071066944657E-1,-1.256148649424E-14));
#1514=AXIS2_PLACEMENT_3D('',#1511,#1512,#1513);
#1515=SPHERICAL_SURFACE('',#1514,1.E-1);
#1516=ORIENTED_EDGE('',*,*,#1501,.T.);
#1517=ORIENTED_EDGE('',*,*,#1477,.T.);
#1519=ORIENTED_EDGE('',*,*,#1518,.F.);
#1520=EDGE_LOOP('',(#1516,#1517,#1519));
#1521=FACE_OUTER_BOUND('',#1520,.F.);
#1522=ADVANCED_FACE('',(#1521),#1515,.T.);
#1523=CARTESIAN_POINT('',(2.6E0,-5.0804E-2,-3.7E0));
#1524=DIRECTION('',(0.E0,1.E0,0.E0));
#1525=DIRECTION('',(1.E0,0.E0,0.E0));
#1526=AXIS2_PLACEMENT_3D('',#1523,#1524,#1525);
#1527=CYLINDRICAL_SURFACE('',#1526,1.E-1);
#1529=ORIENTED_EDGE('',*,*,#1528,.T.);
#1530=ORIENTED_EDGE('',*,*,#1518,.T.);
#1532=ORIENTED_EDGE('',*,*,#1531,.F.);
#1533=ORIENTED_EDGE('',*,*,#1065,.F.);
#1534=EDGE_LOOP('',(#1529,#1530,#1532,#1533));
#1535=FACE_OUTER_BOUND('',#1534,.F.);
#1536=ADVANCED_FACE('',(#1535),#1527,.T.);
#1537=CARTESIAN_POINT('',(2.7E0,0.E0,0.E0));
#1538=DIRECTION('',(1.E0,0.E0,0.E0));
#1539=DIRECTION('',(0.E0,0.E0,-1.E0));
#1540=AXIS2_PLACEMENT_3D('',#1537,#1538,#1539);
#1541=PLANE('',#1540);
#1542=ORIENTED_EDGE('',*,*,#1528,.F.);
#1543=ORIENTED_EDGE('',*,*,#1080,.T.);
#1545=ORIENTED_EDGE('',*,*,#1544,.F.);
#1546=ORIENTED_EDGE('',*,*,#1503,.T.);
#1547=EDGE_LOOP('',(#1542,#1543,#1545,#1546));
#1548=FACE_OUTER_BOUND('',#1547,.F.);
#1549=ADVANCED_FACE('',(#1548),#1541,.T.);
#1550=CARTESIAN_POINT('',(2.6E0,3.20648E0,-1.E-1));
#1551=DIRECTION('',(0.E0,-1.E0,0.E0));
#1552=DIRECTION('',(1.E0,0.E0,0.E0));
#1553=AXIS2_PLACEMENT_3D('',#1550,#1551,#1552);
#1554=CYLINDRICAL_SURFACE('',#1553,1.E-1);
#1555=ORIENTED_EDGE('',*,*,#1544,.T.);
#1556=ORIENTED_EDGE('',*,*,#1093,.T.);
#1557=ORIENTED_EDGE('',*,*,#1130,.F.);
#1559=ORIENTED_EDGE('',*,*,#1558,.F.);
#1560=EDGE_LOOP('',(#1555,#1556,#1557,#1559));
#1561=FACE_OUTER_BOUND('',#1560,.F.);
#1562=ADVANCED_FACE('',(#1561),#1554,.T.);
#1563=CARTESIAN_POINT('',(2.6E0,3.05E0,-1.E-1));
#1564=DIRECTION('',(-7.071069600346E-1,7.071066023384E-1,0.E0));
#1565=DIRECTION('',(7.071066023384E-1,7.071069600346E-1,0.E0));
#1566=AXIS2_PLACEMENT_3D('',#1563,#1564,#1565);
#1567=SPHERICAL_SURFACE('',#1566,1.E-1);
#1568=ORIENTED_EDGE('',*,*,#1505,.T.);
#1569=ORIENTED_EDGE('',*,*,#1558,.T.);
#1571=ORIENTED_EDGE('',*,*,#1570,.F.);
#1572=EDGE_LOOP('',(#1568,#1569,#1571));
#1573=FACE_OUTER_BOUND('',#1572,.F.);
#1574=ADVANCED_FACE('',(#1573),#1567,.T.);
#1575=CARTESIAN_POINT('',(-2.761184E0,3.05E0,-1.E-1));
#1576=DIRECTION('',(1.E0,0.E0,0.E0));
#1577=DIRECTION('',(0.E0,1.E0,0.E0));
#1578=AXIS2_PLACEMENT_3D('',#1575,#1576,#1577);
#1579=CYLINDRICAL_SURFACE('',#1578,1.E-1);
#1580=ORIENTED_EDGE('',*,*,#1490,.T.);
#1581=ORIENTED_EDGE('',*,*,#1570,.T.);
#1582=ORIENTED_EDGE('',*,*,#1128,.F.);
#1584=ORIENTED_EDGE('',*,*,#1583,.F.);
#1585=EDGE_LOOP('',(#1580,#1581,#1582,#1584));
#1586=FACE_OUTER_BOUND('',#1585,.F.);
#1587=ADVANCED_FACE('',(#1586),#1579,.T.);
#1588=CARTESIAN_POINT('',(-2.6E0,3.05E0,-1.E-1));
#1589=DIRECTION('',(-7.071066944657E-1,-7.071068679074E-1,0.E0));
#1590=DIRECTION('',(-7.071068679074E-1,7.071066944657E-1,0.E0));
#1591=AXIS2_PLACEMENT_3D('',#1588,#1589,#1590);
#1592=SPHERICAL_SURFACE('',#1591,1.E-1);
#1593=ORIENTED_EDGE('',*,*,#1449,.T.);
#1594=ORIENTED_EDGE('',*,*,#1583,.T.);
#1596=ORIENTED_EDGE('',*,*,#1595,.F.);
#1597=EDGE_LOOP('',(#1593,#1594,#1596));
#1598=FACE_OUTER_BOUND('',#1597,.F.);
#1599=ADVANCED_FACE('',(#1598),#1592,.T.);
#1600=CARTESIAN_POINT('',(-2.6E0,-5.0804E-2,-1.E-1));
#1601=DIRECTION('',(0.E0,1.E0,0.E0));
#1602=DIRECTION('',(-1.E0,0.E0,0.E0));
#1603=AXIS2_PLACEMENT_3D('',#1600,#1601,#1602);
#1604=CYLINDRICAL_SURFACE('',#1603,1.E-1);
#1605=ORIENTED_EDGE('',*,*,#1434,.T.);
#1606=ORIENTED_EDGE('',*,*,#1595,.T.);
#1607=ORIENTED_EDGE('',*,*,#1126,.F.);
#1608=ORIENTED_EDGE('',*,*,#1379,.F.);
#1609=EDGE_LOOP('',(#1605,#1606,#1607,#1608));
#1610=FACE_OUTER_BOUND('',#1609,.F.);
#1611=ADVANCED_FACE('',(#1610),#1604,.T.);
#1612=CARTESIAN_POINT('',(2.7E0,0.E0,-3.8E0));
#1613=DIRECTION('',(0.E0,0.E0,-1.E0));
#1614=DIRECTION('',(-1.E0,0.E0,0.E0));
#1615=AXIS2_PLACEMENT_3D('',#1612,#1613,#1614);
#1616=PLANE('',#1615);
#1617=ORIENTED_EDGE('',*,*,#1419,.T.);
#1618=ORIENTED_EDGE('',*,*,#1051,.T.);
#1619=ORIENTED_EDGE('',*,*,#1531,.T.);
#1620=ORIENTED_EDGE('',*,*,#1475,.T.);
#1621=EDGE_LOOP('',(#1617,#1618,#1619,#1620));
#1622=FACE_OUTER_BOUND('',#1621,.F.);
#1624=ORIENTED_EDGE('',*,*,#1623,.F.);
#1626=ORIENTED_EDGE('',*,*,#1625,.T.);
#1628=ORIENTED_EDGE('',*,*,#1627,.T.);
#1630=ORIENTED_EDGE('',*,*,#1629,.T.);
#1632=ORIENTED_EDGE('',*,*,#1631,.F.);
#1634=ORIENTED_EDGE('',*,*,#1633,.F.);
#1636=ORIENTED_EDGE('',*,*,#1635,.F.);
#1638=ORIENTED_EDGE('',*,*,#1637,.T.);
#1640=ORIENTED_EDGE('',*,*,#1639,.T.);
#1642=ORIENTED_EDGE('',*,*,#1641,.T.);
#1644=ORIENTED_EDGE('',*,*,#1643,.F.);
#1646=ORIENTED_EDGE('',*,*,#1645,.F.);
#1647=EDGE_LOOP('',(#1624,#1626,#1628,#1630,#1632,#1634,#1636,#1638,#1640,#1642,
#1644,#1646));
#1648=FACE_BOUND('',#1647,.F.);
#1649=ADVANCED_FACE('',(#1622,#1648),#1616,.T.);
#1650=CARTESIAN_POINT('',(1.95E0,1.025E0,-3.65E0));
#1651=DIRECTION('',(0.E0,7.071067811865E-1,-7.071067811865E-1));
#1652=DIRECTION('',(0.E0,7.071067811865E-1,7.071067811865E-1));
#1653=AXIS2_PLACEMENT_3D('',#1650,#1651,#1652);
#1654=PLANE('',#1653);
#1656=ORIENTED_EDGE('',*,*,#1655,.T.);
#1657=ORIENTED_EDGE('',*,*,#1623,.T.);
#1659=ORIENTED_EDGE('',*,*,#1658,.F.);
#1661=ORIENTED_EDGE('',*,*,#1660,.F.);
#1662=EDGE_LOOP('',(#1656,#1657,#1659,#1661));
#1663=FACE_OUTER_BOUND('',#1662,.F.);
#1664=ADVANCED_FACE('',(#1663),#1654,.T.);
#1665=CARTESIAN_POINT('',(1.7E0,2.65E0,-3.8E0));
#1666=DIRECTION('',(1.E0,0.E0,0.E0));
#1667=DIRECTION('',(0.E0,-1.E0,0.E0));
#1668=AXIS2_PLACEMENT_3D('',#1665,#1666,#1667);
#1669=PLANE('',#1668);
#1670=ORIENTED_EDGE('',*,*,#1655,.F.);
#1672=ORIENTED_EDGE('',*,*,#1671,.F.);
#1674=ORIENTED_EDGE('',*,*,#1673,.T.);
#1676=ORIENTED_EDGE('',*,*,#1675,.F.);
#1677=ORIENTED_EDGE('',*,*,#1625,.F.);
#1678=EDGE_LOOP('',(#1670,#1672,#1674,#1676,#1677));
#1679=FACE_OUTER_BOUND('',#1678,.F.);
#1680=ADVANCED_FACE('',(#1679),#1669,.F.);
#1681=CARTESIAN_POINT('',(1.7E0,2.65E0,-3.8E0));
#1682=DIRECTION('',(1.E0,0.E0,0.E0));
#1683=DIRECTION('',(0.E0,-1.E0,0.E0));
#1684=AXIS2_PLACEMENT_3D('',#1681,#1682,#1683);
#1685=PLANE('',#1684);
#1687=ORIENTED_EDGE('',*,*,#1686,.F.);
#1688=ORIENTED_EDGE('',*,*,#1641,.F.);
#1690=ORIENTED_EDGE('',*,*,#1689,.T.);
#1692=ORIENTED_EDGE('',*,*,#1691,.T.);
#1694=ORIENTED_EDGE('',*,*,#1693,.T.);
#1695=EDGE_LOOP('',(#1687,#1688,#1690,#1692,#1694));
#1696=FACE_OUTER_BOUND('',#1695,.F.);
#1697=ADVANCED_FACE('',(#1696),#1685,.F.);
#1698=CARTESIAN_POINT('',(2.2E0,1.175E0,-3.8E0));
#1699=DIRECTION('',(0.E0,-1.E0,0.E0));
#1700=DIRECTION('',(-1.E0,0.E0,0.E0));
#1701=AXIS2_PLACEMENT_3D('',#1698,#1699,#1700);
#1702=PLANE('',#1701);
#1703=ORIENTED_EDGE('',*,*,#1660,.T.);
#1705=ORIENTED_EDGE('',*,*,#1704,.T.);
#1707=ORIENTED_EDGE('',*,*,#1706,.T.);
#1708=ORIENTED_EDGE('',*,*,#1671,.T.);
#1709=EDGE_LOOP('',(#1703,#1705,#1707,#1708));
#1710=FACE_OUTER_BOUND('',#1709,.F.);
#1711=ADVANCED_FACE('',(#1710),#1702,.F.);
#1712=CARTESIAN_POINT('',(2.2E0,1.975E0,-3.8E0));
#1713=DIRECTION('',(1.E0,0.E0,0.E0));
#1714=DIRECTION('',(0.E0,-1.E0,0.E0));
#1715=AXIS2_PLACEMENT_3D('',#1712,#1713,#1714);
#1716=PLANE('',#1715);
#1718=ORIENTED_EDGE('',*,*,#1717,.T.);
#1720=ORIENTED_EDGE('',*,*,#1719,.T.);
#1722=ORIENTED_EDGE('',*,*,#1721,.T.);
#1723=ORIENTED_EDGE('',*,*,#1704,.F.);
#1724=EDGE_LOOP('',(#1718,#1720,#1722,#1723));
#1725=FACE_OUTER_BOUND('',#1724,.F.);
#1726=ADVANCED_FACE('',(#1725),#1716,.F.);
#1727=CARTESIAN_POINT('',(2.35E0,1.575E0,-3.65E0));
#1728=DIRECTION('',(-7.071067811865E-1,0.E0,-7.071067811865E-1));
#1729=DIRECTION('',(-7.071067811865E-1,0.E0,7.071067811865E-1));
#1730=AXIS2_PLACEMENT_3D('',#1727,#1728,#1729);
#1731=PLANE('',#1730);
#1732=ORIENTED_EDGE('',*,*,#1717,.F.);
#1733=ORIENTED_EDGE('',*,*,#1658,.T.);
#1734=ORIENTED_EDGE('',*,*,#1645,.T.);
#1736=ORIENTED_EDGE('',*,*,#1735,.F.);
#1737=EDGE_LOOP('',(#1732,#1733,#1734,#1736));
#1738=FACE_OUTER_BOUND('',#1737,.F.);
#1739=ADVANCED_FACE('',(#1738),#1731,.T.);
#1740=CARTESIAN_POINT('',(1.95E0,2.125E0,-3.65E0));
#1741=DIRECTION('',(0.E0,-7.071067811865E-1,-7.071067811865E-1));
#1742=DIRECTION('',(0.E0,-7.071067811865E-1,7.071067811865E-1));
#1743=AXIS2_PLACEMENT_3D('',#1740,#1741,#1742);
#1744=PLANE('',#1743);
#1745=ORIENTED_EDGE('',*,*,#1686,.T.);
#1747=ORIENTED_EDGE('',*,*,#1746,.F.);
#1748=ORIENTED_EDGE('',*,*,#1735,.T.);
#1749=ORIENTED_EDGE('',*,*,#1643,.T.);
#1750=EDGE_LOOP('',(#1745,#1747,#1748,#1749));
#1751=FACE_OUTER_BOUND('',#1750,.F.);
#1752=ADVANCED_FACE('',(#1751),#1744,.T.);
#1753=CARTESIAN_POINT('',(1.7E0,1.975E0,-3.8E0));
#1754=DIRECTION('',(0.E0,1.E0,0.E0));
#1755=DIRECTION('',(1.E0,0.E0,0.E0));
#1756=AXIS2_PLACEMENT_3D('',#1753,#1754,#1755);
#1757=PLANE('',#1756);
#1758=ORIENTED_EDGE('',*,*,#1746,.T.);
#1759=ORIENTED_EDGE('',*,*,#1693,.F.);
#1761=ORIENTED_EDGE('',*,*,#1760,.T.);
#1762=ORIENTED_EDGE('',*,*,#1719,.F.);
#1763=EDGE_LOOP('',(#1758,#1759,#1761,#1762));
#1764=FACE_OUTER_BOUND('',#1763,.F.);
#1765=ADVANCED_FACE('',(#1764),#1757,.F.);
#1766=CARTESIAN_POINT('',(0.E0,0.E0,-8.E-1));
#1767=DIRECTION('',(0.E0,0.E0,-1.E0));
#1768=DIRECTION('',(-1.E0,0.E0,0.E0));
#1769=AXIS2_PLACEMENT_3D('',#1766,#1767,#1768);
#1770=PLANE('',#1769);
#1772=ORIENTED_EDGE('',*,*,#1771,.F.);
#1774=ORIENTED_EDGE('',*,*,#1773,.F.);
#1776=ORIENTED_EDGE('',*,*,#1775,.F.);
#1778=ORIENTED_EDGE('',*,*,#1777,.F.);
#1780=ORIENTED_EDGE('',*,*,#1779,.F.);
#1782=ORIENTED_EDGE('',*,*,#1781,.F.);
#1783=ORIENTED_EDGE('',*,*,#1673,.F.);
#1784=ORIENTED_EDGE('',*,*,#1706,.F.);
#1785=ORIENTED_EDGE('',*,*,#1721,.F.);
#1786=ORIENTED_EDGE('',*,*,#1760,.F.);
#1787=ORIENTED_EDGE('',*,*,#1691,.F.);
#1789=ORIENTED_EDGE('',*,*,#1788,.F.);
#1790=EDGE_LOOP('',(#1772,#1774,#1776,#1778,#1780,#1782,#1783,#1784,#1785,#1786,
#1787,#1789));
#1791=FACE_OUTER_BOUND('',#1790,.F.);
#1793=ORIENTED_EDGE('',*,*,#1792,.T.);
#1795=ORIENTED_EDGE('',*,*,#1794,.T.);
#1797=ORIENTED_EDGE('',*,*,#1796,.T.);
#1799=ORIENTED_EDGE('',*,*,#1798,.T.);
#1800=EDGE_LOOP('',(#1793,#1795,#1797,#1799));
#1801=FACE_BOUND('',#1800,.F.);
#1803=ORIENTED_EDGE('',*,*,#1802,.T.);
#1805=ORIENTED_EDGE('',*,*,#1804,.T.);
#1807=ORIENTED_EDGE('',*,*,#1806,.T.);
#1809=ORIENTED_EDGE('',*,*,#1808,.T.);
#1810=EDGE_LOOP('',(#1803,#1805,#1807,#1809));
#1811=FACE_BOUND('',#1810,.F.);
#1813=ORIENTED_EDGE('',*,*,#1812,.T.);
#1815=ORIENTED_EDGE('',*,*,#1814,.T.);
#1817=ORIENTED_EDGE('',*,*,#1816,.T.);
#1819=ORIENTED_EDGE('',*,*,#1818,.T.);
#1820=EDGE_LOOP('',(#1813,#1815,#1817,#1819));
#1821=FACE_BOUND('',#1820,.F.);
#1822=ADVANCED_FACE('',(#1791,#1801,#1811,#1821),#1770,.T.);
#1823=CARTESIAN_POINT('',(-1.7E0,5.E-1,-3.8E0));
#1824=DIRECTION('',(-1.E0,0.E0,0.E0));
#1825=DIRECTION('',(0.E0,1.E0,0.E0));
#1826=AXIS2_PLACEMENT_3D('',#1823,#1824,#1825);
#1827=PLANE('',#1826);
#1829=ORIENTED_EDGE('',*,*,#1828,.F.);
#1831=ORIENTED_EDGE('',*,*,#1830,.F.);
#1832=ORIENTED_EDGE('',*,*,#1771,.T.);
#1834=ORIENTED_EDGE('',*,*,#1833,.F.);
#1835=ORIENTED_EDGE('',*,*,#1637,.F.);
#1836=EDGE_LOOP('',(#1829,#1831,#1832,#1834,#1835));
#1837=FACE_OUTER_BOUND('',#1836,.F.);
#1838=ADVANCED_FACE('',(#1837),#1827,.F.);
#1839=CARTESIAN_POINT('',(-1.7E0,5.E-1,-3.8E0));
#1840=DIRECTION('',(-1.E0,0.E0,0.E0));
#1841=DIRECTION('',(0.E0,1.E0,0.E0));
#1842=AXIS2_PLACEMENT_3D('',#1839,#1840,#1841);
#1843=PLANE('',#1842);
#1845=ORIENTED_EDGE('',*,*,#1844,.F.);
#1846=ORIENTED_EDGE('',*,*,#1629,.F.);
#1848=ORIENTED_EDGE('',*,*,#1847,.T.);
#1849=ORIENTED_EDGE('',*,*,#1779,.T.);
#1851=ORIENTED_EDGE('',*,*,#1850,.T.);
#1852=EDGE_LOOP('',(#1845,#1846,#1848,#1849,#1851));
#1853=FACE_OUTER_BOUND('',#1852,.F.);
#1854=ADVANCED_FACE('',(#1853),#1843,.F.);
#1855=CARTESIAN_POINT('',(-1.95E0,2.125E0,-3.65E0));
#1856=DIRECTION('',(0.E0,-7.071067811865E-1,-7.071067811865E-1));
#1857=DIRECTION('',(0.E0,-7.071067811865E-1,7.071067811865E-1));
#1858=AXIS2_PLACEMENT_3D('',#1855,#1856,#1857);
#1859=PLANE('',#1858);
#1860=ORIENTED_EDGE('',*,*,#1828,.T.);
#1861=ORIENTED_EDGE('',*,*,#1635,.T.);
#1863=ORIENTED_EDGE('',*,*,#1862,.F.);
#1865=ORIENTED_EDGE('',*,*,#1864,.F.);
#1866=EDGE_LOOP('',(#1860,#1861,#1863,#1865));
#1867=FACE_OUTER_BOUND('',#1866,.F.);
#1868=ADVANCED_FACE('',(#1867),#1859,.T.);
#1869=CARTESIAN_POINT('',(-2.35E0,1.575E0,-3.65E0));
#1870=DIRECTION('',(7.071067811865E-1,0.E0,-7.071067811865E-1));
#1871=DIRECTION('',(7.071067811865E-1,0.E0,7.071067811865E-1));
#1872=AXIS2_PLACEMENT_3D('',#1869,#1870,#1871);
#1873=PLANE('',#1872);
#1875=ORIENTED_EDGE('',*,*,#1874,.F.);
#1876=ORIENTED_EDGE('',*,*,#1862,.T.);
#1877=ORIENTED_EDGE('',*,*,#1633,.T.);
#1879=ORIENTED_EDGE('',*,*,#1878,.F.);
#1880=EDGE_LOOP('',(#1875,#1876,#1877,#1879));
#1881=FACE_OUTER_BOUND('',#1880,.F.);
#1882=ADVANCED_FACE('',(#1881),#1873,.T.);
#1883=CARTESIAN_POINT('',(-2.2E0,1.175E0,-3.8E0));
#1884=DIRECTION('',(-1.E0,0.E0,0.E0));
#1885=DIRECTION('',(0.E0,1.E0,0.E0));
#1886=AXIS2_PLACEMENT_3D('',#1883,#1884,#1885);
#1887=PLANE('',#1886);
#1888=ORIENTED_EDGE('',*,*,#1874,.T.);
#1890=ORIENTED_EDGE('',*,*,#1889,.T.);
#1891=ORIENTED_EDGE('',*,*,#1775,.T.);
#1893=ORIENTED_EDGE('',*,*,#1892,.F.);
#1894=EDGE_LOOP('',(#1888,#1890,#1891,#1893));
#1895=FACE_OUTER_BOUND('',#1894,.F.);
#1896=ADVANCED_FACE('',(#1895),#1887,.F.);
#1897=CARTESIAN_POINT('',(-1.7E0,1.175E0,-3.8E0));
#1898=DIRECTION('',(0.E0,-1.E0,0.E0));
#1899=DIRECTION('',(-1.E0,0.E0,0.E0));
#1900=AXIS2_PLACEMENT_3D('',#1897,#1898,#1899);
#1901=PLANE('',#1900);
#1903=ORIENTED_EDGE('',*,*,#1902,.T.);
#1904=ORIENTED_EDGE('',*,*,#1850,.F.);
#1905=ORIENTED_EDGE('',*,*,#1777,.T.);
#1906=ORIENTED_EDGE('',*,*,#1889,.F.);
#1907=EDGE_LOOP('',(#1903,#1904,#1905,#1906));
#1908=FACE_OUTER_BOUND('',#1907,.F.);
#1909=ADVANCED_FACE('',(#1908),#1901,.F.);
#1910=CARTESIAN_POINT('',(-1.95E0,1.025E0,-3.65E0));
#1911=DIRECTION('',(0.E0,7.071067811865E-1,-7.071067811865E-1));
#1912=DIRECTION('',(0.E0,7.071067811865E-1,7.071067811865E-1));
#1913=AXIS2_PLACEMENT_3D('',#1910,#1911,#1912);
#1914=PLANE('',#1913);
#1915=ORIENTED_EDGE('',*,*,#1844,.T.);
#1916=ORIENTED_EDGE('',*,*,#1902,.F.);
#1917=ORIENTED_EDGE('',*,*,#1878,.T.);
#1918=ORIENTED_EDGE('',*,*,#1631,.T.);
#1919=EDGE_LOOP('',(#1915,#1916,#1917,#1918));
#1920=FACE_OUTER_BOUND('',#1919,.F.);
#1921=ADVANCED_FACE('',(#1920),#1914,.T.);
#1922=CARTESIAN_POINT('',(-2.2E0,1.975E0,-3.8E0));
#1923=DIRECTION('',(0.E0,1.E0,0.E0));
#1924=DIRECTION('',(1.E0,0.E0,0.E0));
#1925=AXIS2_PLACEMENT_3D('',#1922,#1923,#1924);
#1926=PLANE('',#1925);
#1927=ORIENTED_EDGE('',*,*,#1864,.T.);
#1928=ORIENTED_EDGE('',*,*,#1892,.T.);
#1929=ORIENTED_EDGE('',*,*,#1773,.T.);
#1930=ORIENTED_EDGE('',*,*,#1830,.T.);
#1931=EDGE_LOOP('',(#1927,#1928,#1929,#1930));
#1932=FACE_OUTER_BOUND('',#1931,.F.);
#1933=ADVANCED_FACE('',(#1932),#1926,.F.);
#1934=CARTESIAN_POINT('',(-1.7E0,2.65E0,-3.8E0));
#1935=DIRECTION('',(0.E0,1.E0,0.E0));
#1936=DIRECTION('',(1.E0,0.E0,0.E0));
#1937=AXIS2_PLACEMENT_3D('',#1934,#1935,#1936);
#1938=PLANE('',#1937);
#1939=ORIENTED_EDGE('',*,*,#1639,.F.);
#1940=ORIENTED_EDGE('',*,*,#1833,.T.);
#1941=ORIENTED_EDGE('',*,*,#1788,.T.);
#1942=ORIENTED_EDGE('',*,*,#1689,.F.);
#1943=EDGE_LOOP('',(#1939,#1940,#1941,#1942));
#1944=FACE_OUTER_BOUND('',#1943,.F.);
#1945=ADVANCED_FACE('',(#1944),#1938,.F.);
#1946=CARTESIAN_POINT('',(1.7E0,5.E-1,-3.8E0));
#1947=DIRECTION('',(0.E0,-1.E0,0.E0));
#1948=DIRECTION('',(-1.E0,0.E0,0.E0));
#1949=AXIS2_PLACEMENT_3D('',#1946,#1947,#1948);
#1950=PLANE('',#1949);
#1951=ORIENTED_EDGE('',*,*,#1627,.F.);
#1952=ORIENTED_EDGE('',*,*,#1675,.T.);
#1953=ORIENTED_EDGE('',*,*,#1781,.T.);
#1954=ORIENTED_EDGE('',*,*,#1847,.F.);
#1955=EDGE_LOOP('',(#1951,#1952,#1953,#1954));
#1956=FACE_OUTER_BOUND('',#1955,.F.);
#1957=ADVANCED_FACE('',(#1956),#1950,.F.);
#1958=CARTESIAN_POINT('',(1.1E0,1.9E0,-8.E-1));
#1959=DIRECTION('',(1.E0,0.E0,0.E0));
#1960=DIRECTION('',(0.E0,-1.E0,0.E0));
#1961=AXIS2_PLACEMENT_3D('',#1958,#1959,#1960);
#1962=PLANE('',#1961);
#1963=ORIENTED_EDGE('',*,*,#1792,.F.);
#1965=ORIENTED_EDGE('',*,*,#1964,.T.);
#1967=ORIENTED_EDGE('',*,*,#1966,.T.);
#1969=ORIENTED_EDGE('',*,*,#1968,.F.);
#1970=EDGE_LOOP('',(#1963,#1965,#1967,#1969));
#1971=FACE_OUTER_BOUND('',#1970,.F.);
#1972=ADVANCED_FACE('',(#1971),#1962,.T.);
#1973=CARTESIAN_POINT('',(9.E-1,1.9E0,-8.E-1));
#1974=DIRECTION('',(0.E0,1.E0,0.E0));
#1975=DIRECTION('',(1.E0,0.E0,0.E0));
#1976=AXIS2_PLACEMENT_3D('',#1973,#1974,#1975);
#1977=PLANE('',#1976);
#1978=ORIENTED_EDGE('',*,*,#1798,.F.);
#1980=ORIENTED_EDGE('',*,*,#1979,.T.);
#1982=ORIENTED_EDGE('',*,*,#1981,.T.);
#1983=ORIENTED_EDGE('',*,*,#1964,.F.);
#1984=EDGE_LOOP('',(#1978,#1980,#1982,#1983));
#1985=FACE_OUTER_BOUND('',#1984,.F.);
#1986=ADVANCED_FACE('',(#1985),#1977,.T.);
#1987=CARTESIAN_POINT('',(9.E-1,1.7E0,-8.E-1));
#1988=DIRECTION('',(-1.E0,0.E0,0.E0));
#1989=DIRECTION('',(0.E0,1.E0,0.E0));
#1990=AXIS2_PLACEMENT_3D('',#1987,#1988,#1989);
#1991=PLANE('',#1990);
#1992=ORIENTED_EDGE('',*,*,#1796,.F.);
#1994=ORIENTED_EDGE('',*,*,#1993,.T.);
#1996=ORIENTED_EDGE('',*,*,#1995,.T.);
#1997=ORIENTED_EDGE('',*,*,#1979,.F.);
#1998=EDGE_LOOP('',(#1992,#1994,#1996,#1997));
#1999=FACE_OUTER_BOUND('',#1998,.F.);
#2000=ADVANCED_FACE('',(#1999),#1991,.T.);
#2001=CARTESIAN_POINT('',(1.1E0,1.7E0,-8.E-1));
#2002=DIRECTION('',(0.E0,-1.E0,0.E0));
#2003=DIRECTION('',(-1.E0,0.E0,0.E0));
#2004=AXIS2_PLACEMENT_3D('',#2001,#2002,#2003);
#2005=PLANE('',#2004);
#2006=ORIENTED_EDGE('',*,*,#1794,.F.);
#2007=ORIENTED_EDGE('',*,*,#1968,.T.);
#2009=ORIENTED_EDGE('',*,*,#2008,.T.);
#2010=ORIENTED_EDGE('',*,*,#1993,.F.);
#2011=EDGE_LOOP('',(#2006,#2007,#2009,#2010));
#2012=FACE_OUTER_BOUND('',#2011,.F.);
#2013=ADVANCED_FACE('',(#2012),#2005,.T.);
#2014=CARTESIAN_POINT('',(0.E0,0.E0,-2.3E0));
#2015=DIRECTION('',(0.E0,0.E0,-1.E0));
#2016=DIRECTION('',(-1.E0,0.E0,0.E0));
#2017=AXIS2_PLACEMENT_3D('',#2014,#2015,#2016);
#2018=PLANE('',#2017);
#2019=ORIENTED_EDGE('',*,*,#1966,.F.);
#2020=ORIENTED_EDGE('',*,*,#1981,.F.);
#2021=ORIENTED_EDGE('',*,*,#1995,.F.);
#2022=ORIENTED_EDGE('',*,*,#2008,.F.);
#2023=EDGE_LOOP('',(#2019,#2020,#2021,#2022));
#2024=FACE_OUTER_BOUND('',#2023,.F.);
#2025=ADVANCED_FACE('',(#2024),#2018,.T.);
#2026=CARTESIAN_POINT('',(0.E0,0.E0,-2.3E0));
#2027=DIRECTION('',(0.E0,0.E0,-1.E0));
#2028=DIRECTION('',(-1.E0,0.E0,0.E0));
#2029=AXIS2_PLACEMENT_3D('',#2026,#2027,#2028);
#2030=PLANE('',#2029);
#2032=ORIENTED_EDGE('',*,*,#2031,.F.);
#2034=ORIENTED_EDGE('',*,*,#2033,.F.);
#2036=ORIENTED_EDGE('',*,*,#2035,.F.);
#2038=ORIENTED_EDGE('',*,*,#2037,.F.);
#2039=EDGE_LOOP('',(#2032,#2034,#2036,#2038));
#2040=FACE_OUTER_BOUND('',#2039,.F.);
#2041=ADVANCED_FACE('',(#2040),#2030,.T.);
#2042=CARTESIAN_POINT('',(0.E0,0.E0,-2.3E0));
#2043=DIRECTION('',(0.E0,0.E0,-1.E0));
#2044=DIRECTION('',(-1.E0,0.E0,0.E0));
#2045=AXIS2_PLACEMENT_3D('',#2042,#2043,#2044);
#2046=PLANE('',#2045);
#2048=ORIENTED_EDGE('',*,*,#2047,.F.);
#2050=ORIENTED_EDGE('',*,*,#2049,.F.);
#2052=ORIENTED_EDGE('',*,*,#2051,.F.);
#2054=ORIENTED_EDGE('',*,*,#2053,.F.);
#2055=EDGE_LOOP('',(#2048,#2050,#2052,#2054));
#2056=FACE_OUTER_BOUND('',#2055,.F.);
#2057=ADVANCED_FACE('',(#2056),#2046,.T.);
#2058=CARTESIAN_POINT('',(1.E-1,1.9E0,-8.E-1));
#2059=DIRECTION('',(1.E0,0.E0,0.E0));
#2060=DIRECTION('',(0.E0,-1.E0,0.E0));
#2061=AXIS2_PLACEMENT_3D('',#2058,#2059,#2060);
#2062=PLANE('',#2061);
#2063=ORIENTED_EDGE('',*,*,#1802,.F.);
#2065=ORIENTED_EDGE('',*,*,#2064,.T.);
#2066=ORIENTED_EDGE('',*,*,#2031,.T.);
#2068=ORIENTED_EDGE('',*,*,#2067,.F.);
#2069=EDGE_LOOP('',(#2063,#2065,#2066,#2068));
#2070=FACE_OUTER_BOUND('',#2069,.F.);
#2071=ADVANCED_FACE('',(#2070),#2062,.T.);
#2072=CARTESIAN_POINT('',(-1.E-1,1.9E0,-8.E-1));
#2073=DIRECTION('',(0.E0,1.E0,0.E0));
#2074=DIRECTION('',(1.E0,0.E0,0.E0));
#2075=AXIS2_PLACEMENT_3D('',#2072,#2073,#2074);
#2076=PLANE('',#2075);
#2077=ORIENTED_EDGE('',*,*,#1808,.F.);
#2079=ORIENTED_EDGE('',*,*,#2078,.T.);
#2080=ORIENTED_EDGE('',*,*,#2033,.T.);
#2081=ORIENTED_EDGE('',*,*,#2064,.F.);
#2082=EDGE_LOOP('',(#2077,#2079,#2080,#2081));
#2083=FACE_OUTER_BOUND('',#2082,.F.);
#2084=ADVANCED_FACE('',(#2083),#2076,.T.);
#2085=CARTESIAN_POINT('',(-1.E-1,1.7E0,-8.E-1));
#2086=DIRECTION('',(-1.E0,0.E0,0.E0));
#2087=DIRECTION('',(0.E0,1.E0,0.E0));
#2088=AXIS2_PLACEMENT_3D('',#2085,#2086,#2087);
#2089=PLANE('',#2088);
#2090=ORIENTED_EDGE('',*,*,#1806,.F.);
#2092=ORIENTED_EDGE('',*,*,#2091,.T.);
#2093=ORIENTED_EDGE('',*,*,#2035,.T.);
#2094=ORIENTED_EDGE('',*,*,#2078,.F.);
#2095=EDGE_LOOP('',(#2090,#2092,#2093,#2094));
#2096=FACE_OUTER_BOUND('',#2095,.F.);
#2097=ADVANCED_FACE('',(#2096),#2089,.T.);
#2098=CARTESIAN_POINT('',(1.E-1,1.7E0,-8.E-1));
#2099=DIRECTION('',(0.E0,-1.E0,0.E0));
#2100=DIRECTION('',(-1.E0,0.E0,0.E0));
#2101=AXIS2_PLACEMENT_3D('',#2098,#2099,#2100);
#2102=PLANE('',#2101);
#2103=ORIENTED_EDGE('',*,*,#1804,.F.);
#2104=ORIENTED_EDGE('',*,*,#2067,.T.);
#2105=ORIENTED_EDGE('',*,*,#2037,.T.);
#2106=ORIENTED_EDGE('',*,*,#2091,.F.);
#2107=EDGE_LOOP('',(#2103,#2104,#2105,#2106));
#2108=FACE_OUTER_BOUND('',#2107,.F.);
#2109=ADVANCED_FACE('',(#2108),#2102,.T.);
#2110=CARTESIAN_POINT('',(-1.1E0,1.9E0,-8.E-1));
#2111=DIRECTION('',(0.E0,1.E0,0.E0));
#2112=DIRECTION('',(1.E0,0.E0,0.E0));
#2113=AXIS2_PLACEMENT_3D('',#2110,#2111,#2112);
#2114=PLANE('',#2113);
#2115=ORIENTED_EDGE('',*,*,#1812,.F.);
#2117=ORIENTED_EDGE('',*,*,#2116,.T.);
#2118=ORIENTED_EDGE('',*,*,#2047,.T.);
#2120=ORIENTED_EDGE('',*,*,#2119,.F.);
#2121=EDGE_LOOP('',(#2115,#2117,#2118,#2120));
#2122=FACE_OUTER_BOUND('',#2121,.F.);
#2123=ADVANCED_FACE('',(#2122),#2114,.T.);
#2124=CARTESIAN_POINT('',(-1.1E0,1.7E0,-8.E-1));
#2125=DIRECTION('',(-1.E0,0.E0,0.E0));
#2126=DIRECTION('',(0.E0,1.E0,0.E0));
#2127=AXIS2_PLACEMENT_3D('',#2124,#2125,#2126);
#2128=PLANE('',#2127);
#2129=ORIENTED_EDGE('',*,*,#1818,.F.);
#2131=ORIENTED_EDGE('',*,*,#2130,.T.);
#2132=ORIENTED_EDGE('',*,*,#2049,.T.);
#2133=ORIENTED_EDGE('',*,*,#2116,.F.);
#2134=EDGE_LOOP('',(#2129,#2131,#2132,#2133));
#2135=FACE_OUTER_BOUND('',#2134,.F.);
#2136=ADVANCED_FACE('',(#2135),#2128,.T.);
#2137=CARTESIAN_POINT('',(-9.E-1,1.7E0,-8.E-1));
#2138=DIRECTION('',(0.E0,-1.E0,0.E0));
#2139=DIRECTION('',(-1.E0,0.E0,0.E0));
#2140=AXIS2_PLACEMENT_3D('',#2137,#2138,#2139);
#2141=PLANE('',#2140);
#2142=ORIENTED_EDGE('',*,*,#1816,.F.);
#2144=ORIENTED_EDGE('',*,*,#2143,.T.);
#2145=ORIENTED_EDGE('',*,*,#2051,.T.);
#2146=ORIENTED_EDGE('',*,*,#2130,.F.);
#2147=EDGE_LOOP('',(#2142,#2144,#2145,#2146));
#2148=FACE_OUTER_BOUND('',#2147,.F.);
#2149=ADVANCED_FACE('',(#2148),#2141,.T.);
#2150=CARTESIAN_POINT('',(-9.E-1,1.9E0,-8.E-1));
#2151=DIRECTION('',(1.E0,0.E0,0.E0));
#2152=DIRECTION('',(0.E0,-1.E0,0.E0));
#2153=AXIS2_PLACEMENT_3D('',#2150,#2151,#2152);
#2154=PLANE('',#2153);
#2155=ORIENTED_EDGE('',*,*,#1814,.F.);
#2156=ORIENTED_EDGE('',*,*,#2119,.T.);
#2157=ORIENTED_EDGE('',*,*,#2053,.T.);
#2158=ORIENTED_EDGE('',*,*,#2143,.F.);
#2159=EDGE_LOOP('',(#2155,#2156,#2157,#2158));
#2160=FACE_OUTER_BOUND('',#2159,.F.);
#2161=ADVANCED_FACE('',(#2160),#2154,.T.);
#2162=CARTESIAN_POINT('',(0.E0,2.7E0,0.E0));
#2163=DIRECTION('',(0.E0,-1.E0,0.E0));
#2164=DIRECTION('',(1.E0,0.E0,0.E0));
#2165=AXIS2_PLACEMENT_3D('',#2162,#2163,#2164);
#2166=PLANE('',#2165);
#2167=ORIENTED_EDGE('',*,*,#1120,.T.);
#2168=ORIENTED_EDGE('',*,*,#1145,.T.);
#2169=ORIENTED_EDGE('',*,*,#1162,.T.);
#2170=ORIENTED_EDGE('',*,*,#1353,.T.);
#2171=EDGE_LOOP('',(#2167,#2168,#2169,#2170));
#2172=FACE_OUTER_BOUND('',#2171,.F.);
#2173=ADVANCED_FACE('',(#2172),#2166,.F.);
#2177=DIMENSIONAL_EXPONENTS(0.E0,0.E0,0.E0,0.E0,0.E0,0.E0,0.E0);
#2179=PLANE_ANGLE_MEASURE_WITH_UNIT(PLANE_ANGLE_MEASURE(1.745329251994E-2),
#2178);
#2180=(CONVERSION_BASED_UNIT('DEGREE',#2179)NAMED_UNIT(*)PLANE_ANGLE_UNIT());
#2182=UNCERTAINTY_MEASURE_WITH_UNIT(LENGTH_MEASURE(1.E-2),#2176,'closure',
'Maximum model space distance between geometric entities at asserted connectivities');
#2183=(GEOMETRIC_REPRESENTATION_CONTEXT(3)GLOBAL_UNCERTAINTY_ASSIGNED_CONTEXT((
#2182))GLOBAL_UNIT_ASSIGNED_CONTEXT((#2176,#2180,#2181))REPRESENTATION_CONTEXT(
'ID1','3'));
#2185=APPLICATION_CONTEXT(
'CONFIGURATION CONTROLLED 3D DESIGNS OF MECHANICAL PARTS AND ASSEMBLIES');
#2186=APPLICATION_PROTOCOL_DEFINITION('international standard',
'config_control_design',1994,#2185);
#2187=DESIGN_CONTEXT('',#2185,'design');
#2188=MECHANICAL_CONTEXT('',#2185,'mechanical');
#2189=PRODUCT('PRT0001','PRT0001','NOT SPECIFIED',(#2188));
#2190=PRODUCT_DEFINITION_FORMATION_WITH_SPECIFIED_SOURCE('1','LAST_VERSION',
#2189,.MADE.);
#2194=PRODUCT_CATEGORY('part','');
#2195=PRODUCT_RELATED_PRODUCT_CATEGORY('detail','',(#2189));
#2196=PRODUCT_CATEGORY_RELATIONSHIP('','',#2194,#2195);
#2197=SECURITY_CLASSIFICATION_LEVEL('unclassified');
#2198=SECURITY_CLASSIFICATION('','',#2197);
#2199=CC_DESIGN_SECURITY_CLASSIFICATION(#2198,(#2190));
#2200=APPROVAL_STATUS('approved');
#2201=APPROVAL(#2200,'');
#2202=CC_DESIGN_APPROVAL(#2201,(#2198,#2190,#2191));
#2203=CALENDAR_DATE(122,14,4);
#2204=COORDINATED_UNIVERSAL_TIME_OFFSET(8,0,.AHEAD.);
#2205=LOCAL_TIME(12,28,3.4E1,#2204);
#2206=DATE_AND_TIME(#2203,#2205);
#2207=APPROVAL_DATE_TIME(#2206,#2201);
#2208=DATE_TIME_ROLE('creation_date');
#2209=CC_DESIGN_DATE_AND_TIME_ASSIGNMENT(#2206,#2208,(#2191));
#2210=DATE_TIME_ROLE('classification_date');
#2211=CC_DESIGN_DATE_AND_TIME_ASSIGNMENT(#2206,#2210,(#2198));
#2212=PERSON('UNSPECIFIED','UNSPECIFIED',$,$,$,$);
#2213=ORGANIZATION('UNSPECIFIED','UNSPECIFIED','UNSPECIFIED');
#2214=PERSON_AND_ORGANIZATION(#2212,#2213);
#2215=APPROVAL_ROLE('approver');
#2216=APPROVAL_PERSON_ORGANIZATION(#2214,#2201,#2215);
#2217=PERSON_AND_ORGANIZATION_ROLE('creator');
#2218=CC_DESIGN_PERSON_AND_ORGANIZATION_ASSIGNMENT(#2214,#2217,(#2190,#2191));
#2219=PERSON_AND_ORGANIZATION_ROLE('design_supplier');
#2220=CC_DESIGN_PERSON_AND_ORGANIZATION_ASSIGNMENT(#2214,#2219,(#2190));
#2221=PERSON_AND_ORGANIZATION_ROLE('classification_officer');
#2222=CC_DESIGN_PERSON_AND_ORGANIZATION_ASSIGNMENT(#2214,#2221,(#2198));
#2223=PERSON_AND_ORGANIZATION_ROLE('design_owner');
#2224=CC_DESIGN_PERSON_AND_ORGANIZATION_ASSIGNMENT(#2214,#2223,(#2189));
#77=CIRCLE('',#76,1.E-1);
#82=CIRCLE('',#81,1.E-1);
#87=CIRCLE('',#86,1.E-1);
#92=CIRCLE('',#91,1.E-1);
#97=CIRCLE('',#96,1.E-1);
#102=CIRCLE('',#101,1.E-1);
#107=CIRCLE('',#106,1.E-1);
#256=CIRCLE('',#255,1.E-1);
#261=CIRCLE('',#260,1.E-1);
#266=CIRCLE('',#265,1.E-1);
#271=CIRCLE('',#270,1.E-1);
#276=CIRCLE('',#275,1.E-1);
#281=CIRCLE('',#280,1.E-1);
#302=CIRCLE('',#301,1.E-1);
#307=CIRCLE('',#306,1.E-1);
#312=CIRCLE('',#311,1.E-1);
#317=CIRCLE('',#316,1.E-1);
#338=CIRCLE('',#337,1.E-1);
#343=CIRCLE('',#342,1.E-1);
#348=CIRCLE('',#347,1.E-1);
#353=CIRCLE('',#352,1.E-1);
#374=CIRCLE('',#373,1.E-1);
#379=CIRCLE('',#378,1.E-1);
#384=CIRCLE('',#383,1.E-1);
#389=CIRCLE('',#388,1.E-1);
#394=CIRCLE('',#393,1.E-1);
#1000=EDGE_CURVE('',#950,#952,#4,.T.);
#1002=EDGE_CURVE('',#990,#950,#8,.T.);
#1004=EDGE_CURVE('',#992,#990,#12,.T.);
#1006=EDGE_CURVE('',#774,#992,#247,.T.);
#1008=EDGE_CURVE('',#816,#774,#16,.T.);
#1010=EDGE_CURVE('',#782,#816,#20,.T.);
#1012=EDGE_CURVE('',#781,#782,#24,.T.);
#1014=EDGE_CURVE('',#818,#781,#28,.T.);
#1016=EDGE_CURVE('',#820,#818,#32,.T.);
#1018=EDGE_CURVE('',#786,#820,#36,.T.);
#1020=EDGE_CURVE('',#785,#786,#40,.T.);
#1022=EDGE_CURVE('',#822,#785,#44,.T.);
#1024=EDGE_CURVE('',#824,#822,#48,.T.);
#1026=EDGE_CURVE('',#790,#824,#52,.T.);
#1028=EDGE_CURVE('',#789,#790,#56,.T.);
#1030=EDGE_CURVE('',#826,#789,#60,.T.);
#1032=EDGE_CURVE('',#772,#826,#64,.T.);
#1034=EDGE_CURVE('',#970,#772,#143,.T.);
#1036=EDGE_CURVE('',#969,#970,#68,.T.);
#1038=EDGE_CURVE('',#952,#969,#72,.T.);
#1049=EDGE_CURVE('',#952,#954,#82,.T.);
#1051=EDGE_CURVE('',#948,#954,#450,.T.);
#1053=EDGE_CURVE('',#950,#948,#77,.T.);
#1063=EDGE_CURVE('',#952,#956,#87,.T.);
#1065=EDGE_CURVE('',#956,#954,#353,.T.);
#1078=EDGE_CURVE('',#972,#969,#92,.T.);
#1080=EDGE_CURVE('',#956,#972,#361,.T.);
#1091=EDGE_CURVE('',#969,#965,#102,.T.);
#1093=EDGE_CURVE('',#972,#965,#97,.T.);
#1103=EDGE_CURVE('',#965,#966,#111,.T.);
#1107=EDGE_CURVE('',#970,#966,#107,.T.);
#1118=EDGE_CURVE('',#966,#778,#115,.T.);
#1120=EDGE_CURVE('',#777,#778,#119,.T.);
#1122=EDGE_CURVE('',#994,#777,#123,.T.);
#1124=EDGE_CURVE('',#994,#988,#127,.T.);
#1126=EDGE_CURVE('',#988,#982,#131,.T.);
#1128=EDGE_CURVE('',#982,#976,#135,.T.);
#1130=EDGE_CURVE('',#976,#965,#139,.T.);
#1143=EDGE_CURVE('',#772,#769,#155,.T.);
#1145=EDGE_CURVE('',#778,#769,#758,.T.);
#1155=EDGE_CURVE('',#805,#806,#147,.T.);
#1157=EDGE_CURVE('',#816,#805,#151,.T.);
#1160=EDGE_CURVE('',#774,#770,#251,.T.);
#1162=EDGE_CURVE('',#769,#770,#762,.T.);
#1166=EDGE_CURVE('',#826,#814,#159,.T.);
#1168=EDGE_CURVE('',#813,#814,#163,.T.);
#1170=EDGE_CURVE('',#824,#813,#167,.T.);
#1173=EDGE_CURVE('',#822,#810,#171,.T.);
#1175=EDGE_CURVE('',#809,#810,#175,.T.);
#1177=EDGE_CURVE('',#820,#809,#179,.T.);
#1180=EDGE_CURVE('',#818,#806,#183,.T.);
#1191=EDGE_CURVE('',#806,#793,#187,.T.);
#1193=EDGE_CURVE('',#793,#794,#191,.T.);
#1195=EDGE_CURVE('',#794,#805,#195,.T.);
#1206=EDGE_CURVE('',#810,#797,#199,.T.);
#1208=EDGE_CURVE('',#797,#798,#203,.T.);
#1210=EDGE_CURVE('',#798,#809,#207,.T.);
#1221=EDGE_CURVE('',#814,#801,#211,.T.);
#1223=EDGE_CURVE('',#801,#802,#215,.T.);
#1225=EDGE_CURVE('',#802,#813,#219,.T.);
#1237=EDGE_CURVE('',#781,#793,#223,.T.);
#1249=EDGE_CURVE('',#782,#794,#227,.T.);
#1275=EDGE_CURVE('',#785,#797,#231,.T.);
#1287=EDGE_CURVE('',#786,#798,#235,.T.);
#1313=EDGE_CURVE('',#789,#801,#239,.T.);
#1325=EDGE_CURVE('',#790,#802,#243,.T.);
#1350=EDGE_CURVE('',#994,#992,#256,.T.);
#1353=EDGE_CURVE('',#770,#777,#766,.T.);
#1365=EDGE_CURVE('',#990,#988,#261,.T.);
#1377=EDGE_CURVE('',#990,#986,#271,.T.);
#1379=EDGE_CURVE('',#986,#988,#394,.T.);
#1390=EDGE_CURVE('',#944,#950,#266,.T.);
#1392=EDGE_CURVE('',#986,#944,#297,.T.);
#1406=EDGE_CURVE('',#944,#948,#276,.T.);
#1416=EDGE_CURVE('',#942,#944,#285,.T.);
#1419=EDGE_CURVE('',#947,#948,#446,.T.);
#1421=EDGE_CURVE('',#942,#947,#281,.T.);
#1432=EDGE_CURVE('',#942,#984,#289,.T.);
#1434=EDGE_CURVE('',#986,#984,#293,.T.);
#1445=EDGE_CURVE('',#941,#942,#302,.T.);
#1447=EDGE_CURVE('',#941,#980,#333,.T.);
#1449=EDGE_CURVE('',#984,#980,#307,.T.);
#1462=EDGE_CURVE('',#941,#947,#312,.T.);
#1472=EDGE_CURVE('',#962,#941,#321,.T.);
#1475=EDGE_CURVE('',#960,#947,#458,.T.);
#1477=EDGE_CURVE('',#962,#960,#317,.T.);
#1488=EDGE_CURVE('',#978,#962,#325,.T.);
#1490=EDGE_CURVE('',#980,#978,#329,.T.);
#1501=EDGE_CURVE('',#958,#962,#338,.T.);
#1503=EDGE_CURVE('',#974,#958,#369,.T.);
#1505=EDGE_CURVE('',#978,#974,#343,.T.);
#1518=EDGE_CURVE('',#958,#960,#348,.T.);
#1528=EDGE_CURVE('',#956,#958,#357,.T.);
#1531=EDGE_CURVE('',#954,#960,#454,.T.);
#1544=EDGE_CURVE('',#974,#972,#365,.T.);
#1558=EDGE_CURVE('',#974,#976,#374,.T.);
#1570=EDGE_CURVE('',#978,#976,#379,.T.);
#1583=EDGE_CURVE('',#980,#982,#384,.T.);
#1595=EDGE_CURVE('',#984,#982,#389,.T.);
#1623=EDGE_CURVE('',#910,#912,#398,.T.);
#1625=EDGE_CURVE('',#910,#837,#402,.T.);
#1627=EDGE_CURVE('',#837,#838,#406,.T.);
#1629=EDGE_CURVE('',#838,#937,#410,.T.);
#1631=EDGE_CURVE('',#934,#937,#414,.T.);
#1633=EDGE_CURVE('',#928,#934,#418,.T.);
#1635=EDGE_CURVE('',#926,#928,#422,.T.);
#1637=EDGE_CURVE('',#926,#841,#426,.T.);
#1639=EDGE_CURVE('',#841,#842,#430,.T.);
#1641=EDGE_CURVE('',#842,#921,#434,.T.);
#1643=EDGE_CURVE('',#918,#921,#438,.T.);
#1645=EDGE_CURVE('',#912,#918,#442,.T.);
#1655=EDGE_CURVE('',#909,#910,#466,.T.);
#1658=EDGE_CURVE('',#914,#912,#462,.T.);
#1660=EDGE_CURVE('',#909,#914,#486,.T.);
#1671=EDGE_CURVE('',#854,#909,#470,.T.);
#1673=EDGE_CURVE('',#854,#829,#534,.T.);
#1675=EDGE_CURVE('',#837,#829,#658,.T.);
#1686=EDGE_CURVE('',#921,#922,#474,.T.);
#1689=EDGE_CURVE('',#842,#834,#478,.T.);
#1691=EDGE_CURVE('',#834,#852,#550,.T.);
#1693=EDGE_CURVE('',#852,#922,#482,.T.);
#1704=EDGE_CURVE('',#914,#846,#490,.T.);
#1706=EDGE_CURVE('',#846,#854,#538,.T.);
#1717=EDGE_CURVE('',#914,#916,#494,.T.);
#1719=EDGE_CURVE('',#916,#845,#498,.T.);
#1721=EDGE_CURVE('',#845,#846,#542,.T.);
#1735=EDGE_CURVE('',#916,#918,#502,.T.);
#1746=EDGE_CURVE('',#916,#922,#506,.T.);
#1760=EDGE_CURVE('',#852,#845,#546,.T.);
#1771=EDGE_CURVE('',#858,#833,#510,.T.);
#1773=EDGE_CURVE('',#850,#858,#514,.T.);
#1775=EDGE_CURVE('',#849,#850,#518,.T.);
#1777=EDGE_CURVE('',#856,#849,#522,.T.);
#1779=EDGE_CURVE('',#830,#856,#526,.T.);
#1781=EDGE_CURVE('',#829,#830,#530,.T.);
#1788=EDGE_CURVE('',#833,#834,#554,.T.);
#1792=EDGE_CURVE('',#885,#886,#558,.T.);
#1794=EDGE_CURVE('',#886,#888,#562,.T.);
#1796=EDGE_CURVE('',#888,#890,#566,.T.);
#1798=EDGE_CURVE('',#890,#885,#570,.T.);
#1802=EDGE_CURVE('',#893,#894,#574,.T.);
#1804=EDGE_CURVE('',#894,#896,#578,.T.);
#1806=EDGE_CURVE('',#896,#898,#582,.T.);
#1808=EDGE_CURVE('',#898,#893,#586,.T.);
#1812=EDGE_CURVE('',#901,#902,#590,.T.);
#1814=EDGE_CURVE('',#902,#904,#594,.T.);
#1816=EDGE_CURVE('',#904,#906,#598,.T.);
#1818=EDGE_CURVE('',#906,#901,#602,.T.);
#1828=EDGE_CURVE('',#925,#926,#606,.T.);
#1830=EDGE_CURVE('',#858,#925,#610,.T.);
#1833=EDGE_CURVE('',#841,#833,#654,.T.);
#1844=EDGE_CURVE('',#937,#938,#614,.T.);
#1847=EDGE_CURVE('',#838,#830,#618,.T.);
#1850=EDGE_CURVE('',#856,#938,#622,.T.);
#1862=EDGE_CURVE('',#930,#928,#626,.T.);
#1864=EDGE_CURVE('',#925,#930,#646,.T.);
#1874=EDGE_CURVE('',#930,#932,#634,.T.);
#1878=EDGE_CURVE('',#932,#934,#630,.T.);
#1889=EDGE_CURVE('',#932,#849,#638,.T.);
#1892=EDGE_CURVE('',#930,#850,#650,.T.);
#1902=EDGE_CURVE('',#932,#938,#642,.T.);
#1964=EDGE_CURVE('',#885,#861,#662,.T.);
#1966=EDGE_CURVE('',#861,#862,#678,.T.);
#1968=EDGE_CURVE('',#886,#862,#674,.T.);
#1979=EDGE_CURVE('',#890,#866,#666,.T.);
#1981=EDGE_CURVE('',#866,#861,#682,.T.);
#1993=EDGE_CURVE('',#888,#864,#670,.T.);
#1995=EDGE_CURVE('',#864,#866,#686,.T.);
#2008=EDGE_CURVE('',#862,#864,#690,.T.);
#2031=EDGE_CURVE('',#869,#870,#694,.T.);
#2033=EDGE_CURVE('',#874,#869,#698,.T.);
#2035=EDGE_CURVE('',#872,#874,#702,.T.);
#2037=EDGE_CURVE('',#870,#872,#706,.T.);
#2047=EDGE_CURVE('',#877,#878,#710,.T.);
#2049=EDGE_CURVE('',#882,#877,#714,.T.);
#2051=EDGE_CURVE('',#880,#882,#718,.T.);
#2053=EDGE_CURVE('',#878,#880,#722,.T.);
#2064=EDGE_CURVE('',#893,#869,#726,.T.);
#2067=EDGE_CURVE('',#894,#870,#738,.T.);
#2078=EDGE_CURVE('',#898,#874,#730,.T.);
#2091=EDGE_CURVE('',#896,#872,#734,.T.);
#2116=EDGE_CURVE('',#901,#877,#742,.T.);
#2119=EDGE_CURVE('',#902,#878,#754,.T.);
#2130=EDGE_CURVE('',#906,#882,#746,.T.);
#2143=EDGE_CURVE('',#904,#880,#750,.T.);
#2174=CLOSED_SHELL('',(#1042,#1057,#1070,#1084,#1097,#1111,#1134,#1149,#1184,
#1199,#1214,#1229,#1242,#1255,#1267,#1280,#1293,#1305,#1318,#1331,#1343,#1358,
#1371,#1384,#1398,#1410,#1425,#1439,#1454,#1466,#1481,#1495,#1510,#1522,#1536,
#1549,#1562,#1574,#1587,#1599,#1611,#1649,#1664,#1680,#1697,#1711,#1726,#1739,
#1752,#1765,#1822,#1838,#1854,#1868,#1882,#1896,#1909,#1921,#1933,#1945,#1957,
#1972,#1986,#2000,#2013,#2025,#2041,#2057,#2071,#2084,#2097,#2109,#2123,#2136,
#2149,#2161,#2173));
#2175=MANIFOLD_SOLID_BREP('',#2174);
#2176=(LENGTH_UNIT()NAMED_UNIT(*)SI_UNIT(.MILLI.,.METRE.));
#2178=(NAMED_UNIT(*)PLANE_ANGLE_UNIT()SI_UNIT($,.RADIAN.));
#2181=(NAMED_UNIT(*)SI_UNIT($,.STERADIAN.)SOLID_ANGLE_UNIT());
#2184=ADVANCED_BREP_SHAPE_REPRESENTATION('',(#2175),#2183);
#2191=PRODUCT_DEFINITION('design','',#2190,#2187);
#2192=PRODUCT_DEFINITION_SHAPE('','SHAPE FOR PRT0001.',#2191);
#2193=SHAPE_DEFINITION_REPRESENTATION(#2192,#2184);
ENDSEC;
END-ISO-10303-21;
