ISO-10303-21;
HEADER;
FILE_DESCRIPTION (( 'STEP AP203' ),
    '1' );
FILE_NAME ('YS312热释电-20240410.STEP',
    '2024-05-28T08:55:26',
    ( '' ),
    ( '' ),
    'SwSTEP 2.0',
    'SolidWorks 2018',
    '' );
FILE_SCHEMA (( 'CONFIG_CONTROL_DESIGN' ));
ENDSEC;

DATA;
#1 = ORIENTED_EDGE ( 'NONE', *, *, #920, .T. ) ;
#2 = AXIS2_PLACEMENT_3D ( 'NONE', #832, #273, #38 ) ;
#3 = DIRECTION ( 'NONE',  ( 0.000000000000000000, 0.000000000000000000, 1.000000000000000000 ) ) ;
#4 = DIRECTION ( 'NONE',  ( 1.224646799147352468E-16, 0.000000000000000000, -1.000000000000000000 ) ) ;
#5 = EDGE_LOOP ( 'NONE', ( #402, #548, #161, #729 ) ) ;
#6 = DIRECTION ( 'NONE',  ( 0.000000000000000000, 0.000000000000000000, -1.000000000000000000 ) ) ;
#7 = ORIENTED_EDGE ( 'NONE', *, *, #136, .F. ) ;
#8 = CIRCLE ( 'NONE', #647, 0.1000000000000000472 ) ;
#9 = CC_DESIGN_SECURITY_CLASSIFICATION ( #198, ( #637 ) ) ;
#10 = FACE_OUTER_BOUND ( 'NONE', #455, .T. ) ;
#11 = LINE ( 'NONE', #83, #97 ) ;
#12 = CARTESIAN_POINT ( 'NONE',  ( -1.796051224213834008, -0.000000000000000000, -1.796051224213828013 ) ) ;
#13 = CARTESIAN_POINT ( 'NONE',  ( 1.796051224213827568, -13.50000000000000000, -1.796051224213834230 ) ) ;
#14 = CARTESIAN_POINT ( 'NONE',  ( -2.000000000000000000, 4.199999999999999289, 1.500000000000000222 ) ) ;
#15 = EDGE_CURVE ( 'NONE', #157, #494, #563, .T. ) ;
#16 = CARTESIAN_POINT ( 'NONE',  ( -2.000000000000000000, 4.199999999999999289, 1.500000000000000222 ) ) ;
#17 = CARTESIAN_POINT ( 'NONE',  ( 4.611127844681818466, 0.000000000000000000, 0.5000000000000000000 ) ) ;
#18 = COORDINATED_UNIVERSAL_TIME_OFFSET ( 8, 0, .AHEAD. ) ;
#19 = PERSON ( '未指定', '未指定', '未指定', ('未指定'), ('未指定'), ('未指定') ) ;
#20 = CIRCLE ( 'NONE', #379, 0.2250000000000005884 ) ;
#21 = APPROVAL_DATE_TIME ( #224, #922 ) ;
#22 = DIRECTION ( 'NONE',  ( 0.000000000000000000, -1.000000000000000000, 0.000000000000000000 ) ) ;
#23 = CIRCLE ( 'NONE', #851, 4.549999999999998934 ) ;
#24 = EDGE_CURVE ( 'NONE', #259, #309, #127, .T. ) ;
#25 = VECTOR ( 'NONE', #236, 1000.000000000000000 ) ;
#26 = DIRECTION ( 'NONE',  ( -0.000000000000000000, 1.000000000000000000, -0.000000000000000000 ) ) ;
#27 = AXIS2_PLACEMENT_3D ( 'NONE', #394, #484, #698 ) ;
#28 = ORIENTED_EDGE ( 'NONE', *, *, #491, .T. ) ;
#29 = ORIENTED_EDGE ( 'NONE', *, *, #877, .T. ) ;
#30 = DIRECTION ( 'NONE',  ( 0.000000000000000000, 0.000000000000000000, -1.000000000000000000 ) ) ;
#31 = PERSON_AND_ORGANIZATION ( #19, #56 ) ;
#32 = ORIENTED_EDGE ( 'NONE', *, *, #333, .F. ) ;
#33 = VECTOR ( 'NONE', #757, 1000.000000000000000 ) ;
#34 = DIRECTION ( 'NONE',  ( -0.000000000000000000, 1.000000000000000000, -0.000000000000000000 ) ) ;
#35 = DIRECTION ( 'NONE',  ( -0.000000000000000000, 1.000000000000000000, -0.000000000000000000 ) ) ;
#36 = CARTESIAN_POINT ( 'NONE',  ( -1.796051224213827791, -13.50000000000000000, 1.796051224213834230 ) ) ;
#37 = CARTESIAN_POINT ( 'NONE',  ( 0.000000000000000000, 4.299999999999998934, 3.599999999999998757 ) ) ;
#38 = DIRECTION ( 'NONE',  ( 0.000000000000000000, 0.000000000000000000, -1.000000000000000000 ) ) ;
#39 = APPROVAL ( #798, '未指定' ) ;
#40 = ORIENTED_EDGE ( 'NONE', *, *, #899, .F. ) ;
#41 = ORIENTED_EDGE ( 'NONE', *, *, #301, .T. ) ;
#42 = EDGE_CURVE ( 'NONE', #592, #352, #327, .T. ) ;
#43 = AXIS2_PLACEMENT_3D ( 'NONE', #177, #332, #535 ) ;
#44 = CARTESIAN_POINT ( 'NONE',  ( -2.000000000000000000, 4.299999999999998934, -1.499999999999999556 ) ) ;
#45 = DIRECTION ( 'NONE',  ( 0.000000000000000000, -1.000000000000000000, 0.000000000000000000 ) ) ;
#46 = CIRCLE ( 'NONE', #458, 0.09999999999999999167 ) ;
#47 = ADVANCED_FACE ( 'NONE', ( #660 ), #222, .T. ) ;
#48 = ORIENTED_EDGE ( 'NONE', *, *, #645, .F. ) ;
#49 = DIRECTION ( 'NONE',  ( 0.000000000000000000, 0.000000000000000000, 1.000000000000000000 ) ) ;
#50 = ORIENTED_EDGE ( 'NONE', *, *, #805, .F. ) ;
#51 = APPROVAL_STATUS ( 'not_yet_approved' ) ;
#52 = DIRECTION ( 'NONE',  ( 0.000000000000000000, 0.000000000000000000, 1.000000000000000000 ) ) ;
#53 = DIRECTION ( 'NONE',  ( 0.000000000000000000, 0.000000000000000000, 1.000000000000000000 ) ) ;
#54 = EDGE_CURVE ( 'NONE', #907, #179, #487, .T. ) ;
#55 = CARTESIAN_POINT ( 'NONE',  ( 0.000000000000000000, 4.299999999999998934, 0.000000000000000000 ) ) ;
#56 = ORGANIZATION ( '未指定', '未指定', '' ) ;
#57 = CIRCLE ( 'NONE', #267, 0.2250000000000005884 ) ;
#58 = CARTESIAN_POINT ( 'NONE',  ( 4.522444029504399943, 0.000000000000000000, -0.5000000000000000000 ) ) ;
#59 = ORIENTED_EDGE ( 'NONE', *, *, #107, .F. ) ;
#60 = CIRCLE ( 'NONE', #357, 3.599999999999998757 ) ;
#61 = EDGE_LOOP ( 'NONE', ( #686, #467 ) ) ;
#62 = DIRECTION ( 'NONE',  ( -0.000000000000000000, 1.000000000000000000, -0.000000000000000000 ) ) ;
#63 = ORIENTED_EDGE ( 'NONE', *, *, #859, .F. ) ;
#64 = CARTESIAN_POINT ( 'NONE',  ( 1.796051224213827568, 0.000000000000000000, -1.796051224213834230 ) ) ;
#65 = ADVANCED_FACE ( 'NONE', ( #468 ), #387, .T. ) ;
#66 = DIRECTION ( 'NONE',  ( -1.000000000000000000, 0.000000000000000000, 0.000000000000000000 ) ) ;
#67 = EDGE_LOOP ( 'NONE', ( #699, #940, #708, #247 ) ) ;
#68 = FACE_OUTER_BOUND ( 'NONE', #937, .T. ) ;
#69 = CARTESIAN_POINT ( 'NONE',  ( 0.000000000000000000, -8.673617379884035472E-16, 4.549999999999998934 ) ) ;
#70 = FACE_OUTER_BOUND ( 'NONE', #740, .T. ) ;
#71 = FACE_OUTER_BOUND ( 'NONE', #321, .T. ) ;
#72 = FACE_BOUND ( 'NONE', #659, .T. ) ;
#73 = CARTESIAN_POINT ( 'NONE',  ( 0.000000000000000000, -8.673617379884035472E-16, 0.000000000000000000 ) ) ;
#74 = ORIENTED_EDGE ( 'NONE', *, *, #440, .T. ) ;
#75 = ORIENTED_EDGE ( 'NONE', *, *, #301, .F. ) ;
#76 = AXIS2_PLACEMENT_3D ( 'NONE', #474, #103, #540 ) ;
#77 = DIRECTION ( 'NONE',  ( 0.000000000000000000, -1.000000000000000000, 0.000000000000000000 ) ) ;
#78 = CARTESIAN_POINT ( 'NONE',  ( 4.408728476930470165E-16, 3.799999999999998934, -3.599999999999998757 ) ) ;
#79 = EDGE_CURVE ( 'NONE', #412, #442, #874, .T. ) ;
#80 = VERTEX_POINT ( 'NONE', #591 ) ;
#81 = PERSON_AND_ORGANIZATION ( #19, #56 ) ;
#82 = DIRECTION ( 'NONE',  ( 0.000000000000000000, -1.000000000000000000, 0.000000000000000000 ) ) ;
#83 = CARTESIAN_POINT ( 'NONE',  ( 4.511963805011242279, 4.299999999999998934, 0.5870967741935485540 ) ) ;
#84 = CARTESIAN_POINT ( 'NONE',  ( 5.572142936120456341E-16, 0.5999999999999994227, -4.549999999999998934 ) ) ;
#85 = VERTEX_POINT ( 'NONE', #884 ) ;
#86 = CC_DESIGN_PERSON_AND_ORGANIZATION_ASSIGNMENT ( #800, #496, ( #637 ) ) ;
#87 = DIRECTION ( 'NONE',  ( 0.000000000000000000, 0.000000000000000000, -1.000000000000000000 ) ) ;
#88 = CLOSED_SHELL ( 'NONE', ( #339, #710, #196, #493, #938, #786, #420, #360, #65, #199, #723, #559, #846, #271, #281, #278, #627, #934, #47, #113, #792, #700, #921, #631, #850, #131, #122, #856, #782, #929, #344 ) ) ;
#89 = CARTESIAN_POINT ( 'NONE',  ( -2.000000000000000000, 4.199999999999999289, -1.499999999999999556 ) ) ;
#90 = CIRCLE ( 'NONE', #674, 0.2250000000000005884 ) ;
#91 = CIRCLE ( 'NONE', #697, 4.099999999999998757 ) ;
#92 = EDGE_CURVE ( 'NONE', #725, #148, #763, .T. ) ;
#93 = ORIENTED_EDGE ( 'NONE', *, *, #613, .F. ) ;
#94 = AXIS2_PLACEMENT_3D ( 'NONE', #478, #693, #501 ) ;
#95 = VECTOR ( 'NONE', #465, 1000.000000000000000 ) ;
#96 = CARTESIAN_POINT ( 'NONE',  ( 4.522444029504399943, 1.866725419044455991, -0.5000000000000000000 ) ) ;
#97 = VECTOR ( 'NONE', #672, 1000.000000000000000 ) ;
#98 = ORIENTED_EDGE ( 'NONE', *, *, #485, .T. ) ;
#99 = EDGE_LOOP ( 'NONE', ( #492, #171 ) ) ;
#100 = ORIENTED_EDGE ( 'NONE', *, *, #768, .T. ) ;
#101 = CARTESIAN_POINT ( 'NONE',  ( 5.299999999999999822, 1.866725419044455991, 0.4000000000000000222 ) ) ;
#102 = DIRECTION ( 'NONE',  ( -1.626303258728256651E-16, 0.000000000000000000, -1.000000000000000000 ) ) ;
#103 = DIRECTION ( 'NONE',  ( -0.000000000000000000, 1.000000000000000000, -0.000000000000000000 ) ) ;
#104 = AXIS2_PLACEMENT_3D ( 'NONE', #640, #642, #952 ) ;
#105 = VECTOR ( 'NONE', #582, 1000.000000000000000 ) ;
#106 = PLANE ( 'NONE',  #109 ) ;
#107 = EDGE_CURVE ( 'NONE', #907, #878, #251, .T. ) ;
#108 = DIRECTION ( 'NONE',  ( -0.000000000000000000, 1.000000000000000000, -0.000000000000000000 ) ) ;
#109 = AXIS2_PLACEMENT_3D ( 'NONE', #408, #102, #406 ) ;
#110 = CARTESIAN_POINT ( 'NONE',  ( 0.000000000000000000, 0.5999999999999994227, 0.000000000000000000 ) ) ;
#111 = DIRECTION ( 'NONE',  ( 0.000000000000000000, 0.000000000000000000, -1.000000000000000000 ) ) ;
#112 = ORIENTED_EDGE ( 'NONE', *, *, #163, .F. ) ;
#113 = ADVANCED_FACE ( 'NONE', ( #498 ), #443, .T. ) ;
#114 = DIRECTION ( 'NONE',  ( 0.000000000000000000, -1.000000000000000000, 0.000000000000000000 ) ) ;
#115 = ORIENTED_EDGE ( 'NONE', *, *, #516, .F. ) ;
#116 = CARTESIAN_POINT ( 'NONE',  ( -2.000000000000000000, 4.199999999999999289, -1.499999999999999556 ) ) ;
#117 = VECTOR ( 'NONE', #746, 1000.000000000000000 ) ;
#118 = CIRCLE ( 'NONE', #512, 3.599999999999998757 ) ;
#119 = EDGE_CURVE ( 'NONE', #452, #294, #583, .T. ) ;
#120 = EDGE_LOOP ( 'NONE', ( #100, #626, #607, #601 ) ) ;
#121 = ORIENTED_EDGE ( 'NONE', *, *, #345, .F. ) ;
#122 = ADVANCED_FACE ( 'NONE', ( #430 ), #381, .F. ) ;
#123 = CARTESIAN_POINT ( 'NONE',  ( 1.796051224213827568, -13.50000000000000000, -1.796051224213834230 ) ) ;
#124 = PLANE ( 'NONE',  #546 ) ;
#125 = AXIS2_PLACEMENT_3D ( 'NONE', #130, #860, #428 ) ;
#126 = DATE_TIME_ROLE ( 'creation_date' ) ;
#127 = CIRCLE ( 'NONE', #138, 0.5000000000000000000 ) ;
#128 = DIRECTION ( 'NONE',  ( 0.000000000000000000, -1.000000000000000000, 0.000000000000000000 ) ) ;
#129 = VERTEX_POINT ( 'NONE', #894 ) ;
#130 = CARTESIAN_POINT ( 'NONE',  ( 0.000000000000000000, 0.5999999999999994227, 0.000000000000000000 ) ) ;
#131 = ADVANCED_FACE ( 'NONE', ( #68 ), #151, .T. ) ;
#132 = VECTOR ( 'NONE', #870, 1000.000000000000000 ) ;
#133 = ORIENTED_EDGE ( 'NONE', *, *, #15, .T. ) ;
#134 = CYLINDRICAL_SURFACE ( 'NONE', #76, 0.1000000000000000472 ) ;
#135 =( LENGTH_UNIT ( ) NAMED_UNIT ( * ) SI_UNIT ( .MILLI., .METRE. ) );
#136 = EDGE_CURVE ( 'NONE', #588, #259, #541, .T. ) ;
#137 = CARTESIAN_POINT ( 'NONE',  ( 4.511963805011241391, 0.5999999999999994227, 0.5870967741935484430 ) ) ;
#138 = AXIS2_PLACEMENT_3D ( 'NONE', #666, #66, #955 ) ;
#139 = ORIENTED_EDGE ( 'NONE', *, *, #593, .F. ) ;
#140 = DIRECTION ( 'NONE',  ( -0.000000000000000000, 1.000000000000000000, -0.000000000000000000 ) ) ;
#141 = DATE_AND_TIME ( #165, #415 ) ;
#142 = VECTOR ( 'NONE', #606, 1000.000000000000000 ) ;
#143 = DIRECTION ( 'NONE',  ( -1.000000000000000000, 0.000000000000000000, 1.626303258728256651E-16 ) ) ;
#144 = VECTOR ( 'NONE', #242, 1000.000000000000000 ) ;
#145 = FACE_BOUND ( 'NONE', #839, .T. ) ;
#146 = EDGE_LOOP ( 'NONE', ( #532, #553, #522, #460 ) ) ;
#147 = DIRECTION ( 'NONE',  ( -0.000000000000000000, 1.000000000000000000, -0.000000000000000000 ) ) ;
#148 = VERTEX_POINT ( 'NONE', #722 ) ;
#149 = DIRECTION ( 'NONE',  ( 0.000000000000000000, -1.000000000000000000, 0.000000000000000000 ) ) ;
#150 = ORIENTED_EDGE ( 'NONE', *, *, #92, .F. ) ;
#151 = CYLINDRICAL_SURFACE ( 'NONE', #724, 0.09999999999999999167 ) ;
#152 = CALENDAR_DATE ( 2024, 28, 5 ) ;
#153 = ORIENTED_EDGE ( 'NONE', *, *, #182, .F. ) ;
#154 = VECTOR ( 'NONE', #585, 1000.000000000000000 ) ;
#155 = PLANE ( 'NONE',  #910 ) ;
#156 = EDGE_CURVE ( 'NONE', #164, #513, #619, .T. ) ;
#157 = VERTEX_POINT ( 'NONE', #137 ) ;
#158 = PLANE ( 'NONE',  #334 ) ;
#159 = AXIS2_PLACEMENT_3D ( 'NONE', #346, #783, #925 ) ;
#160 = EDGE_LOOP ( 'NONE', ( #695, #40, #872, #911 ) ) ;
#161 = ORIENTED_EDGE ( 'NONE', *, *, #805, .T. ) ;
#162 = VERTEX_POINT ( 'NONE', #620 ) ;
#163 = EDGE_CURVE ( 'NONE', #878, #907, #187, .T. ) ;
#164 = VERTEX_POINT ( 'NONE', #784 ) ;
#165 = CALENDAR_DATE ( 2024, 28, 5 ) ;
#166 = CC_DESIGN_APPROVAL ( #922, ( #198 ) ) ;
#167 = VECTOR ( 'NONE', #262, 1000.000000000000000 ) ;
#168 = EDGE_LOOP ( 'NONE', ( #765, #176, #511, #235 ) ) ;
#169 = CYLINDRICAL_SURFACE ( 'NONE', #230, 4.099999999999998757 ) ;
#170 = DIRECTION ( 'NONE',  ( 1.000000000000000000, 0.000000000000000000, 1.224646799147353207E-16 ) ) ;
#171 = ORIENTED_EDGE ( 'NONE', *, *, #156, .F. ) ;
#172 = CARTESIAN_POINT ( 'NONE',  ( 4.611127844681818466, 0.5999999999999994227, -0.5000000000000000000 ) ) ;
#173 = ORIENTED_EDGE ( 'NONE', *, *, #816, .F. ) ;
#174 = CARTESIAN_POINT ( 'NONE',  ( 5.200000000000000178, 0.5999999999999994227, 0.4000000000000000222 ) ) ;
#175 = CARTESIAN_POINT ( 'NONE',  ( 1.796051224213827568, 0.000000000000000000, -1.796051224213834230 ) ) ;
#176 = ORIENTED_EDGE ( 'NONE', *, *, #668, .F. ) ;
#177 = CARTESIAN_POINT ( 'NONE',  ( 4.611127844681818466, 0.5999999999999994227, -0.6000000000000000888 ) ) ;
#178 = EDGE_CURVE ( 'NONE', #543, #164, #752, .T. ) ;
#179 = VERTEX_POINT ( 'NONE', #717 ) ;
#180 = LINE ( 'NONE', #291, #132 ) ;
#181 = CARTESIAN_POINT ( 'NONE',  ( 5.299999999999999822, 0.000000000000000000, 0.4000000000000000222 ) ) ;
#182 = EDGE_CURVE ( 'NONE', #502, #437, #90, .T. ) ;
#183 = DIRECTION ( 'NONE',  ( 0.000000000000000000, 0.000000000000000000, 1.000000000000000000 ) ) ;
#184 = ORIENTED_EDGE ( 'NONE', *, *, #197, .T. ) ;
#185 = CARTESIAN_POINT ( 'NONE',  ( 5.572142936120456341E-16, -8.673617379884035472E-16, -4.549999999999998934 ) ) ;
#186 = AXIS2_PLACEMENT_3D ( 'NONE', #580, #568, #438 ) ;
#187 = CIRCLE ( 'NONE', #824, 0.2250000000000003664 ) ;
#188 = CALENDAR_DATE ( 2024, 28, 5 ) ;
#189 = CYLINDRICAL_SURFACE ( 'NONE', #552, 0.09999999999999999167 ) ;
#190 = AXIS2_PLACEMENT_3D ( 'NONE', #808, #514, #871 ) ;
#191 = VECTOR ( 'NONE', #639, 1000.000000000000000 ) ;
#192 = CC_DESIGN_APPROVAL ( #39, ( #637 ) ) ;
#193 = ORIENTED_EDGE ( 'NONE', *, *, #768, .F. ) ;
#194 = DIRECTION ( 'NONE',  ( 0.000000000000000000, 0.000000000000000000, -1.000000000000000000 ) ) ;
#195 = CARTESIAN_POINT ( 'NONE',  ( 2.000000000000000000, 4.299999999999998934, 1.499999999999999778 ) ) ;
#196 = ADVANCED_FACE ( 'NONE', ( #497 ), #509, .T. ) ;
#197 = EDGE_CURVE ( 'NONE', #148, #309, #118, .T. ) ;
#198 = SECURITY_CLASSIFICATION ( '', '', #200 ) ;
#199 = ADVANCED_FACE ( 'NONE', ( #419, #72 ), #644, .T. ) ;
#200 = SECURITY_CLASSIFICATION_LEVEL ( 'unclassified' ) ;
#201 = LINE ( 'NONE', #604, #405 ) ;
#202 = AXIS2_PLACEMENT_3D ( 'NONE', #14, #912, #683 ) ;
#203 = CARTESIAN_POINT ( 'NONE',  ( -1.796051224213834008, -13.50000000000000000, -1.796051224213828013 ) ) ;
#204 = APPLICATION_CONTEXT ( 'configuration controlled 3d designs of mechanical parts and assemblies' ) ;
#205 = CC_DESIGN_PERSON_AND_ORGANIZATION_ASSIGNMENT ( #622, #423, ( #549 ) ) ;
#206 = ORIENTED_EDGE ( 'NONE', *, *, #523, .T. ) ;
#207 = DIRECTION ( 'NONE',  ( 0.000000000000000000, 0.000000000000000000, -1.000000000000000000 ) ) ;
#208 = APPLICATION_CONTEXT ( 'configuration controlled 3d designs of mechanical parts and assemblies' ) ;
#209 = AXIS2_PLACEMENT_3D ( 'NONE', #741, #149, #297 ) ;
#210 = DIRECTION ( 'NONE',  ( 0.000000000000000000, 0.000000000000000000, 1.000000000000000000 ) ) ;
#211 = ORIENTED_EDGE ( 'NONE', *, *, #398, .F. ) ;
#212 = EDGE_LOOP ( 'NONE', ( #407, #799, #417, #429 ) ) ;
#213 = DIRECTION ( 'NONE',  ( 0.000000000000000000, 0.000000000000000000, -1.000000000000000000 ) ) ;
#214 = CIRCLE ( 'NONE', #936, 4.549999999999998934 ) ;
#215 = CIRCLE ( 'NONE', #759, 0.09999999999999999167 ) ;
#216 = CARTESIAN_POINT ( 'NONE',  ( 5.200000000000000178, 0.5999999999999994227, -0.4000000000000000222 ) ) ;
#217 = CARTESIAN_POINT ( 'NONE',  ( 1.796051224213827568, -13.50000000000000000, -2.021051224213834985 ) ) ;
#218 = ORIENTED_EDGE ( 'NONE', *, *, #946, .T. ) ;
#219 = CARTESIAN_POINT ( 'NONE',  ( -1.796051224213827791, -13.50000000000000000, 2.021051224213834985 ) ) ;
#220 = ORIENTED_EDGE ( 'NONE', *, *, #178, .T. ) ;
#221 = APPROVAL_PERSON_ORGANIZATION ( #905, #922, #942 ) ;
#222 = PLANE ( 'NONE',  #457 ) ;
#223 = FACE_OUTER_BOUND ( 'NONE', #146, .T. ) ;
#224 = DATE_AND_TIME ( #630, #330 ) ;
#225 = CARTESIAN_POINT ( 'NONE',  ( 1.796051224213827568, -13.50000000000000000, -1.571051224213833475 ) ) ;
#226 = CIRCLE ( 'NONE', #125, 4.549999999999998934 ) ;
#227 = LINE ( 'NONE', #249, #25 ) ;
#228 = ORIENTED_EDGE ( 'NONE', *, *, #593, .T. ) ;
#229 = PLANE ( 'NONE',  #862 ) ;
#230 = AXIS2_PLACEMENT_3D ( 'NONE', #55, #570, #721 ) ;
#231 = DIRECTION ( 'NONE',  ( 1.000000000000000000, 0.000000000000000000, 0.000000000000000000 ) ) ;
#232 = CARTESIAN_POINT ( 'NONE',  ( -1.796051224213827791, 0.000000000000000000, 1.571051224213833697 ) ) ;
#233 = DIRECTION ( 'NONE',  ( 0.000000000000000000, -1.000000000000000000, 0.000000000000000000 ) ) ;
#234 = EDGE_CURVE ( 'NONE', #560, #372, #636, .T. ) ;
#235 = ORIENTED_EDGE ( 'NONE', *, *, #654, .T. ) ;
#236 = DIRECTION ( 'NONE',  ( -0.000000000000000000, 1.000000000000000000, -0.000000000000000000 ) ) ;
#237 = CARTESIAN_POINT ( 'NONE',  ( 0.000000000000000000, 4.299999999999998934, 4.549999999999998934 ) ) ;
#238 = DATE_AND_TIME ( #714, #529 ) ;
#239 =( GEOMETRIC_REPRESENTATION_CONTEXT ( 3 ) GLOBAL_UNCERTAINTY_ASSIGNED_CONTEXT ( ( #919 ) ) GLOBAL_UNIT_ASSIGNED_CONTEXT ( ( #135, #295, #505 ) ) REPRESENTATION_CONTEXT ( 'NONE', 'WORKASPACE' ) );
#240 = FACE_OUTER_BOUND ( 'NONE', #296, .T. ) ;
#241 = DIRECTION ( 'NONE',  ( 0.000000000000000000, -1.000000000000000000, 0.000000000000000000 ) ) ;
#242 = DIRECTION ( 'NONE',  ( -0.000000000000000000, 1.000000000000000000, -0.000000000000000000 ) ) ;
#243 = ORIENTED_EDGE ( 'NONE', *, *, #566, .T. ) ;
#244 = AXIS2_PLACEMENT_3D ( 'NONE', #78, #170, #4 ) ;
#245 = CARTESIAN_POINT ( 'NONE',  ( 4.522444029504399943, 0.000000000000000000, 0.5000000000000000000 ) ) ;
#246 = CC_DESIGN_PERSON_AND_ORGANIZATION_ASSIGNMENT ( #594, #793, ( #198 ) ) ;
#247 = ORIENTED_EDGE ( 'NONE', *, *, #425, .T. ) ;
#248 = CARTESIAN_POINT ( 'NONE',  ( 0.000000000000000000, 3.799999999999998934, 0.000000000000000000 ) ) ;
#249 = CARTESIAN_POINT ( 'NONE',  ( -1.796051224213827791, -13.50000000000000000, 2.021051224213834985 ) ) ;
#250 = ORIENTED_EDGE ( 'NONE', *, *, #136, .T. ) ;
#251 = CIRCLE ( 'NONE', #298, 0.2250000000000003664 ) ;
#252 = CARTESIAN_POINT ( 'NONE',  ( 2.000000000000000000, 4.199999999999999289, 1.499999999999999778 ) ) ;
#253 = CIRCLE ( 'NONE', #2, 0.2250000000000005884 ) ;
#254 = CARTESIAN_POINT ( 'NONE',  ( 0.000000000000000000, 0.5999999999999994227, 0.000000000000000000 ) ) ;
#255 = VECTOR ( 'NONE', #797, 1000.000000000000000 ) ;
#256 = CARTESIAN_POINT ( 'NONE',  ( 5.200000000000000178, 1.866725419044455991, 0.4000000000000000222 ) ) ;
#257 = ORIENTED_EDGE ( 'NONE', *, *, #15, .F. ) ;
#258 = DIRECTION ( 'NONE',  ( 0.000000000000000000, -0.000000000000000000, -1.000000000000000000 ) ) ;
#259 = VERTEX_POINT ( 'NONE', #359 ) ;
#260 = AXIS2_PLACEMENT_3D ( 'NONE', #64, #495, #213 ) ;
#261 = ORIENTED_EDGE ( 'NONE', *, *, #654, .F. ) ;
#262 = DIRECTION ( 'NONE',  ( 0.000000000000000000, -1.000000000000000000, 0.000000000000000000 ) ) ;
#263 = CARTESIAN_POINT ( 'NONE',  ( 1.796051224213827568, -13.50000000000000000, -1.796051224213834230 ) ) ;
#264 = PRODUCT_DEFINITION ( '未知', '', #637, #864 ) ;
#265 = ORIENTED_EDGE ( 'NONE', *, *, #393, .T. ) ;
#266 = DIRECTION ( 'NONE',  ( -0.000000000000000000, -0.000000000000000000, 1.000000000000000000 ) ) ;
#267 = AXIS2_PLACEMENT_3D ( 'NONE', #701, #45, #277 ) ;
#268 = DIRECTION ( 'NONE',  ( 1.084202172485504434E-16, 0.000000000000000000, 1.000000000000000000 ) ) ;
#269 = LINE ( 'NONE', #618, #597 ) ;
#270 = EDGE_LOOP ( 'NONE', ( #547, #616, #41, #608 ) ) ;
#271 = ADVANCED_FACE ( 'NONE', ( #306 ), #289, .T. ) ;
#272 = EDGE_LOOP ( 'NONE', ( #646, #308 ) ) ;
#273 = DIRECTION ( 'NONE',  ( 0.000000000000000000, -1.000000000000000000, 0.000000000000000000 ) ) ;
#274 = EDGE_CURVE ( 'NONE', #749, #902, #449, .T. ) ;
#275 = ADVANCED_BREP_SHAPE_REPRESENTATION ( 'YS312热释电-20240410', ( #958, #104 ), #239 ) ;
#276 = CC_DESIGN_PERSON_AND_ORGANIZATION_ASSIGNMENT ( #31, #863, ( #637 ) ) ;
#277 = DIRECTION ( 'NONE',  ( 0.000000000000000000, 0.000000000000000000, -1.000000000000000000 ) ) ;
#278 = ADVANCED_FACE ( 'NONE', ( #812 ), #790, .T. ) ;
#279 = ORIENTED_EDGE ( 'NONE', *, *, #396, .T. ) ;
#280 = LINE ( 'NONE', #89, #255 ) ;
#281 = ADVANCED_FACE ( 'NONE', ( #558 ), #750, .T. ) ;
#282 = DIRECTION ( 'NONE',  ( 0.000000000000000000, 0.000000000000000000, 1.000000000000000000 ) ) ;
#283 = CARTESIAN_POINT ( 'NONE',  ( 0.000000000000000000, 4.299999999999998934, 0.000000000000000000 ) ) ;
#284 = DIRECTION ( 'NONE',  ( 0.000000000000000000, 0.000000000000000000, 1.000000000000000000 ) ) ;
#285 = CARTESIAN_POINT ( 'NONE',  ( -2.000000000000000000, 4.199999999999999289, 1.500000000000000222 ) ) ;
#286 = EDGE_LOOP ( 'NONE', ( #48, #760, #663, #32 ) ) ;
#287 = EDGE_CURVE ( 'NONE', #442, #157, #11, .T. ) ;
#288 = AXIS2_PLACEMENT_3D ( 'NONE', #720, #128, #569 ) ;
#289 = PLANE ( 'NONE',  #658 ) ;
#290 = DATE_AND_TIME ( #188, #730 ) ;
#291 = CARTESIAN_POINT ( 'NONE',  ( -2.000000000000000000, 4.299999999999998934, 1.500000000000000222 ) ) ;
#292 = EDGE_CURVE ( 'NONE', #309, #148, #60, .T. ) ;
#293 = LINE ( 'NONE', #753, #435 ) ;
#294 = VERTEX_POINT ( 'NONE', #823 ) ;
#295 =( NAMED_UNIT ( * ) PLANE_ANGLE_UNIT ( ) SI_UNIT ( $, .RADIAN. ) );
#296 = EDGE_LOOP ( 'NONE', ( #813, #943 ) ) ;
#297 = DIRECTION ( 'NONE',  ( 0.000000000000000000, 0.000000000000000000, 1.000000000000000000 ) ) ;
#298 = AXIS2_PLACEMENT_3D ( 'NONE', #673, #388, #87 ) ;
#299 = CARTESIAN_POINT ( 'NONE',  ( 2.000000000000000000, 4.299999999999998934, 1.499999999999999778 ) ) ;
#300 = DIRECTION ( 'NONE',  ( 0.000000000000000000, 0.000000000000000000, 1.000000000000000000 ) ) ;
#301 = EDGE_CURVE ( 'NONE', #778, #502, #227, .T. ) ;
#302 = FACE_OUTER_BOUND ( 'NONE', #735, .T. ) ;
#303 = ORIENTED_EDGE ( 'NONE', *, *, #841, .F. ) ;
#304 = FACE_OUTER_BOUND ( 'NONE', #286, .T. ) ;
#305 = EDGE_CURVE ( 'NONE', #902, #953, #534, .T. ) ;
#306 = FACE_OUTER_BOUND ( 'NONE', #67, .T. ) ;
#307 = AXIS2_PLACEMENT_3D ( 'NONE', #203, #62, #53 ) ;
#308 = ORIENTED_EDGE ( 'NONE', *, *, #867, .T. ) ;
#309 = VERTEX_POINT ( 'NONE', #37 ) ;
#310 = CARTESIAN_POINT ( 'NONE',  ( 5.299999999999999822, 1.866725419044455991, -0.3999999999999999667 ) ) ;
#311 = ORIENTED_EDGE ( 'NONE', *, *, #755, .T. ) ;
#312 = DIRECTION ( 'NONE',  ( 0.000000000000000000, 0.000000000000000000, -1.000000000000000000 ) ) ;
#313 = APPROVAL ( #506, '未指定' ) ;
#314 = CARTESIAN_POINT ( 'NONE',  ( 0.000000000000000000, 3.799999999999998934, 0.000000000000000000 ) ) ;
#315 = FACE_OUTER_BOUND ( 'NONE', #634, .T. ) ;
#316 = EDGE_LOOP ( 'NONE', ( #762, #853, #881, #904 ) ) ;
#317 = CARTESIAN_POINT ( 'NONE',  ( -1.796051224213827791, -13.50000000000000000, 1.796051224213834230 ) ) ;
#318 = AXIS2_PLACEMENT_3D ( 'NONE', #314, #453, #963 ) ;
#319 = ORIENTED_EDGE ( 'NONE', *, *, #345, .T. ) ;
#320 = DIRECTION ( 'NONE',  ( -0.000000000000000000, 1.000000000000000000, 0.000000000000000000 ) ) ;
#321 = EDGE_LOOP ( 'NONE', ( #931, #857, #250, #734 ) ) ;
#322 = CARTESIAN_POINT ( 'NONE',  ( 5.299999999999999822, 0.5999999999999994227, -0.3999999999999999667 ) ) ;
#323 = VERTEX_POINT ( 'NONE', #600 ) ;
#324 = CARTESIAN_POINT ( 'NONE',  ( -1.796051224213827791, -13.50000000000000000, 1.796051224213834230 ) ) ;
#325 = PRODUCT_RELATED_PRODUCT_CATEGORY ( 'detail', '', ( #549 ) ) ;
#326 = ORIENTED_EDGE ( 'NONE', *, *, #396, .F. ) ;
#327 = LINE ( 'NONE', #299, #105 ) ;
#328 = CYLINDRICAL_SURFACE ( 'NONE', #186, 0.2250000000000003664 ) ;
#329 = VECTOR ( 'NONE', #463, 1000.000000000000000 ) ;
#330 = LOCAL_TIME ( 16, 55, 26.00000000000000000, #18 ) ;
#331 = CIRCLE ( 'NONE', #638, 0.2250000000000003664 ) ;
#332 = DIRECTION ( 'NONE',  ( 0.000000000000000000, -1.000000000000000000, 0.000000000000000000 ) ) ;
#333 = EDGE_CURVE ( 'NONE', #80, #439, #269, .T. ) ;
#334 = AXIS2_PLACEMENT_3D ( 'NONE', #518, #82, #454 ) ;
#335 = EDGE_LOOP ( 'NONE', ( #787, #326, #883, #781 ) ) ;
#336 = FACE_OUTER_BOUND ( 'NONE', #573, .T. ) ;
#337 = DIRECTION ( 'NONE',  ( -1.000000000000000000, -0.000000000000000000, 0.000000000000000000 ) ) ;
#338 = CYLINDRICAL_SURFACE ( 'NONE', #882, 0.2250000000000008105 ) ;
#339 = ADVANCED_FACE ( 'NONE', ( #351 ), #928, .T. ) ;
#340 = DIRECTION ( 'NONE',  ( 0.000000000000000000, -1.000000000000000000, 0.000000000000000000 ) ) ;
#341 = ORIENTED_EDGE ( 'NONE', *, *, #292, .F. ) ;
#342 = DIRECTION ( 'NONE',  ( 0.000000000000000000, 1.000000000000000000, 0.000000000000000000 ) ) ;
#343 = DIRECTION ( 'NONE',  ( -0.000000000000000000, 1.000000000000000000, -0.000000000000000000 ) ) ;
#344 = ADVANCED_FACE ( 'NONE', ( #375 ), #842, .T. ) ;
#345 = EDGE_CURVE ( 'NONE', #893, #581, #215, .T. ) ;
#346 = CARTESIAN_POINT ( 'NONE',  ( -1.796051224213827791, 0.000000000000000000, 1.796051224213834230 ) ) ;
#347 = EDGE_LOOP ( 'NONE', ( #677, #707, #341, #858 ) ) ;
#348 = VERTEX_POINT ( 'NONE', #356 ) ;
#349 = COORDINATED_UNIVERSAL_TIME_OFFSET ( 8, 0, .AHEAD. ) ;
#350 = LINE ( 'NONE', #252, #811 ) ;
#351 = FACE_OUTER_BOUND ( 'NONE', #347, .T. ) ;
#352 = VERTEX_POINT ( 'NONE', #195 ) ;
#353 = DIRECTION ( 'NONE',  ( 1.000000000000000000, -0.000000000000000000, -1.084202172485504434E-16 ) ) ;
#354 = CARTESIAN_POINT ( 'NONE',  ( 0.000000000000000000, 0.5999999999999994227, 0.000000000000000000 ) ) ;
#355 = ORIENTED_EDGE ( 'NONE', *, *, #440, .F. ) ;
#356 = CARTESIAN_POINT ( 'NONE',  ( -1.796051224213834008, 0.000000000000000000, -1.571051224213827480 ) ) ;
#357 = AXIS2_PLACEMENT_3D ( 'NONE', #898, #605, #461 ) ;
#358 = DIRECTION ( 'NONE',  ( -0.000000000000000000, 1.000000000000000000, -0.000000000000000000 ) ) ;
#359 = CARTESIAN_POINT ( 'NONE',  ( 0.000000000000000000, 3.799999999999998934, 4.099999999999998757 ) ) ;
#360 = ADVANCED_FACE ( 'NONE', ( #145, #777, #909, #610 ), #935, .T. ) ;
#361 = MECHANICAL_CONTEXT ( 'NONE', #204, 'mechanical' ) ;
#362 = ORIENTED_EDGE ( 'NONE', *, *, #557, .T. ) ;
#363 = APPROVAL_DATE_TIME ( #376, #313 ) ;
#364 = LINE ( 'NONE', #58, #916 ) ;
#365 = CC_DESIGN_APPROVAL ( #313, ( #264 ) ) ;
#366 = DIRECTION ( 'NONE',  ( -0.000000000000000000, 1.000000000000000000, -0.000000000000000000 ) ) ;
#367 = VERTEX_POINT ( 'NONE', #17 ) ;
#368 = APPROVAL_ROLE ( '' ) ;
#369 = AXIS2_PLACEMENT_3D ( 'NONE', #589, #903, #378 ) ;
#370 = CARTESIAN_POINT ( 'NONE',  ( 5.021051876504146399E-16, 3.799999999999998934, -4.099999999999998757 ) ) ;
#371 = ORIENTED_EDGE ( 'NONE', *, *, #119, .F. ) ;
#372 = VERTEX_POINT ( 'NONE', #712 ) ;
#373 = FACE_OUTER_BOUND ( 'NONE', #168, .T. ) ;
#374 = FACE_OUTER_BOUND ( 'NONE', #5, .T. ) ;
#375 = FACE_OUTER_BOUND ( 'NONE', #212, .T. ) ;
#376 = DATE_AND_TIME ( #152, #554 ) ;
#377 = CYLINDRICAL_SURFACE ( 'NONE', #771, 0.2250000000000005884 ) ;
#378 = DIRECTION ( 'NONE',  ( 0.000000000000000000, 0.000000000000000000, 1.000000000000000000 ) ) ;
#379 = AXIS2_PLACEMENT_3D ( 'NONE', #317, #241, #896 ) ;
#380 = ORIENTED_EDGE ( 'NONE', *, *, #156, .T. ) ;
#381 = PLANE ( 'NONE',  #202 ) ;
#382 = ORIENTED_EDGE ( 'NONE', *, *, #715, .T. ) ;
#383 = DIRECTION ( 'NONE',  ( 0.000000000000000000, 0.000000000000000000, 1.000000000000000000 ) ) ;
#384 = ORIENTED_EDGE ( 'NONE', *, *, #54, .T. ) ;
#385 = ORIENTED_EDGE ( 'NONE', *, *, #566, .F. ) ;
#386 = CARTESIAN_POINT ( 'NONE',  ( 0.000000000000000000, 0.5999999999999994227, 4.099999999999998757 ) ) ;
#387 = CYLINDRICAL_SURFACE ( 'NONE', #190, 4.549999999999998934 ) ;
#388 = DIRECTION ( 'NONE',  ( 0.000000000000000000, -1.000000000000000000, 0.000000000000000000 ) ) ;
#389 = ORIENTED_EDGE ( 'NONE', *, *, #24, .T. ) ;
#390 = CARTESIAN_POINT ( 'NONE',  ( 5.299999999999999822, 0.5999999999999994227, 0.5000000000000000000 ) ) ;
#391 = VECTOR ( 'NONE', #143, 1000.000000000000000 ) ;
#392 = VECTOR ( 'NONE', #266, 1000.000000000000000 ) ;
#393 = EDGE_CURVE ( 'NONE', #806, #162, #939, .T. ) ;
#394 = CARTESIAN_POINT ( 'NONE',  ( 4.611127844681818466, 0.000000000000000000, -0.6000000000000000888 ) ) ;
#395 = ORIENTED_EDGE ( 'NONE', *, *, #755, .F. ) ;
#396 = EDGE_CURVE ( 'NONE', #744, #483, #705, .T. ) ;
#397 = DIRECTION ( 'NONE',  ( -0.000000000000000000, 1.000000000000000000, -0.000000000000000000 ) ) ;
#398 = EDGE_CURVE ( 'NONE', #727, #412, #23, .T. ) ;
#399 = CC_DESIGN_DATE_AND_TIME_ASSIGNMENT ( #290, #126, ( #264 ) ) ;
#400 = DIRECTION ( 'NONE',  ( 0.000000000000000000, 0.000000000000000000, -1.000000000000000000 ) ) ;
#401 = PLANE ( 'NONE',  #954 ) ;
#402 = ORIENTED_EDGE ( 'NONE', *, *, #737, .F. ) ;
#403 = LINE ( 'NONE', #245, #33 ) ;
#404 = ORIENTED_EDGE ( 'NONE', *, *, #704, .T. ) ;
#405 = VECTOR ( 'NONE', #337, 1000.000000000000000 ) ;
#406 = DIRECTION ( 'NONE',  ( -1.000000000000000000, 0.000000000000000000, 1.626303258728256651E-16 ) ) ;
#407 = ORIENTED_EDGE ( 'NONE', *, *, #305, .T. ) ;
#408 = CARTESIAN_POINT ( 'NONE',  ( 2.000000000000000000, 4.199999999999999289, -1.500000000000000222 ) ) ;
#409 = DIRECTION ( 'NONE',  ( -0.000000000000000000, 1.000000000000000000, -0.000000000000000000 ) ) ;
#410 = CC_DESIGN_PERSON_AND_ORGANIZATION_ASSIGNMENT ( #754, #431, ( #264 ) ) ;
#411 = CARTESIAN_POINT ( 'NONE',  ( -2.000000000000000000, 4.199999999999999289, 1.500000000000000222 ) ) ;
#412 = VERTEX_POINT ( 'NONE', #69 ) ;
#413 = AXIS2_PLACEMENT_3D ( 'NONE', #482, #26, #183 ) ;
#414 = ORIENTED_EDGE ( 'NONE', *, *, #859, .T. ) ;
#415 = LOCAL_TIME ( 16, 55, 26.00000000000000000, #949 ) ;
#416 = CIRCLE ( 'NONE', #476, 0.2250000000000005884 ) ;
#417 = ORIENTED_EDGE ( 'NONE', *, *, #780, .T. ) ;
#418 = LINE ( 'NONE', #933, #191 ) ;
#419 = FACE_OUTER_BOUND ( 'NONE', #880, .T. ) ;
#420 = ADVANCED_FACE ( 'NONE', ( #374 ), #609, .T. ) ;
#421 = CARTESIAN_POINT ( 'NONE',  ( -1.796051224213834008, -13.50000000000000000, -1.796051224213828013 ) ) ;
#422 = DIRECTION ( 'NONE',  ( -0.000000000000000000, -0.000000000000000000, 1.000000000000000000 ) ) ;
#423 = PERSON_AND_ORGANIZATION_ROLE ( 'design_owner' ) ;
#424 = ORIENTED_EDGE ( 'NONE', *, *, #645, .T. ) ;
#425 = EDGE_CURVE ( 'NONE', #581, #806, #852, .T. ) ;
#426 = EDGE_LOOP ( 'NONE', ( #1, #913, #362, #7 ) ) ;
#427 = AXIS2_PLACEMENT_3D ( 'NONE', #648, #789, #49 ) ;
#428 = DIRECTION ( 'NONE',  ( 0.000000000000000000, 0.000000000000000000, 1.000000000000000000 ) ) ;
#429 = ORIENTED_EDGE ( 'NONE', *, *, #274, .T. ) ;
#430 = FACE_OUTER_BOUND ( 'NONE', #649, .T. ) ;
#431 = PERSON_AND_ORGANIZATION_ROLE ( 'creator' ) ;
#432 = ORIENTED_EDGE ( 'NONE', *, *, #287, .T. ) ;
#433 = CARTESIAN_POINT ( 'NONE',  ( 5.572142936120456341E-16, 4.299999999999998934, -4.549999999999998934 ) ) ;
#434 = APPROVAL_PERSON_ORGANIZATION ( #81, #39, #368 ) ;
#435 = VECTOR ( 'NONE', #825, 1000.000000000000000 ) ;
#436 = DIRECTION ( 'NONE',  ( 0.000000000000000000, 0.000000000000000000, 1.000000000000000000 ) ) ;
#437 = VERTEX_POINT ( 'NONE', #232 ) ;
#438 = DIRECTION ( 'NONE',  ( 0.000000000000000000, 0.000000000000000000, 1.000000000000000000 ) ) ;
#439 = VERTEX_POINT ( 'NONE', #574 ) ;
#440 = EDGE_CURVE ( 'NONE', #348, #179, #508, .T. ) ;
#441 = DIRECTION ( 'NONE',  ( 0.000000000000000000, 0.000000000000000000, 1.000000000000000000 ) ) ;
#442 = VERTEX_POINT ( 'NONE', #960 ) ;
#443 = CYLINDRICAL_SURFACE ( 'NONE', #679, 0.2250000000000005884 ) ;
#444 = EDGE_LOOP ( 'NONE', ( #355, #115 ) ) ;
#445 = VECTOR ( 'NONE', #680, 1000.000000000000000 ) ;
#446 = CARTESIAN_POINT ( 'NONE',  ( 0.000000000000000000, -8.673617379884035472E-16, 0.000000000000000000 ) ) ;
#447 = AXIS2_PLACEMENT_3D ( 'NONE', #110, #489, #284 ) ;
#448 = VECTOR ( 'NONE', #617, 1000.000000000000000 ) ;
#449 = LINE ( 'NONE', #703, #804 ) ;
#450 = DIRECTION ( 'NONE',  ( 0.000000000000000000, -0.000000000000000000, -1.000000000000000000 ) ) ;
#451 = CARTESIAN_POINT ( 'NONE',  ( -1.796051224213827791, 0.000000000000000000, 2.021051224213834985 ) ) ;
#452 = VERTEX_POINT ( 'NONE', #667 ) ;
#453 = DIRECTION ( 'NONE',  ( 0.000000000000000000, -1.000000000000000000, 0.000000000000000000 ) ) ;
#454 = DIRECTION ( 'NONE',  ( 0.000000000000000000, -0.000000000000000000, -1.000000000000000000 ) ) ;
#455 = EDGE_LOOP ( 'NONE', ( #774, #220, #380, #303 ) ) ;
#456 = LINE ( 'NONE', #621, #142 ) ;
#457 = AXIS2_PLACEMENT_3D ( 'NONE', #868, #738, #450 ) ;
#458 = AXIS2_PLACEMENT_3D ( 'NONE', #897, #77, #459 ) ;
#459 = DIRECTION ( 'NONE',  ( 0.000000000000000000, 0.000000000000000000, -1.000000000000000000 ) ) ;
#460 = ORIENTED_EDGE ( 'NONE', *, *, #668, .T. ) ;
#461 = DIRECTION ( 'NONE',  ( 0.000000000000000000, 0.000000000000000000, 1.000000000000000000 ) ) ;
#462 = EDGE_LOOP ( 'NONE', ( #98, #243, #629, #747, #473, #211, #193, #779, #794, #319 ) ) ;
#463 = DIRECTION ( 'NONE',  ( 0.000000000000000000, 0.000000000000000000, 1.000000000000000000 ) ) ;
#464 = AXIS2_PLACEMENT_3D ( 'NONE', #216, #728, #300 ) ;
#465 = DIRECTION ( 'NONE',  ( -0.000000000000000000, 1.000000000000000000, -0.000000000000000000 ) ) ;
#466 = VECTOR ( 'NONE', #567, 1000.000000000000000 ) ;
#467 = ORIENTED_EDGE ( 'NONE', *, *, #107, .T. ) ;
#468 = FACE_OUTER_BOUND ( 'NONE', #887, .T. ) ;
#469 = DIRECTION ( 'NONE',  ( -0.000000000000000000, 1.000000000000000000, -0.000000000000000000 ) ) ;
#470 = LINE ( 'NONE', #390, #329 ) ;
#471 = CIRCLE ( 'NONE', #43, 0.1000000000000000472 ) ;
#472 = DIRECTION ( 'NONE',  ( 1.000000000000000000, 0.000000000000000000, 0.000000000000000000 ) ) ;
#473 = ORIENTED_EDGE ( 'NONE', *, *, #79, .F. ) ;
#474 = CARTESIAN_POINT ( 'NONE',  ( 4.611127844681818466, 4.299999999999998934, -0.6000000000000000888 ) ) ;
#475 = EDGE_CURVE ( 'NONE', #953, #129, #350, .T. ) ;
#476 = AXIS2_PLACEMENT_3D ( 'NONE', #175, #340, #111 ) ;
#477 = DIRECTION ( 'NONE',  ( 0.000000000000000000, 0.000000000000000000, -1.000000000000000000 ) ) ;
#478 = CARTESIAN_POINT ( 'NONE',  ( 0.000000000000000000, 3.799999999999998934, 0.000000000000000000 ) ) ;
#479 = DIRECTION ( 'NONE',  ( 0.000000000000000000, -1.000000000000000000, 0.000000000000000000 ) ) ;
#480 = DIRECTION ( 'NONE',  ( 0.000000000000000000, -1.000000000000000000, 0.000000000000000000 ) ) ;
#481 = EDGE_CURVE ( 'NONE', #702, #588, #691, .T. ) ;
#482 = CARTESIAN_POINT ( 'NONE',  ( 0.000000000000000000, 3.799999999999998934, 0.000000000000000000 ) ) ;
#483 = VERTEX_POINT ( 'NONE', #44 ) ;
#484 = DIRECTION ( 'NONE',  ( -0.000000000000000000, 1.000000000000000000, -0.000000000000000000 ) ) ;
#485 = EDGE_CURVE ( 'NONE', #581, #653, #879, .T. ) ;
#486 = DIRECTION ( 'NONE',  ( 0.000000000000000000, 0.000000000000000000, -1.000000000000000000 ) ) ;
#487 = LINE ( 'NONE', #957, #886 ) ;
#488 = FACE_OUTER_BOUND ( 'NONE', #843, .T. ) ;
#489 = DIRECTION ( 'NONE',  ( -0.000000000000000000, 1.000000000000000000, -0.000000000000000000 ) ) ;
#490 = CARTESIAN_POINT ( 'NONE',  ( -1.796051224213827791, -13.50000000000000000, 1.796051224213834230 ) ) ;
#491 = EDGE_CURVE ( 'NONE', #749, #744, #418, .T. ) ;
#492 = ORIENTED_EDGE ( 'NONE', *, *, #837, .F. ) ;
#493 = ADVANCED_FACE ( 'NONE', ( #10 ), #338, .T. ) ;
#494 = VERTEX_POINT ( 'NONE', #815 ) ;
#495 = DIRECTION ( 'NONE',  ( 0.000000000000000000, -1.000000000000000000, 0.000000000000000000 ) ) ;
#496 = PERSON_AND_ORGANIZATION_ROLE ( 'design_supplier' ) ;
#497 = FACE_OUTER_BOUND ( 'NONE', #538, .T. ) ;
#498 = FACE_OUTER_BOUND ( 'NONE', #270, .T. ) ;
#499 = APPLICATION_PROTOCOL_DEFINITION ( 'international standard', 'config_control_design', 1994, #204 ) ;
#500 = CIRCLE ( 'NONE', #27, 0.1000000000000000472 ) ;
#501 = DIRECTION ( 'NONE',  ( 0.000000000000000000, 0.000000000000000000, 1.000000000000000000 ) ) ;
#502 = VERTEX_POINT ( 'NONE', #451 ) ;
#503 = AXIS2_PLACEMENT_3D ( 'NONE', #96, #545, #761 ) ;
#504 = DIRECTION ( 'NONE',  ( 0.000000000000000000, 0.000000000000000000, 1.000000000000000000 ) ) ;
#505 =( NAMED_UNIT ( * ) SI_UNIT ( $, .STERADIAN. ) SOLID_ANGLE_UNIT ( ) );
#506 = APPROVAL_STATUS ( 'not_yet_approved' ) ;
#507 = ORIENTED_EDGE ( 'NONE', *, *, #287, .F. ) ;
#508 = CIRCLE ( 'NONE', #838, 0.2250000000000003664 ) ;
#509 = CYLINDRICAL_SURFACE ( 'NONE', #307, 0.2250000000000003664 ) ;
#510 = CARTESIAN_POINT ( 'NONE',  ( 2.000000000000000000, 4.199999999999999289, -1.500000000000000222 ) ) ;
#511 = ORIENTED_EDGE ( 'NONE', *, *, #475, .F. ) ;
#512 = AXIS2_PLACEMENT_3D ( 'NONE', #283, #140, #726 ) ;
#513 = VERTEX_POINT ( 'NONE', #888 ) ;
#514 = DIRECTION ( 'NONE',  ( -0.000000000000000000, 1.000000000000000000, -0.000000000000000000 ) ) ;
#515 = CARTESIAN_POINT ( 'NONE',  ( -2.000000000000000000, 4.299999999999998934, 1.500000000000000222 ) ) ;
#516 = EDGE_CURVE ( 'NONE', #179, #348, #331, .T. ) ;
#517 = APPROVAL_DATE_TIME ( #238, #39 ) ;
#518 = CARTESIAN_POINT ( 'NONE',  ( -1.796051224213827791, -13.50000000000000000, 1.796051224213834230 ) ) ;
#519 = AXIS2_PLACEMENT_3D ( 'NONE', #670, #595, #383 ) ;
#520 = VECTOR ( 'NONE', #422, 1000.000000000000000 ) ;
#521 = CARTESIAN_POINT ( 'NONE',  ( 1.796051224213827568, -13.50000000000000000, -2.021051224213834985 ) ) ;
#522 = ORIENTED_EDGE ( 'NONE', *, *, #780, .F. ) ;
#523 = EDGE_CURVE ( 'NONE', #323, #437, #635, .T. ) ;
#524 = CARTESIAN_POINT ( 'NONE',  ( 4.522444029504399943, 1.866725419044455991, 0.5000000000000000000 ) ) ;
#525 = ORIENTED_EDGE ( 'NONE', *, *, #920, .F. ) ;
#526 = CARTESIAN_POINT ( 'NONE',  ( 4.611127844681818466, 0.000000000000000000, -0.5000000000000000000 ) ) ;
#527 = DIRECTION ( 'NONE',  ( 0.000000000000000000, 0.000000000000000000, -1.000000000000000000 ) ) ;
#528 = EDGE_LOOP ( 'NONE', ( #624, #184 ) ) ;
#529 = LOCAL_TIME ( 16, 55, 26.00000000000000000, #914 ) ;
#530 = CYLINDRICAL_SURFACE ( 'NONE', #519, 4.549999999999998934 ) ;
#531 = AXIS2_PLACEMENT_3D ( 'NONE', #174, #614, #542 ) ;
#532 = ORIENTED_EDGE ( 'NONE', *, *, #733, .T. ) ;
#533 = CIRCLE ( 'NONE', #716, 4.099999999999998757 ) ;
#534 = LINE ( 'NONE', #411, #392 ) ;
#535 = DIRECTION ( 'NONE',  ( 0.000000000000000000, 0.000000000000000000, 1.000000000000000000 ) ) ;
#536 = ORIENTED_EDGE ( 'NONE', *, *, #274, .F. ) ;
#537 = ORIENTED_EDGE ( 'NONE', *, *, #932, .F. ) ;
#538 = EDGE_LOOP ( 'NONE', ( #59, #384, #901, #537 ) ) ;
#539 = AXIS2_PLACEMENT_3D ( 'NONE', #524, #830, #472 ) ;
#540 = DIRECTION ( 'NONE',  ( 0.000000000000000000, 0.000000000000000000, 1.000000000000000000 ) ) ;
#541 = LINE ( 'NONE', #769, #885 ) ;
#542 = DIRECTION ( 'NONE',  ( 0.000000000000000000, 0.000000000000000000, 1.000000000000000000 ) ) ;
#543 = VERTEX_POINT ( 'NONE', #521 ) ;
#544 = LINE ( 'NONE', #651, #154 ) ;
#545 = DIRECTION ( 'NONE',  ( 0.000000000000000000, 0.000000000000000000, -1.000000000000000000 ) ) ;
#546 = AXIS2_PLACEMENT_3D ( 'NONE', #694, #268, #773 ) ;
#547 = ORIENTED_EDGE ( 'NONE', *, *, #523, .F. ) ;
#548 = ORIENTED_EDGE ( 'NONE', *, *, #398, .T. ) ;
#549 = PRODUCT ( 'YS312热释电-20240410', 'YS312热释电-20240410', '', ( #361 ) ) ;
#550 = CARTESIAN_POINT ( 'NONE',  ( 4.611127844681818466, 0.000000000000000000, 0.6000000000000000888 ) ) ;
#551 = ORIENTED_EDGE ( 'NONE', *, *, #628, .T. ) ;
#552 = AXIS2_PLACEMENT_3D ( 'NONE', #256, #764, #477 ) ;
#553 = ORIENTED_EDGE ( 'NONE', *, *, #491, .F. ) ;
#554 = LOCAL_TIME ( 16, 55, 26.00000000000000000, #564 ) ;
#555 = VECTOR ( 'NONE', #598, 1000.000000000000000 ) ;
#556 = VECTOR ( 'NONE', #736, 1000.000000000000000 ) ;
#557 = EDGE_CURVE ( 'NONE', #725, #259, #533, .T. ) ;
#558 = FACE_OUTER_BOUND ( 'NONE', #316, .T. ) ;
#559 = ADVANCED_FACE ( 'NONE', ( #775, #587 ), #155, .T. ) ;
#560 = VERTEX_POINT ( 'NONE', #84 ) ;
#561 = DIRECTION ( 'NONE',  ( -0.000000000000000000, 1.000000000000000000, -0.000000000000000000 ) ) ;
#562 = CARTESIAN_POINT ( 'NONE',  ( -1.796051224213834008, -13.50000000000000000, -1.571051224213827480 ) ) ;
#563 = CIRCLE ( 'NONE', #209, 0.1000000000000000472 ) ;
#564 = COORDINATED_UNIVERSAL_TIME_OFFSET ( 8, 0, .AHEAD. ) ;
#565 = VECTOR ( 'NONE', #409, 1000.000000000000000 ) ;
#566 = EDGE_CURVE ( 'NONE', #653, #85, #46, .T. ) ;
#567 = DIRECTION ( 'NONE',  ( -0.000000000000000000, 1.000000000000000000, -0.000000000000000000 ) ) ;
#568 = DIRECTION ( 'NONE',  ( -0.000000000000000000, 1.000000000000000000, -0.000000000000000000 ) ) ;
#569 = DIRECTION ( 'NONE',  ( 0.000000000000000000, -0.000000000000000000, -1.000000000000000000 ) ) ;
#570 = DIRECTION ( 'NONE',  ( -0.000000000000000000, 1.000000000000000000, -0.000000000000000000 ) ) ;
#571 = DIRECTION ( 'NONE',  ( 0.000000000000000000, -1.000000000000000000, 0.000000000000000000 ) ) ;
#572 = APPLICATION_PROTOCOL_DEFINITION ( 'international standard', 'config_control_design', 1994, #208 ) ;
#573 = EDGE_LOOP ( 'NONE', ( #854, #112, #665, #74 ) ) ;
#574 = CARTESIAN_POINT ( 'NONE',  ( 4.511963805011241391, -8.673617379884035472E-16, -0.5870967741935484430 ) ) ;
#575 = CARTESIAN_POINT ( 'NONE',  ( 2.000000000000000000, 4.299999999999998934, 1.499999999999999778 ) ) ;
#576 = EDGE_LOOP ( 'NONE', ( #947, #551, #414, #311 ) ) ;
#577 = CARTESIAN_POINT ( 'NONE',  ( 0.000000000000000000, 4.299999999999998934, 0.000000000000000000 ) ) ;
#578 = DIRECTION ( 'NONE',  ( -0.000000000000000000, 1.000000000000000000, -0.000000000000000000 ) ) ;
#579 = LINE ( 'NONE', #172, #95 ) ;
#580 = CARTESIAN_POINT ( 'NONE',  ( -1.796051224213834008, -13.50000000000000000, -1.796051224213828013 ) ) ;
#581 = VERTEX_POINT ( 'NONE', #822 ) ;
#582 = DIRECTION ( 'NONE',  ( 1.000000000000000000, -0.000000000000000000, -1.084202172485504434E-16 ) ) ;
#583 = CIRCLE ( 'NONE', #531, 0.09999999999999999167 ) ;
#584 = DIRECTION ( 'NONE',  ( 0.000000000000000000, 0.000000000000000000, 1.000000000000000000 ) ) ;
#585 = DIRECTION ( 'NONE',  ( 0.000000000000000000, -1.000000000000000000, 0.000000000000000000 ) ) ;
#586 = LINE ( 'NONE', #237, #643 ) ;
#587 = FACE_OUTER_BOUND ( 'NONE', #528, .T. ) ;
#588 = VERTEX_POINT ( 'NONE', #386 ) ;
#589 = CARTESIAN_POINT ( 'NONE',  ( 0.000000000000000000, -8.673617379884035472E-16, 0.000000000000000000 ) ) ;
#590 = CARTESIAN_POINT ( 'NONE',  ( -1.796051224213827791, -13.50000000000000000, 1.571051224213833697 ) ) ;
#591 = CARTESIAN_POINT ( 'NONE',  ( 4.511963805011241391, 0.5999999999999994227, -0.5870967741935484430 ) ) ;
#592 = VERTEX_POINT ( 'NONE', #515 ) ;
#593 = EDGE_CURVE ( 'NONE', #372, #157, #214, .T. ) ;
#594 = PERSON_AND_ORGANIZATION ( #19, #56 ) ;
#595 = DIRECTION ( 'NONE',  ( -0.000000000000000000, 1.000000000000000000, -0.000000000000000000 ) ) ;
#596 = AXIS2_PLACEMENT_3D ( 'NONE', #490, #633, #486 ) ;
#597 = VECTOR ( 'NONE', #915, 1000.000000000000000 ) ;
#598 = DIRECTION ( 'NONE',  ( 0.000000000000000000, -1.000000000000000000, 0.000000000000000000 ) ) ;
#599 = EDGE_CURVE ( 'NONE', #85, #452, #732, .T. ) ;
#600 = CARTESIAN_POINT ( 'NONE',  ( -1.796051224213827791, -13.50000000000000000, 1.571051224213833697 ) ) ;
#601 = ORIENTED_EDGE ( 'NONE', *, *, #333, .T. ) ;
#602 = AXIS2_PLACEMENT_3D ( 'NONE', #865, #944, #504 ) ;
#603 = CARTESIAN_POINT ( 'NONE',  ( 2.000000000000000000, 4.199999999999999289, 1.499999999999999778 ) ) ;
#604 = CARTESIAN_POINT ( 'NONE',  ( 4.522444029504399943, 0.5999999999999994227, 0.5000000000000000000 ) ) ;
#605 = DIRECTION ( 'NONE',  ( -0.000000000000000000, 1.000000000000000000, -0.000000000000000000 ) ) ;
#606 = DIRECTION ( 'NONE',  ( -0.000000000000000000, 1.000000000000000000, -0.000000000000000000 ) ) ;
#607 = ORIENTED_EDGE ( 'NONE', *, *, #715, .F. ) ;
#608 = ORIENTED_EDGE ( 'NONE', *, *, #182, .T. ) ;
#609 = CYLINDRICAL_SURFACE ( 'NONE', #809, 4.549999999999998934 ) ;
#610 = FACE_OUTER_BOUND ( 'NONE', #462, .T. ) ;
#611 = DIRECTION ( 'NONE',  ( 0.000000000000000000, 0.000000000000000000, 1.000000000000000000 ) ) ;
#612 = CARTESIAN_POINT ( 'NONE',  ( 5.200000000000000178, 0.000000000000000000, -0.5000000000000000000 ) ) ;
#613 = EDGE_CURVE ( 'NONE', #452, #494, #201, .T. ) ;
#614 = DIRECTION ( 'NONE',  ( -0.000000000000000000, 1.000000000000000000, -0.000000000000000000 ) ) ;
#615 = AXIS2_PLACEMENT_3D ( 'NONE', #13, #35, #52 ) ;
#616 = ORIENTED_EDGE ( 'NONE', *, *, #917, .F. ) ;
#617 = DIRECTION ( 'NONE',  ( -0.000000000000000000, 1.000000000000000000, -0.000000000000000000 ) ) ;
#618 = CARTESIAN_POINT ( 'NONE',  ( 4.511963805011242279, 4.299999999999998934, -0.5870967741935485540 ) ) ;
#619 = CIRCLE ( 'NONE', #260, 0.2250000000000005884 ) ;
#620 = CARTESIAN_POINT ( 'NONE',  ( 5.200000000000000178, 0.5999999999999994227, -0.5000000000000000000 ) ) ;
#621 = CARTESIAN_POINT ( 'NONE',  ( 1.796051224213827568, -13.50000000000000000, -1.571051224213833475 ) ) ;
#622 = PERSON_AND_ORGANIZATION ( #19, #56 ) ;
#623 = LINE ( 'NONE', #101, #167 ) ;
#624 = ORIENTED_EDGE ( 'NONE', *, *, #292, .T. ) ;
#625 = CARTESIAN_POINT ( 'NONE',  ( -1.796051224213834008, -13.50000000000000000, -2.021051224213828323 ) ) ;
#626 = ORIENTED_EDGE ( 'NONE', *, *, #737, .T. ) ;
#627 = ADVANCED_FACE ( 'NONE', ( #682 ), #401, .T. ) ;
#628 = EDGE_CURVE ( 'NONE', #827, #962, #579, .T. ) ;
#629 = ORIENTED_EDGE ( 'NONE', *, *, #831, .T. ) ;
#630 = CALENDAR_DATE ( 2024, 28, 5 ) ;
#631 = ADVANCED_FACE ( 'NONE', ( #304 ), #134, .F. ) ;
#632 = LINE ( 'NONE', #835, #445 ) ;
#633 = DIRECTION ( 'NONE',  ( 0.000000000000000000, -1.000000000000000000, 0.000000000000000000 ) ) ;
#634 = EDGE_LOOP ( 'NONE', ( #926, #206, #29, #75 ) ) ;
#635 = LINE ( 'NONE', #590, #117 ) ;
#636 = CIRCLE ( 'NONE', #427, 4.549999999999998934 ) ;
#637 = PRODUCT_DEFINITION_FORMATION_WITH_SPECIFIED_SOURCE ( '任何', '', #549, .NOT_KNOWN. ) ;
#638 = AXIS2_PLACEMENT_3D ( 'NONE', #12, #233, #527 ) ;
#639 = DIRECTION ( 'NONE',  ( -0.000000000000000000, 1.000000000000000000, -0.000000000000000000 ) ) ;
#640 = CARTESIAN_POINT ( 'NONE',  ( 0.000000000000000000, 0.000000000000000000, 0.000000000000000000 ) ) ;
#641 = DIRECTION ( 'NONE',  ( 0.000000000000000000, 0.000000000000000000, -1.000000000000000000 ) ) ;
#642 = DIRECTION ( 'NONE',  ( 0.000000000000000000, 0.000000000000000000, 1.000000000000000000 ) ) ;
#643 = VECTOR ( 'NONE', #675, 1000.000000000000000 ) ;
#644 = PLANE ( 'NONE',  #602 ) ;
#645 = EDGE_CURVE ( 'NONE', #962, #80, #471, .T. ) ;
#646 = ORIENTED_EDGE ( 'NONE', *, *, #899, .T. ) ;
#647 = AXIS2_PLACEMENT_3D ( 'NONE', #550, #469, #400 ) ;
#648 = CARTESIAN_POINT ( 'NONE',  ( 0.000000000000000000, 0.5999999999999994227, 0.000000000000000000 ) ) ;
#649 = EDGE_LOOP ( 'NONE', ( #218, #261, #918, #404 ) ) ;
#650 = CARTESIAN_POINT ( 'NONE',  ( 2.000000000000000000, 4.299999999999998934, -1.500000000000000222 ) ) ;
#651 = CARTESIAN_POINT ( 'NONE',  ( 5.200000000000000178, 1.866725419044455991, -0.5000000000000000000 ) ) ;
#652 = DIRECTION ( 'NONE',  ( 0.000000000000000000, -1.000000000000000000, 0.000000000000000000 ) ) ;
#653 = VERTEX_POINT ( 'NONE', #181 ) ;
#654 = EDGE_CURVE ( 'NONE', #953, #592, #890, .T. ) ;
#655 = DIRECTION ( 'NONE',  ( -0.000000000000000000, 1.000000000000000000, -0.000000000000000000 ) ) ;
#656 = DIRECTION ( 'NONE',  ( -0.000000000000000000, 1.000000000000000000, -0.000000000000000000 ) ) ;
#657 = CC_DESIGN_DATE_AND_TIME_ASSIGNMENT ( #141, #801, ( #198 ) ) ;
#658 = AXIS2_PLACEMENT_3D ( 'NONE', #713, #231, #312 ) ;
#659 = EDGE_LOOP ( 'NONE', ( #525, #820 ) ) ;
#660 = FACE_OUTER_BOUND ( 'NONE', #61, .T. ) ;
#661 = VECTOR ( 'NONE', #6, 1000.000000000000000 ) ;
#662 = DIRECTION ( 'NONE',  ( 1.000000000000000000, 0.000000000000000000, 0.000000000000000000 ) ) ;
#663 = ORIENTED_EDGE ( 'NONE', *, *, #685, .F. ) ;
#664 = FACE_OUTER_BOUND ( 'NONE', #810, .T. ) ;
#665 = ORIENTED_EDGE ( 'NONE', *, *, #932, .T. ) ;
#666 = CARTESIAN_POINT ( 'NONE',  ( 0.000000000000000000, 3.799999999999998934, 3.599999999999998757 ) ) ;
#667 = CARTESIAN_POINT ( 'NONE',  ( 5.200000000000000178, 0.5999999999999994227, 0.5000000000000000000 ) ) ;
#668 = EDGE_CURVE ( 'NONE', #129, #352, #834, .T. ) ;
#669 = DIRECTION ( 'NONE',  ( -0.000000000000000000, 1.000000000000000000, -0.000000000000000000 ) ) ;
#670 = CARTESIAN_POINT ( 'NONE',  ( 0.000000000000000000, 4.299999999999998934, 0.000000000000000000 ) ) ;
#671 = APPROVAL_PERSON_ORGANIZATION ( #766, #313, #718 ) ;
#672 = DIRECTION ( 'NONE',  ( -0.000000000000000000, 1.000000000000000000, -0.000000000000000000 ) ) ;
#673 = CARTESIAN_POINT ( 'NONE',  ( -1.796051224213834008, -13.50000000000000000, -1.796051224213828013 ) ) ;
#674 = AXIS2_PLACEMENT_3D ( 'NONE', #950, #571, #641 ) ;
#675 = DIRECTION ( 'NONE',  ( -0.000000000000000000, 1.000000000000000000, -0.000000000000000000 ) ) ;
#676 = CARTESIAN_POINT ( 'NONE',  ( 5.200000000000000178, 1.866725419044455991, 0.5000000000000000000 ) ) ;
#677 = ORIENTED_EDGE ( 'NONE', *, *, #557, .F. ) ;
#678 = ORIENTED_EDGE ( 'NONE', *, *, #828, .F. ) ;
#679 = AXIS2_PLACEMENT_3D ( 'NONE', #324, #961, #826 ) ;
#680 = DIRECTION ( 'NONE',  ( 1.000000000000000000, 0.000000000000000000, 0.000000000000000000 ) ) ;
#681 = FACE_OUTER_BOUND ( 'NONE', #576, .T. ) ;
#682 = FACE_OUTER_BOUND ( 'NONE', #272, .T. ) ;
#683 = DIRECTION ( 'NONE',  ( -0.000000000000000000, 0.000000000000000000, 1.000000000000000000 ) ) ;
#684 = PLANE ( 'NONE',  #503 ) ;
#685 = EDGE_CURVE ( 'NONE', #439, #827, #500, .T. ) ;
#686 = ORIENTED_EDGE ( 'NONE', *, *, #163, .T. ) ;
#687 = AXIS2_PLACEMENT_3D ( 'NONE', #772, #342, #696 ) ;
#688 = CARTESIAN_POINT ( 'NONE',  ( 2.000000000000000000, 4.199999999999999289, 1.499999999999999778 ) ) ;
#689 = CARTESIAN_POINT ( 'NONE',  ( 5.200000000000000178, -2.168404344971008868E-16, -0.4000000000000000222 ) ) ;
#690 = VECTOR ( 'NONE', #343, 1000.000000000000000 ) ;
#691 = CIRCLE ( 'NONE', #447, 4.099999999999998757 ) ;
#692 = CARTESIAN_POINT ( 'NONE',  ( -1.796051224213834008, -13.50000000000000000, -1.571051224213827480 ) ) ;
#693 = DIRECTION ( 'NONE',  ( -0.000000000000000000, 1.000000000000000000, -0.000000000000000000 ) ) ;
#694 = CARTESIAN_POINT ( 'NONE',  ( 2.000000000000000000, 4.199999999999999289, 1.499999999999999778 ) ) ;
#695 = ORIENTED_EDGE ( 'NONE', *, *, #178, .F. ) ;
#696 = DIRECTION ( 'NONE',  ( 0.000000000000000000, -0.000000000000000000, 1.000000000000000000 ) ) ;
#697 = AXIS2_PLACEMENT_3D ( 'NONE', #354, #34, #282 ) ;
#698 = DIRECTION ( 'NONE',  ( 0.000000000000000000, 0.000000000000000000, -1.000000000000000000 ) ) ;
#699 = ORIENTED_EDGE ( 'NONE', *, *, #816, .T. ) ;
#700 = ADVANCED_FACE ( 'NONE', ( #664 ), #951, .T. ) ;
#701 = CARTESIAN_POINT ( 'NONE',  ( 1.796051224213827568, -13.50000000000000000, -1.796051224213834230 ) ) ;
#702 = VERTEX_POINT ( 'NONE', #758 ) ;
#703 = CARTESIAN_POINT ( 'NONE',  ( 2.000000000000000000, 4.199999999999999289, -1.500000000000000222 ) ) ;
#704 = EDGE_CURVE ( 'NONE', #902, #483, #280, .T. ) ;
#705 = LINE ( 'NONE', #650, #391 ) ;
#706 = CARTESIAN_POINT ( 'NONE',  ( 5.299999999999999822, 0.000000000000000000, 0.5000000000000000000 ) ) ;
#707 = ORIENTED_EDGE ( 'NONE', *, *, #92, .T. ) ;
#708 = ORIENTED_EDGE ( 'NONE', *, *, #485, .F. ) ;
#709 = DIRECTION ( 'NONE',  ( 0.000000000000000000, 0.000000000000000000, 1.000000000000000000 ) ) ;
#710 = ADVANCED_FACE ( 'NONE', ( #315 ), #377, .T. ) ;
#711 = PRODUCT_DEFINITION_SHAPE ( 'NONE', 'NONE',  #264 ) ;
#712 = CARTESIAN_POINT ( 'NONE',  ( 0.000000000000000000, 0.5999999999999994227, 4.549999999999998934 ) ) ;
#713 = CARTESIAN_POINT ( 'NONE',  ( 5.299999999999999822, 1.866725419044455991, 0.5000000000000000000 ) ) ;
#714 = CALENDAR_DATE ( 2024, 28, 5 ) ;
#715 = EDGE_CURVE ( 'NONE', #80, #560, #226, .T. ) ;
#716 = AXIS2_PLACEMENT_3D ( 'NONE', #248, #748, #3 ) ;
#717 = CARTESIAN_POINT ( 'NONE',  ( -1.796051224213834008, 0.000000000000000000, -2.021051224213828323 ) ) ;
#718 = APPROVAL_ROLE ( '' ) ;
#719 = ORIENTED_EDGE ( 'NONE', *, *, #704, .F. ) ;
#720 = CARTESIAN_POINT ( 'NONE',  ( 0.000000000000000000, -2.786071468060228170E-16, 0.000000000000000000 ) ) ;
#721 = DIRECTION ( 'NONE',  ( 0.000000000000000000, 0.000000000000000000, 1.000000000000000000 ) ) ;
#722 = CARTESIAN_POINT ( 'NONE',  ( 4.714890176717308529E-16, 4.299999999999998934, -3.599999999999998757 ) ) ;
#723 = ADVANCED_FACE ( 'NONE', ( #71 ), #169, .T. ) ;
#724 = AXIS2_PLACEMENT_3D ( 'NONE', #817, #480, #30 ) ;
#725 = VERTEX_POINT ( 'NONE', #370 ) ;
#726 = DIRECTION ( 'NONE',  ( 0.000000000000000000, 0.000000000000000000, 1.000000000000000000 ) ) ;
#727 = VERTEX_POINT ( 'NONE', #185 ) ;
#728 = DIRECTION ( 'NONE',  ( -0.000000000000000000, 1.000000000000000000, -0.000000000000000000 ) ) ;
#729 = ORIENTED_EDGE ( 'NONE', *, *, #234, .F. ) ;
#730 = LOCAL_TIME ( 16, 55, 26.00000000000000000, #349 ) ;
#731 = LINE ( 'NONE', #948, #661 ) ;
#732 = LINE ( 'NONE', #676, #144 ) ;
#733 = EDGE_CURVE ( 'NONE', #352, #744, #767, .T. ) ;
#734 = ORIENTED_EDGE ( 'NONE', *, *, #785, .T. ) ;
#735 = EDGE_LOOP ( 'NONE', ( #371, #869, #385, #895 ) ) ;
#736 = DIRECTION ( 'NONE',  ( 0.000000000000000000, 0.000000000000000000, -1.000000000000000000 ) ) ;
#737 = EDGE_CURVE ( 'NONE', #727, #560, #927, .T. ) ;
#738 = DIRECTION ( 'NONE',  ( 0.000000000000000000, -1.000000000000000000, 0.000000000000000000 ) ) ;
#739 = DIRECTION ( 'NONE',  ( -0.000000000000000000, 1.000000000000000000, -0.000000000000000000 ) ) ;
#740 = EDGE_LOOP ( 'NONE', ( #257, #507, #814, #678 ) ) ;
#741 = CARTESIAN_POINT ( 'NONE',  ( 4.611127844681818466, 0.5999999999999994227, 0.6000000000000000888 ) ) ;
#742 = FACE_OUTER_BOUND ( 'NONE', #426, .T. ) ;
#743 = DIRECTION ( 'NONE',  ( 0.000000000000000000, 0.000000000000000000, -1.000000000000000000 ) ) ;
#744 = VERTEX_POINT ( 'NONE', #776 ) ;
#745 = VECTOR ( 'NONE', #656, 1000.000000000000000 ) ;
#746 = DIRECTION ( 'NONE',  ( -0.000000000000000000, 1.000000000000000000, -0.000000000000000000 ) ) ;
#747 = ORIENTED_EDGE ( 'NONE', *, *, #836, .T. ) ;
#748 = DIRECTION ( 'NONE',  ( 0.000000000000000000, -1.000000000000000000, 0.000000000000000000 ) ) ;
#749 = VERTEX_POINT ( 'NONE', #510 ) ;
#750 = PLANE ( 'NONE',  #539 ) ;
#751 = EDGE_CURVE ( 'NONE', #827, #893, #364, .T. ) ;
#752 = LINE ( 'NONE', #217, #466 ) ;
#753 = CARTESIAN_POINT ( 'NONE',  ( 5.021051876504146399E-16, 4.299999999999998934, -4.099999999999998757 ) ) ;
#754 = PERSON_AND_ORGANIZATION ( #19, #56 ) ;
#755 = EDGE_CURVE ( 'NONE', #162, #893, #544, .T. ) ;
#756 = CIRCLE ( 'NONE', #818, 4.549999999999998934 ) ;
#757 = DIRECTION ( 'NONE',  ( -1.000000000000000000, -0.000000000000000000, -0.000000000000000000 ) ) ;
#758 = CARTESIAN_POINT ( 'NONE',  ( 5.021051876504146399E-16, 0.5999999999999994227, -4.099999999999998757 ) ) ;
#759 = AXIS2_PLACEMENT_3D ( 'NONE', #689, #479, #194 ) ;
#760 = ORIENTED_EDGE ( 'NONE', *, *, #628, .F. ) ;
#761 = DIRECTION ( 'NONE',  ( -1.000000000000000000, 0.000000000000000000, -0.000000000000000000 ) ) ;
#762 = ORIENTED_EDGE ( 'NONE', *, *, #613, .T. ) ;
#763 = CIRCLE ( 'NONE', #244, 0.5000000000000000000 ) ;
#764 = DIRECTION ( 'NONE',  ( 0.000000000000000000, -1.000000000000000000, 0.000000000000000000 ) ) ;
#765 = ORIENTED_EDGE ( 'NONE', *, *, #42, .T. ) ;
#766 = PERSON_AND_ORGANIZATION ( #19, #56 ) ;
#767 = LINE ( 'NONE', #575, #556 ) ;
#768 = EDGE_CURVE ( 'NONE', #439, #727, #756, .T. ) ;
#769 = CARTESIAN_POINT ( 'NONE',  ( 0.000000000000000000, 4.299999999999998934, 4.099999999999998757 ) ) ;
#770 = VERTEX_POINT ( 'NONE', #225 ) ;
#771 = AXIS2_PLACEMENT_3D ( 'NONE', #36, #366, #210 ) ;
#772 = CARTESIAN_POINT ( 'NONE',  ( 0.000000000000000000, 4.199999999999999289, 0.000000000000000000 ) ) ;
#773 = DIRECTION ( 'NONE',  ( 1.000000000000000000, 0.000000000000000000, -1.084202172485504434E-16 ) ) ;
#774 = ORIENTED_EDGE ( 'NONE', *, *, #867, .F. ) ;
#775 = FACE_BOUND ( 'NONE', #335, .T. ) ;
#776 = CARTESIAN_POINT ( 'NONE',  ( 2.000000000000000000, 4.299999999999998934, -1.500000000000000222 ) ) ;
#777 = FACE_BOUND ( 'NONE', #444, .T. ) ;
#778 = VERTEX_POINT ( 'NONE', #219 ) ;
#779 = ORIENTED_EDGE ( 'NONE', *, *, #685, .T. ) ;
#780 = EDGE_CURVE ( 'NONE', #129, #749, #731, .T. ) ;
#781 = ORIENTED_EDGE ( 'NONE', *, *, #42, .F. ) ;
#782 = ADVANCED_FACE ( 'NONE', ( #223 ), #229, .F. ) ;
#783 = DIRECTION ( 'NONE',  ( 0.000000000000000000, -1.000000000000000000, 0.000000000000000000 ) ) ;
#784 = CARTESIAN_POINT ( 'NONE',  ( 1.796051224213827568, 0.000000000000000000, -2.021051224213834985 ) ) ;
#785 = EDGE_CURVE ( 'NONE', #259, #725, #876, .T. ) ;
#786 = ADVANCED_FACE ( 'NONE', ( #833 ), #530, .T. ) ;
#787 = ORIENTED_EDGE ( 'NONE', *, *, #946, .F. ) ;
#788 = VECTOR ( 'NONE', #669, 1000.000000000000000 ) ;
#789 = DIRECTION ( 'NONE',  ( -0.000000000000000000, 1.000000000000000000, -0.000000000000000000 ) ) ;
#790 = CYLINDRICAL_SURFACE ( 'NONE', #615, 0.2250000000000008105 ) ;
#791 = DIRECTION ( 'NONE',  ( 0.000000000000000000, 0.000000000000000000, 1.000000000000000000 ) ) ;
#792 = ADVANCED_FACE ( 'NONE', ( #240 ), #158, .T. ) ;
#793 = PERSON_AND_ORGANIZATION_ROLE ( 'classification_officer' ) ;
#794 = ORIENTED_EDGE ( 'NONE', *, *, #751, .T. ) ;
#795 = EDGE_CURVE ( 'NONE', #323, #778, #20, .T. ) ;
#796 = ORIENTED_EDGE ( 'NONE', *, *, #234, .T. ) ;
#797 = DIRECTION ( 'NONE',  ( -0.000000000000000000, 1.000000000000000000, -0.000000000000000000 ) ) ;
#798 = APPROVAL_STATUS ( 'not_yet_approved' ) ;
#799 = ORIENTED_EDGE ( 'NONE', *, *, #475, .T. ) ;
#800 = PERSON_AND_ORGANIZATION ( #19, #56 ) ;
#801 = DATE_TIME_ROLE ( 'classification_date' ) ;
#802 = ORIENTED_EDGE ( 'NONE', *, *, #393, .F. ) ;
#803 = EDGE_CURVE ( 'NONE', #702, #725, #293, .T. ) ;
#804 = VECTOR ( 'NONE', #930, 1000.000000000000000 ) ;
#805 = EDGE_CURVE ( 'NONE', #412, #372, #586, .T. ) ;
#806 = VERTEX_POINT ( 'NONE', #322 ) ;
#807 = DIRECTION ( 'NONE',  ( 0.000000000000000000, 0.000000000000000000, 1.000000000000000000 ) ) ;
#808 = CARTESIAN_POINT ( 'NONE',  ( 0.000000000000000000, 4.299999999999998934, 0.000000000000000000 ) ) ;
#809 = AXIS2_PLACEMENT_3D ( 'NONE', #956, #655, #584 ) ;
#810 = EDGE_LOOP ( 'NONE', ( #150, #845, #389, #923 ) ) ;
#811 = VECTOR ( 'NONE', #353, 1000.000000000000000 ) ;
#812 = FACE_OUTER_BOUND ( 'NONE', #160, .T. ) ;
#813 = ORIENTED_EDGE ( 'NONE', *, *, #917, .T. ) ;
#814 = ORIENTED_EDGE ( 'NONE', *, *, #836, .F. ) ;
#815 = CARTESIAN_POINT ( 'NONE',  ( 4.611127844681818466, 0.5999999999999994227, 0.5000000000000000000 ) ) ;
#816 = EDGE_CURVE ( 'NONE', #806, #294, #470, .T. ) ;
#817 = CARTESIAN_POINT ( 'NONE',  ( 5.200000000000000178, 1.866725419044455991, -0.4000000000000000222 ) ) ;
#818 = AXIS2_PLACEMENT_3D ( 'NONE', #73, #739, #807 ) ;
#819 = CARTESIAN_POINT ( 'NONE',  ( -4.099999999999998757, 4.299999999999998934, 0.000000000000000000 ) ) ;
#820 = ORIENTED_EDGE ( 'NONE', *, *, #481, .F. ) ;
#821 = CIRCLE ( 'NONE', #596, 0.2250000000000005884 ) ;
#822 = CARTESIAN_POINT ( 'NONE',  ( 5.299999999999999822, 0.000000000000000000, -0.3999999999999999667 ) ) ;
#823 = CARTESIAN_POINT ( 'NONE',  ( 5.299999999999999822, 0.5999999999999994227, 0.4000000000000000222 ) ) ;
#824 = AXIS2_PLACEMENT_3D ( 'NONE', #421, #652, #207 ) ;
#825 = DIRECTION ( 'NONE',  ( -0.000000000000000000, 1.000000000000000000, -0.000000000000000000 ) ) ;
#826 = DIRECTION ( 'NONE',  ( 0.000000000000000000, 0.000000000000000000, 1.000000000000000000 ) ) ;
#827 = VERTEX_POINT ( 'NONE', #526 ) ;
#828 = EDGE_CURVE ( 'NONE', #494, #367, #908, .T. ) ;
#829 = ORIENTED_EDGE ( 'NONE', *, *, #425, .F. ) ;
#830 = DIRECTION ( 'NONE',  ( -0.000000000000000000, 0.000000000000000000, 1.000000000000000000 ) ) ;
#831 = EDGE_CURVE ( 'NONE', #85, #367, #403, .T. ) ;
#832 = CARTESIAN_POINT ( 'NONE',  ( 1.796051224213827568, -13.50000000000000000, -1.796051224213834230 ) ) ;
#833 = FACE_OUTER_BOUND ( 'NONE', #120, .T. ) ;
#834 = LINE ( 'NONE', #688, #448 ) ;
#835 = CARTESIAN_POINT ( 'NONE',  ( 4.522444029504399943, 0.5999999999999994227, -0.5000000000000000000 ) ) ;
#836 = EDGE_CURVE ( 'NONE', #367, #442, #8, .T. ) ;
#837 = EDGE_CURVE ( 'NONE', #513, #164, #416, .T. ) ;
#838 = AXIS2_PLACEMENT_3D ( 'NONE', #924, #114, #848 ) ;
#839 = EDGE_LOOP ( 'NONE', ( #153, #941 ) ) ;
#840 = ORIENTED_EDGE ( 'NONE', *, *, #119, .T. ) ;
#841 = EDGE_CURVE ( 'NONE', #770, #513, #456, .T. ) ;
#842 = PLANE ( 'NONE',  #687 ) ;
#843 = EDGE_LOOP ( 'NONE', ( #279, #719, #536, #28 ) ) ;
#844 = CIRCLE ( 'NONE', #159, 0.2250000000000005884 ) ;
#845 = ORIENTED_EDGE ( 'NONE', *, *, #785, .F. ) ;
#846 = ADVANCED_FACE ( 'NONE', ( #681 ), #684, .T. ) ;
#847 = EDGE_CURVE ( 'NONE', #294, #653, #623, .T. ) ;
#848 = DIRECTION ( 'NONE',  ( 0.000000000000000000, 0.000000000000000000, -1.000000000000000000 ) ) ;
#849 = CARTESIAN_POINT ( 'NONE',  ( 4.611127844681818466, 4.299999999999998934, 0.6000000000000000888 ) ) ;
#850 = ADVANCED_FACE ( 'NONE', ( #302 ), #189, .T. ) ;
#851 = AXIS2_PLACEMENT_3D ( 'NONE', #446, #147, #441 ) ;
#852 = LINE ( 'NONE', #310, #788 ) ;
#853 = ORIENTED_EDGE ( 'NONE', *, *, #828, .T. ) ;
#854 = ORIENTED_EDGE ( 'NONE', *, *, #54, .F. ) ;
#855 = AXIS2_PLACEMENT_3D ( 'NONE', #577, #866, #436 ) ;
#856 = ADVANCED_FACE ( 'NONE', ( #488 ), #106, .F. ) ;
#857 = ORIENTED_EDGE ( 'NONE', *, *, #481, .T. ) ;
#858 = ORIENTED_EDGE ( 'NONE', *, *, #24, .F. ) ;
#859 = EDGE_CURVE ( 'NONE', #962, #162, #632, .T. ) ;
#860 = DIRECTION ( 'NONE',  ( -0.000000000000000000, 1.000000000000000000, -0.000000000000000000 ) ) ;
#861 = SHAPE_DEFINITION_REPRESENTATION ( #711, #275 ) ;
#862 = AXIS2_PLACEMENT_3D ( 'NONE', #603, #906, #743 ) ;
#863 = PERSON_AND_ORGANIZATION_ROLE ( 'creator' ) ;
#864 = DESIGN_CONTEXT ( 'detailed design', #208, 'design' ) ;
#865 = CARTESIAN_POINT ( 'NONE',  ( -4.549999999999998934, 0.5999999999999994227, 0.000000000000000000 ) ) ;
#866 = DIRECTION ( 'NONE',  ( -0.000000000000000000, 1.000000000000000000, -0.000000000000000000 ) ) ;
#867 = EDGE_CURVE ( 'NONE', #543, #770, #253, .T. ) ;
#868 = CARTESIAN_POINT ( 'NONE',  ( -1.796051224213834008, -13.50000000000000000, -1.796051224213828013 ) ) ;
#869 = ORIENTED_EDGE ( 'NONE', *, *, #599, .F. ) ;
#870 = DIRECTION ( 'NONE',  ( -0.000000000000000000, -0.000000000000000000, 1.000000000000000000 ) ) ;
#871 = DIRECTION ( 'NONE',  ( 0.000000000000000000, 0.000000000000000000, 1.000000000000000000 ) ) ;
#872 = ORIENTED_EDGE ( 'NONE', *, *, #841, .T. ) ;
#873 = ORIENTED_EDGE ( 'NONE', *, *, #79, .T. ) ;
#874 = CIRCLE ( 'NONE', #369, 4.549999999999998934 ) ;
#875 = CYLINDRICAL_SURFACE ( 'NONE', #892, 0.1000000000000000472 ) ;
#876 = CIRCLE ( 'NONE', #318, 4.099999999999998757 ) ;
#877 = EDGE_CURVE ( 'NONE', #437, #502, #844, .T. ) ;
#878 = VERTEX_POINT ( 'NONE', #692 ) ;
#879 = LINE ( 'NONE', #706, #520 ) ;
#880 = EDGE_LOOP ( 'NONE', ( #93, #840, #173, #265, #63, #424, #382, #796, #228, #133 ) ) ;
#881 = ORIENTED_EDGE ( 'NONE', *, *, #831, .F. ) ;
#882 = AXIS2_PLACEMENT_3D ( 'NONE', #123, #358, #791 ) ;
#883 = ORIENTED_EDGE ( 'NONE', *, *, #733, .F. ) ;
#884 = CARTESIAN_POINT ( 'NONE',  ( 5.200000000000000178, 0.000000000000000000, 0.5000000000000000000 ) ) ;
#885 = VECTOR ( 'NONE', #108, 1000.000000000000000 ) ;
#886 = VECTOR ( 'NONE', #578, 1000.000000000000000 ) ;
#887 = EDGE_LOOP ( 'NONE', ( #50, #873, #432, #139 ) ) ;
#888 = CARTESIAN_POINT ( 'NONE',  ( 1.796051224213827568, 0.000000000000000000, -1.571051224213833475 ) ) ;
#889 = LINE ( 'NONE', #562, #690 ) ;
#890 = LINE ( 'NONE', #16, #565 ) ;
#891 = DIRECTION ( 'NONE',  ( 0.000000000000000000, 0.000000000000000000, 1.000000000000000000 ) ) ;
#892 = AXIS2_PLACEMENT_3D ( 'NONE', #849, #561, #709 ) ;
#893 = VERTEX_POINT ( 'NONE', #612 ) ;
#894 = CARTESIAN_POINT ( 'NONE',  ( 2.000000000000000000, 4.199999999999999289, 1.499999999999999778 ) ) ;
#895 = ORIENTED_EDGE ( 'NONE', *, *, #847, .F. ) ;
#896 = DIRECTION ( 'NONE',  ( 0.000000000000000000, 0.000000000000000000, -1.000000000000000000 ) ) ;
#897 = CARTESIAN_POINT ( 'NONE',  ( 5.200000000000000178, -2.168404344971008868E-16, 0.4000000000000000222 ) ) ;
#898 = CARTESIAN_POINT ( 'NONE',  ( 0.000000000000000000, 4.299999999999998934, 0.000000000000000000 ) ) ;
#899 = EDGE_CURVE ( 'NONE', #770, #543, #57, .T. ) ;
#900 = CARTESIAN_POINT ( 'NONE',  ( 4.611127844681818466, -8.673617379884035472E-16, 0.5000000000000000000 ) ) ;
#901 = ORIENTED_EDGE ( 'NONE', *, *, #516, .T. ) ;
#902 = VERTEX_POINT ( 'NONE', #116 ) ;
#903 = DIRECTION ( 'NONE',  ( -0.000000000000000000, 1.000000000000000000, -0.000000000000000000 ) ) ;
#904 = ORIENTED_EDGE ( 'NONE', *, *, #599, .T. ) ;
#905 = PERSON_AND_ORGANIZATION ( #19, #56 ) ;
#906 = DIRECTION ( 'NONE',  ( 1.000000000000000000, 0.000000000000000000, 0.000000000000000000 ) ) ;
#907 = VERTEX_POINT ( 'NONE', #625 ) ;
#908 = LINE ( 'NONE', #900, #555 ) ;
#909 = FACE_BOUND ( 'NONE', #99, .T. ) ;
#910 = AXIS2_PLACEMENT_3D ( 'NONE', #819, #320, #891 ) ;
#911 = ORIENTED_EDGE ( 'NONE', *, *, #837, .T. ) ;
#912 = DIRECTION ( 'NONE',  ( -1.000000000000000000, 0.000000000000000000, -0.000000000000000000 ) ) ;
#913 = ORIENTED_EDGE ( 'NONE', *, *, #803, .T. ) ;
#914 = COORDINATED_UNIVERSAL_TIME_OFFSET ( 8, 0, .AHEAD. ) ;
#915 = DIRECTION ( 'NONE',  ( 0.000000000000000000, -1.000000000000000000, 0.000000000000000000 ) ) ;
#916 = VECTOR ( 'NONE', #662, 1000.000000000000000 ) ;
#917 = EDGE_CURVE ( 'NONE', #778, #323, #821, .T. ) ;
#918 = ORIENTED_EDGE ( 'NONE', *, *, #305, .F. ) ;
#919 = UNCERTAINTY_MEASURE_WITH_UNIT (LENGTH_MEASURE( 1.000000000000000082E-05 ), #135, 'distance_accuracy_value', 'NONE');
#920 = EDGE_CURVE ( 'NONE', #588, #702, #91, .T. ) ;
#921 = ADVANCED_FACE ( 'NONE', ( #70 ), #875, .F. ) ;
#922 = APPROVAL ( #51, '未指定' ) ;
#923 = ORIENTED_EDGE ( 'NONE', *, *, #197, .F. ) ;
#924 = CARTESIAN_POINT ( 'NONE',  ( -1.796051224213834008, -0.000000000000000000, -1.796051224213828013 ) ) ;
#925 = DIRECTION ( 'NONE',  ( 0.000000000000000000, 0.000000000000000000, -1.000000000000000000 ) ) ;
#926 = ORIENTED_EDGE ( 'NONE', *, *, #795, .F. ) ;
#927 = LINE ( 'NONE', #433, #745 ) ;
#928 = TOROIDAL_SURFACE ( 'NONE', #413, 3.599999999999998757, 0.5000000000000000000 ) ;
#929 = ADVANCED_FACE ( 'NONE', ( #373 ), #124, .F. ) ;
#930 = DIRECTION ( 'NONE',  ( -1.000000000000000000, 0.000000000000000000, 1.626303258728256651E-16 ) ) ;
#931 = ORIENTED_EDGE ( 'NONE', *, *, #803, .F. ) ;
#932 = EDGE_CURVE ( 'NONE', #878, #348, #889, .T. ) ;
#933 = CARTESIAN_POINT ( 'NONE',  ( 2.000000000000000000, 4.199999999999999289, -1.500000000000000222 ) ) ;
#934 = ADVANCED_FACE ( 'NONE', ( #336 ), #328, .T. ) ;
#935 = PLANE ( 'NONE',  #288 ) ;
#936 = AXIS2_PLACEMENT_3D ( 'NONE', #254, #397, #611 ) ;
#937 = EDGE_LOOP ( 'NONE', ( #802, #829, #121, #395 ) ) ;
#938 = ADVANCED_FACE ( 'NONE', ( #742 ), #959, .T. ) ;
#939 = CIRCLE ( 'NONE', #464, 0.09999999999999999167 ) ;
#940 = ORIENTED_EDGE ( 'NONE', *, *, #847, .T. ) ;
#941 = ORIENTED_EDGE ( 'NONE', *, *, #877, .F. ) ;
#942 = APPROVAL_ROLE ( '' ) ;
#943 = ORIENTED_EDGE ( 'NONE', *, *, #795, .T. ) ;
#944 = DIRECTION ( 'NONE',  ( -0.000000000000000000, 1.000000000000000000, 0.000000000000000000 ) ) ;
#945 = CARTESIAN_POINT ( 'NONE',  ( 4.611127844681818466, 0.5999999999999994227, -0.5000000000000000000 ) ) ;
#946 = EDGE_CURVE ( 'NONE', #483, #592, #180, .T. ) ;
#947 = ORIENTED_EDGE ( 'NONE', *, *, #751, .F. ) ;
#948 = CARTESIAN_POINT ( 'NONE',  ( 2.000000000000000000, 4.199999999999999289, 1.499999999999999778 ) ) ;
#949 = COORDINATED_UNIVERSAL_TIME_OFFSET ( 8, 0, .AHEAD. ) ;
#950 = CARTESIAN_POINT ( 'NONE',  ( -1.796051224213827791, 0.000000000000000000, 1.796051224213834230 ) ) ;
#951 = TOROIDAL_SURFACE ( 'NONE', #94, 3.599999999999998757, 0.5000000000000000000 ) ;
#952 = DIRECTION ( 'NONE',  ( 1.000000000000000000, 0.000000000000000000, 0.000000000000000000 ) ) ;
#953 = VERTEX_POINT ( 'NONE', #285 ) ;
#954 = AXIS2_PLACEMENT_3D ( 'NONE', #263, #22, #258 ) ;
#955 = DIRECTION ( 'NONE',  ( 0.000000000000000000, 0.000000000000000000, 1.000000000000000000 ) ) ;
#956 = CARTESIAN_POINT ( 'NONE',  ( 0.000000000000000000, 4.299999999999998934, 0.000000000000000000 ) ) ;
#957 = CARTESIAN_POINT ( 'NONE',  ( -1.796051224213834008, -13.50000000000000000, -2.021051224213828323 ) ) ;
#958 = MANIFOLD_SOLID_BREP ( '切除-拉伸1', #88 ) ;
#959 = CYLINDRICAL_SURFACE ( 'NONE', #855, 4.099999999999998757 ) ;
#960 = CARTESIAN_POINT ( 'NONE',  ( 4.511963805011241391, -8.673617379884035472E-16, 0.5870967741935484430 ) ) ;
#961 = DIRECTION ( 'NONE',  ( -0.000000000000000000, 1.000000000000000000, -0.000000000000000000 ) ) ;
#962 = VERTEX_POINT ( 'NONE', #945 ) ;
#963 = DIRECTION ( 'NONE',  ( 0.000000000000000000, 0.000000000000000000, 1.000000000000000000 ) ) ;
ENDSEC;
END-ISO-10303-21;
