ISO-10303-21;
HEADER;
FILE_DESCRIPTION((''),'2;1');
FILE_NAME('PRT0001','2022-04-15T11:58:01',('fyq'),(''),
'CREO PARAMETRIC BY PTC INC, 2020033','CREO PARAMETRIC BY PTC INC, 2020033','');
FILE_SCHEMA(('CONFIG_CONTROL_DESIGN'));
ENDSEC;
DATA;
#1=DIRECTION('',(1.E0,0.E0,0.E0));
#2=VECTOR('',#1,2.5E-1);
#3=CARTESIAN_POINT('',(-4.5E0,0.E0,-2.7E0));
#4=LINE('',#3,#2);
#5=DIRECTION('',(0.E0,0.E0,1.E0));
#6=VECTOR('',#5,1.5E0);
#7=CARTESIAN_POINT('',(-4.25E0,0.E0,-2.7E0));
#8=LINE('',#7,#6);
#9=DIRECTION('',(1.E0,0.E0,0.E0));
#10=VECTOR('',#9,2.5E-1);
#11=CARTESIAN_POINT('',(-4.5E0,0.E0,-1.2E0));
#12=LINE('',#11,#10);
#13=DIRECTION('',(0.E0,0.E0,1.E0));
#14=VECTOR('',#13,1.2E0);
#15=CARTESIAN_POINT('',(-4.5E0,0.E0,-1.2E0));
#16=LINE('',#15,#14);
#17=DIRECTION('',(1.E0,0.E0,0.E0));
#18=VECTOR('',#17,9.E0);
#19=CARTESIAN_POINT('',(-4.5E0,0.E0,0.E0));
#20=LINE('',#19,#18);
#21=DIRECTION('',(0.E0,0.E0,-1.E0));
#22=VECTOR('',#21,1.2E0);
#23=CARTESIAN_POINT('',(4.5E0,0.E0,0.E0));
#24=LINE('',#23,#22);
#25=DIRECTION('',(-1.E0,0.E0,0.E0));
#26=VECTOR('',#25,2.5E-1);
#27=CARTESIAN_POINT('',(4.5E0,0.E0,-1.2E0));
#28=LINE('',#27,#26);
#29=DIRECTION('',(0.E0,0.E0,-1.E0));
#30=VECTOR('',#29,1.5E0);
#31=CARTESIAN_POINT('',(4.25E0,0.E0,-1.2E0));
#32=LINE('',#31,#30);
#33=DIRECTION('',(-1.E0,0.E0,0.E0));
#34=VECTOR('',#33,2.5E-1);
#35=CARTESIAN_POINT('',(4.5E0,0.E0,-2.7E0));
#36=LINE('',#35,#34);
#37=DIRECTION('',(0.E0,0.E0,-1.E0));
#38=VECTOR('',#37,2.4E0);
#39=CARTESIAN_POINT('',(4.5E0,0.E0,-2.7E0));
#40=LINE('',#39,#38);
#41=DIRECTION('',(0.E0,0.E0,1.E0));
#42=VECTOR('',#41,2.4E0);
#43=CARTESIAN_POINT('',(-4.5E0,0.E0,-5.1E0));
#44=LINE('',#43,#42);
#45=DIRECTION('',(1.E0,0.E0,0.E0));
#46=VECTOR('',#45,2.5E-1);
#47=CARTESIAN_POINT('',(-4.5E0,3.5E0,-2.7E0));
#48=LINE('',#47,#46);
#49=DIRECTION('',(1.E0,0.E0,0.E0));
#50=VECTOR('',#49,5.E-1);
#51=CARTESIAN_POINT('',(-5.E0,3.5E0,-2.7E0));
#52=LINE('',#51,#50);
#53=DIRECTION('',(0.E0,0.E0,-1.E0));
#54=VECTOR('',#53,1.5E0);
#55=CARTESIAN_POINT('',(-5.E0,3.5E0,-1.2E0));
#56=LINE('',#55,#54);
#57=DIRECTION('',(-1.E0,0.E0,0.E0));
#58=VECTOR('',#57,5.E-1);
#59=CARTESIAN_POINT('',(-4.5E0,3.5E0,-1.2E0));
#60=LINE('',#59,#58);
#61=DIRECTION('',(-1.E0,0.E0,0.E0));
#62=VECTOR('',#61,5.E-1);
#63=CARTESIAN_POINT('',(5.E0,3.5E0,-1.2E0));
#64=LINE('',#63,#62);
#65=DIRECTION('',(0.E0,0.E0,1.E0));
#66=VECTOR('',#65,1.5E0);
#67=CARTESIAN_POINT('',(5.E0,3.5E0,-2.7E0));
#68=LINE('',#67,#66);
#69=DIRECTION('',(1.E0,0.E0,0.E0));
#70=VECTOR('',#69,5.E-1);
#71=CARTESIAN_POINT('',(4.5E0,3.5E0,-2.7E0));
#72=LINE('',#71,#70);
#73=DIRECTION('',(0.E0,-1.E0,0.E0));
#74=VECTOR('',#73,2.E-1);
#75=CARTESIAN_POINT('',(-5.E0,3.7E0,-2.7E0));
#76=LINE('',#75,#74);
#77=DIRECTION('',(0.E0,-1.E0,0.E0));
#78=VECTOR('',#77,2.E-1);
#79=CARTESIAN_POINT('',(-4.5E0,3.7E0,-2.7E0));
#80=LINE('',#79,#78);
#81=DIRECTION('',(0.E0,1.E0,0.E0));
#82=VECTOR('',#81,3.5E0);
#83=CARTESIAN_POINT('',(-4.5E0,0.E0,-2.7E0));
#84=LINE('',#83,#82);
#85=DIRECTION('',(0.E0,1.E0,0.E0));
#86=VECTOR('',#85,2.E0);
#87=CARTESIAN_POINT('',(-4.5E0,0.E0,-5.1E0));
#88=LINE('',#87,#86);
#89=DIRECTION('',(0.E0,-4.856429311786E-1,8.741572761215E-1));
#90=VECTOR('',#89,1.029563014099E0);
#91=CARTESIAN_POINT('',(-4.5E0,2.5E0,-6.E0));
#92=LINE('',#91,#90);
#93=DIRECTION('',(0.E0,1.E0,0.E0));
#94=VECTOR('',#93,1.2E0);
#95=CARTESIAN_POINT('',(-4.5E0,2.5E0,-6.E0));
#96=LINE('',#95,#94);
#97=DIRECTION('',(0.E0,-1.E0,0.E0));
#98=VECTOR('',#97,2.E-1);
#99=CARTESIAN_POINT('',(-4.5E0,3.7E0,-1.2E0));
#100=LINE('',#99,#98);
#101=DIRECTION('',(0.E0,1.E0,0.E0));
#102=VECTOR('',#101,3.5E0);
#103=CARTESIAN_POINT('',(-4.5E0,0.E0,-1.2E0));
#104=LINE('',#103,#102);
#105=DIRECTION('',(-1.E0,0.E0,0.E0));
#106=VECTOR('',#105,5.E-1);
#107=CARTESIAN_POINT('',(-4.E0,2.E0,-5.1E0));
#108=LINE('',#107,#106);
#109=DIRECTION('',(1.E0,0.E0,0.E0));
#110=VECTOR('',#109,9.E0);
#111=CARTESIAN_POINT('',(-4.5E0,0.E0,-5.1E0));
#112=LINE('',#111,#110);
#113=DIRECTION('',(-1.E0,0.E0,0.E0));
#114=VECTOR('',#113,5.E-1);
#115=CARTESIAN_POINT('',(4.5E0,2.E0,-5.1E0));
#116=LINE('',#115,#114);
#117=DIRECTION('',(0.E0,1.E0,0.E0));
#118=VECTOR('',#117,1.7E0);
#119=CARTESIAN_POINT('',(4.E0,2.E0,-5.1E0));
#120=LINE('',#119,#118);
#121=DIRECTION('',(0.E0,-1.E0,0.E0));
#122=VECTOR('',#121,5.E-1);
#123=CARTESIAN_POINT('',(2.5E0,3.7E0,-5.1E0));
#124=LINE('',#123,#122);
#125=DIRECTION('',(1.E0,0.E0,0.E0));
#126=VECTOR('',#125,5.E-1);
#127=CARTESIAN_POINT('',(2.E0,3.2E0,-5.1E0));
#128=LINE('',#127,#126);
#129=DIRECTION('',(0.E0,-1.E0,0.E0));
#130=VECTOR('',#129,5.E-1);
#131=CARTESIAN_POINT('',(2.E0,3.7E0,-5.1E0));
#132=LINE('',#131,#130);
#133=DIRECTION('',(0.E0,-1.E0,0.E0));
#134=VECTOR('',#133,5.E-1);
#135=CARTESIAN_POINT('',(1.E0,3.7E0,-5.1E0));
#136=LINE('',#135,#134);
#137=DIRECTION('',(1.E0,0.E0,0.E0));
#138=VECTOR('',#137,5.E-1);
#139=CARTESIAN_POINT('',(5.E-1,3.2E0,-5.1E0));
#140=LINE('',#139,#138);
#141=DIRECTION('',(0.E0,-1.E0,0.E0));
#142=VECTOR('',#141,5.E-1);
#143=CARTESIAN_POINT('',(5.E-1,3.7E0,-5.1E0));
#144=LINE('',#143,#142);
#145=DIRECTION('',(0.E0,-1.E0,0.E0));
#146=VECTOR('',#145,5.E-1);
#147=CARTESIAN_POINT('',(-5.E-1,3.7E0,-5.1E0));
#148=LINE('',#147,#146);
#149=DIRECTION('',(1.E0,0.E0,0.E0));
#150=VECTOR('',#149,5.E-1);
#151=CARTESIAN_POINT('',(-1.E0,3.2E0,-5.1E0));
#152=LINE('',#151,#150);
#153=DIRECTION('',(0.E0,-1.E0,0.E0));
#154=VECTOR('',#153,5.E-1);
#155=CARTESIAN_POINT('',(-1.E0,3.7E0,-5.1E0));
#156=LINE('',#155,#154);
#157=DIRECTION('',(0.E0,-1.E0,0.E0));
#158=VECTOR('',#157,5.E-1);
#159=CARTESIAN_POINT('',(-2.E0,3.7E0,-5.1E0));
#160=LINE('',#159,#158);
#161=DIRECTION('',(1.E0,0.E0,0.E0));
#162=VECTOR('',#161,5.E-1);
#163=CARTESIAN_POINT('',(-2.5E0,3.2E0,-5.1E0));
#164=LINE('',#163,#162);
#165=DIRECTION('',(0.E0,-1.E0,0.E0));
#166=VECTOR('',#165,5.E-1);
#167=CARTESIAN_POINT('',(-2.5E0,3.7E0,-5.1E0));
#168=LINE('',#167,#166);
#169=DIRECTION('',(0.E0,4.856429311786E-1,-8.741572761215E-1));
#170=VECTOR('',#169,1.029563014099E0);
#171=CARTESIAN_POINT('',(-4.E0,2.E0,-5.1E0));
#172=LINE('',#171,#170);
#173=DIRECTION('',(0.E0,1.E0,0.E0));
#174=VECTOR('',#173,1.7E0);
#175=CARTESIAN_POINT('',(-4.E0,2.E0,-5.1E0));
#176=LINE('',#175,#174);
#177=DIRECTION('',(0.E0,0.E0,-1.E0));
#178=VECTOR('',#177,3.3E0);
#179=CARTESIAN_POINT('',(4.5E0,3.7E0,-2.7E0));
#180=LINE('',#179,#178);
#181=DIRECTION('',(1.E0,0.E0,0.E0));
#182=VECTOR('',#181,5.E-1);
#183=CARTESIAN_POINT('',(4.5E0,3.7E0,-2.7E0));
#184=LINE('',#183,#182);
#185=DIRECTION('',(0.E0,0.E0,1.E0));
#186=VECTOR('',#185,1.5E0);
#187=CARTESIAN_POINT('',(5.E0,3.7E0,-2.7E0));
#188=LINE('',#187,#186);
#189=DIRECTION('',(-1.E0,0.E0,0.E0));
#190=VECTOR('',#189,5.E-1);
#191=CARTESIAN_POINT('',(5.E0,3.7E0,-1.2E0));
#192=LINE('',#191,#190);
#193=DIRECTION('',(0.E0,0.E0,-1.E0));
#194=VECTOR('',#193,1.2E0);
#195=CARTESIAN_POINT('',(4.5E0,3.7E0,0.E0));
#196=LINE('',#195,#194);
#197=DIRECTION('',(1.E0,0.E0,0.E0));
#198=VECTOR('',#197,9.E0);
#199=CARTESIAN_POINT('',(-4.5E0,3.7E0,0.E0));
#200=LINE('',#199,#198);
#201=DIRECTION('',(0.E0,0.E0,1.E0));
#202=VECTOR('',#201,1.2E0);
#203=CARTESIAN_POINT('',(-4.5E0,3.7E0,-1.2E0));
#204=LINE('',#203,#202);
#205=DIRECTION('',(-1.E0,0.E0,0.E0));
#206=VECTOR('',#205,5.E-1);
#207=CARTESIAN_POINT('',(-4.5E0,3.7E0,-1.2E0));
#208=LINE('',#207,#206);
#209=DIRECTION('',(0.E0,0.E0,-1.E0));
#210=VECTOR('',#209,1.5E0);
#211=CARTESIAN_POINT('',(-5.E0,3.7E0,-1.2E0));
#212=LINE('',#211,#210);
#213=DIRECTION('',(1.E0,0.E0,0.E0));
#214=VECTOR('',#213,5.E-1);
#215=CARTESIAN_POINT('',(-5.E0,3.7E0,-2.7E0));
#216=LINE('',#215,#214);
#217=DIRECTION('',(0.E0,0.E0,1.E0));
#218=VECTOR('',#217,3.3E0);
#219=CARTESIAN_POINT('',(-4.5E0,3.7E0,-6.E0));
#220=LINE('',#219,#218);
#221=DIRECTION('',(-1.E0,0.E0,0.E0));
#222=VECTOR('',#221,5.E-1);
#223=CARTESIAN_POINT('',(-4.E0,3.7E0,-6.E0));
#224=LINE('',#223,#222);
#225=DIRECTION('',(0.E0,0.E0,1.E0));
#226=VECTOR('',#225,9.E-1);
#227=CARTESIAN_POINT('',(-4.E0,3.7E0,-6.E0));
#228=LINE('',#227,#226);
#229=DIRECTION('',(-1.E0,0.E0,0.E0));
#230=VECTOR('',#229,1.5E0);
#231=CARTESIAN_POINT('',(-2.5E0,3.7E0,-5.1E0));
#232=LINE('',#231,#230);
#233=DIRECTION('',(0.E0,0.E0,-1.E0));
#234=VECTOR('',#233,9.E-1);
#235=CARTESIAN_POINT('',(-2.5E0,3.7E0,-5.1E0));
#236=LINE('',#235,#234);
#237=DIRECTION('',(1.E0,0.E0,0.E0));
#238=VECTOR('',#237,5.E-1);
#239=CARTESIAN_POINT('',(-2.5E0,3.7E0,-6.E0));
#240=LINE('',#239,#238);
#241=DIRECTION('',(0.E0,0.E0,1.E0));
#242=VECTOR('',#241,9.E-1);
#243=CARTESIAN_POINT('',(-2.E0,3.7E0,-6.E0));
#244=LINE('',#243,#242);
#245=DIRECTION('',(-1.E0,0.E0,0.E0));
#246=VECTOR('',#245,1.E0);
#247=CARTESIAN_POINT('',(-1.E0,3.7E0,-5.1E0));
#248=LINE('',#247,#246);
#249=DIRECTION('',(0.E0,0.E0,-1.E0));
#250=VECTOR('',#249,9.E-1);
#251=CARTESIAN_POINT('',(-1.E0,3.7E0,-5.1E0));
#252=LINE('',#251,#250);
#253=DIRECTION('',(1.E0,0.E0,0.E0));
#254=VECTOR('',#253,5.E-1);
#255=CARTESIAN_POINT('',(-1.E0,3.7E0,-6.E0));
#256=LINE('',#255,#254);
#257=DIRECTION('',(0.E0,0.E0,1.E0));
#258=VECTOR('',#257,9.E-1);
#259=CARTESIAN_POINT('',(-5.E-1,3.7E0,-6.E0));
#260=LINE('',#259,#258);
#261=DIRECTION('',(-1.E0,0.E0,0.E0));
#262=VECTOR('',#261,1.E0);
#263=CARTESIAN_POINT('',(5.E-1,3.7E0,-5.1E0));
#264=LINE('',#263,#262);
#265=DIRECTION('',(0.E0,0.E0,-1.E0));
#266=VECTOR('',#265,9.E-1);
#267=CARTESIAN_POINT('',(5.E-1,3.7E0,-5.1E0));
#268=LINE('',#267,#266);
#269=DIRECTION('',(1.E0,0.E0,0.E0));
#270=VECTOR('',#269,5.E-1);
#271=CARTESIAN_POINT('',(5.E-1,3.7E0,-6.E0));
#272=LINE('',#271,#270);
#273=DIRECTION('',(0.E0,0.E0,1.E0));
#274=VECTOR('',#273,9.E-1);
#275=CARTESIAN_POINT('',(1.E0,3.7E0,-6.E0));
#276=LINE('',#275,#274);
#277=DIRECTION('',(-1.E0,0.E0,0.E0));
#278=VECTOR('',#277,1.E0);
#279=CARTESIAN_POINT('',(2.E0,3.7E0,-5.1E0));
#280=LINE('',#279,#278);
#281=DIRECTION('',(0.E0,0.E0,-1.E0));
#282=VECTOR('',#281,9.E-1);
#283=CARTESIAN_POINT('',(2.E0,3.7E0,-5.1E0));
#284=LINE('',#283,#282);
#285=DIRECTION('',(1.E0,0.E0,0.E0));
#286=VECTOR('',#285,5.E-1);
#287=CARTESIAN_POINT('',(2.E0,3.7E0,-6.E0));
#288=LINE('',#287,#286);
#289=DIRECTION('',(0.E0,0.E0,1.E0));
#290=VECTOR('',#289,9.E-1);
#291=CARTESIAN_POINT('',(2.5E0,3.7E0,-6.E0));
#292=LINE('',#291,#290);
#293=DIRECTION('',(-1.E0,0.E0,0.E0));
#294=VECTOR('',#293,1.5E0);
#295=CARTESIAN_POINT('',(4.E0,3.7E0,-5.1E0));
#296=LINE('',#295,#294);
#297=DIRECTION('',(0.E0,0.E0,1.E0));
#298=VECTOR('',#297,9.E-1);
#299=CARTESIAN_POINT('',(4.E0,3.7E0,-6.E0));
#300=LINE('',#299,#298);
#301=DIRECTION('',(-1.E0,0.E0,0.E0));
#302=VECTOR('',#301,5.E-1);
#303=CARTESIAN_POINT('',(4.5E0,3.7E0,-6.E0));
#304=LINE('',#303,#302);
#305=DIRECTION('',(0.E0,-1.E0,0.E0));
#306=VECTOR('',#305,2.E-1);
#307=CARTESIAN_POINT('',(4.5E0,3.7E0,-1.2E0));
#308=LINE('',#307,#306);
#309=DIRECTION('',(0.E0,1.E0,0.E0));
#310=VECTOR('',#309,3.5E0);
#311=CARTESIAN_POINT('',(4.5E0,0.E0,-1.2E0));
#312=LINE('',#311,#310);
#313=DIRECTION('',(0.E0,1.E0,0.E0));
#314=VECTOR('',#313,3.7E0);
#315=CARTESIAN_POINT('',(4.5E0,0.E0,0.E0));
#316=LINE('',#315,#314);
#317=DIRECTION('',(0.E0,-1.E0,0.E0));
#318=VECTOR('',#317,2.E-1);
#319=CARTESIAN_POINT('',(4.5E0,3.7E0,-2.7E0));
#320=LINE('',#319,#318);
#321=DIRECTION('',(0.E0,4.856429311786E-1,-8.741572761215E-1));
#322=VECTOR('',#321,1.029563014099E0);
#323=CARTESIAN_POINT('',(4.5E0,2.E0,-5.1E0));
#324=LINE('',#323,#322);
#325=DIRECTION('',(0.E0,1.E0,0.E0));
#326=VECTOR('',#325,2.E0);
#327=CARTESIAN_POINT('',(4.5E0,0.E0,-5.1E0));
#328=LINE('',#327,#326);
#329=DIRECTION('',(0.E0,1.E0,0.E0));
#330=VECTOR('',#329,3.5E0);
#331=CARTESIAN_POINT('',(4.5E0,0.E0,-2.7E0));
#332=LINE('',#331,#330);
#333=DIRECTION('',(0.E0,-1.E0,0.E0));
#334=VECTOR('',#333,2.E-1);
#335=CARTESIAN_POINT('',(5.E0,3.7E0,-1.2E0));
#336=LINE('',#335,#334);
#337=DIRECTION('',(0.E0,-1.E0,0.E0));
#338=VECTOR('',#337,2.E-1);
#339=CARTESIAN_POINT('',(5.E0,3.7E0,-2.7E0));
#340=LINE('',#339,#338);
#341=DIRECTION('',(-1.E0,0.E0,0.E0));
#342=VECTOR('',#341,2.5E-1);
#343=CARTESIAN_POINT('',(4.5E0,3.5E0,-1.2E0));
#344=LINE('',#343,#342);
#345=DIRECTION('',(0.E0,0.E0,-1.E0));
#346=VECTOR('',#345,1.5E0);
#347=CARTESIAN_POINT('',(4.25E0,3.5E0,-1.2E0));
#348=LINE('',#347,#346);
#349=DIRECTION('',(0.E0,1.E0,0.E0));
#350=VECTOR('',#349,3.5E0);
#351=CARTESIAN_POINT('',(4.25E0,0.E0,-1.2E0));
#352=LINE('',#351,#350);
#353=DIRECTION('',(1.E0,0.E0,0.E0));
#354=VECTOR('',#353,2.5E-1);
#355=CARTESIAN_POINT('',(4.25E0,3.5E0,-2.7E0));
#356=LINE('',#355,#354);
#357=DIRECTION('',(0.E0,1.E0,0.E0));
#358=VECTOR('',#357,3.5E0);
#359=CARTESIAN_POINT('',(4.25E0,0.E0,-2.7E0));
#360=LINE('',#359,#358);
#361=DIRECTION('',(0.E0,1.E0,0.E0));
#362=VECTOR('',#361,3.7E0);
#363=CARTESIAN_POINT('',(-4.5E0,0.E0,0.E0));
#364=LINE('',#363,#362);
#365=DIRECTION('',(0.E0,-1.E0,0.E0));
#366=VECTOR('',#365,2.9E0);
#367=CARTESIAN_POINT('',(-3.3E0,3.3E0,0.E0));
#368=LINE('',#367,#366);
#369=DIRECTION('',(1.E0,0.E0,0.E0));
#370=VECTOR('',#369,6.6E0);
#371=CARTESIAN_POINT('',(-3.3E0,4.E-1,0.E0));
#372=LINE('',#371,#370);
#373=DIRECTION('',(0.E0,1.E0,0.E0));
#374=VECTOR('',#373,2.9E0);
#375=CARTESIAN_POINT('',(3.3E0,4.E-1,0.E0));
#376=LINE('',#375,#374);
#377=DIRECTION('',(-1.E0,0.E0,0.E0));
#378=VECTOR('',#377,6.6E0);
#379=CARTESIAN_POINT('',(3.3E0,3.3E0,0.E0));
#380=LINE('',#379,#378);
#381=DIRECTION('',(0.E0,0.E0,-1.E0));
#382=VECTOR('',#381,4.E0);
#383=CARTESIAN_POINT('',(-3.3E0,3.3E0,0.E0));
#384=LINE('',#383,#382);
#385=DIRECTION('',(0.E0,0.E0,-1.E0));
#386=VECTOR('',#385,4.E0);
#387=CARTESIAN_POINT('',(3.3E0,3.3E0,0.E0));
#388=LINE('',#387,#386);
#389=DIRECTION('',(0.E0,0.E0,-1.E0));
#390=VECTOR('',#389,4.E0);
#391=CARTESIAN_POINT('',(3.3E0,4.E-1,0.E0));
#392=LINE('',#391,#390);
#393=DIRECTION('',(0.E0,0.E0,-1.E0));
#394=VECTOR('',#393,4.E0);
#395=CARTESIAN_POINT('',(-3.3E0,4.E-1,0.E0));
#396=LINE('',#395,#394);
#397=DIRECTION('',(0.E0,-1.E0,0.E0));
#398=VECTOR('',#397,2.9E0);
#399=CARTESIAN_POINT('',(-3.3E0,3.3E0,-4.E0));
#400=LINE('',#399,#398);
#401=DIRECTION('',(-1.E0,0.E0,0.E0));
#402=VECTOR('',#401,6.6E0);
#403=CARTESIAN_POINT('',(3.3E0,3.3E0,-4.E0));
#404=LINE('',#403,#402);
#405=DIRECTION('',(0.E0,1.E0,0.E0));
#406=VECTOR('',#405,2.9E0);
#407=CARTESIAN_POINT('',(3.3E0,4.E-1,-4.E0));
#408=LINE('',#407,#406);
#409=DIRECTION('',(1.E0,0.E0,0.E0));
#410=VECTOR('',#409,6.6E0);
#411=CARTESIAN_POINT('',(-3.3E0,4.E-1,-4.E0));
#412=LINE('',#411,#410);
#413=DIRECTION('',(0.E0,1.E0,0.E0));
#414=VECTOR('',#413,5.E-1);
#415=CARTESIAN_POINT('',(2.5E0,1.1E0,-4.E0));
#416=LINE('',#415,#414);
#417=DIRECTION('',(-1.E0,0.E0,0.E0));
#418=VECTOR('',#417,5.E-1);
#419=CARTESIAN_POINT('',(2.5E0,1.6E0,-4.E0));
#420=LINE('',#419,#418);
#421=DIRECTION('',(0.E0,-1.E0,0.E0));
#422=VECTOR('',#421,5.E-1);
#423=CARTESIAN_POINT('',(2.E0,1.6E0,-4.E0));
#424=LINE('',#423,#422);
#425=DIRECTION('',(1.E0,0.E0,0.E0));
#426=VECTOR('',#425,5.E-1);
#427=CARTESIAN_POINT('',(2.E0,1.1E0,-4.E0));
#428=LINE('',#427,#426);
#429=DIRECTION('',(0.E0,1.E0,0.E0));
#430=VECTOR('',#429,5.E-1);
#431=CARTESIAN_POINT('',(1.E0,1.1E0,-4.E0));
#432=LINE('',#431,#430);
#433=DIRECTION('',(-1.E0,0.E0,0.E0));
#434=VECTOR('',#433,5.E-1);
#435=CARTESIAN_POINT('',(1.E0,1.6E0,-4.E0));
#436=LINE('',#435,#434);
#437=DIRECTION('',(0.E0,-1.E0,0.E0));
#438=VECTOR('',#437,5.E-1);
#439=CARTESIAN_POINT('',(5.E-1,1.6E0,-4.E0));
#440=LINE('',#439,#438);
#441=DIRECTION('',(1.E0,0.E0,0.E0));
#442=VECTOR('',#441,5.E-1);
#443=CARTESIAN_POINT('',(5.E-1,1.1E0,-4.E0));
#444=LINE('',#443,#442);
#445=DIRECTION('',(1.E0,0.E0,0.E0));
#446=VECTOR('',#445,5.E-1);
#447=CARTESIAN_POINT('',(-2.5E0,1.1E0,-4.E0));
#448=LINE('',#447,#446);
#449=DIRECTION('',(0.E0,1.E0,0.E0));
#450=VECTOR('',#449,5.E-1);
#451=CARTESIAN_POINT('',(-2.E0,1.1E0,-4.E0));
#452=LINE('',#451,#450);
#453=DIRECTION('',(-1.E0,0.E0,0.E0));
#454=VECTOR('',#453,5.E-1);
#455=CARTESIAN_POINT('',(-2.E0,1.6E0,-4.E0));
#456=LINE('',#455,#454);
#457=DIRECTION('',(0.E0,-1.E0,0.E0));
#458=VECTOR('',#457,5.E-1);
#459=CARTESIAN_POINT('',(-2.5E0,1.6E0,-4.E0));
#460=LINE('',#459,#458);
#461=DIRECTION('',(1.E0,0.E0,0.E0));
#462=VECTOR('',#461,5.E-1);
#463=CARTESIAN_POINT('',(-1.E0,1.1E0,-4.E0));
#464=LINE('',#463,#462);
#465=DIRECTION('',(0.E0,1.E0,0.E0));
#466=VECTOR('',#465,5.E-1);
#467=CARTESIAN_POINT('',(-5.E-1,1.1E0,-4.E0));
#468=LINE('',#467,#466);
#469=DIRECTION('',(-1.E0,0.E0,0.E0));
#470=VECTOR('',#469,5.E-1);
#471=CARTESIAN_POINT('',(-5.E-1,1.6E0,-4.E0));
#472=LINE('',#471,#470);
#473=DIRECTION('',(0.E0,-1.E0,0.E0));
#474=VECTOR('',#473,5.E-1);
#475=CARTESIAN_POINT('',(-1.E0,1.6E0,-4.E0));
#476=LINE('',#475,#474);
#477=DIRECTION('',(0.E0,0.E0,1.E0));
#478=VECTOR('',#477,3.E0);
#479=CARTESIAN_POINT('',(2.5E0,1.1E0,-4.E0));
#480=LINE('',#479,#478);
#481=DIRECTION('',(0.E0,0.E0,1.E0));
#482=VECTOR('',#481,3.E0);
#483=CARTESIAN_POINT('',(2.E0,1.1E0,-4.E0));
#484=LINE('',#483,#482);
#485=DIRECTION('',(0.E0,0.E0,1.E0));
#486=VECTOR('',#485,3.E0);
#487=CARTESIAN_POINT('',(2.E0,1.6E0,-4.E0));
#488=LINE('',#487,#486);
#489=DIRECTION('',(0.E0,0.E0,1.E0));
#490=VECTOR('',#489,3.E0);
#491=CARTESIAN_POINT('',(2.5E0,1.6E0,-4.E0));
#492=LINE('',#491,#490);
#493=DIRECTION('',(0.E0,1.E0,0.E0));
#494=VECTOR('',#493,5.E-1);
#495=CARTESIAN_POINT('',(2.5E0,1.1E0,-1.E0));
#496=LINE('',#495,#494);
#497=DIRECTION('',(1.E0,0.E0,0.E0));
#498=VECTOR('',#497,5.E-1);
#499=CARTESIAN_POINT('',(2.E0,1.1E0,-1.E0));
#500=LINE('',#499,#498);
#501=DIRECTION('',(0.E0,-1.E0,0.E0));
#502=VECTOR('',#501,5.E-1);
#503=CARTESIAN_POINT('',(2.E0,1.6E0,-1.E0));
#504=LINE('',#503,#502);
#505=DIRECTION('',(-1.E0,0.E0,0.E0));
#506=VECTOR('',#505,5.E-1);
#507=CARTESIAN_POINT('',(2.5E0,1.6E0,-1.E0));
#508=LINE('',#507,#506);
#509=DIRECTION('',(0.E0,1.E0,0.E0));
#510=VECTOR('',#509,5.E-1);
#511=CARTESIAN_POINT('',(1.E0,1.1E0,-1.E0));
#512=LINE('',#511,#510);
#513=DIRECTION('',(1.E0,0.E0,0.E0));
#514=VECTOR('',#513,5.E-1);
#515=CARTESIAN_POINT('',(5.E-1,1.1E0,-1.E0));
#516=LINE('',#515,#514);
#517=DIRECTION('',(0.E0,-1.E0,0.E0));
#518=VECTOR('',#517,5.E-1);
#519=CARTESIAN_POINT('',(5.E-1,1.6E0,-1.E0));
#520=LINE('',#519,#518);
#521=DIRECTION('',(-1.E0,0.E0,0.E0));
#522=VECTOR('',#521,5.E-1);
#523=CARTESIAN_POINT('',(1.E0,1.6E0,-1.E0));
#524=LINE('',#523,#522);
#525=DIRECTION('',(1.E0,0.E0,0.E0));
#526=VECTOR('',#525,5.E-1);
#527=CARTESIAN_POINT('',(-2.5E0,1.1E0,-1.E0));
#528=LINE('',#527,#526);
#529=DIRECTION('',(0.E0,-1.E0,0.E0));
#530=VECTOR('',#529,5.E-1);
#531=CARTESIAN_POINT('',(-2.5E0,1.6E0,-1.E0));
#532=LINE('',#531,#530);
#533=DIRECTION('',(-1.E0,0.E0,0.E0));
#534=VECTOR('',#533,5.E-1);
#535=CARTESIAN_POINT('',(-2.E0,1.6E0,-1.E0));
#536=LINE('',#535,#534);
#537=DIRECTION('',(0.E0,1.E0,0.E0));
#538=VECTOR('',#537,5.E-1);
#539=CARTESIAN_POINT('',(-2.E0,1.1E0,-1.E0));
#540=LINE('',#539,#538);
#541=DIRECTION('',(1.E0,0.E0,0.E0));
#542=VECTOR('',#541,5.E-1);
#543=CARTESIAN_POINT('',(-1.E0,1.1E0,-1.E0));
#544=LINE('',#543,#542);
#545=DIRECTION('',(0.E0,-1.E0,0.E0));
#546=VECTOR('',#545,5.E-1);
#547=CARTESIAN_POINT('',(-1.E0,1.6E0,-1.E0));
#548=LINE('',#547,#546);
#549=DIRECTION('',(-1.E0,0.E0,0.E0));
#550=VECTOR('',#549,5.E-1);
#551=CARTESIAN_POINT('',(-5.E-1,1.6E0,-1.E0));
#552=LINE('',#551,#550);
#553=DIRECTION('',(0.E0,1.E0,0.E0));
#554=VECTOR('',#553,5.E-1);
#555=CARTESIAN_POINT('',(-5.E-1,1.1E0,-1.E0));
#556=LINE('',#555,#554);
#557=DIRECTION('',(0.E0,0.E0,1.E0));
#558=VECTOR('',#557,3.E0);
#559=CARTESIAN_POINT('',(1.E0,1.1E0,-4.E0));
#560=LINE('',#559,#558);
#561=DIRECTION('',(0.E0,0.E0,1.E0));
#562=VECTOR('',#561,3.E0);
#563=CARTESIAN_POINT('',(5.E-1,1.1E0,-4.E0));
#564=LINE('',#563,#562);
#565=DIRECTION('',(0.E0,0.E0,1.E0));
#566=VECTOR('',#565,3.E0);
#567=CARTESIAN_POINT('',(5.E-1,1.6E0,-4.E0));
#568=LINE('',#567,#566);
#569=DIRECTION('',(0.E0,0.E0,1.E0));
#570=VECTOR('',#569,3.E0);
#571=CARTESIAN_POINT('',(1.E0,1.6E0,-4.E0));
#572=LINE('',#571,#570);
#573=DIRECTION('',(0.E0,0.E0,1.E0));
#574=VECTOR('',#573,3.E0);
#575=CARTESIAN_POINT('',(-2.5E0,1.1E0,-4.E0));
#576=LINE('',#575,#574);
#577=DIRECTION('',(0.E0,0.E0,1.E0));
#578=VECTOR('',#577,3.E0);
#579=CARTESIAN_POINT('',(-2.5E0,1.6E0,-4.E0));
#580=LINE('',#579,#578);
#581=DIRECTION('',(0.E0,0.E0,1.E0));
#582=VECTOR('',#581,3.E0);
#583=CARTESIAN_POINT('',(-2.E0,1.6E0,-4.E0));
#584=LINE('',#583,#582);
#585=DIRECTION('',(0.E0,0.E0,1.E0));
#586=VECTOR('',#585,3.E0);
#587=CARTESIAN_POINT('',(-2.E0,1.1E0,-4.E0));
#588=LINE('',#587,#586);
#589=DIRECTION('',(0.E0,0.E0,1.E0));
#590=VECTOR('',#589,3.E0);
#591=CARTESIAN_POINT('',(-1.E0,1.1E0,-4.E0));
#592=LINE('',#591,#590);
#593=DIRECTION('',(0.E0,0.E0,1.E0));
#594=VECTOR('',#593,3.E0);
#595=CARTESIAN_POINT('',(-1.E0,1.6E0,-4.E0));
#596=LINE('',#595,#594);
#597=DIRECTION('',(0.E0,0.E0,1.E0));
#598=VECTOR('',#597,3.E0);
#599=CARTESIAN_POINT('',(-5.E-1,1.6E0,-4.E0));
#600=LINE('',#599,#598);
#601=DIRECTION('',(0.E0,0.E0,1.E0));
#602=VECTOR('',#601,3.E0);
#603=CARTESIAN_POINT('',(-5.E-1,1.1E0,-4.E0));
#604=LINE('',#603,#602);
#605=DIRECTION('',(-1.E0,0.E0,0.E0));
#606=VECTOR('',#605,5.E-1);
#607=CARTESIAN_POINT('',(-4.E0,2.5E0,-6.E0));
#608=LINE('',#607,#606);
#609=DIRECTION('',(0.E0,1.E0,0.E0));
#610=VECTOR('',#609,1.2E0);
#611=CARTESIAN_POINT('',(-4.E0,2.5E0,-6.E0));
#612=LINE('',#611,#610);
#613=DIRECTION('',(-1.E0,0.E0,0.E0));
#614=VECTOR('',#613,5.E-1);
#615=CARTESIAN_POINT('',(4.5E0,2.5E0,-6.E0));
#616=LINE('',#615,#614);
#617=DIRECTION('',(0.E0,1.E0,0.E0));
#618=VECTOR('',#617,1.2E0);
#619=CARTESIAN_POINT('',(4.5E0,2.5E0,-6.E0));
#620=LINE('',#619,#618);
#621=DIRECTION('',(0.E0,1.E0,0.E0));
#622=VECTOR('',#621,1.2E0);
#623=CARTESIAN_POINT('',(4.E0,2.5E0,-6.E0));
#624=LINE('',#623,#622);
#625=DIRECTION('',(0.E0,-4.856429311786E-1,8.741572761215E-1));
#626=VECTOR('',#625,1.029563014099E0);
#627=CARTESIAN_POINT('',(4.E0,2.5E0,-6.E0));
#628=LINE('',#627,#626);
#629=DIRECTION('',(0.E0,-1.E0,0.E0));
#630=VECTOR('',#629,2.E-1);
#631=CARTESIAN_POINT('',(-5.E0,3.7E0,-1.2E0));
#632=LINE('',#631,#630);
#633=DIRECTION('',(0.E0,0.E0,1.E0));
#634=VECTOR('',#633,9.E-1);
#635=CARTESIAN_POINT('',(-2.E0,3.2E0,-6.E0));
#636=LINE('',#635,#634);
#637=DIRECTION('',(1.E0,0.E0,0.E0));
#638=VECTOR('',#637,5.E-1);
#639=CARTESIAN_POINT('',(-2.5E0,3.2E0,-6.E0));
#640=LINE('',#639,#638);
#641=DIRECTION('',(0.E0,0.E0,-1.E0));
#642=VECTOR('',#641,9.E-1);
#643=CARTESIAN_POINT('',(-2.5E0,3.2E0,-5.1E0));
#644=LINE('',#643,#642);
#645=DIRECTION('',(0.E0,0.E0,1.E0));
#646=VECTOR('',#645,9.E-1);
#647=CARTESIAN_POINT('',(-5.E-1,3.2E0,-6.E0));
#648=LINE('',#647,#646);
#649=DIRECTION('',(1.E0,0.E0,0.E0));
#650=VECTOR('',#649,5.E-1);
#651=CARTESIAN_POINT('',(-1.E0,3.2E0,-6.E0));
#652=LINE('',#651,#650);
#653=DIRECTION('',(0.E0,0.E0,-1.E0));
#654=VECTOR('',#653,9.E-1);
#655=CARTESIAN_POINT('',(-1.E0,3.2E0,-5.1E0));
#656=LINE('',#655,#654);
#657=DIRECTION('',(0.E0,0.E0,1.E0));
#658=VECTOR('',#657,9.E-1);
#659=CARTESIAN_POINT('',(1.E0,3.2E0,-6.E0));
#660=LINE('',#659,#658);
#661=DIRECTION('',(1.E0,0.E0,0.E0));
#662=VECTOR('',#661,5.E-1);
#663=CARTESIAN_POINT('',(5.E-1,3.2E0,-6.E0));
#664=LINE('',#663,#662);
#665=DIRECTION('',(0.E0,0.E0,-1.E0));
#666=VECTOR('',#665,9.E-1);
#667=CARTESIAN_POINT('',(5.E-1,3.2E0,-5.1E0));
#668=LINE('',#667,#666);
#669=DIRECTION('',(0.E0,0.E0,1.E0));
#670=VECTOR('',#669,9.E-1);
#671=CARTESIAN_POINT('',(2.5E0,3.2E0,-6.E0));
#672=LINE('',#671,#670);
#673=DIRECTION('',(1.E0,0.E0,0.E0));
#674=VECTOR('',#673,5.E-1);
#675=CARTESIAN_POINT('',(2.E0,3.2E0,-6.E0));
#676=LINE('',#675,#674);
#677=DIRECTION('',(0.E0,0.E0,-1.E0));
#678=VECTOR('',#677,9.E-1);
#679=CARTESIAN_POINT('',(2.E0,3.2E0,-5.1E0));
#680=LINE('',#679,#678);
#681=DIRECTION('',(0.E0,-1.E0,0.E0));
#682=VECTOR('',#681,5.E-1);
#683=CARTESIAN_POINT('',(-2.E0,3.7E0,-6.E0));
#684=LINE('',#683,#682);
#685=DIRECTION('',(0.E0,-1.E0,0.E0));
#686=VECTOR('',#685,5.E-1);
#687=CARTESIAN_POINT('',(-2.5E0,3.7E0,-6.E0));
#688=LINE('',#687,#686);
#689=DIRECTION('',(0.E0,-1.E0,0.E0));
#690=VECTOR('',#689,5.E-1);
#691=CARTESIAN_POINT('',(-5.E-1,3.7E0,-6.E0));
#692=LINE('',#691,#690);
#693=DIRECTION('',(0.E0,-1.E0,0.E0));
#694=VECTOR('',#693,5.E-1);
#695=CARTESIAN_POINT('',(-1.E0,3.7E0,-6.E0));
#696=LINE('',#695,#694);
#697=DIRECTION('',(0.E0,-1.E0,0.E0));
#698=VECTOR('',#697,5.E-1);
#699=CARTESIAN_POINT('',(1.E0,3.7E0,-6.E0));
#700=LINE('',#699,#698);
#701=DIRECTION('',(0.E0,-1.E0,0.E0));
#702=VECTOR('',#701,5.E-1);
#703=CARTESIAN_POINT('',(5.E-1,3.7E0,-6.E0));
#704=LINE('',#703,#702);
#705=DIRECTION('',(0.E0,-1.E0,0.E0));
#706=VECTOR('',#705,5.E-1);
#707=CARTESIAN_POINT('',(2.5E0,3.7E0,-6.E0));
#708=LINE('',#707,#706);
#709=DIRECTION('',(0.E0,-1.E0,0.E0));
#710=VECTOR('',#709,5.E-1);
#711=CARTESIAN_POINT('',(2.E0,3.7E0,-6.E0));
#712=LINE('',#711,#710);
#713=DIRECTION('',(-1.E0,0.E0,0.E0));
#714=VECTOR('',#713,2.5E-1);
#715=CARTESIAN_POINT('',(-4.25E0,3.5E0,-1.2E0));
#716=LINE('',#715,#714);
#717=DIRECTION('',(0.E0,1.E0,0.E0));
#718=VECTOR('',#717,3.5E0);
#719=CARTESIAN_POINT('',(-4.25E0,0.E0,-1.2E0));
#720=LINE('',#719,#718);
#721=DIRECTION('',(0.E0,0.E0,1.E0));
#722=VECTOR('',#721,1.5E0);
#723=CARTESIAN_POINT('',(-4.25E0,3.5E0,-2.7E0));
#724=LINE('',#723,#722);
#725=DIRECTION('',(0.E0,1.E0,0.E0));
#726=VECTOR('',#725,3.5E0);
#727=CARTESIAN_POINT('',(-4.25E0,0.E0,-2.7E0));
#728=LINE('',#727,#726);
#729=CARTESIAN_POINT('',(-4.5E0,0.E0,0.E0));
#730=CARTESIAN_POINT('',(4.5E0,0.E0,0.E0));
#731=VERTEX_POINT('',#729);
#732=VERTEX_POINT('',#730);
#733=CARTESIAN_POINT('',(-4.5E0,3.7E0,0.E0));
#734=CARTESIAN_POINT('',(4.5E0,3.7E0,0.E0));
#735=VERTEX_POINT('',#733);
#736=VERTEX_POINT('',#734);
#737=CARTESIAN_POINT('',(-3.3E0,3.3E0,-4.E0));
#738=CARTESIAN_POINT('',(-3.3E0,4.E-1,-4.E0));
#739=VERTEX_POINT('',#737);
#740=VERTEX_POINT('',#738);
#741=CARTESIAN_POINT('',(3.3E0,4.E-1,-4.E0));
#742=VERTEX_POINT('',#741);
#743=CARTESIAN_POINT('',(3.3E0,3.3E0,-4.E0));
#744=VERTEX_POINT('',#743);
#745=CARTESIAN_POINT('',(-3.3E0,3.3E0,0.E0));
#746=CARTESIAN_POINT('',(-3.3E0,4.E-1,0.E0));
#747=VERTEX_POINT('',#745);
#748=VERTEX_POINT('',#746);
#749=CARTESIAN_POINT('',(3.3E0,4.E-1,0.E0));
#750=VERTEX_POINT('',#749);
#751=CARTESIAN_POINT('',(3.3E0,3.3E0,0.E0));
#752=VERTEX_POINT('',#751);
#753=CARTESIAN_POINT('',(4.E0,3.7E0,-6.E0));
#754=CARTESIAN_POINT('',(4.E0,3.7E0,-5.1E0));
#755=VERTEX_POINT('',#753);
#756=VERTEX_POINT('',#754);
#757=CARTESIAN_POINT('',(-4.E0,3.7E0,-6.E0));
#758=CARTESIAN_POINT('',(-4.E0,3.7E0,-5.1E0));
#759=VERTEX_POINT('',#757);
#760=VERTEX_POINT('',#758);
#761=CARTESIAN_POINT('',(4.5E0,3.7E0,-6.E0));
#762=VERTEX_POINT('',#761);
#763=CARTESIAN_POINT('',(-4.5E0,3.7E0,-6.E0));
#764=VERTEX_POINT('',#763);
#765=CARTESIAN_POINT('',(-4.5E0,0.E0,-5.1E0));
#766=CARTESIAN_POINT('',(4.5E0,0.E0,-5.1E0));
#767=VERTEX_POINT('',#765);
#768=VERTEX_POINT('',#766);
#769=CARTESIAN_POINT('',(-1.E0,3.7E0,-6.E0));
#770=CARTESIAN_POINT('',(-5.E-1,3.7E0,-6.E0));
#771=VERTEX_POINT('',#769);
#772=VERTEX_POINT('',#770);
#773=CARTESIAN_POINT('',(-2.5E0,3.7E0,-6.E0));
#774=CARTESIAN_POINT('',(-2.E0,3.7E0,-6.E0));
#775=VERTEX_POINT('',#773);
#776=VERTEX_POINT('',#774);
#777=CARTESIAN_POINT('',(5.E-1,3.7E0,-6.E0));
#778=CARTESIAN_POINT('',(1.E0,3.7E0,-6.E0));
#779=VERTEX_POINT('',#777);
#780=VERTEX_POINT('',#778);
#781=CARTESIAN_POINT('',(2.E0,3.7E0,-6.E0));
#782=CARTESIAN_POINT('',(2.5E0,3.7E0,-6.E0));
#783=VERTEX_POINT('',#781);
#784=VERTEX_POINT('',#782);
#785=CARTESIAN_POINT('',(-1.E0,3.2E0,-6.E0));
#786=CARTESIAN_POINT('',(-5.E-1,3.2E0,-6.E0));
#787=VERTEX_POINT('',#785);
#788=VERTEX_POINT('',#786);
#789=CARTESIAN_POINT('',(-2.5E0,3.2E0,-6.E0));
#790=CARTESIAN_POINT('',(-2.E0,3.2E0,-6.E0));
#791=VERTEX_POINT('',#789);
#792=VERTEX_POINT('',#790);
#793=CARTESIAN_POINT('',(5.E-1,3.2E0,-6.E0));
#794=CARTESIAN_POINT('',(1.E0,3.2E0,-6.E0));
#795=VERTEX_POINT('',#793);
#796=VERTEX_POINT('',#794);
#797=CARTESIAN_POINT('',(2.E0,3.2E0,-6.E0));
#798=CARTESIAN_POINT('',(2.5E0,3.2E0,-6.E0));
#799=VERTEX_POINT('',#797);
#800=VERTEX_POINT('',#798);
#801=CARTESIAN_POINT('',(-2.5E0,3.2E0,-5.1E0));
#802=CARTESIAN_POINT('',(-2.E0,3.2E0,-5.1E0));
#803=VERTEX_POINT('',#801);
#804=VERTEX_POINT('',#802);
#805=CARTESIAN_POINT('',(-1.E0,3.2E0,-5.1E0));
#806=CARTESIAN_POINT('',(-5.E-1,3.2E0,-5.1E0));
#807=VERTEX_POINT('',#805);
#808=VERTEX_POINT('',#806);
#809=CARTESIAN_POINT('',(5.E-1,3.2E0,-5.1E0));
#810=CARTESIAN_POINT('',(1.E0,3.2E0,-5.1E0));
#811=VERTEX_POINT('',#809);
#812=VERTEX_POINT('',#810);
#813=CARTESIAN_POINT('',(2.E0,3.2E0,-5.1E0));
#814=CARTESIAN_POINT('',(2.5E0,3.2E0,-5.1E0));
#815=VERTEX_POINT('',#813);
#816=VERTEX_POINT('',#814);
#817=CARTESIAN_POINT('',(-1.E0,3.7E0,-5.1E0));
#818=VERTEX_POINT('',#817);
#819=CARTESIAN_POINT('',(-5.E-1,3.7E0,-5.1E0));
#820=VERTEX_POINT('',#819);
#821=CARTESIAN_POINT('',(-2.5E0,3.7E0,-5.1E0));
#822=VERTEX_POINT('',#821);
#823=CARTESIAN_POINT('',(-2.E0,3.7E0,-5.1E0));
#824=VERTEX_POINT('',#823);
#825=CARTESIAN_POINT('',(5.E-1,3.7E0,-5.1E0));
#826=VERTEX_POINT('',#825);
#827=CARTESIAN_POINT('',(1.E0,3.7E0,-5.1E0));
#828=VERTEX_POINT('',#827);
#829=CARTESIAN_POINT('',(2.E0,3.7E0,-5.1E0));
#830=VERTEX_POINT('',#829);
#831=CARTESIAN_POINT('',(2.5E0,3.7E0,-5.1E0));
#832=VERTEX_POINT('',#831);
#833=CARTESIAN_POINT('',(-4.5E0,2.5E0,-6.E0));
#834=CARTESIAN_POINT('',(-4.5E0,2.E0,-5.1E0));
#835=VERTEX_POINT('',#833);
#836=VERTEX_POINT('',#834);
#837=CARTESIAN_POINT('',(-4.E0,2.E0,-5.1E0));
#838=VERTEX_POINT('',#837);
#839=CARTESIAN_POINT('',(-4.E0,2.5E0,-6.E0));
#840=VERTEX_POINT('',#839);
#841=CARTESIAN_POINT('',(4.E0,2.5E0,-6.E0));
#842=CARTESIAN_POINT('',(4.E0,2.E0,-5.1E0));
#843=VERTEX_POINT('',#841);
#844=VERTEX_POINT('',#842);
#845=CARTESIAN_POINT('',(4.5E0,2.E0,-5.1E0));
#846=VERTEX_POINT('',#845);
#847=CARTESIAN_POINT('',(4.5E0,2.5E0,-6.E0));
#848=VERTEX_POINT('',#847);
#849=CARTESIAN_POINT('',(-4.5E0,0.E0,-2.7E0));
#850=CARTESIAN_POINT('',(-4.25E0,0.E0,-2.7E0));
#851=VERTEX_POINT('',#849);
#852=VERTEX_POINT('',#850);
#853=CARTESIAN_POINT('',(-4.25E0,0.E0,-1.2E0));
#854=VERTEX_POINT('',#853);
#855=CARTESIAN_POINT('',(-4.5E0,0.E0,-1.2E0));
#856=VERTEX_POINT('',#855);
#857=CARTESIAN_POINT('',(4.5E0,0.E0,-1.2E0));
#858=CARTESIAN_POINT('',(4.25E0,0.E0,-1.2E0));
#859=VERTEX_POINT('',#857);
#860=VERTEX_POINT('',#858);
#861=CARTESIAN_POINT('',(4.25E0,0.E0,-2.7E0));
#862=VERTEX_POINT('',#861);
#863=CARTESIAN_POINT('',(4.5E0,0.E0,-2.7E0));
#864=VERTEX_POINT('',#863);
#865=CARTESIAN_POINT('',(-5.E0,3.7E0,-1.2E0));
#866=CARTESIAN_POINT('',(-5.E0,3.7E0,-2.7E0));
#867=VERTEX_POINT('',#865);
#868=VERTEX_POINT('',#866);
#869=CARTESIAN_POINT('',(5.E0,3.7E0,-2.7E0));
#870=CARTESIAN_POINT('',(5.E0,3.7E0,-1.2E0));
#871=VERTEX_POINT('',#869);
#872=VERTEX_POINT('',#870);
#873=CARTESIAN_POINT('',(-5.E0,3.5E0,-1.2E0));
#874=CARTESIAN_POINT('',(-5.E0,3.5E0,-2.7E0));
#875=VERTEX_POINT('',#873);
#876=VERTEX_POINT('',#874);
#877=CARTESIAN_POINT('',(5.E0,3.5E0,-2.7E0));
#878=CARTESIAN_POINT('',(5.E0,3.5E0,-1.2E0));
#879=VERTEX_POINT('',#877);
#880=VERTEX_POINT('',#878);
#881=CARTESIAN_POINT('',(4.5E0,3.7E0,-1.2E0));
#882=CARTESIAN_POINT('',(4.5E0,3.5E0,-1.2E0));
#883=VERTEX_POINT('',#881);
#884=VERTEX_POINT('',#882);
#885=CARTESIAN_POINT('',(4.5E0,3.7E0,-2.7E0));
#886=CARTESIAN_POINT('',(4.5E0,3.5E0,-2.7E0));
#887=VERTEX_POINT('',#885);
#888=VERTEX_POINT('',#886);
#889=CARTESIAN_POINT('',(-4.5E0,3.7E0,-2.7E0));
#890=CARTESIAN_POINT('',(-4.5E0,3.5E0,-2.7E0));
#891=VERTEX_POINT('',#889);
#892=VERTEX_POINT('',#890);
#893=CARTESIAN_POINT('',(-4.5E0,3.7E0,-1.2E0));
#894=CARTESIAN_POINT('',(-4.5E0,3.5E0,-1.2E0));
#895=VERTEX_POINT('',#893);
#896=VERTEX_POINT('',#894);
#897=CARTESIAN_POINT('',(-4.25E0,3.5E0,-2.7E0));
#898=VERTEX_POINT('',#897);
#899=CARTESIAN_POINT('',(-4.25E0,3.5E0,-1.2E0));
#900=VERTEX_POINT('',#899);
#901=CARTESIAN_POINT('',(4.25E0,3.5E0,-1.2E0));
#902=VERTEX_POINT('',#901);
#903=CARTESIAN_POINT('',(4.25E0,3.5E0,-2.7E0));
#904=VERTEX_POINT('',#903);
#905=CARTESIAN_POINT('',(2.5E0,1.1E0,-1.E0));
#906=CARTESIAN_POINT('',(2.5E0,1.6E0,-1.E0));
#907=VERTEX_POINT('',#905);
#908=VERTEX_POINT('',#906);
#909=CARTESIAN_POINT('',(2.E0,1.6E0,-1.E0));
#910=VERTEX_POINT('',#909);
#911=CARTESIAN_POINT('',(2.E0,1.1E0,-1.E0));
#912=VERTEX_POINT('',#911);
#913=CARTESIAN_POINT('',(1.E0,1.1E0,-1.E0));
#914=CARTESIAN_POINT('',(1.E0,1.6E0,-1.E0));
#915=VERTEX_POINT('',#913);
#916=VERTEX_POINT('',#914);
#917=CARTESIAN_POINT('',(5.E-1,1.6E0,-1.E0));
#918=VERTEX_POINT('',#917);
#919=CARTESIAN_POINT('',(5.E-1,1.1E0,-1.E0));
#920=VERTEX_POINT('',#919);
#921=CARTESIAN_POINT('',(-2.5E0,1.1E0,-1.E0));
#922=CARTESIAN_POINT('',(-2.E0,1.1E0,-1.E0));
#923=VERTEX_POINT('',#921);
#924=VERTEX_POINT('',#922);
#925=CARTESIAN_POINT('',(-2.E0,1.6E0,-1.E0));
#926=VERTEX_POINT('',#925);
#927=CARTESIAN_POINT('',(-2.5E0,1.6E0,-1.E0));
#928=VERTEX_POINT('',#927);
#929=CARTESIAN_POINT('',(-1.E0,1.1E0,-1.E0));
#930=CARTESIAN_POINT('',(-5.E-1,1.1E0,-1.E0));
#931=VERTEX_POINT('',#929);
#932=VERTEX_POINT('',#930);
#933=CARTESIAN_POINT('',(-5.E-1,1.6E0,-1.E0));
#934=VERTEX_POINT('',#933);
#935=CARTESIAN_POINT('',(-1.E0,1.6E0,-1.E0));
#936=VERTEX_POINT('',#935);
#937=CARTESIAN_POINT('',(2.5E0,1.1E0,-4.E0));
#938=CARTESIAN_POINT('',(2.5E0,1.6E0,-4.E0));
#939=VERTEX_POINT('',#937);
#940=VERTEX_POINT('',#938);
#941=CARTESIAN_POINT('',(2.E0,1.6E0,-4.E0));
#942=VERTEX_POINT('',#941);
#943=CARTESIAN_POINT('',(2.E0,1.1E0,-4.E0));
#944=VERTEX_POINT('',#943);
#945=CARTESIAN_POINT('',(1.E0,1.1E0,-4.E0));
#946=CARTESIAN_POINT('',(1.E0,1.6E0,-4.E0));
#947=VERTEX_POINT('',#945);
#948=VERTEX_POINT('',#946);
#949=CARTESIAN_POINT('',(5.E-1,1.6E0,-4.E0));
#950=VERTEX_POINT('',#949);
#951=CARTESIAN_POINT('',(5.E-1,1.1E0,-4.E0));
#952=VERTEX_POINT('',#951);
#953=CARTESIAN_POINT('',(-2.5E0,1.1E0,-4.E0));
#954=CARTESIAN_POINT('',(-2.E0,1.1E0,-4.E0));
#955=VERTEX_POINT('',#953);
#956=VERTEX_POINT('',#954);
#957=CARTESIAN_POINT('',(-2.E0,1.6E0,-4.E0));
#958=VERTEX_POINT('',#957);
#959=CARTESIAN_POINT('',(-2.5E0,1.6E0,-4.E0));
#960=VERTEX_POINT('',#959);
#961=CARTESIAN_POINT('',(-1.E0,1.1E0,-4.E0));
#962=CARTESIAN_POINT('',(-5.E-1,1.1E0,-4.E0));
#963=VERTEX_POINT('',#961);
#964=VERTEX_POINT('',#962);
#965=CARTESIAN_POINT('',(-5.E-1,1.6E0,-4.E0));
#966=VERTEX_POINT('',#965);
#967=CARTESIAN_POINT('',(-1.E0,1.6E0,-4.E0));
#968=VERTEX_POINT('',#967);
#969=CARTESIAN_POINT('',(0.E0,0.E0,0.E0));
#970=DIRECTION('',(0.E0,1.E0,0.E0));
#971=DIRECTION('',(1.E0,0.E0,0.E0));
#972=AXIS2_PLACEMENT_3D('',#969,#970,#971);
#973=PLANE('',#972);
#975=ORIENTED_EDGE('',*,*,#974,.T.);
#977=ORIENTED_EDGE('',*,*,#976,.T.);
#979=ORIENTED_EDGE('',*,*,#978,.F.);
#981=ORIENTED_EDGE('',*,*,#980,.T.);
#983=ORIENTED_EDGE('',*,*,#982,.T.);
#985=ORIENTED_EDGE('',*,*,#984,.T.);
#987=ORIENTED_EDGE('',*,*,#986,.T.);
#989=ORIENTED_EDGE('',*,*,#988,.T.);
#991=ORIENTED_EDGE('',*,*,#990,.F.);
#993=ORIENTED_EDGE('',*,*,#992,.T.);
#995=ORIENTED_EDGE('',*,*,#994,.F.);
#997=ORIENTED_EDGE('',*,*,#996,.T.);
#998=EDGE_LOOP('',(#975,#977,#979,#981,#983,#985,#987,#989,#991,#993,#995,
#997));
#999=FACE_OUTER_BOUND('',#998,.F.);
#1000=ADVANCED_FACE('',(#999),#973,.F.);
#1001=CARTESIAN_POINT('',(-4.5E0,0.E0,-2.7E0));
#1002=DIRECTION('',(0.E0,0.E0,-1.E0));
#1003=DIRECTION('',(1.E0,0.E0,0.E0));
#1004=AXIS2_PLACEMENT_3D('',#1001,#1002,#1003);
#1005=PLANE('',#1004);
#1007=ORIENTED_EDGE('',*,*,#1006,.T.);
#1009=ORIENTED_EDGE('',*,*,#1008,.F.);
#1010=ORIENTED_EDGE('',*,*,#974,.F.);
#1012=ORIENTED_EDGE('',*,*,#1011,.T.);
#1013=EDGE_LOOP('',(#1007,#1009,#1010,#1012));
#1014=FACE_OUTER_BOUND('',#1013,.F.);
#1015=ADVANCED_FACE('',(#1014),#1005,.F.);
#1016=CARTESIAN_POINT('',(0.E0,3.5E0,0.E0));
#1017=DIRECTION('',(0.E0,-1.E0,0.E0));
#1018=DIRECTION('',(1.E0,0.E0,0.E0));
#1019=AXIS2_PLACEMENT_3D('',#1016,#1017,#1018);
#1020=PLANE('',#1019);
#1021=ORIENTED_EDGE('',*,*,#1006,.F.);
#1023=ORIENTED_EDGE('',*,*,#1022,.F.);
#1025=ORIENTED_EDGE('',*,*,#1024,.F.);
#1027=ORIENTED_EDGE('',*,*,#1026,.F.);
#1029=ORIENTED_EDGE('',*,*,#1028,.F.);
#1031=ORIENTED_EDGE('',*,*,#1030,.F.);
#1032=EDGE_LOOP('',(#1021,#1023,#1025,#1027,#1029,#1031));
#1033=FACE_OUTER_BOUND('',#1032,.F.);
#1034=ADVANCED_FACE('',(#1033),#1020,.T.);
#1035=CARTESIAN_POINT('',(0.E0,3.5E0,0.E0));
#1036=DIRECTION('',(0.E0,-1.E0,0.E0));
#1037=DIRECTION('',(1.E0,0.E0,0.E0));
#1038=AXIS2_PLACEMENT_3D('',#1035,#1036,#1037);
#1039=PLANE('',#1038);
#1041=ORIENTED_EDGE('',*,*,#1040,.F.);
#1043=ORIENTED_EDGE('',*,*,#1042,.F.);
#1045=ORIENTED_EDGE('',*,*,#1044,.F.);
#1047=ORIENTED_EDGE('',*,*,#1046,.F.);
#1049=ORIENTED_EDGE('',*,*,#1048,.F.);
#1051=ORIENTED_EDGE('',*,*,#1050,.F.);
#1052=EDGE_LOOP('',(#1041,#1043,#1045,#1047,#1049,#1051));
#1053=FACE_OUTER_BOUND('',#1052,.F.);
#1054=ADVANCED_FACE('',(#1053),#1039,.T.);
#1055=CARTESIAN_POINT('',(-5.E0,3.7E0,-2.7E0));
#1056=DIRECTION('',(0.E0,0.E0,-1.E0));
#1057=DIRECTION('',(1.E0,0.E0,0.E0));
#1058=AXIS2_PLACEMENT_3D('',#1055,#1056,#1057);
#1059=PLANE('',#1058);
#1061=ORIENTED_EDGE('',*,*,#1060,.F.);
#1063=ORIENTED_EDGE('',*,*,#1062,.F.);
#1065=ORIENTED_EDGE('',*,*,#1064,.T.);
#1066=ORIENTED_EDGE('',*,*,#1022,.T.);
#1067=EDGE_LOOP('',(#1061,#1063,#1065,#1066));
#1068=FACE_OUTER_BOUND('',#1067,.F.);
#1069=ADVANCED_FACE('',(#1068),#1059,.T.);
#1070=CARTESIAN_POINT('',(-4.5E0,0.E0,-6.E0));
#1071=DIRECTION('',(-1.E0,0.E0,0.E0));
#1072=DIRECTION('',(0.E0,0.E0,1.E0));
#1073=AXIS2_PLACEMENT_3D('',#1070,#1071,#1072);
#1074=PLANE('',#1073);
#1075=ORIENTED_EDGE('',*,*,#1060,.T.);
#1076=ORIENTED_EDGE('',*,*,#1011,.F.);
#1077=ORIENTED_EDGE('',*,*,#996,.F.);
#1079=ORIENTED_EDGE('',*,*,#1078,.T.);
#1081=ORIENTED_EDGE('',*,*,#1080,.F.);
#1083=ORIENTED_EDGE('',*,*,#1082,.T.);
#1085=ORIENTED_EDGE('',*,*,#1084,.T.);
#1086=EDGE_LOOP('',(#1075,#1076,#1077,#1079,#1081,#1083,#1085));
#1087=FACE_OUTER_BOUND('',#1086,.F.);
#1088=ADVANCED_FACE('',(#1087),#1074,.T.);
#1089=CARTESIAN_POINT('',(-4.5E0,0.E0,-6.E0));
#1090=DIRECTION('',(-1.E0,0.E0,0.E0));
#1091=DIRECTION('',(0.E0,0.E0,1.E0));
#1092=AXIS2_PLACEMENT_3D('',#1089,#1090,#1091);
#1093=PLANE('',#1092);
#1095=ORIENTED_EDGE('',*,*,#1094,.F.);
#1097=ORIENTED_EDGE('',*,*,#1096,.T.);
#1099=ORIENTED_EDGE('',*,*,#1098,.F.);
#1100=ORIENTED_EDGE('',*,*,#980,.F.);
#1102=ORIENTED_EDGE('',*,*,#1101,.T.);
#1103=EDGE_LOOP('',(#1095,#1097,#1099,#1100,#1102));
#1104=FACE_OUTER_BOUND('',#1103,.F.);
#1105=ADVANCED_FACE('',(#1104),#1093,.T.);
#1106=CARTESIAN_POINT('',(4.E0,0.E0,-5.1E0));
#1107=DIRECTION('',(0.E0,0.E0,1.E0));
#1108=DIRECTION('',(-1.E0,0.E0,0.E0));
#1109=AXIS2_PLACEMENT_3D('',#1106,#1107,#1108);
#1110=PLANE('',#1109);
#1112=ORIENTED_EDGE('',*,*,#1111,.T.);
#1113=ORIENTED_EDGE('',*,*,#1078,.F.);
#1114=ORIENTED_EDGE('',*,*,#994,.T.);
#1116=ORIENTED_EDGE('',*,*,#1115,.T.);
#1118=ORIENTED_EDGE('',*,*,#1117,.T.);
#1120=ORIENTED_EDGE('',*,*,#1119,.T.);
#1122=ORIENTED_EDGE('',*,*,#1121,.T.);
#1124=ORIENTED_EDGE('',*,*,#1123,.T.);
#1126=ORIENTED_EDGE('',*,*,#1125,.F.);
#1128=ORIENTED_EDGE('',*,*,#1127,.F.);
#1130=ORIENTED_EDGE('',*,*,#1129,.T.);
#1132=ORIENTED_EDGE('',*,*,#1131,.T.);
#1134=ORIENTED_EDGE('',*,*,#1133,.F.);
#1136=ORIENTED_EDGE('',*,*,#1135,.F.);
#1138=ORIENTED_EDGE('',*,*,#1137,.T.);
#1140=ORIENTED_EDGE('',*,*,#1139,.T.);
#1142=ORIENTED_EDGE('',*,*,#1141,.F.);
#1144=ORIENTED_EDGE('',*,*,#1143,.F.);
#1146=ORIENTED_EDGE('',*,*,#1145,.T.);
#1148=ORIENTED_EDGE('',*,*,#1147,.T.);
#1150=ORIENTED_EDGE('',*,*,#1149,.F.);
#1152=ORIENTED_EDGE('',*,*,#1151,.F.);
#1154=ORIENTED_EDGE('',*,*,#1153,.T.);
#1156=ORIENTED_EDGE('',*,*,#1155,.F.);
#1157=EDGE_LOOP('',(#1112,#1113,#1114,#1116,#1118,#1120,#1122,#1124,#1126,#1128,
#1130,#1132,#1134,#1136,#1138,#1140,#1142,#1144,#1146,#1148,#1150,#1152,#1154,
#1156));
#1158=FACE_OUTER_BOUND('',#1157,.F.);
#1159=ADVANCED_FACE('',(#1158),#1110,.F.);
#1160=CARTESIAN_POINT('',(-4.25E0,2.25E0,-5.55E0));
#1161=DIRECTION('',(0.E0,-8.741572761215E-1,-4.856429311786E-1));
#1162=DIRECTION('',(0.E0,-4.856429311786E-1,8.741572761215E-1));
#1163=AXIS2_PLACEMENT_3D('',#1160,#1161,#1162);
#1164=PLANE('',#1163);
#1165=ORIENTED_EDGE('',*,*,#1080,.T.);
#1166=ORIENTED_EDGE('',*,*,#1111,.F.);
#1168=ORIENTED_EDGE('',*,*,#1167,.T.);
#1170=ORIENTED_EDGE('',*,*,#1169,.T.);
#1171=EDGE_LOOP('',(#1165,#1166,#1168,#1170));
#1172=FACE_OUTER_BOUND('',#1171,.F.);
#1173=ADVANCED_FACE('',(#1172),#1164,.T.);
#1174=CARTESIAN_POINT('',(-4.E0,0.E0,-5.1E0));
#1175=DIRECTION('',(-1.E0,0.E0,0.E0));
#1176=DIRECTION('',(0.E0,0.E0,-1.E0));
#1177=AXIS2_PLACEMENT_3D('',#1174,#1175,#1176);
#1178=PLANE('',#1177);
#1179=ORIENTED_EDGE('',*,*,#1167,.F.);
#1180=ORIENTED_EDGE('',*,*,#1155,.T.);
#1182=ORIENTED_EDGE('',*,*,#1181,.F.);
#1184=ORIENTED_EDGE('',*,*,#1183,.F.);
#1185=EDGE_LOOP('',(#1179,#1180,#1182,#1184));
#1186=FACE_OUTER_BOUND('',#1185,.F.);
#1187=ADVANCED_FACE('',(#1186),#1178,.F.);
#1188=CARTESIAN_POINT('',(0.E0,3.7E0,0.E0));
#1189=DIRECTION('',(0.E0,1.E0,0.E0));
#1190=DIRECTION('',(1.E0,0.E0,0.E0));
#1191=AXIS2_PLACEMENT_3D('',#1188,#1189,#1190);
#1192=PLANE('',#1191);
#1194=ORIENTED_EDGE('',*,*,#1193,.F.);
#1196=ORIENTED_EDGE('',*,*,#1195,.T.);
#1198=ORIENTED_EDGE('',*,*,#1197,.T.);
#1200=ORIENTED_EDGE('',*,*,#1199,.T.);
#1202=ORIENTED_EDGE('',*,*,#1201,.F.);
#1204=ORIENTED_EDGE('',*,*,#1203,.F.);
#1205=ORIENTED_EDGE('',*,*,#1096,.F.);
#1207=ORIENTED_EDGE('',*,*,#1206,.T.);
#1209=ORIENTED_EDGE('',*,*,#1208,.T.);
#1210=ORIENTED_EDGE('',*,*,#1062,.T.);
#1211=ORIENTED_EDGE('',*,*,#1084,.F.);
#1213=ORIENTED_EDGE('',*,*,#1212,.F.);
#1214=ORIENTED_EDGE('',*,*,#1181,.T.);
#1215=ORIENTED_EDGE('',*,*,#1153,.F.);
#1217=ORIENTED_EDGE('',*,*,#1216,.T.);
#1219=ORIENTED_EDGE('',*,*,#1218,.T.);
#1221=ORIENTED_EDGE('',*,*,#1220,.T.);
#1222=ORIENTED_EDGE('',*,*,#1145,.F.);
#1224=ORIENTED_EDGE('',*,*,#1223,.T.);
#1226=ORIENTED_EDGE('',*,*,#1225,.T.);
#1228=ORIENTED_EDGE('',*,*,#1227,.T.);
#1229=ORIENTED_EDGE('',*,*,#1137,.F.);
#1231=ORIENTED_EDGE('',*,*,#1230,.T.);
#1233=ORIENTED_EDGE('',*,*,#1232,.T.);
#1235=ORIENTED_EDGE('',*,*,#1234,.T.);
#1236=ORIENTED_EDGE('',*,*,#1129,.F.);
#1238=ORIENTED_EDGE('',*,*,#1237,.T.);
#1240=ORIENTED_EDGE('',*,*,#1239,.T.);
#1242=ORIENTED_EDGE('',*,*,#1241,.T.);
#1243=ORIENTED_EDGE('',*,*,#1121,.F.);
#1245=ORIENTED_EDGE('',*,*,#1244,.F.);
#1247=ORIENTED_EDGE('',*,*,#1246,.F.);
#1248=EDGE_LOOP('',(#1194,#1196,#1198,#1200,#1202,#1204,#1205,#1207,#1209,#1210,
#1211,#1213,#1214,#1215,#1217,#1219,#1221,#1222,#1224,#1226,#1228,#1229,#1231,
#1233,#1235,#1236,#1238,#1240,#1242,#1243,#1245,#1247));
#1249=FACE_OUTER_BOUND('',#1248,.F.);
#1250=ADVANCED_FACE('',(#1249),#1192,.T.);
#1251=CARTESIAN_POINT('',(4.5E0,0.E0,0.E0));
#1252=DIRECTION('',(1.E0,0.E0,0.E0));
#1253=DIRECTION('',(0.E0,0.E0,-1.E0));
#1254=AXIS2_PLACEMENT_3D('',#1251,#1252,#1253);
#1255=PLANE('',#1254);
#1257=ORIENTED_EDGE('',*,*,#1256,.T.);
#1259=ORIENTED_EDGE('',*,*,#1258,.F.);
#1260=ORIENTED_EDGE('',*,*,#984,.F.);
#1262=ORIENTED_EDGE('',*,*,#1261,.T.);
#1263=ORIENTED_EDGE('',*,*,#1201,.T.);
#1264=EDGE_LOOP('',(#1257,#1259,#1260,#1262,#1263));
#1265=FACE_OUTER_BOUND('',#1264,.F.);
#1266=ADVANCED_FACE('',(#1265),#1255,.T.);
#1267=CARTESIAN_POINT('',(4.5E0,0.E0,0.E0));
#1268=DIRECTION('',(1.E0,0.E0,0.E0));
#1269=DIRECTION('',(0.E0,0.E0,-1.E0));
#1270=AXIS2_PLACEMENT_3D('',#1267,#1268,#1269);
#1271=PLANE('',#1270);
#1273=ORIENTED_EDGE('',*,*,#1272,.F.);
#1274=ORIENTED_EDGE('',*,*,#1193,.T.);
#1276=ORIENTED_EDGE('',*,*,#1275,.F.);
#1278=ORIENTED_EDGE('',*,*,#1277,.F.);
#1279=ORIENTED_EDGE('',*,*,#1115,.F.);
#1280=ORIENTED_EDGE('',*,*,#992,.F.);
#1282=ORIENTED_EDGE('',*,*,#1281,.T.);
#1283=EDGE_LOOP('',(#1273,#1274,#1276,#1278,#1279,#1280,#1282));
#1284=FACE_OUTER_BOUND('',#1283,.F.);
#1285=ADVANCED_FACE('',(#1284),#1271,.T.);
#1286=CARTESIAN_POINT('',(5.E0,3.7E0,-1.2E0));
#1287=DIRECTION('',(0.E0,0.E0,1.E0));
#1288=DIRECTION('',(-1.E0,0.E0,0.E0));
#1289=AXIS2_PLACEMENT_3D('',#1286,#1287,#1288);
#1290=PLANE('',#1289);
#1291=ORIENTED_EDGE('',*,*,#1256,.F.);
#1292=ORIENTED_EDGE('',*,*,#1199,.F.);
#1294=ORIENTED_EDGE('',*,*,#1293,.T.);
#1295=ORIENTED_EDGE('',*,*,#1042,.T.);
#1296=EDGE_LOOP('',(#1291,#1292,#1294,#1295));
#1297=FACE_OUTER_BOUND('',#1296,.F.);
#1298=ADVANCED_FACE('',(#1297),#1290,.T.);
#1299=CARTESIAN_POINT('',(5.E0,3.7E0,-2.7E0));
#1300=DIRECTION('',(1.E0,0.E0,0.E0));
#1301=DIRECTION('',(0.E0,0.E0,1.E0));
#1302=AXIS2_PLACEMENT_3D('',#1299,#1300,#1301);
#1303=PLANE('',#1302);
#1304=ORIENTED_EDGE('',*,*,#1197,.F.);
#1306=ORIENTED_EDGE('',*,*,#1305,.T.);
#1307=ORIENTED_EDGE('',*,*,#1044,.T.);
#1308=ORIENTED_EDGE('',*,*,#1293,.F.);
#1309=EDGE_LOOP('',(#1304,#1306,#1307,#1308));
#1310=FACE_OUTER_BOUND('',#1309,.F.);
#1311=ADVANCED_FACE('',(#1310),#1303,.T.);
#1312=CARTESIAN_POINT('',(4.25E0,3.7E0,-2.7E0));
#1313=DIRECTION('',(0.E0,0.E0,-1.E0));
#1314=DIRECTION('',(1.E0,0.E0,0.E0));
#1315=AXIS2_PLACEMENT_3D('',#1312,#1313,#1314);
#1316=PLANE('',#1315);
#1317=ORIENTED_EDGE('',*,*,#1272,.T.);
#1318=ORIENTED_EDGE('',*,*,#1046,.T.);
#1319=ORIENTED_EDGE('',*,*,#1305,.F.);
#1320=ORIENTED_EDGE('',*,*,#1195,.F.);
#1321=EDGE_LOOP('',(#1317,#1318,#1319,#1320));
#1322=FACE_OUTER_BOUND('',#1321,.F.);
#1323=ADVANCED_FACE('',(#1322),#1316,.T.);
#1324=CARTESIAN_POINT('',(4.5E0,0.E0,-1.2E0));
#1325=DIRECTION('',(0.E0,0.E0,1.E0));
#1326=DIRECTION('',(-1.E0,0.E0,0.E0));
#1327=AXIS2_PLACEMENT_3D('',#1324,#1325,#1326);
#1328=PLANE('',#1327);
#1329=ORIENTED_EDGE('',*,*,#1040,.T.);
#1331=ORIENTED_EDGE('',*,*,#1330,.F.);
#1332=ORIENTED_EDGE('',*,*,#986,.F.);
#1333=ORIENTED_EDGE('',*,*,#1258,.T.);
#1334=EDGE_LOOP('',(#1329,#1331,#1332,#1333));
#1335=FACE_OUTER_BOUND('',#1334,.F.);
#1336=ADVANCED_FACE('',(#1335),#1328,.F.);
#1337=CARTESIAN_POINT('',(4.25E0,0.E0,-1.2E0));
#1338=DIRECTION('',(-1.E0,0.E0,0.E0));
#1339=DIRECTION('',(0.E0,0.E0,-1.E0));
#1340=AXIS2_PLACEMENT_3D('',#1337,#1338,#1339);
#1341=PLANE('',#1340);
#1342=ORIENTED_EDGE('',*,*,#1050,.T.);
#1344=ORIENTED_EDGE('',*,*,#1343,.F.);
#1345=ORIENTED_EDGE('',*,*,#988,.F.);
#1346=ORIENTED_EDGE('',*,*,#1330,.T.);
#1347=EDGE_LOOP('',(#1342,#1344,#1345,#1346));
#1348=FACE_OUTER_BOUND('',#1347,.F.);
#1349=ADVANCED_FACE('',(#1348),#1341,.F.);
#1350=CARTESIAN_POINT('',(4.25E0,0.E0,-2.7E0));
#1351=DIRECTION('',(0.E0,0.E0,-1.E0));
#1352=DIRECTION('',(1.E0,0.E0,0.E0));
#1353=AXIS2_PLACEMENT_3D('',#1350,#1351,#1352);
#1354=PLANE('',#1353);
#1355=ORIENTED_EDGE('',*,*,#1048,.T.);
#1356=ORIENTED_EDGE('',*,*,#1281,.F.);
#1357=ORIENTED_EDGE('',*,*,#990,.T.);
#1358=ORIENTED_EDGE('',*,*,#1343,.T.);
#1359=EDGE_LOOP('',(#1355,#1356,#1357,#1358));
#1360=FACE_OUTER_BOUND('',#1359,.F.);
#1361=ADVANCED_FACE('',(#1360),#1354,.F.);
#1362=CARTESIAN_POINT('',(-4.5E0,0.E0,0.E0));
#1363=DIRECTION('',(0.E0,0.E0,1.E0));
#1364=DIRECTION('',(1.E0,0.E0,0.E0));
#1365=AXIS2_PLACEMENT_3D('',#1362,#1363,#1364);
#1366=PLANE('',#1365);
#1367=ORIENTED_EDGE('',*,*,#982,.F.);
#1368=ORIENTED_EDGE('',*,*,#1098,.T.);
#1369=ORIENTED_EDGE('',*,*,#1203,.T.);
#1370=ORIENTED_EDGE('',*,*,#1261,.F.);
#1371=EDGE_LOOP('',(#1367,#1368,#1369,#1370));
#1372=FACE_OUTER_BOUND('',#1371,.F.);
#1374=ORIENTED_EDGE('',*,*,#1373,.T.);
#1376=ORIENTED_EDGE('',*,*,#1375,.T.);
#1378=ORIENTED_EDGE('',*,*,#1377,.T.);
#1380=ORIENTED_EDGE('',*,*,#1379,.T.);
#1381=EDGE_LOOP('',(#1374,#1376,#1378,#1380));
#1382=FACE_BOUND('',#1381,.F.);
#1383=ADVANCED_FACE('',(#1372,#1382),#1366,.T.);
#1384=CARTESIAN_POINT('',(-3.3E0,3.3E0,0.E0));
#1385=DIRECTION('',(-1.E0,0.E0,0.E0));
#1386=DIRECTION('',(0.E0,-1.E0,0.E0));
#1387=AXIS2_PLACEMENT_3D('',#1384,#1385,#1386);
#1388=PLANE('',#1387);
#1389=ORIENTED_EDGE('',*,*,#1373,.F.);
#1391=ORIENTED_EDGE('',*,*,#1390,.T.);
#1393=ORIENTED_EDGE('',*,*,#1392,.T.);
#1395=ORIENTED_EDGE('',*,*,#1394,.F.);
#1396=EDGE_LOOP('',(#1389,#1391,#1393,#1395));
#1397=FACE_OUTER_BOUND('',#1396,.F.);
#1398=ADVANCED_FACE('',(#1397),#1388,.F.);
#1399=CARTESIAN_POINT('',(3.3E0,3.3E0,0.E0));
#1400=DIRECTION('',(0.E0,1.E0,0.E0));
#1401=DIRECTION('',(-1.E0,0.E0,0.E0));
#1402=AXIS2_PLACEMENT_3D('',#1399,#1400,#1401);
#1403=PLANE('',#1402);
#1404=ORIENTED_EDGE('',*,*,#1379,.F.);
#1406=ORIENTED_EDGE('',*,*,#1405,.T.);
#1408=ORIENTED_EDGE('',*,*,#1407,.T.);
#1409=ORIENTED_EDGE('',*,*,#1390,.F.);
#1410=EDGE_LOOP('',(#1404,#1406,#1408,#1409));
#1411=FACE_OUTER_BOUND('',#1410,.F.);
#1412=ADVANCED_FACE('',(#1411),#1403,.F.);
#1413=CARTESIAN_POINT('',(3.3E0,4.E-1,0.E0));
#1414=DIRECTION('',(1.E0,0.E0,0.E0));
#1415=DIRECTION('',(0.E0,1.E0,0.E0));
#1416=AXIS2_PLACEMENT_3D('',#1413,#1414,#1415);
#1417=PLANE('',#1416);
#1418=ORIENTED_EDGE('',*,*,#1377,.F.);
#1420=ORIENTED_EDGE('',*,*,#1419,.T.);
#1422=ORIENTED_EDGE('',*,*,#1421,.T.);
#1423=ORIENTED_EDGE('',*,*,#1405,.F.);
#1424=EDGE_LOOP('',(#1418,#1420,#1422,#1423));
#1425=FACE_OUTER_BOUND('',#1424,.F.);
#1426=ADVANCED_FACE('',(#1425),#1417,.F.);
#1427=CARTESIAN_POINT('',(-3.3E0,4.E-1,0.E0));
#1428=DIRECTION('',(0.E0,-1.E0,0.E0));
#1429=DIRECTION('',(1.E0,0.E0,0.E0));
#1430=AXIS2_PLACEMENT_3D('',#1427,#1428,#1429);
#1431=PLANE('',#1430);
#1432=ORIENTED_EDGE('',*,*,#1375,.F.);
#1433=ORIENTED_EDGE('',*,*,#1394,.T.);
#1435=ORIENTED_EDGE('',*,*,#1434,.T.);
#1436=ORIENTED_EDGE('',*,*,#1419,.F.);
#1437=EDGE_LOOP('',(#1432,#1433,#1435,#1436));
#1438=FACE_OUTER_BOUND('',#1437,.F.);
#1439=ADVANCED_FACE('',(#1438),#1431,.F.);
#1440=CARTESIAN_POINT('',(0.E0,0.E0,-4.E0));
#1441=DIRECTION('',(0.E0,0.E0,1.E0));
#1442=DIRECTION('',(1.E0,0.E0,0.E0));
#1443=AXIS2_PLACEMENT_3D('',#1440,#1441,#1442);
#1444=PLANE('',#1443);
#1445=ORIENTED_EDGE('',*,*,#1392,.F.);
#1446=ORIENTED_EDGE('',*,*,#1407,.F.);
#1447=ORIENTED_EDGE('',*,*,#1421,.F.);
#1448=ORIENTED_EDGE('',*,*,#1434,.F.);
#1449=EDGE_LOOP('',(#1445,#1446,#1447,#1448));
#1450=FACE_OUTER_BOUND('',#1449,.F.);
#1452=ORIENTED_EDGE('',*,*,#1451,.T.);
#1454=ORIENTED_EDGE('',*,*,#1453,.T.);
#1456=ORIENTED_EDGE('',*,*,#1455,.T.);
#1458=ORIENTED_EDGE('',*,*,#1457,.T.);
#1459=EDGE_LOOP('',(#1452,#1454,#1456,#1458));
#1460=FACE_BOUND('',#1459,.F.);
#1462=ORIENTED_EDGE('',*,*,#1461,.T.);
#1464=ORIENTED_EDGE('',*,*,#1463,.T.);
#1466=ORIENTED_EDGE('',*,*,#1465,.T.);
#1468=ORIENTED_EDGE('',*,*,#1467,.T.);
#1469=EDGE_LOOP('',(#1462,#1464,#1466,#1468));
#1470=FACE_BOUND('',#1469,.F.);
#1472=ORIENTED_EDGE('',*,*,#1471,.T.);
#1474=ORIENTED_EDGE('',*,*,#1473,.T.);
#1476=ORIENTED_EDGE('',*,*,#1475,.T.);
#1478=ORIENTED_EDGE('',*,*,#1477,.T.);
#1479=EDGE_LOOP('',(#1472,#1474,#1476,#1478));
#1480=FACE_BOUND('',#1479,.F.);
#1482=ORIENTED_EDGE('',*,*,#1481,.T.);
#1484=ORIENTED_EDGE('',*,*,#1483,.T.);
#1486=ORIENTED_EDGE('',*,*,#1485,.T.);
#1488=ORIENTED_EDGE('',*,*,#1487,.T.);
#1489=EDGE_LOOP('',(#1482,#1484,#1486,#1488));
#1490=FACE_BOUND('',#1489,.F.);
#1491=ADVANCED_FACE('',(#1450,#1460,#1470,#1480,#1490),#1444,.T.);
#1492=CARTESIAN_POINT('',(2.5E0,1.1E0,-4.E0));
#1493=DIRECTION('',(1.E0,0.E0,0.E0));
#1494=DIRECTION('',(0.E0,1.E0,0.E0));
#1495=AXIS2_PLACEMENT_3D('',#1492,#1493,#1494);
#1496=PLANE('',#1495);
#1497=ORIENTED_EDGE('',*,*,#1451,.F.);
#1499=ORIENTED_EDGE('',*,*,#1498,.T.);
#1501=ORIENTED_EDGE('',*,*,#1500,.T.);
#1503=ORIENTED_EDGE('',*,*,#1502,.F.);
#1504=EDGE_LOOP('',(#1497,#1499,#1501,#1503));
#1505=FACE_OUTER_BOUND('',#1504,.F.);
#1506=ADVANCED_FACE('',(#1505),#1496,.T.);
#1507=CARTESIAN_POINT('',(2.E0,1.1E0,-4.E0));
#1508=DIRECTION('',(0.E0,-1.E0,0.E0));
#1509=DIRECTION('',(1.E0,0.E0,0.E0));
#1510=AXIS2_PLACEMENT_3D('',#1507,#1508,#1509);
#1511=PLANE('',#1510);
#1512=ORIENTED_EDGE('',*,*,#1457,.F.);
#1514=ORIENTED_EDGE('',*,*,#1513,.T.);
#1516=ORIENTED_EDGE('',*,*,#1515,.T.);
#1517=ORIENTED_EDGE('',*,*,#1498,.F.);
#1518=EDGE_LOOP('',(#1512,#1514,#1516,#1517));
#1519=FACE_OUTER_BOUND('',#1518,.F.);
#1520=ADVANCED_FACE('',(#1519),#1511,.T.);
#1521=CARTESIAN_POINT('',(2.E0,1.6E0,-4.E0));
#1522=DIRECTION('',(-1.E0,0.E0,0.E0));
#1523=DIRECTION('',(0.E0,-1.E0,0.E0));
#1524=AXIS2_PLACEMENT_3D('',#1521,#1522,#1523);
#1525=PLANE('',#1524);
#1526=ORIENTED_EDGE('',*,*,#1455,.F.);
#1528=ORIENTED_EDGE('',*,*,#1527,.T.);
#1530=ORIENTED_EDGE('',*,*,#1529,.T.);
#1531=ORIENTED_EDGE('',*,*,#1513,.F.);
#1532=EDGE_LOOP('',(#1526,#1528,#1530,#1531));
#1533=FACE_OUTER_BOUND('',#1532,.F.);
#1534=ADVANCED_FACE('',(#1533),#1525,.T.);
#1535=CARTESIAN_POINT('',(2.5E0,1.6E0,-4.E0));
#1536=DIRECTION('',(0.E0,1.E0,0.E0));
#1537=DIRECTION('',(-1.E0,0.E0,0.E0));
#1538=AXIS2_PLACEMENT_3D('',#1535,#1536,#1537);
#1539=PLANE('',#1538);
#1540=ORIENTED_EDGE('',*,*,#1453,.F.);
#1541=ORIENTED_EDGE('',*,*,#1502,.T.);
#1543=ORIENTED_EDGE('',*,*,#1542,.T.);
#1544=ORIENTED_EDGE('',*,*,#1527,.F.);
#1545=EDGE_LOOP('',(#1540,#1541,#1543,#1544));
#1546=FACE_OUTER_BOUND('',#1545,.F.);
#1547=ADVANCED_FACE('',(#1546),#1539,.T.);
#1548=CARTESIAN_POINT('',(0.E0,0.E0,-1.E0));
#1549=DIRECTION('',(0.E0,0.E0,1.E0));
#1550=DIRECTION('',(-1.E0,0.E0,0.E0));
#1551=AXIS2_PLACEMENT_3D('',#1548,#1549,#1550);
#1552=PLANE('',#1551);
#1553=ORIENTED_EDGE('',*,*,#1500,.F.);
#1554=ORIENTED_EDGE('',*,*,#1515,.F.);
#1555=ORIENTED_EDGE('',*,*,#1529,.F.);
#1556=ORIENTED_EDGE('',*,*,#1542,.F.);
#1557=EDGE_LOOP('',(#1553,#1554,#1555,#1556));
#1558=FACE_OUTER_BOUND('',#1557,.F.);
#1559=ADVANCED_FACE('',(#1558),#1552,.T.);
#1560=CARTESIAN_POINT('',(0.E0,0.E0,-1.E0));
#1561=DIRECTION('',(0.E0,0.E0,1.E0));
#1562=DIRECTION('',(-1.E0,0.E0,0.E0));
#1563=AXIS2_PLACEMENT_3D('',#1560,#1561,#1562);
#1564=PLANE('',#1563);
#1566=ORIENTED_EDGE('',*,*,#1565,.F.);
#1568=ORIENTED_EDGE('',*,*,#1567,.F.);
#1570=ORIENTED_EDGE('',*,*,#1569,.F.);
#1572=ORIENTED_EDGE('',*,*,#1571,.F.);
#1573=EDGE_LOOP('',(#1566,#1568,#1570,#1572));
#1574=FACE_OUTER_BOUND('',#1573,.F.);
#1575=ADVANCED_FACE('',(#1574),#1564,.T.);
#1576=CARTESIAN_POINT('',(0.E0,0.E0,-1.E0));
#1577=DIRECTION('',(0.E0,0.E0,1.E0));
#1578=DIRECTION('',(-1.E0,0.E0,0.E0));
#1579=AXIS2_PLACEMENT_3D('',#1576,#1577,#1578);
#1580=PLANE('',#1579);
#1582=ORIENTED_EDGE('',*,*,#1581,.F.);
#1584=ORIENTED_EDGE('',*,*,#1583,.F.);
#1586=ORIENTED_EDGE('',*,*,#1585,.F.);
#1588=ORIENTED_EDGE('',*,*,#1587,.F.);
#1589=EDGE_LOOP('',(#1582,#1584,#1586,#1588));
#1590=FACE_OUTER_BOUND('',#1589,.F.);
#1591=ADVANCED_FACE('',(#1590),#1580,.T.);
#1592=CARTESIAN_POINT('',(0.E0,0.E0,-1.E0));
#1593=DIRECTION('',(0.E0,0.E0,1.E0));
#1594=DIRECTION('',(-1.E0,0.E0,0.E0));
#1595=AXIS2_PLACEMENT_3D('',#1592,#1593,#1594);
#1596=PLANE('',#1595);
#1598=ORIENTED_EDGE('',*,*,#1597,.F.);
#1600=ORIENTED_EDGE('',*,*,#1599,.F.);
#1602=ORIENTED_EDGE('',*,*,#1601,.F.);
#1604=ORIENTED_EDGE('',*,*,#1603,.F.);
#1605=EDGE_LOOP('',(#1598,#1600,#1602,#1604));
#1606=FACE_OUTER_BOUND('',#1605,.F.);
#1607=ADVANCED_FACE('',(#1606),#1596,.T.);
#1608=CARTESIAN_POINT('',(1.E0,1.1E0,-4.E0));
#1609=DIRECTION('',(1.E0,0.E0,0.E0));
#1610=DIRECTION('',(0.E0,1.E0,0.E0));
#1611=AXIS2_PLACEMENT_3D('',#1608,#1609,#1610);
#1612=PLANE('',#1611);
#1613=ORIENTED_EDGE('',*,*,#1461,.F.);
#1615=ORIENTED_EDGE('',*,*,#1614,.T.);
#1616=ORIENTED_EDGE('',*,*,#1565,.T.);
#1618=ORIENTED_EDGE('',*,*,#1617,.F.);
#1619=EDGE_LOOP('',(#1613,#1615,#1616,#1618));
#1620=FACE_OUTER_BOUND('',#1619,.F.);
#1621=ADVANCED_FACE('',(#1620),#1612,.T.);
#1622=CARTESIAN_POINT('',(5.E-1,1.1E0,-4.E0));
#1623=DIRECTION('',(0.E0,-1.E0,0.E0));
#1624=DIRECTION('',(1.E0,0.E0,0.E0));
#1625=AXIS2_PLACEMENT_3D('',#1622,#1623,#1624);
#1626=PLANE('',#1625);
#1627=ORIENTED_EDGE('',*,*,#1467,.F.);
#1629=ORIENTED_EDGE('',*,*,#1628,.T.);
#1630=ORIENTED_EDGE('',*,*,#1567,.T.);
#1631=ORIENTED_EDGE('',*,*,#1614,.F.);
#1632=EDGE_LOOP('',(#1627,#1629,#1630,#1631));
#1633=FACE_OUTER_BOUND('',#1632,.F.);
#1634=ADVANCED_FACE('',(#1633),#1626,.T.);
#1635=CARTESIAN_POINT('',(5.E-1,1.6E0,-4.E0));
#1636=DIRECTION('',(-1.E0,0.E0,0.E0));
#1637=DIRECTION('',(0.E0,-1.E0,0.E0));
#1638=AXIS2_PLACEMENT_3D('',#1635,#1636,#1637);
#1639=PLANE('',#1638);
#1640=ORIENTED_EDGE('',*,*,#1465,.F.);
#1642=ORIENTED_EDGE('',*,*,#1641,.T.);
#1643=ORIENTED_EDGE('',*,*,#1569,.T.);
#1644=ORIENTED_EDGE('',*,*,#1628,.F.);
#1645=EDGE_LOOP('',(#1640,#1642,#1643,#1644));
#1646=FACE_OUTER_BOUND('',#1645,.F.);
#1647=ADVANCED_FACE('',(#1646),#1639,.T.);
#1648=CARTESIAN_POINT('',(1.E0,1.6E0,-4.E0));
#1649=DIRECTION('',(0.E0,1.E0,0.E0));
#1650=DIRECTION('',(-1.E0,0.E0,0.E0));
#1651=AXIS2_PLACEMENT_3D('',#1648,#1649,#1650);
#1652=PLANE('',#1651);
#1653=ORIENTED_EDGE('',*,*,#1463,.F.);
#1654=ORIENTED_EDGE('',*,*,#1617,.T.);
#1655=ORIENTED_EDGE('',*,*,#1571,.T.);
#1656=ORIENTED_EDGE('',*,*,#1641,.F.);
#1657=EDGE_LOOP('',(#1653,#1654,#1655,#1656));
#1658=FACE_OUTER_BOUND('',#1657,.F.);
#1659=ADVANCED_FACE('',(#1658),#1652,.T.);
#1660=CARTESIAN_POINT('',(-2.5E0,1.1E0,-4.E0));
#1661=DIRECTION('',(0.E0,-1.E0,0.E0));
#1662=DIRECTION('',(1.E0,0.E0,0.E0));
#1663=AXIS2_PLACEMENT_3D('',#1660,#1661,#1662);
#1664=PLANE('',#1663);
#1665=ORIENTED_EDGE('',*,*,#1471,.F.);
#1667=ORIENTED_EDGE('',*,*,#1666,.T.);
#1668=ORIENTED_EDGE('',*,*,#1581,.T.);
#1670=ORIENTED_EDGE('',*,*,#1669,.F.);
#1671=EDGE_LOOP('',(#1665,#1667,#1668,#1670));
#1672=FACE_OUTER_BOUND('',#1671,.F.);
#1673=ADVANCED_FACE('',(#1672),#1664,.T.);
#1674=CARTESIAN_POINT('',(-2.5E0,1.6E0,-4.E0));
#1675=DIRECTION('',(-1.E0,0.E0,0.E0));
#1676=DIRECTION('',(0.E0,-1.E0,0.E0));
#1677=AXIS2_PLACEMENT_3D('',#1674,#1675,#1676);
#1678=PLANE('',#1677);
#1679=ORIENTED_EDGE('',*,*,#1477,.F.);
#1681=ORIENTED_EDGE('',*,*,#1680,.T.);
#1682=ORIENTED_EDGE('',*,*,#1583,.T.);
#1683=ORIENTED_EDGE('',*,*,#1666,.F.);
#1684=EDGE_LOOP('',(#1679,#1681,#1682,#1683));
#1685=FACE_OUTER_BOUND('',#1684,.F.);
#1686=ADVANCED_FACE('',(#1685),#1678,.T.);
#1687=CARTESIAN_POINT('',(-2.E0,1.6E0,-4.E0));
#1688=DIRECTION('',(0.E0,1.E0,0.E0));
#1689=DIRECTION('',(-1.E0,0.E0,0.E0));
#1690=AXIS2_PLACEMENT_3D('',#1687,#1688,#1689);
#1691=PLANE('',#1690);
#1692=ORIENTED_EDGE('',*,*,#1475,.F.);
#1694=ORIENTED_EDGE('',*,*,#1693,.T.);
#1695=ORIENTED_EDGE('',*,*,#1585,.T.);
#1696=ORIENTED_EDGE('',*,*,#1680,.F.);
#1697=EDGE_LOOP('',(#1692,#1694,#1695,#1696));
#1698=FACE_OUTER_BOUND('',#1697,.F.);
#1699=ADVANCED_FACE('',(#1698),#1691,.T.);
#1700=CARTESIAN_POINT('',(-2.E0,1.1E0,-4.E0));
#1701=DIRECTION('',(1.E0,0.E0,0.E0));
#1702=DIRECTION('',(0.E0,1.E0,0.E0));
#1703=AXIS2_PLACEMENT_3D('',#1700,#1701,#1702);
#1704=PLANE('',#1703);
#1705=ORIENTED_EDGE('',*,*,#1473,.F.);
#1706=ORIENTED_EDGE('',*,*,#1669,.T.);
#1707=ORIENTED_EDGE('',*,*,#1587,.T.);
#1708=ORIENTED_EDGE('',*,*,#1693,.F.);
#1709=EDGE_LOOP('',(#1705,#1706,#1707,#1708));
#1710=FACE_OUTER_BOUND('',#1709,.F.);
#1711=ADVANCED_FACE('',(#1710),#1704,.T.);
#1712=CARTESIAN_POINT('',(-1.E0,1.1E0,-4.E0));
#1713=DIRECTION('',(0.E0,-1.E0,0.E0));
#1714=DIRECTION('',(1.E0,0.E0,0.E0));
#1715=AXIS2_PLACEMENT_3D('',#1712,#1713,#1714);
#1716=PLANE('',#1715);
#1717=ORIENTED_EDGE('',*,*,#1481,.F.);
#1719=ORIENTED_EDGE('',*,*,#1718,.T.);
#1720=ORIENTED_EDGE('',*,*,#1597,.T.);
#1722=ORIENTED_EDGE('',*,*,#1721,.F.);
#1723=EDGE_LOOP('',(#1717,#1719,#1720,#1722));
#1724=FACE_OUTER_BOUND('',#1723,.F.);
#1725=ADVANCED_FACE('',(#1724),#1716,.T.);
#1726=CARTESIAN_POINT('',(-1.E0,1.6E0,-4.E0));
#1727=DIRECTION('',(-1.E0,0.E0,0.E0));
#1728=DIRECTION('',(0.E0,-1.E0,0.E0));
#1729=AXIS2_PLACEMENT_3D('',#1726,#1727,#1728);
#1730=PLANE('',#1729);
#1731=ORIENTED_EDGE('',*,*,#1487,.F.);
#1733=ORIENTED_EDGE('',*,*,#1732,.T.);
#1734=ORIENTED_EDGE('',*,*,#1599,.T.);
#1735=ORIENTED_EDGE('',*,*,#1718,.F.);
#1736=EDGE_LOOP('',(#1731,#1733,#1734,#1735));
#1737=FACE_OUTER_BOUND('',#1736,.F.);
#1738=ADVANCED_FACE('',(#1737),#1730,.T.);
#1739=CARTESIAN_POINT('',(-5.E-1,1.6E0,-4.E0));
#1740=DIRECTION('',(0.E0,1.E0,0.E0));
#1741=DIRECTION('',(-1.E0,0.E0,0.E0));
#1742=AXIS2_PLACEMENT_3D('',#1739,#1740,#1741);
#1743=PLANE('',#1742);
#1744=ORIENTED_EDGE('',*,*,#1485,.F.);
#1746=ORIENTED_EDGE('',*,*,#1745,.T.);
#1747=ORIENTED_EDGE('',*,*,#1601,.T.);
#1748=ORIENTED_EDGE('',*,*,#1732,.F.);
#1749=EDGE_LOOP('',(#1744,#1746,#1747,#1748));
#1750=FACE_OUTER_BOUND('',#1749,.F.);
#1751=ADVANCED_FACE('',(#1750),#1743,.T.);
#1752=CARTESIAN_POINT('',(-5.E-1,1.1E0,-4.E0));
#1753=DIRECTION('',(1.E0,0.E0,0.E0));
#1754=DIRECTION('',(0.E0,1.E0,0.E0));
#1755=AXIS2_PLACEMENT_3D('',#1752,#1753,#1754);
#1756=PLANE('',#1755);
#1757=ORIENTED_EDGE('',*,*,#1483,.F.);
#1758=ORIENTED_EDGE('',*,*,#1721,.T.);
#1759=ORIENTED_EDGE('',*,*,#1603,.T.);
#1760=ORIENTED_EDGE('',*,*,#1745,.F.);
#1761=EDGE_LOOP('',(#1757,#1758,#1759,#1760));
#1762=FACE_OUTER_BOUND('',#1761,.F.);
#1763=ADVANCED_FACE('',(#1762),#1756,.T.);
#1764=CARTESIAN_POINT('',(4.5E0,0.E0,-6.E0));
#1765=DIRECTION('',(0.E0,0.E0,-1.E0));
#1766=DIRECTION('',(-1.E0,0.E0,0.E0));
#1767=AXIS2_PLACEMENT_3D('',#1764,#1765,#1766);
#1768=PLANE('',#1767);
#1769=ORIENTED_EDGE('',*,*,#1169,.F.);
#1770=ORIENTED_EDGE('',*,*,#1183,.T.);
#1771=ORIENTED_EDGE('',*,*,#1212,.T.);
#1772=ORIENTED_EDGE('',*,*,#1082,.F.);
#1773=EDGE_LOOP('',(#1769,#1770,#1771,#1772));
#1774=FACE_OUTER_BOUND('',#1773,.F.);
#1775=ADVANCED_FACE('',(#1774),#1768,.T.);
#1776=CARTESIAN_POINT('',(4.5E0,0.E0,-6.E0));
#1777=DIRECTION('',(0.E0,0.E0,-1.E0));
#1778=DIRECTION('',(-1.E0,0.E0,0.E0));
#1779=AXIS2_PLACEMENT_3D('',#1776,#1777,#1778);
#1780=PLANE('',#1779);
#1782=ORIENTED_EDGE('',*,*,#1781,.F.);
#1783=ORIENTED_EDGE('',*,*,#1275,.T.);
#1784=ORIENTED_EDGE('',*,*,#1246,.T.);
#1786=ORIENTED_EDGE('',*,*,#1785,.F.);
#1787=EDGE_LOOP('',(#1782,#1783,#1784,#1786));
#1788=FACE_OUTER_BOUND('',#1787,.F.);
#1789=ADVANCED_FACE('',(#1788),#1780,.T.);
#1790=CARTESIAN_POINT('',(4.25E0,2.25E0,-5.55E0));
#1791=DIRECTION('',(0.E0,-8.741572761215E-1,-4.856429311786E-1));
#1792=DIRECTION('',(0.E0,-4.856429311786E-1,8.741572761215E-1));
#1793=AXIS2_PLACEMENT_3D('',#1790,#1791,#1792);
#1794=PLANE('',#1793);
#1796=ORIENTED_EDGE('',*,*,#1795,.T.);
#1797=ORIENTED_EDGE('',*,*,#1117,.F.);
#1798=ORIENTED_EDGE('',*,*,#1277,.T.);
#1799=ORIENTED_EDGE('',*,*,#1781,.T.);
#1800=EDGE_LOOP('',(#1796,#1797,#1798,#1799));
#1801=FACE_OUTER_BOUND('',#1800,.F.);
#1802=ADVANCED_FACE('',(#1801),#1794,.T.);
#1803=CARTESIAN_POINT('',(4.E0,0.E0,-6.E0));
#1804=DIRECTION('',(1.E0,0.E0,0.E0));
#1805=DIRECTION('',(0.E0,0.E0,1.E0));
#1806=AXIS2_PLACEMENT_3D('',#1803,#1804,#1805);
#1807=PLANE('',#1806);
#1808=ORIENTED_EDGE('',*,*,#1795,.F.);
#1809=ORIENTED_EDGE('',*,*,#1785,.T.);
#1810=ORIENTED_EDGE('',*,*,#1244,.T.);
#1811=ORIENTED_EDGE('',*,*,#1119,.F.);
#1812=EDGE_LOOP('',(#1808,#1809,#1810,#1811));
#1813=FACE_OUTER_BOUND('',#1812,.F.);
#1814=ADVANCED_FACE('',(#1813),#1807,.F.);
#1815=CARTESIAN_POINT('',(-4.25E0,3.7E0,-1.2E0));
#1816=DIRECTION('',(0.E0,0.E0,1.E0));
#1817=DIRECTION('',(-1.E0,0.E0,0.E0));
#1818=AXIS2_PLACEMENT_3D('',#1815,#1816,#1817);
#1819=PLANE('',#1818);
#1820=ORIENTED_EDGE('',*,*,#1094,.T.);
#1821=ORIENTED_EDGE('',*,*,#1026,.T.);
#1823=ORIENTED_EDGE('',*,*,#1822,.F.);
#1824=ORIENTED_EDGE('',*,*,#1206,.F.);
#1825=EDGE_LOOP('',(#1820,#1821,#1823,#1824));
#1826=FACE_OUTER_BOUND('',#1825,.F.);
#1827=ADVANCED_FACE('',(#1826),#1819,.T.);
#1828=CARTESIAN_POINT('',(-5.E0,3.7E0,-1.2E0));
#1829=DIRECTION('',(-1.E0,0.E0,0.E0));
#1830=DIRECTION('',(0.E0,0.E0,-1.E0));
#1831=AXIS2_PLACEMENT_3D('',#1828,#1829,#1830);
#1832=PLANE('',#1831);
#1833=ORIENTED_EDGE('',*,*,#1208,.F.);
#1834=ORIENTED_EDGE('',*,*,#1822,.T.);
#1835=ORIENTED_EDGE('',*,*,#1024,.T.);
#1836=ORIENTED_EDGE('',*,*,#1064,.F.);
#1837=EDGE_LOOP('',(#1833,#1834,#1835,#1836));
#1838=FACE_OUTER_BOUND('',#1837,.F.);
#1839=ADVANCED_FACE('',(#1838),#1832,.T.);
#1840=CARTESIAN_POINT('',(-2.5E0,3.7E0,-5.1E0));
#1841=DIRECTION('',(-1.E0,0.E0,0.E0));
#1842=DIRECTION('',(0.E0,0.E0,-1.E0));
#1843=AXIS2_PLACEMENT_3D('',#1840,#1841,#1842);
#1844=PLANE('',#1843);
#1845=ORIENTED_EDGE('',*,*,#1151,.T.);
#1847=ORIENTED_EDGE('',*,*,#1846,.T.);
#1849=ORIENTED_EDGE('',*,*,#1848,.F.);
#1850=ORIENTED_EDGE('',*,*,#1216,.F.);
#1851=EDGE_LOOP('',(#1845,#1847,#1849,#1850));
#1852=FACE_OUTER_BOUND('',#1851,.F.);
#1853=ADVANCED_FACE('',(#1852),#1844,.T.);
#1854=CARTESIAN_POINT('',(0.E0,3.2E0,0.E0));
#1855=DIRECTION('',(0.E0,-1.E0,0.E0));
#1856=DIRECTION('',(1.E0,0.E0,0.E0));
#1857=AXIS2_PLACEMENT_3D('',#1854,#1855,#1856);
#1858=PLANE('',#1857);
#1859=ORIENTED_EDGE('',*,*,#1149,.T.);
#1861=ORIENTED_EDGE('',*,*,#1860,.F.);
#1863=ORIENTED_EDGE('',*,*,#1862,.F.);
#1864=ORIENTED_EDGE('',*,*,#1846,.F.);
#1865=EDGE_LOOP('',(#1859,#1861,#1863,#1864));
#1866=FACE_OUTER_BOUND('',#1865,.F.);
#1867=ADVANCED_FACE('',(#1866),#1858,.T.);
#1868=CARTESIAN_POINT('',(0.E0,3.2E0,0.E0));
#1869=DIRECTION('',(0.E0,-1.E0,0.E0));
#1870=DIRECTION('',(1.E0,0.E0,0.E0));
#1871=AXIS2_PLACEMENT_3D('',#1868,#1869,#1870);
#1872=PLANE('',#1871);
#1873=ORIENTED_EDGE('',*,*,#1141,.T.);
#1875=ORIENTED_EDGE('',*,*,#1874,.F.);
#1877=ORIENTED_EDGE('',*,*,#1876,.F.);
#1879=ORIENTED_EDGE('',*,*,#1878,.F.);
#1880=EDGE_LOOP('',(#1873,#1875,#1877,#1879));
#1881=FACE_OUTER_BOUND('',#1880,.F.);
#1882=ADVANCED_FACE('',(#1881),#1872,.T.);
#1883=CARTESIAN_POINT('',(0.E0,3.2E0,0.E0));
#1884=DIRECTION('',(0.E0,-1.E0,0.E0));
#1885=DIRECTION('',(1.E0,0.E0,0.E0));
#1886=AXIS2_PLACEMENT_3D('',#1883,#1884,#1885);
#1887=PLANE('',#1886);
#1888=ORIENTED_EDGE('',*,*,#1133,.T.);
#1890=ORIENTED_EDGE('',*,*,#1889,.F.);
#1892=ORIENTED_EDGE('',*,*,#1891,.F.);
#1894=ORIENTED_EDGE('',*,*,#1893,.F.);
#1895=EDGE_LOOP('',(#1888,#1890,#1892,#1894));
#1896=FACE_OUTER_BOUND('',#1895,.F.);
#1897=ADVANCED_FACE('',(#1896),#1887,.T.);
#1898=CARTESIAN_POINT('',(0.E0,3.2E0,0.E0));
#1899=DIRECTION('',(0.E0,-1.E0,0.E0));
#1900=DIRECTION('',(1.E0,0.E0,0.E0));
#1901=AXIS2_PLACEMENT_3D('',#1898,#1899,#1900);
#1902=PLANE('',#1901);
#1903=ORIENTED_EDGE('',*,*,#1125,.T.);
#1905=ORIENTED_EDGE('',*,*,#1904,.F.);
#1907=ORIENTED_EDGE('',*,*,#1906,.F.);
#1909=ORIENTED_EDGE('',*,*,#1908,.F.);
#1910=EDGE_LOOP('',(#1903,#1905,#1907,#1909));
#1911=FACE_OUTER_BOUND('',#1910,.F.);
#1912=ADVANCED_FACE('',(#1911),#1902,.T.);
#1913=CARTESIAN_POINT('',(-2.E0,3.7E0,-6.E0));
#1914=DIRECTION('',(1.E0,0.E0,0.E0));
#1915=DIRECTION('',(0.E0,0.E0,1.E0));
#1916=AXIS2_PLACEMENT_3D('',#1913,#1914,#1915);
#1917=PLANE('',#1916);
#1918=ORIENTED_EDGE('',*,*,#1147,.F.);
#1919=ORIENTED_EDGE('',*,*,#1220,.F.);
#1921=ORIENTED_EDGE('',*,*,#1920,.T.);
#1922=ORIENTED_EDGE('',*,*,#1860,.T.);
#1923=EDGE_LOOP('',(#1918,#1919,#1921,#1922));
#1924=FACE_OUTER_BOUND('',#1923,.F.);
#1925=ADVANCED_FACE('',(#1924),#1917,.T.);
#1926=CARTESIAN_POINT('',(-2.5E0,3.7E0,-6.E0));
#1927=DIRECTION('',(0.E0,0.E0,-1.E0));
#1928=DIRECTION('',(1.E0,0.E0,0.E0));
#1929=AXIS2_PLACEMENT_3D('',#1926,#1927,#1928);
#1930=PLANE('',#1929);
#1931=ORIENTED_EDGE('',*,*,#1218,.F.);
#1932=ORIENTED_EDGE('',*,*,#1848,.T.);
#1933=ORIENTED_EDGE('',*,*,#1862,.T.);
#1934=ORIENTED_EDGE('',*,*,#1920,.F.);
#1935=EDGE_LOOP('',(#1931,#1932,#1933,#1934));
#1936=FACE_OUTER_BOUND('',#1935,.F.);
#1937=ADVANCED_FACE('',(#1936),#1930,.T.);
#1938=CARTESIAN_POINT('',(-5.E-1,3.7E0,-6.E0));
#1939=DIRECTION('',(1.E0,0.E0,0.E0));
#1940=DIRECTION('',(0.E0,0.E0,1.E0));
#1941=AXIS2_PLACEMENT_3D('',#1938,#1939,#1940);
#1942=PLANE('',#1941);
#1943=ORIENTED_EDGE('',*,*,#1139,.F.);
#1944=ORIENTED_EDGE('',*,*,#1227,.F.);
#1946=ORIENTED_EDGE('',*,*,#1945,.T.);
#1947=ORIENTED_EDGE('',*,*,#1874,.T.);
#1948=EDGE_LOOP('',(#1943,#1944,#1946,#1947));
#1949=FACE_OUTER_BOUND('',#1948,.F.);
#1950=ADVANCED_FACE('',(#1949),#1942,.T.);
#1951=CARTESIAN_POINT('',(-1.E0,3.7E0,-6.E0));
#1952=DIRECTION('',(0.E0,0.E0,-1.E0));
#1953=DIRECTION('',(1.E0,0.E0,0.E0));
#1954=AXIS2_PLACEMENT_3D('',#1951,#1952,#1953);
#1955=PLANE('',#1954);
#1956=ORIENTED_EDGE('',*,*,#1225,.F.);
#1958=ORIENTED_EDGE('',*,*,#1957,.T.);
#1959=ORIENTED_EDGE('',*,*,#1876,.T.);
#1960=ORIENTED_EDGE('',*,*,#1945,.F.);
#1961=EDGE_LOOP('',(#1956,#1958,#1959,#1960));
#1962=FACE_OUTER_BOUND('',#1961,.F.);
#1963=ADVANCED_FACE('',(#1962),#1955,.T.);
#1964=CARTESIAN_POINT('',(-1.E0,3.7E0,-5.1E0));
#1965=DIRECTION('',(-1.E0,0.E0,0.E0));
#1966=DIRECTION('',(0.E0,0.E0,-1.E0));
#1967=AXIS2_PLACEMENT_3D('',#1964,#1965,#1966);
#1968=PLANE('',#1967);
#1969=ORIENTED_EDGE('',*,*,#1143,.T.);
#1970=ORIENTED_EDGE('',*,*,#1878,.T.);
#1971=ORIENTED_EDGE('',*,*,#1957,.F.);
#1972=ORIENTED_EDGE('',*,*,#1223,.F.);
#1973=EDGE_LOOP('',(#1969,#1970,#1971,#1972));
#1974=FACE_OUTER_BOUND('',#1973,.F.);
#1975=ADVANCED_FACE('',(#1974),#1968,.T.);
#1976=CARTESIAN_POINT('',(1.E0,3.7E0,-6.E0));
#1977=DIRECTION('',(1.E0,0.E0,0.E0));
#1978=DIRECTION('',(0.E0,0.E0,1.E0));
#1979=AXIS2_PLACEMENT_3D('',#1976,#1977,#1978);
#1980=PLANE('',#1979);
#1981=ORIENTED_EDGE('',*,*,#1131,.F.);
#1982=ORIENTED_EDGE('',*,*,#1234,.F.);
#1984=ORIENTED_EDGE('',*,*,#1983,.T.);
#1985=ORIENTED_EDGE('',*,*,#1889,.T.);
#1986=EDGE_LOOP('',(#1981,#1982,#1984,#1985));
#1987=FACE_OUTER_BOUND('',#1986,.F.);
#1988=ADVANCED_FACE('',(#1987),#1980,.T.);
#1989=CARTESIAN_POINT('',(5.E-1,3.7E0,-6.E0));
#1990=DIRECTION('',(0.E0,0.E0,-1.E0));
#1991=DIRECTION('',(1.E0,0.E0,0.E0));
#1992=AXIS2_PLACEMENT_3D('',#1989,#1990,#1991);
#1993=PLANE('',#1992);
#1994=ORIENTED_EDGE('',*,*,#1232,.F.);
#1996=ORIENTED_EDGE('',*,*,#1995,.T.);
#1997=ORIENTED_EDGE('',*,*,#1891,.T.);
#1998=ORIENTED_EDGE('',*,*,#1983,.F.);
#1999=EDGE_LOOP('',(#1994,#1996,#1997,#1998));
#2000=FACE_OUTER_BOUND('',#1999,.F.);
#2001=ADVANCED_FACE('',(#2000),#1993,.T.);
#2002=CARTESIAN_POINT('',(5.E-1,3.7E0,-5.1E0));
#2003=DIRECTION('',(-1.E0,0.E0,0.E0));
#2004=DIRECTION('',(0.E0,0.E0,-1.E0));
#2005=AXIS2_PLACEMENT_3D('',#2002,#2003,#2004);
#2006=PLANE('',#2005);
#2007=ORIENTED_EDGE('',*,*,#1135,.T.);
#2008=ORIENTED_EDGE('',*,*,#1893,.T.);
#2009=ORIENTED_EDGE('',*,*,#1995,.F.);
#2010=ORIENTED_EDGE('',*,*,#1230,.F.);
#2011=EDGE_LOOP('',(#2007,#2008,#2009,#2010));
#2012=FACE_OUTER_BOUND('',#2011,.F.);
#2013=ADVANCED_FACE('',(#2012),#2006,.T.);
#2014=CARTESIAN_POINT('',(2.5E0,3.7E0,-6.E0));
#2015=DIRECTION('',(1.E0,0.E0,0.E0));
#2016=DIRECTION('',(0.E0,0.E0,1.E0));
#2017=AXIS2_PLACEMENT_3D('',#2014,#2015,#2016);
#2018=PLANE('',#2017);
#2019=ORIENTED_EDGE('',*,*,#1123,.F.);
#2020=ORIENTED_EDGE('',*,*,#1241,.F.);
#2022=ORIENTED_EDGE('',*,*,#2021,.T.);
#2023=ORIENTED_EDGE('',*,*,#1904,.T.);
#2024=EDGE_LOOP('',(#2019,#2020,#2022,#2023));
#2025=FACE_OUTER_BOUND('',#2024,.F.);
#2026=ADVANCED_FACE('',(#2025),#2018,.T.);
#2027=CARTESIAN_POINT('',(2.E0,3.7E0,-6.E0));
#2028=DIRECTION('',(0.E0,0.E0,-1.E0));
#2029=DIRECTION('',(1.E0,0.E0,0.E0));
#2030=AXIS2_PLACEMENT_3D('',#2027,#2028,#2029);
#2031=PLANE('',#2030);
#2032=ORIENTED_EDGE('',*,*,#1239,.F.);
#2034=ORIENTED_EDGE('',*,*,#2033,.T.);
#2035=ORIENTED_EDGE('',*,*,#1906,.T.);
#2036=ORIENTED_EDGE('',*,*,#2021,.F.);
#2037=EDGE_LOOP('',(#2032,#2034,#2035,#2036));
#2038=FACE_OUTER_BOUND('',#2037,.F.);
#2039=ADVANCED_FACE('',(#2038),#2031,.T.);
#2040=CARTESIAN_POINT('',(2.E0,3.7E0,-5.1E0));
#2041=DIRECTION('',(-1.E0,0.E0,0.E0));
#2042=DIRECTION('',(0.E0,0.E0,-1.E0));
#2043=AXIS2_PLACEMENT_3D('',#2040,#2041,#2042);
#2044=PLANE('',#2043);
#2045=ORIENTED_EDGE('',*,*,#1127,.T.);
#2046=ORIENTED_EDGE('',*,*,#1908,.T.);
#2047=ORIENTED_EDGE('',*,*,#2033,.F.);
#2048=ORIENTED_EDGE('',*,*,#1237,.F.);
#2049=EDGE_LOOP('',(#2045,#2046,#2047,#2048));
#2050=FACE_OUTER_BOUND('',#2049,.F.);
#2051=ADVANCED_FACE('',(#2050),#2044,.T.);
#2052=CARTESIAN_POINT('',(-4.25E0,0.E0,-1.2E0));
#2053=DIRECTION('',(0.E0,0.E0,1.E0));
#2054=DIRECTION('',(-1.E0,0.E0,0.E0));
#2055=AXIS2_PLACEMENT_3D('',#2052,#2053,#2054);
#2056=PLANE('',#2055);
#2057=ORIENTED_EDGE('',*,*,#1028,.T.);
#2058=ORIENTED_EDGE('',*,*,#1101,.F.);
#2059=ORIENTED_EDGE('',*,*,#978,.T.);
#2061=ORIENTED_EDGE('',*,*,#2060,.T.);
#2062=EDGE_LOOP('',(#2057,#2058,#2059,#2061));
#2063=FACE_OUTER_BOUND('',#2062,.F.);
#2064=ADVANCED_FACE('',(#2063),#2056,.F.);
#2065=CARTESIAN_POINT('',(-4.25E0,0.E0,-2.7E0));
#2066=DIRECTION('',(1.E0,0.E0,0.E0));
#2067=DIRECTION('',(0.E0,0.E0,1.E0));
#2068=AXIS2_PLACEMENT_3D('',#2065,#2066,#2067);
#2069=PLANE('',#2068);
#2070=ORIENTED_EDGE('',*,*,#1030,.T.);
#2071=ORIENTED_EDGE('',*,*,#2060,.F.);
#2072=ORIENTED_EDGE('',*,*,#976,.F.);
#2073=ORIENTED_EDGE('',*,*,#1008,.T.);
#2074=EDGE_LOOP('',(#2070,#2071,#2072,#2073));
#2075=FACE_OUTER_BOUND('',#2074,.F.);
#2076=ADVANCED_FACE('',(#2075),#2069,.F.);
#2080=DIMENSIONAL_EXPONENTS(0.E0,0.E0,0.E0,0.E0,0.E0,0.E0,0.E0);
#2082=PLANE_ANGLE_MEASURE_WITH_UNIT(PLANE_ANGLE_MEASURE(1.745329251994E-2),
#2081);
#2083=(CONVERSION_BASED_UNIT('DEGREE',#2082)NAMED_UNIT(*)PLANE_ANGLE_UNIT());
#2085=UNCERTAINTY_MEASURE_WITH_UNIT(LENGTH_MEASURE(1.E-2),#2079,'closure',
'Maximum model space distance between geometric entities at asserted connectivities');
#2086=(GEOMETRIC_REPRESENTATION_CONTEXT(3)GLOBAL_UNCERTAINTY_ASSIGNED_CONTEXT((
#2085))GLOBAL_UNIT_ASSIGNED_CONTEXT((#2079,#2083,#2084))REPRESENTATION_CONTEXT(
'ID1','3'));
#2088=APPLICATION_CONTEXT(
'CONFIGURATION CONTROLLED 3D DESIGNS OF MECHANICAL PARTS AND ASSEMBLIES');
#2089=APPLICATION_PROTOCOL_DEFINITION('international standard',
'config_control_design',1994,#2088);
#2090=DESIGN_CONTEXT('',#2088,'design');
#2091=MECHANICAL_CONTEXT('',#2088,'mechanical');
#2092=PRODUCT('PRT0001','PRT0001','NOT SPECIFIED',(#2091));
#2093=PRODUCT_DEFINITION_FORMATION_WITH_SPECIFIED_SOURCE('1','LAST_VERSION',
#2092,.MADE.);
#2097=PRODUCT_CATEGORY('part','');
#2098=PRODUCT_RELATED_PRODUCT_CATEGORY('detail','',(#2092));
#2099=PRODUCT_CATEGORY_RELATIONSHIP('','',#2097,#2098);
#2100=SECURITY_CLASSIFICATION_LEVEL('unclassified');
#2101=SECURITY_CLASSIFICATION('','',#2100);
#2102=CC_DESIGN_SECURITY_CLASSIFICATION(#2101,(#2093));
#2103=APPROVAL_STATUS('approved');
#2104=APPROVAL(#2103,'');
#2105=CC_DESIGN_APPROVAL(#2104,(#2101,#2093,#2094));
#2106=CALENDAR_DATE(122,15,4);
#2107=COORDINATED_UNIVERSAL_TIME_OFFSET(8,0,.AHEAD.);
#2108=LOCAL_TIME(11,58,1.E0,#2107);
#2109=DATE_AND_TIME(#2106,#2108);
#2110=APPROVAL_DATE_TIME(#2109,#2104);
#2111=DATE_TIME_ROLE('creation_date');
#2112=CC_DESIGN_DATE_AND_TIME_ASSIGNMENT(#2109,#2111,(#2094));
#2113=DATE_TIME_ROLE('classification_date');
#2114=CC_DESIGN_DATE_AND_TIME_ASSIGNMENT(#2109,#2113,(#2101));
#2115=PERSON('UNSPECIFIED','UNSPECIFIED',$,$,$,$);
#2116=ORGANIZATION('UNSPECIFIED','UNSPECIFIED','UNSPECIFIED');
#2117=PERSON_AND_ORGANIZATION(#2115,#2116);
#2118=APPROVAL_ROLE('approver');
#2119=APPROVAL_PERSON_ORGANIZATION(#2117,#2104,#2118);
#2120=PERSON_AND_ORGANIZATION_ROLE('creator');
#2121=CC_DESIGN_PERSON_AND_ORGANIZATION_ASSIGNMENT(#2117,#2120,(#2093,#2094));
#2122=PERSON_AND_ORGANIZATION_ROLE('design_supplier');
#2123=CC_DESIGN_PERSON_AND_ORGANIZATION_ASSIGNMENT(#2117,#2122,(#2093));
#2124=PERSON_AND_ORGANIZATION_ROLE('classification_officer');
#2125=CC_DESIGN_PERSON_AND_ORGANIZATION_ASSIGNMENT(#2117,#2124,(#2101));
#2126=PERSON_AND_ORGANIZATION_ROLE('design_owner');
#2127=CC_DESIGN_PERSON_AND_ORGANIZATION_ASSIGNMENT(#2117,#2126,(#2092));
#974=EDGE_CURVE('',#851,#852,#4,.T.);
#976=EDGE_CURVE('',#852,#854,#8,.T.);
#978=EDGE_CURVE('',#856,#854,#12,.T.);
#980=EDGE_CURVE('',#856,#731,#16,.T.);
#982=EDGE_CURVE('',#731,#732,#20,.T.);
#984=EDGE_CURVE('',#732,#859,#24,.T.);
#986=EDGE_CURVE('',#859,#860,#28,.T.);
#988=EDGE_CURVE('',#860,#862,#32,.T.);
#990=EDGE_CURVE('',#864,#862,#36,.T.);
#992=EDGE_CURVE('',#864,#768,#40,.T.);
#994=EDGE_CURVE('',#767,#768,#112,.T.);
#996=EDGE_CURVE('',#767,#851,#44,.T.);
#1006=EDGE_CURVE('',#892,#898,#48,.T.);
#1008=EDGE_CURVE('',#852,#898,#728,.T.);
#1011=EDGE_CURVE('',#851,#892,#84,.T.);
#1022=EDGE_CURVE('',#876,#892,#52,.T.);
#1024=EDGE_CURVE('',#875,#876,#56,.T.);
#1026=EDGE_CURVE('',#896,#875,#60,.T.);
#1028=EDGE_CURVE('',#900,#896,#716,.T.);
#1030=EDGE_CURVE('',#898,#900,#724,.T.);
#1040=EDGE_CURVE('',#884,#902,#344,.T.);
#1042=EDGE_CURVE('',#880,#884,#64,.T.);
#1044=EDGE_CURVE('',#879,#880,#68,.T.);
#1046=EDGE_CURVE('',#888,#879,#72,.T.);
#1048=EDGE_CURVE('',#904,#888,#356,.T.);
#1050=EDGE_CURVE('',#902,#904,#348,.T.);
#1060=EDGE_CURVE('',#891,#892,#80,.T.);
#1062=EDGE_CURVE('',#868,#891,#216,.T.);
#1064=EDGE_CURVE('',#868,#876,#76,.T.);
#1078=EDGE_CURVE('',#767,#836,#88,.T.);
#1080=EDGE_CURVE('',#835,#836,#92,.T.);
#1082=EDGE_CURVE('',#835,#764,#96,.T.);
#1084=EDGE_CURVE('',#764,#891,#220,.T.);
#1094=EDGE_CURVE('',#895,#896,#100,.T.);
#1096=EDGE_CURVE('',#895,#735,#204,.T.);
#1098=EDGE_CURVE('',#731,#735,#364,.T.);
#1101=EDGE_CURVE('',#856,#896,#104,.T.);
#1111=EDGE_CURVE('',#838,#836,#108,.T.);
#1115=EDGE_CURVE('',#768,#846,#328,.T.);
#1117=EDGE_CURVE('',#846,#844,#116,.T.);
#1119=EDGE_CURVE('',#844,#756,#120,.T.);
#1121=EDGE_CURVE('',#756,#832,#296,.T.);
#1123=EDGE_CURVE('',#832,#816,#124,.T.);
#1125=EDGE_CURVE('',#815,#816,#128,.T.);
#1127=EDGE_CURVE('',#830,#815,#132,.T.);
#1129=EDGE_CURVE('',#830,#828,#280,.T.);
#1131=EDGE_CURVE('',#828,#812,#136,.T.);
#1133=EDGE_CURVE('',#811,#812,#140,.T.);
#1135=EDGE_CURVE('',#826,#811,#144,.T.);
#1137=EDGE_CURVE('',#826,#820,#264,.T.);
#1139=EDGE_CURVE('',#820,#808,#148,.T.);
#1141=EDGE_CURVE('',#807,#808,#152,.T.);
#1143=EDGE_CURVE('',#818,#807,#156,.T.);
#1145=EDGE_CURVE('',#818,#824,#248,.T.);
#1147=EDGE_CURVE('',#824,#804,#160,.T.);
#1149=EDGE_CURVE('',#803,#804,#164,.T.);
#1151=EDGE_CURVE('',#822,#803,#168,.T.);
#1153=EDGE_CURVE('',#822,#760,#232,.T.);
#1155=EDGE_CURVE('',#838,#760,#176,.T.);
#1167=EDGE_CURVE('',#838,#840,#172,.T.);
#1169=EDGE_CURVE('',#840,#835,#608,.T.);
#1181=EDGE_CURVE('',#759,#760,#228,.T.);
#1183=EDGE_CURVE('',#840,#759,#612,.T.);
#1193=EDGE_CURVE('',#887,#762,#180,.T.);
#1195=EDGE_CURVE('',#887,#871,#184,.T.);
#1197=EDGE_CURVE('',#871,#872,#188,.T.);
#1199=EDGE_CURVE('',#872,#883,#192,.T.);
#1201=EDGE_CURVE('',#736,#883,#196,.T.);
#1203=EDGE_CURVE('',#735,#736,#200,.T.);
#1206=EDGE_CURVE('',#895,#867,#208,.T.);
#1208=EDGE_CURVE('',#867,#868,#212,.T.);
#1212=EDGE_CURVE('',#759,#764,#224,.T.);
#1216=EDGE_CURVE('',#822,#775,#236,.T.);
#1218=EDGE_CURVE('',#775,#776,#240,.T.);
#1220=EDGE_CURVE('',#776,#824,#244,.T.);
#1223=EDGE_CURVE('',#818,#771,#252,.T.);
#1225=EDGE_CURVE('',#771,#772,#256,.T.);
#1227=EDGE_CURVE('',#772,#820,#260,.T.);
#1230=EDGE_CURVE('',#826,#779,#268,.T.);
#1232=EDGE_CURVE('',#779,#780,#272,.T.);
#1234=EDGE_CURVE('',#780,#828,#276,.T.);
#1237=EDGE_CURVE('',#830,#783,#284,.T.);
#1239=EDGE_CURVE('',#783,#784,#288,.T.);
#1241=EDGE_CURVE('',#784,#832,#292,.T.);
#1244=EDGE_CURVE('',#755,#756,#300,.T.);
#1246=EDGE_CURVE('',#762,#755,#304,.T.);
#1256=EDGE_CURVE('',#883,#884,#308,.T.);
#1258=EDGE_CURVE('',#859,#884,#312,.T.);
#1261=EDGE_CURVE('',#732,#736,#316,.T.);
#1272=EDGE_CURVE('',#887,#888,#320,.T.);
#1275=EDGE_CURVE('',#848,#762,#620,.T.);
#1277=EDGE_CURVE('',#846,#848,#324,.T.);
#1281=EDGE_CURVE('',#864,#888,#332,.T.);
#1293=EDGE_CURVE('',#872,#880,#336,.T.);
#1305=EDGE_CURVE('',#871,#879,#340,.T.);
#1330=EDGE_CURVE('',#860,#902,#352,.T.);
#1343=EDGE_CURVE('',#862,#904,#360,.T.);
#1373=EDGE_CURVE('',#747,#748,#368,.T.);
#1375=EDGE_CURVE('',#748,#750,#372,.T.);
#1377=EDGE_CURVE('',#750,#752,#376,.T.);
#1379=EDGE_CURVE('',#752,#747,#380,.T.);
#1390=EDGE_CURVE('',#747,#739,#384,.T.);
#1392=EDGE_CURVE('',#739,#740,#400,.T.);
#1394=EDGE_CURVE('',#748,#740,#396,.T.);
#1405=EDGE_CURVE('',#752,#744,#388,.T.);
#1407=EDGE_CURVE('',#744,#739,#404,.T.);
#1419=EDGE_CURVE('',#750,#742,#392,.T.);
#1421=EDGE_CURVE('',#742,#744,#408,.T.);
#1434=EDGE_CURVE('',#740,#742,#412,.T.);
#1451=EDGE_CURVE('',#939,#940,#416,.T.);
#1453=EDGE_CURVE('',#940,#942,#420,.T.);
#1455=EDGE_CURVE('',#942,#944,#424,.T.);
#1457=EDGE_CURVE('',#944,#939,#428,.T.);
#1461=EDGE_CURVE('',#947,#948,#432,.T.);
#1463=EDGE_CURVE('',#948,#950,#436,.T.);
#1465=EDGE_CURVE('',#950,#952,#440,.T.);
#1467=EDGE_CURVE('',#952,#947,#444,.T.);
#1471=EDGE_CURVE('',#955,#956,#448,.T.);
#1473=EDGE_CURVE('',#956,#958,#452,.T.);
#1475=EDGE_CURVE('',#958,#960,#456,.T.);
#1477=EDGE_CURVE('',#960,#955,#460,.T.);
#1481=EDGE_CURVE('',#963,#964,#464,.T.);
#1483=EDGE_CURVE('',#964,#966,#468,.T.);
#1485=EDGE_CURVE('',#966,#968,#472,.T.);
#1487=EDGE_CURVE('',#968,#963,#476,.T.);
#1498=EDGE_CURVE('',#939,#907,#480,.T.);
#1500=EDGE_CURVE('',#907,#908,#496,.T.);
#1502=EDGE_CURVE('',#940,#908,#492,.T.);
#1513=EDGE_CURVE('',#944,#912,#484,.T.);
#1515=EDGE_CURVE('',#912,#907,#500,.T.);
#1527=EDGE_CURVE('',#942,#910,#488,.T.);
#1529=EDGE_CURVE('',#910,#912,#504,.T.);
#1542=EDGE_CURVE('',#908,#910,#508,.T.);
#1565=EDGE_CURVE('',#915,#916,#512,.T.);
#1567=EDGE_CURVE('',#920,#915,#516,.T.);
#1569=EDGE_CURVE('',#918,#920,#520,.T.);
#1571=EDGE_CURVE('',#916,#918,#524,.T.);
#1581=EDGE_CURVE('',#923,#924,#528,.T.);
#1583=EDGE_CURVE('',#928,#923,#532,.T.);
#1585=EDGE_CURVE('',#926,#928,#536,.T.);
#1587=EDGE_CURVE('',#924,#926,#540,.T.);
#1597=EDGE_CURVE('',#931,#932,#544,.T.);
#1599=EDGE_CURVE('',#936,#931,#548,.T.);
#1601=EDGE_CURVE('',#934,#936,#552,.T.);
#1603=EDGE_CURVE('',#932,#934,#556,.T.);
#1614=EDGE_CURVE('',#947,#915,#560,.T.);
#1617=EDGE_CURVE('',#948,#916,#572,.T.);
#1628=EDGE_CURVE('',#952,#920,#564,.T.);
#1641=EDGE_CURVE('',#950,#918,#568,.T.);
#1666=EDGE_CURVE('',#955,#923,#576,.T.);
#1669=EDGE_CURVE('',#956,#924,#588,.T.);
#1680=EDGE_CURVE('',#960,#928,#580,.T.);
#1693=EDGE_CURVE('',#958,#926,#584,.T.);
#1718=EDGE_CURVE('',#963,#931,#592,.T.);
#1721=EDGE_CURVE('',#964,#932,#604,.T.);
#1732=EDGE_CURVE('',#968,#936,#596,.T.);
#1745=EDGE_CURVE('',#966,#934,#600,.T.);
#1781=EDGE_CURVE('',#848,#843,#616,.T.);
#1785=EDGE_CURVE('',#843,#755,#624,.T.);
#1795=EDGE_CURVE('',#843,#844,#628,.T.);
#1822=EDGE_CURVE('',#867,#875,#632,.T.);
#1846=EDGE_CURVE('',#803,#791,#644,.T.);
#1848=EDGE_CURVE('',#775,#791,#688,.T.);
#1860=EDGE_CURVE('',#792,#804,#636,.T.);
#1862=EDGE_CURVE('',#791,#792,#640,.T.);
#1874=EDGE_CURVE('',#788,#808,#648,.T.);
#1876=EDGE_CURVE('',#787,#788,#652,.T.);
#1878=EDGE_CURVE('',#807,#787,#656,.T.);
#1889=EDGE_CURVE('',#796,#812,#660,.T.);
#1891=EDGE_CURVE('',#795,#796,#664,.T.);
#1893=EDGE_CURVE('',#811,#795,#668,.T.);
#1904=EDGE_CURVE('',#800,#816,#672,.T.);
#1906=EDGE_CURVE('',#799,#800,#676,.T.);
#1908=EDGE_CURVE('',#815,#799,#680,.T.);
#1920=EDGE_CURVE('',#776,#792,#684,.T.);
#1945=EDGE_CURVE('',#772,#788,#692,.T.);
#1957=EDGE_CURVE('',#771,#787,#696,.T.);
#1983=EDGE_CURVE('',#780,#796,#700,.T.);
#1995=EDGE_CURVE('',#779,#795,#704,.T.);
#2021=EDGE_CURVE('',#784,#800,#708,.T.);
#2033=EDGE_CURVE('',#783,#799,#712,.T.);
#2060=EDGE_CURVE('',#854,#900,#720,.T.);
#2077=CLOSED_SHELL('',(#1000,#1015,#1034,#1054,#1069,#1088,#1105,#1159,#1173,
#1187,#1250,#1266,#1285,#1298,#1311,#1323,#1336,#1349,#1361,#1383,#1398,#1412,
#1426,#1439,#1491,#1506,#1520,#1534,#1547,#1559,#1575,#1591,#1607,#1621,#1634,
#1647,#1659,#1673,#1686,#1699,#1711,#1725,#1738,#1751,#1763,#1775,#1789,#1802,
#1814,#1827,#1839,#1853,#1867,#1882,#1897,#1912,#1925,#1937,#1950,#1963,#1975,
#1988,#2001,#2013,#2026,#2039,#2051,#2064,#2076));
#2078=MANIFOLD_SOLID_BREP('',#2077);
#2079=(LENGTH_UNIT()NAMED_UNIT(*)SI_UNIT(.MILLI.,.METRE.));
#2081=(NAMED_UNIT(*)PLANE_ANGLE_UNIT()SI_UNIT($,.RADIAN.));
#2084=(NAMED_UNIT(*)SI_UNIT($,.STERADIAN.)SOLID_ANGLE_UNIT());
#2087=ADVANCED_BREP_SHAPE_REPRESENTATION('',(#2078),#2086);
#2094=PRODUCT_DEFINITION('design','',#2093,#2090);
#2095=PRODUCT_DEFINITION_SHAPE('','SHAPE FOR PRT0001.',#2094);
#2096=SHAPE_DEFINITION_REPRESENTATION(#2095,#2087);
ENDSEC;
END-ISO-10303-21;
